<?xml version="1.0" standalone="no"?><!DOCTYPE svg PUBLIC "-//W3C//DTD SVG 1.1//EN" "http://www.w3.org/Graphics/SVG/1.1/DTD/svg11.dtd" ><svg version="1.1" xmlns="http://www.w3.org/2000/svg"><defs><font horiz-adv-x="0" id="font"><font-face ascent="800" bbox="-508 -295 1550 1106" cap-height="713" descent="-200" font-family="Flama Extrabold" font-stretch="normal" font-style="normal" font-weight="600" units-per-em="1000" x-height="532" /><missing-glyph d="M554 93V571H221V93ZM116 664H659V0H116Z" horiz-adv-x="775" /><glyph glyph-name=".null" horiz-adv-x="0" /><glyph d="M435 276 359 521H357L281 276ZM254 714H481L723 0H519L481 124H235L196 0H7Z" glyph-name="A" horiz-adv-x="731" unicode="A" /><glyph d="M470 281V569L336 281ZM350 713H1010V554H671V437H948V279H671V160H1011V0H470V130H269L208 0H5Z" glyph-name="AE" horiz-adv-x="1059" unicode="&#198;" /><glyph d="M622 942H797L655 756H533ZM470 281V569L336 281ZM350 713H1010V554H671V437H948V279H671V160H1011V0H470V130H269L208 0H5Z" glyph-name="AEacute" horiz-adv-x="1059" unicode="&#508;" /><glyph d="M392 942H567L425 756H303ZM435 276 359 521H357L281 276ZM254 714H481L723 0H519L481 124H235L196 0H7Z" glyph-name="Aacute" horiz-adv-x="731" unicode="&#193;" /><glyph d="M366 757Q280 757 231.5 804.5Q183 852 180 931H290Q298 896 317 878Q336 860 371 860Q394 860 414.5 877.5Q435 895 443 931H551Q550 887 534 854.5Q518 822 492 800.5Q466 779 433 768Q400 757 366 757ZM435 276 359 521H357L281 276ZM254 714H481L723 0H519L481 124H235L196 0H7Z" glyph-name="Abreve" horiz-adv-x="731" unicode="&#258;" /><glyph d="M301 942H437L562 756H419L366 845L310 756H169ZM435 276 359 521H357L281 276ZM254 714H481L723 0H519L481 124H235L196 0H7Z" glyph-name="Acircumflex" horiz-adv-x="731" unicode="&#194;" /><glyph d="M398 920H556V757H398ZM174 920H332V757H174ZM435 276 359 521H357L281 276ZM254 714H481L723 0H519L481 124H235L196 0H7Z" glyph-name="Adieresis" horiz-adv-x="731" unicode="&#196;" /><glyph d="M160 942H335L424 756H302ZM435 276 359 521H357L281 276ZM254 714H481L723 0H519L481 124H235L196 0H7Z" glyph-name="Agrave" horiz-adv-x="731" unicode="&#192;" /><glyph d="M189 896H542V767H189ZM435 276 359 521H357L281 276ZM254 714H481L723 0H519L481 124H235L196 0H7Z" glyph-name="Amacron" horiz-adv-x="731" unicode="&#256;" /><glyph d="M435 276 359 521H357L281 276ZM605 -225Q540 -225 509 -197.5Q478 -170 478 -127Q478 -97 491 -71Q504 -45 526 -23L481 124H235L196 0H7L254 714H481L723 0Q667 -7 632.5 -29.5Q598 -52 598 -79Q598 -97 608.5 -107Q619 -117 643 -117Q654 -117 671.5 -112Q689 -107 705 -97L745 -190Q717 -204 682.5 -214.5Q648 -225 605 -225Z" glyph-name="Aogonek" horiz-adv-x="731" unicode="&#260;" /><glyph d="M365 806Q388 806 403 819.5Q418 833 418 854Q418 876 403.5 890Q389 904 365 904Q342 904 328 890Q314 876 314 854Q314 834 329 820Q344 806 365 806ZM365 749Q314 749 279.5 776Q245 803 245 851Q245 875 254.5 894.5Q264 914 280.5 928.5Q297 943 319 951Q341 959 365 959Q416 959 451 933.5Q486 908 486 858Q486 835 476 815Q466 795 449.5 780.5Q433 766 411 757.5Q389 749 365 749ZM435 276 359 521H357L281 276ZM254 714H481L723 0H519L481 124H235L196 0H7Z" glyph-name="Aring" horiz-adv-x="731" unicode="&#197;" /><glyph d="M365 717Q388 717 403 730.5Q418 744 418 765Q418 787 403.5 801Q389 815 365 815Q342 815 328 801Q314 787 314 765Q314 745 329 731Q344 717 365 717ZM365 660Q314 660 279.5 687Q245 714 245 762Q245 786 254.5 805.5Q264 825 280.5 839.5Q297 854 319 862Q341 870 365 870Q416 870 451 844.5Q486 819 486 769Q486 746 476 726Q466 706 449.5 691.5Q433 677 411 668.5Q389 660 365 660ZM435 248 359 469H357L281 248ZM254 643H481L723 0H519L481 112H235L196 0H7ZM375 1020H524L419 886H315Z" glyph-name="Aringacute" horiz-adv-x="731" unicode="&#506;" /><glyph d="M135 773Q140 803 151.5 830Q163 857 181 877Q199 897 223.5 909Q248 921 279 921Q302 921 324.5 915.5Q347 910 369 904Q391 898 413.5 892.5Q436 887 459 887Q470 887 477 891.5Q484 896 488.5 903Q493 910 496 919.5Q499 929 502 940L595 915Q591 887 581.5 860.5Q572 834 555.5 813.5Q539 793 515 780.5Q491 768 459 768Q436 768 413 773Q390 778 368 784.5Q346 791 325 796Q304 801 285 801Q263 801 253.5 790.5Q244 780 234 751ZM435 276 359 521H357L281 276ZM254 714H481L723 0H519L481 124H235L196 0H7Z" glyph-name="Atilde" horiz-adv-x="731" unicode="&#195;" /><glyph d="M383 434Q421 434 439.5 454Q458 474 458 503Q458 529 439 546Q420 563 383 563H258V434ZM387 154Q425 154 444.5 175Q464 196 464 225Q464 254 443.5 271.5Q423 289 384 289H258V154ZM57 713H449Q502 713 541 699Q580 685 606 661Q632 637 645 604.5Q658 572 658 534Q658 508 651.5 482.5Q645 457 631.5 435Q618 413 597 395.5Q576 378 547 368V366Q607 350 638.5 304Q670 258 670 203Q670 162 655.5 125Q641 88 613.5 60.5Q586 33 546 16.5Q506 0 455 0H57Z" glyph-name="B" horiz-adv-x="703" unicode="B" /><glyph d="M348 -12Q289 -12 233 2.5Q177 17 133.5 49Q90 81 64 130.5Q38 180 38 251V463Q38 530 63.5 579Q89 628 131.5 660.5Q174 693 229.5 709Q285 725 344 725Q396 725 449.5 712Q503 699 546 670.5Q589 642 616 597Q643 552 643 489V451H454V471Q454 495 444.5 513Q435 531 420 542.5Q405 554 386.5 559.5Q368 565 349 565Q304 565 272 540Q240 515 240 462V253Q240 203 269.5 175.5Q299 148 350 148Q369 148 387.5 153.5Q406 159 421 170.5Q436 182 445 200Q454 218 454 243V262H643V222Q643 159 616.5 115Q590 71 548 42.5Q506 14 453 1Q400 -12 348 -12Z" glyph-name="C" horiz-adv-x="679" unicode="C" /><glyph d="M367 942H542L400 756H278ZM348 -12Q289 -12 233 2.5Q177 17 133.5 49Q90 81 64 130.5Q38 180 38 251V463Q38 530 63.5 579Q89 628 131.5 660.5Q174 693 229.5 709Q285 725 344 725Q396 725 449.5 712Q503 699 546 670.5Q589 642 616 597Q643 552 643 489V451H454V471Q454 495 444.5 513Q435 531 420 542.5Q405 554 386.5 559.5Q368 565 349 565Q304 565 272 540Q240 515 240 462V253Q240 203 269.5 175.5Q299 148 350 148Q369 148 387.5 153.5Q406 159 421 170.5Q436 182 445 200Q454 218 454 243V262H643V222Q643 159 616.5 115Q590 71 548 42.5Q506 14 453 1Q400 -12 348 -12Z" glyph-name="Cacute" horiz-adv-x="679" unicode="&#262;" /><glyph d="M144 946H286L339 856L396 946H537L405 760H268ZM348 -12Q289 -12 233 2.5Q177 17 133.5 49Q90 81 64 130.5Q38 180 38 251V463Q38 530 63.5 579Q89 628 131.5 660.5Q174 693 229.5 709Q285 725 344 725Q396 725 449.5 712Q503 699 546 670.5Q589 642 616 597Q643 552 643 489V451H454V471Q454 495 444.5 513Q435 531 420 542.5Q405 554 386.5 559.5Q368 565 349 565Q304 565 272 540Q240 515 240 462V253Q240 203 269.5 175.5Q299 148 350 148Q369 148 387.5 153.5Q406 159 421 170.5Q436 182 445 200Q454 218 454 243V262H643V222Q643 159 616.5 115Q590 71 548 42.5Q506 14 453 1Q400 -12 348 -12Z" glyph-name="Ccaron" horiz-adv-x="679" unicode="&#268;" /><glyph d="M354 -219Q330 -219 299.5 -215Q269 -211 238 -203V-128Q267 -135 296 -139.5Q325 -144 344 -144Q369 -144 378.5 -137.5Q388 -131 388 -118Q388 -111 383 -106.5Q378 -102 371 -100Q364 -98 355 -97.5Q346 -97 339 -96L291 -94L310 -10Q256 -6 207 11Q158 28 120.5 59.5Q83 91 60.5 138.5Q38 186 38 251V463Q38 530 63.5 579Q89 628 131.5 660.5Q174 693 229.5 709Q285 725 344 725Q396 725 449.5 712Q503 699 546 670.5Q589 642 616 597Q643 552 643 489V451H454V471Q454 495 444.5 513Q435 531 420 542.5Q405 554 386.5 559.5Q368 565 349 565Q304 565 272 540Q240 515 240 462V253Q240 203 269.5 175.5Q299 148 350 148Q369 148 387.5 153.5Q406 159 421 170.5Q436 182 445 200Q454 218 454 243V262H643V222Q643 165 620.5 123Q598 81 561.5 52.5Q525 24 478.5 9Q432 -6 383 -10L378 -36Q399 -36 422.5 -39Q446 -42 466.5 -50.5Q487 -59 500 -75Q513 -91 513 -116Q513 -141 500.5 -160Q488 -179 466 -192Q444 -205 415.5 -212Q387 -219 354 -219Z" glyph-name="Ccedilla" horiz-adv-x="679" unicode="&#199;" /><glyph d="M276 942H412L537 756H394L341 845L285 756H144ZM348 -12Q289 -12 233 2.5Q177 17 133.5 49Q90 81 64 130.5Q38 180 38 251V463Q38 530 63.5 579Q89 628 131.5 660.5Q174 693 229.5 709Q285 725 344 725Q396 725 449.5 712Q503 699 546 670.5Q589 642 616 597Q643 552 643 489V451H454V471Q454 495 444.5 513Q435 531 420 542.5Q405 554 386.5 559.5Q368 565 349 565Q304 565 272 540Q240 515 240 462V253Q240 203 269.5 175.5Q299 148 350 148Q369 148 387.5 153.5Q406 159 421 170.5Q436 182 445 200Q454 218 454 243V262H643V222Q643 159 616.5 115Q590 71 548 42.5Q506 14 453 1Q400 -12 348 -12Z" glyph-name="Ccircumflex" horiz-adv-x="679" unicode="&#264;" /><glyph d="M259 920H421V757H259ZM348 -12Q289 -12 233 2.5Q177 17 133.5 49Q90 81 64 130.5Q38 180 38 251V463Q38 530 63.5 579Q89 628 131.5 660.5Q174 693 229.5 709Q285 725 344 725Q396 725 449.5 712Q503 699 546 670.5Q589 642 616 597Q643 552 643 489V451H454V471Q454 495 444.5 513Q435 531 420 542.5Q405 554 386.5 559.5Q368 565 349 565Q304 565 272 540Q240 515 240 462V253Q240 203 269.5 175.5Q299 148 350 148Q369 148 387.5 153.5Q406 159 421 170.5Q436 182 445 200Q454 218 454 243V262H643V222Q643 159 616.5 115Q590 71 548 42.5Q506 14 453 1Q400 -12 348 -12Z" glyph-name="Cdotaccent" horiz-adv-x="679" unicode="&#266;" /><glyph d="M351 160Q399 160 427.5 188.5Q456 217 456 262V453Q456 499 425 526Q394 553 346 553H257V160ZM56 713H363Q423 713 477 698Q531 683 571.5 652.5Q612 622 635.5 575.5Q659 529 659 466V260Q659 192 634.5 142.5Q610 93 569.5 61.5Q529 30 476 15Q423 0 365 0H56Z" glyph-name="D" horiz-adv-x="697" unicode="D" /><glyph d="M161 946H303L356 856L413 946H554L422 760H285ZM351 160Q399 160 427.5 188.5Q456 217 456 262V453Q456 499 425 526Q394 553 346 553H257V160ZM56 713H363Q423 713 477 698Q531 683 571.5 652.5Q612 622 635.5 575.5Q659 529 659 466V260Q659 192 634.5 142.5Q610 93 569.5 61.5Q529 30 476 15Q423 0 365 0H56Z" glyph-name="Dcaron" horiz-adv-x="697" unicode="&#270;" /><glyph d="M377 160Q425 160 453.5 188.5Q482 217 482 262V453Q482 499 451 526Q420 553 372 553H284V423H388V292H284V160ZM23 423H82V713H389Q449 713 503 698Q557 683 597.5 652.5Q638 622 661.5 575.5Q685 529 685 466V260Q685 192 660.5 142.5Q636 93 595.5 61.5Q555 30 502 15Q449 0 391 0H82V292H23Z" glyph-name="Dcroat" horiz-adv-x="723" unicode="&#272;" /><glyph d="M474 151 358 521H354L244 151ZM31 75 253 714H479L697 76V0H31Z" glyph-name="Delta" horiz-adv-x="728" unicode="&#8710;" /><glyph d="M56 713H596V553H257V437H534V279H257V160H597V0H56Z" glyph-name="E" horiz-adv-x="645" unicode="E" /><glyph d="M344 942H519L377 756H255ZM56 713H596V553H257V437H534V279H257V160H597V0H56Z" glyph-name="Eacute" horiz-adv-x="645" unicode="&#201;" /><glyph d="M327 757Q241 757 192.5 804.5Q144 852 141 931H251Q259 896 278 878Q297 860 332 860Q355 860 375.5 877.5Q396 895 404 931H512Q511 887 495 854.5Q479 822 453 800.5Q427 779 394 768Q361 757 327 757ZM56 713H596V553H257V437H534V279H257V160H597V0H56Z" glyph-name="Ebreve" horiz-adv-x="645" unicode="&#276;" /><glyph d="M130 946H272L325 856L382 946H523L391 760H254ZM56 713H596V553H257V437H534V279H257V160H597V0H56Z" glyph-name="Ecaron" horiz-adv-x="645" unicode="&#282;" /><glyph d="M262 942H398L523 756H380L327 845L271 756H130ZM56 713H596V553H257V437H534V279H257V160H597V0H56Z" glyph-name="Ecircumflex" horiz-adv-x="645" unicode="&#202;" /><glyph d="M359 920H517V757H359ZM135 920H293V757H135ZM56 713H596V553H257V437H534V279H257V160H597V0H56Z" glyph-name="Edieresis" horiz-adv-x="645" unicode="&#203;" /><glyph d="M245 920H407V757H245ZM56 713H596V553H257V437H534V279H257V160H597V0H56Z" glyph-name="Edotaccent" horiz-adv-x="645" unicode="&#278;" /><glyph d="M121 942H296L385 756H263ZM56 713H596V553H257V437H534V279H257V160H597V0H56Z" glyph-name="Egrave" horiz-adv-x="645" unicode="&#200;" /><glyph d="M150 896H503V767H150ZM56 713H596V553H257V437H534V279H257V160H597V0H56Z" glyph-name="Emacron" horiz-adv-x="645" unicode="&#274;" /><glyph d="M508 -192Q483 -192 468 -190.5Q453 -189 433 -186V-52Q438 -53 447.5 -53.5Q457 -54 463 -54Q483 -54 492 -43Q501 -32 501 -12V4L241 384H239V0H56V713H251L503 352H505V713H688V-27Q688 -70 673.5 -101Q659 -132 634.5 -152.5Q610 -173 577.5 -182.5Q545 -192 508 -192Z" glyph-name="Eng" horiz-adv-x="744" unicode="&#330;" /><glyph d="M56 713H596V553H257V437H534V279H257V160H597V0Q528 -7 491 -29.5Q454 -52 454 -79Q454 -97 464.5 -107Q475 -117 499 -117Q510 -117 527.5 -112Q545 -107 561 -97L601 -190Q573 -204 538.5 -214.5Q504 -225 461 -225Q396 -225 365 -197.5Q334 -170 334 -127Q334 -89 355 -56.5Q376 -24 409 0H56Z" glyph-name="Eogonek" horiz-adv-x="645" unicode="&#280;" /><glyph d="M377 160Q425 160 453.5 188.5Q482 217 482 262V453Q482 499 451 526Q420 553 372 553H284V423H388V292H284V160ZM23 423H82V713H389Q449 713 503 698Q557 683 597.5 652.5Q638 622 661.5 575.5Q685 529 685 466V260Q685 192 660.5 142.5Q636 93 595.5 61.5Q555 30 502 15Q449 0 391 0H82V292H23Z" glyph-name="Eth" horiz-adv-x="723" unicode="&#208;" /><glyph d="M416 -12Q359 -12 307.5 1.5Q256 15 216 44.5Q176 74 151.5 119.5Q127 165 123 230V235H39V328H122V391H39V483H123V487Q127 546 152.5 590.5Q178 635 218 665Q258 695 309 710Q360 725 416 725Q468 725 521 712Q574 699 616 670.5Q658 642 684.5 597Q711 552 711 489V451H522V471Q522 495 513 513.5Q504 532 489.5 544Q475 556 456.5 562Q438 568 418 568Q380 568 354.5 546.5Q329 525 326 486V483H478V391H325V328H478V235H326V229Q329 191 352 168.5Q375 146 420 146Q461 146 491.5 169.5Q522 193 522 243V262H711V222Q711 159 684.5 115Q658 71 616 42.5Q574 14 521 1Q468 -12 416 -12Z" glyph-name="Euro" horiz-adv-x="749" unicode="&#8364;" /><glyph d="M321 -12Q272 -12 227 1.5Q182 15 147 44.5Q112 74 90 119.5Q68 165 65 230V235H18V330H65V389H18V483H65V487Q68 546 90.5 590.5Q113 635 148.5 665Q184 695 228.5 710Q273 725 321 725Q366 725 411 712Q456 699 492 670.5Q528 642 550 597Q572 552 572 489V451H411V480Q411 504 403.5 521Q396 538 384 548.5Q372 559 356 563.5Q340 568 323 568Q290 568 270 546.5Q250 525 250 486V483H369V389H249V330H369V235H249V229Q249 191 270 168.5Q291 146 330 146Q366 146 388.5 166.5Q411 187 411 237V262H572V222Q572 159 550 115Q528 71 492 42.5Q456 14 411 1Q366 -12 321 -12Z" glyph-name="Euro.tf" horiz-adv-x="590" /><glyph d="M56 713H592V554H257V428H528V269H257V0H56Z" glyph-name="F" horiz-adv-x="618" unicode="F" /><glyph d="M348 -12Q288 -12 232.5 2.5Q177 17 133.5 49Q90 81 64 130.5Q38 180 38 251V463Q38 530 63.5 579Q89 628 131.5 660.5Q174 693 229.5 709Q285 725 344 725Q396 725 450 712Q504 699 547.5 671.5Q591 644 618.5 599.5Q646 555 646 492V464H457V479Q457 503 448 520.5Q439 538 424 549.5Q409 561 390.5 566Q372 571 353 571Q330 571 310 565Q290 559 274 546Q258 533 249 514Q240 495 240 468V253Q240 203 269.5 173.5Q299 144 350 144Q397 144 425.5 165.5Q454 187 454 236V254H330V393H647V222Q647 159 620 115Q593 71 550 42.5Q507 14 453.5 1Q400 -12 348 -12Z" glyph-name="G" horiz-adv-x="683" unicode="G" /><glyph d="M343 757Q257 757 208.5 804.5Q160 852 157 931H267Q275 896 294 878Q313 860 348 860Q371 860 391.5 877.5Q412 895 420 931H528Q527 887 511 854.5Q495 822 469 800.5Q443 779 410 768Q377 757 343 757ZM348 -12Q288 -12 232.5 2.5Q177 17 133.5 49Q90 81 64 130.5Q38 180 38 251V463Q38 530 63.5 579Q89 628 131.5 660.5Q174 693 229.5 709Q285 725 344 725Q396 725 450 712Q504 699 547.5 671.5Q591 644 618.5 599.5Q646 555 646 492V464H457V479Q457 503 448 520.5Q439 538 424 549.5Q409 561 390.5 566Q372 571 353 571Q330 571 310 565Q290 559 274 546Q258 533 249 514Q240 495 240 468V253Q240 203 269.5 173.5Q299 144 350 144Q397 144 425.5 165.5Q454 187 454 236V254H330V393H647V222Q647 159 620 115Q593 71 550 42.5Q507 14 453.5 1Q400 -12 348 -12Z" glyph-name="Gbreve" horiz-adv-x="683" unicode="&#286;" /><glyph d="M278 942H414L539 756H396L343 845L287 756H146ZM348 -12Q288 -12 232.5 2.5Q177 17 133.5 49Q90 81 64 130.5Q38 180 38 251V463Q38 530 63.5 579Q89 628 131.5 660.5Q174 693 229.5 709Q285 725 344 725Q396 725 450 712Q504 699 547.5 671.5Q591 644 618.5 599.5Q646 555 646 492V464H457V479Q457 503 448 520.5Q439 538 424 549.5Q409 561 390.5 566Q372 571 353 571Q330 571 310 565Q290 559 274 546Q258 533 249 514Q240 495 240 468V253Q240 203 269.5 173.5Q299 144 350 144Q397 144 425.5 165.5Q454 187 454 236V254H330V393H647V222Q647 159 620 115Q593 71 550 42.5Q507 14 453.5 1Q400 -12 348 -12Z" glyph-name="Gcircumflex" horiz-adv-x="683" unicode="&#284;" /><glyph d="M263 -33H425L385 -197H251ZM348 -12Q288 -12 232.5 2.5Q177 17 133.5 49Q90 81 64 130.5Q38 180 38 251V463Q38 530 63.5 579Q89 628 131.5 660.5Q174 693 229.5 709Q285 725 344 725Q396 725 450 712Q504 699 547.5 671.5Q591 644 618.5 599.5Q646 555 646 492V464H457V479Q457 503 448 520.5Q439 538 424 549.5Q409 561 390.5 566Q372 571 353 571Q330 571 310 565Q290 559 274 546Q258 533 249 514Q240 495 240 468V253Q240 203 269.5 173.5Q299 144 350 144Q397 144 425.5 165.5Q454 187 454 236V254H330V393H647V222Q647 159 620 115Q593 71 550 42.5Q507 14 453.5 1Q400 -12 348 -12Z" glyph-name="Gcommaaccent" horiz-adv-x="683" unicode="&#290;" /><glyph d="M261 920H423V757H261ZM348 -12Q288 -12 232.5 2.5Q177 17 133.5 49Q90 81 64 130.5Q38 180 38 251V463Q38 530 63.5 579Q89 628 131.5 660.5Q174 693 229.5 709Q285 725 344 725Q396 725 450 712Q504 699 547.5 671.5Q591 644 618.5 599.5Q646 555 646 492V464H457V479Q457 503 448 520.5Q439 538 424 549.5Q409 561 390.5 566Q372 571 353 571Q330 571 310 565Q290 559 274 546Q258 533 249 514Q240 495 240 468V253Q240 203 269.5 173.5Q299 144 350 144Q397 144 425.5 165.5Q454 187 454 236V254H330V393H647V222Q647 159 620 115Q593 71 550 42.5Q507 14 453.5 1Q400 -12 348 -12Z" glyph-name="Gdotaccent" horiz-adv-x="683" unicode="&#288;" /><glyph d="M56 713H257V448H463V713H664V0H463V274H257V0H56Z" glyph-name="H" horiz-adv-x="720" unicode="H" /><glyph d="M491 448V522H285V448ZM32 627H84V713H285V627H491V713H692V627H744V522H692V0H491V274H285V0H84V522H32Z" glyph-name="Hbar" horiz-adv-x="776" unicode="&#294;" /><glyph d="M296 942H432L557 756H414L361 845L305 756H164ZM56 713H257V448H463V713H664V0H463V274H257V0H56Z" glyph-name="Hcircumflex" horiz-adv-x="720" unicode="&#292;" /><glyph d="M56 713H257V0H56Z" glyph-name="I" horiz-adv-x="313" unicode="I" /><glyph d="M45 134H153V579H45V713H463V579H354V134H463V0H45Z" glyph-name="I.alt" horiz-adv-x="508" /><glyph d="M600 -12Q533 -12 479.5 0.5Q426 13 388.5 41.5Q351 70 331 117Q311 164 311 232V266H504V237Q504 220 507.5 204Q511 188 521 175Q531 162 548 154.5Q565 147 592 147Q616 147 632.5 155Q649 163 659 176.5Q669 190 673 206.5Q677 223 677 241V713H878V247Q878 189 859 141Q840 93 804 59Q768 25 716.5 6.5Q665 -12 600 -12ZM56 713H257V0H56Z" glyph-name="IJ" horiz-adv-x="931" unicode="&#306;" /><glyph d="M766 -12Q699 -12 645.5 0.5Q592 13 554.5 41.5Q517 70 497 117Q477 164 477 232V266H670V237Q670 220 673.5 204Q677 188 687 175Q697 162 714 154.5Q731 147 758 147Q782 147 798.5 155Q815 163 825 176.5Q835 190 839 206.5Q843 223 843 241V713H1044V247Q1044 189 1025 141Q1006 93 970 59Q934 25 882.5 6.5Q831 -12 766 -12ZM45 134H153V579H45V713H463V579H354V134H463V0H45Z" glyph-name="IJ.alt" horiz-adv-x="1097" /><glyph d="M183 942H358L216 756H94ZM56 713H257V0H56Z" glyph-name="Iacute" horiz-adv-x="313" unicode="&#205;" /><glyph d="M281 942H456L314 756H192ZM45 134H153V579H45V713H463V579H354V134H463V0H45Z" glyph-name="Iacute.alt" horiz-adv-x="508" /><glyph d="M157 757Q71 757 22.5 804.5Q-26 852 -29 931H81Q89 896 108 878Q127 860 162 860Q185 860 205.5 877.5Q226 895 234 931H342Q341 887 325 854.5Q309 822 283 800.5Q257 779 224 768Q191 757 157 757ZM56 713H257V0H56Z" glyph-name="Ibreve" horiz-adv-x="313" unicode="&#300;" /><glyph d="M255 757Q169 757 120.5 804.5Q72 852 69 931H179Q187 896 206 878Q225 860 260 860Q283 860 303.5 877.5Q324 895 332 931H440Q439 887 423 854.5Q407 822 381 800.5Q355 779 322 768Q289 757 255 757ZM45 134H153V579H45V713H463V579H354V134H463V0H45Z" glyph-name="Ibreve.alt" horiz-adv-x="508" /><glyph d="M92 942H228L353 756H210L157 845L101 756H-40ZM56 713H257V0H56Z" glyph-name="Icircumflex" horiz-adv-x="313" unicode="&#206;" /><glyph d="M190 942H326L451 756H308L255 845L199 756H58ZM45 134H153V579H45V713H463V579H354V134H463V0H45Z" glyph-name="Icircumflex.alt" horiz-adv-x="508" /><glyph d="M189 920H347V757H189ZM-35 920H123V757H-35ZM56 713H257V0H56Z" glyph-name="Idieresis" horiz-adv-x="313" unicode="&#207;" /><glyph d="M287 920H445V757H287ZM63 920H221V757H63ZM45 134H153V579H45V713H463V579H354V134H463V0H45Z" glyph-name="Idieresis.alt" horiz-adv-x="508" /><glyph d="M75 920H237V757H75ZM56 713H257V0H56Z" glyph-name="Idotaccent" horiz-adv-x="313" unicode="&#304;" /><glyph d="M173 920H335V757H173ZM45 134H153V579H45V713H463V579H354V134H463V0H45Z" glyph-name="Idotaccent.alt" horiz-adv-x="508" /><glyph d="M-49 942H126L215 756H93ZM56 713H257V0H56Z" glyph-name="Igrave" horiz-adv-x="313" unicode="&#204;" /><glyph d="M49 942H224L313 756H191ZM45 134H153V579H45V713H463V579H354V134H463V0H45Z" glyph-name="Igrave.alt" horiz-adv-x="508" /><glyph d="M-20 896H333V767H-20ZM56 713H257V0H56Z" glyph-name="Imacron" horiz-adv-x="313" unicode="&#298;" /><glyph d="M78 896H431V767H78ZM45 134H153V579H45V713H463V579H354V134H463V0H45Z" glyph-name="Imacron.alt" horiz-adv-x="508" /><glyph d="M157 -225Q94 -225 64.5 -197.5Q35 -170 35 -127Q35 -107 40.5 -89.5Q46 -72 56 -55V713H257V0Q211 -8 181 -30.5Q151 -53 151 -79Q151 -97 161 -107Q171 -117 194 -117Q205 -117 222 -112Q239 -107 254 -97L293 -190Q266 -204 232.5 -214.5Q199 -225 157 -225Z" glyph-name="Iogonek" horiz-adv-x="313" unicode="&#302;" /><glyph d="M45 134H153V579H45V713H463V579H354V134H463V0H380Q357 0 337 -7.5Q317 -15 302 -26Q287 -37 278.5 -51.5Q270 -66 270 -79Q270 -97 280.5 -107Q291 -117 315 -117Q326 -117 343.5 -112Q361 -107 377 -97L417 -190Q389 -204 354.5 -214.5Q320 -225 277 -225Q212 -225 181 -197.5Q150 -170 150 -127Q150 -89 171 -56.5Q192 -24 225 0H45Z" glyph-name="Iogonek.alt" horiz-adv-x="508" /><glyph d="M-74 773Q-69 803 -57.5 830Q-46 857 -28 877Q-10 897 14.5 909Q39 921 70 921Q93 921 115.5 915.5Q138 910 160 904Q182 898 204.5 892.5Q227 887 250 887Q261 887 268 891.5Q275 896 279.5 903Q284 910 287 919.5Q290 929 293 940L386 915Q382 887 372.5 860.5Q363 834 346.5 813.5Q330 793 306 780.5Q282 768 250 768Q227 768 204 773Q181 778 159 784.5Q137 791 116 796Q95 801 76 801Q54 801 44.5 790.5Q35 780 25 751ZM56 713H257V0H56Z" glyph-name="Itilde" horiz-adv-x="313" unicode="&#296;" /><glyph d="M24 773Q29 803 40.5 830Q52 857 70 877Q88 897 112.5 909Q137 921 168 921Q191 921 213.5 915.5Q236 910 258 904Q280 898 302.5 892.5Q325 887 348 887Q359 887 366 891.5Q373 896 377.5 903Q382 910 385 919.5Q388 929 391 940L484 915Q480 887 470.5 860.5Q461 834 444.5 813.5Q428 793 404 780.5Q380 768 348 768Q325 768 302 773Q279 778 257 784.5Q235 791 214 796Q193 801 174 801Q152 801 142.5 790.5Q133 780 123 751ZM45 134H153V579H45V713H463V579H354V134H463V0H45Z" glyph-name="Itilde.alt" horiz-adv-x="508" /><glyph d="M319 -12Q252 -12 198.5 0.5Q145 13 107.5 41.5Q70 70 50 117Q30 164 30 232V266H223V237Q223 220 226.5 204Q230 188 240 175Q250 162 267 154.5Q284 147 311 147Q335 147 351.5 155Q368 163 378 176.5Q388 190 392 206.5Q396 223 396 241V713H597V247Q597 189 578 141Q559 93 523 59Q487 25 435.5 6.5Q384 -12 319 -12Z" glyph-name="J" horiz-adv-x="650" unicode="J" /><glyph d="M432 942H568L693 756H550L497 845L441 756H300ZM319 -12Q252 -12 198.5 0.5Q145 13 107.5 41.5Q70 70 50 117Q30 164 30 232V266H223V237Q223 220 226.5 204Q230 188 240 175Q250 162 267 154.5Q284 147 311 147Q335 147 351.5 155Q368 163 378 176.5Q388 190 392 206.5Q396 223 396 241V713H597V247Q597 189 578 141Q559 93 523 59Q487 25 435.5 6.5Q384 -12 319 -12Z" glyph-name="Jcircumflex" horiz-adv-x="650" unicode="&#308;" /><glyph d="M56 713H257V393L485 713H688L477 424L696 0H475L331 289L257 199V0H56Z" glyph-name="K" horiz-adv-x="702" unicode="K" /><glyph d="M276 -33H438L398 -197H264ZM56 713H257V393L485 713H688L477 424L696 0H475L331 289L257 199V0H56Z" glyph-name="Kcommaaccent" horiz-adv-x="702" unicode="&#310;" /><glyph d="M56 713H257V160H592V0H56Z" glyph-name="L" horiz-adv-x="613" unicode="L" /><glyph d="M193 942H368L226 756H104ZM56 713H257V160H592V0H56Z" glyph-name="Lacute" horiz-adv-x="613" unicode="&#313;" /><glyph d="M340 713H492L440 555H325ZM56 713H257V160H592V0H56Z" glyph-name="Lcaron" horiz-adv-x="613" unicode="&#317;" /><glyph d="M231 -33H393L353 -197H219ZM56 713H257V160H592V0H56Z" glyph-name="Lcommaaccent" horiz-adv-x="613" unicode="&#315;" /><glyph d="M369 494H556V340H369ZM56 713H257V160H592V0H56Z" glyph-name="Ldot" horiz-adv-x="613" unicode="&#319;" /><glyph d="M23 331 75 362V713H276V482L364 535V411L276 358V160H611V0H75V237L23 206Z" glyph-name="Lslash" horiz-adv-x="632" unicode="&#321;" /><glyph d="M56 713H308L432 384H435L558 713H805V0H622V444H620L498 103H365L241 443H238V0H56Z" glyph-name="M" horiz-adv-x="861" unicode="M" /><glyph d="M56 713H251L503 352H505V713H688V0H504L241 384H239V0H56Z" glyph-name="N" horiz-adv-x="744" unicode="N" /><glyph d="M399 942H574L432 756H310ZM56 713H251L503 352H505V713H688V0H504L241 384H239V0H56Z" glyph-name="Nacute" horiz-adv-x="744" unicode="&#323;" /><glyph d="M176 946H318L371 856L428 946H569L437 760H300ZM56 713H251L503 352H505V713H688V0H504L241 384H239V0H56Z" glyph-name="Ncaron" horiz-adv-x="744" unicode="&#327;" /><glyph d="M297 -33H459L419 -197H285ZM56 713H251L503 352H505V713H688V0H504L241 384H239V0H56Z" glyph-name="Ncommaaccent" horiz-adv-x="744" unicode="&#325;" /><glyph d="M148 773Q153 803 164.5 830Q176 857 194 877Q212 897 236.5 909Q261 921 292 921Q315 921 337.5 915.5Q360 910 382 904Q404 898 426.5 892.5Q449 887 472 887Q483 887 490 891.5Q497 896 501.5 903Q506 910 509 919.5Q512 929 515 940L608 915Q604 887 594.5 860.5Q585 834 568.5 813.5Q552 793 528 780.5Q504 768 472 768Q449 768 426 773Q403 778 381 784.5Q359 791 338 796Q317 801 298 801Q276 801 266.5 790.5Q257 780 247 751ZM56 713H251L503 352H505V713H688V0H504L241 384H239V0H56Z" glyph-name="Ntilde" horiz-adv-x="744" unicode="&#209;" /><glyph d="M350 149Q395 149 426 176Q457 203 457 256V459Q457 485 448 504.5Q439 524 424 537.5Q409 551 389 557.5Q369 564 347 564Q300 564 270.5 539Q241 514 241 458V258Q241 205 270 177Q299 149 350 149ZM349 -12Q289 -12 232.5 2Q176 16 133 48Q90 80 64 131.5Q38 183 38 257V451Q38 521 64 572.5Q90 624 132.5 658Q175 692 230.5 708.5Q286 725 346 725Q406 725 463 710Q520 695 563.5 662Q607 629 633.5 577Q660 525 660 452V262Q660 188 633 136Q606 84 562 51Q518 18 462.5 3Q407 -12 349 -12Z" glyph-name="O" horiz-adv-x="698" unicode="O" /><glyph d="M432 160V553H342Q295 553 268 527Q241 501 241 446V272Q241 219 269 189.5Q297 160 347 160ZM325 0Q264 0 211.5 14Q159 28 120.5 60Q82 92 60 143.5Q38 195 38 270V438Q38 508 59.5 560Q81 612 119.5 646Q158 680 209.5 696.5Q261 713 321 713H972V553H633V437H910V279H633V160H973V0Z" glyph-name="OE" horiz-adv-x="1021" unicode="&#338;" /><glyph d="M376 942H551L409 756H287ZM350 149Q395 149 426 176Q457 203 457 256V459Q457 485 448 504.5Q439 524 424 537.5Q409 551 389 557.5Q369 564 347 564Q300 564 270.5 539Q241 514 241 458V258Q241 205 270 177Q299 149 350 149ZM349 -12Q289 -12 232.5 2Q176 16 133 48Q90 80 64 131.5Q38 183 38 257V451Q38 521 64 572.5Q90 624 132.5 658Q175 692 230.5 708.5Q286 725 346 725Q406 725 463 710Q520 695 563.5 662Q607 629 633.5 577Q660 525 660 452V262Q660 188 633 136Q606 84 562 51Q518 18 462.5 3Q407 -12 349 -12Z" glyph-name="Oacute" horiz-adv-x="698" unicode="&#211;" /><glyph d="M350 757Q264 757 215.5 804.5Q167 852 164 931H274Q282 896 301 878Q320 860 355 860Q378 860 398.5 877.5Q419 895 427 931H535Q534 887 518 854.5Q502 822 476 800.5Q450 779 417 768Q384 757 350 757ZM350 149Q395 149 426 176Q457 203 457 256V459Q457 485 448 504.5Q439 524 424 537.5Q409 551 389 557.5Q369 564 347 564Q300 564 270.5 539Q241 514 241 458V258Q241 205 270 177Q299 149 350 149ZM349 -12Q289 -12 232.5 2Q176 16 133 48Q90 80 64 131.5Q38 183 38 257V451Q38 521 64 572.5Q90 624 132.5 658Q175 692 230.5 708.5Q286 725 346 725Q406 725 463 710Q520 695 563.5 662Q607 629 633.5 577Q660 525 660 452V262Q660 188 633 136Q606 84 562 51Q518 18 462.5 3Q407 -12 349 -12Z" glyph-name="Obreve" horiz-adv-x="698" unicode="&#334;" /><glyph d="M285 942H421L546 756H403L350 845L294 756H153ZM350 149Q395 149 426 176Q457 203 457 256V459Q457 485 448 504.5Q439 524 424 537.5Q409 551 389 557.5Q369 564 347 564Q300 564 270.5 539Q241 514 241 458V258Q241 205 270 177Q299 149 350 149ZM349 -12Q289 -12 232.5 2Q176 16 133 48Q90 80 64 131.5Q38 183 38 257V451Q38 521 64 572.5Q90 624 132.5 658Q175 692 230.5 708.5Q286 725 346 725Q406 725 463 710Q520 695 563.5 662Q607 629 633.5 577Q660 525 660 452V262Q660 188 633 136Q606 84 562 51Q518 18 462.5 3Q407 -12 349 -12Z" glyph-name="Ocircumflex" horiz-adv-x="698" unicode="&#212;" /><glyph d="M382 920H540V757H382ZM158 920H316V757H158ZM350 149Q395 149 426 176Q457 203 457 256V459Q457 485 448 504.5Q439 524 424 537.5Q409 551 389 557.5Q369 564 347 564Q300 564 270.5 539Q241 514 241 458V258Q241 205 270 177Q299 149 350 149ZM349 -12Q289 -12 232.5 2Q176 16 133 48Q90 80 64 131.5Q38 183 38 257V451Q38 521 64 572.5Q90 624 132.5 658Q175 692 230.5 708.5Q286 725 346 725Q406 725 463 710Q520 695 563.5 662Q607 629 633.5 577Q660 525 660 452V262Q660 188 633 136Q606 84 562 51Q518 18 462.5 3Q407 -12 349 -12Z" glyph-name="Odieresis" horiz-adv-x="698" unicode="&#214;" /><glyph d="M144 942H319L408 756H286ZM350 149Q395 149 426 176Q457 203 457 256V459Q457 485 448 504.5Q439 524 424 537.5Q409 551 389 557.5Q369 564 347 564Q300 564 270.5 539Q241 514 241 458V258Q241 205 270 177Q299 149 350 149ZM349 -12Q289 -12 232.5 2Q176 16 133 48Q90 80 64 131.5Q38 183 38 257V451Q38 521 64 572.5Q90 624 132.5 658Q175 692 230.5 708.5Q286 725 346 725Q406 725 463 710Q520 695 563.5 662Q607 629 633.5 577Q660 525 660 452V262Q660 188 633 136Q606 84 562 51Q518 18 462.5 3Q407 -12 349 -12Z" glyph-name="Ograve" horiz-adv-x="698" unicode="&#210;" /><glyph d="M461 942H621L496 756H384ZM254 942H415L290 756H178ZM350 149Q395 149 426 176Q457 203 457 256V459Q457 485 448 504.5Q439 524 424 537.5Q409 551 389 557.5Q369 564 347 564Q300 564 270.5 539Q241 514 241 458V258Q241 205 270 177Q299 149 350 149ZM349 -12Q289 -12 232.5 2Q176 16 133 48Q90 80 64 131.5Q38 183 38 257V451Q38 521 64 572.5Q90 624 132.5 658Q175 692 230.5 708.5Q286 725 346 725Q406 725 463 710Q520 695 563.5 662Q607 629 633.5 577Q660 525 660 452V262Q660 188 633 136Q606 84 562 51Q518 18 462.5 3Q407 -12 349 -12Z" glyph-name="Ohungarumlaut" horiz-adv-x="698" unicode="&#336;" /><glyph d="M173 896H526V767H173ZM350 149Q395 149 426 176Q457 203 457 256V459Q457 485 448 504.5Q439 524 424 537.5Q409 551 389 557.5Q369 564 347 564Q300 564 270.5 539Q241 514 241 458V258Q241 205 270 177Q299 149 350 149ZM349 -12Q289 -12 232.5 2Q176 16 133 48Q90 80 64 131.5Q38 183 38 257V451Q38 521 64 572.5Q90 624 132.5 658Q175 692 230.5 708.5Q286 725 346 725Q406 725 463 710Q520 695 563.5 662Q607 629 633.5 577Q660 525 660 452V262Q660 188 633 136Q606 84 562 51Q518 18 462.5 3Q407 -12 349 -12Z" glyph-name="Omacron" horiz-adv-x="698" unicode="&#332;" /><glyph d="M49 164 206 158V169Q180 180 150.5 199.5Q121 219 96 250Q71 281 54.5 324.5Q38 368 38 427V436Q38 500 58 553Q78 606 117 644Q156 682 214 703.5Q272 725 349 725Q429 725 488 704Q547 683 586 645.5Q625 608 644.5 556.5Q664 505 664 443V427Q664 367 647 323Q630 279 605 248Q580 217 550.5 198Q521 179 496 169V158L654 164V0H379V158Q400 176 415 190.5Q430 205 439.5 226Q449 247 454 278.5Q459 310 459 360V464Q459 487 450 505.5Q441 524 426 537.5Q411 551 391 558.5Q371 566 349 566Q327 566 307.5 560Q288 554 273.5 541Q259 528 250.5 506.5Q242 485 242 455V369Q242 322 245.5 291Q249 260 258 237.5Q267 215 283 197Q299 179 324 158V0H49Z" glyph-name="Omega" horiz-adv-x="703" unicode="&#8486;" /><glyph d="M410 547Q382 564 347 564Q300 564 270.5 539Q241 514 241 458V350V290ZM350 149Q395 149 426 176Q457 203 457 256V349V429L282 167Q309 149 350 149ZM46 -3 100 78Q71 110 54.5 153.5Q38 197 38 257V451Q38 521 64 572.5Q90 624 132.5 658Q175 692 230.5 708.5Q286 725 346 725Q389 725 429.5 717.5Q470 710 507 694L555 767L646 714L593 635Q624 603 642 557.5Q660 512 660 452V262Q660 188 633 136Q606 84 562 51Q518 18 462.5 3Q407 -12 349 -12Q304 -12 262.5 -4.5Q221 3 184 19L135 -56Z" glyph-name="Oslash" horiz-adv-x="698" unicode="&#216;" /><glyph d="M376 942H551L409 756H287ZM410 547Q382 564 347 564Q300 564 270.5 539Q241 514 241 458V350V290ZM350 149Q395 149 426 176Q457 203 457 256V349V429L282 167Q309 149 350 149ZM46 -3 100 78Q71 110 54.5 153.5Q38 197 38 257V451Q38 521 64 572.5Q90 624 132.5 658Q175 692 230.5 708.5Q286 725 346 725Q389 725 429.5 717.5Q470 710 507 694L555 767L646 714L593 635Q624 603 642 557.5Q660 512 660 452V262Q660 188 633 136Q606 84 562 51Q518 18 462.5 3Q407 -12 349 -12Q304 -12 262.5 -4.5Q221 3 184 19L135 -56Z" glyph-name="Oslashacute" horiz-adv-x="698" unicode="&#510;" /><glyph d="M119 773Q124 803 135.5 830Q147 857 165 877Q183 897 207.5 909Q232 921 263 921Q286 921 308.5 915.5Q331 910 353 904Q375 898 397.5 892.5Q420 887 443 887Q454 887 461 891.5Q468 896 472.5 903Q477 910 480 919.5Q483 929 486 940L579 915Q575 887 565.5 860.5Q556 834 539.5 813.5Q523 793 499 780.5Q475 768 443 768Q420 768 397 773Q374 778 352 784.5Q330 791 309 796Q288 801 269 801Q247 801 237.5 790.5Q228 780 218 751ZM350 149Q395 149 426 176Q457 203 457 256V459Q457 485 448 504.5Q439 524 424 537.5Q409 551 389 557.5Q369 564 347 564Q300 564 270.5 539Q241 514 241 458V258Q241 205 270 177Q299 149 350 149ZM349 -12Q289 -12 232.5 2Q176 16 133 48Q90 80 64 131.5Q38 183 38 257V451Q38 521 64 572.5Q90 624 132.5 658Q175 692 230.5 708.5Q286 725 346 725Q406 725 463 710Q520 695 563.5 662Q607 629 633.5 577Q660 525 660 452V262Q660 188 633 136Q606 84 562 51Q518 18 462.5 3Q407 -12 349 -12Z" glyph-name="Otilde" horiz-adv-x="698" unicode="&#213;" /><glyph d="M359 387Q403 387 427 411.5Q451 436 451 473Q451 511 427.5 535Q404 559 359 559H257V387ZM56 713H394Q457 713 504.5 694.5Q552 676 583.5 644.5Q615 613 631 570.5Q647 528 647 481Q647 436 633 392Q619 348 588.5 313.5Q558 279 510.5 257.5Q463 236 396 236H257V0H56Z" glyph-name="P" horiz-adv-x="677" unicode="P" /><glyph d="M350 149Q395 149 426 176Q457 203 457 256V459Q457 485 448 504.5Q439 524 424 537.5Q409 551 389 557.5Q369 564 347 564Q300 564 270 539Q240 514 240 458V258Q240 205 269.5 177Q299 149 350 149ZM377 -10Q373 -11 363.5 -11.5Q354 -12 349 -12Q289 -12 232.5 2Q176 16 133 48Q90 80 64 131.5Q38 183 38 257V451Q38 521 64 572.5Q90 624 132.5 658Q175 692 230.5 708.5Q286 725 346 725Q406 725 463 710Q520 695 563.5 662Q607 629 633.5 577Q660 525 660 452V262Q660 196 638 148Q616 100 581 67L679 29L567 -127Z" glyph-name="Q" horiz-adv-x="698" unicode="Q" /><glyph d="M356 387Q400 387 424 411.5Q448 436 448 473Q448 511 424.5 535Q401 559 356 559H257V387ZM56 713H383Q449 713 498 695.5Q547 678 579.5 647.5Q612 617 628 575.5Q644 534 644 487Q644 454 636 422.5Q628 391 612 363.5Q596 336 571.5 313Q547 290 513 275L670 0H449L321 244H257V0H56Z" glyph-name="R" horiz-adv-x="690" unicode="R" /><glyph d="M374 942H549L407 756H285ZM356 387Q400 387 424 411.5Q448 436 448 473Q448 511 424.5 535Q401 559 356 559H257V387ZM56 713H383Q449 713 498 695.5Q547 678 579.5 647.5Q612 617 628 575.5Q644 534 644 487Q644 454 636 422.5Q628 391 612 363.5Q596 336 571.5 313Q547 290 513 275L670 0H449L321 244H257V0H56Z" glyph-name="Racute" horiz-adv-x="690" unicode="&#340;" /><glyph d="M133 946H275L328 856L385 946H526L394 760H257ZM356 387Q400 387 424 411.5Q448 436 448 473Q448 511 424.5 535Q401 559 356 559H257V387ZM56 713H383Q449 713 498 695.5Q547 678 579.5 647.5Q612 617 628 575.5Q644 534 644 487Q644 454 636 422.5Q628 391 612 363.5Q596 336 571.5 313Q547 290 513 275L670 0H449L321 244H257V0H56Z" glyph-name="Rcaron" horiz-adv-x="690" unicode="&#344;" /><glyph d="M270 -33H432L392 -197H258ZM356 387Q400 387 424 411.5Q448 436 448 473Q448 511 424.5 535Q401 559 356 559H257V387ZM56 713H383Q449 713 498 695.5Q547 678 579.5 647.5Q612 617 628 575.5Q644 534 644 487Q644 454 636 422.5Q628 391 612 363.5Q596 336 571.5 313Q547 290 513 275L670 0H449L321 244H257V0H56Z" glyph-name="Rcommaaccent" horiz-adv-x="690" unicode="&#342;" /><glyph d="M318 -12Q226 -12 149.5 9.5Q73 31 10 92L120 221Q135 205 156 190Q177 175 201 164Q225 153 251.5 146Q278 139 305 139Q321 139 338.5 141.5Q356 144 370 150.5Q384 157 393 167.5Q402 178 402 194Q402 223 381.5 235Q361 247 331 255L207 289Q171 299 140 315.5Q109 332 86.5 356.5Q64 381 51.5 413.5Q39 446 39 487Q39 536 59 579.5Q79 623 116 655Q153 687 205 705.5Q257 724 320 724Q368 724 406.5 719Q445 714 476.5 703Q508 692 536 675.5Q564 659 591 635L475 513Q461 527 443 538Q425 549 405 556Q385 563 364.5 566.5Q344 570 326 570Q289 570 263 558Q237 546 237 516Q237 489 261.5 478Q286 467 330 455L438 426Q520 403 566.5 354Q613 305 613 227Q613 164 587 119Q561 74 519 45Q477 16 424.5 2Q372 -12 318 -12Z" glyph-name="S" horiz-adv-x="639" unicode="S" /><glyph d="M338 942H513L371 756H249ZM318 -12Q226 -12 149.5 9.5Q73 31 10 92L120 221Q135 205 156 190Q177 175 201 164Q225 153 251.5 146Q278 139 305 139Q321 139 338.5 141.5Q356 144 370 150.5Q384 157 393 167.5Q402 178 402 194Q402 223 381.5 235Q361 247 331 255L207 289Q171 299 140 315.5Q109 332 86.5 356.5Q64 381 51.5 413.5Q39 446 39 487Q39 536 59 579.5Q79 623 116 655Q153 687 205 705.5Q257 724 320 724Q368 724 406.5 719Q445 714 476.5 703Q508 692 536 675.5Q564 659 591 635L475 513Q461 527 443 538Q425 549 405 556Q385 563 364.5 566.5Q344 570 326 570Q289 570 263 558Q237 546 237 516Q237 489 261.5 478Q286 467 330 455L438 426Q520 403 566.5 354Q613 305 613 227Q613 164 587 119Q561 74 519 45Q477 16 424.5 2Q372 -12 318 -12Z" glyph-name="Sacute" horiz-adv-x="639" unicode="&#346;" /><glyph d="M122 946H264L317 856L374 946H515L383 760H246ZM318 -12Q226 -12 149.5 9.5Q73 31 10 92L120 221Q135 205 156 190Q177 175 201 164Q225 153 251.5 146Q278 139 305 139Q321 139 338.5 141.5Q356 144 370 150.5Q384 157 393 167.5Q402 178 402 194Q402 223 381.5 235Q361 247 331 255L207 289Q171 299 140 315.5Q109 332 86.5 356.5Q64 381 51.5 413.5Q39 446 39 487Q39 536 59 579.5Q79 623 116 655Q153 687 205 705.5Q257 724 320 724Q368 724 406.5 719Q445 714 476.5 703Q508 692 536 675.5Q564 659 591 635L475 513Q461 527 443 538Q425 549 405 556Q385 563 364.5 566.5Q344 570 326 570Q289 570 263 558Q237 546 237 516Q237 489 261.5 478Q286 467 330 455L438 426Q520 403 566.5 354Q613 305 613 227Q613 164 587 119Q561 74 519 45Q477 16 424.5 2Q372 -12 318 -12Z" glyph-name="Scaron" horiz-adv-x="639" unicode="&#352;" /><glyph d="M324 -219Q300 -219 269.5 -215Q239 -211 208 -203V-128Q237 -135 266 -139.5Q295 -144 314 -144Q339 -144 348.5 -137.5Q358 -131 358 -118Q358 -111 353 -106.5Q348 -102 341 -100Q334 -98 325 -97.5Q316 -97 309 -96L261 -94L280 -11Q200 -8 133 14.5Q66 37 10 92L120 221Q135 205 156 190Q177 175 201 164Q225 153 251.5 146Q278 139 305 139Q321 139 338.5 141.5Q356 144 370 150.5Q384 157 393 167.5Q402 178 402 194Q402 223 381.5 235Q361 247 331 255L207 289Q171 299 140 315.5Q109 332 86.5 356.5Q64 381 51.5 413.5Q39 446 39 487Q39 536 59 579.5Q79 623 116 655Q153 687 205 705.5Q257 724 320 724Q368 724 406.5 719Q445 714 476.5 703Q508 692 536 675.5Q564 659 591 635L475 513Q461 527 443 538Q425 549 405 556Q385 563 364.5 566.5Q344 570 326 570Q289 570 263 558Q237 546 237 516Q237 490 260 479Q283 468 330 455L438 426Q520 403 566.5 354Q613 305 613 227Q613 169 591 126.5Q569 84 532.5 54.5Q496 25 449 9.5Q402 -6 353 -10L348 -36Q369 -36 392.5 -39Q416 -42 436.5 -50.5Q457 -59 470 -75Q483 -91 483 -116Q483 -141 470.5 -160Q458 -179 436 -192Q414 -205 385.5 -212Q357 -219 324 -219Z" glyph-name="Scedilla" horiz-adv-x="639" unicode="&#350;" /><glyph d="M247 942H383L508 756H365L312 845L256 756H115ZM318 -12Q226 -12 149.5 9.5Q73 31 10 92L120 221Q135 205 156 190Q177 175 201 164Q225 153 251.5 146Q278 139 305 139Q321 139 338.5 141.5Q356 144 370 150.5Q384 157 393 167.5Q402 178 402 194Q402 223 381.5 235Q361 247 331 255L207 289Q171 299 140 315.5Q109 332 86.5 356.5Q64 381 51.5 413.5Q39 446 39 487Q39 536 59 579.5Q79 623 116 655Q153 687 205 705.5Q257 724 320 724Q368 724 406.5 719Q445 714 476.5 703Q508 692 536 675.5Q564 659 591 635L475 513Q461 527 443 538Q425 549 405 556Q385 563 364.5 566.5Q344 570 326 570Q289 570 263 558Q237 546 237 516Q237 489 261.5 478Q286 467 330 455L438 426Q520 403 566.5 354Q613 305 613 227Q613 164 587 119Q561 74 519 45Q477 16 424.5 2Q372 -12 318 -12Z" glyph-name="Scircumflex" horiz-adv-x="639" unicode="&#348;" /><glyph d="M244 -33H406L366 -197H232ZM318 -12Q226 -12 149.5 9.5Q73 31 10 92L120 221Q135 205 156 190Q177 175 201 164Q225 153 251.5 146Q278 139 305 139Q321 139 338.5 141.5Q356 144 370 150.5Q384 157 393 167.5Q402 178 402 194Q402 223 381.5 235Q361 247 331 255L207 289Q171 299 140 315.5Q109 332 86.5 356.5Q64 381 51.5 413.5Q39 446 39 487Q39 536 59 579.5Q79 623 116 655Q153 687 205 705.5Q257 724 320 724Q368 724 406.5 719Q445 714 476.5 703Q508 692 536 675.5Q564 659 591 635L475 513Q461 527 443 538Q425 549 405 556Q385 563 364.5 566.5Q344 570 326 570Q289 570 263 558Q237 546 237 516Q237 489 261.5 478Q286 467 330 455L438 426Q520 403 566.5 354Q613 305 613 227Q613 164 587 119Q561 74 519 45Q477 16 424.5 2Q372 -12 318 -12Z" glyph-name="Scommaaccent" horiz-adv-x="639" unicode="&#536;" /><glyph d="M224 555H23V713H627V555H426V0H224Z" glyph-name="T" horiz-adv-x="650" unicode="T" /><glyph d="M115 388H224V555H23V713H627V555H426V388H535V264H426V0H224V264H115Z" glyph-name="Tbar" horiz-adv-x="650" unicode="&#358;" /><glyph d="M132 946H274L327 856L384 946H525L393 760H256ZM224 555H23V713H627V555H426V0H224Z" glyph-name="Tcaron" horiz-adv-x="650" unicode="&#356;" /><glyph d="M224 555H23V713H627V555H426V0H361L353 -36Q374 -36 397.5 -39Q421 -42 441.5 -50.5Q462 -59 475 -75Q488 -91 488 -116Q488 -141 475.5 -160Q463 -179 441 -192Q419 -205 390.5 -212Q362 -219 329 -219Q305 -219 274.5 -215Q244 -211 213 -203V-128Q242 -135 271 -139.5Q300 -144 319 -144Q344 -144 353.5 -137.5Q363 -131 363 -118Q363 -111 358 -106.5Q353 -102 346 -100Q339 -98 330 -97.5Q321 -97 314 -96L266 -94L287 0H224Z" glyph-name="Tcommaaccent" horiz-adv-x="650" unicode="&#354;" /><glyph d="M359 284Q403 284 427 307Q451 330 451 365Q451 401 427.5 423.5Q404 446 359 446H257V284ZM56 713H257V589H394Q457 589 504.5 571.5Q552 554 583.5 524.5Q615 495 631 455.5Q647 416 647 372Q647 330 633 289Q619 248 588.5 216Q558 184 510.5 164Q463 144 396 144H257V0H56Z" glyph-name="Thorn" horiz-adv-x="677" unicode="&#222;" /><glyph d="M354 -13Q284 -13 228 3.5Q172 20 133 53Q94 86 73.5 136.5Q53 187 53 256V713H254V266Q254 209 283 178.5Q312 148 363 148Q411 148 439.5 178.5Q468 209 468 266V713H664V262Q664 193 639.5 141.5Q615 90 572.5 55.5Q530 21 473.5 4Q417 -13 354 -13Z" glyph-name="U" horiz-adv-x="717" unicode="U" /><glyph d="M385 942H560L418 756H296ZM354 -13Q284 -13 228 3.5Q172 20 133 53Q94 86 73.5 136.5Q53 187 53 256V713H254V266Q254 209 283 178.5Q312 148 363 148Q411 148 439.5 178.5Q468 209 468 266V713H664V262Q664 193 639.5 141.5Q615 90 572.5 55.5Q530 21 473.5 4Q417 -13 354 -13Z" glyph-name="Uacute" horiz-adv-x="717" unicode="&#218;" /><glyph d="M359 757Q273 757 224.5 804.5Q176 852 173 931H283Q291 896 310 878Q329 860 364 860Q387 860 407.5 877.5Q428 895 436 931H544Q543 887 527 854.5Q511 822 485 800.5Q459 779 426 768Q393 757 359 757ZM354 -13Q284 -13 228 3.5Q172 20 133 53Q94 86 73.5 136.5Q53 187 53 256V713H254V266Q254 209 283 178.5Q312 148 363 148Q411 148 439.5 178.5Q468 209 468 266V713H664V262Q664 193 639.5 141.5Q615 90 572.5 55.5Q530 21 473.5 4Q417 -13 354 -13Z" glyph-name="Ubreve" horiz-adv-x="717" unicode="&#364;" /><glyph d="M294 942H430L555 756H412L359 845L303 756H162ZM354 -13Q284 -13 228 3.5Q172 20 133 53Q94 86 73.5 136.5Q53 187 53 256V713H254V266Q254 209 283 178.5Q312 148 363 148Q411 148 439.5 178.5Q468 209 468 266V713H664V262Q664 193 639.5 141.5Q615 90 572.5 55.5Q530 21 473.5 4Q417 -13 354 -13Z" glyph-name="Ucircumflex" horiz-adv-x="717" unicode="&#219;" /><glyph d="M391 920H549V757H391ZM167 920H325V757H167ZM354 -13Q284 -13 228 3.5Q172 20 133 53Q94 86 73.5 136.5Q53 187 53 256V713H254V266Q254 209 283 178.5Q312 148 363 148Q411 148 439.5 178.5Q468 209 468 266V713H664V262Q664 193 639.5 141.5Q615 90 572.5 55.5Q530 21 473.5 4Q417 -13 354 -13Z" glyph-name="Udieresis" horiz-adv-x="717" unicode="&#220;" /><glyph d="M153 942H328L417 756H295ZM354 -13Q284 -13 228 3.5Q172 20 133 53Q94 86 73.5 136.5Q53 187 53 256V713H254V266Q254 209 283 178.5Q312 148 363 148Q411 148 439.5 178.5Q468 209 468 266V713H664V262Q664 193 639.5 141.5Q615 90 572.5 55.5Q530 21 473.5 4Q417 -13 354 -13Z" glyph-name="Ugrave" horiz-adv-x="717" unicode="&#217;" /><glyph d="M473 942H633L508 756H396ZM266 942H427L302 756H190ZM354 -13Q284 -13 228 3.5Q172 20 133 53Q94 86 73.5 136.5Q53 187 53 256V713H254V266Q254 209 283 178.5Q312 148 363 148Q411 148 439.5 178.5Q468 209 468 266V713H664V262Q664 193 639.5 141.5Q615 90 572.5 55.5Q530 21 473.5 4Q417 -13 354 -13Z" glyph-name="Uhungarumlaut" horiz-adv-x="717" unicode="&#368;" /><glyph d="M182 896H535V767H182ZM354 -13Q284 -13 228 3.5Q172 20 133 53Q94 86 73.5 136.5Q53 187 53 256V713H254V266Q254 209 283 178.5Q312 148 363 148Q411 148 439.5 178.5Q468 209 468 266V713H664V262Q664 193 639.5 141.5Q615 90 572.5 55.5Q530 21 473.5 4Q417 -13 354 -13Z" glyph-name="Umacron" horiz-adv-x="717" unicode="&#362;" /><glyph d="M406 -225Q341 -225 310 -197.5Q279 -170 279 -127Q279 -93 295 -64.5Q311 -36 338 -13Q204 -9 128.5 56.5Q53 122 53 256V713H254V266Q254 209 283 178.5Q312 148 363 148Q411 148 439.5 178.5Q468 209 468 266V713H664V262Q664 209 649 166Q634 123 607 90.5Q580 58 543 35.5Q506 13 462 1Q432 -10 415.5 -34Q399 -58 399 -79Q399 -97 409.5 -107Q420 -117 444 -117Q455 -117 472.5 -112Q490 -107 506 -97L546 -190Q518 -204 483.5 -214.5Q449 -225 406 -225Z" glyph-name="Uogonek" horiz-adv-x="717" unicode="&#370;" /><glyph d="M358 806Q381 806 396 819.5Q411 833 411 854Q411 876 396.5 890Q382 904 358 904Q335 904 321 890Q307 876 307 854Q307 834 322 820Q337 806 358 806ZM358 749Q307 749 272.5 776Q238 803 238 851Q238 875 247.5 894.5Q257 914 273.5 928.5Q290 943 312 951Q334 959 358 959Q409 959 444 933.5Q479 908 479 858Q479 835 469 815Q459 795 442.5 780.5Q426 766 404 757.5Q382 749 358 749ZM354 -13Q284 -13 228 3.5Q172 20 133 53Q94 86 73.5 136.5Q53 187 53 256V713H254V266Q254 209 283 178.5Q312 148 363 148Q411 148 439.5 178.5Q468 209 468 266V713H664V262Q664 193 639.5 141.5Q615 90 572.5 55.5Q530 21 473.5 4Q417 -13 354 -13Z" glyph-name="Uring" horiz-adv-x="717" unicode="&#366;" /><glyph d="M128 773Q133 803 144.5 830Q156 857 174 877Q192 897 216.5 909Q241 921 272 921Q295 921 317.5 915.5Q340 910 362 904Q384 898 406.5 892.5Q429 887 452 887Q463 887 470 891.5Q477 896 481.5 903Q486 910 489 919.5Q492 929 495 940L588 915Q584 887 574.5 860.5Q565 834 548.5 813.5Q532 793 508 780.5Q484 768 452 768Q429 768 406 773Q383 778 361 784.5Q339 791 318 796Q297 801 278 801Q256 801 246.5 790.5Q237 780 227 751ZM354 -13Q284 -13 228 3.5Q172 20 133 53Q94 86 73.5 136.5Q53 187 53 256V713H254V266Q254 209 283 178.5Q312 148 363 148Q411 148 439.5 178.5Q468 209 468 266V713H664V262Q664 193 639.5 141.5Q615 90 572.5 55.5Q530 21 473.5 4Q417 -13 354 -13Z" glyph-name="Utilde" horiz-adv-x="717" unicode="&#360;" /><glyph d="M4 713H208L338 221H342L476 713H665L436 -2H227Z" glyph-name="V" horiz-adv-x="669" unicode="V" /><glyph d="M9 713H208L300 310H303L401 713H580L674 309H675L766 713H954L778 -2H588L481 423H477L368 -2H186Z" glyph-name="W" horiz-adv-x="963" unicode="W" /><glyph d="M508 942H683L541 756H419ZM9 713H208L300 310H303L401 713H580L674 309H675L766 713H954L778 -2H588L481 423H477L368 -2H186Z" glyph-name="Wacute" horiz-adv-x="963" unicode="&#7810;" /><glyph d="M417 942H553L678 756H535L482 845L426 756H285ZM9 713H208L300 310H303L401 713H580L674 309H675L766 713H954L778 -2H588L481 423H477L368 -2H186Z" glyph-name="Wcircumflex" horiz-adv-x="963" unicode="&#372;" /><glyph d="M514 920H672V757H514ZM290 920H448V757H290ZM9 713H208L300 310H303L401 713H580L674 309H675L766 713H954L778 -2H588L481 423H477L368 -2H186Z" glyph-name="Wdieresis" horiz-adv-x="963" unicode="&#7812;" /><glyph d="M297 942H472L561 756H439ZM9 713H208L300 310H303L401 713H580L674 309H675L766 713H954L778 -2H588L481 423H477L368 -2H186Z" glyph-name="Wgrave" horiz-adv-x="963" unicode="&#7808;" /><glyph d="M214 369 14 713H232L347 500L461 713H661L460 365L675 0H459L329 231L204 0H-1Z" glyph-name="X" horiz-adv-x="674" unicode="X" /><glyph d="M231 280 -2 713H208L340 441L469 713H665L432 279V0H231Z" glyph-name="Y" horiz-adv-x="664" unicode="Y" /><glyph d="M358 942H533L391 756H269ZM231 280 -2 713H208L340 441L469 713H665L432 279V0H231Z" glyph-name="Yacute" horiz-adv-x="664" unicode="&#221;" /><glyph d="M267 942H403L528 756H385L332 845L276 756H135ZM231 280 -2 713H208L340 441L469 713H665L432 279V0H231Z" glyph-name="Ycircumflex" horiz-adv-x="664" unicode="&#374;" /><glyph d="M364 920H522V757H364ZM140 920H298V757H140ZM231 280 -2 713H208L340 441L469 713H665L432 279V0H231Z" glyph-name="Ydieresis" horiz-adv-x="664" unicode="&#376;" /><glyph d="M141 942H316L405 756H283ZM231 280 -2 713H208L340 441L469 713H665L432 279V0H231Z" glyph-name="Ygrave" horiz-adv-x="664" unicode="&#7922;" /><glyph d="M36 123 357 554H48V713H603V575L297 159H602V0H36Z" glyph-name="Z" horiz-adv-x="642" unicode="Z" /><glyph d="M346 942H521L379 756H257ZM36 123 357 554H48V713H603V575L297 159H602V0H36Z" glyph-name="Zacute" horiz-adv-x="642" unicode="&#377;" /><glyph d="M148 946H290L343 856L400 946H541L409 760H272ZM36 123 357 554H48V713H603V575L297 159H602V0H36Z" glyph-name="Zcaron" horiz-adv-x="642" unicode="&#381;" /><glyph d="M238 920H400V757H238ZM36 123 357 554H48V713H603V575L297 159H602V0H36Z" glyph-name="Zdotaccent" horiz-adv-x="642" unicode="&#379;" /><glyph d="M279 118Q310 118 332 137.5Q354 157 354 192V224H297Q262 224 238.5 213Q215 202 215 170Q215 148 229 133Q243 118 279 118ZM199 -12Q162 -12 130.5 -2Q99 8 76 27Q53 46 40 74.5Q27 103 27 141Q27 192 52 226.5Q77 261 115 281Q153 301 199 309.5Q245 318 286 318H354V356Q354 384 336 400.5Q318 417 280 417Q241 417 225.5 399Q210 381 210 362V348H45V370Q45 413 65.5 445.5Q86 478 120 500Q154 522 199 533Q244 544 294 544Q341 544 385.5 533.5Q430 523 464.5 500.5Q499 478 520 441.5Q541 405 541 354V119Q541 101 542 81.5Q543 62 544.5 45Q546 28 547.5 16Q549 4 550 0H375Q375 1 374 10.5Q373 20 372 32Q371 44 370 53.5Q369 63 369 64H364Q348 40 326.5 25Q305 10 282.5 2Q260 -6 238.5 -9Q217 -12 199 -12Z" glyph-name="a" horiz-adv-x="588" unicode="a" /><glyph d="M312 757H487L346 579H224ZM279 118Q310 118 332 137.5Q354 157 354 192V224H297Q262 224 238.5 213Q215 202 215 170Q215 148 229 133Q243 118 279 118ZM199 -12Q162 -12 130.5 -2Q99 8 76 27Q53 46 40 74.5Q27 103 27 141Q27 192 52 226.5Q77 261 115 281Q153 301 199 309.5Q245 318 286 318H354V356Q354 384 336 400.5Q318 417 280 417Q241 417 225.5 399Q210 381 210 362V348H45V370Q45 413 65.5 445.5Q86 478 120 500Q154 522 199 533Q244 544 294 544Q341 544 385.5 533.5Q430 523 464.5 500.5Q499 478 520 441.5Q541 405 541 354V119Q541 101 542 81.5Q543 62 544.5 45Q546 28 547.5 16Q549 4 550 0H375Q375 1 374 10.5Q373 20 372 32Q371 44 370 53.5Q369 63 369 64H364Q348 40 326.5 25Q305 10 282.5 2Q260 -6 238.5 -9Q217 -12 199 -12Z" glyph-name="aacute" horiz-adv-x="588" unicode="&#225;" /><glyph d="M288 574Q202 574 153.5 621.5Q105 669 102 748H212Q220 713 239 695Q258 677 293 677Q316 677 336.5 694.5Q357 712 365 748H473Q472 704 456 671.5Q440 639 414 617.5Q388 596 355 585Q322 574 288 574ZM279 118Q310 118 332 137.5Q354 157 354 192V224H297Q262 224 238.5 213Q215 202 215 170Q215 148 229 133Q243 118 279 118ZM199 -12Q162 -12 130.5 -2Q99 8 76 27Q53 46 40 74.5Q27 103 27 141Q27 192 52 226.5Q77 261 115 281Q153 301 199 309.5Q245 318 286 318H354V356Q354 384 336 400.5Q318 417 280 417Q241 417 225.5 399Q210 381 210 362V348H45V370Q45 413 65.5 445.5Q86 478 120 500Q154 522 199 533Q244 544 294 544Q341 544 385.5 533.5Q430 523 464.5 500.5Q499 478 520 441.5Q541 405 541 354V119Q541 101 542 81.5Q543 62 544.5 45Q546 28 547.5 16Q549 4 550 0H375Q375 1 374 10.5Q373 20 372 32Q371 44 370 53.5Q369 63 369 64H364Q348 40 326.5 25Q305 10 282.5 2Q260 -6 238.5 -9Q217 -12 199 -12Z" glyph-name="abreve" horiz-adv-x="588" unicode="&#259;" /><glyph d="M224 762H360L485 580H342L289 666L233 580H92ZM279 118Q310 118 332 137.5Q354 157 354 192V224H297Q262 224 238.5 213Q215 202 215 170Q215 148 229 133Q243 118 279 118ZM199 -12Q162 -12 130.5 -2Q99 8 76 27Q53 46 40 74.5Q27 103 27 141Q27 192 52 226.5Q77 261 115 281Q153 301 199 309.5Q245 318 286 318H354V356Q354 384 336 400.5Q318 417 280 417Q241 417 225.5 399Q210 381 210 362V348H45V370Q45 413 65.5 445.5Q86 478 120 500Q154 522 199 533Q244 544 294 544Q341 544 385.5 533.5Q430 523 464.5 500.5Q499 478 520 441.5Q541 405 541 354V119Q541 101 542 81.5Q543 62 544.5 45Q546 28 547.5 16Q549 4 550 0H375Q375 1 374 10.5Q373 20 372 32Q371 44 370 53.5Q369 63 369 64H364Q348 40 326.5 25Q305 10 282.5 2Q260 -6 238.5 -9Q217 -12 199 -12Z" glyph-name="acircumflex" horiz-adv-x="588" unicode="&#226;" /><glyph d="M250 757H425L284 579H162Z" glyph-name="acute" horiz-adv-x="588" unicode="&#180;" /><glyph d="M-235 757H-60L-201 579H-323Z" glyph-name="acutecomb" horiz-adv-x="1" unicode="&#769;" /><glyph d="M-225 942H-50L-192 756H-314Z" glyph-name="acutecomb.case" horiz-adv-x="1" /><glyph d="M321 747H479V584H321ZM97 747H255V584H97ZM279 118Q310 118 332 137.5Q354 157 354 192V224H297Q262 224 238.5 213Q215 202 215 170Q215 148 229 133Q243 118 279 118ZM199 -12Q162 -12 130.5 -2Q99 8 76 27Q53 46 40 74.5Q27 103 27 141Q27 192 52 226.5Q77 261 115 281Q153 301 199 309.5Q245 318 286 318H354V356Q354 384 336 400.5Q318 417 280 417Q241 417 225.5 399Q210 381 210 362V348H45V370Q45 413 65.5 445.5Q86 478 120 500Q154 522 199 533Q244 544 294 544Q341 544 385.5 533.5Q430 523 464.5 500.5Q499 478 520 441.5Q541 405 541 354V119Q541 101 542 81.5Q543 62 544.5 45Q546 28 547.5 16Q549 4 550 0H375Q375 1 374 10.5Q373 20 372 32Q371 44 370 53.5Q369 63 369 64H364Q348 40 326.5 25Q305 10 282.5 2Q260 -6 238.5 -9Q217 -12 199 -12Z" glyph-name="adieresis" horiz-adv-x="588" unicode="&#228;" /><glyph d="M685 323V343Q685 378 664.5 396Q644 414 614 414Q584 414 563 395Q542 376 542 341V323ZM279 118Q310 118 332 137.5Q354 157 354 192V224H297Q262 224 238.5 213Q215 202 215 170Q215 148 229 133Q243 118 279 118ZM621 -13Q587 -13 554 -7.5Q521 -2 491 9.5Q461 21 436 39Q411 57 393 82Q371 48 344.5 29Q318 10 291 1Q264 -8 239.5 -10Q215 -12 199 -12Q162 -12 130.5 -2Q99 8 76 27Q53 46 40 74.5Q27 103 27 141Q27 192 52 226.5Q77 261 115 281Q153 301 199 309.5Q245 318 286 318H354V356Q354 384 336 400.5Q318 417 280 417Q241 417 225.5 399Q210 381 210 362V348H45V370Q45 413 65.5 445.5Q86 478 120 500Q154 522 199 533Q244 544 294 544Q341 544 383.5 534Q426 524 460 502Q495 524 536 534Q577 544 620 544Q666 544 709.5 530Q753 516 786 488.5Q819 461 839 420Q859 379 859 325V222H542V204Q542 183 552 168Q562 153 577.5 143.5Q593 134 612 129.5Q631 125 649 125Q667 125 689 129Q711 133 732.5 139Q754 145 772 151.5Q790 158 799 164L848 52Q800 19 742 3Q684 -13 621 -13Z" glyph-name="ae" horiz-adv-x="892" unicode="&#230;" /><glyph d="M476 757H651L510 579H388ZM685 323V343Q685 378 664.5 396Q644 414 614 414Q584 414 563 395Q542 376 542 341V323ZM279 118Q310 118 332 137.5Q354 157 354 192V224H297Q262 224 238.5 213Q215 202 215 170Q215 148 229 133Q243 118 279 118ZM621 -13Q587 -13 554 -7.5Q521 -2 491 9.5Q461 21 436 39Q411 57 393 82Q371 48 344.5 29Q318 10 291 1Q264 -8 239.5 -10Q215 -12 199 -12Q162 -12 130.5 -2Q99 8 76 27Q53 46 40 74.5Q27 103 27 141Q27 192 52 226.5Q77 261 115 281Q153 301 199 309.5Q245 318 286 318H354V356Q354 384 336 400.5Q318 417 280 417Q241 417 225.5 399Q210 381 210 362V348H45V370Q45 413 65.5 445.5Q86 478 120 500Q154 522 199 533Q244 544 294 544Q341 544 383.5 534Q426 524 460 502Q495 524 536 534Q577 544 620 544Q666 544 709.5 530Q753 516 786 488.5Q819 461 839 420Q859 379 859 325V222H542V204Q542 183 552 168Q562 153 577.5 143.5Q593 134 612 129.5Q631 125 649 125Q667 125 689 129Q711 133 732.5 139Q754 145 772 151.5Q790 158 799 164L848 52Q800 19 742 3Q684 -13 621 -13Z" glyph-name="aeacute" horiz-adv-x="892" unicode="&#509;" /><glyph d="M85 757H260L348 579H226ZM279 118Q310 118 332 137.5Q354 157 354 192V224H297Q262 224 238.5 213Q215 202 215 170Q215 148 229 133Q243 118 279 118ZM199 -12Q162 -12 130.5 -2Q99 8 76 27Q53 46 40 74.5Q27 103 27 141Q27 192 52 226.5Q77 261 115 281Q153 301 199 309.5Q245 318 286 318H354V356Q354 384 336 400.5Q318 417 280 417Q241 417 225.5 399Q210 381 210 362V348H45V370Q45 413 65.5 445.5Q86 478 120 500Q154 522 199 533Q244 544 294 544Q341 544 385.5 533.5Q430 523 464.5 500.5Q499 478 520 441.5Q541 405 541 354V119Q541 101 542 81.5Q543 62 544.5 45Q546 28 547.5 16Q549 4 550 0H375Q375 1 374 10.5Q373 20 372 32Q371 44 370 53.5Q369 63 369 64H364Q348 40 326.5 25Q305 10 282.5 2Q260 -6 238.5 -9Q217 -12 199 -12Z" glyph-name="agrave" horiz-adv-x="588" unicode="&#224;" /><glyph d="M112 713H465V584H112ZM279 118Q310 118 332 137.5Q354 157 354 192V224H297Q262 224 238.5 213Q215 202 215 170Q215 148 229 133Q243 118 279 118ZM199 -12Q162 -12 130.5 -2Q99 8 76 27Q53 46 40 74.5Q27 103 27 141Q27 192 52 226.5Q77 261 115 281Q153 301 199 309.5Q245 318 286 318H354V356Q354 384 336 400.5Q318 417 280 417Q241 417 225.5 399Q210 381 210 362V348H45V370Q45 413 65.5 445.5Q86 478 120 500Q154 522 199 533Q244 544 294 544Q341 544 385.5 533.5Q430 523 464.5 500.5Q499 478 520 441.5Q541 405 541 354V119Q541 101 542 81.5Q543 62 544.5 45Q546 28 547.5 16Q549 4 550 0H375Q375 1 374 10.5Q373 20 372 32Q371 44 370 53.5Q369 63 369 64H364Q348 40 326.5 25Q305 10 282.5 2Q260 -6 238.5 -9Q217 -12 199 -12Z" glyph-name="amacron" horiz-adv-x="588" unicode="&#257;" /><glyph d="M409 453Q437 465 455.5 491Q474 517 474 551Q474 574 455.5 589Q437 604 414 604Q379 604 364 587.5Q349 571 349 547Q349 532 362 513Q375 494 389 477ZM333 120Q391 120 430 156L290 310Q257 292 245 262.5Q233 233 233 209Q233 173 258 146.5Q283 120 333 120ZM290 -17Q239 -17 193 -3Q147 11 112.5 37.5Q78 64 57.5 103.5Q37 143 37 194Q37 232 51.5 264Q66 296 90.5 321.5Q115 347 146.5 365.5Q178 384 211 395Q199 407 186.5 423.5Q174 440 164 458Q154 476 147.5 494.5Q141 513 141 530Q141 573 156.5 609Q172 645 204.5 671Q237 697 286 711Q335 725 401 725Q452 725 493.5 712.5Q535 700 564.5 677.5Q594 655 610 623.5Q626 592 626 553Q626 518 614.5 490Q603 462 583.5 439.5Q564 417 537.5 400.5Q511 384 481 373L570 274Q573 284 575.5 292Q578 300 580 309Q582 318 584.5 329.5Q587 341 590 358L746 343Q737 282 718 241Q699 200 673 165L824 -1H573L521 55Q476 20 416 1.5Q356 -17 290 -17Z" glyph-name="ampersand" horiz-adv-x="827" unicode="&amp;" /><glyph d="M279 118Q310 118 332 137.5Q354 157 354 192V224H297Q262 224 238.5 213Q215 202 215 170Q215 148 229 133Q243 118 279 118ZM432 -225Q367 -225 336 -197.5Q305 -170 305 -127Q305 -90 324 -58.5Q343 -27 375 -3Q374 2 373 12.5Q372 23 371 34.5Q370 46 369.5 54.5Q369 63 369 64H364Q348 40 326.5 25Q305 10 282.5 2Q260 -6 238.5 -9Q217 -12 199 -12Q162 -12 130.5 -2Q99 8 76 27Q53 46 40 74.5Q27 103 27 141Q27 192 52 226.5Q77 261 115 281Q153 301 199 309.5Q245 318 286 318H354V356Q354 384 336 400.5Q318 417 280 417Q241 417 225.5 399Q210 381 210 362V348H45V370Q45 413 65.5 445.5Q86 478 120 500Q154 522 199 533Q244 544 294 544Q341 544 385.5 533.5Q430 523 464.5 500.5Q499 478 520 441.5Q541 405 541 354V119Q541 101 542 81.5Q543 62 544.5 45Q546 28 547.5 16Q549 4 550 0Q491 -8 458 -30.5Q425 -53 425 -79Q425 -97 435.5 -107Q446 -117 470 -117Q481 -117 498.5 -112Q516 -107 532 -97L572 -190Q544 -204 509.5 -214.5Q475 -225 432 -225Z" glyph-name="aogonek" horiz-adv-x="588" unicode="&#261;" /><glyph d="M45 353Q53 422 89 463.5Q125 505 176 505Q206 505 237 496.5Q268 488 295.5 478.5Q323 469 346.5 460.5Q370 452 385 452Q400 452 412.5 466Q425 480 429 517L534 494Q523 424 488 384Q453 344 402 344Q372 344 341 352.5Q310 361 281.5 371.5Q253 382 228 391Q203 400 183 400Q166 400 156 381Q146 362 142 333ZM55 144Q63 213 99 254.5Q135 296 186 296Q216 296 247 287.5Q278 279 305.5 269.5Q333 260 356.5 251.5Q380 243 395 243Q410 243 422.5 257Q435 271 439 308L544 285Q533 215 498 175Q463 135 412 135Q382 135 351 143.5Q320 152 291.5 162.5Q263 173 238 182Q213 191 193 191Q176 191 166 172Q156 153 152 124Z" glyph-name="approxequal" horiz-adv-x="590" unicode="&#8776;" /><glyph d="M288 625Q310 625 325 638.5Q340 652 340 673Q340 695 326 709Q312 723 288 723Q265 723 251 709Q237 695 237 673Q237 653 252 639Q267 625 288 625ZM288 568Q237 568 202.5 595Q168 622 168 670Q168 694 177.5 713.5Q187 733 203.5 747.5Q220 762 242 770Q264 778 288 778Q339 778 374 752.5Q409 727 409 677Q409 654 399 634Q389 614 372.5 599.5Q356 585 334 576.5Q312 568 288 568ZM279 118Q310 118 332 137.5Q354 157 354 192V224H297Q262 224 238.5 213Q215 202 215 170Q215 148 229 133Q243 118 279 118ZM199 -12Q162 -12 130.5 -2Q99 8 76 27Q53 46 40 74.5Q27 103 27 141Q27 192 52 226.5Q77 261 115 281Q153 301 199 309.5Q245 318 286 318H354V356Q354 384 336 400.5Q318 417 280 417Q241 417 225.5 399Q210 381 210 362V348H45V370Q45 413 65.5 445.5Q86 478 120 500Q154 522 199 533Q244 544 294 544Q341 544 385.5 533.5Q430 523 464.5 500.5Q499 478 520 441.5Q541 405 541 354V119Q541 101 542 81.5Q543 62 544.5 45Q546 28 547.5 16Q549 4 550 0H375Q375 1 374 10.5Q373 20 372 32Q371 44 370 53.5Q369 63 369 64H364Q348 40 326.5 25Q305 10 282.5 2Q260 -6 238.5 -9Q217 -12 199 -12Z" glyph-name="aring" horiz-adv-x="588" unicode="&#229;" /><glyph d="M279 118Q310 118 332 137.5Q354 157 354 192V224H297Q262 224 238.5 213Q215 202 215 170Q215 148 229 133Q243 118 279 118ZM199 -12Q162 -12 130.5 -2Q99 8 76 27Q53 46 40 74.5Q27 103 27 141Q27 192 52 226.5Q77 261 115 281Q153 301 199 309.5Q245 318 286 318H354V356Q354 384 336 400.5Q318 417 280 417Q241 417 225.5 399Q210 381 210 362V348H45V370Q45 413 65.5 445.5Q86 478 120 500Q154 522 199 533Q244 544 294 544Q341 544 385.5 533.5Q430 523 464.5 500.5Q499 478 520 441.5Q541 405 541 354V119Q541 101 542 81.5Q543 62 544.5 45Q546 28 547.5 16Q549 4 550 0H375Q375 1 374 10.5Q373 20 372 32Q371 44 370 53.5Q369 63 369 64H364Q348 40 326.5 25Q305 10 282.5 2Q260 -6 238.5 -9Q217 -12 199 -12ZM292 624Q314 624 329 637.5Q344 651 344 672Q344 694 330 708Q316 722 292 722Q269 722 255 708Q241 694 241 672Q241 652 256 638Q271 624 292 624ZM292 567Q241 567 206.5 594Q172 621 172 669Q172 693 181.5 712.5Q191 732 207.5 746.5Q224 761 246 769Q268 777 292 777Q343 777 378 751.5Q413 726 413 676Q413 653 403 633Q393 613 376.5 598.5Q360 584 338 575.5Q316 567 292 567ZM315 936H465L341 801H235Z" glyph-name="aringacute" horiz-adv-x="588" unicode="&#507;" /><glyph d="M229 616H369L506 121H387L296 484L202 121H84Z" glyph-name="asciicircum" horiz-adv-x="590" unicode="^" /><glyph d="M51 238Q59 307 95 348.5Q131 390 182 390Q212 390 243 381.5Q274 373 301.5 363.5Q329 354 352.5 345.5Q376 337 391 337Q406 337 418.5 351Q431 365 435 402L540 379Q529 309 494 269Q459 229 408 229Q378 229 347 237.5Q316 246 287.5 256.5Q259 267 234 276Q209 285 189 285Q172 285 162 266Q152 247 148 218Z" glyph-name="asciitilde" horiz-adv-x="590" unicode="~" /><glyph d="M78 369 162 490 33 562 83 643 199 581V713H300V581L414 643L466 562L335 490L421 369L337 316L249 439L161 316Z" glyph-name="asterisk" horiz-adv-x="499" unicode="*" /><glyph d="M454 166Q486 166 507.5 186Q529 206 534 237L553 343Q554 347 554 357Q554 383 536.5 396Q519 409 495 409Q463 409 444 387Q425 365 420 336L403 234Q401 226 401 219Q401 196 415 181Q429 166 454 166ZM495 -148Q477 -148 454.5 -146.5Q432 -145 409.5 -142.5Q387 -140 366 -136Q345 -132 328 -127Q268 -108 216.5 -73Q165 -38 127.5 11.5Q90 61 68.5 124Q47 187 47 263Q47 366 85 450Q123 534 188 593.5Q253 653 339.5 685Q426 717 524 717Q597 717 667 695Q737 673 791 630Q845 587 878 525Q911 463 911 383Q911 318 889 263Q867 208 831 166.5Q795 125 748 98Q701 71 650 63H505L516 116H512Q487 89 450.5 70.5Q414 52 375 52Q315 52 278 82Q241 112 241 174Q241 193 244 211L271 358Q277 393 294.5 422Q312 451 337 471.5Q362 492 393.5 503.5Q425 515 461 515Q476 515 492 512.5Q508 510 523.5 504.5Q539 499 552.5 490Q566 481 574 468H576L583 506H734L670 143Q700 153 727.5 173Q755 193 775.5 222.5Q796 252 808 291Q820 330 820 378Q820 446 793.5 496Q767 546 723.5 578.5Q680 611 624.5 626.5Q569 642 511 642Q424 642 355 612.5Q286 583 239 532Q192 481 167 411.5Q142 342 142 262Q142 209 156 163Q170 117 195.5 79Q221 41 256.5 12Q292 -17 334 -36Q366 -50 410 -58.5Q454 -67 496 -67Q536 -67 569.5 -64.5Q603 -62 635.5 -56.5Q668 -51 702 -42.5Q736 -34 776 -22L797 -92Q738 -118 665 -133Q592 -148 495 -148Z" glyph-name="at" horiz-adv-x="958" unicode="@" /><glyph d="M58 592Q63 622 74.5 649.5Q86 677 104 697Q122 717 146.5 729Q171 741 202 741Q225 741 247.5 735.5Q270 730 292 723.5Q314 717 336.5 711.5Q359 706 382 706Q403 706 411 721Q419 736 425 759L519 735Q515 706 505 679.5Q495 653 478.5 633Q462 613 438 600.5Q414 588 382 588Q359 588 336 593Q313 598 291.5 604.5Q270 611 249 616Q228 621 208 621Q186 621 176.5 610Q167 599 158 571ZM279 118Q310 118 332 137.5Q354 157 354 192V224H297Q262 224 238.5 213Q215 202 215 170Q215 148 229 133Q243 118 279 118ZM199 -12Q162 -12 130.5 -2Q99 8 76 27Q53 46 40 74.5Q27 103 27 141Q27 192 52 226.5Q77 261 115 281Q153 301 199 309.5Q245 318 286 318H354V356Q354 384 336 400.5Q318 417 280 417Q241 417 225.5 399Q210 381 210 362V348H45V370Q45 413 65.5 445.5Q86 478 120 500Q154 522 199 533Q244 544 294 544Q341 544 385.5 533.5Q430 523 464.5 500.5Q499 478 520 441.5Q541 405 541 354V119Q541 101 542 81.5Q543 62 544.5 45Q546 28 547.5 16Q549 4 550 0H375Q375 1 374 10.5Q373 20 372 32Q371 44 370 53.5Q369 63 369 64H364Q348 40 326.5 25Q305 10 282.5 2Q260 -6 238.5 -9Q217 -12 199 -12Z" glyph-name="atilde" horiz-adv-x="588" unicode="&#227;" /><glyph d="M317 118Q346 118 368 137.5Q390 157 390 198V327Q390 366 368 385.5Q346 405 317 405Q303 405 288.5 401Q274 397 263 387.5Q252 378 245 360.5Q238 343 238 316V195Q238 174 245.5 159Q253 144 264.5 135Q276 126 290 122Q304 118 317 118ZM366 -13Q330 -13 295.5 2.5Q261 18 236 48H234V0H51V713H238V471H239Q268 509 307 527Q346 545 386 545Q477 545 527 493Q577 441 577 352V176Q577 134 560.5 99Q544 64 515.5 39Q487 14 448.5 0.5Q410 -13 366 -13Z" glyph-name="b" horiz-adv-x="610" unicode="b" /><glyph d="M1 718H124L388 -178H263Z" glyph-name="backslash" horiz-adv-x="365" unicode="\" /><glyph d="M95 725H223V-53H95Z" glyph-name="bar" horiz-adv-x="318" unicode="|" /><glyph d="M185 -184Q136 -184 106 -155Q76 -126 76 -61V181Q76 218 67.5 232.5Q59 247 31 250V342Q47 345 56.5 348.5Q66 352 70 358Q74 364 75 373Q76 382 76 395V590Q76 655 106 684Q136 713 185 713H311V628H242Q234 628 227 623.5Q220 619 220 605V421Q220 373 206.5 345.5Q193 318 158 304V298Q177 290 189.5 281Q202 272 208.5 259Q215 246 217.5 227.5Q220 209 220 183V-76Q220 -90 227 -94.5Q234 -99 242 -99H311V-184Z" glyph-name="braceleft" horiz-adv-x="337" unicode="{" /><glyph d="M26 -99H95Q103 -99 110 -94.5Q117 -90 117 -76V183Q117 209 119.5 227.5Q122 246 128.5 259Q135 272 147 281Q159 290 179 298V304Q144 318 130.5 345.5Q117 373 117 421V605Q117 619 110 623.5Q103 628 95 628H26V713H152Q201 713 231 684Q261 655 261 590V395Q261 382 262 373Q263 364 267 358Q271 352 280 348.5Q289 345 306 342V250Q278 247 269.5 232.5Q261 218 261 181V-61Q261 -126 231 -155Q201 -184 152 -184H26Z" glyph-name="braceright" horiz-adv-x="337" unicode="}" /><glyph d="M76 713H312V627H220V-99H311V-184H76Z" glyph-name="bracketleft" horiz-adv-x="337" unicode="[" /><glyph d="M26 -99H117V627H26V713H261V-184H26Z" glyph-name="bracketright" horiz-adv-x="337" unicode="]" /><glyph d="M293 574Q207 574 158.5 621.5Q110 669 107 748H217Q225 713 244 695Q263 677 298 677Q321 677 341.5 694.5Q362 712 370 748H478Q477 704 461 671.5Q445 639 419 617.5Q393 596 360 585Q327 574 293 574Z" glyph-name="breve" horiz-adv-x="588" unicode="&#728;" /><glyph d="M139 713H250V383H139ZM139 309H250V-47H139Z" glyph-name="brokenbar" horiz-adv-x="389" unicode="&#166;" /><glyph d="M233 154Q197 154 166 167.5Q135 181 111.5 204Q88 227 74.5 258Q61 289 61 324Q61 360 74.5 391.5Q88 423 111.5 446Q135 469 166 482.5Q197 496 233 496Q268 496 299 482.5Q330 469 353 446Q376 423 389.5 391.5Q403 360 403 324Q403 289 389.5 258Q376 227 353 204Q330 181 299 167.5Q268 154 233 154Z" glyph-name="bullet" horiz-adv-x="464" unicode="&#8226;" /><glyph d="M233 199Q197 199 166 212.5Q135 226 111.5 249Q88 272 74.5 303Q61 334 61 369Q61 405 74.5 436.5Q88 468 111.5 491Q135 514 166 527.5Q197 541 233 541Q268 541 299 527.5Q330 514 353 491Q376 468 389.5 436.5Q403 405 403 369Q403 334 389.5 303Q376 272 353 249Q330 226 299 212.5Q268 199 233 199Z" glyph-name="bullet.case" horiz-adv-x="464" /><glyph d="M295 -13Q248 -13 201 -1Q154 11 116.5 37Q79 63 56 104.5Q33 146 33 205V313Q33 373 56 416.5Q79 460 116 488.5Q153 517 200 530.5Q247 544 294 544Q342 544 387.5 531.5Q433 519 468 495Q503 471 524 435Q545 399 545 351V323H365V341Q365 377 345 393Q325 409 297 409Q264 409 243 390.5Q222 372 222 333V199Q222 163 242.5 142.5Q263 122 298 122Q326 122 345.5 138.5Q365 155 365 190V207H545V175Q545 127 524 92Q503 57 468.5 33.5Q434 10 388.5 -1.5Q343 -13 295 -13Z" glyph-name="c" horiz-adv-x="570" unicode="c" /><glyph d="M313 757H488L347 579H225ZM295 -13Q248 -13 201 -1Q154 11 116.5 37Q79 63 56 104.5Q33 146 33 205V313Q33 373 56 416.5Q79 460 116 488.5Q153 517 200 530.5Q247 544 294 544Q342 544 387.5 531.5Q433 519 468 495Q503 471 524 435Q545 399 545 351V323H365V341Q365 377 345 393Q325 409 297 409Q264 409 243 390.5Q222 372 222 333V199Q222 163 242.5 142.5Q263 122 298 122Q326 122 345.5 138.5Q365 155 365 190V207H545V175Q545 127 524 92Q503 57 468.5 33.5Q434 10 388.5 -1.5Q343 -13 295 -13Z" glyph-name="cacute" horiz-adv-x="570" unicode="&#263;" /><glyph d="M97 760H243L293 681L349 760H490L358 584H222Z" glyph-name="caron" horiz-adv-x="588" unicode="&#711;" /><glyph d="M93 760H239L289 681L345 760H486L354 584H218ZM295 -13Q248 -13 201 -1Q154 11 116.5 37Q79 63 56 104.5Q33 146 33 205V313Q33 373 56 416.5Q79 460 116 488.5Q153 517 200 530.5Q247 544 294 544Q342 544 387.5 531.5Q433 519 468 495Q503 471 524 435Q545 399 545 351V323H365V341Q365 377 345 393Q325 409 297 409Q264 409 243 390.5Q222 372 222 333V199Q222 163 242.5 142.5Q263 122 298 122Q326 122 345.5 138.5Q365 155 365 190V207H545V175Q545 127 524 92Q503 57 468.5 33.5Q434 10 388.5 -1.5Q343 -13 295 -13Z" glyph-name="ccaron" horiz-adv-x="570" unicode="&#269;" /><glyph d="M296 -219Q272 -219 241.5 -215Q211 -211 180 -203V-128Q209 -135 238 -139.5Q267 -144 286 -144Q311 -144 320.5 -137.5Q330 -131 330 -118Q330 -111 325 -106.5Q320 -102 313 -100Q306 -98 297 -97.5Q288 -97 281 -96L233 -94L252 -10Q210 -6 170.5 8.5Q131 23 100.5 49Q70 75 51.5 113.5Q33 152 33 205V313Q33 373 56 416.5Q79 460 116 488.5Q153 517 200 530.5Q247 544 294 544Q342 544 387.5 531.5Q433 519 468 495Q503 471 524 435Q545 399 545 351V323H365V341Q365 377 345 393Q325 409 297 409Q264 409 243 390.5Q222 372 222 333V199Q222 163 242.5 142.5Q263 122 298 122Q326 122 345.5 138.5Q365 155 365 190V207H545V175Q545 131 527 97.5Q509 64 479 41Q449 18 409 4.5Q369 -9 325 -12L320 -36Q341 -36 364.5 -39Q388 -42 408.5 -50.5Q429 -59 442 -75Q455 -91 455 -116Q455 -141 442.5 -160Q430 -179 408 -192Q386 -205 357.5 -212Q329 -219 296 -219Z" glyph-name="ccedilla" horiz-adv-x="570" unicode="&#231;" /><glyph d="M225 762H361L486 580H343L290 666L234 580H93ZM295 -13Q248 -13 201 -1Q154 11 116.5 37Q79 63 56 104.5Q33 146 33 205V313Q33 373 56 416.5Q79 460 116 488.5Q153 517 200 530.5Q247 544 294 544Q342 544 387.5 531.5Q433 519 468 495Q503 471 524 435Q545 399 545 351V323H365V341Q365 377 345 393Q325 409 297 409Q264 409 243 390.5Q222 372 222 333V199Q222 163 242.5 142.5Q263 122 298 122Q326 122 345.5 138.5Q365 155 365 190V207H545V175Q545 127 524 92Q503 57 468.5 33.5Q434 10 388.5 -1.5Q343 -13 295 -13Z" glyph-name="ccircumflex" horiz-adv-x="570" unicode="&#265;" /><glyph d="M197 743H384V589H197ZM295 -13Q248 -13 201 -1Q154 11 116.5 37Q79 63 56 104.5Q33 146 33 205V313Q33 373 56 416.5Q79 460 116 488.5Q153 517 200 530.5Q247 544 294 544Q342 544 387.5 531.5Q433 519 468 495Q503 471 524 435Q545 399 545 351V323H365V341Q365 377 345 393Q325 409 297 409Q264 409 243 390.5Q222 372 222 333V199Q222 163 242.5 142.5Q263 122 298 122Q326 122 345.5 138.5Q365 155 365 190V207H545V175Q545 127 524 92Q503 57 468.5 33.5Q434 10 388.5 -1.5Q343 -13 295 -13Z" glyph-name="cdotaccent" horiz-adv-x="570" unicode="&#267;" /><glyph d="M272 -219Q248 -219 217.5 -215Q187 -211 156 -203V-128Q185 -135 214 -139.5Q243 -144 262 -144Q287 -144 296.5 -137.5Q306 -131 306 -118Q306 -111 301 -106.5Q296 -102 289 -100Q282 -98 273 -97.5Q264 -97 257 -96L209 -94L239 36H312L296 -36Q317 -36 340.5 -39Q364 -42 384.5 -50.5Q405 -59 418 -75Q431 -91 431 -116Q431 -141 418.5 -160Q406 -179 384 -192Q362 -205 333.5 -212Q305 -219 272 -219Z" glyph-name="cedilla" horiz-adv-x="588" unicode="&#184;" /><glyph d="M224 -7Q188 1 155 16.5Q122 32 97.5 57Q73 82 58.5 116.5Q44 151 44 197V331Q44 377 58.5 413Q73 449 97.5 475.5Q122 502 154.5 519.5Q187 537 224 546V628H387V545Q421 537 450.5 522Q480 507 502 484.5Q524 462 536.5 433Q549 404 549 369V341H376V357Q376 393 354.5 410Q333 427 304 427Q270 427 248.5 407.5Q227 388 227 349V193Q227 156 247.5 135Q268 114 305 114Q334 114 355 131Q376 148 376 184V200H549V165Q549 129 536.5 101Q524 73 502 51.5Q480 30 450.5 15.5Q421 1 387 -6V-93H224Z" glyph-name="cent" horiz-adv-x="585" unicode="&#162;" /><glyph d="M222 -7Q186 1 153 16.5Q120 32 95.5 57Q71 82 56.5 116.5Q42 151 42 197V331Q42 377 56.5 413Q71 449 95.5 475.5Q120 502 152.5 519.5Q185 537 222 546V628H385V545Q419 537 448.5 522Q478 507 500 484.5Q522 462 534.5 433Q547 404 547 369V341H374V357Q374 393 352.5 410Q331 427 302 427Q268 427 246.5 407.5Q225 388 225 349V193Q225 156 245.5 135Q266 114 303 114Q332 114 353 131Q374 148 374 184V200H547V165Q547 129 534.5 101Q522 73 500 51.5Q478 30 448.5 15.5Q419 1 385 -6V-93H222Z" glyph-name="cent.tf" horiz-adv-x="590" /><glyph d="M412 67Q469 67 519 84.5Q569 102 606 137Q643 172 664.5 225Q686 278 686 349Q686 408 669 459.5Q652 511 617.5 549.5Q583 588 532 610.5Q481 633 412 633Q354 633 303 615Q252 597 214.5 561.5Q177 526 155.5 472.5Q134 419 134 349Q134 284 155.5 231.5Q177 179 214.5 142.5Q252 106 303 86.5Q354 67 412 67ZM412 -19Q335 -19 267 3Q199 25 148.5 70.5Q98 116 68.5 185Q39 254 39 349Q39 434 68.5 502Q98 570 148.5 618Q199 666 267 691.5Q335 717 412 717Q503 717 572.5 688Q642 659 688 610Q734 561 757.5 495.5Q781 430 781 357Q781 264 752.5 194Q724 124 674 76.5Q624 29 556.5 5Q489 -19 412 -19Z" glyph-name="circle" horiz-adv-x="820" unicode="&#9675;" /><glyph d="M229 762H365L490 580H347L294 666L238 580H97Z" glyph-name="circumflex" horiz-adv-x="588" unicode="&#710;" /><glyph d="M54 532H241V349H54ZM54 183H241V0H54Z" glyph-name="colon" horiz-adv-x="295" unicode=":" /><glyph d="M118 1H54V182H241V11L170 -141H83Z" glyph-name="comma" horiz-adv-x="295" unicode="," /><glyph d="M85 2H44V120H162V9L118 -87H64Z" glyph-name="comma.dnom" horiz-adv-x="206" /><glyph d="M85 318H44V436H162V325L118 229H64Z" glyph-name="comma.numr" horiz-adv-x="182" /><glyph d="M85 -131H44V-13H162V-124L118 -220H64Z" glyph-name="comma.subs" horiz-adv-x="206" /><glyph d="M85 382H44V500H162V389L118 293H64Z" glyph-name="comma.sups" horiz-adv-x="206" /><glyph d="M449 79Q408 79 369.5 89Q331 99 300.5 120.5Q270 142 251.5 176.5Q233 211 233 261V436Q233 482 251 516Q269 550 299 572Q329 594 368 605Q407 616 448 616Q484 616 521.5 607Q559 598 589 578.5Q619 559 638 528Q657 497 657 453V402H512V440Q512 469 494.5 482Q477 495 451 495Q421 495 404.5 479.5Q388 464 388 434V262Q388 232 403.5 215.5Q419 199 451 199Q477 199 494.5 213.5Q512 228 512 254V298H657V242Q657 198 638 167Q619 136 589 116.5Q559 97 522 88Q485 79 449 79ZM443 15Q504 15 561 38.5Q618 62 661.5 105Q705 148 731 209.5Q757 271 757 347Q757 423 731.5 484.5Q706 546 662.5 589.5Q619 633 562.5 656.5Q506 680 443 680Q379 680 322.5 657Q266 634 224 590.5Q182 547 157.5 485Q133 423 133 346Q133 269 158.5 207.5Q184 146 227 103.5Q270 61 326 38Q382 15 443 15ZM443 -63Q347 -63 271 -30.5Q195 2 142.5 58Q90 114 62.5 188Q35 262 35 346Q35 430 65 504Q95 578 149 633.5Q203 689 278 721.5Q353 754 443 754Q537 754 613 722Q689 690 742.5 634.5Q796 579 825 505Q854 431 854 347Q854 263 824.5 188.5Q795 114 741 58Q687 2 611 -30.5Q535 -63 443 -63Z" glyph-name="copyright" horiz-adv-x="889" unicode="&#169;" /><glyph d="M392 347Q392 393 368 423.5Q344 454 295 454Q246 454 222 423.5Q198 393 198 347Q198 301 222 270.5Q246 240 295 240Q344 240 368 270.5Q392 301 392 347ZM507 347Q507 290 479 240L537 182L464 109L406 167Q383 153 355 145.5Q327 138 295 138Q263 138 235 145.5Q207 153 184 167L126 109L53 182L111 240Q83 290 83 347Q83 404 111 454L53 512L126 585L184 527Q207 541 235 548.5Q263 556 295 556Q327 556 355 548.5Q383 541 406 527L464 585L537 512L479 454Q507 404 507 347Z" glyph-name="currency" horiz-adv-x="590" unicode="&#164;" /><glyph d="M294 128Q308 128 322 132.5Q336 137 347 147Q358 157 364.5 172.5Q371 188 371 211V337Q371 358 364 373Q357 388 345.5 397Q334 406 320.5 410Q307 414 294 414Q266 414 243 393.5Q220 373 220 329V208Q220 169 242.5 148.5Q265 128 294 128ZM225 -12Q134 -12 83.5 39.5Q33 91 33 180V356Q33 398 48.5 433Q64 468 91.5 493Q119 518 156 531.5Q193 545 237 545Q273 545 309 530.5Q345 516 368 488H371V713H558V0H374V64H371Q344 28 304 8Q264 -12 225 -12Z" glyph-name="d" horiz-adv-x="609" unicode="d" /><glyph d="M231 440H45V543H231V718H348V543H535V440H348V-116H231Z" glyph-name="dagger" horiz-adv-x="580" unicode="&#8224;" /><glyph d="M231 70H44V173H231V440H44V543H231V718H348V543H535V440H348V173H535V70H348V-116H230Z" glyph-name="daggerdbl" horiz-adv-x="580" unicode="&#8225;" /><glyph d="M613 713H765L713 555H598ZM294 128Q308 128 322 132.5Q336 137 347 147Q358 157 364.5 172.5Q371 188 371 211V337Q371 358 364 373Q357 388 345.5 397Q334 406 320.5 410Q307 414 294 414Q266 414 243 393.5Q220 373 220 329V208Q220 169 242.5 148.5Q265 128 294 128ZM225 -12Q134 -12 83.5 39.5Q33 91 33 180V356Q33 398 48.5 433Q64 468 91.5 493Q119 518 156 531.5Q193 545 237 545Q273 545 309 530.5Q345 516 368 488H371V713H558V0H374V64H371Q344 28 304 8Q264 -12 225 -12Z" glyph-name="dcaron" horiz-adv-x="737" unicode="&#271;" /><glyph d="M294 128Q308 128 322 132.5Q336 137 347 147Q358 157 364.5 172.5Q371 188 371 211V337Q371 358 364 373Q357 388 345.5 397Q334 406 320.5 410Q307 414 294 414Q266 414 243 393.5Q220 373 220 329V208Q220 169 242.5 148.5Q265 128 294 128ZM281 659H371V713H558V659H619V563H558V0H374V64H371Q344 28 304 8Q264 -12 225 -12Q134 -12 83.5 39.5Q33 91 33 180V356Q33 398 48.5 433Q64 468 91.5 493Q119 518 156 531.5Q193 545 237 545Q273 545 309 530.5Q345 516 368 488H371V563H281Z" glyph-name="dcroat" horiz-adv-x="631" unicode="&#273;" /><glyph d="M175 564Q196 564 211 579Q226 594 226 617Q226 638 212.5 655Q199 672 175 672Q153 672 139.5 656Q126 640 126 617Q126 594 140 579Q154 564 175 564ZM175 496Q145 496 121 506Q97 516 80.5 532.5Q64 549 55.5 571Q47 593 47 616Q47 641 56.5 663.5Q66 686 83.5 703Q101 720 124.5 730.5Q148 741 175 741Q205 741 228.5 731Q252 721 268.5 704.5Q285 688 293.5 666Q302 644 302 620Q302 594 292 571.5Q282 549 264.5 532Q247 515 224 505.5Q201 496 175 496Z" glyph-name="degree" horiz-adv-x="349" unicode="&#176;" /><glyph d="M327 747H485V584H327ZM103 747H261V584H103Z" glyph-name="dieresis" horiz-adv-x="588" unicode="&#168;" /><glyph d="M214 593H375V441H214ZM26 370H563V263H26ZM214 185H375V33H214Z" glyph-name="divide" horiz-adv-x="590" unicode="&#247;" /><glyph d="M232 -1Q169 5 115.5 27Q62 49 17 96L121 220Q150 188 197 164Q244 140 297 140Q312 140 328 142.5Q344 145 357 151Q370 157 378 167.5Q386 178 386 193Q386 222 366.5 233.5Q347 245 319 253L203 285Q168 294 139 310.5Q110 327 89 351Q68 375 56 406.5Q44 438 44 478Q44 517 57 552.5Q70 588 94.5 617Q119 646 154 667Q189 688 232 699V787H392V703Q447 695 487.5 675.5Q528 656 566 622L456 503Q444 517 427 527.5Q410 538 391 545.5Q372 553 352.5 556.5Q333 560 315 560Q280 560 255.5 548Q231 536 231 506Q231 480 256 469Q281 458 318 447L416 420Q494 399 536.5 350Q579 301 579 226Q579 178 564 140.5Q549 103 523.5 76Q498 49 464 31Q430 13 392 4V-93H232Z" glyph-name="dollar" horiz-adv-x="605" unicode="$" /><glyph d="M229 -1Q169 6 117.5 28Q66 50 22 96L123 220Q151 188 197 164Q243 140 294 140Q309 140 325 142.5Q341 145 353.5 151Q366 157 374.5 167.5Q383 178 383 193Q383 222 362.5 233.5Q342 245 315 253L201 285Q134 304 91.5 351Q49 398 49 478Q49 517 61.5 552.5Q74 588 97.5 617Q121 646 154 666.5Q187 687 229 698V787H389V702Q441 694 479.5 675Q518 656 555 622L448 503Q424 531 385 545.5Q346 560 312 560Q278 560 253 548Q228 536 228 506Q228 493 235 484Q242 475 253.5 468.5Q265 462 280.5 457Q296 452 314 447L402 423Q568 378 568 226Q568 178 554 141Q540 104 515.5 77Q491 50 458.5 32Q426 14 389 5V-93H229Z" glyph-name="dollar.tf" horiz-adv-x="590" /><glyph d="M202 743H389V589H202Z" glyph-name="dotaccent" horiz-adv-x="588" unicode="&#729;" /><glyph d="M51 532H238V0H51Z" glyph-name="dotlessi" horiz-adv-x="289" unicode="&#305;" /><glyph d="M74 -192Q49 -192 34 -190.5Q19 -189 -1 -186V-52Q4 -53 13.5 -53.5Q23 -54 29 -54Q49 -54 58 -43Q67 -32 67 -12V532H254V-27Q254 -70 239.5 -101Q225 -132 200.5 -152.5Q176 -173 143.5 -182.5Q111 -192 74 -192Z" glyph-name="dotlessj" horiz-adv-x="305" unicode="&#567;" /><glyph d="M365 323V343Q365 378 344.5 396Q324 414 294 414Q264 414 243 395Q222 376 222 341V323ZM301 -13Q250 -13 202 -1Q154 11 116.5 37.5Q79 64 56 105.5Q33 147 33 207V303Q33 366 56 411.5Q79 457 116.5 486.5Q154 516 202 530Q250 544 300 544Q346 544 389.5 530Q433 516 466 488.5Q499 461 519 420Q539 379 539 325V222H222V204Q222 183 232 168Q242 153 257.5 143.5Q273 134 292 129.5Q311 125 329 125Q347 125 369 129Q391 133 412.5 139Q434 145 451.5 151.5Q469 158 478 164L527 52Q480 20 422 3.5Q364 -13 301 -13Z" glyph-name="e" horiz-adv-x="572" unicode="e" /><glyph d="M310 757H485L344 579H222ZM365 323V343Q365 378 344.5 396Q324 414 294 414Q264 414 243 395Q222 376 222 341V323ZM301 -13Q250 -13 202 -1Q154 11 116.5 37.5Q79 64 56 105.5Q33 147 33 207V303Q33 366 56 411.5Q79 457 116.5 486.5Q154 516 202 530Q250 544 300 544Q346 544 389.5 530Q433 516 466 488.5Q499 461 519 420Q539 379 539 325V222H222V204Q222 183 232 168Q242 153 257.5 143.5Q273 134 292 129.5Q311 125 329 125Q347 125 369 129Q391 133 412.5 139Q434 145 451.5 151.5Q469 158 478 164L527 52Q480 20 422 3.5Q364 -13 301 -13Z" glyph-name="eacute" horiz-adv-x="572" unicode="&#233;" /><glyph d="M286 574Q200 574 151.5 621.5Q103 669 100 748H210Q218 713 237 695Q256 677 291 677Q314 677 334.5 694.5Q355 712 363 748H471Q470 704 454 671.5Q438 639 412 617.5Q386 596 353 585Q320 574 286 574ZM365 323V343Q365 378 344.5 396Q324 414 294 414Q264 414 243 395Q222 376 222 341V323ZM301 -13Q250 -13 202 -1Q154 11 116.5 37.5Q79 64 56 105.5Q33 147 33 207V303Q33 366 56 411.5Q79 457 116.5 486.5Q154 516 202 530Q250 544 300 544Q346 544 389.5 530Q433 516 466 488.5Q499 461 519 420Q539 379 539 325V222H222V204Q222 183 232 168Q242 153 257.5 143.5Q273 134 292 129.5Q311 125 329 125Q347 125 369 129Q391 133 412.5 139Q434 145 451.5 151.5Q469 158 478 164L527 52Q480 20 422 3.5Q364 -13 301 -13Z" glyph-name="ebreve" horiz-adv-x="572" unicode="&#277;" /><glyph d="M90 760H236L286 681L342 760H483L351 584H215ZM365 323V343Q365 378 344.5 396Q324 414 294 414Q264 414 243 395Q222 376 222 341V323ZM301 -13Q250 -13 202 -1Q154 11 116.5 37.5Q79 64 56 105.5Q33 147 33 207V303Q33 366 56 411.5Q79 457 116.5 486.5Q154 516 202 530Q250 544 300 544Q346 544 389.5 530Q433 516 466 488.5Q499 461 519 420Q539 379 539 325V222H222V204Q222 183 232 168Q242 153 257.5 143.5Q273 134 292 129.5Q311 125 329 125Q347 125 369 129Q391 133 412.5 139Q434 145 451.5 151.5Q469 158 478 164L527 52Q480 20 422 3.5Q364 -13 301 -13Z" glyph-name="ecaron" horiz-adv-x="572" unicode="&#283;" /><glyph d="M222 762H358L483 580H340L287 666L231 580H90ZM365 323V343Q365 378 344.5 396Q324 414 294 414Q264 414 243 395Q222 376 222 341V323ZM301 -13Q250 -13 202 -1Q154 11 116.5 37.5Q79 64 56 105.5Q33 147 33 207V303Q33 366 56 411.5Q79 457 116.5 486.5Q154 516 202 530Q250 544 300 544Q346 544 389.5 530Q433 516 466 488.5Q499 461 519 420Q539 379 539 325V222H222V204Q222 183 232 168Q242 153 257.5 143.5Q273 134 292 129.5Q311 125 329 125Q347 125 369 129Q391 133 412.5 139Q434 145 451.5 151.5Q469 158 478 164L527 52Q480 20 422 3.5Q364 -13 301 -13Z" glyph-name="ecircumflex" horiz-adv-x="572" unicode="&#234;" /><glyph d="M319 747H477V584H319ZM95 747H253V584H95ZM365 323V343Q365 378 344.5 396Q324 414 294 414Q264 414 243 395Q222 376 222 341V323ZM301 -13Q250 -13 202 -1Q154 11 116.5 37.5Q79 64 56 105.5Q33 147 33 207V303Q33 366 56 411.5Q79 457 116.5 486.5Q154 516 202 530Q250 544 300 544Q346 544 389.5 530Q433 516 466 488.5Q499 461 519 420Q539 379 539 325V222H222V204Q222 183 232 168Q242 153 257.5 143.5Q273 134 292 129.5Q311 125 329 125Q347 125 369 129Q391 133 412.5 139Q434 145 451.5 151.5Q469 158 478 164L527 52Q480 20 422 3.5Q364 -13 301 -13Z" glyph-name="edieresis" horiz-adv-x="572" unicode="&#235;" /><glyph d="M194 743H381V589H194ZM365 323V343Q365 378 344.5 396Q324 414 294 414Q264 414 243 395Q222 376 222 341V323ZM301 -13Q250 -13 202 -1Q154 11 116.5 37.5Q79 64 56 105.5Q33 147 33 207V303Q33 366 56 411.5Q79 457 116.5 486.5Q154 516 202 530Q250 544 300 544Q346 544 389.5 530Q433 516 466 488.5Q499 461 519 420Q539 379 539 325V222H222V204Q222 183 232 168Q242 153 257.5 143.5Q273 134 292 129.5Q311 125 329 125Q347 125 369 129Q391 133 412.5 139Q434 145 451.5 151.5Q469 158 478 164L527 52Q480 20 422 3.5Q364 -13 301 -13Z" glyph-name="edotaccent" horiz-adv-x="572" unicode="&#279;" /><glyph d="M83 757H258L346 579H224ZM365 323V343Q365 378 344.5 396Q324 414 294 414Q264 414 243 395Q222 376 222 341V323ZM301 -13Q250 -13 202 -1Q154 11 116.5 37.5Q79 64 56 105.5Q33 147 33 207V303Q33 366 56 411.5Q79 457 116.5 486.5Q154 516 202 530Q250 544 300 544Q346 544 389.5 530Q433 516 466 488.5Q499 461 519 420Q539 379 539 325V222H222V204Q222 183 232 168Q242 153 257.5 143.5Q273 134 292 129.5Q311 125 329 125Q347 125 369 129Q391 133 412.5 139Q434 145 451.5 151.5Q469 158 478 164L527 52Q480 20 422 3.5Q364 -13 301 -13Z" glyph-name="egrave" horiz-adv-x="572" unicode="&#232;" /><glyph d="M307 423Q341 423 363 439Q385 455 385 485V519Q385 537 378 549Q371 561 360 568.5Q349 576 335 579.5Q321 583 306 583Q277 583 253.5 569Q230 555 230 526V483Q230 452 252.5 437.5Q275 423 307 423ZM307 129Q342 129 363.5 145Q385 161 385 192V226Q385 244 378 256.5Q371 269 360 276.5Q349 284 335 287.5Q321 291 306 291Q277 291 253.5 277.5Q230 264 230 234V191Q230 161 252.5 145Q275 129 307 129ZM307 -12Q249 -12 199 -1.5Q149 9 112.5 32.5Q76 56 55.5 93.5Q35 131 35 185V221Q35 270 60 306Q85 342 120 359Q86 375 66 411Q46 447 46 484V523Q46 572 67 610Q88 648 123.5 673.5Q159 699 206 712Q253 725 305 725Q358 725 405.5 713Q453 701 489 676.5Q525 652 546.5 615Q568 578 568 528V483Q568 441 547 409Q526 377 495 360Q512 352 527.5 338.5Q543 325 554.5 307.5Q566 290 573 269.5Q580 249 580 227V181Q580 134 558.5 98Q537 62 500 37.5Q463 13 413.5 0.5Q364 -12 307 -12Z" glyph-name="eight" horiz-adv-x="615" unicode="8" /><glyph d="M194 233Q211 233 221 241Q231 249 231 265V283Q231 302 219 309.5Q207 317 193 317Q179 317 168 309.5Q157 302 157 288V264Q157 248 167 240.5Q177 233 194 233ZM194 71Q231 71 231 103V122Q231 141 219 148.5Q207 156 193 156Q179 156 168 148.5Q157 141 157 127V102Q157 87 167 79Q177 71 194 71ZM194 -12Q159 -12 129.5 -6Q100 0 78 13Q56 26 43.5 47.5Q31 69 31 99V119Q31 146 45.5 165.5Q60 185 80 196Q61 204 49.5 224.5Q38 245 38 265V287Q38 315 50.5 336Q63 357 84 371.5Q105 386 133 393.5Q161 401 193 401Q225 401 253.5 394Q282 387 303.5 373Q325 359 337.5 338Q350 317 350 289V266Q350 242 337.5 223.5Q325 205 308 196Q328 188 342 167Q356 146 356 123V96Q356 70 343 49.5Q330 29 308 15.5Q286 2 256.5 -5Q227 -12 194 -12Z" glyph-name="eight.dnom" horiz-adv-x="388" /><glyph d="M194 549Q211 549 221 557Q231 565 231 581V599Q231 618 219 625.5Q207 633 193 633Q179 633 168 625.5Q157 618 157 604V580Q157 564 167 556.5Q177 549 194 549ZM194 387Q231 387 231 419V438Q231 457 219 464.5Q207 472 193 472Q179 472 168 464.5Q157 457 157 443V418Q157 403 167 395Q177 387 194 387ZM194 304Q159 304 129.5 310Q100 316 78 329Q56 342 43.5 363.5Q31 385 31 415V435Q31 462 45.5 481.5Q60 501 80 512Q61 520 49.5 540.5Q38 561 38 581V603Q38 631 50.5 652Q63 673 84 687.5Q105 702 133 709.5Q161 717 193 717Q225 717 253.5 710Q282 703 303.5 689Q325 675 337.5 654Q350 633 350 605V582Q350 558 337.5 539.5Q325 521 308 512Q328 504 342 483Q356 462 356 439V412Q356 386 343 365.5Q330 345 308 331.5Q286 318 256.5 311Q227 304 194 304Z" glyph-name="eight.numr" horiz-adv-x="388" /><glyph d="M307 423Q341 423 363 439Q385 455 385 485V519Q385 537 378 549Q371 561 360 568.5Q349 576 335 579.5Q321 583 306 583Q277 583 253.5 569Q230 555 230 526V483Q230 452 252.5 437.5Q275 423 307 423ZM307 129Q342 129 363.5 145Q385 161 385 192V226Q385 244 378 256.5Q371 269 360 276.5Q349 284 335 287.5Q321 291 306 291Q277 291 253.5 277.5Q230 264 230 234V191Q230 161 252.5 145Q275 129 307 129ZM307 -12Q249 -12 199 -1.5Q149 9 112.5 32.5Q76 56 55.5 93.5Q35 131 35 185V221Q35 270 60 306Q85 342 120 359Q86 375 66 411Q46 447 46 484V523Q46 572 67 610Q88 648 123.5 673.5Q159 699 206 712Q253 725 305 725Q358 725 405.5 713Q453 701 489 676.5Q525 652 546.5 615Q568 578 568 528V483Q568 441 547 409Q526 377 495 360Q512 352 527.5 338.5Q543 325 554.5 307.5Q566 290 573 269.5Q580 249 580 227V181Q580 134 558.5 98Q537 62 500 37.5Q463 13 413.5 0.5Q364 -12 307 -12Z" glyph-name="eight.osf" horiz-adv-x="615" /><glyph d="M295 423Q328 423 349.5 439Q371 455 371 485V519Q371 554 347 568.5Q323 583 294 583Q265 583 242 569Q219 555 219 526V483Q219 452 241 437.5Q263 423 295 423ZM295 129Q329 129 350 145Q371 161 371 192V226Q371 244 364.5 256.5Q358 269 347 276.5Q336 284 322 287.5Q308 291 294 291Q265 291 242 277.5Q219 264 219 234V191Q219 161 241 145Q263 129 295 129ZM295 -12Q238 -12 189 -1.5Q140 9 104.5 32.5Q69 56 48.5 93.5Q28 131 28 185V221Q28 270 53 306Q78 342 112 359Q78 375 58.5 411Q39 447 39 484V523Q39 572 59.5 610Q80 648 115 673.5Q150 699 196 712Q242 725 293 725Q345 725 391.5 713Q438 701 473.5 676.5Q509 652 530 615Q551 578 551 528V483Q551 441 530 409Q509 377 479 360Q495 352 510.5 338.5Q526 325 537 307.5Q548 290 555 269.5Q562 249 562 227V181Q562 134 541 98Q520 62 484 37.5Q448 13 399 0.5Q350 -12 295 -12Z" glyph-name="eight.tf" horiz-adv-x="590" /><glyph d="M295 423Q328 423 349.5 439Q371 455 371 485V519Q371 554 347 568.5Q323 583 294 583Q265 583 242 569Q219 555 219 526V483Q219 452 241 437.5Q263 423 295 423ZM295 129Q329 129 350 145Q371 161 371 192V226Q371 244 364.5 256.5Q358 269 347 276.5Q336 284 322 287.5Q308 291 294 291Q265 291 242 277.5Q219 264 219 234V191Q219 161 241 145Q263 129 295 129ZM295 -12Q238 -12 189 -1.5Q140 9 104.5 32.5Q69 56 48.5 93.5Q28 131 28 185V221Q28 270 53 306Q78 342 112 359Q78 375 58.5 411Q39 447 39 484V523Q39 572 59.5 610Q80 648 115 673.5Q150 699 196 712Q242 725 293 725Q345 725 391.5 713Q438 701 473.5 676.5Q509 652 530 615Q551 578 551 528V483Q551 441 530 409Q509 377 479 360Q495 352 510.5 338.5Q526 325 537 307.5Q548 290 555 269.5Q562 249 562 227V181Q562 134 541 98Q520 62 484 37.5Q448 13 399 0.5Q350 -12 295 -12Z" glyph-name="eight.tosf" horiz-adv-x="590" /><glyph d="M564 183H751V0H564ZM311 183H498V0H311ZM58 183H245V0H58Z" glyph-name="ellipsis" horiz-adv-x="808" unicode="&#8230;" /><glyph d="M110 713H463V584H110ZM365 323V343Q365 378 344.5 396Q324 414 294 414Q264 414 243 395Q222 376 222 341V323ZM301 -13Q250 -13 202 -1Q154 11 116.5 37.5Q79 64 56 105.5Q33 147 33 207V303Q33 366 56 411.5Q79 457 116.5 486.5Q154 516 202 530Q250 544 300 544Q346 544 389.5 530Q433 516 466 488.5Q499 461 519 420Q539 379 539 325V222H222V204Q222 183 232 168Q242 153 257.5 143.5Q273 134 292 129.5Q311 125 329 125Q347 125 369 129Q391 133 412.5 139Q434 145 451.5 151.5Q469 158 478 164L527 52Q480 20 422 3.5Q364 -13 301 -13Z" glyph-name="emacron" horiz-adv-x="572" unicode="&#275;" /><glyph d="M0 376H1000V264H0Z" glyph-name="emdash" horiz-adv-x="1000" unicode="&#8212;" /><glyph d="M0 438H1000V326H0Z" glyph-name="emdash.case" horiz-adv-x="1000" /><glyph d="M0 376H500V264H0Z" glyph-name="endash" horiz-adv-x="500" unicode="&#8211;" /><glyph d="M0 438H500V326H0Z" glyph-name="endash.case" horiz-adv-x="500" /><glyph d="M392 -192Q367 -192 352 -190.5Q337 -189 317 -186V-52Q322 -53 331.5 -53.5Q341 -54 347 -54Q367 -54 376 -43Q385 -32 385 -12V312Q385 328 382 343.5Q379 359 371 372Q363 385 348.5 393Q334 401 312 401Q281 401 259.5 376.5Q238 352 238 301V0H51V532H234V465H236Q268 507 309.5 526Q351 545 403 545Q434 545 464.5 535.5Q495 526 519 506.5Q543 487 557.5 455.5Q572 424 572 381V-27Q572 -70 557.5 -101Q543 -132 518.5 -152.5Q494 -173 461.5 -182.5Q429 -192 392 -192Z" glyph-name="eng" horiz-adv-x="617" unicode="&#331;" /><glyph d="M365 323V343Q365 378 344.5 396Q324 414 294 414Q264 414 243 395Q222 376 222 341V323ZM361 -225Q296 -225 265 -197.5Q234 -170 234 -127Q234 -93 250 -64.5Q266 -36 293 -13Q243 -12 196.5 0.5Q150 13 113.5 39.5Q77 66 55 107Q33 148 33 207V303Q33 366 56 411.5Q79 457 116.5 486.5Q154 516 202 530Q250 544 300 544Q346 544 389.5 530Q433 516 466 488.5Q499 461 519 420Q539 379 539 325V222H222V204Q222 183 232 168Q242 153 257.5 143.5Q273 134 292 129.5Q311 125 329 125Q347 125 369 129Q391 133 412.5 139Q434 145 451.5 151.5Q469 158 478 164L527 52Q492 28 455 14Q412 -3 383 -27.5Q354 -52 354 -79Q354 -97 364.5 -107Q375 -117 399 -117Q410 -117 427.5 -112Q445 -107 461 -97L501 -190Q473 -204 438.5 -214.5Q404 -225 361 -225Z" glyph-name="eogonek" horiz-adv-x="572" unicode="&#281;" /><glyph d="M16 474H573V366H16ZM16 255H573V147H16Z" glyph-name="equal" horiz-adv-x="590" unicode="=" /><glyph d="M14 272H305V204H14ZM14 157H305V88H14Z" glyph-name="equal.dnom" horiz-adv-x="320" /><glyph d="M14 588H305V520H14ZM14 473H305V404H14Z" glyph-name="equal.numr" horiz-adv-x="320" /><glyph d="M294 124Q329 124 347 145Q365 166 365 200V304Q365 338 345.5 360.5Q326 383 293 383Q258 383 240 360Q222 337 222 301V199Q222 164 239 144Q256 124 294 124ZM293 -12Q245 -12 198.5 -1.5Q152 9 115.5 34.5Q79 60 56 101.5Q33 143 33 205V290Q33 384 83 442.5Q133 501 223 511Q225 511 229.5 511.5Q234 512 236 512L210 548L107 521L72 601L154 624L88 713H307L333 673L422 696L457 616L389 596L509 429Q528 404 541 369.5Q554 335 554 293V208Q554 148 530.5 106Q507 64 469.5 38Q432 12 385.5 0Q339 -12 293 -12Z" glyph-name="eth" horiz-adv-x="587" unicode="&#240;" /><glyph d="M60 465V713H255V465L212 233H103ZM64 183H251V0H64Z" glyph-name="exclam" horiz-adv-x="315" unicode="!" /><glyph d="M64 532H251V349H64ZM60 67 103 298H212L255 67V-182H60Z" glyph-name="exclamdown" horiz-adv-x="315" unicode="&#161;" /><glyph d="M64 714H251V531H64ZM60 249 103 480H212L255 249V0H60Z" glyph-name="exclamdown.case" horiz-adv-x="315" /><glyph d="M86 392H20V523H86V574Q86 617 101 647Q116 677 141 695.5Q166 714 197.5 722Q229 730 262 730Q285 730 313 728.5Q341 727 365 719V594Q354 596 338.5 597Q323 598 311 598Q294 598 283.5 589Q273 580 273 562V523H368V392H273V0H86Z" glyph-name="f" horiz-adv-x="387" unicode="f" /><glyph d="M408 727H595V584H408ZM86 392H20V532H86V574Q86 617 101 647Q116 677 141 695.5Q166 714 197.5 722Q229 730 262 730Q285 730 313 728.5Q341 727 365 719V590Q354 592 338.5 593Q323 594 311 594Q294 594 283 585Q272 576 272 558V532H595V0H408V392H272V0H86Z" glyph-name="f_i" horiz-adv-x="646" /><glyph d="M594 -11Q515 -11 474.5 29.5Q434 70 434 133V713H621V182Q621 165 628 154.5Q635 144 661 144Q669 144 680.5 145Q692 146 704 148V7Q680 -1 651.5 -6Q623 -11 594 -11ZM86 392H20V523H86V574Q86 617 101 647Q116 677 141 695.5Q166 714 197.5 722Q229 730 262 730Q285 730 313 728.5Q341 727 365 719V594Q354 596 338.5 597Q323 598 311 598Q294 598 283.5 589Q273 580 273 562V523H368V392H273V0H86Z" glyph-name="f_l" horiz-adv-x="724" /><glyph d="M408 727H595V584H408ZM86 392H20V532H86V574Q86 617 101 647Q116 677 141 695.5Q166 714 197.5 722Q229 730 262 730Q285 730 313 728.5Q341 727 365 719V590Q354 592 338.5 593Q323 594 311 594Q294 594 283 585Q272 576 272 558V532H595V0H408V392H272V0H86Z" glyph-name="fi" horiz-adv-x="646" unicode="&#64257;" /><glyph d="M300 -12Q245 -12 198 0Q151 12 116.5 35.5Q82 59 62.5 92.5Q43 126 43 169V217H226V200Q226 174 245 157Q264 140 304 140Q378 140 378 219V267Q378 299 356 317Q334 335 301 335Q276 335 259 324.5Q242 314 230 301L61 321L80 713H525V554H231L226 423Q261 446 299 455Q337 464 377 464Q410 464 444 455Q478 446 506 425Q534 404 552 371Q570 338 570 290V203Q570 149 547 109Q524 69 486.5 42Q449 15 400 1.5Q351 -12 300 -12Z" glyph-name="five" horiz-adv-x="603" unicode="5" /><glyph d="M190 -12Q157 -12 129 -5.5Q101 1 80.5 14Q60 27 48 46.5Q36 66 36 91V119H154V111Q154 97 161.5 87.5Q169 78 192 78Q214 78 222 90Q230 102 230 118V141Q230 158 220 169Q210 180 190 180Q179 180 172 175Q165 170 157 162L47 173L57 393H324V294H152L150 231Q169 244 190.5 249.5Q212 255 238 255Q258 255 278 250Q298 245 314.5 233Q331 221 341.5 202.5Q352 184 352 157V107Q352 77 338 55Q324 33 301.5 18Q279 3 249.5 -4.5Q220 -12 190 -12Z" glyph-name="five.dnom" horiz-adv-x="388" /><glyph d="M195 304Q162 304 134 310.5Q106 317 85.5 330Q65 343 53 362.5Q41 382 41 407V435H159V427Q159 413 166.5 403.5Q174 394 197 394Q219 394 227 406Q235 418 235 434V457Q235 474 225 485Q215 496 195 496Q184 496 177 491Q170 486 162 478L52 489L62 709H329V610H157L155 547Q174 560 195.5 565.5Q217 571 243 571Q263 571 283 566Q303 561 319.5 549Q336 537 346.5 518.5Q357 500 357 473V423Q357 393 343 371Q329 349 306.5 334Q284 319 254.5 311.5Q225 304 195 304Z" glyph-name="five.numr" horiz-adv-x="388" /><glyph d="M300 -187Q245 -187 198 -175Q151 -163 116.5 -139.5Q82 -116 62.5 -82.5Q43 -49 43 -6V42H226V25Q226 -1 245 -18Q264 -35 304 -35Q378 -35 378 44V92Q378 124 356 142Q334 160 301 160Q276 160 259 149.5Q242 139 230 126L61 146L80 538H525V379H231L226 248Q261 271 299 280Q337 289 377 289Q410 289 444 280Q478 271 506 250Q534 229 552 196Q570 163 570 115V28Q570 -26 547 -66Q524 -106 486.5 -133Q449 -160 400 -173.5Q351 -187 300 -187Z" glyph-name="five.osf" horiz-adv-x="603" /><glyph d="M289 -12Q235 -12 189 0Q143 12 109 35.5Q75 59 56 92.5Q37 126 37 169V217H216V200Q216 174 235 157Q254 140 293 140Q365 140 365 219V267Q365 299 343.5 317Q322 335 290 335Q266 335 249 324.5Q232 314 220 301L55 321L73 713H509V554H221L216 423Q251 446 288.5 455Q326 464 364 464Q396 464 430 455Q464 446 491.5 425Q519 404 536.5 371Q554 338 554 290V203Q554 149 531.5 109Q509 69 472 42Q435 15 387 1.5Q339 -12 289 -12Z" glyph-name="five.tf" horiz-adv-x="590" /><glyph d="M289 -187Q235 -187 189 -175Q143 -163 109 -139.5Q75 -116 56 -82.5Q37 -49 37 -6V42H216V25Q216 -1 235 -18Q254 -35 293 -35Q365 -35 365 44V92Q365 124 343.5 142Q322 160 290 160Q266 160 249 149.5Q232 139 220 126L55 146L73 538H509V379H221L216 248Q251 271 288.5 280Q326 289 364 289Q396 289 430 280Q464 271 491.5 250Q519 229 536.5 196Q554 163 554 115V28Q554 -26 531.5 -66Q509 -106 472 -133Q435 -160 387 -173.5Q339 -187 289 -187Z" glyph-name="five.tosf" horiz-adv-x="590" /><glyph d="M566 717H669L271 -2H168ZM194 306Q161 306 133 312.5Q105 319 84.5 332Q64 345 52 364.5Q40 384 40 409V437H158V429Q158 415 165.5 405.5Q173 396 196 396Q218 396 226 408Q234 420 234 436V459Q234 476 224 487Q214 498 194 498Q183 498 176 493Q169 488 161 480L51 491L61 711H328V612H156L154 549Q173 562 194.5 567.5Q216 573 242 573Q262 573 282 568Q302 563 318.5 551Q335 539 345.5 520.5Q356 502 356 475V425Q356 395 342 373Q328 351 305.5 336Q283 321 253.5 313.5Q224 306 194 306ZM669 233Q686 233 696 241Q706 249 706 265V283Q706 302 694 309.5Q682 317 668 317Q654 317 643 309.5Q632 302 632 288V264Q632 248 642 240.5Q652 233 669 233ZM669 71Q706 71 706 103V122Q706 141 694 148.5Q682 156 668 156Q654 156 643 148.5Q632 141 632 127V102Q632 87 642 79Q652 71 669 71ZM669 -12Q634 -12 604.5 -6Q575 0 553 13Q531 26 518.5 47.5Q506 69 506 99V119Q506 146 520.5 165.5Q535 185 555 196Q536 204 524.5 224.5Q513 245 513 265V287Q513 315 525.5 336Q538 357 559 371.5Q580 386 608 393.5Q636 401 668 401Q700 401 728.5 394Q757 387 778.5 373Q800 359 812.5 338Q825 317 825 289V266Q825 242 812.5 223.5Q800 205 783 196Q803 188 817 167Q831 146 831 123V96Q831 70 818 49.5Q805 29 783 15.5Q761 2 731.5 -5Q702 -12 669 -12Z" glyph-name="fiveeighths" horiz-adv-x="876" unicode="&#8541;" /><glyph d="M594 -11Q515 -11 474.5 29.5Q434 70 434 133V713H621V182Q621 165 628 154.5Q635 144 661 144Q669 144 680.5 145Q692 146 704 148V7Q680 -1 651.5 -6Q623 -11 594 -11ZM86 392H20V523H86V574Q86 617 101 647Q116 677 141 695.5Q166 714 197.5 722Q229 730 262 730Q285 730 313 728.5Q341 727 365 719V594Q354 596 338.5 597Q323 598 311 598Q294 598 283.5 589Q273 580 273 562V523H368V392H273V0H86Z" glyph-name="fl" horiz-adv-x="724" unicode="&#64258;" /><glyph d="M88 -192Q63 -192 41 -189Q19 -186 3 -182L14 -51Q19 -52 27 -53Q35 -54 41 -54Q61 -54 69 -43Q77 -32 79 -13L121 376H34L46 500H132L140 574Q144 617 162.5 647Q181 677 207.5 695.5Q234 714 266.5 722Q299 730 332 730Q355 730 381 727.5Q407 725 433 716L420 587Q409 589 393.5 590Q378 591 366 591Q349 591 337 582Q325 573 323 555L318 500H413L402 376H306L265 -27Q256 -112 209 -152Q162 -192 88 -192Z" glyph-name="florin" horiz-adv-x="434" unicode="&#402;" /><glyph d="M165 -192Q140 -192 118 -189Q96 -186 80 -182L91 -51Q96 -52 104 -53Q112 -54 118 -54Q138 -54 146 -43Q154 -32 156 -13L198 376H111L123 500H209L217 574Q221 617 239.5 647Q258 677 284.5 695.5Q311 714 343.5 722Q376 730 409 730Q432 730 458 727.5Q484 725 510 716L497 587Q486 589 470.5 590Q455 591 443 591Q426 591 414 582Q402 573 400 555L395 500H490L479 376H383L342 -27Q333 -112 286 -152Q239 -192 165 -192Z" glyph-name="florin.tf" horiz-adv-x="590" /><glyph d="M342 143H34V285L295 713H511L234 293H342V368L528 495V293H597V143H528V0H342Z" glyph-name="four" horiz-adv-x="623" unicode="4" /><glyph d="M208 77H28V160L179 399H312L150 165H208V204L322 280V165H360V77H322V0H208Z" glyph-name="four.dnom" horiz-adv-x="388" /><glyph d="M208 393H28V476L179 715H312L150 481H208V520L322 596V481H360V393H322V316H208Z" glyph-name="four.numr" horiz-adv-x="388" /><glyph d="M342 -28H34V114L295 535H511L234 122H342V197L528 317V122H597V-28H528V-178H342Z" glyph-name="four.osf" horiz-adv-x="623" /><glyph d="M321 143H19V285L275 713H487L215 293H321V368L503 495V293H571V143H503V0H321Z" glyph-name="four.tf" horiz-adv-x="590" /><glyph d="M321 -28H19V114L275 535H487L215 122H321V197L503 317V122H571V-28H503V-178H321Z" glyph-name="four.tosf" horiz-adv-x="590" /><glyph d="M210 717H313L-85 -2H-188Z" glyph-name="fraction" horiz-adv-x="126" unicode="&#8260;" /><glyph d="M300 165Q328 165 351 183Q374 201 374 246V332Q374 353 366.5 367.5Q359 382 347.5 391Q336 400 322.5 404Q309 408 296 408Q268 408 246.5 388.5Q225 369 225 324V242Q225 204 246.5 184.5Q268 165 300 165ZM279 -197Q213 -194 155 -180.5Q97 -167 46 -134L119 -16Q154 -36 193.5 -46Q233 -56 271 -56Q325 -56 349.5 -28.5Q374 -1 374 44V91H372Q341 55 307.5 41.5Q274 28 232 28Q138 28 88 78.5Q38 129 38 218V351Q38 393 54 429Q70 465 98 490.5Q126 516 163.5 530.5Q201 545 245 545Q281 545 318 529Q355 513 378 486H380V532H561V57Q561 -5 540.5 -52Q520 -99 483 -131Q446 -163 394 -179.5Q342 -196 279 -197Z" glyph-name="g" horiz-adv-x="612" unicode="g" /><glyph d="M305 574Q219 574 170.5 621.5Q122 669 119 748H229Q237 713 256 695Q275 677 310 677Q333 677 353.5 694.5Q374 712 382 748H490Q489 704 473 671.5Q457 639 431 617.5Q405 596 372 585Q339 574 305 574ZM300 165Q328 165 351 183Q374 201 374 246V332Q374 353 366.5 367.5Q359 382 347.5 391Q336 400 322.5 404Q309 408 296 408Q268 408 246.5 388.5Q225 369 225 324V242Q225 204 246.5 184.5Q268 165 300 165ZM279 -197Q213 -194 155 -180.5Q97 -167 46 -134L119 -16Q154 -36 193.5 -46Q233 -56 271 -56Q325 -56 349.5 -28.5Q374 -1 374 44V91H372Q341 55 307.5 41.5Q274 28 232 28Q138 28 88 78.5Q38 129 38 218V351Q38 393 54 429Q70 465 98 490.5Q126 516 163.5 530.5Q201 545 245 545Q281 545 318 529Q355 513 378 486H380V532H561V57Q561 -5 540.5 -52Q520 -99 483 -131Q446 -163 394 -179.5Q342 -196 279 -197Z" glyph-name="gbreve" horiz-adv-x="612" unicode="&#287;" /><glyph d="M241 762H377L502 580H359L306 666L250 580H109ZM300 165Q328 165 351 183Q374 201 374 246V332Q374 353 366.5 367.5Q359 382 347.5 391Q336 400 322.5 404Q309 408 296 408Q268 408 246.5 388.5Q225 369 225 324V242Q225 204 246.5 184.5Q268 165 300 165ZM279 -197Q213 -194 155 -180.5Q97 -167 46 -134L119 -16Q154 -36 193.5 -46Q233 -56 271 -56Q325 -56 349.5 -28.5Q374 -1 374 44V91H372Q341 55 307.5 41.5Q274 28 232 28Q138 28 88 78.5Q38 129 38 218V351Q38 393 54 429Q70 465 98 490.5Q126 516 163.5 530.5Q201 545 245 545Q281 545 318 529Q355 513 378 486H380V532H561V57Q561 -5 540.5 -52Q520 -99 483 -131Q446 -163 394 -179.5Q342 -196 279 -197Z" glyph-name="gcircumflex" horiz-adv-x="612" unicode="&#285;" /><glyph d="M274 783H389L374 588H222ZM300 165Q328 165 351 183Q374 201 374 246V332Q374 353 366.5 367.5Q359 382 347.5 391Q336 400 322.5 404Q309 408 296 408Q268 408 246.5 388.5Q225 369 225 324V242Q225 204 246.5 184.5Q268 165 300 165ZM279 -197Q213 -194 155 -180.5Q97 -167 46 -134L119 -16Q154 -36 193.5 -46Q233 -56 271 -56Q325 -56 349.5 -28.5Q374 -1 374 44V91H372Q341 55 307.5 41.5Q274 28 232 28Q138 28 88 78.5Q38 129 38 218V351Q38 393 54 429Q70 465 98 490.5Q126 516 163.5 530.5Q201 545 245 545Q281 545 318 529Q355 513 378 486H380V532H561V57Q561 -5 540.5 -52Q520 -99 483 -131Q446 -163 394 -179.5Q342 -196 279 -197Z" glyph-name="gcommaaccent" horiz-adv-x="612" unicode="&#291;" /><glyph d="M214 743H401V589H214ZM300 165Q328 165 351 183Q374 201 374 246V332Q374 353 366.5 367.5Q359 382 347.5 391Q336 400 322.5 404Q309 408 296 408Q268 408 246.5 388.5Q225 369 225 324V242Q225 204 246.5 184.5Q268 165 300 165ZM279 -197Q213 -194 155 -180.5Q97 -167 46 -134L119 -16Q154 -36 193.5 -46Q233 -56 271 -56Q325 -56 349.5 -28.5Q374 -1 374 44V91H372Q341 55 307.5 41.5Q274 28 232 28Q138 28 88 78.5Q38 129 38 218V351Q38 393 54 429Q70 465 98 490.5Q126 516 163.5 530.5Q201 545 245 545Q281 545 318 529Q355 513 378 486H380V532H561V57Q561 -5 540.5 -52Q520 -99 483 -131Q446 -163 394 -179.5Q342 -196 279 -197Z" glyph-name="gdotaccent" horiz-adv-x="612" unicode="&#289;" /><glyph d="M453 -12Q420 -12 384 -8Q348 -4 323 5L336 147Q349 144 364.5 141.5Q380 139 392 139Q432 139 452 157.5Q472 176 472 209Q472 248 438.5 268Q405 288 347 288V420H371Q400 432 418 461Q436 490 436 522Q436 597 359 597Q317 597 295 571.5Q273 546 273 508V0H84V392H20V523H84V529Q84 559 98.5 594.5Q113 630 146 661Q179 692 232.5 712.5Q286 733 364 733Q419 733 467 720Q515 707 550 681.5Q585 656 605.5 618.5Q626 581 626 532Q626 484 600.5 444.5Q575 405 524 390V385Q595 361 633.5 310.5Q672 260 672 196Q672 147 654 108.5Q636 70 605.5 43Q575 16 535.5 2Q496 -12 453 -12Z" glyph-name="germandbls" horiz-adv-x="698" unicode="&#223;" /><glyph d="M162 757H337L425 579H303Z" glyph-name="grave" horiz-adv-x="588" unicode="`" /><glyph d="M-335 757H-160L-72 579H-194Z" glyph-name="gravecomb" horiz-adv-x="1" unicode="&#768;" /><glyph d="M-317 942H-142L-53 756H-175Z" glyph-name="gravecomb.case" horiz-adv-x="1" /><glyph d="M42 155 385 318 45 480 93 579 547 359V276L91 56Z" glyph-name="greater" horiz-adv-x="590" unicode="&gt;" /><glyph d="M35 273 385 422 37 569 86 668 547 463V379L84 175ZM18 108H571V0H18Z" glyph-name="greaterequal" horiz-adv-x="590" unicode="&#8805;" /><glyph d="M311 260 538 475 621 402 498 260 623 118 539 47ZM27 260 254 475 337 402 214 260 339 118 254 47Z" glyph-name="guillemotleft" horiz-adv-x="647" unicode="&#171;" /><glyph d="M311 322 538 537 621 464 498 322 623 180 539 109ZM27 322 254 537 337 464 214 322 339 180 254 109Z" glyph-name="guillemotleft.case" horiz-adv-x="647" /><glyph d="M308 118 433 261 310 402 392 475 620 261 392 47ZM24 118 148 261 25 402 108 475 336 261 108 47Z" glyph-name="guillemotright" horiz-adv-x="647" unicode="&#187;" /><glyph d="M308 180 433 323 310 464 392 537 620 323 392 109ZM24 180 148 323 25 464 108 537 336 323 108 109Z" glyph-name="guillemotright.case" horiz-adv-x="647" /><glyph d="M27 260 254 475 337 402 214 260 339 118 254 47Z" glyph-name="guilsinglleft" horiz-adv-x="363" unicode="&#8249;" /><glyph d="M27 322 254 537 337 464 214 322 339 180 254 109Z" glyph-name="guilsinglleft.case" horiz-adv-x="363" /><glyph d="M24 118 148 261 25 402 108 475 336 261 108 47Z" glyph-name="guilsinglright" horiz-adv-x="363" unicode="&#8250;" /><glyph d="M24 180 148 323 25 464 108 537 336 323 108 109Z" glyph-name="guilsinglright.case" horiz-adv-x="363" /><glyph d="M51 713H237V460H239Q270 505 311 525Q352 545 403 545Q434 545 464.5 535.5Q495 526 519 506.5Q543 487 557.5 455.5Q572 424 572 381V0H385V312Q385 328 382 343.5Q379 359 371 372Q363 385 348.5 393Q334 401 312 401Q281 401 259 376.5Q237 352 237 301V0H51Z" glyph-name="h" horiz-adv-x="617" unicode="h" /><glyph d="M12 658H73V713H259V658H353V563H259V460H261Q292 505 333 525Q374 545 425 545Q456 545 486.5 535.5Q517 526 541 506.5Q565 487 579.5 455.5Q594 424 594 381V0H407V312Q407 328 404 343.5Q401 359 393 372Q385 385 370.5 393Q356 401 334 401Q303 401 281 376.5Q259 352 259 301V0H73V563H12Z" glyph-name="hbar" horiz-adv-x="639" unicode="&#295;" /><glyph d="M79 942H215L340 756H197L144 845L88 756H-53ZM51 713H237V460H239Q270 505 311 525Q352 545 403 545Q434 545 464.5 535.5Q495 526 519 506.5Q543 487 557.5 455.5Q572 424 572 381V0H385V312Q385 328 382 343.5Q379 359 371 372Q363 385 348.5 393Q334 401 312 401Q281 401 259 376.5Q237 352 237 301V0H51Z" glyph-name="hcircumflex" horiz-adv-x="617" unicode="&#293;" /><glyph d="M397 757H557L436 580H324ZM190 757H351L230 580H118Z" glyph-name="hungarumlaut" horiz-adv-x="588" unicode="&#733;" /><glyph d="M30 375H333V226H30Z" glyph-name="hyphen" horiz-adv-x="362" unicode="-" /><glyph d="M30 437H333V288H30Z" glyph-name="hyphen.case" horiz-adv-x="362" /><glyph d="M51 743H238V589H51ZM51 532H238V0H51Z" glyph-name="i" horiz-adv-x="289" unicode="i" /><glyph d="M51 743H238V589H51ZM51 532H238V0H51Z" glyph-name="i.latn_TRK" horiz-adv-x="289" /><glyph d="M168 757H343L202 579H80ZM51 532H238V0H51Z" glyph-name="iacute" horiz-adv-x="289" unicode="&#237;" /><glyph d="M144 574Q58 574 9.5 621.5Q-39 669 -42 748H68Q76 713 95 695Q114 677 149 677Q172 677 192.5 694.5Q213 712 221 748H329Q328 704 312 671.5Q296 639 270 617.5Q244 596 211 585Q178 574 144 574ZM51 532H238V0H51Z" glyph-name="ibreve" horiz-adv-x="289" unicode="&#301;" /><glyph d="M80 762H216L341 580H198L145 666L89 580H-52ZM51 532H238V0H51Z" glyph-name="icircumflex" horiz-adv-x="289" unicode="&#238;" /><glyph d="M177 747H335V584H177ZM-47 747H111V584H-47ZM51 532H238V0H51Z" glyph-name="idieresis" horiz-adv-x="289" unicode="&#239;" /><glyph d="M-59 757H116L204 579H82ZM51 532H238V0H51Z" glyph-name="igrave" horiz-adv-x="289" unicode="&#236;" /><glyph d="M307 743H495V589H307ZM314 -192Q289 -192 274 -190.5Q259 -189 239 -186V-52Q244 -53 253.5 -53.5Q263 -54 269 -54Q289 -54 298 -43Q307 -32 307 -12V532H494V-27Q494 -70 479.5 -101Q465 -132 440.5 -152.5Q416 -173 383.5 -182.5Q351 -192 314 -192ZM51 743H238V589H51ZM51 532H238V0H51Z" glyph-name="ij" horiz-adv-x="545" unicode="&#307;" /><glyph d="M-32 713H321V584H-32ZM51 532H238V0H51Z" glyph-name="imacron" horiz-adv-x="289" unicode="&#299;" /><glyph d="M601 242Q639 242 663.5 265Q688 288 688 322Q688 355 670.5 377Q653 399 612 399Q580 399 548 374Q516 349 485 318Q508 288 534.5 265Q561 242 601 242ZM229 246Q264 246 297 270.5Q330 295 359 327Q349 340 336 354Q323 368 307.5 379.5Q292 391 274.5 398Q257 405 239 405Q204 405 180 383Q156 361 156 331Q156 296 176.5 271Q197 246 229 246ZM234 148Q191 148 156.5 161.5Q122 175 98 198.5Q74 222 61 253.5Q48 285 48 321Q48 360 62.5 393Q77 426 102.5 450Q128 474 162.5 487.5Q197 501 237 501Q296 501 343.5 474.5Q391 448 427 406Q443 422 462 437.5Q481 453 503.5 465.5Q526 478 552.5 486Q579 494 610 494Q695 494 745.5 451.5Q796 409 796 330Q796 289 781.5 255Q767 221 741.5 196Q716 171 680.5 157Q645 143 603 143Q538 143 493 171.5Q448 200 417 237Q380 201 335.5 174.5Q291 148 234 148Z" glyph-name="infinity" horiz-adv-x="844" unicode="&#8734;" /><glyph d="M96 -187Q73 -187 43.5 -184Q14 -181 -14 -172L1 -51Q13 -53 27 -54Q41 -55 55 -55Q89 -55 94 -18L149 569Q153 606 168 636Q183 666 205.5 687Q228 708 257 719Q286 730 319 730Q342 730 372.5 727Q403 724 430 715L416 591Q404 593 388.5 596Q373 599 358 599Q341 599 331 589Q321 579 319 562L266 -25Q258 -103 211 -145Q164 -187 96 -187Z" glyph-name="integral" horiz-adv-x="436" unicode="&#8747;" /><glyph d="M51 743H238V589H51ZM139 -225Q76 -225 46.5 -197.5Q17 -170 17 -127Q17 -101 26 -78.5Q35 -56 51 -36V532H238V0Q179 -19 155.5 -38.5Q132 -58 132 -79Q132 -117 175 -117Q186 -117 203 -112Q220 -107 235 -97L273 -190Q247 -204 213.5 -214.5Q180 -225 139 -225Z" glyph-name="iogonek" horiz-adv-x="289" unicode="&#303;" /><glyph d="M-86 592Q-81 622 -69.5 649.5Q-58 677 -40 697Q-22 717 2.5 729Q27 741 58 741Q81 741 103.5 735.5Q126 730 148 723.5Q170 717 192.5 711.5Q215 706 238 706Q259 706 267 721Q275 736 281 759L375 735Q371 706 361 679.5Q351 653 334.5 633Q318 613 294 600.5Q270 588 238 588Q215 588 192 593Q169 598 147.5 604.5Q126 611 105 616Q84 621 64 621Q42 621 32.5 610Q23 599 14 571ZM51 532H238V0H51Z" glyph-name="itilde" horiz-adv-x="289" unicode="&#297;" /><glyph d="M67 743H255V589H67ZM74 -192Q49 -192 34 -190.5Q19 -189 -1 -186V-52Q4 -53 13.5 -53.5Q23 -54 29 -54Q49 -54 58 -43Q67 -32 67 -12V532H254V-27Q254 -70 239.5 -101Q225 -132 200.5 -152.5Q176 -173 143.5 -182.5Q111 -192 74 -192Z" glyph-name="j" horiz-adv-x="305" unicode="j" /><glyph d="M100 762H236L361 580H218L165 666L109 580H-32ZM74 -192Q49 -192 34 -190.5Q19 -189 -1 -186V-52Q4 -53 13.5 -53.5Q23 -54 29 -54Q49 -54 58 -43Q67 -32 67 -12V532H254V-27Q254 -70 239.5 -101Q225 -132 200.5 -152.5Q176 -173 143.5 -182.5Q111 -192 74 -192Z" glyph-name="jcircumflex" horiz-adv-x="305" unicode="&#309;" /><glyph d="M51 713H238V329L388 532H577L433 342L576 0H375L288 220L238 159V0H51Z" glyph-name="k" horiz-adv-x="587" unicode="k" /><glyph d="M226 -33H388L348 -197H214ZM51 713H238V329L388 532H577L433 342L576 0H375L288 220L238 159V0H51Z" glyph-name="kcommaaccent" horiz-adv-x="587" unicode="&#311;" /><glyph d="M51 532H238V329L388 532H577L433 342L576 0H375L288 220L238 159V0H51Z" glyph-name="kgreenlandic" horiz-adv-x="587" unicode="&#312;" /><glyph d="M207 -11Q128 -11 87.5 29.5Q47 70 47 133V713H234V182Q234 165 241 154.5Q248 144 274 144Q282 144 293.5 145Q305 146 317 148V7Q293 -1 264.5 -6Q236 -11 207 -11Z" glyph-name="l" horiz-adv-x="337" unicode="l" /><glyph d="M167 942H342L200 756H78ZM207 -11Q128 -11 87.5 29.5Q47 70 47 133V713H234V182Q234 165 241 154.5Q248 144 274 144Q282 144 293.5 145Q305 146 317 148V7Q293 -1 264.5 -6Q236 -11 207 -11Z" glyph-name="lacute" horiz-adv-x="337" unicode="&#314;" /><glyph d="M289 713H441L389 555H274ZM207 -11Q128 -11 87.5 29.5Q47 70 47 133V713H234V182Q234 165 241 154.5Q248 144 274 144Q282 144 293.5 145Q305 146 317 148V7Q293 -1 264.5 -6Q236 -11 207 -11Z" glyph-name="lcaron" horiz-adv-x="413" unicode="&#318;" /><glyph d="M112 -33H274L234 -197H100ZM207 -11Q128 -11 87.5 29.5Q47 70 47 133V713H234V182Q234 165 241 154.5Q248 144 274 144Q282 144 293.5 145Q305 146 317 148V7Q293 -1 264.5 -6Q236 -11 207 -11Z" glyph-name="lcommaaccent" horiz-adv-x="337" unicode="&#316;" /><glyph d="M256 486H443V332H256ZM207 -11Q128 -11 87.5 29.5Q47 70 47 133V713H234V182Q234 165 241 154.5Q248 144 274 144Q282 144 293.5 145Q305 146 317 148V7Q293 -1 264.5 -6Q236 -11 207 -11Z" glyph-name="ldot" horiz-adv-x="412" unicode="&#320;" /><glyph d="M42 276V359L496 579L545 480L204 318L547 155L498 56Z" glyph-name="less" horiz-adv-x="590" unicode="&lt;" /><glyph d="M42 379V463L504 668L552 569L204 422L555 273L505 175ZM18 108H571V0H18Z" glyph-name="lessequal" horiz-adv-x="590" unicode="&#8804;" /><glyph d="M433 260H32V371H557V115H433Z" glyph-name="logicalnot" horiz-adv-x="590" unicode="&#172;" /><glyph d="M86 392H20V523H86V574Q86 617 101 647Q116 677 141 695.5Q166 714 197.5 722Q229 730 262 730Q285 730 313 728.5Q341 727 365 719V594Q354 596 338.5 597Q323 598 311 598Q294 598 283.5 589Q273 580 273 562V0H86Z" glyph-name="longs" horiz-adv-x="380" unicode="&#383;" /><glyph d="M431 340 295 567 168 352 305 133ZM25 339V352L248 714H352L573 352V339L352 0H248Z" glyph-name="lozenge" horiz-adv-x="598" unicode="&#9674;" /><glyph d="M15 352 61 380V713H248V493L315 534V412L248 371V182Q248 165 255 154.5Q262 144 288 144Q295 144 307 145Q319 146 331 148V7Q307 -1 278.5 -6Q250 -11 221 -11Q142 -11 101.5 29.5Q61 70 61 133V258L15 230Z" glyph-name="lslash" horiz-adv-x="352" unicode="&#322;" /><glyph d="M51 532H233V461H235Q266 505 307.5 525Q349 545 402 545Q448 545 491.5 526Q535 507 556 460H558Q589 504 633.5 524.5Q678 545 732 545Q761 545 791 536.5Q821 528 845.5 508.5Q870 489 885.5 458.5Q901 428 901 385V0H715V312Q715 327 712 343Q709 359 701 371.5Q693 384 679 392.5Q665 401 642 401Q611 401 590 375.5Q569 350 569 303V0H383V312Q383 327 380.5 342.5Q378 358 370 371Q362 384 348 392.5Q334 401 310 401Q297 401 284 395.5Q271 390 260.5 378Q250 366 243.5 348Q237 330 237 305V0H51Z" glyph-name="m" horiz-adv-x="946" unicode="m" /><glyph d="M117 713H470V584H117Z" glyph-name="macron" horiz-adv-x="588" unicode="&#175;" /><glyph d="M47 370H543V263H47Z" glyph-name="minus" horiz-adv-x="590" unicode="&#8722;" /><glyph d="M14 214H305V145H14Z" glyph-name="minus.dnom" horiz-adv-x="320" /><glyph d="M14 530H305V461H14Z" glyph-name="minus.numr" horiz-adv-x="320" /><glyph d="M53 532H239V206Q239 194 242.5 181Q246 168 255 157Q264 146 278 139Q292 132 313 132Q326 132 339 138Q352 144 362.5 155.5Q373 167 380 182.5Q387 198 387 218V532H573V208Q573 188 581.5 175Q590 162 615 160L613 -5Q547 -5 501 16Q455 37 437 82Q431 65 421.5 48.5Q412 32 397.5 18.5Q383 5 362 -3.5Q341 -12 313 -12Q269 -12 242.5 4.5Q216 21 205 47L197 45L246 -163L53 -178Z" glyph-name="mu" horiz-adv-x="637" unicode="&#181;" /><glyph d="M43 136 219 318 39 501 115 579 296 397 473 578 549 501 373 320 551 138 474 60 296 241 119 59Z" glyph-name="multiply" horiz-adv-x="590" unicode="&#215;" /><glyph d="M51 532H234V465H236Q268 507 309.5 526Q351 545 403 545Q434 545 464.5 535.5Q495 526 519 506.5Q543 487 557.5 455.5Q572 424 572 381V0H385V312Q385 328 382 343.5Q379 359 371 372Q363 385 348.5 393Q334 401 312 401Q281 401 259.5 376.5Q238 352 238 301V0H51Z" glyph-name="n" horiz-adv-x="617" unicode="n" /><glyph d="M335 757H510L369 579H247ZM51 532H234V465H236Q268 507 309.5 526Q351 545 403 545Q434 545 464.5 535.5Q495 526 519 506.5Q543 487 557.5 455.5Q572 424 572 381V0H385V312Q385 328 382 343.5Q379 359 371 372Q363 385 348.5 393Q334 401 312 401Q281 401 259.5 376.5Q238 352 238 301V0H51Z" glyph-name="nacute" horiz-adv-x="617" unicode="&#324;" /><glyph d="M-15 713H132L81 569H-29ZM51 532H234V465H236Q268 507 309.5 526Q351 545 403 545Q434 545 464.5 535.5Q495 526 519 506.5Q543 487 557.5 455.5Q572 424 572 381V0H385V312Q385 328 382 343.5Q379 359 371 372Q363 385 348.5 393Q334 401 312 401Q281 401 259.5 376.5Q238 352 238 301V0H51Z" glyph-name="napostrophe" horiz-adv-x="617" unicode="&#329;" /><glyph d="M115 760H261L311 681L367 760H508L376 584H240ZM51 532H234V465H236Q268 507 309.5 526Q351 545 403 545Q434 545 464.5 535.5Q495 526 519 506.5Q543 487 557.5 455.5Q572 424 572 381V0H385V312Q385 328 382 343.5Q379 359 371 372Q363 385 348.5 393Q334 401 312 401Q281 401 259.5 376.5Q238 352 238 301V0H51Z" glyph-name="ncaron" horiz-adv-x="617" unicode="&#328;" /><glyph d="M233 -33H395L355 -197H221ZM51 532H234V465H236Q268 507 309.5 526Q351 545 403 545Q434 545 464.5 535.5Q495 526 519 506.5Q543 487 557.5 455.5Q572 424 572 381V0H385V312Q385 328 382 343.5Q379 359 371 372Q363 385 348.5 393Q334 401 312 401Q281 401 259.5 376.5Q238 352 238 301V0H51Z" glyph-name="ncommaaccent" horiz-adv-x="617" unicode="&#326;" /><glyph d="M303 384Q315 384 329 388Q343 392 355 402Q367 412 374.5 428Q382 444 382 467V510Q382 539 362.5 558.5Q343 578 306 578Q268 578 248 559.5Q228 541 228 515V448Q228 430 235 417.5Q242 405 253.5 397.5Q265 390 278 387Q291 384 303 384ZM303 -13Q245 -13 198 0Q151 13 118 38Q85 63 67 99Q49 135 49 181V217H234V197Q234 167 254 152Q274 137 306 137Q342 137 362 156.5Q382 176 382 207V317Q353 284 311.5 271Q270 258 221 258Q177 258 143 270.5Q109 283 85.5 305Q62 327 49.5 357Q37 387 37 422V519Q37 570 59.5 609Q82 648 120.5 673.5Q159 699 208.5 712Q258 725 312 725Q364 725 413 711Q462 697 500 669Q538 641 560.5 600.5Q583 560 583 508V207Q583 153 559.5 112Q536 71 497 43.5Q458 16 407.5 1.5Q357 -13 303 -13Z" glyph-name="nine" horiz-adv-x="620" unicode="9" /><glyph d="M191 214Q202 214 216 223Q230 232 230 255V280Q230 294 220 303.5Q210 313 193 313Q174 313 164 303.5Q154 294 154 281V246Q154 228 167 221Q180 214 191 214ZM191 -12Q122 -12 80 17Q38 46 38 98V120H158V110Q158 94 167.5 86Q177 78 192 78Q210 78 220 88Q230 98 230 113V166Q213 151 190 145Q167 139 141 139Q87 139 59 166Q31 193 31 231V284Q31 313 44.5 335Q58 357 80.5 372Q103 387 132.5 394.5Q162 402 194 402Q225 402 254.5 394Q284 386 307 370Q330 354 343.5 331Q357 308 357 278V111Q357 81 343.5 58Q330 35 307 19.5Q284 4 254 -4Q224 -12 191 -12Z" glyph-name="nine.dnom" horiz-adv-x="388" /><glyph d="M191 530Q202 530 216 539Q230 548 230 571V596Q230 610 220 619.5Q210 629 193 629Q174 629 164 619.5Q154 610 154 597V562Q154 544 167 537Q180 530 191 530ZM191 304Q122 304 80 333Q38 362 38 414V436H158V426Q158 410 167.5 402Q177 394 192 394Q210 394 220 404Q230 414 230 429V482Q213 467 190 461Q167 455 141 455Q87 455 59 482Q31 509 31 547V600Q31 629 44.5 651Q58 673 80.5 688Q103 703 132.5 710.5Q162 718 194 718Q225 718 254.5 710Q284 702 307 686Q330 670 343.5 647Q357 624 357 594V427Q357 397 343.5 374Q330 351 307 335.5Q284 320 254 312Q224 304 191 304Z" glyph-name="nine.numr" horiz-adv-x="388" /><glyph d="M303 209Q315 209 329 213Q343 217 355 227Q367 237 374.5 253Q382 269 382 292V335Q382 364 362.5 383.5Q343 403 306 403Q268 403 248 384.5Q228 366 228 340V273Q228 255 235 242.5Q242 230 253.5 222.5Q265 215 278 212Q291 209 303 209ZM303 -188Q245 -188 198 -175Q151 -162 118 -137Q85 -112 67 -76Q49 -40 49 6V42H234V22Q234 -8 254 -23Q274 -38 306 -38Q342 -38 362 -18.5Q382 1 382 32V142Q353 109 311.5 96Q270 83 221 83Q177 83 143 95.5Q109 108 85.5 130Q62 152 49.5 182Q37 212 37 247V344Q37 395 59.5 434Q82 473 120.5 498.5Q159 524 208.5 537Q258 550 312 550Q364 550 413 536Q462 522 500 494Q538 466 560.5 425.5Q583 385 583 333V32Q583 -22 559.5 -63Q536 -104 497 -131.5Q458 -159 407.5 -173.5Q357 -188 303 -188Z" glyph-name="nine.osf" horiz-adv-x="620" /><glyph d="M288 384Q300 384 313.5 388Q327 392 338.5 402Q350 412 357.5 428Q365 444 365 467V510Q365 539 346 558.5Q327 578 291 578Q254 578 234 559.5Q214 541 214 515V448Q214 430 221 417.5Q228 405 239 397.5Q250 390 263 387Q276 384 288 384ZM288 -13Q231 -13 185 0Q139 13 106.5 38Q74 63 56.5 99Q39 135 39 181V217H220V197Q220 167 240 152Q260 137 291 137Q326 137 345.5 156.5Q365 176 365 207V317Q337 284 296.5 271Q256 258 208 258Q165 258 131.5 270.5Q98 283 74.5 305Q51 327 39 357Q27 387 27 422V519Q27 570 49.5 609Q72 648 109.5 673.5Q147 699 195.5 712Q244 725 297 725Q348 725 396 711Q444 697 481 669Q518 641 540 600.5Q562 560 562 508V207Q562 153 539 112Q516 71 478 43.5Q440 16 390.5 1.5Q341 -13 288 -13Z" glyph-name="nine.tf" horiz-adv-x="590" /><glyph d="M288 209Q300 209 313.5 213Q327 217 338.5 227Q350 237 357.5 253Q365 269 365 292V335Q365 364 346 383.5Q327 403 291 403Q254 403 234 384.5Q214 366 214 340V273Q214 255 221 242.5Q228 230 239 222.5Q250 215 263 212Q276 209 288 209ZM288 -188Q231 -188 185 -175Q139 -162 106.5 -137Q74 -112 56.5 -76Q39 -40 39 6V42H220V22Q220 -8 240 -23Q260 -38 291 -38Q326 -38 345.5 -18.5Q365 1 365 32V142Q337 109 296.5 96Q256 83 208 83Q165 83 131.5 95.5Q98 108 74.5 130Q51 152 39 182Q27 212 27 247V344Q27 395 49.5 434Q72 473 109.5 498.5Q147 524 195.5 537Q244 550 297 550Q348 550 396 536Q444 522 481 494Q518 466 540 425.5Q562 385 562 333V32Q562 -22 539 -63Q516 -104 478 -131.5Q440 -159 390.5 -173.5Q341 -188 288 -188Z" glyph-name="nine.tosf" horiz-adv-x="590" /><glyph glyph-name="nonmarkingreturn" horiz-adv-x="230" unicode="" /><glyph d="M114 51 166 147H16V255H227L286 366H16V474H347L408 586L492 553L449 474H573V366H388L329 255H573V147H269L198 18Z" glyph-name="notequal" horiz-adv-x="590" unicode="&#8800;" /><glyph d="M92 592Q97 622 108.5 649.5Q120 677 138 697Q156 717 180.5 729Q205 741 236 741Q259 741 281.5 735.5Q304 730 326 723.5Q348 717 370.5 711.5Q393 706 416 706Q437 706 445 721Q453 736 459 759L553 735Q549 706 539 679.5Q529 653 512.5 633Q496 613 472 600.5Q448 588 416 588Q393 588 370 593Q347 598 325.5 604.5Q304 611 283 616Q262 621 242 621Q220 621 210.5 610Q201 599 192 571ZM51 532H234V465H236Q268 507 309.5 526Q351 545 403 545Q434 545 464.5 535.5Q495 526 519 506.5Q543 487 557.5 455.5Q572 424 572 381V0H385V312Q385 328 382 343.5Q379 359 371 372Q363 385 348.5 393Q334 401 312 401Q281 401 259.5 376.5Q238 352 238 301V0H51Z" glyph-name="ntilde" horiz-adv-x="617" unicode="&#241;" /><glyph d="M367 272 395 456H274L248 272ZM138 168H22L39 272H152L180 456H60L76 559H192L216 714H310L289 559H410L432 714H526L503 559H616L603 456H490L463 272H580L566 168H447L424 -1H329L352 168H232L207 -1H113Z" glyph-name="numbersign" horiz-adv-x="625" unicode="#" /><glyph d="M295 124Q328 124 347 144Q366 164 366 199V331Q366 365 345.5 386Q325 407 293 407Q260 407 241 386Q222 365 222 328V197Q222 163 240.5 143.5Q259 124 295 124ZM294 -12Q247 -12 200 -1Q153 10 116 35Q79 60 56 101.5Q33 143 33 204V316Q33 375 55.5 418Q78 461 114.5 489Q151 517 197 530.5Q243 544 291 544Q339 544 386 532Q433 520 470.5 493Q508 466 531.5 423Q555 380 555 319V208Q555 148 531.5 106.5Q508 65 470.5 38.5Q433 12 386.5 0Q340 -12 294 -12Z" glyph-name="o" horiz-adv-x="588" unicode="o" /><glyph d="M318 757H493L352 579H230ZM295 124Q328 124 347 144Q366 164 366 199V331Q366 365 345.5 386Q325 407 293 407Q260 407 241 386Q222 365 222 328V197Q222 163 240.5 143.5Q259 124 295 124ZM294 -12Q247 -12 200 -1Q153 10 116 35Q79 60 56 101.5Q33 143 33 204V316Q33 375 55.5 418Q78 461 114.5 489Q151 517 197 530.5Q243 544 291 544Q339 544 386 532Q433 520 470.5 493Q508 466 531.5 423Q555 380 555 319V208Q555 148 531.5 106.5Q508 65 470.5 38.5Q433 12 386.5 0Q340 -12 294 -12Z" glyph-name="oacute" horiz-adv-x="588" unicode="&#243;" /><glyph d="M294 574Q208 574 159.5 621.5Q111 669 108 748H218Q226 713 245 695Q264 677 299 677Q322 677 342.5 694.5Q363 712 371 748H479Q478 704 462 671.5Q446 639 420 617.5Q394 596 361 585Q328 574 294 574ZM295 124Q328 124 347 144Q366 164 366 199V331Q366 365 345.5 386Q325 407 293 407Q260 407 241 386Q222 365 222 328V197Q222 163 240.5 143.5Q259 124 295 124ZM294 -12Q247 -12 200 -1Q153 10 116 35Q79 60 56 101.5Q33 143 33 204V316Q33 375 55.5 418Q78 461 114.5 489Q151 517 197 530.5Q243 544 291 544Q339 544 386 532Q433 520 470.5 493Q508 466 531.5 423Q555 380 555 319V208Q555 148 531.5 106.5Q508 65 470.5 38.5Q433 12 386.5 0Q340 -12 294 -12Z" glyph-name="obreve" horiz-adv-x="588" unicode="&#335;" /><glyph d="M230 762H366L491 580H348L295 666L239 580H98ZM295 124Q328 124 347 144Q366 164 366 199V331Q366 365 345.5 386Q325 407 293 407Q260 407 241 386Q222 365 222 328V197Q222 163 240.5 143.5Q259 124 295 124ZM294 -12Q247 -12 200 -1Q153 10 116 35Q79 60 56 101.5Q33 143 33 204V316Q33 375 55.5 418Q78 461 114.5 489Q151 517 197 530.5Q243 544 291 544Q339 544 386 532Q433 520 470.5 493Q508 466 531.5 423Q555 380 555 319V208Q555 148 531.5 106.5Q508 65 470.5 38.5Q433 12 386.5 0Q340 -12 294 -12Z" glyph-name="ocircumflex" horiz-adv-x="588" unicode="&#244;" /><glyph d="M327 747H485V584H327ZM103 747H261V584H103ZM295 124Q328 124 347 144Q366 164 366 199V331Q366 365 345.5 386Q325 407 293 407Q260 407 241 386Q222 365 222 328V197Q222 163 240.5 143.5Q259 124 295 124ZM294 -12Q247 -12 200 -1Q153 10 116 35Q79 60 56 101.5Q33 143 33 204V316Q33 375 55.5 418Q78 461 114.5 489Q151 517 197 530.5Q243 544 291 544Q339 544 386 532Q433 520 470.5 493Q508 466 531.5 423Q555 380 555 319V208Q555 148 531.5 106.5Q508 65 470.5 38.5Q433 12 386.5 0Q340 -12 294 -12Z" glyph-name="odieresis" horiz-adv-x="588" unicode="&#246;" /><glyph d="M699 323V343Q699 378 678.5 396Q658 414 627 414Q597 414 576 395Q555 376 555 341V323ZM295 124Q328 124 347 144Q366 164 366 199V331Q366 365 345.5 386Q325 407 293 407Q260 407 241 386Q222 365 222 328V197Q222 163 240.5 143.5Q259 124 295 124ZM294 -13Q247 -13 200 -2Q153 9 116 34.5Q79 60 56 101.5Q33 143 33 204V316Q33 375 55.5 418Q78 461 114.5 489Q151 517 197 530.5Q243 544 291 544Q338 544 383 533Q428 522 465 496Q500 521 544 532.5Q588 544 633 544Q680 544 723 530Q766 516 799 488.5Q832 461 852 420Q872 379 872 325V222H555V204Q555 183 565 168Q575 153 590.5 143.5Q606 134 625.5 129.5Q645 125 663 125Q681 125 703 129Q725 133 746 139Q767 145 785 151.5Q803 158 812 164L861 52Q813 20 755 3.5Q697 -13 634 -13Q586 -13 541 -2Q496 9 459 32Q423 9 380 -2Q337 -13 294 -13Z" glyph-name="oe" horiz-adv-x="905" unicode="&#339;" /><glyph d="M287 -225Q222 -225 191 -197.5Q160 -170 160 -127Q160 -93 176.5 -64Q193 -35 220 -12Q247 11 281 27Q315 43 350 51L390 0Q368 -3 348 -11Q328 -19 313 -29.5Q298 -40 289 -53Q280 -66 280 -79Q280 -97 290.5 -107Q301 -117 325 -117Q336 -117 353.5 -112Q371 -107 387 -97L427 -190Q399 -204 364.5 -214.5Q330 -225 287 -225Z" glyph-name="ogonek" horiz-adv-x="588" unicode="&#731;" /><glyph d="M91 757H266L354 579H232ZM295 124Q328 124 347 144Q366 164 366 199V331Q366 365 345.5 386Q325 407 293 407Q260 407 241 386Q222 365 222 328V197Q222 163 240.5 143.5Q259 124 295 124ZM294 -12Q247 -12 200 -1Q153 10 116 35Q79 60 56 101.5Q33 143 33 204V316Q33 375 55.5 418Q78 461 114.5 489Q151 517 197 530.5Q243 544 291 544Q339 544 386 532Q433 520 470.5 493Q508 466 531.5 423Q555 380 555 319V208Q555 148 531.5 106.5Q508 65 470.5 38.5Q433 12 386.5 0Q340 -12 294 -12Z" glyph-name="ograve" horiz-adv-x="588" unicode="&#242;" /><glyph d="M398 757H558L437 580H325ZM191 757H352L231 580H119ZM295 124Q328 124 347 144Q366 164 366 199V331Q366 365 345.5 386Q325 407 293 407Q260 407 241 386Q222 365 222 328V197Q222 163 240.5 143.5Q259 124 295 124ZM294 -12Q247 -12 200 -1Q153 10 116 35Q79 60 56 101.5Q33 143 33 204V316Q33 375 55.5 418Q78 461 114.5 489Q151 517 197 530.5Q243 544 291 544Q339 544 386 532Q433 520 470.5 493Q508 466 531.5 423Q555 380 555 319V208Q555 148 531.5 106.5Q508 65 470.5 38.5Q433 12 386.5 0Q340 -12 294 -12Z" glyph-name="ohungarumlaut" horiz-adv-x="588" unicode="&#337;" /><glyph d="M118 713H471V584H118ZM295 124Q328 124 347 144Q366 164 366 199V331Q366 365 345.5 386Q325 407 293 407Q260 407 241 386Q222 365 222 328V197Q222 163 240.5 143.5Q259 124 295 124ZM294 -12Q247 -12 200 -1Q153 10 116 35Q79 60 56 101.5Q33 143 33 204V316Q33 375 55.5 418Q78 461 114.5 489Q151 517 197 530.5Q243 544 291 544Q339 544 386 532Q433 520 470.5 493Q508 466 531.5 423Q555 380 555 319V208Q555 148 531.5 106.5Q508 65 470.5 38.5Q433 12 386.5 0Q340 -12 294 -12Z" glyph-name="omacron" horiz-adv-x="588" unicode="&#333;" /><glyph d="M57 133H187V548L61 541L49 672L282 719H374V133H493V0H57Z" glyph-name="one" horiz-adv-x="533" unicode="1" /><glyph d="M67 88H137V290L69 287L62 373L192 400H261V88H324V0H67Z" glyph-name="one.dnom" horiz-adv-x="373" /><glyph d="M67 404H137V606L69 603L62 689L192 716H261V404H324V316H67Z" glyph-name="one.numr" horiz-adv-x="373" /><glyph d="M57 137H187V373L67 364L55 495L282 543H375V137H493V0H57Z" glyph-name="one.osf" horiz-adv-x="533" /><glyph d="M85 133H212V548L89 541L77 672L305 719H396V133H512V0H85Z" glyph-name="one.tf" horiz-adv-x="590" /><glyph d="M83 137H210V373L93 364L81 495L303 543H394V137H510V0H83Z" glyph-name="one.tosf" horiz-adv-x="590" /><glyph d="M562 717H665L267 -2H164ZM675 233Q692 233 702 241Q712 249 712 265V283Q712 302 700 309.5Q688 317 674 317Q660 317 649 309.5Q638 302 638 288V264Q638 248 648 240.5Q658 233 675 233ZM675 71Q712 71 712 103V122Q712 141 700 148.5Q688 156 674 156Q660 156 649 148.5Q638 141 638 127V102Q638 87 648 79Q658 71 675 71ZM675 -12Q640 -12 610.5 -6Q581 0 559 13Q537 26 524.5 47.5Q512 69 512 99V119Q512 146 526.5 165.5Q541 185 561 196Q542 204 530.5 224.5Q519 245 519 265V287Q519 315 531.5 336Q544 357 565 371.5Q586 386 614 393.5Q642 401 674 401Q706 401 734.5 394Q763 387 784.5 373Q806 359 818.5 338Q831 317 831 289V266Q831 242 818.5 223.5Q806 205 789 196Q809 188 823 167Q837 146 837 123V96Q837 70 824 49.5Q811 29 789 15.5Q767 2 737.5 -5Q708 -12 675 -12ZM46 406H116V608L48 605L41 691L171 718H240V406H303V318H46Z" glyph-name="oneeighth" horiz-adv-x="876" unicode="&#8539;" /><glyph d="M564 717H667L269 -2H166ZM535 71 654 199Q680 226 691 243Q702 260 702 279V284Q702 298 694 306Q686 314 669 314Q654 314 647.5 303Q641 292 641 274V262H524V285Q524 315 536 338Q548 361 569 376.5Q590 392 618.5 399.5Q647 407 680 407Q751 407 788.5 373.5Q826 340 826 284Q826 260 817 238.5Q808 217 794 198Q780 179 763.5 161.5Q747 144 731 129L699 98V97H831V0H535ZM58 406H128V608L60 605L53 691L183 718H252V406H315V318H58Z" glyph-name="onehalf" horiz-adv-x="876" unicode="&#189;" /><glyph d="M576 717H679L281 -2H178ZM678 77H498V160L649 399H782L620 165H678V204L792 280V165H830V77H792V0H678ZM70 406H140V608L72 605L65 691L195 718H264V406H327V318H70Z" glyph-name="onequarter" horiz-adv-x="876" unicode="&#188;" /><glyph d="M67 468H137V670L69 667L62 753L192 780H261V468H324V380H67Z" glyph-name="onesuperior" horiz-adv-x="373" unicode="&#185;" /><glyph d="M670 -12Q597 -12 556.5 17.5Q516 47 516 106V120H639V113Q639 99 647 88Q655 77 678 77Q694 77 701.5 88Q709 99 709 118Q709 141 694.5 148.5Q680 156 661 156H635V233H662Q685 233 696 240.5Q707 248 707 272Q707 310 673 310Q650 310 645 298Q640 286 640 273V268H519V282Q519 336 560.5 369Q602 402 674 402Q747 402 787.5 371.5Q828 341 828 288Q828 255 811 232Q794 209 765 200V198Q799 190 819.5 166Q840 142 840 108Q840 73 824 50Q808 27 783 13.5Q758 0 728 -6Q698 -12 670 -12ZM568 717H671L273 -2H170ZM57 406H127V608L59 605L52 691L182 718H251V406H314V318H57Z" glyph-name="onethird" horiz-adv-x="876" unicode="&#8531;" /><glyph d="M63 314H372V226H63ZM205 451Q217 451 233 461Q249 471 249 493V518H224Q200 518 184 511.5Q168 505 168 483Q168 469 176 460Q184 451 205 451ZM152 364Q106 364 73 388.5Q40 413 40 462Q40 499 58.5 522Q77 545 104 558Q131 571 162 575.5Q193 580 219 580H250V602Q250 619 239.5 629.5Q229 640 206 640Q182 640 172.5 628.5Q163 617 163 604V593H51V610Q51 638 64.5 659.5Q78 681 100.5 695.5Q123 710 153.5 717.5Q184 725 217 725Q247 725 275.5 718Q304 711 326.5 696Q349 681 362.5 657Q376 633 376 600V451Q376 425 378 402.5Q380 380 382 372H264L260 415Q249 399 235 389Q221 379 206 373.5Q191 368 176.5 366Q162 364 152 364Z" glyph-name="ordfeminine" horiz-adv-x="421" unicode="&#170;" /><glyph d="M65 314H375V226H65ZM217 456Q240 456 249.5 470Q259 484 259 505V590Q259 612 248 625.5Q237 639 217 639Q194 639 183.5 625Q173 611 173 588V504Q173 482 183 469Q193 456 217 456ZM217 365Q185 365 154 372Q123 379 98.5 395.5Q74 412 59 440Q44 468 44 509V582Q44 621 58.5 649.5Q73 678 97 696.5Q121 715 151.5 723.5Q182 732 215 732Q247 732 278 724Q309 716 334 698.5Q359 681 374 652.5Q389 624 389 583V510Q389 470 373.5 442.5Q358 415 333.5 397.5Q309 380 278 372.5Q247 365 217 365Z" glyph-name="ordmasculine" horiz-adv-x="433" unicode="&#186;" /><glyph d="M955 1106Q1081 1077 1189.5 1018.5Q1298 960 1378 874.5Q1458 789 1504 679.5Q1550 570 1550 440Q1550 253 1499 115Q1448 -23 1349.5 -114Q1251 -205 1106 -250Q961 -295 773 -295Q670 -295 573 -278.5Q476 -262 390.5 -228.5Q305 -195 233.5 -144.5Q162 -94 110.5 -26Q59 42 30.5 128Q2 214 2 317Q2 490 47 622.5Q92 755 178.5 845Q265 935 391 981.5Q517 1028 679 1028Q711 1028 750.5 1026Q790 1024 830.5 1018.5Q871 1013 909 1001.5Q947 990 977 971Q1007 952 1025 924Q1043 896 1043 857Q1043 833 1035 810Q1027 787 1006 769Q985 751 949 740Q913 729 857 729H728L715 546H1101Q1136 546 1159 547Q1182 548 1195.5 552.5Q1209 557 1214 566Q1219 575 1219 591Q1219 603 1211 622Q1203 641 1195 652L1243 675Q1258 655 1266.5 635.5Q1275 616 1275 591Q1275 559 1262 539.5Q1249 520 1227 509.5Q1205 499 1176.5 496Q1148 493 1117 494L1089 495Q1043 496 1011.5 482Q980 468 960.5 445Q941 422 931.5 392.5Q922 363 919 333L914 276H1079L1065 227H909L885 -45H1006L1003 -91H754L757 -45L828 -41L851 227H767L774 276H855L857 299Q860 346 870.5 379.5Q881 413 895.5 436Q910 459 927 473Q944 487 962 495V497H711L696 282Q691 215 672.5 167Q654 119 625.5 88Q597 57 559.5 42.5Q522 28 479 28Q472 28 451.5 29Q431 30 405 35Q379 40 351.5 50.5Q324 61 303 80L334 128Q365 103 404 91Q443 79 477 79Q514 79 542.5 94Q571 109 591 135.5Q611 162 622.5 196.5Q634 231 637 270L653 497Q584 497 534 493.5Q484 490 450.5 472Q417 454 398 415.5Q379 377 372 307L321 310Q330 388 351 434Q372 480 410.5 505Q449 530 509 538Q569 546 657 546L670 729H548Q477 729 431 714Q385 699 356 672Q327 645 312 607Q297 569 288 524L239 533Q248 596 272.5 641.5Q297 687 334.5 717Q372 747 420.5 762Q469 777 526 777L871 779Q908 779 930.5 786Q953 793 965 804Q977 815 981 828.5Q985 842 985 855Q985 885 968 906Q951 927 924.5 941Q898 955 864 963Q830 971 796.5 974.5Q763 978 733 979Q703 980 683 980Q525 980 408 932.5Q291 885 213.5 799.5Q136 714 98 594.5Q60 475 60 330Q60 182 119.5 74.5Q179 -33 279 -103Q379 -173 509.5 -206.5Q640 -240 782 -240Q953 -240 1085 -198.5Q1217 -157 1307 -72.5Q1397 12 1443.5 139.5Q1490 267 1490 438Q1490 558 1451 657.5Q1412 757 1339.5 835Q1267 913 1163.5 969Q1060 1025 932 1057Z" glyph-name="orn001" horiz-adv-x="1552" /><glyph d="M44 348Q44 427 73 497Q102 567 152.5 619Q203 671 271 701Q339 731 416 731Q493 731 560.5 701Q628 671 678.5 619Q729 567 758.5 497Q788 427 788 348Q788 269 758.5 199.5Q729 130 678.5 78.5Q628 27 560.5 -3Q493 -33 416 -33Q339 -33 271 -3Q203 27 152.5 78.5Q102 130 73 199.5Q44 269 44 348ZM105 348Q105 414 129.5 472Q154 530 196 573.5Q238 617 294.5 642Q351 667 416 667Q480 667 536.5 642Q593 617 635.5 573.5Q678 530 702.5 472Q727 414 727 348Q727 282 702.5 224.5Q678 167 635.5 123.5Q593 80 536.5 55Q480 30 416 30Q351 30 294.5 55Q238 80 196 123.5Q154 167 129.5 224.5Q105 282 105 348ZM70 348Q70 275 97 211Q124 147 171 99Q218 51 281 23Q344 -5 416 -5Q487 -5 550 23Q613 51 660 99Q707 147 734 211Q761 275 761 348Q761 421 734 486Q707 551 660 599Q613 647 550 675Q487 703 416 703Q344 703 281 675Q218 647 171 599Q124 551 97 486Q70 421 70 348ZM618 248 444 350 618 450 604 474 429 375V575H401V375L225 474L213 450L385 349L213 248L225 223L401 323V123H429V323L604 223Z" glyph-name="orn002" horiz-adv-x="832" /><glyph d="M420 209 569 359 420 508 270 359ZM420 152 626 359 420 565 213 359ZM44 348Q44 427 73 497Q102 567 152.5 619Q203 671 271 701Q339 731 416 731Q493 731 560.5 701Q628 671 678.5 619Q729 567 758.5 497Q788 427 788 348Q788 269 758.5 199.5Q729 130 678.5 78.5Q628 27 560.5 -3Q493 -33 416 -33Q339 -33 271 -3Q203 27 152.5 78.5Q102 130 73 199.5Q44 269 44 348ZM105 348Q105 414 129.5 472Q154 530 196 573.5Q238 617 294.5 642Q351 667 416 667Q480 667 536.5 642Q593 617 635.5 573.5Q678 530 702.5 472Q727 414 727 348Q727 282 702.5 224.5Q678 167 635.5 123.5Q593 80 536.5 55Q480 30 416 30Q351 30 294.5 55Q238 80 196 123.5Q154 167 129.5 224.5Q105 282 105 348ZM70 348Q70 275 97 211Q124 147 171 99Q218 51 281 23Q344 -5 416 -5Q487 -5 550 23Q613 51 660 99Q707 147 734 211Q761 275 761 348Q761 421 734 486Q707 551 660 599Q613 647 550 675Q487 703 416 703Q344 703 281 675Q218 647 171 599Q124 551 97 486Q70 421 70 348Z" glyph-name="orn003" horiz-adv-x="832" /><glyph d="M327 399Q311 407 293 407Q260 407 241 386Q222 365 222 328V265V227ZM295 124Q328 124 347 144Q366 164 366 199V268V300L262 129Q277 124 295 124ZM71 -21 108 40Q74 66 53.5 106Q33 146 33 204V316Q33 375 55.5 418Q78 461 114.5 489Q151 517 197 530.5Q243 544 291 544Q350 544 404 526L438 582L514 542L480 486Q514 459 534.5 418Q555 377 555 319V208Q555 148 531.5 106.5Q508 65 470.5 38.5Q433 12 386.5 0Q340 -12 294 -12Q236 -12 184 3L147 -58Z" glyph-name="oslash" horiz-adv-x="588" unicode="&#248;" /><glyph d="M318 757H493L352 579H230ZM327 399Q311 407 293 407Q260 407 241 386Q222 365 222 328V265V227ZM295 124Q328 124 347 144Q366 164 366 199V268V300L262 129Q277 124 295 124ZM71 -21 108 40Q74 66 53.5 106Q33 146 33 204V316Q33 375 55.5 418Q78 461 114.5 489Q151 517 197 530.5Q243 544 291 544Q350 544 404 526L438 582L514 542L480 486Q514 459 534.5 418Q555 377 555 319V208Q555 148 531.5 106.5Q508 65 470.5 38.5Q433 12 386.5 0Q340 -12 294 -12Q236 -12 184 3L147 -58Z" glyph-name="oslashacute" horiz-adv-x="588" unicode="&#511;" /><glyph d="M64 592Q69 622 80.5 649.5Q92 677 110 697Q128 717 152.5 729Q177 741 208 741Q231 741 253.5 735.5Q276 730 298 723.5Q320 717 342.5 711.5Q365 706 388 706Q409 706 417 721Q425 736 431 759L525 735Q521 706 511 679.5Q501 653 484.5 633Q468 613 444 600.5Q420 588 388 588Q365 588 342 593Q319 598 297.5 604.5Q276 611 255 616Q234 621 214 621Q192 621 182.5 610Q173 599 164 571ZM295 124Q328 124 347 144Q366 164 366 199V331Q366 365 345.5 386Q325 407 293 407Q260 407 241 386Q222 365 222 328V197Q222 163 240.5 143.5Q259 124 295 124ZM294 -12Q247 -12 200 -1Q153 10 116 35Q79 60 56 101.5Q33 143 33 204V316Q33 375 55.5 418Q78 461 114.5 489Q151 517 197 530.5Q243 544 291 544Q339 544 386 532Q433 520 470.5 493Q508 466 531.5 423Q555 380 555 319V208Q555 148 531.5 106.5Q508 65 470.5 38.5Q433 12 386.5 0Q340 -12 294 -12Z" glyph-name="otilde" horiz-adv-x="588" unicode="&#245;" /><glyph d="M315 118Q329 118 342.5 122.5Q356 127 366.5 136.5Q377 146 383.5 160.5Q390 175 390 195V327Q390 365 368 385Q346 405 317 405Q303 405 288.5 401Q274 397 263 387.5Q252 378 245 361Q238 344 238 317V195Q238 174 245 159Q252 144 263.5 135Q275 126 288.5 122Q302 118 315 118ZM51 532H234V467H236Q265 505 305.5 525Q346 545 386 545Q477 545 527 493Q577 441 577 352V176Q577 134 560.5 99Q544 64 516 39Q488 14 449.5 0.5Q411 -13 368 -13Q332 -13 296.5 3Q261 19 240 45H238V-186H51Z" glyph-name="p" horiz-adv-x="610" unicode="p" /><glyph d="M249 208Q198 214 162 237Q126 260 103.5 294Q81 328 70.5 370.5Q60 413 60 458Q60 505 74.5 551Q89 597 116.5 633Q144 669 183 691Q222 713 270 713H578V612H533V-116H427V612H354V-116H249Z" glyph-name="paragraph" horiz-adv-x="621" unicode="&#182;" /><glyph d="M224 -185Q190 -145 162.5 -91.5Q135 -38 115 23Q95 84 84 148.5Q73 213 73 275Q73 333 83 393Q93 453 112.5 510Q132 567 160 618.5Q188 670 224 713H307Q282 653 264.5 601Q247 549 236 498Q225 447 220 393Q215 339 215 275Q215 159 237.5 41.5Q260 -76 307 -185Z" glyph-name="parenleft" horiz-adv-x="337" unicode="(" /><glyph d="M149 -78Q107 -32 79.5 37Q52 106 52 181Q52 251 78 317Q104 383 149 431H209Q194 397 183 367Q172 337 165.5 308Q159 279 156 248Q153 217 153 181Q153 48 209 -78Z" glyph-name="parenleft.dnom" horiz-adv-x="227" /><glyph d="M149 238Q107 284 79.5 353Q52 422 52 497Q52 567 78 633Q104 699 149 747H209Q194 713 183 683Q172 653 165.5 624Q159 595 156 564Q153 533 153 497Q153 364 209 238Z" glyph-name="parenleft.numr" horiz-adv-x="205" /><glyph d="M30 -184Q77 -75 99.5 42Q122 159 122 275Q122 339 117 393Q112 447 101.5 498Q91 549 73 601Q55 653 30 713H113Q149 670 177 618.5Q205 567 224.5 510Q244 453 254 393Q264 333 264 275Q264 213 253 148.5Q242 84 222 23.5Q202 -37 174.5 -90.5Q147 -144 113 -184Z" glyph-name="parenright" horiz-adv-x="337" unicode=")" /><glyph d="M18 -78Q47 -15 60.5 50Q74 115 74 181Q74 217 71 248Q68 279 61.5 308Q55 337 44 367Q33 397 18 431H79Q124 383 150 317Q176 251 176 181Q176 143 168.5 106.5Q161 70 148 36.5Q135 3 117.5 -26Q100 -55 79 -78Z" glyph-name="parenright.dnom" horiz-adv-x="227" /><glyph d="M18 238Q47 301 60.5 366Q74 431 74 497Q74 533 71 564Q68 595 61.5 624Q55 653 44 683Q33 713 18 747H79Q124 699 150 633Q176 567 176 497Q176 459 168.5 422.5Q161 386 148 352.5Q135 319 117.5 290Q100 261 79 238Z" glyph-name="parenright.numr" horiz-adv-x="205" /><glyph d="M294 124Q329 124 347 145Q365 166 365 200V304Q365 338 345.5 360.5Q326 383 293 383Q258 383 240 360Q222 337 222 301V199Q222 164 239 144Q256 124 294 124ZM293 -12Q245 -12 198.5 -1.5Q152 9 115.5 34.5Q79 60 56 101.5Q33 143 33 205V290Q33 332 45 366.5Q57 401 78.5 427.5Q100 454 129 472.5Q158 491 192 502Q203 506 214 508.5Q225 511 236 513L88 713H305L505 432Q523 407 538.5 367.5Q554 328 554 286V208Q554 148 530.5 106Q507 64 469.5 38Q432 12 385.5 0Q339 -12 293 -12Z" glyph-name="partialdiff" horiz-adv-x="587" unicode="&#8706;" /><glyph d="M616 717H714L250 0H152ZM664 83Q686 83 695.5 95Q705 107 705 121V266Q705 280 695 290.5Q685 301 665 301Q644 301 633.5 290.5Q623 280 623 266V119Q623 105 632.5 94Q642 83 664 83ZM665 -10Q637 -10 608 -3.5Q579 3 556 18Q533 33 518 58Q503 83 503 119V262Q503 298 517.5 323Q532 348 555 363.5Q578 379 606.5 386Q635 393 664 393Q692 393 721 386Q750 379 773 363Q796 347 810.5 322Q825 297 825 260V119Q825 84 810.5 59.5Q796 35 772.5 19.5Q749 4 720.5 -3Q692 -10 665 -10ZM197 415Q219 415 228 426.5Q237 438 237 452V598Q237 612 226.5 622Q216 632 196 632Q176 632 166 622Q156 612 156 598V451Q156 436 165.5 425.5Q175 415 197 415ZM197 322Q169 322 140.5 328.5Q112 335 88.5 350Q65 365 50.5 390Q36 415 36 451V594Q36 630 50 655Q64 680 86.5 695.5Q109 711 137.5 718Q166 725 195 725Q223 725 252 718Q281 711 304.5 695Q328 679 342.5 653.5Q357 628 357 591V451Q357 416 342.5 391.5Q328 367 304.5 351.5Q281 336 252.5 329Q224 322 197 322Z" glyph-name="percent" horiz-adv-x="861" unicode="%" /><glyph d="M54 183H241V0H54Z" glyph-name="period" horiz-adv-x="295" unicode="." /><glyph d="M44 121H162V0H44Z" glyph-name="period.dnom" horiz-adv-x="206" /><glyph d="M44 437H162V316H44Z" glyph-name="period.numr" horiz-adv-x="182" /><glyph d="M44 -12H162V-133H44Z" glyph-name="period.subs" horiz-adv-x="206" /><glyph d="M44 501H162V380H44Z" glyph-name="period.sups" horiz-adv-x="206" /><glyph d="M54 452H241V269H54Z" glyph-name="periodcentered" horiz-adv-x="295" unicode="&#183;" /><glyph d="M616 717H714L250 0H152ZM664 83Q686 83 695.5 95Q705 107 705 121V266Q705 280 695 290.5Q685 301 665 301Q644 301 633.5 290.5Q623 280 623 266V119Q623 105 632.5 94Q642 83 664 83ZM665 -10Q637 -10 608 -3.5Q579 3 556 18Q533 33 518 58Q503 83 503 119V262Q503 298 517.5 323Q532 348 555 363.5Q578 379 606.5 386Q635 393 664 393Q692 393 721 386Q750 379 773 363Q796 347 810.5 322Q825 297 825 260V119Q825 84 810.5 59.5Q796 35 772.5 19.5Q749 4 720.5 -3Q692 -10 665 -10ZM197 415Q219 415 228 426.5Q237 438 237 452V598Q237 612 226.5 622Q216 632 196 632Q176 632 166 622Q156 612 156 598V451Q156 436 165.5 425.5Q175 415 197 415ZM197 322Q169 322 140.5 328.5Q112 335 88.5 350Q65 365 50.5 390Q36 415 36 451V594Q36 630 50 655Q64 680 86.5 695.5Q109 711 137.5 718Q166 725 195 725Q223 725 252 718Q281 711 304.5 695Q328 679 342.5 653.5Q357 628 357 591V451Q357 416 342.5 391.5Q328 367 304.5 351.5Q281 336 252.5 329Q224 322 197 322ZM1037 83Q1059 83 1068.5 95Q1078 107 1078 121V266Q1078 280 1067.5 290.5Q1057 301 1037 301Q1017 301 1006.5 290.5Q996 280 996 266V119Q996 105 1005.5 94Q1015 83 1037 83ZM1038 -10Q1010 -10 981 -3.5Q952 3 929 18Q906 33 891 58Q876 83 876 119V262Q876 298 890 323Q904 348 927 363.5Q950 379 978.5 386Q1007 393 1036 393Q1065 393 1094 386Q1123 379 1146 363Q1169 347 1183.5 322Q1198 297 1198 260V119Q1198 84 1183 59.5Q1168 35 1145 19.5Q1122 4 1093.5 -3Q1065 -10 1038 -10Z" glyph-name="perthousand" horiz-adv-x="1234" unicode="&#8240;" /><glyph d="M555 -9Q521 -9 492.5 -1Q464 7 443.5 24Q423 41 411.5 67.5Q400 94 400 131V367H295Q293 311 290 268Q287 225 283.5 183.5Q280 142 275 98.5Q270 55 264 0H82Q90 63 96 111Q102 159 106.5 200.5Q111 242 113.5 281Q116 320 117 367H26L47 533H659V367H582V197Q582 174 591.5 161Q601 148 626 148Q646 148 666 154V8Q645 2 618 -3.5Q591 -9 555 -9Z" glyph-name="pi" horiz-adv-x="693" unicode="&#960;" /><glyph d="M241 263H16V370H241V594H349V370H573V263H349V39H241Z" glyph-name="plus" horiz-adv-x="590" unicode="+" /><glyph d="M125 145H14V214H125V326H195V214H305V145H195V33H125Z" glyph-name="plus.dnom" horiz-adv-x="320" /><glyph d="M125 461H14V530H125V642H195V530H305V461H195V349H125Z" glyph-name="plus.numr" horiz-adv-x="320" /><glyph d="M241 366H16V474H241V665H349V474H573V366H349V175H241ZM18 108H571V0H18Z" glyph-name="plusminus" horiz-adv-x="590" unicode="&#177;" /><glyph d="M141 548H37V713H783V548H679V-133H488V548H333V-133H141Z" glyph-name="product" horiz-adv-x="820" unicode="&#8719;" /><glyph d="M294 128Q308 128 322 132.5Q336 137 347.5 147Q359 157 366 172.5Q373 188 373 211V337Q373 358 365.5 373Q358 388 346.5 397Q335 406 321 410Q307 414 294 414Q266 414 243 393.5Q220 373 220 329V208Q220 169 242.5 148.5Q265 128 294 128ZM373 63H372Q341 25 303 6.5Q265 -12 225 -12Q134 -12 83.5 39Q33 90 33 179V352Q33 397 48.5 433Q64 469 91.5 493.5Q119 518 156 531.5Q193 545 237 545Q273 545 311.5 529.5Q350 514 376 482H379V532H559V-186H373Z" glyph-name="q" horiz-adv-x="610" unicode="q" /><glyph d="M184 261Q184 304 199.5 331.5Q215 359 245 387Q261 401 280 414.5Q299 428 315.5 443Q332 458 343.5 475Q355 492 355 512Q355 540 336 558Q317 576 287 576Q272 576 257 572.5Q242 569 230.5 561.5Q219 554 211.5 542.5Q204 531 204 515V489H39V524Q39 575 61 612.5Q83 650 119 674.5Q155 699 200.5 711Q246 723 294 723Q411 723 473.5 670Q536 617 536 523Q536 492 528.5 467.5Q521 443 508.5 423Q496 403 479 386.5Q462 370 443 357Q431 348 415 338.5Q399 329 384.5 317.5Q370 306 360.5 292.5Q351 279 351 261V231H184ZM173 183H360V0H173Z" glyph-name="question" horiz-adv-x="564" unicode="?" /><glyph d="M211 532H399V349H211ZM277 -192Q160 -192 97.5 -138.5Q35 -85 35 9Q35 41 43.5 66.5Q52 92 66.5 113.5Q81 135 100 152.5Q119 170 140 185Q151 193 165 201.5Q179 210 191 220Q203 230 211.5 242.5Q220 255 220 270V301H387V271Q387 227 371.5 200Q356 173 326 145Q312 133 293.5 119.5Q275 106 257.5 91Q240 76 228 58.5Q216 41 216 20Q216 -8 235.5 -26Q255 -44 285 -44Q300 -44 314.5 -40.5Q329 -37 340.5 -29.5Q352 -22 359.5 -10.5Q367 1 367 17V43H532V8Q532 -43 510 -81Q488 -119 452.5 -143.5Q417 -168 371 -180Q325 -192 277 -192Z" glyph-name="questiondown" horiz-adv-x="564" unicode="&#191;" /><glyph d="M211 713H399V530H211ZM277 -11Q160 -11 97.5 42.5Q35 96 35 190Q35 222 43.5 247.5Q52 273 66.5 294.5Q81 316 100 333.5Q119 351 140 366Q151 374 165 382.5Q179 391 191 401Q203 411 211.5 423.5Q220 436 220 451V482H387V452Q387 408 371.5 381Q356 354 326 326Q312 314 293.5 300.5Q275 287 257.5 272Q240 257 228 239.5Q216 222 216 201Q216 173 235.5 155Q255 137 285 137Q300 137 314.5 140.5Q329 144 340.5 151.5Q352 159 359.5 170.5Q367 182 367 198V224H532V189Q532 138 510 100Q488 62 452.5 37.5Q417 13 371 1Q325 -11 277 -11Z" glyph-name="questiondown.case" horiz-adv-x="564" /><glyph d="M281 570V713H431V570L408 395H304ZM66 570V713H216V570L193 395H89Z" glyph-name="quotedbl" horiz-adv-x="497" unicode="&quot;" /><glyph d="M359 1H294V182H482V11L411 -141H324ZM118 1H54V182H241V11L170 -141H83Z" glyph-name="quotedblbase" horiz-adv-x="536" unicode="&#8222;" /><glyph d="M295 563 366 714H453L418 573H482V392H295ZM54 563 125 714H212L177 573H241V392H54Z" glyph-name="quotedblleft" horiz-adv-x="536" unicode="&#8220;" /><glyph d="M359 533H294V714H482V543L411 392H324ZM118 533H54V714H241V543L170 392H83Z" glyph-name="quotedblright" horiz-adv-x="536" unicode="&#8221;" /><glyph d="M54 563 125 714H212L177 573H241V392H54Z" glyph-name="quoteleft" horiz-adv-x="295" unicode="&#8216;" /><glyph d="M118 533H54V714H241V543L170 392H83Z" glyph-name="quoteright" horiz-adv-x="295" unicode="&#8217;" /><glyph d="M118 1H54V182H241V11L170 -141H83Z" glyph-name="quotesinglbase" horiz-adv-x="295" unicode="&#8218;" /><glyph d="M66 570V713H216V570L193 395H89Z" glyph-name="quotesingle" horiz-adv-x="282" unicode="&apos;" /><glyph d="M50 532H233V445H235Q245 463 261 480.5Q277 498 297.5 511.5Q318 525 341.5 533Q365 541 390 541Q401 541 417.5 540Q434 539 447 536V379Q424 382 400 383.5Q376 385 365 385Q344 385 321 381Q298 377 279.5 365.5Q261 354 249 333.5Q237 313 237 280V0H50Z" glyph-name="r" horiz-adv-x="456" unicode="r" /><glyph d="M272 757H447L306 579H184ZM50 532H233V445H235Q245 463 261 480.5Q277 498 297.5 511.5Q318 525 341.5 533Q365 541 390 541Q401 541 417.5 540Q434 539 447 536V379Q424 382 400 383.5Q376 385 365 385Q344 385 321 381Q298 377 279.5 365.5Q261 354 249 333.5Q237 313 237 280V0H50Z" glyph-name="racute" horiz-adv-x="456" unicode="&#341;" /><glyph d="M32 402H225L289 100H291L459 713H633L362 -134H192Z" glyph-name="radical" horiz-adv-x="633" unicode="&#8730;" /><glyph d="M52 760H198L248 681L304 760H445L313 584H177ZM50 532H233V445H235Q245 463 261 480.5Q277 498 297.5 511.5Q318 525 341.5 533Q365 541 390 541Q401 541 417.5 540Q434 539 447 536V379Q424 382 400 383.5Q376 385 365 385Q344 385 321 381Q298 377 279.5 365.5Q261 354 249 333.5Q237 313 237 280V0H50Z" glyph-name="rcaron" horiz-adv-x="456" unicode="&#345;" /><glyph d="M68 -33H230L190 -197H56ZM50 532H233V445H235Q245 463 261 480.5Q277 498 297.5 511.5Q318 525 341.5 533Q365 541 390 541Q401 541 417.5 540Q434 539 447 536V379Q424 382 400 383.5Q376 385 365 385Q344 385 321 381Q298 377 279.5 365.5Q261 354 249 333.5Q237 313 237 280V0H50Z" glyph-name="rcommaaccent" horiz-adv-x="456" unicode="&#343;" /><glyph d="M272 539Q286 539 293 547.5Q300 556 300 568Q300 579 293 587.5Q286 596 272 596H241V539ZM263 348Q295 348 325 360Q355 372 378.5 395Q402 418 416 450Q430 482 430 523Q430 563 416.5 595.5Q403 628 380 651Q357 674 327 686.5Q297 699 263 699Q229 699 199 686.5Q169 674 146.5 651.5Q124 629 111 596Q98 563 98 523Q98 482 111.5 450Q125 418 148 395Q171 372 200.5 360Q230 348 263 348ZM263 298Q210 298 168 316Q126 334 97 364.5Q68 395 52.5 436Q37 477 37 523Q37 569 53.5 609.5Q70 650 100 680.5Q130 711 171.5 729Q213 747 263 747Q315 747 357 729Q399 711 429 680.5Q459 650 475 609.5Q491 569 491 523Q491 477 474.5 436Q458 395 428 364.5Q398 334 356 316Q314 298 263 298ZM170 651H282Q326 651 348 628.5Q370 606 370 573Q370 550 359 530.5Q348 511 326 500L378 406H300L259 489H241V406H170Z" glyph-name="registered" horiz-adv-x="527" unicode="&#174;" /><glyph d="M293 625Q315 625 330 638.5Q345 652 345 673Q345 695 331 709Q317 723 293 723Q270 723 256 709Q242 695 242 673Q242 653 257 639Q272 625 293 625ZM293 568Q242 568 207.5 595Q173 622 173 670Q173 694 182.5 713.5Q192 733 208.5 747.5Q225 762 247 770Q269 778 293 778Q344 778 379 752.5Q414 727 414 677Q414 654 404 634Q394 614 377.5 599.5Q361 585 339 576.5Q317 568 293 568Z" glyph-name="ring" horiz-adv-x="588" unicode="&#730;" /><glyph d="M275 -12Q239 -12 206 -9.5Q173 -7 142 1Q111 9 81.5 23Q52 37 22 60L108 175Q137 151 179 133Q221 115 263 115Q275 115 287.5 116Q300 117 310.5 121Q321 125 328 131.5Q335 138 335 149Q335 169 320 176.5Q305 184 283 189Q279 190 254 196Q229 202 177 215Q114 231 78.5 265Q43 299 43 359Q43 397 59 431Q75 465 105 490.5Q135 516 178 530.5Q221 545 274 545Q313 545 343.5 541.5Q374 538 400.5 530.5Q427 523 450.5 511Q474 499 500 482L403 376Q376 397 341 408Q306 419 278 419Q215 419 215 386Q215 370 230.5 363.5Q246 357 268 352L376 329Q449 314 487 273Q525 232 525 176Q525 126 502 90.5Q479 55 442.5 32Q406 9 361.5 -1.5Q317 -12 275 -12Z" glyph-name="s" horiz-adv-x="551" unicode="s" /><glyph d="M297 757H472L331 579H209ZM275 -12Q239 -12 206 -9.5Q173 -7 142 1Q111 9 81.5 23Q52 37 22 60L108 175Q137 151 179 133Q221 115 263 115Q275 115 287.5 116Q300 117 310.5 121Q321 125 328 131.5Q335 138 335 149Q335 169 320 176.5Q305 184 283 189Q279 190 254 196Q229 202 177 215Q114 231 78.5 265Q43 299 43 359Q43 397 59 431Q75 465 105 490.5Q135 516 178 530.5Q221 545 274 545Q313 545 343.5 541.5Q374 538 400.5 530.5Q427 523 450.5 511Q474 499 500 482L403 376Q376 397 341 408Q306 419 278 419Q215 419 215 386Q215 370 230.5 363.5Q246 357 268 352L376 329Q449 314 487 273Q525 232 525 176Q525 126 502 90.5Q479 55 442.5 32Q406 9 361.5 -1.5Q317 -12 275 -12Z" glyph-name="sacute" horiz-adv-x="551" unicode="&#347;" /><glyph d="M77 760H223L273 681L329 760H470L338 584H202ZM275 -12Q239 -12 206 -9.5Q173 -7 142 1Q111 9 81.5 23Q52 37 22 60L108 175Q137 151 179 133Q221 115 263 115Q275 115 287.5 116Q300 117 310.5 121Q321 125 328 131.5Q335 138 335 149Q335 169 320 176.5Q305 184 283 189Q279 190 254 196Q229 202 177 215Q114 231 78.5 265Q43 299 43 359Q43 397 59 431Q75 465 105 490.5Q135 516 178 530.5Q221 545 274 545Q313 545 343.5 541.5Q374 538 400.5 530.5Q427 523 450.5 511Q474 499 500 482L403 376Q376 397 341 408Q306 419 278 419Q215 419 215 386Q215 370 230.5 363.5Q246 357 268 352L376 329Q449 314 487 273Q525 232 525 176Q525 126 502 90.5Q479 55 442.5 32Q406 9 361.5 -1.5Q317 -12 275 -12Z" glyph-name="scaron" horiz-adv-x="551" unicode="&#353;" /><glyph d="M278 -219Q254 -219 223.5 -215Q193 -211 162 -203V-128Q191 -135 220 -139.5Q249 -144 268 -144Q293 -144 302.5 -137.5Q312 -131 312 -118Q312 -111 307 -106.5Q302 -102 295 -100Q288 -98 279 -97.5Q270 -97 263 -96L215 -94L234 -11Q174 -9 123.5 6Q73 21 22 60L108 175Q137 151 179 133Q221 115 263 115Q275 115 287.5 116Q300 117 310.5 121Q321 125 328 131.5Q335 138 335 149Q335 169 320 176.5Q305 184 283 189Q279 190 253.5 195.5Q228 201 170 217Q112 233 77.5 266Q43 299 43 359Q43 397 59 431Q75 465 105 490.5Q135 516 178 530.5Q221 545 274 545Q313 545 343.5 541.5Q374 538 400.5 530.5Q427 523 450.5 511Q474 499 500 482L403 376Q376 397 341 408Q306 419 278 419Q215 419 215 386Q215 369 233.5 362Q252 355 278 350L376 329Q449 314 487 273Q525 232 525 176Q525 131 505.5 97.5Q486 64 455 41Q424 18 385 5.5Q346 -7 307 -10L302 -36Q323 -36 346.5 -39Q370 -42 390.5 -50.5Q411 -59 424 -75Q437 -91 437 -116Q437 -141 424.5 -160Q412 -179 390 -192Q368 -205 339.5 -212Q311 -219 278 -219Z" glyph-name="scedilla" horiz-adv-x="551" unicode="&#351;" /><glyph d="M209 762H345L470 580H327L274 666L218 580H77ZM275 -12Q239 -12 206 -9.5Q173 -7 142 1Q111 9 81.5 23Q52 37 22 60L108 175Q137 151 179 133Q221 115 263 115Q275 115 287.5 116Q300 117 310.5 121Q321 125 328 131.5Q335 138 335 149Q335 169 320 176.5Q305 184 283 189Q279 190 254 196Q229 202 177 215Q114 231 78.5 265Q43 299 43 359Q43 397 59 431Q75 465 105 490.5Q135 516 178 530.5Q221 545 274 545Q313 545 343.5 541.5Q374 538 400.5 530.5Q427 523 450.5 511Q474 499 500 482L403 376Q376 397 341 408Q306 419 278 419Q215 419 215 386Q215 370 230.5 363.5Q246 357 268 352L376 329Q449 314 487 273Q525 232 525 176Q525 126 502 90.5Q479 55 442.5 32Q406 9 361.5 -1.5Q317 -12 275 -12Z" glyph-name="scircumflex" horiz-adv-x="551" unicode="&#349;" /><glyph d="M222 -33H384L344 -197H210ZM275 -12Q239 -12 206 -9.5Q173 -7 142 1Q111 9 81.5 23Q52 37 22 60L108 175Q137 151 179 133Q221 115 263 115Q275 115 287.5 116Q300 117 310.5 121Q321 125 328 131.5Q335 138 335 149Q335 169 320 176.5Q305 184 283 189Q279 190 254 196Q229 202 177 215Q114 231 78.5 265Q43 299 43 359Q43 397 59 431Q75 465 105 490.5Q135 516 178 530.5Q221 545 274 545Q313 545 343.5 541.5Q374 538 400.5 530.5Q427 523 450.5 511Q474 499 500 482L403 376Q376 397 341 408Q306 419 278 419Q215 419 215 386Q215 370 230.5 363.5Q246 357 268 352L376 329Q449 314 487 273Q525 232 525 176Q525 126 502 90.5Q479 55 442.5 32Q406 9 361.5 -1.5Q317 -12 275 -12Z" glyph-name="scommaaccent" horiz-adv-x="551" unicode="&#537;" /><glyph d="M325 233Q350 242 360.5 259Q371 276 371 289Q371 306 358.5 316.5Q346 327 317 336L219 368Q182 350 182 313Q182 302 188.5 293Q195 284 205 276.5Q215 269 226.5 263.5Q238 258 248 255ZM262 -140Q226 -140 186.5 -132Q147 -124 113.5 -104Q80 -84 58.5 -51Q37 -18 37 32V69H168V50Q168 35 173.5 21Q179 7 191 -4Q203 -15 222 -21.5Q241 -28 269 -28Q299 -28 318 -21Q337 -14 348 -3.5Q359 7 363 18.5Q367 30 367 40Q367 67 349 79.5Q331 92 308 99L197 134Q168 143 141 157Q114 171 93 190.5Q72 210 59.5 235.5Q47 261 47 295Q47 333 63 365Q79 397 111 420Q47 458 47 544Q47 584 62.5 617.5Q78 651 107 674.5Q136 698 178 711Q220 724 273 724Q321 724 361.5 713Q402 702 432 680.5Q462 659 478.5 626Q495 593 495 550V516H367V544Q367 557 362 569.5Q357 582 345 592Q333 602 314 608.5Q295 615 267 615Q222 615 201.5 599Q181 583 181 560Q181 548 188.5 538.5Q196 529 207.5 522Q219 515 233 509.5Q247 504 261 499L358 465Q383 456 409 444.5Q435 433 456 415Q477 397 490.5 371.5Q504 346 504 309Q504 270 487.5 238Q471 206 441 180Q476 160 491 128Q506 96 506 54Q506 13 489 -22.5Q472 -58 440.5 -84Q409 -110 363.5 -125Q318 -140 262 -140Z" glyph-name="section" horiz-adv-x="544" unicode="&#167;" /><glyph d="M54 532H241V349H54ZM118 1H54V182H241V11L170 -141H83Z" glyph-name="semicolon" horiz-adv-x="295" unicode=";" /><glyph d="M119 0Q120 73 141.5 151.5Q163 230 196.5 303.5Q230 377 272.5 442Q315 507 359 555H43V713H567V578Q528 542 485 484.5Q442 427 405.5 352.5Q369 278 344.5 188.5Q320 99 320 0Z" glyph-name="seven" horiz-adv-x="603" unicode="7" /><glyph d="M80 0Q81 39 92.5 79.5Q104 120 122.5 158Q141 196 164.5 230Q188 264 213 291H38V395H350V303Q327 282 304 252.5Q281 223 261.5 185Q242 147 230 100.5Q218 54 218 0Z" glyph-name="seven.dnom" horiz-adv-x="388" /><glyph d="M80 316Q81 355 92.5 395.5Q104 436 122.5 474Q141 512 164.5 546Q188 580 213 607H38V711H350V619Q327 598 304 568.5Q281 539 261.5 501Q242 463 230 416.5Q218 370 218 316Z" glyph-name="seven.numr" horiz-adv-x="388" /><glyph d="M119 -175Q120 -102 141.5 -23.5Q163 55 196.5 128.5Q230 202 272.5 267Q315 332 359 380H43V538H567V403Q528 367 485 309.5Q442 252 405.5 177.5Q369 103 344.5 13.5Q320 -76 320 -175Z" glyph-name="seven.osf" horiz-adv-x="603" /><glyph d="M113 0Q114 73 135 151.5Q156 230 188.5 303.5Q221 377 262.5 442Q304 507 348 555H38V713H552V578Q514 542 471.5 484.5Q429 427 393.5 352.5Q358 278 334 188.5Q310 99 310 0Z" glyph-name="seven.tf" horiz-adv-x="590" /><glyph d="M113 -175Q114 -102 135 -23.5Q156 55 188.5 128.5Q221 202 262.5 267Q304 332 348 380H38V538H552V403Q514 367 471.5 309.5Q429 252 393.5 177.5Q358 103 334 13.5Q310 -76 310 -175Z" glyph-name="seven.tosf" horiz-adv-x="590" /><glyph d="M556 717H659L261 -2H158ZM105 318Q106 357 117.5 397.5Q129 438 147.5 476Q166 514 189.5 548Q213 582 238 609H63V713H375V621Q352 600 329 570.5Q306 541 286.5 503Q267 465 255 418.5Q243 372 243 318ZM670 233Q687 233 697 241Q707 249 707 265V283Q707 302 695 309.5Q683 317 669 317Q655 317 644 309.5Q633 302 633 288V264Q633 248 643 240.5Q653 233 670 233ZM670 71Q707 71 707 103V122Q707 141 695 148.5Q683 156 669 156Q655 156 644 148.5Q633 141 633 127V102Q633 87 643 79Q653 71 670 71ZM670 -12Q635 -12 605.5 -6Q576 0 554 13Q532 26 519.5 47.5Q507 69 507 99V119Q507 146 521.5 165.5Q536 185 556 196Q537 204 525.5 224.5Q514 245 514 265V287Q514 315 526.5 336Q539 357 560 371.5Q581 386 609 393.5Q637 401 669 401Q701 401 729.5 394Q758 387 779.5 373Q801 359 813.5 338Q826 317 826 289V266Q826 242 813.5 223.5Q801 205 784 196Q804 188 818 167Q832 146 832 123V96Q832 70 819 49.5Q806 29 784 15.5Q762 2 732.5 -5Q703 -12 670 -12Z" glyph-name="seveneighths" horiz-adv-x="876" unicode="&#8542;" /><glyph d="M314 139Q352 139 372 158Q392 177 392 203V268Q392 286 384 298Q376 310 364.5 317Q353 324 339.5 327Q326 330 314 330Q302 330 288.5 326Q275 322 264 313Q253 304 246 288.5Q239 273 239 250V207Q239 178 258.5 158.5Q278 139 314 139ZM308 -12Q255 -12 206.5 2Q158 16 120 44Q82 72 59.5 112Q37 152 37 205V505Q37 559 60 600Q83 641 122 668.5Q161 696 211.5 710.5Q262 725 317 725Q375 725 422 712Q469 699 502 674Q535 649 553 613Q571 577 571 531V496H387V515Q387 545 367 560Q347 575 315 575Q279 575 259 556Q239 537 239 506V402Q271 425 310.5 439Q350 453 400 453Q443 453 477.5 441Q512 429 535 407Q558 385 570.5 355.5Q583 326 583 291V193Q583 142 560.5 103.5Q538 65 499.5 39.5Q461 14 411.5 1Q362 -12 308 -12Z" glyph-name="six" horiz-adv-x="620" unicode="6" /><glyph d="M196 78Q215 78 225 87Q235 96 235 109V144Q235 163 222 169.5Q209 176 198 176Q186 176 172.5 167Q159 158 159 135V111Q159 97 168.5 87.5Q178 78 196 78ZM195 -12Q163 -12 133.5 -4Q104 4 81.5 20Q59 36 45 59Q31 82 31 112V278Q31 308 45 331.5Q59 355 82 370.5Q105 386 135 394Q165 402 198 402Q267 402 309 373Q351 344 351 292V270H231V280Q231 295 221.5 303.5Q212 312 197 312Q178 312 168.5 302Q159 292 159 277V224Q176 238 199 244.5Q222 251 248 251Q302 251 329.5 224Q357 197 357 158V106Q357 77 343.5 55Q330 33 307.5 18Q285 3 256 -4.5Q227 -12 195 -12Z" glyph-name="six.dnom" horiz-adv-x="388" /><glyph d="M196 394Q215 394 225 403Q235 412 235 425V460Q235 479 222 485.5Q209 492 198 492Q186 492 172.5 483Q159 474 159 451V427Q159 413 168.5 403.5Q178 394 196 394ZM195 304Q163 304 133.5 312Q104 320 81.5 336Q59 352 45 375Q31 398 31 428V594Q31 624 45 647.5Q59 671 82 686.5Q105 702 135 710Q165 718 198 718Q267 718 309 689Q351 660 351 608V586H231V596Q231 611 221.5 619.5Q212 628 197 628Q178 628 168.5 618Q159 608 159 593V540Q176 554 199 560.5Q222 567 248 567Q302 567 329.5 540Q357 513 357 474V422Q357 393 343.5 371Q330 349 307.5 334Q285 319 256 311.5Q227 304 195 304Z" glyph-name="six.numr" horiz-adv-x="388" /><glyph d="M314 139Q352 139 372 158Q392 177 392 203V268Q392 286 384 298Q376 310 364.5 317Q353 324 339.5 327Q326 330 314 330Q302 330 288.5 326Q275 322 264 313Q253 304 246 288.5Q239 273 239 250V207Q239 178 258.5 158.5Q278 139 314 139ZM308 -12Q255 -12 206.5 2Q158 16 120 44Q82 72 59.5 112Q37 152 37 205V505Q37 559 60 600Q83 641 122 668.5Q161 696 211.5 710.5Q262 725 317 725Q375 725 422 712Q469 699 502 674Q535 649 553 613Q571 577 571 531V496H387V515Q387 545 367 560Q347 575 315 575Q279 575 259 556Q239 537 239 506V402Q271 425 310.5 439Q350 453 400 453Q443 453 477.5 441Q512 429 535 407Q558 385 570.5 355.5Q583 326 583 291V193Q583 142 560.5 103.5Q538 65 499.5 39.5Q461 14 411.5 1Q362 -12 308 -12Z" glyph-name="six.osf" horiz-adv-x="620" /><glyph d="M299 139Q337 139 356 158Q375 177 375 203V268Q375 286 367.5 298Q360 310 348.5 317Q337 324 323.5 327Q310 330 299 330Q287 330 273.5 326Q260 322 249.5 313Q239 304 232 288.5Q225 273 225 250V207Q225 178 244.5 158.5Q264 139 299 139ZM293 -12Q242 -12 194 2Q146 16 109 44Q72 72 49.5 112Q27 152 27 205V505Q27 559 50 600Q73 641 111 668.5Q149 696 198.5 710.5Q248 725 302 725Q359 725 405 712Q451 699 483.5 674Q516 649 533.5 613Q551 577 551 531V496H370V515Q370 545 350.5 560Q331 575 300 575Q265 575 245 556Q225 537 225 506V402Q256 425 295 439Q334 453 383 453Q426 453 459 441Q492 429 515 407Q538 385 550 355.5Q562 326 562 291V193Q562 142 540 103.5Q518 65 480.5 39.5Q443 14 394.5 1Q346 -12 293 -12Z" glyph-name="six.tf" horiz-adv-x="590" /><glyph d="M299 139Q337 139 356 158Q375 177 375 203V268Q375 286 367.5 298Q360 310 348.5 317Q337 324 323.5 327Q310 330 299 330Q287 330 273.5 326Q260 322 249.5 313Q239 304 232 288.5Q225 273 225 250V207Q225 178 244.5 158.5Q264 139 299 139ZM293 -12Q242 -12 194 2Q146 16 109 44Q72 72 49.5 112Q27 152 27 205V505Q27 559 50 600Q73 641 111 668.5Q149 696 198.5 710.5Q248 725 302 725Q359 725 405 712Q451 699 483.5 674Q516 649 533.5 613Q551 577 551 531V496H370V515Q370 545 350.5 560Q331 575 300 575Q265 575 245 556Q225 537 225 506V402Q256 425 295 439Q334 453 383 453Q426 453 459 441Q492 429 515 407Q538 385 550 355.5Q562 326 562 291V193Q562 142 540 103.5Q518 65 480.5 39.5Q443 14 394.5 1Q346 -12 293 -12Z" glyph-name="six.tosf" horiz-adv-x="590" /><glyph d="M233 718H356L94 -178H-32Z" glyph-name="slash" horiz-adv-x="365" unicode="/" /><glyph glyph-name="space" horiz-adv-x="230" unicode=" " /><glyph d="M44 150H124V279H65V399H124V511Q124 572 147.5 613Q171 654 207 679Q243 704 287 714.5Q331 725 373 725Q416 725 456.5 713.5Q497 702 528.5 678.5Q560 655 579.5 618.5Q599 582 599 532V484H435V514Q435 542 418.5 559.5Q402 577 371 577Q339 577 323.5 557Q308 537 308 514V399H477V279H308V150H610L579 0H44Z" glyph-name="sterling" horiz-adv-x="638" unicode="&#163;" /><glyph d="M43 150H117V284H62V410H117V511Q117 572 138 613Q159 654 192 679Q225 704 265.5 714.5Q306 725 345 725Q384 725 420.5 713.5Q457 702 485.5 678.5Q514 655 531.5 618.5Q549 582 549 532V484H399V514Q399 542 385 559.5Q371 577 342 577Q313 577 303 557Q293 537 293 514V410H438V284H293V150H560L532 0H43Z" glyph-name="sterling.tf" horiz-adv-x="590" /><glyph d="M44 2 299 301 39 579V713H593V554H297L519 323V288L290 25H593V-133H44Z" glyph-name="summation" horiz-adv-x="630" unicode="&#8721;" /><glyph d="M252 -10Q222 -10 192 -3Q162 4 138 21Q114 38 99.5 67Q85 96 85 141V391H19V523H85V669H272V523H383V391H272V188Q272 171 281 158.5Q290 146 316 146Q333 146 348.5 147Q364 148 380 150V9Q348 -1 314.5 -5.5Q281 -10 252 -10Z" glyph-name="t" horiz-adv-x="407" unicode="t" /><glyph d="M33 326H85V391H19V523H85V669H272V523H383V391H272V326H345V223H272V188Q272 171 281 158.5Q290 146 316 146Q333 146 348.5 147Q364 148 380 150V9Q348 -1 314.5 -5.5Q281 -10 252 -10Q222 -10 192 -3Q162 4 138 21Q114 38 99.5 67Q85 96 85 141V223H33Z" glyph-name="tbar" horiz-adv-x="407" unicode="&#359;" /><glyph d="M320 713H462L413 562H306ZM252 -10Q222 -10 192 -3Q162 4 138 21Q114 38 99.5 67Q85 96 85 141V391H19V523H85V669H272V523H383V391H272V188Q272 171 281 158.5Q290 146 316 146Q333 146 348.5 147Q364 148 380 150V9Q348 -1 314.5 -5.5Q281 -10 252 -10Z" glyph-name="tcaron" horiz-adv-x="434" unicode="&#357;" /><glyph d="M230 -218Q206 -218 175.5 -214Q145 -210 114 -202V-127Q143 -134 172 -138.5Q201 -143 220 -143Q245 -143 254.5 -136.5Q264 -130 264 -117Q264 -110 259 -105.5Q254 -101 247 -99Q240 -97 231 -96.5Q222 -96 215 -95L167 -93L188 -2Q145 9 115 42Q85 75 85 141V391H19V523H85V669H272V523H383V391H272V188Q272 171 281 158.5Q290 146 316 146Q333 146 348.5 147Q364 148 380 150V9Q349 0 318.5 -4.5Q288 -9 259 -10L254 -35Q275 -35 298.5 -38Q322 -41 342.5 -49.5Q363 -58 376 -74Q389 -90 389 -115Q389 -140 376.5 -159Q364 -178 342 -191Q320 -204 291.5 -211Q263 -218 230 -218Z" glyph-name="tcommaaccent" horiz-adv-x="407" unicode="&#355;" /><glyph d="M315 118Q329 118 342.5 122.5Q356 127 366.5 136.5Q377 146 383.5 160.5Q390 175 390 195V327Q390 365 368 385Q346 405 317 405Q303 405 288.5 401Q274 397 263 387.5Q252 378 245 361Q238 344 238 317V195Q238 174 245 159Q252 144 263.5 135Q275 126 288.5 122Q302 118 315 118ZM51 713H237V467H239Q268 505 309.5 525Q351 545 391 545Q482 545 529.5 493Q577 441 577 352V176Q577 134 560.5 99Q544 64 516 39Q488 14 449.5 0.5Q411 -13 368 -13Q332 -13 296.5 3Q261 19 240 45H238V-186H51Z" glyph-name="thorn" horiz-adv-x="610" unicode="&#254;" /><glyph d="M292 -12Q169 -12 105.5 40Q42 92 42 192V218H226V199Q226 166 247 151.5Q268 137 307 137Q338 137 357.5 158.5Q377 180 377 216Q377 239 366.5 253.5Q356 268 341.5 276Q327 284 311 287Q295 290 284 290H234V423H285Q324 423 347 438Q370 453 370 497Q370 534 348.5 551.5Q327 569 299 569Q258 569 244 551.5Q230 534 230 508V492H47V517Q47 563 64.5 601.5Q82 640 115 667.5Q148 695 195.5 710Q243 725 303 725Q363 725 410.5 710.5Q458 696 490 669.5Q522 643 539 606Q556 569 556 524Q556 465 527 424Q498 383 449 367V362Q506 348 541 305Q576 262 576 200Q576 140 551 99.5Q526 59 486 34Q446 9 395 -1.5Q344 -12 292 -12Z" glyph-name="three" horiz-adv-x="609" unicode="3" /><glyph d="M186 -12Q113 -12 72.5 17.5Q32 47 32 106V120H155V113Q155 99 163 88Q171 77 194 77Q210 77 217.5 88Q225 99 225 118Q225 141 210.5 148.5Q196 156 177 156H151V233H178Q201 233 212 240.5Q223 248 223 272Q223 310 189 310Q166 310 161 298Q156 286 156 273V268H35V282Q35 336 76.5 369Q118 402 190 402Q263 402 303.5 371.5Q344 341 344 288Q344 255 327 232Q310 209 281 200V198Q315 190 335.5 166Q356 142 356 108Q356 73 340 50Q324 27 299 13.5Q274 0 244 -6Q214 -12 186 -12Z" glyph-name="three.dnom" horiz-adv-x="388" /><glyph d="M186 304Q113 304 72.5 333.5Q32 363 32 422V436H155V429Q155 415 163 404Q171 393 194 393Q210 393 217.5 404Q225 415 225 434Q225 457 210.5 464.5Q196 472 177 472H151V549H178Q201 549 212 556.5Q223 564 223 588Q223 626 189 626Q166 626 161 614Q156 602 156 589V584H35V598Q35 652 76.5 685Q118 718 190 718Q263 718 303.5 687.5Q344 657 344 604Q344 571 327 548Q310 525 281 516V514Q315 506 335.5 482Q356 458 356 424Q356 389 340 366Q324 343 299 329.5Q274 316 244 310Q214 304 186 304Z" glyph-name="three.numr" horiz-adv-x="388" /><glyph d="M292 -190Q169 -190 105.5 -138Q42 -86 42 14V40H226V21Q226 -12 247 -26.5Q268 -41 307 -41Q338 -41 357.5 -19.5Q377 2 377 38Q377 61 366.5 75.5Q356 90 341.5 98Q327 106 311 109Q295 112 284 112H234V245H285Q324 245 347 260Q370 275 370 319Q370 356 348.5 373.5Q327 391 299 391Q258 391 244 373.5Q230 356 230 330V314H47V339Q47 385 64.5 423.5Q82 462 115 489.5Q148 517 195.5 532Q243 547 303 547Q363 547 410.5 532.5Q458 518 490 491.5Q522 465 539 428Q556 391 556 346Q556 287 527 246Q498 205 449 189V184Q506 170 541 127Q576 84 576 22Q576 -38 551 -78.5Q526 -119 486 -144Q446 -169 395 -179.5Q344 -190 292 -190Z" glyph-name="three.osf" horiz-adv-x="608" /><glyph d="M278 -12Q157 -12 95 40Q33 92 33 192V218H213V199Q213 166 234 151.5Q255 137 293 137Q323 137 342 158.5Q361 180 361 216Q361 239 351 253.5Q341 268 326.5 276Q312 284 296.5 287Q281 290 270 290H221V423H271Q309 423 332 438Q355 453 355 497Q355 534 333.5 551.5Q312 569 285 569Q245 569 231 551.5Q217 534 217 508V492H38V517Q38 563 55 601.5Q72 640 104.5 667.5Q137 695 183.5 710Q230 725 289 725Q348 725 394.5 710.5Q441 696 472.5 669.5Q504 643 520.5 606Q537 569 537 524Q537 465 508.5 424Q480 383 432 367V362Q488 348 522 305Q556 262 556 200Q556 140 531.5 99.5Q507 59 468 34Q429 9 379 -1.5Q329 -12 278 -12Z" glyph-name="three.tf" horiz-adv-x="590" /><glyph d="M278 -187Q157 -187 95 -135Q33 -83 33 17V43H213V24Q213 -9 234 -23.5Q255 -38 293 -38Q323 -38 342 -16.5Q361 5 361 41Q361 64 351 78.5Q341 93 326.5 101Q312 109 296.5 112Q281 115 270 115H221V248H271Q309 248 332 263Q355 278 355 322Q355 359 333.5 376.5Q312 394 285 394Q245 394 231 376.5Q217 359 217 333V317H38V342Q38 388 55 426.5Q72 465 104.5 492.5Q137 520 183.5 535Q230 550 289 550Q348 550 394.5 535.5Q441 521 472.5 494.5Q504 468 520.5 431Q537 394 537 349Q537 290 508.5 249Q480 208 432 192V187Q488 173 522 130Q556 87 556 25Q556 -35 531.5 -75.5Q507 -116 468 -141Q429 -166 379 -176.5Q329 -187 278 -187Z" glyph-name="three.tosf" horiz-adv-x="590" /><glyph d="M183 306Q110 306 69.5 335.5Q29 365 29 424V438H152V431Q152 417 160 406Q168 395 191 395Q207 395 214.5 406Q222 417 222 436Q222 459 207.5 466.5Q193 474 174 474H148V551H175Q198 551 209 558.5Q220 566 220 590Q220 628 186 628Q163 628 158 616Q153 604 153 591V586H32V600Q32 654 73.5 687Q115 720 187 720Q260 720 300.5 689.5Q341 659 341 606Q341 573 324 550Q307 527 278 518V516Q312 508 332.5 484Q353 460 353 426Q353 391 337 368Q321 345 296 331.5Q271 318 241 312Q211 306 183 306ZM572 717H675L277 -2H174ZM679 233Q696 233 706 241Q716 249 716 265V283Q716 302 704 309.5Q692 317 678 317Q664 317 653 309.5Q642 302 642 288V264Q642 248 652 240.5Q662 233 679 233ZM679 71Q716 71 716 103V122Q716 141 704 148.5Q692 156 678 156Q664 156 653 148.5Q642 141 642 127V102Q642 87 652 79Q662 71 679 71ZM679 -12Q644 -12 614.5 -6Q585 0 563 13Q541 26 528.5 47.5Q516 69 516 99V119Q516 146 530.5 165.5Q545 185 565 196Q546 204 534.5 224.5Q523 245 523 265V287Q523 315 535.5 336Q548 357 569 371.5Q590 386 618 393.5Q646 401 678 401Q710 401 738.5 394Q767 387 788.5 373Q810 359 822.5 338Q835 317 835 289V266Q835 242 822.5 223.5Q810 205 793 196Q813 188 827 167Q841 146 841 123V96Q841 70 828 49.5Q815 29 793 15.5Q771 2 741.5 -5Q712 -12 679 -12Z" glyph-name="threeeighths" horiz-adv-x="876" unicode="&#8540;" /><glyph d="M581 717H684L286 -2H183ZM191 306Q118 306 77.5 335.5Q37 365 37 424V438H160V431Q160 417 168 406Q176 395 199 395Q215 395 222.5 406Q230 417 230 436Q230 459 215.5 466.5Q201 474 182 474H156V551H183Q206 551 217 558.5Q228 566 228 590Q228 628 194 628Q171 628 166 616Q161 604 161 591V586H40V600Q40 654 81.5 687Q123 720 195 720Q268 720 308.5 689.5Q349 659 349 606Q349 573 332 550Q315 527 286 518V516Q320 508 340.5 484Q361 460 361 426Q361 391 345 368Q329 345 304 331.5Q279 318 249 312Q219 306 191 306ZM669 77H489V160L640 399H773L611 165H669V204L783 280V165H821V77H783V0H669Z" glyph-name="threequarters" horiz-adv-x="876" unicode="&#190;" /><glyph d="M186 368Q113 368 72.5 397.5Q32 427 32 486V500H155V493Q155 479 163 468Q171 457 194 457Q210 457 217.5 468Q225 479 225 498Q225 521 210.5 528.5Q196 536 177 536H151V613H178Q201 613 212 620.5Q223 628 223 652Q223 690 189 690Q166 690 161 678Q156 666 156 653V648H35V662Q35 716 76.5 749Q118 782 190 782Q263 782 303.5 751.5Q344 721 344 668Q344 635 327 612Q310 589 281 580V578Q315 570 335.5 546Q356 522 356 488Q356 453 340 430Q324 407 299 393.5Q274 380 244 374Q214 368 186 368Z" glyph-name="threesuperior" horiz-adv-x="388" unicode="&#179;" /><glyph d="M63 592Q68 622 79.5 649.5Q91 677 109 697Q127 717 151.5 729Q176 741 207 741Q230 741 252.5 735.5Q275 730 297 723.5Q319 717 341.5 711.5Q364 706 387 706Q408 706 416 721Q424 736 430 759L524 735Q520 706 510 679.5Q500 653 483.5 633Q467 613 443 600.5Q419 588 387 588Q364 588 341 593Q318 598 296.5 604.5Q275 611 254 616Q233 621 213 621Q191 621 181.5 610Q172 599 163 571Z" glyph-name="tilde" horiz-adv-x="588" unicode="&#732;" /><glyph d="M-508 592Q-503 622 -491.5 649.5Q-480 677 -462 697Q-444 717 -419.5 729Q-395 741 -364 741Q-341 741 -318.5 735.5Q-296 730 -274 723.5Q-252 717 -229.5 711.5Q-207 706 -184 706Q-163 706 -155 721Q-147 736 -141 759L-47 735Q-51 706 -61 679.5Q-71 653 -87.5 633Q-104 613 -128 600.5Q-152 588 -184 588Q-207 588 -230 593Q-253 598 -274.5 604.5Q-296 611 -317 616Q-338 621 -358 621Q-380 621 -389.5 610Q-399 599 -408 571Z" glyph-name="tildecomb" horiz-adv-x="1" unicode="&#771;" /><glyph d="M-508 773Q-503 803 -491.5 830Q-480 857 -462 877Q-444 897 -419.5 909Q-395 921 -364 921Q-341 921 -318.5 915.5Q-296 910 -274 904Q-252 898 -229.5 892.5Q-207 887 -184 887Q-173 887 -166 891.5Q-159 896 -154.5 903Q-150 910 -147 919.5Q-144 929 -141 940L-48 915Q-52 887 -61.5 860.5Q-71 834 -87.5 813.5Q-104 793 -128 780.5Q-152 768 -184 768Q-207 768 -230 773Q-253 778 -275 784.5Q-297 791 -318 796Q-339 801 -358 801Q-380 801 -389.5 790.5Q-399 780 -409 751Z" glyph-name="tildecomb.case" horiz-adv-x="1" /><glyph d="M125 632H43V713H303V632H221V395H125ZM338 713H454L494 592L533 713H649V395H561V562L524 445H462L425 561V395H338Z" glyph-name="trademark" horiz-adv-x="695" unicode="&#8482;" /><glyph d="M64 110 287 365Q309 391 324 410Q339 429 347 444.5Q355 460 358.5 473Q362 486 362 499V512Q362 538 347.5 557.5Q333 577 294 577Q255 577 240 553Q225 529 225 495V474H43V513Q43 566 63 606Q83 646 118 673Q153 700 201.5 713.5Q250 727 307 727Q368 727 414.5 710.5Q461 694 492 664.5Q523 635 538.5 595Q554 555 554 509Q554 465 535.5 425Q517 385 489 348.5Q461 312 429 279.5Q397 247 369 218L313 159V157H560V0H64Z" glyph-name="two" horiz-adv-x="602" unicode="2" /><glyph d="M51 71 170 199Q196 226 207 243Q218 260 218 279V284Q218 298 210 306Q202 314 185 314Q170 314 163.5 303Q157 292 157 274V262H40V285Q40 315 52 338Q64 361 85 376.5Q106 392 134.5 399.5Q163 407 196 407Q267 407 304.5 373.5Q342 340 342 284Q342 260 333 238.5Q324 217 310 198Q296 179 279.5 161.5Q263 144 247 129L215 98V97H347V0H51Z" glyph-name="two.dnom" horiz-adv-x="388" /><glyph d="M51 387 170 515Q196 542 207 559Q218 576 218 595V600Q218 614 210 622Q202 630 185 630Q170 630 163.5 619Q157 608 157 590V578H40V601Q40 631 52 654Q64 677 85 692.5Q106 708 134.5 715.5Q163 723 196 723Q267 723 304.5 689.5Q342 656 342 600Q342 576 333 554.5Q324 533 310 514Q296 495 279.5 477.5Q263 460 247 445L215 414V413H347V316H51Z" glyph-name="two.numr" horiz-adv-x="388" /><glyph d="M38 126Q88 158 142.5 188.5Q197 219 242.5 246.5Q288 274 317.5 299Q347 324 347 345V354Q347 374 333.5 388.5Q320 403 281 403Q243 403 228 379.5Q213 356 213 322V301H31V340Q31 392 51.5 432Q72 472 107.5 499Q143 526 192 539.5Q241 553 298 553Q421 553 480 503.5Q539 454 539 373Q539 326 519.5 294Q500 262 465.5 237Q431 212 384 190.5Q337 169 281 142V140H551V0H38Z" glyph-name="two.osf" horiz-adv-x="588" /><glyph d="M63 110 281 365Q303 391 317.5 410Q332 429 340 444.5Q348 460 351.5 473Q355 486 355 499V512Q355 538 340.5 557.5Q326 577 288 577Q250 577 235 553Q220 529 220 495V474H42V513Q42 566 61.5 606Q81 646 115.5 673Q150 700 197.5 713.5Q245 727 301 727Q361 727 406.5 710.5Q452 694 482 664.5Q512 635 527.5 595Q543 555 543 509Q543 465 525 425Q507 385 479.5 348.5Q452 312 420.5 279.5Q389 247 362 218L307 159V157H549V0H63Z" glyph-name="two.tf" horiz-adv-x="590" /><glyph d="M47 126Q96 158 150 188.5Q204 219 248 246.5Q292 274 321 299Q350 324 350 345V354Q350 374 336.5 388.5Q323 403 285 403Q247 403 233 379.5Q219 356 219 322V301H40V340Q40 392 60 432Q80 472 115 499Q150 526 198 539.5Q246 553 302 553Q423 553 480.5 503.5Q538 454 538 373Q538 326 519 294Q500 262 466 237Q432 212 386 190.5Q340 169 285 142V140H550V0H47Z" glyph-name="two.tosf" horiz-adv-x="590" /><glyph d="M51 451 170 579Q196 606 207 623Q218 640 218 659V664Q218 678 210 686Q202 694 185 694Q170 694 163.5 683Q157 672 157 654V642H40V665Q40 695 52 718Q64 741 85 756.5Q106 772 134.5 779.5Q163 787 196 787Q267 787 304.5 753.5Q342 720 342 664Q342 640 333 618.5Q324 597 310 578Q296 559 279.5 541.5Q263 524 247 509L215 478V477H347V380H51Z" glyph-name="twosuperior" horiz-adv-x="388" unicode="&#178;" /><glyph d="M669 -12Q596 -12 555.5 17.5Q515 47 515 106V120H638V113Q638 99 646 88Q654 77 677 77Q693 77 700.5 88Q708 99 708 118Q708 141 693.5 148.5Q679 156 660 156H634V233H661Q684 233 695 240.5Q706 248 706 272Q706 310 672 310Q649 310 644 298Q639 286 639 273V268H518V282Q518 336 559.5 369Q601 402 673 402Q746 402 786.5 371.5Q827 341 827 288Q827 255 810 232Q793 209 764 200V198Q798 190 818.5 166Q839 142 839 108Q839 73 823 50Q807 27 782 13.5Q757 0 727 -6Q697 -12 669 -12ZM576 717H679L281 -2H178ZM37 389 156 517Q182 544 193 561Q204 578 204 597V602Q204 616 196 624Q188 632 171 632Q156 632 149.5 621Q143 610 143 592V580H26V603Q26 633 38 656Q50 679 71 694.5Q92 710 120.5 717.5Q149 725 182 725Q253 725 290.5 691.5Q328 658 328 602Q328 578 319 556.5Q310 535 296 516Q282 497 265.5 479.5Q249 462 233 447L201 416V415H333V318H37Z" glyph-name="twothirds" horiz-adv-x="876" unicode="&#8532;" /><glyph d="M222 -12Q191 -12 160.5 -2.5Q130 7 106 26.5Q82 46 67.5 77Q53 108 53 151V532H240V220Q240 205 243 189Q246 173 254 160.5Q262 148 276 140Q290 132 313 132Q343 132 364.5 156.5Q386 181 386 231V532H573V0H390V77H388Q326 -12 222 -12Z" glyph-name="u" horiz-adv-x="624" unicode="u" /><glyph d="M337 757H512L371 579H249ZM222 -12Q191 -12 160.5 -2.5Q130 7 106 26.5Q82 46 67.5 77Q53 108 53 151V532H240V220Q240 205 243 189Q246 173 254 160.5Q262 148 276 140Q290 132 313 132Q343 132 364.5 156.5Q386 181 386 231V532H573V0H390V77H388Q326 -12 222 -12Z" glyph-name="uacute" horiz-adv-x="624" unicode="&#250;" /><glyph d="M313 574Q227 574 178.5 621.5Q130 669 127 748H237Q245 713 264 695Q283 677 318 677Q341 677 361.5 694.5Q382 712 390 748H498Q497 704 481 671.5Q465 639 439 617.5Q413 596 380 585Q347 574 313 574ZM222 -12Q191 -12 160.5 -2.5Q130 7 106 26.5Q82 46 67.5 77Q53 108 53 151V532H240V220Q240 205 243 189Q246 173 254 160.5Q262 148 276 140Q290 132 313 132Q343 132 364.5 156.5Q386 181 386 231V532H573V0H390V77H388Q326 -12 222 -12Z" glyph-name="ubreve" horiz-adv-x="624" unicode="&#365;" /><glyph d="M249 762H385L510 580H367L314 666L258 580H117ZM222 -12Q191 -12 160.5 -2.5Q130 7 106 26.5Q82 46 67.5 77Q53 108 53 151V532H240V220Q240 205 243 189Q246 173 254 160.5Q262 148 276 140Q290 132 313 132Q343 132 364.5 156.5Q386 181 386 231V532H573V0H390V77H388Q326 -12 222 -12Z" glyph-name="ucircumflex" horiz-adv-x="624" unicode="&#251;" /><glyph d="M346 747H504V584H346ZM122 747H280V584H122ZM222 -12Q191 -12 160.5 -2.5Q130 7 106 26.5Q82 46 67.5 77Q53 108 53 151V532H240V220Q240 205 243 189Q246 173 254 160.5Q262 148 276 140Q290 132 313 132Q343 132 364.5 156.5Q386 181 386 231V532H573V0H390V77H388Q326 -12 222 -12Z" glyph-name="udieresis" horiz-adv-x="624" unicode="&#252;" /><glyph d="M110 757H285L373 579H251ZM222 -12Q191 -12 160.5 -2.5Q130 7 106 26.5Q82 46 67.5 77Q53 108 53 151V532H240V220Q240 205 243 189Q246 173 254 160.5Q262 148 276 140Q290 132 313 132Q343 132 364.5 156.5Q386 181 386 231V532H573V0H390V77H388Q326 -12 222 -12Z" glyph-name="ugrave" horiz-adv-x="624" unicode="&#249;" /><glyph d="M422 757H582L461 580H349ZM215 757H376L255 580H143ZM222 -12Q191 -12 160.5 -2.5Q130 7 106 26.5Q82 46 67.5 77Q53 108 53 151V532H240V220Q240 205 243 189Q246 173 254 160.5Q262 148 276 140Q290 132 313 132Q343 132 364.5 156.5Q386 181 386 231V532H573V0H390V77H388Q326 -12 222 -12Z" glyph-name="uhungarumlaut" horiz-adv-x="624" unicode="&#369;" /><glyph d="M137 713H490V584H137ZM222 -12Q191 -12 160.5 -2.5Q130 7 106 26.5Q82 46 67.5 77Q53 108 53 151V532H240V220Q240 205 243 189Q246 173 254 160.5Q262 148 276 140Q290 132 313 132Q343 132 364.5 156.5Q386 181 386 231V532H573V0H390V77H388Q326 -12 222 -12Z" glyph-name="umacron" horiz-adv-x="624" unicode="&#363;" /><glyph d="M0 -36H500V-158H0Z" glyph-name="underscore" horiz-adv-x="500" unicode="_" /><glyph glyph-name="uni00A0" horiz-adv-x="230" unicode="&#160;" /><glyph d="M30 375H333V226H30Z" glyph-name="uni00AD" horiz-adv-x="362" unicode="&#173;" /><glyph d="M346 146Q402 146 430 174Q458 202 458 250V275H240V250Q240 200 270.5 173Q301 146 346 146ZM343 -12Q276 -12 220 5Q164 22 123.5 55.5Q83 89 60.5 138Q38 187 38 250V405H458V449Q458 501 426 533Q394 565 332 565Q313 565 294.5 559.5Q276 554 261 542.5Q246 531 236.5 513Q227 495 227 471V451H38V489Q38 552 66.5 597Q95 642 140 670.5Q185 699 240 712Q295 725 348 725Q413 725 470 707.5Q527 690 569 655.5Q611 621 635.5 568Q660 515 660 445V257Q660 187 633 136Q606 85 562 52Q518 19 461 3.5Q404 -12 343 -12Z" glyph-name="uni018F" horiz-adv-x="698" unicode="&#399;" /><glyph d="M94 426H261L357 554H48V713H603V575L493 426H564V296H398L297 159H602V0H36V123L165 296H94Z" glyph-name="uni01B5" horiz-adv-x="642" unicode="&#437;" /><glyph d="M75 326H219L279 393H46V532H504V411L428 326H479V223H338L266 139H507V0H37V116L129 223H75Z" glyph-name="uni01B6" horiz-adv-x="544" unicode="&#438;" /><glyph d="M250 -33H412L372 -197H238ZM224 555H23V713H627V555H426V0H224Z" glyph-name="uni021A" horiz-adv-x="650" unicode="&#538;" /><glyph d="M146 -33H308L268 -197H134ZM252 -10Q222 -10 192 -3Q162 4 138 21Q114 38 99.5 67Q85 96 85 141V391H19V523H85V669H272V523H383V391H272V188Q272 171 281 158.5Q290 146 316 146Q333 146 348.5 147Q364 148 380 150V9Q348 -1 314.5 -5.5Q281 -10 252 -10Z" glyph-name="uni021B" horiz-adv-x="407" unicode="&#539;" /><glyph d="M278 109Q308 109 329 128Q350 147 350 182V208H207V180Q207 144 227.5 126.5Q248 109 278 109ZM272 -14Q225 -14 182 0Q139 14 106 41.5Q73 69 53 110.5Q33 152 33 207V309H350V328Q350 349 340 364Q330 379 314.5 388Q299 397 279.5 401.5Q260 406 242 406Q224 406 202 402Q180 398 158.5 392.5Q137 387 119 380Q101 373 92 367L45 479Q92 511 150 527.5Q208 544 271 544Q322 544 370 532Q418 520 455.5 493.5Q493 467 515.5 425.5Q538 384 538 324V228Q538 165 515 119.5Q492 74 454.5 44Q417 14 369 0Q321 -14 272 -14Z" glyph-name="uni0259" horiz-adv-x="571" unicode="&#601;" /><glyph d="M-325 762H-189L-64 580H-207L-260 666L-316 580H-457Z" glyph-name="uni0302" horiz-adv-x="1" unicode="&#770;" /><glyph d="M-299 942H-163L-38 756H-181L-234 845L-290 756H-431Z" glyph-name="uni0302.case" horiz-adv-x="1" /><glyph d="M-437 713H-84V584H-437Z" glyph-name="uni0304" horiz-adv-x="1" unicode="&#772;" /><glyph d="M-430 896H-77V767H-430Z" glyph-name="uni0304.case" horiz-adv-x="1" /><glyph d="M-231 574Q-317 574 -365.5 621.5Q-414 669 -417 748H-307Q-299 713 -280 695Q-261 677 -226 677Q-203 677 -182.5 694.5Q-162 712 -154 748H-46Q-47 704 -63 671.5Q-79 639 -105 617.5Q-131 596 -164 585Q-197 574 -231 574Z" glyph-name="uni0306" horiz-adv-x="1" unicode="&#774;" /><glyph d="M-233 757Q-319 757 -367.5 804.5Q-416 852 -419 931H-309Q-301 896 -282 878Q-263 860 -228 860Q-205 860 -184.5 877.5Q-164 895 -156 931H-48Q-49 887 -65 854.5Q-81 822 -107 800.5Q-133 779 -166 768Q-199 757 -233 757Z" glyph-name="uni0306.case" horiz-adv-x="1" /><glyph d="M-271 743H-84V589H-271Z" glyph-name="uni0307" horiz-adv-x="1" unicode="&#775;" /><glyph d="M-259 920H-97V757H-259Z" glyph-name="uni0307.case" horiz-adv-x="1" /><glyph d="M-223 747H-65V584H-223ZM-447 747H-289V584H-447Z" glyph-name="uni0308" horiz-adv-x="1" unicode="&#776;" /><glyph d="M-242 920H-84V757H-242ZM-466 920H-308V757H-466Z" glyph-name="uni0308.case" horiz-adv-x="1" /><glyph d="M-197 625Q-175 625 -160 638.5Q-145 652 -145 673Q-145 695 -159 709Q-173 723 -197 723Q-220 723 -234 709Q-248 695 -248 673Q-248 653 -233 639Q-218 625 -197 625ZM-197 568Q-248 568 -282.5 595Q-317 622 -317 670Q-317 694 -307.5 713.5Q-298 733 -281.5 747.5Q-265 762 -243 770Q-221 778 -197 778Q-146 778 -111 752.5Q-76 727 -76 677Q-76 654 -86 634Q-96 614 -112.5 599.5Q-129 585 -151 576.5Q-173 568 -197 568Z" glyph-name="uni030A" horiz-adv-x="1" unicode="&#778;" /><glyph d="M-197 806Q-174 806 -159 819.5Q-144 833 -144 854Q-144 876 -158.5 890Q-173 904 -197 904Q-220 904 -234 890Q-248 876 -248 854Q-248 834 -233 820Q-218 806 -197 806ZM-197 749Q-248 749 -282.5 776Q-317 803 -317 851Q-317 875 -307.5 894.5Q-298 914 -281.5 928.5Q-265 943 -243 951Q-221 959 -197 959Q-146 959 -111 933.5Q-76 908 -76 858Q-76 835 -86 815Q-96 795 -112.5 780.5Q-129 766 -151 757.5Q-173 749 -197 749Z" glyph-name="uni030A.case" horiz-adv-x="1" /><glyph d="M-175 757H-15L-136 580H-248ZM-382 757H-221L-342 580H-454Z" glyph-name="uni030B" horiz-adv-x="1" unicode="&#779;" /><glyph d="M-192 942H-32L-157 756H-269ZM-399 942H-238L-363 756H-475Z" glyph-name="uni030B.case" horiz-adv-x="1" /><glyph d="M-456 760H-310L-260 681L-204 760H-63L-195 584H-331Z" glyph-name="uni030C" horiz-adv-x="1" unicode="&#780;" /><glyph d="M-433 946H-291L-238 856L-181 946H-40L-172 760H-309Z" glyph-name="uni030C.case" horiz-adv-x="1" /><glyph d="M-190 783H-75L-90 588H-242Z" glyph-name="uni0312" horiz-adv-x="1" unicode="&#786;" /><glyph d="M-223 713H-71L-123 555H-238Z" glyph-name="uni0313" horiz-adv-x="1" unicode="&#787;" /><glyph d="M-252 -33H-90L-130 -197H-264Z" glyph-name="uni0326" horiz-adv-x="1" unicode="&#806;" /><glyph d="M-203 -219Q-227 -219 -257.5 -215Q-288 -211 -319 -203V-128Q-290 -135 -261 -139.5Q-232 -144 -213 -144Q-188 -144 -178.5 -137.5Q-169 -131 -169 -118Q-169 -111 -174 -106.5Q-179 -102 -186 -100Q-193 -98 -202 -97.5Q-211 -97 -218 -96L-266 -94L-236 36H-163L-179 -36Q-158 -36 -134.5 -39Q-111 -42 -90.5 -50.5Q-70 -59 -57 -75Q-44 -91 -44 -116Q-44 -141 -56.5 -160Q-69 -179 -91 -192Q-113 -205 -141.5 -212Q-170 -219 -203 -219Z" glyph-name="uni0327" horiz-adv-x="1" unicode="&#807;" /><glyph d="M-190 -225Q-255 -225 -286 -197.5Q-317 -170 -317 -127Q-317 -93 -300.5 -64Q-284 -35 -257 -12Q-230 11 -196 27Q-162 43 -127 51L-87 0Q-109 -3 -129 -11Q-149 -19 -164 -29.5Q-179 -40 -188 -53Q-197 -66 -197 -79Q-197 -97 -186.5 -107Q-176 -117 -152 -117Q-141 -117 -123.5 -112Q-106 -107 -90 -97L-50 -190Q-78 -204 -112.5 -214.5Q-147 -225 -190 -225Z" glyph-name="uni0328" horiz-adv-x="1" unicode="&#808;" /><glyph d="M474 151 358 521H354L244 151ZM31 75 253 714H479L697 76V0H31Z" glyph-name="uni0394" horiz-adv-x="728" unicode="&#916;" /><glyph d="M49 164 206 158V169Q180 180 150.5 199.5Q121 219 96 250Q71 281 54.5 324.5Q38 368 38 427V436Q38 500 58 553Q78 606 117 644Q156 682 214 703.5Q272 725 349 725Q429 725 488 704Q547 683 586 645.5Q625 608 644.5 556.5Q664 505 664 443V427Q664 367 647 323Q630 279 605 248Q580 217 550.5 198Q521 179 496 169V158L654 164V0H379V158Q400 176 415 190.5Q430 205 439.5 226Q449 247 454 278.5Q459 310 459 360V464Q459 487 450 505.5Q441 524 426 537.5Q411 551 391 558.5Q371 566 349 566Q327 566 307.5 560Q288 554 273.5 541Q259 528 250.5 506.5Q242 485 242 455V369Q242 322 245.5 291Q249 260 258 237.5Q267 215 283 197Q299 179 324 158V0H49Z" glyph-name="uni03A9" horiz-adv-x="703" unicode="&#937;" /><glyph d="M53 532H239V206Q239 194 242.5 181Q246 168 255 157Q264 146 278 139Q292 132 313 132Q326 132 339 138Q352 144 362.5 155.5Q373 167 380 182.5Q387 198 387 218V532H573V208Q573 188 581.5 175Q590 162 615 160L613 -5Q547 -5 501 16Q455 37 437 82Q431 65 421.5 48.5Q412 32 397.5 18.5Q383 5 362 -3.5Q341 -12 313 -12Q269 -12 242.5 4.5Q216 21 205 47L197 45L246 -163L53 -178Z" glyph-name="uni03BC" horiz-adv-x="637" unicode="&#956;" /><glyph d="M269 920H431V757H269ZM214 369 14 713H232L347 500L461 713H661L460 365L675 0H459L329 231L204 0H-1Z" glyph-name="uni1E8A" horiz-adv-x="674" unicode="&#7818;" /><glyph d="M192 743H379V589H192ZM176 274 14 532H215L298 389L380 532H553L392 275L564 1H362L270 156L179 1H5Z" glyph-name="uni1E8B" horiz-adv-x="570" unicode="&#7819;" /><glyph d="M194 462Q214 462 222.5 473.5Q231 485 231 498V656Q231 670 221 678.5Q211 687 194 687Q176 687 166.5 678Q157 669 157 655V496Q157 483 166 472.5Q175 462 194 462ZM195 368Q168 368 138.5 374.5Q109 381 85 396Q61 411 45.5 435.5Q30 460 30 496V652Q30 687 45 712Q60 737 83 752.5Q106 768 135 775Q164 782 193 782Q221 782 250.5 775Q280 768 304 752Q328 736 343 710.5Q358 685 358 649V496Q358 461 343 437Q328 413 304 397.5Q280 382 251 375Q222 368 195 368Z" glyph-name="uni2070" horiz-adv-x="388" unicode="&#8304;" /><glyph d="M208 457H28V540L179 779H312L150 545H208V584L322 660V545H360V457H322V380H208Z" glyph-name="uni2074" horiz-adv-x="388" unicode="&#8308;" /><glyph d="M194 368Q161 368 133 374.5Q105 381 84.5 394Q64 407 52 426.5Q40 446 40 471V499H158V491Q158 477 165.5 467.5Q173 458 196 458Q218 458 226 470Q234 482 234 498V521Q234 538 224 549Q214 560 194 560Q183 560 176 555Q169 550 161 542L51 553L61 773H328V674H156L154 611Q173 624 194.5 629.5Q216 635 242 635Q262 635 282 630Q302 625 318.5 613Q335 601 345.5 582.5Q356 564 356 537V487Q356 457 342 435Q328 413 305.5 398Q283 383 253.5 375.5Q224 368 194 368Z" glyph-name="uni2075" horiz-adv-x="388" unicode="&#8309;" /><glyph d="M196 458Q215 458 225 467Q235 476 235 489V524Q235 543 222 549.5Q209 556 198 556Q186 556 172.5 547Q159 538 159 515V491Q159 477 168.5 467.5Q178 458 196 458ZM195 368Q163 368 133.5 376Q104 384 81.5 400Q59 416 45 439Q31 462 31 492V658Q31 688 45 711.5Q59 735 82 750.5Q105 766 135 774Q165 782 198 782Q267 782 309 753Q351 724 351 672V650H231V660Q231 675 221.5 683.5Q212 692 197 692Q178 692 168.5 682Q159 672 159 657V604Q176 618 199 624.5Q222 631 248 631Q302 631 329.5 604Q357 577 357 538V486Q357 457 343.5 435Q330 413 307.5 398Q285 383 256 375.5Q227 368 195 368Z" glyph-name="uni2076" horiz-adv-x="388" unicode="&#8310;" /><glyph d="M84 380Q85 419 96.5 459.5Q108 500 126.5 538Q145 576 168.5 610Q192 644 217 671H42V775H354V683Q331 662 308 632.5Q285 603 265.5 565Q246 527 234 480.5Q222 434 222 380Z" glyph-name="uni2077" horiz-adv-x="388" unicode="&#8311;" /><glyph d="M194 613Q211 613 221 621Q231 629 231 645V663Q231 682 219 689.5Q207 697 193 697Q179 697 168 689.5Q157 682 157 668V644Q157 628 167 620.5Q177 613 194 613ZM194 451Q231 451 231 483V502Q231 521 219 528.5Q207 536 193 536Q179 536 168 528.5Q157 521 157 507V482Q157 467 167 459Q177 451 194 451ZM194 368Q159 368 129.5 374Q100 380 78 393Q56 406 43.5 427.5Q31 449 31 479V499Q31 526 45.5 545.5Q60 565 80 576Q61 584 49.5 604.5Q38 625 38 645V667Q38 695 50.5 716Q63 737 84 751.5Q105 766 133 773.5Q161 781 193 781Q225 781 253.5 774Q282 767 303.5 753Q325 739 337.5 718Q350 697 350 669V646Q350 622 337.5 603.5Q325 585 308 576Q328 568 342 547Q356 526 356 503V476Q356 450 343 429.5Q330 409 308 395.5Q286 382 256.5 375Q227 368 194 368Z" glyph-name="uni2078" horiz-adv-x="388" unicode="&#8312;" /><glyph d="M191 594Q202 594 216 603Q230 612 230 635V660Q230 674 220 683.5Q210 693 193 693Q174 693 164 683.5Q154 674 154 661V626Q154 608 167 601Q180 594 191 594ZM191 368Q122 368 80 397Q38 426 38 478V500H158V490Q158 474 167.5 466Q177 458 192 458Q210 458 220 468Q230 478 230 493V546Q213 531 190 525Q167 519 141 519Q87 519 59 546Q31 573 31 611V664Q31 693 44.5 715Q58 737 80.5 752Q103 767 132.5 774.5Q162 782 194 782Q225 782 254.5 774Q284 766 307 750Q330 734 343.5 711Q357 688 357 658V491Q357 461 343.5 438Q330 415 307 399.5Q284 384 254 376Q224 368 191 368Z" glyph-name="uni2079" horiz-adv-x="388" unicode="&#8313;" /><glyph d="M125 525H14V594H125V706H195V594H305V525H195V413H125Z" glyph-name="uni207A" horiz-adv-x="320" unicode="&#8314;" /><glyph d="M14 594H305V525H14Z" glyph-name="uni207B" horiz-adv-x="320" unicode="&#8315;" /><glyph d="M14 652H305V584H14ZM14 537H305V468H14Z" glyph-name="uni207C" horiz-adv-x="320" unicode="&#8316;" /><glyph d="M149 302Q107 348 79.5 417Q52 486 52 561Q52 631 78 697Q104 763 149 811H209Q194 777 183 747Q172 717 165.5 688Q159 659 156 628Q153 597 153 561Q153 428 209 302Z" glyph-name="uni207D" horiz-adv-x="227" unicode="&#8317;" /><glyph d="M18 302Q47 365 60.5 430Q74 495 74 561Q74 597 71 628Q68 659 61.5 688Q55 717 44 747Q33 777 18 811H79Q124 763 150 697Q176 631 176 561Q176 523 168.5 486.5Q161 450 148 416.5Q135 383 117.5 354Q100 325 79 302Z" glyph-name="uni207E" horiz-adv-x="227" unicode="&#8318;" /><glyph d="M194 -51Q214 -51 222.5 -39.5Q231 -28 231 -15V143Q231 157 221 165.5Q211 174 194 174Q176 174 166.5 165Q157 156 157 142V-17Q157 -30 166 -40.5Q175 -51 194 -51ZM195 -145Q168 -145 138.5 -138.5Q109 -132 85 -117Q61 -102 45.5 -77.5Q30 -53 30 -17V139Q30 174 45 199Q60 224 83 239.5Q106 255 135 262Q164 269 193 269Q221 269 250.5 262Q280 255 304 239Q328 223 343 197.5Q358 172 358 136V-17Q358 -52 343 -76Q328 -100 304 -115.5Q280 -131 251 -138Q222 -145 195 -145Z" glyph-name="uni2080" horiz-adv-x="388" unicode="&#8320;" /><glyph d="M67 -45H137V157L69 154L62 240L192 267H261V-45H324V-133H67Z" glyph-name="uni2081" horiz-adv-x="373" unicode="&#8321;" /><glyph d="M51 -62 170 66Q196 93 207 110Q218 127 218 146V151Q218 165 210 173Q202 181 185 181Q170 181 163.5 170Q157 159 157 141V129H40V152Q40 182 52 205Q64 228 85 243.5Q106 259 134.5 266.5Q163 274 196 274Q267 274 304.5 240.5Q342 207 342 151Q342 127 333 105.5Q324 84 310 65Q296 46 279.5 28.5Q263 11 247 -4L215 -35V-36H347V-133H51Z" glyph-name="uni2082" horiz-adv-x="388" unicode="&#8322;" /><glyph d="M186 -145Q113 -145 72.5 -115.5Q32 -86 32 -27V-13H155V-20Q155 -34 163 -45Q171 -56 194 -56Q210 -56 217.5 -45Q225 -34 225 -15Q225 8 210.5 15.5Q196 23 177 23H151V100H178Q201 100 212 107.5Q223 115 223 139Q223 177 189 177Q166 177 161 165Q156 153 156 140V135H35V149Q35 203 76.5 236Q118 269 190 269Q263 269 303.5 238.5Q344 208 344 155Q344 122 327 99Q310 76 281 67V65Q315 57 335.5 33Q356 9 356 -25Q356 -60 340 -83Q324 -106 299 -119.5Q274 -133 244 -139Q214 -145 186 -145Z" glyph-name="uni2083" horiz-adv-x="388" unicode="&#8323;" /><glyph d="M216 -56H36V27L187 266H320L158 32H216V71L330 147V32H368V-56H330V-133H216Z" glyph-name="uni2084" horiz-adv-x="388" unicode="&#8324;" /><glyph d="M196 -145Q163 -145 135 -138.5Q107 -132 86.5 -119Q66 -106 54 -86.5Q42 -67 42 -42V-14H160V-22Q160 -36 167.5 -45.5Q175 -55 198 -55Q220 -55 228 -43Q236 -31 236 -15V8Q236 25 226 36Q216 47 196 47Q185 47 178 42Q171 37 163 29L53 40L63 260H330V161H158L156 98Q175 111 196.5 116.5Q218 122 244 122Q264 122 284 117Q304 112 320.5 100Q337 88 347.5 69.5Q358 51 358 24V-26Q358 -56 344 -78Q330 -100 307.5 -115Q285 -130 255.5 -137.5Q226 -145 196 -145Z" glyph-name="uni2085" horiz-adv-x="388" unicode="&#8325;" /><glyph d="M196 -55Q215 -55 225 -46Q235 -37 235 -24V11Q235 30 222 36.5Q209 43 198 43Q186 43 172.5 34Q159 25 159 2V-22Q159 -36 168.5 -45.5Q178 -55 196 -55ZM195 -145Q163 -145 133.5 -137Q104 -129 81.5 -113Q59 -97 45 -74Q31 -51 31 -21V145Q31 175 45 198.5Q59 222 82 237.5Q105 253 135 261Q165 269 198 269Q267 269 309 240Q351 211 351 159V137H231V147Q231 162 221.5 170.5Q212 179 197 179Q178 179 168.5 169Q159 159 159 144V91Q176 105 199 111.5Q222 118 248 118Q302 118 329.5 91Q357 64 357 25V-27Q357 -56 343.5 -78Q330 -100 307.5 -115Q285 -130 256 -137.5Q227 -145 195 -145Z" glyph-name="uni2086" horiz-adv-x="388" unicode="&#8326;" /><glyph d="M80 -133Q81 -94 92.5 -53.5Q104 -13 122.5 25Q141 63 164.5 97Q188 131 213 158H38V262H350V170Q327 149 304 119.5Q281 90 261.5 52Q242 14 230 -32.5Q218 -79 218 -133Z" glyph-name="uni2087" horiz-adv-x="388" unicode="&#8327;" /><glyph d="M194 100Q211 100 221 108Q231 116 231 132V150Q231 169 219 176.5Q207 184 193 184Q179 184 168 176.5Q157 169 157 155V131Q157 115 167 107.5Q177 100 194 100ZM194 -62Q231 -62 231 -30V-11Q231 8 219 15.5Q207 23 193 23Q179 23 168 15.5Q157 8 157 -6V-31Q157 -46 167 -54Q177 -62 194 -62ZM194 -145Q159 -145 129.5 -139Q100 -133 78 -120Q56 -107 43.5 -85.5Q31 -64 31 -34V-14Q31 13 45.5 32.5Q60 52 80 63Q61 71 49.5 91.5Q38 112 38 132V154Q38 182 50.5 203Q63 224 84 238.5Q105 253 133 260.5Q161 268 193 268Q225 268 253.5 261Q282 254 303.5 240Q325 226 337.5 205Q350 184 350 156V133Q350 109 337.5 90.5Q325 72 308 63Q328 55 342 34Q356 13 356 -10V-37Q356 -63 343 -83.5Q330 -104 308 -117.5Q286 -131 256.5 -138Q227 -145 194 -145Z" glyph-name="uni2088" horiz-adv-x="388" unicode="&#8328;" /><glyph d="M191 81Q202 81 216 90Q230 99 230 122V147Q230 161 220 170.5Q210 180 193 180Q174 180 164 170.5Q154 161 154 148V113Q154 95 167 88Q180 81 191 81ZM191 -145Q122 -145 80 -116Q38 -87 38 -35V-13H158V-23Q158 -39 167.5 -47Q177 -55 192 -55Q210 -55 220 -45Q230 -35 230 -20V33Q213 18 190 12Q167 6 141 6Q87 6 59 33Q31 60 31 98V151Q31 180 44.5 202Q58 224 80.5 239Q103 254 132.5 261.5Q162 269 194 269Q225 269 254.5 261Q284 253 307 237Q330 221 343.5 198Q357 175 357 145V-22Q357 -52 343.5 -75Q330 -98 307 -113.5Q284 -129 254 -137Q224 -145 191 -145Z" glyph-name="uni2089" horiz-adv-x="388" unicode="&#8329;" /><glyph d="M125 12H14V81H125V193H195V81H305V12H195V-100H125Z" glyph-name="uni208A" horiz-adv-x="320" unicode="&#8330;" /><glyph d="M14 81H305V12H14Z" glyph-name="uni208B" horiz-adv-x="320" unicode="&#8331;" /><glyph d="M14 139H305V71H14ZM14 24H305V-45H14Z" glyph-name="uni208C" horiz-adv-x="320" unicode="&#8332;" /><glyph d="M149 -211Q107 -165 79.5 -96Q52 -27 52 48Q52 118 78 184Q104 250 149 298H209Q194 264 183 234Q172 204 165.5 175Q159 146 156 115Q153 84 153 48Q153 -85 209 -211Z" glyph-name="uni208D" horiz-adv-x="227" unicode="&#8333;" /><glyph d="M18 -211Q47 -148 60.5 -83Q74 -18 74 48Q74 84 71 115Q68 146 61.5 175Q55 204 44 234Q33 264 18 298H79Q124 250 150 184Q176 118 176 48Q176 10 168.5 -26.5Q161 -63 148 -96.5Q135 -130 117.5 -159Q100 -188 79 -211Z" glyph-name="uni208E" horiz-adv-x="227" unicode="&#8334;" /><glyph d="M474 367Q507 367 518.5 384Q530 401 530 423Q530 446 518 463.5Q506 481 473 481H430V367ZM274 591H506Q550 591 583 578.5Q616 566 637.5 544.5Q659 523 669.5 494.5Q680 466 680 433Q680 401 670.5 370.5Q661 340 640.5 316Q620 292 587 277.5Q554 263 507 263H430V91H274ZM443 15Q511 15 568.5 38.5Q626 62 668 105Q710 148 733.5 209.5Q757 271 757 347Q757 423 734.5 484.5Q712 546 671 589.5Q630 633 572 656.5Q514 680 443 680Q375 680 318 657Q261 634 220 590.5Q179 547 156 485Q133 423 133 346Q133 269 155.5 207.5Q178 146 219 103.5Q260 61 317 38Q374 15 443 15ZM443 -63Q347 -63 271 -30.5Q195 2 142.5 58Q90 114 62.5 188Q35 262 35 346Q35 430 65 504Q95 578 149 633.5Q203 689 278 721.5Q353 754 443 754Q537 754 613 722Q689 690 742.5 634.5Q796 579 825 505Q854 431 854 347Q854 263 824.5 188.5Q795 114 741 58Q687 2 611.5 -30.5Q536 -63 443 -63Z" glyph-name="uni2117" horiz-adv-x="889" unicode="&#8471;" /><glyph d="M558 717H661L263 -2H160ZM673 -12Q640 -12 612 -5.5Q584 1 563.5 14Q543 27 531 46.5Q519 66 519 91V119H637V111Q637 97 644.5 87.5Q652 78 675 78Q697 78 705 90Q713 102 713 118V141Q713 158 703 169Q693 180 673 180Q662 180 655 175Q648 170 640 162L530 173L540 393H807V294H635L633 231Q652 244 673.5 249.5Q695 255 721 255Q741 255 761 250Q781 245 797.5 233Q814 221 824.5 202.5Q835 184 835 157V107Q835 77 821 55Q807 33 784.5 18Q762 3 732.5 -4.5Q703 -12 673 -12ZM51 406H121V608L53 605L46 691L176 718H245V406H308V318H51Z" glyph-name="uni2155" horiz-adv-x="876" unicode="&#8533;" /><glyph d="M574 717H677L279 -2H176ZM681 -12Q648 -12 620 -5.5Q592 1 571.5 14Q551 27 539 46.5Q527 66 527 91V119H645V111Q645 97 652.5 87.5Q660 78 683 78Q705 78 713 90Q721 102 721 118V141Q721 158 711 169Q701 180 681 180Q670 180 663 175Q656 170 648 162L538 173L548 393H815V294H643L641 231Q660 244 681.5 249.5Q703 255 729 255Q749 255 769 250Q789 245 805.5 233Q822 221 832.5 202.5Q843 184 843 157V107Q843 77 829 55Q815 33 792.5 18Q770 3 740.5 -4.5Q711 -12 681 -12ZM37 389 156 517Q182 544 193 561Q204 578 204 597V602Q204 616 196 624Q188 632 171 632Q156 632 149.5 621Q143 610 143 592V580H26V603Q26 633 38 656Q50 679 71 694.5Q92 710 120.5 717.5Q149 725 182 725Q253 725 290.5 691.5Q328 658 328 602Q328 578 319 556.5Q310 535 296 516Q282 497 265.5 479.5Q249 462 233 447L201 416V415H333V318H37Z" glyph-name="uni2156" horiz-adv-x="876" unicode="&#8534;" /></font>
</defs>
</svg>
