<?xml version="1.0" standalone="no"?><!DOCTYPE svg PUBLIC "-//W3C//DTD SVG 1.1//EN" "http://www.w3.org/Graphics/SVG/1.1/DTD/svg11.dtd" ><svg version="1.1" xmlns="http://www.w3.org/2000/svg"><defs><font horiz-adv-x="0" id="font"><font-face ascent="800" bbox="-492 -295 1550 1106" cap-height="713" descent="-200" font-family="Flama Semibold" font-stretch="normal" font-style="normal" font-weight="600" units-per-em="1000" x-height="519" /><missing-glyph d="M554 93V571H221V93ZM116 664H659V0H116Z" horiz-adv-x="775" /><glyph glyph-name=".null" horiz-adv-x="0" /><glyph d="M432 269 342 542H340L249 269ZM269 714H426L682 0H520L472 143H209L160 0H10Z" glyph-name="A" horiz-adv-x="692" unicode="A" /><glyph d="M471 284V595L311 284ZM381 713H981V582H626V427H933V296H626V131H984V0H471V159H254L170 0H10Z" glyph-name="AE" horiz-adv-x="1036" unicode="&#198;" /><glyph d="M605 939H756L623 761H519ZM471 284V595L311 284ZM381 713H981V582H626V427H933V296H626V131H984V0H471V159H254L170 0H10Z" glyph-name="AEacute" horiz-adv-x="1036" unicode="&#508;" /><glyph d="M378 939H529L396 761H292ZM432 269 342 542H340L249 269ZM269 714H426L682 0H520L472 143H209L160 0H10Z" glyph-name="Aacute" horiz-adv-x="692" unicode="&#193;" /><glyph d="M346 756Q310 756 279 768Q248 780 225 801.5Q202 823 188.5 854.5Q175 886 174 925H282Q284 909 288 894Q292 879 299.5 868Q307 857 318.5 850Q330 843 347 843Q376 843 390.5 863Q405 883 411 925H519Q519 882 504 850.5Q489 819 464.5 798Q440 777 409 766.5Q378 756 346 756ZM432 269 342 542H340L249 269ZM269 714H426L682 0H520L472 143H209L160 0H10Z" glyph-name="Abreve" horiz-adv-x="692" unicode="&#258;" /><glyph d="M288 938H410L521 760H398L348 857L293 760H172ZM432 269 342 542H340L249 269ZM269 714H426L682 0H520L472 143H209L160 0H10Z" glyph-name="Acircumflex" horiz-adv-x="692" unicode="&#194;" /><glyph d="M384 910H516V764H384ZM176 910H308V764H176ZM432 269 342 542H340L249 269ZM269 714H426L682 0H520L472 143H209L160 0H10Z" glyph-name="Adieresis" horiz-adv-x="692" unicode="&#196;" /><glyph d="M160 939H311L397 761H293ZM432 269 342 542H340L249 269ZM269 714H426L682 0H520L472 143H209L160 0H10Z" glyph-name="Agrave" horiz-adv-x="692" unicode="&#192;" /><glyph d="M192 882H501V771H192ZM432 269 342 542H340L249 269ZM269 714H426L682 0H520L472 143H209L160 0H10Z" glyph-name="Amacron" horiz-adv-x="692" unicode="&#256;" /><glyph d="M432 269 342 542H340L249 269ZM595 -220Q567 -220 542 -214Q517 -208 498.5 -195.5Q480 -183 469 -163Q458 -143 458 -116Q458 -80 475 -50.5Q492 -21 520 0L472 143H209L160 0H10L269 714H426L682 0Q622 -9 592.5 -34.5Q563 -60 563 -86Q563 -108 577 -118Q591 -128 614 -128Q623 -128 641 -122Q659 -116 674 -107L707 -191Q684 -205 655.5 -212.5Q627 -220 595 -220Z" glyph-name="Aogonek" horiz-adv-x="692" unicode="&#260;" /><glyph d="M345 807Q366 807 380 820.5Q394 834 394 854Q394 874 381 888.5Q368 903 345 903Q323 903 310.5 888.5Q298 874 298 854Q298 834 311.5 820.5Q325 807 345 807ZM345 754Q296 754 266 781.5Q236 809 236 852Q236 874 244.5 892.5Q253 911 268 925Q283 939 302.5 947Q322 955 345 955Q394 955 425 929Q456 903 456 858Q456 836 447 817Q438 798 423 784Q408 770 387.5 762Q367 754 345 754ZM432 269 342 542H340L249 269ZM269 714H426L682 0H520L472 143H209L160 0H10Z" glyph-name="Aring" horiz-adv-x="692" unicode="&#197;" /><glyph d="M345 717Q366 717 380 730.5Q394 744 394 764Q394 784 381 798.5Q368 813 345 813Q323 813 310.5 798.5Q298 784 298 764Q298 744 311.5 730.5Q325 717 345 717ZM345 664Q296 664 266 691.5Q236 719 236 762Q236 784 244.5 802.5Q253 821 268 835Q283 849 302.5 857Q322 865 345 865Q394 865 425 839Q456 813 456 768Q456 746 447 727Q438 708 423 694Q408 680 387.5 672Q367 664 345 664ZM432 242 342 488H340L249 242ZM269 643H426L682 0H520L472 129H209L160 0H10ZM362 1020H488L392 887H305Z" glyph-name="Aringacute" horiz-adv-x="692" unicode="&#506;" /><glyph d="M136 777Q141 805 152 830Q163 855 179 873.5Q195 892 217 902.5Q239 913 266 913Q288 913 308.5 908Q329 903 350 897Q371 891 391.5 886Q412 881 434 881Q455 881 462.5 895.5Q470 910 475 929L557 909Q553 881 543.5 856.5Q534 832 519 813.5Q504 795 482.5 784.5Q461 774 434 774Q412 774 391 779Q370 784 349 789.5Q328 795 307.5 800Q287 805 266 805Q250 805 242 796.5Q234 788 222 759ZM432 269 342 542H340L249 269ZM269 714H426L682 0H520L472 143H209L160 0H10Z" glyph-name="Atilde" horiz-adv-x="692" unicode="&#195;" /><glyph d="M369 425Q416 425 440.5 448Q465 471 465 509Q465 549 438 568.5Q411 588 365 588H223V425ZM377 127Q425 127 452.5 151Q480 175 480 217Q480 259 453.5 280.5Q427 302 377 302H223V127ZM67 713H402Q507 713 562.5 665.5Q618 618 618 531Q618 481 594 439.5Q570 398 514 375V373Q575 357 606 310Q637 263 637 204Q637 157 619.5 119.5Q602 82 572 55.5Q542 29 501.5 14.5Q461 0 415 0H67Z" glyph-name="B" horiz-adv-x="676" unicode="B" /><glyph d="M345 -12Q286 -12 232.5 3.5Q179 19 138.5 50.5Q98 82 73.5 129.5Q49 177 49 240V462Q49 526 72.5 575.5Q96 625 136 658Q176 691 229 708Q282 725 341 725Q392 725 442.5 711Q493 697 533 668Q573 639 597.5 595Q622 551 622 490V462H475V476Q475 507 462.5 529Q450 551 431 565.5Q412 580 388 586.5Q364 593 342 593Q318 593 293 586Q268 579 248.5 564Q229 549 216.5 525Q204 501 204 467V245Q204 215 215 192Q226 169 245.5 153Q265 137 291 128.5Q317 120 346 120Q368 120 391 126.5Q414 133 433 147.5Q452 162 463.5 184Q475 206 475 238V251H622V223Q622 162 598 118Q574 74 535 45Q496 16 446.5 2Q397 -12 345 -12Z" glyph-name="C" horiz-adv-x="666" unicode="C" /><glyph d="M367 939H518L385 761H281ZM345 -12Q286 -12 232.5 3.5Q179 19 138.5 50.5Q98 82 73.5 129.5Q49 177 49 240V462Q49 526 72.5 575.5Q96 625 136 658Q176 691 229 708Q282 725 341 725Q392 725 442.5 711Q493 697 533 668Q573 639 597.5 595Q622 551 622 490V462H475V476Q475 507 462.5 529Q450 551 431 565.5Q412 580 388 586.5Q364 593 342 593Q318 593 293 586Q268 579 248.5 564Q229 549 216.5 525Q204 501 204 467V245Q204 215 215 192Q226 169 245.5 153Q265 137 291 128.5Q317 120 346 120Q368 120 391 126.5Q414 133 433 147.5Q452 162 463.5 184Q475 206 475 238V251H622V223Q622 162 598 118Q574 74 535 45Q496 16 446.5 2Q397 -12 345 -12Z" glyph-name="Cacute" horiz-adv-x="666" unicode="&#262;" /><glyph d="M161 939H284L334 842L389 939H510L394 761H272ZM345 -12Q286 -12 232.5 3.5Q179 19 138.5 50.5Q98 82 73.5 129.5Q49 177 49 240V462Q49 526 72.5 575.5Q96 625 136 658Q176 691 229 708Q282 725 341 725Q392 725 442.5 711Q493 697 533 668Q573 639 597.5 595Q622 551 622 490V462H475V476Q475 507 462.5 529Q450 551 431 565.5Q412 580 388 586.5Q364 593 342 593Q318 593 293 586Q268 579 248.5 564Q229 549 216.5 525Q204 501 204 467V245Q204 215 215 192Q226 169 245.5 153Q265 137 291 128.5Q317 120 346 120Q368 120 391 126.5Q414 133 433 147.5Q452 162 463.5 184Q475 206 475 238V251H622V223Q622 162 598 118Q574 74 535 45Q496 16 446.5 2Q397 -12 345 -12Z" glyph-name="Ccaron" horiz-adv-x="666" unicode="&#268;" /><glyph d="M342 -213Q291 -213 238 -196V-132Q264 -140 288 -145Q312 -150 331 -150Q359 -150 371 -142.5Q383 -135 383 -118Q383 -110 377.5 -105.5Q372 -101 364 -98.5Q356 -96 346.5 -95Q337 -94 328 -94L286 -92L302 -10Q250 -5 204 13Q158 31 123.5 62.5Q89 94 69 138Q49 182 49 240V462Q49 526 72.5 575.5Q96 625 136 658Q176 691 229 708Q282 725 341 725Q392 725 442.5 711Q493 697 533 668Q573 639 597.5 595Q622 551 622 490V462H475V476Q475 507 462.5 529Q450 551 431 565.5Q412 580 388 586.5Q364 593 342 593Q318 593 293 586Q268 579 248.5 564Q229 549 216.5 525Q204 501 204 467V245Q204 215 215 192Q226 169 245.5 153Q265 137 291 128.5Q317 120 346 120Q368 120 391 126.5Q414 133 433 147.5Q452 162 463.5 184Q475 206 475 238V251H622V223Q622 165 600 122Q578 79 542 50Q506 21 459.5 6Q413 -9 364 -11L359 -38Q382 -38 405.5 -41.5Q429 -45 447.5 -54Q466 -63 477.5 -78.5Q489 -94 489 -118Q489 -160 448.5 -186.5Q408 -213 342 -213Z" glyph-name="Ccedilla" horiz-adv-x="666" unicode="&#199;" /><glyph d="M277 938H399L510 760H387L337 857L282 760H161ZM345 -12Q286 -12 232.5 3.5Q179 19 138.5 50.5Q98 82 73.5 129.5Q49 177 49 240V462Q49 526 72.5 575.5Q96 625 136 658Q176 691 229 708Q282 725 341 725Q392 725 442.5 711Q493 697 533 668Q573 639 597.5 595Q622 551 622 490V462H475V476Q475 507 462.5 529Q450 551 431 565.5Q412 580 388 586.5Q364 593 342 593Q318 593 293 586Q268 579 248.5 564Q229 549 216.5 525Q204 501 204 467V245Q204 215 215 192Q226 169 245.5 153Q265 137 291 128.5Q317 120 346 120Q368 120 391 126.5Q414 133 433 147.5Q452 162 463.5 184Q475 206 475 238V251H622V223Q622 162 598 118Q574 74 535 45Q496 16 446.5 2Q397 -12 345 -12Z" glyph-name="Ccircumflex" horiz-adv-x="666" unicode="&#264;" /><glyph d="M268 910H402V764H268ZM345 -12Q286 -12 232.5 3.5Q179 19 138.5 50.5Q98 82 73.5 129.5Q49 177 49 240V462Q49 526 72.5 575.5Q96 625 136 658Q176 691 229 708Q282 725 341 725Q392 725 442.5 711Q493 697 533 668Q573 639 597.5 595Q622 551 622 490V462H475V476Q475 507 462.5 529Q450 551 431 565.5Q412 580 388 586.5Q364 593 342 593Q318 593 293 586Q268 579 248.5 564Q229 549 216.5 525Q204 501 204 467V245Q204 215 215 192Q226 169 245.5 153Q265 137 291 128.5Q317 120 346 120Q368 120 391 126.5Q414 133 433 147.5Q452 162 463.5 184Q475 206 475 238V251H622V223Q622 162 598 118Q574 74 535 45Q496 16 446.5 2Q397 -12 345 -12Z" glyph-name="Cdotaccent" horiz-adv-x="666" unicode="&#266;" /><glyph d="M348 131Q373 131 397.5 138.5Q422 146 441.5 161.5Q461 177 473 200.5Q485 224 485 257V458Q485 487 473.5 510Q462 533 442.5 549Q423 565 397.5 573.5Q372 582 343 582H222V131ZM67 713H354Q413 713 465 696Q517 679 556 646Q595 613 617.5 565.5Q640 518 640 457V262Q640 197 616 148Q592 99 552.5 66Q513 33 461.5 16.5Q410 0 356 0H67Z" glyph-name="D" horiz-adv-x="689" unicode="D" /><glyph d="M170 939H293L343 842L398 939H519L403 761H281ZM348 131Q373 131 397.5 138.5Q422 146 441.5 161.5Q461 177 473 200.5Q485 224 485 257V458Q485 487 473.5 510Q462 533 442.5 549Q423 565 397.5 573.5Q372 582 343 582H222V131ZM67 713H354Q413 713 465 696Q517 679 556 646Q595 613 617.5 565.5Q640 518 640 457V262Q640 197 616 148Q592 99 552.5 66Q513 33 461.5 16.5Q410 0 356 0H67Z" glyph-name="Dcaron" horiz-adv-x="689" unicode="&#270;" /><glyph d="M368 131Q393 131 417.5 138.5Q442 146 461.5 161.5Q481 177 493 200.5Q505 224 505 257V458Q505 487 493.5 510Q482 533 462.5 549Q443 565 417.5 573.5Q392 582 363 582H242V419H368V310H242V131ZM26 419H87V713H374Q433 713 485 696Q537 679 576 646Q615 613 637.5 565.5Q660 518 660 457V262Q660 197 636 148Q612 99 572.5 66Q533 33 481.5 16.5Q430 0 376 0H87V310H26Z" glyph-name="Dcroat" horiz-adv-x="709" unicode="&#272;" /><glyph d="M483 116 341 542H337L199 116ZM29 56 270 715H425L662 57V0H29Z" glyph-name="Delta" horiz-adv-x="691" unicode="&#8710;" /><glyph d="M67 713H577V582H222V427H529V296H222V131H580V0H67Z" glyph-name="E" horiz-adv-x="632" unicode="E" /><glyph d="M355 939H506L373 761H269ZM67 713H577V582H222V427H529V296H222V131H580V0H67Z" glyph-name="Eacute" horiz-adv-x="632" unicode="&#201;" /><glyph d="M323 756Q287 756 256 768Q225 780 202 801.5Q179 823 165.5 854.5Q152 886 151 925H259Q261 909 265 894Q269 879 276.5 868Q284 857 295.5 850Q307 843 324 843Q353 843 367.5 863Q382 883 388 925H496Q496 882 481 850.5Q466 819 441.5 798Q417 777 386 766.5Q355 756 323 756ZM67 713H577V582H222V427H529V296H222V131H580V0H67Z" glyph-name="Ebreve" horiz-adv-x="632" unicode="&#276;" /><glyph d="M149 939H272L322 842L377 939H498L382 761H260ZM67 713H577V582H222V427H529V296H222V131H580V0H67Z" glyph-name="Ecaron" horiz-adv-x="632" unicode="&#282;" /><glyph d="M265 938H387L498 760H375L325 857L270 760H149ZM67 713H577V582H222V427H529V296H222V131H580V0H67Z" glyph-name="Ecircumflex" horiz-adv-x="632" unicode="&#202;" /><glyph d="M361 910H493V764H361ZM153 910H285V764H153ZM67 713H577V582H222V427H529V296H222V131H580V0H67Z" glyph-name="Edieresis" horiz-adv-x="632" unicode="&#203;" /><glyph d="M256 910H390V764H256ZM67 713H577V582H222V427H529V296H222V131H580V0H67Z" glyph-name="Edotaccent" horiz-adv-x="632" unicode="&#278;" /><glyph d="M137 939H288L374 761H270ZM67 713H577V582H222V427H529V296H222V131H580V0H67Z" glyph-name="Egrave" horiz-adv-x="632" unicode="&#200;" /><glyph d="M169 882H478V771H169ZM67 713H577V582H222V427H529V296H222V131H580V0H67Z" glyph-name="Emacron" horiz-adv-x="632" unicode="&#274;" /><glyph d="M487 -193Q471 -193 457.5 -192Q444 -191 433 -189V-75Q440 -76 449.5 -76.5Q459 -77 466 -77Q488 -77 500.5 -66Q513 -55 513 -29V-6L216 453H214V0H67V713H219L508 269H510V713H657V-38Q657 -115 612.5 -154Q568 -193 487 -193Z" glyph-name="Eng" horiz-adv-x="723" unicode="&#330;" /><glyph d="M67 713H577V582H222V427H529V296H222V131H580V0H553Q526 0 504 -8.5Q482 -17 466.5 -30Q451 -43 442.5 -58Q434 -73 434 -86Q434 -108 448 -118Q462 -128 485 -128Q494 -128 512 -122Q530 -116 545 -107L578 -191Q555 -205 526.5 -212.5Q498 -220 466 -220Q438 -220 413 -214Q388 -208 369.5 -195.5Q351 -183 340 -163Q329 -143 329 -116Q329 -80 346 -51Q363 -22 390 0H67Z" glyph-name="Eogonek" horiz-adv-x="632" unicode="&#280;" /><glyph d="M368 131Q393 131 417.5 138.5Q442 146 461.5 161.5Q481 177 493 200.5Q505 224 505 257V458Q505 487 493.5 510Q482 533 462.5 549Q443 565 417.5 573.5Q392 582 363 582H242V419H368V310H242V131ZM26 419H87V713H374Q433 713 485 696Q537 679 576 646Q615 613 637.5 565.5Q660 518 660 457V262Q660 197 636 148Q612 99 572.5 66Q533 33 481.5 16.5Q430 0 376 0H87V310H26Z" glyph-name="Eth" horiz-adv-x="709" unicode="&#208;" /><glyph d="M400 -12Q342 -12 292.5 3Q243 18 206.5 49Q170 80 149 125.5Q128 171 127 233V239H42V327H126V386H42V474H127V480Q128 539 151 584.5Q174 630 212 661.5Q250 693 300 709Q350 725 406 725Q458 725 506.5 711Q555 697 593 668Q631 639 654 595Q677 551 677 490V462H530V476Q530 507 519.5 530.5Q509 554 491 569.5Q473 585 449.5 593Q426 601 400 601Q377 601 356.5 593.5Q336 586 319.5 571Q303 556 293 533Q283 510 282 480V474H482V386H282V327H482V239H282V232Q284 178 316.5 146.5Q349 115 404 115Q462 115 496 145Q530 175 530 238V251H677V223Q677 162 653 118Q629 74 590 45Q551 16 501.5 2Q452 -12 400 -12Z" glyph-name="Euro" horiz-adv-x="723" unicode="&#8364;" /><glyph d="M319 -12Q265 -12 220.5 3Q176 18 143 49Q110 80 91.5 125.5Q73 171 72 233V239H23V327H72V386H23V474H72V480Q73 539 93 584.5Q113 630 147.5 661.5Q182 693 227.5 709Q273 725 325 725Q373 725 416.5 711Q460 697 493.5 668Q527 639 547 595Q567 551 567 490V462H432V479Q432 542 399.5 571.5Q367 601 319 601Q276 601 248 571Q220 541 220 480V474H376V386H220V327H376V239H220V232Q220 178 246 146.5Q272 115 325 115Q379 115 405.5 144Q432 173 432 236V251H567V223Q567 162 546 118Q525 74 490.5 45Q456 16 411.5 2Q367 -12 319 -12Z" glyph-name="Euro.tf" horiz-adv-x="590" /><glyph d="M67 713H565V582H223V420H511V290H223V0H67Z" glyph-name="F" horiz-adv-x="595" unicode="F" /><glyph d="M345 -12Q286 -12 232.5 3.5Q179 19 138.5 50.5Q98 82 73.5 129.5Q49 177 49 240V462Q49 526 72.5 575.5Q96 625 136 658Q176 691 229 708Q282 725 341 725Q392 725 442.5 712Q493 699 533 671.5Q573 644 598 601Q623 558 623 497V473H476V484Q476 515 464 536.5Q452 558 432.5 571Q413 584 389.5 589.5Q366 595 344 595Q319 595 294 588Q269 581 249 566Q229 551 216.5 527Q204 503 204 469V245Q204 215 215 192Q226 169 245.5 152.5Q265 136 291 127.5Q317 119 346 119Q373 119 396.5 125.5Q420 132 437.5 146Q455 160 465 182Q475 204 475 235V253H311V379H623V223Q623 162 599 118Q575 74 536 45Q497 16 447 2Q397 -12 345 -12Z" glyph-name="G" horiz-adv-x="669" unicode="G" /><glyph d="M336 756Q300 756 269 768Q238 780 215 801.5Q192 823 178.5 854.5Q165 886 164 925H272Q274 909 278 894Q282 879 289.5 868Q297 857 308.5 850Q320 843 337 843Q366 843 380.5 863Q395 883 401 925H509Q509 882 494 850.5Q479 819 454.5 798Q430 777 399 766.5Q368 756 336 756ZM345 -12Q286 -12 232.5 3.5Q179 19 138.5 50.5Q98 82 73.5 129.5Q49 177 49 240V462Q49 526 72.5 575.5Q96 625 136 658Q176 691 229 708Q282 725 341 725Q392 725 442.5 712Q493 699 533 671.5Q573 644 598 601Q623 558 623 497V473H476V484Q476 515 464 536.5Q452 558 432.5 571Q413 584 389.5 589.5Q366 595 344 595Q319 595 294 588Q269 581 249 566Q229 551 216.5 527Q204 503 204 469V245Q204 215 215 192Q226 169 245.5 152.5Q265 136 291 127.5Q317 119 346 119Q373 119 396.5 125.5Q420 132 437.5 146Q455 160 465 182Q475 204 475 235V253H311V379H623V223Q623 162 599 118Q575 74 536 45Q497 16 447 2Q397 -12 345 -12Z" glyph-name="Gbreve" horiz-adv-x="669" unicode="&#286;" /><glyph d="M278 938H400L511 760H388L338 857L283 760H162ZM345 -12Q286 -12 232.5 3.5Q179 19 138.5 50.5Q98 82 73.5 129.5Q49 177 49 240V462Q49 526 72.5 575.5Q96 625 136 658Q176 691 229 708Q282 725 341 725Q392 725 442.5 712Q493 699 533 671.5Q573 644 598 601Q623 558 623 497V473H476V484Q476 515 464 536.5Q452 558 432.5 571Q413 584 389.5 589.5Q366 595 344 595Q319 595 294 588Q269 581 249 566Q229 551 216.5 527Q204 503 204 469V245Q204 215 215 192Q226 169 245.5 152.5Q265 136 291 127.5Q317 119 346 119Q373 119 396.5 125.5Q420 132 437.5 146Q455 160 465 182Q475 204 475 235V253H311V379H623V223Q623 162 599 118Q575 74 536 45Q497 16 447 2Q397 -12 345 -12Z" glyph-name="Gcircumflex" horiz-adv-x="669" unicode="&#284;" /><glyph d="M269 -33H411L371 -195H257ZM345 -12Q286 -12 232.5 3.5Q179 19 138.5 50.5Q98 82 73.5 129.5Q49 177 49 240V462Q49 526 72.5 575.5Q96 625 136 658Q176 691 229 708Q282 725 341 725Q392 725 442.5 712Q493 699 533 671.5Q573 644 598 601Q623 558 623 497V473H476V484Q476 515 464 536.5Q452 558 432.5 571Q413 584 389.5 589.5Q366 595 344 595Q319 595 294 588Q269 581 249 566Q229 551 216.5 527Q204 503 204 469V245Q204 215 215 192Q226 169 245.5 152.5Q265 136 291 127.5Q317 119 346 119Q373 119 396.5 125.5Q420 132 437.5 146Q455 160 465 182Q475 204 475 235V253H311V379H623V223Q623 162 599 118Q575 74 536 45Q497 16 447 2Q397 -12 345 -12Z" glyph-name="Gcommaaccent" horiz-adv-x="669" unicode="&#290;" /><glyph d="M269 910H403V764H269ZM345 -12Q286 -12 232.5 3.5Q179 19 138.5 50.5Q98 82 73.5 129.5Q49 177 49 240V462Q49 526 72.5 575.5Q96 625 136 658Q176 691 229 708Q282 725 341 725Q392 725 442.5 712Q493 699 533 671.5Q573 644 598 601Q623 558 623 497V473H476V484Q476 515 464 536.5Q452 558 432.5 571Q413 584 389.5 589.5Q366 595 344 595Q319 595 294 588Q269 581 249 566Q229 551 216.5 527Q204 503 204 469V245Q204 215 215 192Q226 169 245.5 152.5Q265 136 291 127.5Q317 119 346 119Q373 119 396.5 125.5Q420 132 437.5 146Q455 160 465 182Q475 204 475 235V253H311V379H623V223Q623 162 599 118Q575 74 536 45Q497 16 447 2Q397 -12 345 -12Z" glyph-name="Gdotaccent" horiz-adv-x="669" unicode="&#288;" /><glyph d="M67 713H222V431H482V713H637V0H482V295H222V0H67Z" glyph-name="H" horiz-adv-x="703" unicode="H" /><glyph d="M481 431V531H222V431ZM20 630H67V713H222V630H481V713H637V630H683V531H637V0H481V295H222V0H67V531H20Z" glyph-name="Hbar" horiz-adv-x="703" unicode="&#294;" /><glyph d="M294 938H416L527 760H404L354 857L299 760H178ZM67 713H222V431H482V713H637V0H482V295H222V0H67Z" glyph-name="Hcircumflex" horiz-adv-x="703" unicode="&#292;" /><glyph d="M67 713H222V0H67Z" glyph-name="I" horiz-adv-x="289" unicode="I" /><glyph d="M51 118H188V595H51V713H480V595H343V118H480V0H51Z" glyph-name="I.alt" horiz-adv-x="531" /><glyph d="M545 -11Q485 -11 436.5 2Q388 15 354 43.5Q320 72 302 117Q284 162 284 225V267H437V234Q437 214 441 194Q445 174 457 158Q469 142 490.5 132Q512 122 547 122Q572 122 590.5 132Q609 142 621 158.5Q633 175 638.5 197Q644 219 644 243V713H800V231Q800 182 782.5 138Q765 94 732.5 61Q700 28 652.5 8.5Q605 -11 545 -11ZM67 713H222V0H67Z" glyph-name="IJ" horiz-adv-x="862" unicode="&#306;" /><glyph d="M773 -11Q713 -11 664.5 2Q616 15 582 43.5Q548 72 530 117Q512 162 512 225V267H665V234Q665 214 669 194Q673 174 685 158Q697 142 718.5 132Q740 122 775 122Q800 122 818.5 132Q837 142 849 158.5Q861 175 866.5 197Q872 219 872 243V713H1028V231Q1028 182 1010.5 138Q993 94 960.5 61Q928 28 880.5 8.5Q833 -11 773 -11ZM51 118H188V595H51V713H480V595H343V118H480V0H51Z" glyph-name="IJ.alt" horiz-adv-x="1090" /><glyph d="M176 939H327L194 761H90ZM67 713H222V0H67Z" glyph-name="Iacute" horiz-adv-x="289" unicode="&#205;" /><glyph d="M297 939H448L315 761H211ZM51 118H188V595H51V713H480V595H343V118H480V0H51Z" glyph-name="Iacute.alt" horiz-adv-x="531" /><glyph d="M144 756Q108 756 77 768Q46 780 23 801.5Q0 823 -13.5 854.5Q-27 886 -28 925H80Q82 909 86 894Q90 879 97.5 868Q105 857 116.5 850Q128 843 145 843Q174 843 188.5 863Q203 883 209 925H317Q317 882 302 850.5Q287 819 262.5 798Q238 777 207 766.5Q176 756 144 756ZM67 713H222V0H67Z" glyph-name="Ibreve" horiz-adv-x="289" unicode="&#300;" /><glyph d="M265 756Q229 756 198 768Q167 780 144 801.5Q121 823 107.5 854.5Q94 886 93 925H201Q203 909 207 894Q211 879 218.5 868Q226 857 237.5 850Q249 843 266 843Q295 843 309.5 863Q324 883 330 925H438Q438 882 423 850.5Q408 819 383.5 798Q359 777 328 766.5Q297 756 265 756ZM51 118H188V595H51V713H480V595H343V118H480V0H51Z" glyph-name="Ibreve.alt" horiz-adv-x="531" /><glyph d="M86 938H208L319 760H196L146 857L91 760H-30ZM67 713H222V0H67Z" glyph-name="Icircumflex" horiz-adv-x="289" unicode="&#206;" /><glyph d="M207 938H329L440 760H317L267 857L212 760H91ZM51 118H188V595H51V713H480V595H343V118H480V0H51Z" glyph-name="Icircumflex.alt" horiz-adv-x="531" /><glyph d="M182 910H314V764H182ZM-26 910H106V764H-26ZM67 713H222V0H67Z" glyph-name="Idieresis" horiz-adv-x="289" unicode="&#207;" /><glyph d="M303 910H435V764H303ZM95 910H227V764H95ZM51 118H188V595H51V713H480V595H343V118H480V0H51Z" glyph-name="Idieresis.alt" horiz-adv-x="531" /><glyph d="M77 910H211V764H77ZM67 713H222V0H67Z" glyph-name="Idotaccent" horiz-adv-x="289" unicode="&#304;" /><glyph d="M198 910H332V764H198ZM51 118H188V595H51V713H480V595H343V118H480V0H51Z" glyph-name="Idotaccent.alt" horiz-adv-x="531" /><glyph d="M-42 939H109L195 761H91ZM67 713H222V0H67Z" glyph-name="Igrave" horiz-adv-x="289" unicode="&#204;" /><glyph d="M79 939H230L316 761H212ZM51 118H188V595H51V713H480V595H343V118H480V0H51Z" glyph-name="Igrave.alt" horiz-adv-x="531" /><glyph d="M-10 882H299V771H-10ZM67 713H222V0H67Z" glyph-name="Imacron" horiz-adv-x="289" unicode="&#298;" /><glyph d="M111 882H420V771H111ZM51 118H188V595H51V713H480V595H343V118H480V0H51Z" glyph-name="Imacron.alt" horiz-adv-x="531" /><glyph d="M151 -219Q99 -219 65.5 -195.5Q32 -172 32 -122Q32 -72 67 -31V713H222V0Q180 -11 155 -35.5Q130 -60 130 -86Q130 -107 141.5 -116Q153 -125 176 -125Q184 -125 198 -121Q212 -117 226 -108L259 -191Q236 -203 209 -211Q182 -219 151 -219Z" glyph-name="Iogonek" horiz-adv-x="289" unicode="&#302;" /><glyph d="M51 118H188V595H51V713H480V595H343V118H480V0H369Q342 0 321 -8.5Q300 -17 286 -30Q272 -43 264.5 -58Q257 -73 257 -86Q257 -107 269.5 -116Q282 -125 305 -125Q314 -125 329.5 -121Q345 -117 360 -108L394 -190Q371 -202 341.5 -210Q312 -218 280 -218Q224 -218 188.5 -194.5Q153 -171 153 -122Q153 -84 173.5 -53.5Q194 -23 225 0H51Z" glyph-name="Iogonek.alt" horiz-adv-x="531" /><glyph d="M-66 777Q-61 805 -50 830Q-39 855 -23 873.5Q-7 892 15 902.5Q37 913 64 913Q86 913 106.5 908Q127 903 148 897Q169 891 189.5 886Q210 881 232 881Q253 881 260.5 895.5Q268 910 273 929L355 909Q351 881 341.5 856.5Q332 832 317 813.5Q302 795 280.5 784.5Q259 774 232 774Q210 774 189 779Q168 784 147 789.5Q126 795 105.5 800Q85 805 64 805Q48 805 40 796.5Q32 788 20 759ZM67 713H222V0H67Z" glyph-name="Itilde" horiz-adv-x="289" unicode="&#296;" /><glyph d="M55 777Q60 805 71 830Q82 855 98 873.5Q114 892 136 902.5Q158 913 185 913Q207 913 227.5 908Q248 903 269 897Q290 891 310.5 886Q331 881 353 881Q374 881 381.5 895.5Q389 910 394 929L476 909Q472 881 462.5 856.5Q453 832 438 813.5Q423 795 401.5 784.5Q380 774 353 774Q331 774 310 779Q289 784 268 789.5Q247 795 226.5 800Q206 805 185 805Q169 805 161 796.5Q153 788 141 759ZM51 118H188V595H51V713H480V595H343V118H480V0H51Z" glyph-name="Itilde.alt" horiz-adv-x="531" /><glyph d="M300 -11Q240 -11 191.5 2Q143 15 109 43.5Q75 72 57 117Q39 162 39 225V267H192V234Q192 214 196 194Q200 174 212 158Q224 142 245.5 132Q267 122 302 122Q327 122 345.5 132Q364 142 376 158.5Q388 175 393.5 197Q399 219 399 243V713H555V231Q555 182 537.5 138Q520 94 487.5 61Q455 28 407.5 8.5Q360 -11 300 -11Z" glyph-name="J" horiz-adv-x="617" unicode="J" /><glyph d="M422 938H544L655 760H532L482 857L427 760H306ZM300 -11Q240 -11 191.5 2Q143 15 109 43.5Q75 72 57 117Q39 162 39 225V267H192V234Q192 214 196 194Q200 174 212 158Q224 142 245.5 132Q267 122 302 122Q327 122 345.5 132Q364 142 376 158.5Q388 175 393.5 197Q399 219 399 243V713H555V231Q555 182 537.5 138Q520 94 487.5 61Q455 28 407.5 8.5Q360 -11 300 -11Z" glyph-name="Jcircumflex" horiz-adv-x="617" unicode="&#308;" /><glyph d="M67 713H222V386L490 713H665L426 429L685 0H508L318 320L222 216V0H67Z" glyph-name="K" horiz-adv-x="691" unicode="K" /><glyph d="M292 -33H434L394 -195H280ZM67 713H222V386L490 713H665L426 429L685 0H508L318 320L222 216V0H67Z" glyph-name="Kcommaaccent" horiz-adv-x="691" unicode="&#310;" /><glyph d="M67 713H222V131H565V0H67Z" glyph-name="L" horiz-adv-x="590" unicode="L" /><glyph d="M181 939H332L199 761H95ZM67 713H222V131H565V0H67Z" glyph-name="Lacute" horiz-adv-x="590" unicode="&#313;" /><glyph d="M314 714H444L394 549H299ZM67 713H222V131H565V0H67Z" glyph-name="Lcaron" horiz-adv-x="590" unicode="&#317;" /><glyph d="M247 -33H389L349 -195H235ZM67 713H222V131H565V0H67Z" glyph-name="Lcommaaccent" horiz-adv-x="590" unicode="&#315;" /><glyph d="M376 460H520V322H376ZM67 713H222V131H565V0H67Z" glyph-name="Ldot" horiz-adv-x="590" unicode="&#319;" /><glyph d="M19 318 76 355V713H231V457L333 525V412L231 344V131H574V0H76V242L19 205Z" glyph-name="Lslash" horiz-adv-x="590" unicode="&#321;" /><glyph d="M67 713H259L423 306H425L585 713H776V0H629V465H627L479 89H364L215 463H213V0H67Z" glyph-name="M" horiz-adv-x="842" unicode="M" /><glyph d="M67 713H219L508 269H510V713H657V0H509L216 453H214V0H67Z" glyph-name="N" horiz-adv-x="723" unicode="N" /><glyph d="M394 939H545L412 761H308ZM67 713H219L508 269H510V713H657V0H509L216 453H214V0H67Z" glyph-name="Nacute" horiz-adv-x="723" unicode="&#323;" /><glyph d="M188 939H311L361 842L416 939H537L421 761H299ZM67 713H219L508 269H510V713H657V0H509L216 453H214V0H67Z" glyph-name="Ncaron" horiz-adv-x="723" unicode="&#327;" /><glyph d="M296 -33H438L398 -195H284ZM67 713H219L508 269H510V713H657V0H509L216 453H214V0H67Z" glyph-name="Ncommaaccent" horiz-adv-x="723" unicode="&#325;" /><glyph d="M152 777Q157 805 168 830Q179 855 195 873.5Q211 892 233 902.5Q255 913 282 913Q304 913 324.5 908Q345 903 366 897Q387 891 407.5 886Q428 881 450 881Q471 881 478.5 895.5Q486 910 491 929L573 909Q569 881 559.5 856.5Q550 832 535 813.5Q520 795 498.5 784.5Q477 774 450 774Q428 774 407 779Q386 784 365 789.5Q344 795 323.5 800Q303 805 282 805Q266 805 258 796.5Q250 788 238 759ZM67 713H219L508 269H510V713H657V0H509L216 453H214V0H67Z" glyph-name="Ntilde" horiz-adv-x="723" unicode="&#209;" /><glyph d="M346 120Q370 120 395 127Q420 134 439.5 149.5Q459 165 471.5 189.5Q484 214 484 248V468Q484 498 472.5 521.5Q461 545 441.5 560.5Q422 576 396 584.5Q370 593 342 593Q317 593 292.5 586Q268 579 248.5 564Q229 549 216.5 524.5Q204 500 204 465V247Q204 217 215 193Q226 169 245.5 153Q265 137 291 128.5Q317 120 346 120ZM346 -12Q287 -12 233.5 3.5Q180 19 139 50.5Q98 82 73.5 129.5Q49 177 49 242V458Q49 524 74 573.5Q99 623 140 657Q181 691 233.5 708Q286 725 341 725Q400 725 454 708Q508 691 549 657.5Q590 624 614.5 574.5Q639 525 639 461V255Q639 188 613.5 138Q588 88 547 54.5Q506 21 453 4.5Q400 -12 346 -12Z" glyph-name="O" horiz-adv-x="688" unicode="O" /><glyph d="M466 131V582H332Q307 582 284 575Q261 568 243 552.5Q225 537 214.5 512.5Q204 488 204 453V259Q204 198 240.5 164.5Q277 131 336 131ZM332 0Q273 0 221.5 15.5Q170 31 131.5 62.5Q93 94 71 141.5Q49 189 49 254V446Q49 512 72 561.5Q95 611 133.5 645Q172 679 222.5 696Q273 713 328 713H976V582H621V427H928V296H621V131H979V0Z" glyph-name="OE" horiz-adv-x="1031" unicode="&#338;" /><glyph d="M376 939H527L394 761H290ZM346 120Q370 120 395 127Q420 134 439.5 149.5Q459 165 471.5 189.5Q484 214 484 248V468Q484 498 472.5 521.5Q461 545 441.5 560.5Q422 576 396 584.5Q370 593 342 593Q317 593 292.5 586Q268 579 248.5 564Q229 549 216.5 524.5Q204 500 204 465V247Q204 217 215 193Q226 169 245.5 153Q265 137 291 128.5Q317 120 346 120ZM346 -12Q287 -12 233.5 3.5Q180 19 139 50.5Q98 82 73.5 129.5Q49 177 49 242V458Q49 524 74 573.5Q99 623 140 657Q181 691 233.5 708Q286 725 341 725Q400 725 454 708Q508 691 549 657.5Q590 624 614.5 574.5Q639 525 639 461V255Q639 188 613.5 138Q588 88 547 54.5Q506 21 453 4.5Q400 -12 346 -12Z" glyph-name="Oacute" horiz-adv-x="688" unicode="&#211;" /><glyph d="M344 756Q308 756 277 768Q246 780 223 801.5Q200 823 186.5 854.5Q173 886 172 925H280Q282 909 286 894Q290 879 297.5 868Q305 857 316.5 850Q328 843 345 843Q374 843 388.5 863Q403 883 409 925H517Q517 882 502 850.5Q487 819 462.5 798Q438 777 407 766.5Q376 756 344 756ZM346 120Q370 120 395 127Q420 134 439.5 149.5Q459 165 471.5 189.5Q484 214 484 248V468Q484 498 472.5 521.5Q461 545 441.5 560.5Q422 576 396 584.5Q370 593 342 593Q317 593 292.5 586Q268 579 248.5 564Q229 549 216.5 524.5Q204 500 204 465V247Q204 217 215 193Q226 169 245.5 153Q265 137 291 128.5Q317 120 346 120ZM346 -12Q287 -12 233.5 3.5Q180 19 139 50.5Q98 82 73.5 129.5Q49 177 49 242V458Q49 524 74 573.5Q99 623 140 657Q181 691 233.5 708Q286 725 341 725Q400 725 454 708Q508 691 549 657.5Q590 624 614.5 574.5Q639 525 639 461V255Q639 188 613.5 138Q588 88 547 54.5Q506 21 453 4.5Q400 -12 346 -12Z" glyph-name="Obreve" horiz-adv-x="688" unicode="&#334;" /><glyph d="M286 938H408L519 760H396L346 857L291 760H170ZM346 120Q370 120 395 127Q420 134 439.5 149.5Q459 165 471.5 189.5Q484 214 484 248V468Q484 498 472.5 521.5Q461 545 441.5 560.5Q422 576 396 584.5Q370 593 342 593Q317 593 292.5 586Q268 579 248.5 564Q229 549 216.5 524.5Q204 500 204 465V247Q204 217 215 193Q226 169 245.5 153Q265 137 291 128.5Q317 120 346 120ZM346 -12Q287 -12 233.5 3.5Q180 19 139 50.5Q98 82 73.5 129.5Q49 177 49 242V458Q49 524 74 573.5Q99 623 140 657Q181 691 233.5 708Q286 725 341 725Q400 725 454 708Q508 691 549 657.5Q590 624 614.5 574.5Q639 525 639 461V255Q639 188 613.5 138Q588 88 547 54.5Q506 21 453 4.5Q400 -12 346 -12Z" glyph-name="Ocircumflex" horiz-adv-x="688" unicode="&#212;" /><glyph d="M382 910H514V764H382ZM174 910H306V764H174ZM346 120Q370 120 395 127Q420 134 439.5 149.5Q459 165 471.5 189.5Q484 214 484 248V468Q484 498 472.5 521.5Q461 545 441.5 560.5Q422 576 396 584.5Q370 593 342 593Q317 593 292.5 586Q268 579 248.5 564Q229 549 216.5 524.5Q204 500 204 465V247Q204 217 215 193Q226 169 245.5 153Q265 137 291 128.5Q317 120 346 120ZM346 -12Q287 -12 233.5 3.5Q180 19 139 50.5Q98 82 73.5 129.5Q49 177 49 242V458Q49 524 74 573.5Q99 623 140 657Q181 691 233.5 708Q286 725 341 725Q400 725 454 708Q508 691 549 657.5Q590 624 614.5 574.5Q639 525 639 461V255Q639 188 613.5 138Q588 88 547 54.5Q506 21 453 4.5Q400 -12 346 -12Z" glyph-name="Odieresis" horiz-adv-x="688" unicode="&#214;" /><glyph d="M158 939H309L395 761H291ZM346 120Q370 120 395 127Q420 134 439.5 149.5Q459 165 471.5 189.5Q484 214 484 248V468Q484 498 472.5 521.5Q461 545 441.5 560.5Q422 576 396 584.5Q370 593 342 593Q317 593 292.5 586Q268 579 248.5 564Q229 549 216.5 524.5Q204 500 204 465V247Q204 217 215 193Q226 169 245.5 153Q265 137 291 128.5Q317 120 346 120ZM346 -12Q287 -12 233.5 3.5Q180 19 139 50.5Q98 82 73.5 129.5Q49 177 49 242V458Q49 524 74 573.5Q99 623 140 657Q181 691 233.5 708Q286 725 341 725Q400 725 454 708Q508 691 549 657.5Q590 624 614.5 574.5Q639 525 639 461V255Q639 188 613.5 138Q588 88 547 54.5Q506 21 453 4.5Q400 -12 346 -12Z" glyph-name="Ograve" horiz-adv-x="688" unicode="&#210;" /><glyph d="M465 939H599L485 761H388ZM265 939H399L285 761H188ZM346 120Q370 120 395 127Q420 134 439.5 149.5Q459 165 471.5 189.5Q484 214 484 248V468Q484 498 472.5 521.5Q461 545 441.5 560.5Q422 576 396 584.5Q370 593 342 593Q317 593 292.5 586Q268 579 248.5 564Q229 549 216.5 524.5Q204 500 204 465V247Q204 217 215 193Q226 169 245.5 153Q265 137 291 128.5Q317 120 346 120ZM346 -12Q287 -12 233.5 3.5Q180 19 139 50.5Q98 82 73.5 129.5Q49 177 49 242V458Q49 524 74 573.5Q99 623 140 657Q181 691 233.5 708Q286 725 341 725Q400 725 454 708Q508 691 549 657.5Q590 624 614.5 574.5Q639 525 639 461V255Q639 188 613.5 138Q588 88 547 54.5Q506 21 453 4.5Q400 -12 346 -12Z" glyph-name="Ohungarumlaut" horiz-adv-x="688" unicode="&#336;" /><glyph d="M190 882H499V771H190ZM346 120Q370 120 395 127Q420 134 439.5 149.5Q459 165 471.5 189.5Q484 214 484 248V468Q484 498 472.5 521.5Q461 545 441.5 560.5Q422 576 396 584.5Q370 593 342 593Q317 593 292.5 586Q268 579 248.5 564Q229 549 216.5 524.5Q204 500 204 465V247Q204 217 215 193Q226 169 245.5 153Q265 137 291 128.5Q317 120 346 120ZM346 -12Q287 -12 233.5 3.5Q180 19 139 50.5Q98 82 73.5 129.5Q49 177 49 242V458Q49 524 74 573.5Q99 623 140 657Q181 691 233.5 708Q286 725 341 725Q400 725 454 708Q508 691 549 657.5Q590 624 614.5 574.5Q639 525 639 461V255Q639 188 613.5 138Q588 88 547 54.5Q506 21 453 4.5Q400 -12 346 -12Z" glyph-name="Omacron" horiz-adv-x="688" unicode="&#332;" /><glyph d="M54 133 199 127V136Q172 154 144.5 180Q117 206 95 240.5Q73 275 59.5 319.5Q46 364 46 419V431Q46 498 67 552.5Q88 607 127.5 645Q167 683 223 704Q279 725 348 725Q421 725 477.5 704Q534 683 573 644.5Q612 606 632 552.5Q652 499 652 434V420Q652 359 637 312Q622 265 599 230.5Q576 196 549.5 172.5Q523 149 499 136V127L645 133V0H380V126Q398 145 417 163Q436 181 452 207Q468 233 478 272Q488 311 488 371V466Q488 500 476 524.5Q464 549 444 564.5Q424 580 399 587.5Q374 595 347 595Q321 595 296.5 588Q272 581 252.5 565Q233 549 221 523Q209 497 209 458V379Q209 324 217.5 286Q226 248 241 220Q256 192 276 170Q296 148 319 126V0H54Z" glyph-name="Omega" horiz-adv-x="699" unicode="&#8486;" /><glyph d="M346 120Q370 120 395 127Q420 134 439.5 149.5Q459 165 471.5 189.5Q484 214 484 248V461L270 137Q304 120 346 120ZM204 247Q204 230 207 217L436 564Q417 578 392.5 585.5Q368 593 342 593Q317 593 292.5 586Q268 579 248.5 564Q229 549 216.5 524.5Q204 500 204 465ZM346 -12Q262 -12 191 19L140 -59L56 -12L113 74Q83 105 66 146.5Q49 188 49 242V458Q49 524 74 573.5Q99 623 140 657Q181 691 233.5 708Q286 725 341 725Q438 725 514 681L564 757L648 710L587 618Q611 587 625 548Q639 509 639 461V255Q639 188 613.5 138Q588 88 547 54.5Q506 21 453 4.5Q400 -12 346 -12Z" glyph-name="Oslash" horiz-adv-x="688" unicode="&#216;" /><glyph d="M376 939H527L394 761H290ZM346 120Q370 120 395 127Q420 134 439.5 149.5Q459 165 471.5 189.5Q484 214 484 248V461L270 137Q304 120 346 120ZM204 247Q204 230 207 217L436 564Q417 578 392.5 585.5Q368 593 342 593Q317 593 292.5 586Q268 579 248.5 564Q229 549 216.5 524.5Q204 500 204 465ZM346 -12Q262 -12 191 19L140 -59L56 -12L113 74Q83 105 66 146.5Q49 188 49 242V458Q49 524 74 573.5Q99 623 140 657Q181 691 233.5 708Q286 725 341 725Q438 725 514 681L564 757L648 710L587 618Q611 587 625 548Q639 509 639 461V255Q639 188 613.5 138Q588 88 547 54.5Q506 21 453 4.5Q400 -12 346 -12Z" glyph-name="Oslashacute" horiz-adv-x="688" unicode="&#510;" /><glyph d="M134 777Q139 805 150 830Q161 855 177 873.5Q193 892 215 902.5Q237 913 264 913Q286 913 306.5 908Q327 903 348 897Q369 891 389.5 886Q410 881 432 881Q453 881 460.5 895.5Q468 910 473 929L555 909Q551 881 541.5 856.5Q532 832 517 813.5Q502 795 480.5 784.5Q459 774 432 774Q410 774 389 779Q368 784 347 789.5Q326 795 305.5 800Q285 805 264 805Q248 805 240 796.5Q232 788 220 759ZM346 120Q370 120 395 127Q420 134 439.5 149.5Q459 165 471.5 189.5Q484 214 484 248V468Q484 498 472.5 521.5Q461 545 441.5 560.5Q422 576 396 584.5Q370 593 342 593Q317 593 292.5 586Q268 579 248.5 564Q229 549 216.5 524.5Q204 500 204 465V247Q204 217 215 193Q226 169 245.5 153Q265 137 291 128.5Q317 120 346 120ZM346 -12Q287 -12 233.5 3.5Q180 19 139 50.5Q98 82 73.5 129.5Q49 177 49 242V458Q49 524 74 573.5Q99 623 140 657Q181 691 233.5 708Q286 725 341 725Q400 725 454 708Q508 691 549 657.5Q590 624 614.5 574.5Q639 525 639 461V255Q639 188 613.5 138Q588 88 547 54.5Q506 21 453 4.5Q400 -12 346 -12Z" glyph-name="Otilde" horiz-adv-x="688" unicode="&#213;" /><glyph d="M350 382Q404 382 435 408.5Q466 435 466 484Q466 539 433.5 563Q401 587 349 587H222V382ZM67 713H373Q428 713 473.5 697Q519 681 551 652Q583 623 600.5 580.5Q618 538 618 486Q618 444 604 403Q590 362 561 329.5Q532 297 486.5 277Q441 257 378 257H222V0H67Z" glyph-name="P" horiz-adv-x="646" unicode="P" /><glyph d="M346 120Q370 120 395 127Q420 134 439.5 149.5Q459 165 471.5 189.5Q484 214 484 248V468Q484 498 472.5 521.5Q461 545 441.5 560.5Q422 576 396 584.5Q370 593 342 593Q317 593 292.5 586Q268 579 248.5 564Q229 549 216.5 524.5Q204 500 204 465V247Q204 217 215 193Q226 169 245.5 153Q265 137 291 128.5Q317 120 346 120ZM397 -7Q385 -9 371.5 -10.5Q358 -12 346 -12Q287 -12 233.5 3.5Q180 19 139 50.5Q98 82 73.5 129.5Q49 177 49 242V458Q49 524 74 573.5Q99 623 140 657Q181 691 233.5 708Q286 725 341 725Q400 725 454 708Q508 691 549 657.5Q590 624 614.5 574.5Q639 525 639 461V255Q639 189 614.5 139.5Q590 90 550 57L655 2L558 -114Z" glyph-name="Q" horiz-adv-x="688" unicode="Q" /><glyph d="M344 382Q398 382 429 408.5Q460 435 460 484Q460 539 427.5 563Q395 587 343 587H222V382ZM67 713H364Q419 713 465 697.5Q511 682 543.5 653Q576 624 594 582Q612 540 612 488Q612 456 603.5 424.5Q595 393 578 365.5Q561 338 535 315.5Q509 293 474 280L645 0H474L320 259H222V0H67Z" glyph-name="R" horiz-adv-x="664" unicode="R" /><glyph d="M349 939H500L367 761H263ZM344 382Q398 382 429 408.5Q460 435 460 484Q460 539 427.5 563Q395 587 343 587H222V382ZM67 713H364Q419 713 465 697.5Q511 682 543.5 653Q576 624 594 582Q612 540 612 488Q612 456 603.5 424.5Q595 393 578 365.5Q561 338 535 315.5Q509 293 474 280L645 0H474L320 259H222V0H67Z" glyph-name="Racute" horiz-adv-x="664" unicode="&#340;" /><glyph d="M143 939H266L316 842L371 939H492L376 761H254ZM344 382Q398 382 429 408.5Q460 435 460 484Q460 539 427.5 563Q395 587 343 587H222V382ZM67 713H364Q419 713 465 697.5Q511 682 543.5 653Q576 624 594 582Q612 540 612 488Q612 456 603.5 424.5Q595 393 578 365.5Q561 338 535 315.5Q509 293 474 280L645 0H474L320 259H222V0H67Z" glyph-name="Rcaron" horiz-adv-x="664" unicode="&#344;" /><glyph d="M267 -33H409L369 -195H255ZM344 382Q398 382 429 408.5Q460 435 460 484Q460 539 427.5 563Q395 587 343 587H222V382ZM67 713H364Q419 713 465 697.5Q511 682 543.5 653Q576 624 594 582Q612 540 612 488Q612 456 603.5 424.5Q595 393 578 365.5Q561 338 535 315.5Q509 293 474 280L645 0H474L320 259H222V0H67Z" glyph-name="Rcommaaccent" horiz-adv-x="664" unicode="&#342;" /><glyph d="M313 -11Q265 -11 220 -2.5Q175 6 137 24.5Q99 43 68 71.5Q37 100 18 141L135 215Q158 170 205.5 143Q253 116 311 116Q335 116 357.5 120.5Q380 125 397.5 134.5Q415 144 426 159.5Q437 175 437 197Q437 233 411.5 250.5Q386 268 348 279L226 310Q190 319 159 333.5Q128 348 105 371Q82 394 69 426.5Q56 459 56 504Q56 554 76.5 595Q97 636 132.5 665Q168 694 216 709.5Q264 725 320 725Q412 725 474 696Q536 667 578 598L466 525Q442 565 402 582Q362 599 315 599Q294 599 275 594.5Q256 590 241.5 581Q227 572 218 557Q209 542 209 521Q209 504 217 491.5Q225 479 238.5 470Q252 461 270.5 454.5Q289 448 309 442L427 412Q462 403 492.5 388Q523 373 545.5 349Q568 325 581 292Q594 259 594 214Q594 160 571.5 118.5Q549 77 510.5 48Q472 19 421 4Q370 -11 313 -11Z" glyph-name="S" horiz-adv-x="630" unicode="S" /><glyph d="M338 939H489L356 761H252ZM313 -11Q265 -11 220 -2.5Q175 6 137 24.5Q99 43 68 71.5Q37 100 18 141L135 215Q158 170 205.5 143Q253 116 311 116Q335 116 357.5 120.5Q380 125 397.5 134.5Q415 144 426 159.5Q437 175 437 197Q437 233 411.5 250.5Q386 268 348 279L226 310Q190 319 159 333.5Q128 348 105 371Q82 394 69 426.5Q56 459 56 504Q56 554 76.5 595Q97 636 132.5 665Q168 694 216 709.5Q264 725 320 725Q412 725 474 696Q536 667 578 598L466 525Q442 565 402 582Q362 599 315 599Q294 599 275 594.5Q256 590 241.5 581Q227 572 218 557Q209 542 209 521Q209 504 217 491.5Q225 479 238.5 470Q252 461 270.5 454.5Q289 448 309 442L427 412Q462 403 492.5 388Q523 373 545.5 349Q568 325 581 292Q594 259 594 214Q594 160 571.5 118.5Q549 77 510.5 48Q472 19 421 4Q370 -11 313 -11Z" glyph-name="Sacute" horiz-adv-x="630" unicode="&#346;" /><glyph d="M132 939H255L305 842L360 939H481L365 761H243ZM313 -11Q265 -11 220 -2.5Q175 6 137 24.5Q99 43 68 71.5Q37 100 18 141L135 215Q158 170 205.5 143Q253 116 311 116Q335 116 357.5 120.5Q380 125 397.5 134.5Q415 144 426 159.5Q437 175 437 197Q437 233 411.5 250.5Q386 268 348 279L226 310Q190 319 159 333.5Q128 348 105 371Q82 394 69 426.5Q56 459 56 504Q56 554 76.5 595Q97 636 132.5 665Q168 694 216 709.5Q264 725 320 725Q412 725 474 696Q536 667 578 598L466 525Q442 565 402 582Q362 599 315 599Q294 599 275 594.5Q256 590 241.5 581Q227 572 218 557Q209 542 209 521Q209 504 217 491.5Q225 479 238.5 470Q252 461 270.5 454.5Q289 448 309 442L427 412Q462 403 492.5 388Q523 373 545.5 349Q568 325 581 292Q594 259 594 214Q594 160 571.5 118.5Q549 77 510.5 48Q472 19 421 4Q370 -11 313 -11Z" glyph-name="Scaron" horiz-adv-x="630" unicode="&#352;" /><glyph d="M310 -213Q259 -213 206 -196V-132Q232 -140 256 -145Q280 -150 299 -150Q327 -150 339 -142.5Q351 -135 351 -118Q351 -104 335.5 -100Q320 -96 298 -94L254 -92L270 -9Q187 -2 120 33.5Q53 69 18 141L135 215Q158 170 205.5 143Q253 116 311 116Q335 116 357.5 120.5Q380 125 397.5 134.5Q415 144 426 159.5Q437 175 437 197Q437 233 411.5 251Q386 269 348 279L226 310Q190 319 159 333.5Q128 348 105 371Q82 394 69 426.5Q56 459 56 504Q56 554 76.5 595Q97 636 132.5 665Q168 694 216 709.5Q264 725 320 725Q412 725 474 696Q536 667 578 598L466 525Q442 565 402 582Q362 599 315 599Q294 599 275 594.5Q256 590 241.5 581Q227 572 218 557Q209 542 209 521Q209 504 217 491.5Q225 479 238.5 469.5Q252 460 270.5 453.5Q289 447 309 442L427 412Q462 403 492.5 388Q523 373 545.5 349Q568 325 581 292Q594 259 594 214Q594 163 573.5 122Q553 81 517 52.5Q481 24 433.5 8Q386 -8 332 -10L327 -38Q350 -38 373.5 -41.5Q397 -45 415.5 -54Q434 -63 445.5 -78.5Q457 -94 457 -118Q457 -160 416.5 -186.5Q376 -213 310 -213Z" glyph-name="Scedilla" horiz-adv-x="630" unicode="&#350;" /><glyph d="M248 938H370L481 760H358L308 857L253 760H132ZM313 -11Q265 -11 220 -2.5Q175 6 137 24.5Q99 43 68 71.5Q37 100 18 141L135 215Q158 170 205.5 143Q253 116 311 116Q335 116 357.5 120.5Q380 125 397.5 134.5Q415 144 426 159.5Q437 175 437 197Q437 233 411.5 250.5Q386 268 348 279L226 310Q190 319 159 333.5Q128 348 105 371Q82 394 69 426.5Q56 459 56 504Q56 554 76.5 595Q97 636 132.5 665Q168 694 216 709.5Q264 725 320 725Q412 725 474 696Q536 667 578 598L466 525Q442 565 402 582Q362 599 315 599Q294 599 275 594.5Q256 590 241.5 581Q227 572 218 557Q209 542 209 521Q209 504 217 491.5Q225 479 238.5 470Q252 461 270.5 454.5Q289 448 309 442L427 412Q462 403 492.5 388Q523 373 545.5 349Q568 325 581 292Q594 259 594 214Q594 160 571.5 118.5Q549 77 510.5 48Q472 19 421 4Q370 -11 313 -11Z" glyph-name="Scircumflex" horiz-adv-x="630" unicode="&#348;" /><glyph d="M250 -33H392L352 -195H238ZM313 -11Q265 -11 220 -2.5Q175 6 137 24.5Q99 43 68 71.5Q37 100 18 141L135 215Q158 170 205.5 143Q253 116 311 116Q335 116 357.5 120.5Q380 125 397.5 134.5Q415 144 426 159.5Q437 175 437 197Q437 233 411.5 250.5Q386 268 348 279L226 310Q190 319 159 333.5Q128 348 105 371Q82 394 69 426.5Q56 459 56 504Q56 554 76.5 595Q97 636 132.5 665Q168 694 216 709.5Q264 725 320 725Q412 725 474 696Q536 667 578 598L466 525Q442 565 402 582Q362 599 315 599Q294 599 275 594.5Q256 590 241.5 581Q227 572 218 557Q209 542 209 521Q209 504 217 491.5Q225 479 238.5 470Q252 461 270.5 454.5Q289 448 309 442L427 412Q462 403 492.5 388Q523 373 545.5 349Q568 325 581 292Q594 259 594 214Q594 160 571.5 118.5Q549 77 510.5 48Q472 19 421 4Q370 -11 313 -11Z" glyph-name="Scommaaccent" horiz-adv-x="630" unicode="&#536;" /><glyph d="M229 584H26V713H588V584H385V0H229Z" glyph-name="T" horiz-adv-x="614" unicode="T" /><glyph d="M114 402H229V584H26V713H588V584H385V402H500V292H385V0H229V292H114Z" glyph-name="Tbar" horiz-adv-x="614" unicode="&#358;" /><glyph d="M134 939H257L307 842L362 939H483L367 761H245ZM229 584H26V713H588V584H385V0H229Z" glyph-name="Tcaron" horiz-adv-x="614" unicode="&#356;" /><glyph d="M229 584H26V713H588V584H385V0H332L324 -38Q347 -38 370.5 -41.5Q394 -45 412.5 -54Q431 -63 442.5 -78.5Q454 -94 454 -118Q454 -160 413.5 -186.5Q373 -213 307 -213Q256 -213 203 -196V-132Q229 -140 253 -145Q277 -150 296 -150Q324 -150 336 -142.5Q348 -135 348 -118Q348 -110 342.5 -105.5Q337 -101 328.5 -98.5Q320 -96 309.5 -95Q299 -94 289 -94L251 -92L269 0H229Z" glyph-name="Tcommaaccent" horiz-adv-x="614" unicode="&#354;" /><glyph d="M350 269Q404 269 435 295.5Q466 322 466 370Q466 424 433.5 447.5Q401 471 349 471H222V269ZM67 713H222V594H373Q428 594 473.5 578.5Q519 563 551 534.5Q583 506 600.5 464.5Q618 423 618 372Q618 331 604 290.5Q590 250 561 218.5Q532 187 486.5 167.5Q441 148 378 148H222V0H67Z" glyph-name="Thorn" horiz-adv-x="646" unicode="&#222;" /><glyph d="M349 -12Q284 -12 231 4Q178 20 140.5 52.5Q103 85 82.5 134Q62 183 62 249V713H218V263Q218 200 250.5 161Q283 122 352 122Q417 122 450.5 157.5Q484 193 484 263V713H638V258Q638 193 616.5 142.5Q595 92 556.5 57.5Q518 23 465 5.5Q412 -12 349 -12Z" glyph-name="U" horiz-adv-x="700" unicode="U" /><glyph d="M382 939H533L400 761H296ZM349 -12Q284 -12 231 4Q178 20 140.5 52.5Q103 85 82.5 134Q62 183 62 249V713H218V263Q218 200 250.5 161Q283 122 352 122Q417 122 450.5 157.5Q484 193 484 263V713H638V258Q638 193 616.5 142.5Q595 92 556.5 57.5Q518 23 465 5.5Q412 -12 349 -12Z" glyph-name="Uacute" horiz-adv-x="700" unicode="&#218;" /><glyph d="M350 756Q314 756 283 768Q252 780 229 801.5Q206 823 192.5 854.5Q179 886 178 925H286Q288 909 292 894Q296 879 303.5 868Q311 857 322.5 850Q334 843 351 843Q380 843 394.5 863Q409 883 415 925H523Q523 882 508 850.5Q493 819 468.5 798Q444 777 413 766.5Q382 756 350 756ZM349 -12Q284 -12 231 4Q178 20 140.5 52.5Q103 85 82.5 134Q62 183 62 249V713H218V263Q218 200 250.5 161Q283 122 352 122Q417 122 450.5 157.5Q484 193 484 263V713H638V258Q638 193 616.5 142.5Q595 92 556.5 57.5Q518 23 465 5.5Q412 -12 349 -12Z" glyph-name="Ubreve" horiz-adv-x="700" unicode="&#364;" /><glyph d="M292 938H414L525 760H402L352 857L297 760H176ZM349 -12Q284 -12 231 4Q178 20 140.5 52.5Q103 85 82.5 134Q62 183 62 249V713H218V263Q218 200 250.5 161Q283 122 352 122Q417 122 450.5 157.5Q484 193 484 263V713H638V258Q638 193 616.5 142.5Q595 92 556.5 57.5Q518 23 465 5.5Q412 -12 349 -12Z" glyph-name="Ucircumflex" horiz-adv-x="700" unicode="&#219;" /><glyph d="M388 910H520V764H388ZM180 910H312V764H180ZM349 -12Q284 -12 231 4Q178 20 140.5 52.5Q103 85 82.5 134Q62 183 62 249V713H218V263Q218 200 250.5 161Q283 122 352 122Q417 122 450.5 157.5Q484 193 484 263V713H638V258Q638 193 616.5 142.5Q595 92 556.5 57.5Q518 23 465 5.5Q412 -12 349 -12Z" glyph-name="Udieresis" horiz-adv-x="700" unicode="&#220;" /><glyph d="M164 939H315L401 761H297ZM349 -12Q284 -12 231 4Q178 20 140.5 52.5Q103 85 82.5 134Q62 183 62 249V713H218V263Q218 200 250.5 161Q283 122 352 122Q417 122 450.5 157.5Q484 193 484 263V713H638V258Q638 193 616.5 142.5Q595 92 556.5 57.5Q518 23 465 5.5Q412 -12 349 -12Z" glyph-name="Ugrave" horiz-adv-x="700" unicode="&#217;" /><glyph d="M471 939H605L491 761H394ZM271 939H405L291 761H194ZM349 -12Q284 -12 231 4Q178 20 140.5 52.5Q103 85 82.5 134Q62 183 62 249V713H218V263Q218 200 250.5 161Q283 122 352 122Q417 122 450.5 157.5Q484 193 484 263V713H638V258Q638 193 616.5 142.5Q595 92 556.5 57.5Q518 23 465 5.5Q412 -12 349 -12Z" glyph-name="Uhungarumlaut" horiz-adv-x="700" unicode="&#368;" /><glyph d="M196 882H505V771H196ZM349 -12Q284 -12 231 4Q178 20 140.5 52.5Q103 85 82.5 134Q62 183 62 249V713H218V263Q218 200 250.5 161Q283 122 352 122Q417 122 450.5 157.5Q484 193 484 263V713H638V258Q638 193 616.5 142.5Q595 92 556.5 57.5Q518 23 465 5.5Q412 -12 349 -12Z" glyph-name="Umacron" horiz-adv-x="700" unicode="&#362;" /><glyph d="M400 -220Q372 -220 347 -214Q322 -208 303.5 -195.5Q285 -183 274 -163Q263 -143 263 -116Q263 -84 276 -57.5Q289 -31 312 -10Q255 -6 209 12.5Q163 31 130 63Q97 95 79.5 141.5Q62 188 62 249V713H218V263Q218 200 250.5 161Q283 122 352 122Q417 122 450.5 157.5Q484 193 484 263V713H638V258Q638 157 588 92.5Q538 28 456 3Q415 -9 391.5 -36.5Q368 -64 368 -86Q368 -108 382 -118Q396 -128 419 -128Q428 -128 446 -122Q464 -116 479 -107L512 -191Q489 -205 460.5 -212.5Q432 -220 400 -220Z" glyph-name="Uogonek" horiz-adv-x="700" unicode="&#370;" /><glyph d="M349 807Q370 807 384 820.5Q398 834 398 854Q398 874 385 888.5Q372 903 349 903Q327 903 314.5 888.5Q302 874 302 854Q302 834 315.5 820.5Q329 807 349 807ZM349 754Q300 754 270 781.5Q240 809 240 852Q240 874 248.5 892.5Q257 911 272 925Q287 939 306.5 947Q326 955 349 955Q398 955 429 929Q460 903 460 858Q460 836 451 817Q442 798 427 784Q412 770 391.5 762Q371 754 349 754ZM349 -12Q284 -12 231 4Q178 20 140.5 52.5Q103 85 82.5 134Q62 183 62 249V713H218V263Q218 200 250.5 161Q283 122 352 122Q417 122 450.5 157.5Q484 193 484 263V713H638V258Q638 193 616.5 142.5Q595 92 556.5 57.5Q518 23 465 5.5Q412 -12 349 -12Z" glyph-name="Uring" horiz-adv-x="700" unicode="&#366;" /><glyph d="M140 777Q145 805 156 830Q167 855 183 873.5Q199 892 221 902.5Q243 913 270 913Q292 913 312.5 908Q333 903 354 897Q375 891 395.5 886Q416 881 438 881Q459 881 466.5 895.5Q474 910 479 929L561 909Q557 881 547.5 856.5Q538 832 523 813.5Q508 795 486.5 784.5Q465 774 438 774Q416 774 395 779Q374 784 353 789.5Q332 795 311.5 800Q291 805 270 805Q254 805 246 796.5Q238 788 226 759ZM349 -12Q284 -12 231 4Q178 20 140.5 52.5Q103 85 82.5 134Q62 183 62 249V713H218V263Q218 200 250.5 161Q283 122 352 122Q417 122 450.5 157.5Q484 193 484 263V713H638V258Q638 193 616.5 142.5Q595 92 556.5 57.5Q518 23 465 5.5Q412 -12 349 -12Z" glyph-name="Utilde" horiz-adv-x="700" unicode="&#360;" /><glyph d="M1 713H165L316 199H319L471 713H622L388 -3H232Z" glyph-name="V" horiz-adv-x="623" unicode="V" /><glyph d="M11 713H168L273 246H276L396 713H531L649 244H650L757 713H909L727 -3H581L460 474H458L336 -3H193Z" glyph-name="W" horiz-adv-x="920" unicode="W" /><glyph d="M492 939H643L510 761H406ZM11 713H168L273 246H276L396 713H531L649 244H650L757 713H909L727 -3H581L460 474H458L336 -3H193Z" glyph-name="Wacute" horiz-adv-x="920" unicode="&#7810;" /><glyph d="M402 938H524L635 760H512L462 857L407 760H286ZM11 713H168L273 246H276L396 713H531L649 244H650L757 713H909L727 -3H581L460 474H458L336 -3H193Z" glyph-name="Wcircumflex" horiz-adv-x="920" unicode="&#372;" /><glyph d="M498 910H630V764H498ZM290 910H422V764H290ZM11 713H168L273 246H276L396 713H531L649 244H650L757 713H909L727 -3H581L460 474H458L336 -3H193Z" glyph-name="Wdieresis" horiz-adv-x="920" unicode="&#7812;" /><glyph d="M274 939H425L511 761H407ZM11 713H168L273 246H276L396 713H531L649 244H650L757 713H909L727 -3H581L460 474H458L336 -3H193Z" glyph-name="Wgrave" horiz-adv-x="920" unicode="&#7808;" /><glyph d="M222 370 11 713H185L317 484L451 713H616L404 368L632 0H456L309 248L163 0H-6Z" glyph-name="X" horiz-adv-x="626" unicode="X" /><glyph d="M236 284 -1 713H169L319 423L467 713H627L389 282V0H236Z" glyph-name="Y" horiz-adv-x="626" unicode="Y" /><glyph d="M345 939H496L363 761H259ZM236 284 -1 713H169L319 423L467 713H627L389 282V0H236Z" glyph-name="Yacute" horiz-adv-x="626" unicode="&#221;" /><glyph d="M255 938H377L488 760H365L315 857L260 760H139ZM236 284 -1 713H169L319 423L467 713H627L389 282V0H236Z" glyph-name="Ycircumflex" horiz-adv-x="626" unicode="&#374;" /><glyph d="M351 910H483V764H351ZM143 910H275V764H143ZM236 284 -1 713H169L319 423L467 713H627L389 282V0H236Z" glyph-name="Ydieresis" horiz-adv-x="626" unicode="&#376;" /><glyph d="M127 939H278L364 761H260ZM236 284 -1 713H169L319 423L467 713H627L389 282V0H236Z" glyph-name="Ygrave" horiz-adv-x="626" unicode="&#7922;" /><glyph d="M35 112 374 583H51V713H570V598L235 130H576V0H35Z" glyph-name="Z" horiz-adv-x="612" unicode="Z" /><glyph d="M337 939H488L355 761H251ZM35 112 374 583H51V713H570V598L235 130H576V0H35Z" glyph-name="Zacute" horiz-adv-x="612" unicode="&#377;" /><glyph d="M149 939H272L322 842L377 939H498L382 761H260ZM35 112 374 583H51V713H570V598L235 130H576V0H35Z" glyph-name="Zcaron" horiz-adv-x="612" unicode="&#381;" /><glyph d="M238 910H372V764H238ZM35 112 374 583H51V713H570V598L235 130H576V0H35Z" glyph-name="Zdotaccent" horiz-adv-x="612" unicode="&#379;" /><glyph d="M256 97Q286 97 305.5 104Q325 111 336.5 124Q348 137 352.5 153.5Q357 170 357 190V217H258Q220 217 196.5 203.5Q173 190 173 157Q173 128 194 112.5Q215 97 256 97ZM207 -11Q168 -11 136 -0.5Q104 10 80.5 30Q57 50 44 78.5Q31 107 31 144Q31 186 50 216.5Q69 247 99 267.5Q129 288 167 298Q205 308 243 308H357V352Q357 388 334 406Q311 424 267 424Q227 424 204.5 409Q182 394 182 371V355H54V371Q54 413 73 443Q92 473 122.5 492Q153 511 192 520Q231 529 272 529Q316 529 357.5 520.5Q399 512 430.5 491.5Q462 471 481 438Q500 405 500 357V113Q500 101 501 83.5Q502 66 503 48.5Q504 31 505.5 17.5Q507 4 509 0H370L365 53H362Q329 13 290.5 1Q252 -11 207 -11Z" glyph-name="a" horiz-adv-x="557" unicode="a" /><glyph d="M299 736H450L317 569H213ZM256 97Q286 97 305.5 104Q325 111 336.5 124Q348 137 352.5 153.5Q357 170 357 190V217H258Q220 217 196.5 203.5Q173 190 173 157Q173 128 194 112.5Q215 97 256 97ZM207 -11Q168 -11 136 -0.5Q104 10 80.5 30Q57 50 44 78.5Q31 107 31 144Q31 186 50 216.5Q69 247 99 267.5Q129 288 167 298Q205 308 243 308H357V352Q357 388 334 406Q311 424 267 424Q227 424 204.5 409Q182 394 182 371V355H54V371Q54 413 73 443Q92 473 122.5 492Q153 511 192 520Q231 529 272 529Q316 529 357.5 520.5Q399 512 430.5 491.5Q462 471 481 438Q500 405 500 357V113Q500 101 501 83.5Q502 66 503 48.5Q504 31 505.5 17.5Q507 4 509 0H370L365 53H362Q329 13 290.5 1Q252 -11 207 -11Z" glyph-name="aacute" horiz-adv-x="557" unicode="&#225;" /><glyph d="M270 567Q234 567 203 579Q172 591 149 612.5Q126 634 112.5 665.5Q99 697 98 736H206Q208 720 212 705Q216 690 223.5 679Q231 668 242.5 661Q254 654 271 654Q300 654 314.5 674Q329 694 335 736H443Q443 693 428 661.5Q413 630 388.5 609Q364 588 333 577.5Q302 567 270 567ZM256 97Q286 97 305.5 104Q325 111 336.5 124Q348 137 352.5 153.5Q357 170 357 190V217H258Q220 217 196.5 203.5Q173 190 173 157Q173 128 194 112.5Q215 97 256 97ZM207 -11Q168 -11 136 -0.5Q104 10 80.5 30Q57 50 44 78.5Q31 107 31 144Q31 186 50 216.5Q69 247 99 267.5Q129 288 167 298Q205 308 243 308H357V352Q357 388 334 406Q311 424 267 424Q227 424 204.5 409Q182 394 182 371V355H54V371Q54 413 73 443Q92 473 122.5 492Q153 511 192 520Q231 529 272 529Q316 529 357.5 520.5Q399 512 430.5 491.5Q462 471 481 438Q500 405 500 357V113Q500 101 501 83.5Q502 66 503 48.5Q504 31 505.5 17.5Q507 4 509 0H370L365 53H362Q329 13 290.5 1Q252 -11 207 -11Z" glyph-name="abreve" horiz-adv-x="557" unicode="&#259;" /><glyph d="M212 738H334L445 570H322L272 656L217 570H96ZM256 97Q286 97 305.5 104Q325 111 336.5 124Q348 137 352.5 153.5Q357 170 357 190V217H258Q220 217 196.5 203.5Q173 190 173 157Q173 128 194 112.5Q215 97 256 97ZM207 -11Q168 -11 136 -0.5Q104 10 80.5 30Q57 50 44 78.5Q31 107 31 144Q31 186 50 216.5Q69 247 99 267.5Q129 288 167 298Q205 308 243 308H357V352Q357 388 334 406Q311 424 267 424Q227 424 204.5 409Q182 394 182 371V355H54V371Q54 413 73 443Q92 473 122.5 492Q153 511 192 520Q231 529 272 529Q316 529 357.5 520.5Q399 512 430.5 491.5Q462 471 481 438Q500 405 500 357V113Q500 101 501 83.5Q502 66 503 48.5Q504 31 505.5 17.5Q507 4 509 0H370L365 53H362Q329 13 290.5 1Q252 -11 207 -11Z" glyph-name="acircumflex" horiz-adv-x="557" unicode="&#226;" /><glyph d="M249 736H400L267 569H163Z" glyph-name="acute" horiz-adv-x="563" unicode="&#180;" /><glyph d="M-235 736H-84L-217 569H-321Z" glyph-name="acutecomb" horiz-adv-x="1" unicode="&#769;" /><glyph d="M-219 939H-68L-201 761H-305Z" glyph-name="acutecomb.case" horiz-adv-x="1" /><glyph d="M308 717H440V570H308ZM100 717H232V570H100ZM256 97Q286 97 305.5 104Q325 111 336.5 124Q348 137 352.5 153.5Q357 170 357 190V217H258Q220 217 196.5 203.5Q173 190 173 157Q173 128 194 112.5Q215 97 256 97ZM207 -11Q168 -11 136 -0.5Q104 10 80.5 30Q57 50 44 78.5Q31 107 31 144Q31 186 50 216.5Q69 247 99 267.5Q129 288 167 298Q205 308 243 308H357V352Q357 388 334 406Q311 424 267 424Q227 424 204.5 409Q182 394 182 371V355H54V371Q54 413 73 443Q92 473 122.5 492Q153 511 192 520Q231 529 272 529Q316 529 357.5 520.5Q399 512 430.5 491.5Q462 471 481 438Q500 405 500 357V113Q500 101 501 83.5Q502 66 503 48.5Q504 31 505.5 17.5Q507 4 509 0H370L365 53H362Q329 13 290.5 1Q252 -11 207 -11Z" glyph-name="adieresis" horiz-adv-x="557" unicode="&#228;" /><glyph d="M689 312V328Q689 375 661.5 396Q634 417 599 417Q581 417 563.5 411.5Q546 406 532.5 394.5Q519 383 511 365Q503 347 503 322V312ZM256 97Q286 97 305.5 104Q325 111 336.5 124Q348 137 352.5 153.5Q357 170 357 190V217H258Q220 217 196.5 203.5Q173 190 173 157Q173 128 194 112.5Q215 97 256 97ZM604 -12Q540 -12 483.5 10Q427 32 394 80Q375 50 351.5 32Q328 14 303 4.5Q278 -5 253 -8Q228 -11 207 -11Q168 -11 136 -0.5Q104 10 80.5 30Q57 50 44 78.5Q31 107 31 144Q31 186 50 216.5Q69 247 99 267.5Q129 288 167 298Q205 308 243 308H357V352Q357 388 334 406Q311 424 267 424Q227 424 204.5 409Q182 394 182 371V355H54V371Q54 413 73 443Q92 473 122.5 492Q153 511 192 520Q231 529 272 529Q323 529 367.5 518Q412 507 444 481Q512 529 601 529Q644 529 685 516Q726 503 758 477.5Q790 452 809 413Q828 374 828 322V221H503V197Q503 173 512.5 155.5Q522 138 538 126Q554 114 574.5 108Q595 102 618 102Q634 102 651.5 106.5Q669 111 686 119Q703 127 717.5 137Q732 147 742 159L823 85Q783 32 726.5 10Q670 -12 604 -12Z" glyph-name="ae" horiz-adv-x="868" unicode="&#230;" /><glyph d="M480 736H631L498 569H394ZM689 312V328Q689 375 661.5 396Q634 417 599 417Q581 417 563.5 411.5Q546 406 532.5 394.5Q519 383 511 365Q503 347 503 322V312ZM256 97Q286 97 305.5 104Q325 111 336.5 124Q348 137 352.5 153.5Q357 170 357 190V217H258Q220 217 196.5 203.5Q173 190 173 157Q173 128 194 112.5Q215 97 256 97ZM604 -12Q540 -12 483.5 10Q427 32 394 80Q375 50 351.5 32Q328 14 303 4.5Q278 -5 253 -8Q228 -11 207 -11Q168 -11 136 -0.5Q104 10 80.5 30Q57 50 44 78.5Q31 107 31 144Q31 186 50 216.5Q69 247 99 267.5Q129 288 167 298Q205 308 243 308H357V352Q357 388 334 406Q311 424 267 424Q227 424 204.5 409Q182 394 182 371V355H54V371Q54 413 73 443Q92 473 122.5 492Q153 511 192 520Q231 529 272 529Q323 529 367.5 518Q412 507 444 481Q512 529 601 529Q644 529 685 516Q726 503 758 477.5Q790 452 809 413Q828 374 828 322V221H503V197Q503 173 512.5 155.5Q522 138 538 126Q554 114 574.5 108Q595 102 618 102Q634 102 651.5 106.5Q669 111 686 119Q703 127 717.5 137Q732 147 742 159L823 85Q783 32 726.5 10Q670 -12 604 -12Z" glyph-name="aeacute" horiz-adv-x="868" unicode="&#509;" /><glyph d="M86 736H237L323 569H219ZM256 97Q286 97 305.5 104Q325 111 336.5 124Q348 137 352.5 153.5Q357 170 357 190V217H258Q220 217 196.5 203.5Q173 190 173 157Q173 128 194 112.5Q215 97 256 97ZM207 -11Q168 -11 136 -0.5Q104 10 80.5 30Q57 50 44 78.5Q31 107 31 144Q31 186 50 216.5Q69 247 99 267.5Q129 288 167 298Q205 308 243 308H357V352Q357 388 334 406Q311 424 267 424Q227 424 204.5 409Q182 394 182 371V355H54V371Q54 413 73 443Q92 473 122.5 492Q153 511 192 520Q231 529 272 529Q316 529 357.5 520.5Q399 512 430.5 491.5Q462 471 481 438Q500 405 500 357V113Q500 101 501 83.5Q502 66 503 48.5Q504 31 505.5 17.5Q507 4 509 0H370L365 53H362Q329 13 290.5 1Q252 -11 207 -11Z" glyph-name="agrave" horiz-adv-x="557" unicode="&#224;" /><glyph d="M115 693H425V582H115ZM256 97Q286 97 305.5 104Q325 111 336.5 124Q348 137 352.5 153.5Q357 170 357 190V217H258Q220 217 196.5 203.5Q173 190 173 157Q173 128 194 112.5Q215 97 256 97ZM207 -11Q168 -11 136 -0.5Q104 10 80.5 30Q57 50 44 78.5Q31 107 31 144Q31 186 50 216.5Q69 247 99 267.5Q129 288 167 298Q205 308 243 308H357V352Q357 388 334 406Q311 424 267 424Q227 424 204.5 409Q182 394 182 371V355H54V371Q54 413 73 443Q92 473 122.5 492Q153 511 192 520Q231 529 272 529Q316 529 357.5 520.5Q399 512 430.5 491.5Q462 471 481 438Q500 405 500 357V113Q500 101 501 83.5Q502 66 503 48.5Q504 31 505.5 17.5Q507 4 509 0H370L365 53H362Q329 13 290.5 1Q252 -11 207 -11Z" glyph-name="amacron" horiz-adv-x="557" unicode="&#257;" /><glyph d="M376 443Q416 457 441 485Q466 513 466 558Q466 590 444 607.5Q422 625 392 625Q347 625 326.5 604.5Q306 584 306 552Q306 533 321 511.5Q336 490 351 472ZM321 100Q355 100 387.5 112.5Q420 125 446 151L287 325Q241 305 220.5 270Q200 235 200 202Q200 155 232 127.5Q264 100 321 100ZM288 -16Q235 -16 191.5 -1.5Q148 13 116 39.5Q84 66 66.5 103.5Q49 141 49 188Q49 257 94.5 312.5Q140 368 220 397Q192 426 169 464Q146 502 146 541Q146 578 159.5 611.5Q173 645 202 670Q231 695 276 710Q321 725 385 725Q434 725 473.5 712.5Q513 700 540.5 677.5Q568 655 582.5 625Q597 595 597 560Q597 524 584 494Q571 464 549 440.5Q527 417 498.5 399.5Q470 382 440 372L549 252Q554 263 558 273Q562 283 565.5 293.5Q569 304 572.5 317Q576 330 581 347L703 334Q692 280 675.5 239.5Q659 199 636 161L784 0H586L523 67Q478 29 419 6.5Q360 -16 288 -16Z" glyph-name="ampersand" horiz-adv-x="795" unicode="&amp;" /><glyph d="M256 97Q286 97 305.5 104Q325 111 336.5 124Q348 137 352.5 153.5Q357 170 357 190V217H258Q220 217 196.5 203.5Q173 190 173 157Q173 128 194 112.5Q215 97 256 97ZM417 -218Q361 -218 325.5 -194.5Q290 -171 290 -122Q290 -82 312.5 -50Q335 -18 369 5L365 53H362Q329 13 290.5 1Q252 -11 207 -11Q168 -11 136 -0.5Q104 10 80.5 30Q57 50 44 78.5Q31 107 31 144Q31 186 50 216.5Q69 247 99 267.5Q129 288 167 298Q205 308 243 308H357V352Q357 388 334 406Q311 424 267 424Q227 424 204.5 409Q182 394 182 371V355H54V371Q54 413 73 443Q92 473 122.5 492Q153 511 192 520Q231 529 272 529Q316 529 357.5 520.5Q399 512 430.5 491.5Q462 471 481 438Q500 405 500 357V113Q500 101 501 83.5Q502 66 503 48.5Q504 31 505.5 17.5Q507 4 509 0H506Q452 -9 423 -34.5Q394 -60 394 -86Q394 -107 406.5 -116Q419 -125 442 -125Q451 -125 466.5 -121Q482 -117 497 -108L531 -190Q508 -202 478.5 -210Q449 -218 417 -218Z" glyph-name="aogonek" horiz-adv-x="557" unicode="&#261;" /><glyph d="M44 350Q51 423 89 461.5Q127 500 176 500Q207 500 238 490.5Q269 481 297 469.5Q325 458 349 448.5Q373 439 390 439Q407 439 422.5 455Q438 471 440 514L535 494Q526 420 489 382.5Q452 345 403 345Q371 345 340.5 355Q310 365 282 377Q254 389 228 399Q202 409 180 409Q160 409 148.5 388Q137 367 133 332ZM54 141Q61 214 99 252.5Q137 291 186 291Q217 291 248 281.5Q279 272 307 260.5Q335 249 359 239.5Q383 230 400 230Q417 230 432.5 246Q448 262 450 305L545 285Q536 211 499 173.5Q462 136 413 136Q381 136 350.5 146Q320 156 292 168Q264 180 238 190Q212 200 190 200Q170 200 158.5 179Q147 158 143 123Z" glyph-name="approxequal" horiz-adv-x="590" unicode="&#8776;" /><glyph d="M270 612Q290 612 304 625.5Q318 639 318 659Q318 679 305.5 693.5Q293 708 270 708Q248 708 235.5 693.5Q223 679 223 659Q223 639 236.5 625.5Q250 612 270 612ZM270 559Q220 559 190 586.5Q160 614 160 657Q160 679 168.5 697.5Q177 716 192 730Q207 744 227 752Q247 760 270 760Q318 760 349 734Q380 708 380 663Q380 641 371 622Q362 603 347 589Q332 575 312 567Q292 559 270 559ZM256 97Q286 97 305.5 104Q325 111 336.5 124Q348 137 352.5 153.5Q357 170 357 190V217H258Q220 217 196.5 203.5Q173 190 173 157Q173 128 194 112.5Q215 97 256 97ZM207 -11Q168 -11 136 -0.5Q104 10 80.5 30Q57 50 44 78.5Q31 107 31 144Q31 186 50 216.5Q69 247 99 267.5Q129 288 167 298Q205 308 243 308H357V352Q357 388 334 406Q311 424 267 424Q227 424 204.5 409Q182 394 182 371V355H54V371Q54 413 73 443Q92 473 122.5 492Q153 511 192 520Q231 529 272 529Q316 529 357.5 520.5Q399 512 430.5 491.5Q462 471 481 438Q500 405 500 357V113Q500 101 501 83.5Q502 66 503 48.5Q504 31 505.5 17.5Q507 4 509 0H370L365 53H362Q329 13 290.5 1Q252 -11 207 -11Z" glyph-name="aring" horiz-adv-x="557" unicode="&#229;" /><glyph d="M277 611Q297 611 311 624.5Q325 638 325 658Q325 678 312.5 692.5Q300 707 277 707Q255 707 242.5 692.5Q230 678 230 658Q230 638 243.5 624.5Q257 611 277 611ZM277 558Q227 558 197 585.5Q167 613 167 656Q167 678 175.5 696.5Q184 715 199 729Q214 743 234 751Q254 759 277 759Q325 759 356 733Q387 707 387 662Q387 640 378 621Q369 602 354 588Q339 574 319 566Q299 558 277 558ZM256 97Q286 97 305.5 104Q325 111 336.5 124Q348 137 352.5 153.5Q357 170 357 190V217H258Q220 217 196.5 203.5Q173 190 173 157Q173 128 194 112.5Q215 97 256 97ZM207 -11Q168 -11 136 -0.5Q104 10 80.5 30Q57 50 44 78.5Q31 107 31 144Q31 186 50 216.5Q69 247 99 267.5Q129 288 167 298Q205 308 243 308H357V352Q357 388 334 406Q311 424 267 424Q227 424 204.5 409Q182 394 182 371V355H54V371Q54 413 73 443Q92 473 122.5 492Q153 511 192 520Q231 529 272 529Q316 529 357.5 520.5Q399 512 430.5 491.5Q462 471 481 438Q500 405 500 357V113Q500 101 501 83.5Q502 66 503 48.5Q504 31 505.5 17.5Q507 4 509 0H370L365 53H362Q329 13 290.5 1Q252 -11 207 -11ZM307 911H430L318 782H231Z" glyph-name="aringacute" horiz-adv-x="557" unicode="&#507;" /><glyph d="M233 615H365L490 123H381L296 505L207 123H100Z" glyph-name="asciicircum" horiz-adv-x="590" unicode="^" /><glyph d="M49 235Q56 308 94 346.5Q132 385 181 385Q212 385 243 375.5Q274 366 302 354.5Q330 343 354 333.5Q378 324 395 324Q412 324 427.5 340Q443 356 445 399L540 379Q531 305 494 267.5Q457 230 408 230Q376 230 345.5 240Q315 250 287 262Q259 274 233 284Q207 294 185 294Q165 294 153.5 273Q142 252 138 217Z" glyph-name="asciitilde" horiz-adv-x="590" unicode="~" /><glyph d="M77 402 157 517 35 585 76 650 188 590V713H269V590L381 650L423 585L300 517L382 402L313 358L229 478L144 358Z" glyph-name="asterisk" horiz-adv-x="458" unicode="*" /><glyph d="M449 147Q487 147 514.5 169.5Q542 192 549 231L568 340Q569 345 569 348Q569 351 569 355Q569 389 544.5 405.5Q520 422 490 422Q452 422 428 398.5Q404 375 397 337L378 228Q377 224 376.5 220.5Q376 217 376 212Q376 180 397.5 163.5Q419 147 449 147ZM502 -150Q483 -150 459 -148.5Q435 -147 411 -143.5Q387 -140 364 -135.5Q341 -131 324 -125Q267 -105 217.5 -71Q168 -37 131.5 11.5Q95 60 74 122.5Q53 185 53 262Q53 373 91.5 458Q130 543 195 600.5Q260 658 345 687.5Q430 717 524 717Q596 717 665 695Q734 673 788 631Q842 589 875 527.5Q908 466 908 387Q908 304 882.5 243.5Q857 183 816.5 143Q776 103 724.5 83Q673 63 621 60H522L531 111H528Q505 85 467 67Q429 49 394 49Q332 49 292.5 82.5Q253 116 253 181Q253 186 253.5 191.5Q254 197 255 206Q256 215 258.5 228Q261 241 264 262L278 342Q285 381 301.5 413Q318 445 343.5 468Q369 491 402 503.5Q435 516 474 516Q505 516 538.5 504Q572 492 588 463H591L600 508H716L652 133Q684 138 714 155Q744 172 767.5 203Q791 234 805 279.5Q819 325 819 387Q819 451 791.5 499.5Q764 548 720.5 579.5Q677 611 622.5 627Q568 643 514 643Q436 643 368 618.5Q300 594 249.5 546.5Q199 499 170 428.5Q141 358 141 267Q141 206 158 154.5Q175 103 204.5 62Q234 21 274.5 -8Q315 -37 363 -53Q389 -62 430.5 -68Q472 -74 513 -74Q575 -74 632.5 -65Q690 -56 756 -37L775 -103Q665 -150 502 -150Z" glyph-name="at" horiz-adv-x="960" unicode="@" /><glyph d="M60 584Q65 612 75.5 637Q86 662 102 680.5Q118 699 140 709.5Q162 720 189 720Q211 720 232 715Q253 710 273.5 704Q294 698 314.5 693Q335 688 357 688Q378 688 385.5 702.5Q393 717 398 735L481 716Q476 688 466.5 663Q457 638 442 619.5Q427 601 406 590.5Q385 580 358 580Q336 580 314.5 585Q293 590 272.5 596Q252 602 231.5 607Q211 612 190 612Q174 612 165.5 603Q157 594 146 565ZM256 97Q286 97 305.5 104Q325 111 336.5 124Q348 137 352.5 153.5Q357 170 357 190V217H258Q220 217 196.5 203.5Q173 190 173 157Q173 128 194 112.5Q215 97 256 97ZM207 -11Q168 -11 136 -0.5Q104 10 80.5 30Q57 50 44 78.5Q31 107 31 144Q31 186 50 216.5Q69 247 99 267.5Q129 288 167 298Q205 308 243 308H357V352Q357 388 334 406Q311 424 267 424Q227 424 204.5 409Q182 394 182 371V355H54V371Q54 413 73 443Q92 473 122.5 492Q153 511 192 520Q231 529 272 529Q316 529 357.5 520.5Q399 512 430.5 491.5Q462 471 481 438Q500 405 500 357V113Q500 101 501 83.5Q502 66 503 48.5Q504 31 505.5 17.5Q507 4 509 0H370L365 53H362Q329 13 290.5 1Q252 -11 207 -11Z" glyph-name="atilde" horiz-adv-x="557" unicode="&#227;" /><glyph d="M306 100Q324 100 341 105.5Q358 111 371.5 122Q385 133 393.5 151Q402 169 402 194V322Q402 366 374 389.5Q346 413 304 413Q286 413 268.5 407.5Q251 402 237 389.5Q223 377 214 357.5Q205 338 205 311V192Q205 169 213.5 152Q222 135 236 123.5Q250 112 268 106Q286 100 306 100ZM333 -12Q292 -12 258 5.5Q224 23 203 50H200V0H61V713H205V459H206Q235 497 273.5 513.5Q312 530 349 530Q392 530 428.5 516.5Q465 503 491 477.5Q517 452 532 415Q547 378 547 331V189Q547 140 529.5 102.5Q512 65 483 39.5Q454 14 415 1Q376 -12 333 -12Z" glyph-name="b" horiz-adv-x="586" unicode="b" /><glyph d="M6 718H109L376 -178H272Z" glyph-name="backslash" horiz-adv-x="354" unicode="\" /><glyph d="M108 725H216V-53H108Z" glyph-name="bar" horiz-adv-x="323" unicode="|" /><glyph d="M182 -184Q158 -184 138 -178.5Q118 -173 104 -160Q90 -147 82.5 -125.5Q75 -104 75 -72V186Q75 223 66.5 237.5Q58 252 30 255V341Q46 344 55.5 347.5Q65 351 69 357Q73 363 74 372Q75 381 75 394V601Q75 665 104 689Q133 713 182 713H294V635H215Q207 635 200 630.5Q193 626 193 612V420Q193 372 179.5 344.5Q166 317 131 303V297Q150 289 162.5 280Q175 271 181.5 258Q188 245 190.5 226.5Q193 208 193 182V-83Q193 -97 200 -101.5Q207 -106 215 -106H294V-184Z" glyph-name="braceleft" horiz-adv-x="319" unicode="{" /><glyph d="M25 -106H104Q112 -106 119 -101.5Q126 -97 126 -83V182Q126 208 128.5 226.5Q131 245 137.5 258Q144 271 156 280Q168 289 188 297V303Q153 317 139.5 344.5Q126 372 126 420V612Q126 626 119 630.5Q112 635 104 635H25V713H137Q186 713 215 689Q244 665 244 601V394Q244 381 245 372Q246 363 250 357Q254 351 263 347.5Q272 344 289 341V255Q261 252 252.5 237.5Q244 223 244 186V-72Q244 -104 236.5 -125.5Q229 -147 215 -160Q201 -173 181 -178.5Q161 -184 137 -184H25Z" glyph-name="braceright" horiz-adv-x="319" unicode="}" /><glyph d="M75 713H295V634H193V-106H294V-184H75Z" glyph-name="bracketleft" horiz-adv-x="319" unicode="[" /><glyph d="M25 -106H126V634H25V713H244V-184H25Z" glyph-name="bracketright" horiz-adv-x="319" unicode="]" /><glyph d="M281 567Q245 567 214 579Q183 591 160 612.5Q137 634 123.5 665.5Q110 697 109 736H217Q219 720 223 705Q227 690 234.5 679Q242 668 253.5 661Q265 654 282 654Q311 654 325.5 674Q340 694 346 736H454Q454 693 439 661.5Q424 630 399.5 609Q375 588 344 577.5Q313 567 281 567Z" glyph-name="breve" horiz-adv-x="563" unicode="&#728;" /><glyph d="M164 713H250V383H164ZM164 309H250V-47H164Z" glyph-name="brokenbar" horiz-adv-x="414" unicode="&#166;" /><glyph d="M212 184Q183 184 157.5 195Q132 206 113 225Q94 244 83 269.5Q72 295 72 324Q72 353 83 378.5Q94 404 113 423Q132 442 157.5 453Q183 464 212 464Q241 464 266.5 453Q292 442 311 423Q330 404 341 378.5Q352 353 352 324Q352 295 341 269.5Q330 244 311 225Q292 206 266.5 195Q241 184 212 184Z" glyph-name="bullet" horiz-adv-x="424" unicode="&#8226;" /><glyph d="M212 229Q183 229 157.5 240Q132 251 113 270Q94 289 83 314.5Q72 340 72 369Q72 398 83 423.5Q94 449 113 468Q132 487 157.5 498Q183 509 212 509Q241 509 266.5 498Q292 487 311 468Q330 449 341 423.5Q352 398 352 369Q352 340 341 314.5Q330 289 311 270Q292 251 266.5 240Q241 229 212 229Z" glyph-name="bullet.case" horiz-adv-x="424" /><glyph d="M286 -12Q239 -12 194.5 1Q150 14 115.5 40Q81 66 60 106Q39 146 39 200V302Q39 358 59.5 400.5Q80 443 113.5 471.5Q147 500 191 514.5Q235 529 283 529Q327 529 369 516.5Q411 504 443.5 479.5Q476 455 496 417.5Q516 380 516 330V314H376V327Q376 351 368 367.5Q360 384 347 394.5Q334 405 317.5 410Q301 415 284 415Q265 415 247.5 409.5Q230 404 216.5 393Q203 382 195 363.5Q187 345 187 320V195Q187 150 214.5 125.5Q242 101 287 101Q304 101 320 106Q336 111 348.5 121.5Q361 132 368.5 148.5Q376 165 376 189V198H516V184Q516 134 496.5 97Q477 60 445 36Q413 12 371.5 0Q330 -12 286 -12Z" glyph-name="c" horiz-adv-x="541" unicode="c" /><glyph d="M306 736H457L324 569H220ZM286 -12Q239 -12 194.5 1Q150 14 115.5 40Q81 66 60 106Q39 146 39 200V302Q39 358 59.5 400.5Q80 443 113.5 471.5Q147 500 191 514.5Q235 529 283 529Q327 529 369 516.5Q411 504 443.5 479.5Q476 455 496 417.5Q516 380 516 330V314H376V327Q376 351 368 367.5Q360 384 347 394.5Q334 405 317.5 410Q301 415 284 415Q265 415 247.5 409.5Q230 404 216.5 393Q203 382 195 363.5Q187 345 187 320V195Q187 150 214.5 125.5Q242 101 287 101Q304 101 320 106Q336 111 348.5 121.5Q361 132 368.5 148.5Q376 165 376 189V198H516V184Q516 134 496.5 97Q477 60 445 36Q413 12 371.5 0Q330 -12 286 -12Z" glyph-name="cacute" horiz-adv-x="541" unicode="&#263;" /><glyph d="M106 736H231L279 652L334 736H456L339 570H218Z" glyph-name="caron" horiz-adv-x="563" unicode="&#711;" /><glyph d="M102 736H227L275 652L330 736H452L335 570H214ZM286 -12Q239 -12 194.5 1Q150 14 115.5 40Q81 66 60 106Q39 146 39 200V302Q39 358 59.5 400.5Q80 443 113.5 471.5Q147 500 191 514.5Q235 529 283 529Q327 529 369 516.5Q411 504 443.5 479.5Q476 455 496 417.5Q516 380 516 330V314H376V327Q376 351 368 367.5Q360 384 347 394.5Q334 405 317.5 410Q301 415 284 415Q265 415 247.5 409.5Q230 404 216.5 393Q203 382 195 363.5Q187 345 187 320V195Q187 150 214.5 125.5Q242 101 287 101Q304 101 320 106Q336 111 348.5 121.5Q361 132 368.5 148.5Q376 165 376 189V198H516V184Q516 134 496.5 97Q477 60 445 36Q413 12 371.5 0Q330 -12 286 -12Z" glyph-name="ccaron" horiz-adv-x="541" unicode="&#269;" /><glyph d="M279 -213Q228 -213 175 -196V-132Q201 -140 225 -145Q249 -150 268 -150Q296 -150 308 -142.5Q320 -135 320 -118Q320 -104 306 -100Q292 -96 263 -94L223 -92L239 -9Q198 -3 162 12.5Q126 28 98.5 54Q71 80 55 116.5Q39 153 39 200V302Q39 358 59.5 400.5Q80 443 113.5 471.5Q147 500 191 514.5Q235 529 283 529Q327 529 369 516.5Q411 504 443.5 479.5Q476 455 496 417.5Q516 380 516 330V314H376V327Q376 351 368 367.5Q360 384 347 394.5Q334 405 317.5 410Q301 415 284 415Q265 415 247.5 409.5Q230 404 216.5 393Q203 382 195 363.5Q187 345 187 320V195Q187 150 214.5 125.5Q242 101 287 101Q304 101 320 106Q336 111 348.5 121.5Q361 132 368.5 148.5Q376 165 376 189V198H516V184Q516 136 498 100.5Q480 65 450.5 41Q421 17 382 4Q343 -9 301 -11L296 -38Q319 -38 342.5 -41.5Q366 -45 384.5 -54Q403 -63 414.5 -78.5Q426 -94 426 -118Q426 -160 385.5 -186.5Q345 -213 279 -213Z" glyph-name="ccedilla" horiz-adv-x="541" unicode="&#231;" /><glyph d="M219 738H341L452 570H329L279 656L224 570H103ZM286 -12Q239 -12 194.5 1Q150 14 115.5 40Q81 66 60 106Q39 146 39 200V302Q39 358 59.5 400.5Q80 443 113.5 471.5Q147 500 191 514.5Q235 529 283 529Q327 529 369 516.5Q411 504 443.5 479.5Q476 455 496 417.5Q516 380 516 330V314H376V327Q376 351 368 367.5Q360 384 347 394.5Q334 405 317.5 410Q301 415 284 415Q265 415 247.5 409.5Q230 404 216.5 393Q203 382 195 363.5Q187 345 187 320V195Q187 150 214.5 125.5Q242 101 287 101Q304 101 320 106Q336 111 348.5 121.5Q361 132 368.5 148.5Q376 165 376 189V198H516V184Q516 134 496.5 97Q477 60 445 36Q413 12 371.5 0Q330 -12 286 -12Z" glyph-name="ccircumflex" horiz-adv-x="541" unicode="&#265;" /><glyph d="M205 713H349V575H205ZM286 -12Q239 -12 194.5 1Q150 14 115.5 40Q81 66 60 106Q39 146 39 200V302Q39 358 59.5 400.5Q80 443 113.5 471.5Q147 500 191 514.5Q235 529 283 529Q327 529 369 516.5Q411 504 443.5 479.5Q476 455 496 417.5Q516 380 516 330V314H376V327Q376 351 368 367.5Q360 384 347 394.5Q334 405 317.5 410Q301 415 284 415Q265 415 247.5 409.5Q230 404 216.5 393Q203 382 195 363.5Q187 345 187 320V195Q187 150 214.5 125.5Q242 101 287 101Q304 101 320 106Q336 111 348.5 121.5Q361 132 368.5 148.5Q376 165 376 189V198H516V184Q516 134 496.5 97Q477 60 445 36Q413 12 371.5 0Q330 -12 286 -12Z" glyph-name="cdotaccent" horiz-adv-x="541" unicode="&#267;" /><glyph d="M260 -213Q209 -213 156 -196V-132Q182 -140 206 -145Q230 -150 249 -150Q277 -150 289 -142.5Q301 -135 301 -118Q301 -104 284.5 -100Q268 -96 244 -94L204 -92L228 30H291L277 -38Q300 -38 323.5 -41.5Q347 -45 365.5 -54Q384 -63 395.5 -78.5Q407 -94 407 -118Q407 -160 366.5 -186.5Q326 -213 260 -213Z" glyph-name="cedilla" horiz-adv-x="563" unicode="&#184;" /><glyph d="M225 -2Q189 4 158 18.5Q127 33 103.5 56.5Q80 80 66.5 112Q53 144 53 186V336Q53 379 66.5 413Q80 447 103 471.5Q126 496 157.5 512Q189 528 225 535V627H355V533Q386 526 414 512.5Q442 499 463 477.5Q484 456 496 427.5Q508 399 508 362V334H373V352Q373 373 365.5 387.5Q358 402 345.5 411.5Q333 421 317.5 425.5Q302 430 286 430Q269 430 252.5 425.5Q236 421 223 410.5Q210 400 202 384Q194 368 194 345V188Q194 148 220.5 125.5Q247 103 289 103Q305 103 320 107.5Q335 112 347 121.5Q359 131 366 146Q373 161 373 181V200H508V170Q508 132 496 103Q484 74 463 53Q442 32 414 18.5Q386 5 355 -1V-93H225Z" glyph-name="cent" horiz-adv-x="547" unicode="&#162;" /><glyph d="M239 -2Q203 4 172 18.5Q141 33 117.5 56.5Q94 80 80.5 112Q67 144 67 186V336Q67 379 80.5 413Q94 447 117 471.5Q140 496 171.5 512Q203 528 239 535V627H369V533Q400 526 428 512.5Q456 499 477 477.5Q498 456 510 427.5Q522 399 522 362V334H387V352Q387 373 379.5 387.5Q372 402 359.5 411.5Q347 421 331.5 425.5Q316 430 300 430Q283 430 266.5 425.5Q250 421 237 410.5Q224 400 216 384Q208 368 208 345V188Q208 148 234.5 125.5Q261 103 303 103Q319 103 334 107.5Q349 112 361 121.5Q373 131 380 146Q387 161 387 181V200H522V170Q522 132 510 103Q498 74 477 53Q456 32 428 18.5Q400 5 369 -1V-93H239Z" glyph-name="cent.tf" horiz-adv-x="590" /><glyph d="M412 56Q471 56 523 74Q575 92 613.5 128.5Q652 165 674 220Q696 275 696 349Q696 410 678.5 464Q661 518 625.5 558Q590 598 537 621Q484 644 412 644Q352 644 299.5 625.5Q247 607 208 570Q169 533 146.5 477.5Q124 422 124 349Q124 281 146.5 226.5Q169 172 208 134Q247 96 299.5 76Q352 56 412 56ZM412 -19Q335 -19 267 3Q199 25 148 70.5Q97 116 67.5 185Q38 254 38 349Q38 434 67.5 502Q97 570 148 618Q199 666 267 691.5Q335 717 412 717Q504 717 573.5 688Q643 659 689.5 610Q736 561 759.5 495.5Q783 430 783 357Q783 264 754 194Q725 124 675 76.5Q625 29 557.5 5Q490 -19 412 -19Z" glyph-name="circle" horiz-adv-x="820" unicode="&#9675;" /><glyph d="M223 738H345L456 570H333L283 656L228 570H107Z" glyph-name="circumflex" horiz-adv-x="563" unicode="&#710;" /><glyph d="M61 519H211V359H61ZM61 160H211V0H61Z" glyph-name="colon" horiz-adv-x="272" unicode=":" /><glyph d="M111 2H61V159H211V8L152 -140H80Z" glyph-name="comma" horiz-adv-x="272" unicode="," /><glyph d="M80 1H44V104H146V8L108 -82H62Z" glyph-name="comma.dnom" horiz-adv-x="190" /><glyph d="M80 317H44V420H146V324L108 234H62Z" glyph-name="comma.numr" horiz-adv-x="190" /><glyph d="M80 -132H44V-29H146V-125L108 -215H62Z" glyph-name="comma.subs" horiz-adv-x="190" /><glyph d="M80 381H44V484H146V388L108 298H62Z" glyph-name="comma.sups" horiz-adv-x="190" /><glyph d="M446 4Q510 4 569 28Q628 52 673 96.5Q718 141 744.5 204.5Q771 268 771 347Q771 426 744.5 489Q718 552 673.5 596.5Q629 641 570 665Q511 689 446 689Q380 689 321.5 665.5Q263 642 219.5 597.5Q176 553 150.5 489.5Q125 426 125 347Q125 267 151 203.5Q177 140 221 95.5Q265 51 323 27.5Q381 4 446 4ZM446 -62Q350 -62 275 -29.5Q200 3 148 59Q96 115 68.5 189Q41 263 41 347Q41 431 71 504.5Q101 578 154.5 633.5Q208 689 282.5 721Q357 753 446 753Q539 753 614.5 721Q690 689 743.5 633.5Q797 578 825.5 504.5Q854 431 854 347Q854 263 824.5 189Q795 115 741.5 59Q688 3 613 -29.5Q538 -62 446 -62ZM449 80Q408 80 370.5 90.5Q333 101 304.5 123Q276 145 258.5 180Q241 215 241 263V427Q241 473 258 508Q275 543 303.5 566.5Q332 590 370 602Q408 614 450 614Q489 614 525.5 604.5Q562 595 590.5 574.5Q619 554 636.5 522Q654 490 654 446V406H532V434Q532 474 510.5 492Q489 510 451 510Q412 510 391 487.5Q370 465 370 427V265Q370 226 390.5 204.5Q411 183 452 183Q489 183 511 202Q533 221 533 256V289H654V251Q654 206 636.5 174Q619 142 590 121Q561 100 524.5 90Q488 80 449 80Z" glyph-name="copyright" horiz-adv-x="895" unicode="&#169;" /><glyph d="M408 347Q408 398 377.5 432.5Q347 467 295 467Q243 467 212.5 432.5Q182 398 182 347Q182 296 212.5 261.5Q243 227 295 227Q347 227 377.5 261.5Q408 296 408 347ZM508 347Q508 284 474 234L531 176L470 115L413 173Q390 156 360 147Q330 138 295 138Q260 138 230 147Q200 156 177 173L120 115L59 176L116 234Q82 284 82 347Q82 410 116 460L59 518L120 579L177 521Q200 538 230 547Q260 556 295 556Q330 556 360 547Q390 538 413 521L470 579L531 518L474 460Q508 410 508 347Z" glyph-name="currency" horiz-adv-x="590" unicode="&#164;" /><glyph d="M283 105Q300 105 317.5 110Q335 115 349 126Q363 137 372 155.5Q381 174 381 200V326Q381 371 351 394Q321 417 280 417Q263 417 246 412Q229 407 215.5 395.5Q202 384 193.5 366Q185 348 185 322V197Q185 152 213 128.5Q241 105 283 105ZM238 -12Q195 -12 158.5 1Q122 14 95.5 39.5Q69 65 54 102Q39 139 39 187V328Q39 377 55.5 414.5Q72 452 100.5 477.5Q129 503 167 516.5Q205 530 248 530Q289 530 323 512.5Q357 495 378 469H381V713H525V0H384V59H382Q370 43 353 30Q336 17 316.5 7.5Q297 -2 276.5 -7Q256 -12 238 -12Z" glyph-name="d" horiz-adv-x="586" unicode="d" /><glyph d="M237 445H45V538H237V717H341V538H535V445H341V-116H237Z" glyph-name="dagger" horiz-adv-x="579" unicode="&#8224;" /><glyph d="M237 72H44V165H237V445H44V538H237V717H341V538H535V445H341V165H535V72H341V-116H237Z" glyph-name="daggerdbl" horiz-adv-x="579" unicode="&#8225;" /><glyph d="M573 713H703L653 548H558ZM283 105Q300 105 317.5 110Q335 115 349 126Q363 137 372 155.5Q381 174 381 200V326Q381 371 351 394Q321 417 280 417Q263 417 246 412Q229 407 215.5 395.5Q202 384 193.5 366Q185 348 185 322V197Q185 152 213 128.5Q241 105 283 105ZM238 -12Q195 -12 158.5 1Q122 14 95.5 39.5Q69 65 54 102Q39 139 39 187V328Q39 377 55.5 414.5Q72 452 100.5 477.5Q129 503 167 516.5Q205 530 248 530Q289 530 323 512.5Q357 495 378 469H381V713H525V0H384V59H382Q370 43 353 30Q336 17 316.5 7.5Q297 -2 276.5 -7Q256 -12 238 -12Z" glyph-name="dcaron" horiz-adv-x="665" unicode="&#271;" /><glyph d="M283 105Q300 105 317.5 110Q335 115 349 126Q363 137 372 155.5Q381 174 381 200V326Q381 371 351 394Q321 417 280 417Q263 417 246 412Q229 407 215.5 395.5Q202 384 193.5 366Q185 348 185 322V197Q185 152 213 128.5Q241 105 283 105ZM280 650H381V713H525V650H579V562H525V0H384V59H382Q370 43 353 30Q336 17 316.5 7.5Q297 -2 276.5 -7Q256 -12 238 -12Q195 -12 158.5 1Q122 14 95.5 39.5Q69 65 54 102Q39 139 39 187V328Q39 377 55.5 414.5Q72 452 100.5 477.5Q129 503 167 516.5Q205 530 248 530Q289 530 323 512.5Q357 495 378 469H381V562H280Z" glyph-name="dcroat" horiz-adv-x="601" unicode="&#273;" /><glyph d="M174 562Q197 562 213 578Q229 594 229 618Q229 641 214 659Q199 677 174 677Q151 677 136 660Q121 643 121 618Q121 594 136 578Q151 562 174 562ZM174 503Q146 503 123.5 512Q101 521 85 537Q69 553 60.5 573.5Q52 594 52 617Q52 641 61.5 662.5Q71 684 87.5 700.5Q104 717 126 726.5Q148 736 174 736Q201 736 223.5 726.5Q246 717 262 701.5Q278 686 286.5 665Q295 644 295 621Q295 596 285.5 574.5Q276 553 259.5 537Q243 521 221 512Q199 503 174 503Z" glyph-name="degree" horiz-adv-x="347" unicode="&#176;" /><glyph d="M319 717H451V570H319ZM111 717H243V570H111Z" glyph-name="dieresis" horiz-adv-x="563" unicode="&#168;" /><glyph d="M226 578H363V442H226ZM41 362H548V272H41ZM226 186H363V52H226Z" glyph-name="divide" horiz-adv-x="590" unicode="&#247;" /><glyph d="M241 -1Q167 7 109 40.5Q51 74 20 141L130 213Q153 168 198 141.5Q243 115 300 115Q322 115 343 119.5Q364 124 380 133.5Q396 143 405.5 158Q415 173 415 194Q415 230 390 247.5Q365 265 329 275L218 305Q183 314 153.5 328.5Q124 343 101.5 365.5Q79 388 66.5 420Q54 452 54 496Q54 537 68 571.5Q82 606 106.5 632.5Q131 659 165.5 677.5Q200 696 241 704V786H370V707Q433 699 478.5 671Q524 643 556 587L449 516Q426 555 387 573Q348 591 302 591Q282 591 264 586.5Q246 582 231.5 572Q217 562 208.5 547.5Q200 533 200 512Q200 495 208 483Q216 471 229 462Q242 453 259.5 446.5Q277 440 297 434L395 407Q428 397 458.5 381.5Q489 366 512.5 343Q536 320 549.5 287.5Q563 255 563 211Q563 167 548.5 131.5Q534 96 508.5 70Q483 44 447.5 26.5Q412 9 370 2V-93H241Z" glyph-name="dollar" horiz-adv-x="594" unicode="$" /><glyph d="M245 -1Q172 7 114 40.5Q56 74 26 141L135 213Q157 168 201.5 141.5Q246 115 303 115Q325 115 345.5 119.5Q366 124 382 133.5Q398 143 407.5 158Q417 173 417 194Q417 230 392 247.5Q367 265 332 275L222 305Q188 314 158 328.5Q128 343 106 365.5Q84 388 71.5 420Q59 452 59 496Q59 537 73 571.5Q87 606 111.5 632.5Q136 659 170 677.5Q204 696 245 704V786H372V707Q435 699 479.5 671Q524 643 556 587L451 516Q428 555 389 573Q350 591 305 591Q286 591 268 586.5Q250 582 235.5 572Q221 562 212.5 547.5Q204 533 204 512Q204 495 212 483Q220 471 233 462Q246 453 263.5 446.5Q281 440 300 434L397 407Q430 397 460 381.5Q490 366 513 343Q536 320 549.5 287.5Q563 255 563 211Q563 167 549 131.5Q535 96 509.5 70Q484 44 449 26.5Q414 9 372 2V-93H245Z" glyph-name="dollar.tf" horiz-adv-x="590" /><glyph d="M209 713H353V575H209Z" glyph-name="dotaccent" horiz-adv-x="563" unicode="&#729;" /><glyph d="M61 519H205V0H61Z" glyph-name="dotlessi" horiz-adv-x="266" unicode="&#305;" /><glyph d="M39 -197Q23 -197 9.5 -196Q-4 -195 -15 -193V-79Q-8 -80 1.5 -80.5Q11 -81 18 -81Q40 -81 52.5 -70Q65 -59 65 -33V519H209V-42Q209 -119 164.5 -158Q120 -197 39 -197Z" glyph-name="dotlessj" horiz-adv-x="270" unicode="&#567;" /><glyph d="M372 312V328Q372 351 364.5 368Q357 385 344.5 396Q332 407 316 412Q300 417 283 417Q265 417 247.5 411.5Q230 406 216.5 394.5Q203 383 195 365Q187 347 187 322V312ZM288 -12Q240 -12 195 0.5Q150 13 115.5 39Q81 65 60 105Q39 145 39 200V299Q39 356 59.5 399Q80 442 114 471Q148 500 192.5 514.5Q237 529 285 529Q328 529 369 516Q410 503 441.5 477.5Q473 452 492.5 413Q512 374 512 322V221H187V197Q187 173 196.5 155.5Q206 138 222 126Q238 114 258.5 108Q279 102 301 102Q317 102 335 106.5Q353 111 369.5 119Q386 127 400.5 137Q415 147 425 159L504 85Q468 34 411 11Q354 -12 288 -12Z" glyph-name="e" horiz-adv-x="552" unicode="e" /><glyph d="M304 736H455L322 569H218ZM372 312V328Q372 351 364.5 368Q357 385 344.5 396Q332 407 316 412Q300 417 283 417Q265 417 247.5 411.5Q230 406 216.5 394.5Q203 383 195 365Q187 347 187 322V312ZM288 -12Q240 -12 195 0.5Q150 13 115.5 39Q81 65 60 105Q39 145 39 200V299Q39 356 59.5 399Q80 442 114 471Q148 500 192.5 514.5Q237 529 285 529Q328 529 369 516Q410 503 441.5 477.5Q473 452 492.5 413Q512 374 512 322V221H187V197Q187 173 196.5 155.5Q206 138 222 126Q238 114 258.5 108Q279 102 301 102Q317 102 335 106.5Q353 111 369.5 119Q386 127 400.5 137Q415 147 425 159L504 85Q468 34 411 11Q354 -12 288 -12Z" glyph-name="eacute" horiz-adv-x="552" unicode="&#233;" /><glyph d="M275 567Q239 567 208 579Q177 591 154 612.5Q131 634 117.5 665.5Q104 697 103 736H211Q213 720 217 705Q221 690 228.5 679Q236 668 247.5 661Q259 654 276 654Q305 654 319.5 674Q334 694 340 736H448Q448 693 433 661.5Q418 630 393.5 609Q369 588 338 577.5Q307 567 275 567ZM372 312V328Q372 351 364.5 368Q357 385 344.5 396Q332 407 316 412Q300 417 283 417Q265 417 247.5 411.5Q230 406 216.5 394.5Q203 383 195 365Q187 347 187 322V312ZM288 -12Q240 -12 195 0.5Q150 13 115.5 39Q81 65 60 105Q39 145 39 200V299Q39 356 59.5 399Q80 442 114 471Q148 500 192.5 514.5Q237 529 285 529Q328 529 369 516Q410 503 441.5 477.5Q473 452 492.5 413Q512 374 512 322V221H187V197Q187 173 196.5 155.5Q206 138 222 126Q238 114 258.5 108Q279 102 301 102Q317 102 335 106.5Q353 111 369.5 119Q386 127 400.5 137Q415 147 425 159L504 85Q468 34 411 11Q354 -12 288 -12Z" glyph-name="ebreve" horiz-adv-x="552" unicode="&#277;" /><glyph d="M100 736H225L273 652L328 736H450L333 570H212ZM372 312V328Q372 351 364.5 368Q357 385 344.5 396Q332 407 316 412Q300 417 283 417Q265 417 247.5 411.5Q230 406 216.5 394.5Q203 383 195 365Q187 347 187 322V312ZM288 -12Q240 -12 195 0.5Q150 13 115.5 39Q81 65 60 105Q39 145 39 200V299Q39 356 59.5 399Q80 442 114 471Q148 500 192.5 514.5Q237 529 285 529Q328 529 369 516Q410 503 441.5 477.5Q473 452 492.5 413Q512 374 512 322V221H187V197Q187 173 196.5 155.5Q206 138 222 126Q238 114 258.5 108Q279 102 301 102Q317 102 335 106.5Q353 111 369.5 119Q386 127 400.5 137Q415 147 425 159L504 85Q468 34 411 11Q354 -12 288 -12Z" glyph-name="ecaron" horiz-adv-x="552" unicode="&#283;" /><glyph d="M217 738H339L450 570H327L277 656L222 570H101ZM372 312V328Q372 351 364.5 368Q357 385 344.5 396Q332 407 316 412Q300 417 283 417Q265 417 247.5 411.5Q230 406 216.5 394.5Q203 383 195 365Q187 347 187 322V312ZM288 -12Q240 -12 195 0.5Q150 13 115.5 39Q81 65 60 105Q39 145 39 200V299Q39 356 59.5 399Q80 442 114 471Q148 500 192.5 514.5Q237 529 285 529Q328 529 369 516Q410 503 441.5 477.5Q473 452 492.5 413Q512 374 512 322V221H187V197Q187 173 196.5 155.5Q206 138 222 126Q238 114 258.5 108Q279 102 301 102Q317 102 335 106.5Q353 111 369.5 119Q386 127 400.5 137Q415 147 425 159L504 85Q468 34 411 11Q354 -12 288 -12Z" glyph-name="ecircumflex" horiz-adv-x="552" unicode="&#234;" /><glyph d="M313 717H445V570H313ZM105 717H237V570H105ZM372 312V328Q372 351 364.5 368Q357 385 344.5 396Q332 407 316 412Q300 417 283 417Q265 417 247.5 411.5Q230 406 216.5 394.5Q203 383 195 365Q187 347 187 322V312ZM288 -12Q240 -12 195 0.5Q150 13 115.5 39Q81 65 60 105Q39 145 39 200V299Q39 356 59.5 399Q80 442 114 471Q148 500 192.5 514.5Q237 529 285 529Q328 529 369 516Q410 503 441.5 477.5Q473 452 492.5 413Q512 374 512 322V221H187V197Q187 173 196.5 155.5Q206 138 222 126Q238 114 258.5 108Q279 102 301 102Q317 102 335 106.5Q353 111 369.5 119Q386 127 400.5 137Q415 147 425 159L504 85Q468 34 411 11Q354 -12 288 -12Z" glyph-name="edieresis" horiz-adv-x="552" unicode="&#235;" /><glyph d="M203 713H347V575H203ZM372 312V328Q372 351 364.5 368Q357 385 344.5 396Q332 407 316 412Q300 417 283 417Q265 417 247.5 411.5Q230 406 216.5 394.5Q203 383 195 365Q187 347 187 322V312ZM288 -12Q240 -12 195 0.5Q150 13 115.5 39Q81 65 60 105Q39 145 39 200V299Q39 356 59.5 399Q80 442 114 471Q148 500 192.5 514.5Q237 529 285 529Q328 529 369 516Q410 503 441.5 477.5Q473 452 492.5 413Q512 374 512 322V221H187V197Q187 173 196.5 155.5Q206 138 222 126Q238 114 258.5 108Q279 102 301 102Q317 102 335 106.5Q353 111 369.5 119Q386 127 400.5 137Q415 147 425 159L504 85Q468 34 411 11Q354 -12 288 -12Z" glyph-name="edotaccent" horiz-adv-x="552" unicode="&#279;" /><glyph d="M91 736H242L328 569H224ZM372 312V328Q372 351 364.5 368Q357 385 344.5 396Q332 407 316 412Q300 417 283 417Q265 417 247.5 411.5Q230 406 216.5 394.5Q203 383 195 365Q187 347 187 322V312ZM288 -12Q240 -12 195 0.5Q150 13 115.5 39Q81 65 60 105Q39 145 39 200V299Q39 356 59.5 399Q80 442 114 471Q148 500 192.5 514.5Q237 529 285 529Q328 529 369 516Q410 503 441.5 477.5Q473 452 492.5 413Q512 374 512 322V221H187V197Q187 173 196.5 155.5Q206 138 222 126Q238 114 258.5 108Q279 102 301 102Q317 102 335 106.5Q353 111 369.5 119Q386 127 400.5 137Q415 147 425 159L504 85Q468 34 411 11Q354 -12 288 -12Z" glyph-name="egrave" horiz-adv-x="552" unicode="&#232;" /><glyph d="M296 415Q315 415 332.5 420.5Q350 426 363 436Q376 446 384 461Q392 476 392 496V533Q392 555 383.5 570Q375 585 361 594.5Q347 604 329.5 608Q312 612 293 612Q257 612 228 592Q199 572 199 534V495Q199 474 207 459Q215 444 228.5 434Q242 424 259.5 419.5Q277 415 296 415ZM294 101Q336 101 365 122.5Q394 144 394 187V222Q394 245 385.5 261Q377 277 362.5 286.5Q348 296 330.5 300Q313 304 295 304Q276 304 258 300Q240 296 226.5 286.5Q213 277 204.5 262.5Q196 248 196 227V186Q196 145 225 123Q254 101 294 101ZM294 -12Q240 -12 194 -1Q148 10 114.5 33.5Q81 57 62.5 92.5Q44 128 44 178V220Q44 269 69.5 306Q95 343 133 362Q96 378 74.5 414Q53 450 53 492V529Q53 577 73 613.5Q93 650 126 675Q159 700 202.5 712.5Q246 725 294 725Q341 725 384.5 714Q428 703 461.5 680Q495 657 515 622.5Q535 588 535 540V481Q535 441 511.5 409.5Q488 378 454 363Q473 355 490 341Q507 327 520 308.5Q533 290 540 268.5Q547 247 547 224V180Q547 134 527.5 98Q508 62 473.5 37.5Q439 13 393 0.5Q347 -12 294 -12Z" glyph-name="eight" horiz-adv-x="591" unicode="8" /><glyph d="M192 230Q211 230 223.5 239.5Q236 249 236 268V287Q236 308 222 316.5Q208 325 191 325Q174 325 160.5 316.5Q147 308 147 291V267Q147 248 160 239Q173 230 192 230ZM191 63Q211 63 223.5 72.5Q236 82 236 102V121Q236 143 222 151Q208 159 191 159Q174 159 160 151Q146 143 146 125V101Q146 83 159 73Q172 63 191 63ZM191 -12Q159 -12 131 -6Q103 0 83 13.5Q63 27 51.5 47.5Q40 68 40 98V118Q40 145 54 165.5Q68 186 89 197Q69 205 57.5 225.5Q46 246 46 267V288Q46 316 57.5 337Q69 358 89 372Q109 386 135.5 393.5Q162 401 191 401Q220 401 246.5 394.5Q273 388 293 374.5Q313 361 325 340.5Q337 320 337 292V265Q337 242 324.5 224Q312 206 295 197Q315 189 329 167.5Q343 146 343 122V96Q343 70 331 50Q319 30 298.5 16Q278 2 250 -5Q222 -12 191 -12Z" glyph-name="eight.dnom" horiz-adv-x="383" /><glyph d="M192 546Q211 546 223.5 555.5Q236 565 236 584V603Q236 624 222 632.5Q208 641 191 641Q174 641 160.5 632.5Q147 624 147 607V583Q147 564 160 555Q173 546 192 546ZM191 379Q211 379 223.5 388.5Q236 398 236 418V437Q236 459 222 467Q208 475 191 475Q174 475 160 467Q146 459 146 441V417Q146 399 159 389Q172 379 191 379ZM191 304Q159 304 131 310Q103 316 83 329.5Q63 343 51.5 363.5Q40 384 40 414V434Q40 461 54 481.5Q68 502 89 513Q69 521 57.5 541.5Q46 562 46 583V604Q46 632 57.5 653Q69 674 89 688Q109 702 135.5 709.5Q162 717 191 717Q220 717 246.5 710.5Q273 704 293 690.5Q313 677 325 656.5Q337 636 337 608V581Q337 558 324.5 540Q312 522 295 513Q315 505 329 483.5Q343 462 343 438V412Q343 386 331 366Q319 346 298.5 332Q278 318 250 311Q222 304 191 304Z" glyph-name="eight.numr" horiz-adv-x="383" /><glyph d="M296 415Q315 415 332.5 420.5Q350 426 363 436Q376 446 384 461Q392 476 392 496V533Q392 555 383.5 570Q375 585 361 594.5Q347 604 329.5 608Q312 612 293 612Q257 612 228 592Q199 572 199 534V495Q199 474 207 459Q215 444 228.5 434Q242 424 259.5 419.5Q277 415 296 415ZM294 101Q336 101 365 122.5Q394 144 394 187V222Q394 245 385.5 261Q377 277 362.5 286.5Q348 296 330.5 300Q313 304 295 304Q276 304 258 300Q240 296 226.5 286.5Q213 277 204.5 262.5Q196 248 196 227V186Q196 145 225 123Q254 101 294 101ZM294 -12Q240 -12 194 -1Q148 10 114.5 33.5Q81 57 62.5 92.5Q44 128 44 178V220Q44 269 69.5 306Q95 343 133 362Q96 378 74.5 414Q53 450 53 492V529Q53 577 73 613.5Q93 650 126 675Q159 700 202.5 712.5Q246 725 294 725Q341 725 384.5 714Q428 703 461.5 680Q495 657 515 622.5Q535 588 535 540V481Q535 441 511.5 409.5Q488 378 454 363Q473 355 490 341Q507 327 520 308.5Q533 290 540 268.5Q547 247 547 224V180Q547 134 527.5 98Q508 62 473.5 37.5Q439 13 393 0.5Q347 -12 294 -12Z" glyph-name="eight.osf" horiz-adv-x="591" /><glyph d="M295 415Q314 415 331.5 420.5Q349 426 362 436Q375 446 383 461Q391 476 391 496V533Q391 555 382.5 570Q374 585 360 594.5Q346 604 328.5 608Q311 612 292 612Q256 612 227 592Q198 572 198 534V495Q198 474 206 459Q214 444 227.5 434Q241 424 258.5 419.5Q276 415 295 415ZM293 101Q335 101 364 122.5Q393 144 393 187V222Q393 245 384.5 261Q376 277 361.5 286.5Q347 296 329.5 300Q312 304 294 304Q275 304 257 300Q239 296 225.5 286.5Q212 277 203.5 262.5Q195 248 195 227V186Q195 145 224 123Q253 101 293 101ZM293 -12Q239 -12 193 -1Q147 10 113.5 33.5Q80 57 61.5 92.5Q43 128 43 178V220Q43 269 68.5 306Q94 343 132 362Q95 378 73.5 414Q52 450 52 492V529Q52 577 72 613.5Q92 650 125 675Q158 700 201.5 712.5Q245 725 293 725Q340 725 383.5 714Q427 703 460.5 680Q494 657 514 622.5Q534 588 534 540V481Q534 441 510.5 409.5Q487 378 453 363Q472 355 489 341Q506 327 519 308.5Q532 290 539 268.5Q546 247 546 224V180Q546 134 526.5 98Q507 62 472.5 37.5Q438 13 392 0.5Q346 -12 293 -12Z" glyph-name="eight.tf" horiz-adv-x="590" /><glyph d="M295 415Q314 415 331.5 420.5Q349 426 362 436Q375 446 383 461Q391 476 391 496V533Q391 555 382.5 570Q374 585 360 594.5Q346 604 328.5 608Q311 612 292 612Q256 612 227 592Q198 572 198 534V495Q198 474 206 459Q214 444 227.5 434Q241 424 258.5 419.5Q276 415 295 415ZM293 101Q335 101 364 122.5Q393 144 393 187V222Q393 245 384.5 261Q376 277 361.5 286.5Q347 296 329.5 300Q312 304 294 304Q275 304 257 300Q239 296 225.5 286.5Q212 277 203.5 262.5Q195 248 195 227V186Q195 145 224 123Q253 101 293 101ZM293 -12Q239 -12 193 -1Q147 10 113.5 33.5Q80 57 61.5 92.5Q43 128 43 178V220Q43 269 68.5 306Q94 343 132 362Q95 378 73.5 414Q52 450 52 492V529Q52 577 72 613.5Q92 650 125 675Q158 700 201.5 712.5Q245 725 293 725Q340 725 383.5 714Q427 703 460.5 680Q494 657 514 622.5Q534 588 534 540V481Q534 441 510.5 409.5Q487 378 453 363Q472 355 489 341Q506 327 519 308.5Q532 290 539 268.5Q546 247 546 224V180Q546 134 526.5 98Q507 62 472.5 37.5Q438 13 392 0.5Q346 -12 293 -12Z" glyph-name="eight.tosf" horiz-adv-x="590" /><glyph d="M535 160H684V0H535ZM304 160H453V0H304ZM73 160H222V0H73Z" glyph-name="ellipsis" horiz-adv-x="757" unicode="&#8230;" /><glyph d="M120 693H430V582H120ZM372 312V328Q372 351 364.5 368Q357 385 344.5 396Q332 407 316 412Q300 417 283 417Q265 417 247.5 411.5Q230 406 216.5 394.5Q203 383 195 365Q187 347 187 322V312ZM288 -12Q240 -12 195 0.5Q150 13 115.5 39Q81 65 60 105Q39 145 39 200V299Q39 356 59.5 399Q80 442 114 471Q148 500 192.5 514.5Q237 529 285 529Q328 529 369 516Q410 503 441.5 477.5Q473 452 492.5 413Q512 374 512 322V221H187V197Q187 173 196.5 155.5Q206 138 222 126Q238 114 258.5 108Q279 102 301 102Q317 102 335 106.5Q353 111 369.5 119Q386 127 400.5 137Q415 147 425 159L504 85Q468 34 411 11Q354 -12 288 -12Z" glyph-name="emacron" horiz-adv-x="552" unicode="&#275;" /><glyph d="M0 359H1000V264H0Z" glyph-name="emdash" horiz-adv-x="1000" unicode="&#8212;" /><glyph d="M0 421H1000V326H0Z" glyph-name="emdash.case" horiz-adv-x="1000" /><glyph d="M0 359H500V264H0Z" glyph-name="endash" horiz-adv-x="500" unicode="&#8211;" /><glyph d="M0 421H500V326H0Z" glyph-name="endash.case" horiz-adv-x="500" /><glyph d="M361 -196Q345 -196 331.5 -195Q318 -194 307 -192V-78Q314 -79 323.5 -79.5Q333 -80 340 -80Q362 -80 374.5 -69Q387 -58 387 -32V302Q387 351 366.5 380.5Q346 410 300 410Q256 410 230.5 381Q205 352 205 292V0H61V519H201V454H203Q231 492 270.5 511Q310 530 356 530Q434 530 482.5 483.5Q531 437 531 346V-41Q531 -118 486.5 -157Q442 -196 361 -196Z" glyph-name="eng" horiz-adv-x="586" unicode="&#331;" /><glyph d="M372 312V328Q372 351 364.5 368Q357 385 344.5 396Q332 407 316 412Q300 417 283 417Q265 417 247.5 411.5Q230 406 216.5 394.5Q203 383 195 365Q187 347 187 322V312ZM204 -116Q204 -84 217 -57.5Q230 -31 253 -10Q210 -6 171 8.5Q132 23 103 49Q74 75 56.5 112.5Q39 150 39 200V299Q39 356 59.5 399Q80 442 114 471Q148 500 192.5 514.5Q237 529 285 529Q328 529 369 516Q410 503 441.5 477.5Q473 452 492.5 413Q512 374 512 322V221H187V197Q187 173 196.5 155.5Q206 138 222 126Q238 114 258.5 108Q279 102 301 102Q317 102 335 106.5Q353 111 369.5 119Q386 127 400.5 137Q415 147 425 159L504 85Q482 54 452 33.5Q422 13 386 2Q349 -12 329 -38.5Q309 -65 309 -86Q309 -108 323 -118Q337 -128 360 -128Q369 -128 387 -122Q405 -116 420 -107L453 -191Q430 -205 401.5 -212.5Q373 -220 341 -220Q313 -220 288 -214Q263 -208 244.5 -195.5Q226 -183 215 -163Q204 -143 204 -116Z" glyph-name="eogonek" horiz-adv-x="552" unicode="&#281;" /><glyph d="M31 465H558V375H31ZM31 252H558V162H31Z" glyph-name="equal" horiz-adv-x="590" unicode="=" /><glyph d="M16 270H303V206H16ZM16 155H303V90H16Z" glyph-name="equal.dnom" horiz-adv-x="320" /><glyph d="M16 586H303V522H16ZM16 471H303V406H16Z" glyph-name="equal.numr" horiz-adv-x="320" /><glyph d="M279 101Q322 101 348.5 126.5Q375 152 375 199V315Q375 358 349.5 385Q324 412 279 412Q235 412 210 386Q185 360 185 312V198Q185 154 208.5 127.5Q232 101 279 101ZM279 -12Q232 -12 188.5 0Q145 12 112 37Q79 62 59 101.5Q39 141 39 197V303Q39 352 54.5 390Q70 428 97 455.5Q124 483 160.5 499Q197 515 240 520Q246 520 251 520.5Q256 521 261 521L234 562L142 540L102 618L183 638L132 713H299L324 675L421 699L461 621L374 597L489 422Q504 399 512.5 370Q521 341 521 306V203Q521 147 500 106.5Q479 66 444.5 40Q410 14 367 1Q324 -12 279 -12Z" glyph-name="eth" horiz-adv-x="560" unicode="&#240;" /><glyph d="M74 483V713H227V483L194 218H108ZM76 160H225V0H76Z" glyph-name="exclam" horiz-adv-x="301" unicode="!" /><glyph d="M76 522H225V362H76ZM74 39 108 304H194L227 39V-192H74Z" glyph-name="exclamdown" horiz-adv-x="301" unicode="&#161;" /><glyph d="M76 713H225V553H76ZM74 230 108 495H194L227 230V-1H74Z" glyph-name="exclamdown.case" horiz-adv-x="301" /><glyph d="M89 409H18V518H89V569Q89 647 131.5 684Q174 721 246 721Q264 721 284 719.5Q304 718 321 714V604Q309 606 297 607Q285 608 272 608Q255 608 244 599.5Q233 591 233 570V518H322V409H233V0H89Z" glyph-name="f" horiz-adv-x="340" unicode="f" /><glyph d="M394 713H538V575H394ZM394 410H233V0H89V410H18V519H89V569Q89 647 131.5 684Q174 721 246 721Q264 721 284 719.5Q304 718 321 714V604Q309 606 297 607Q285 608 272 608Q255 608 244 599.5Q233 591 233 570V519H538V0H394Z" glyph-name="f_i" horiz-adv-x="599" /><glyph d="M536 -8Q492 -8 465.5 6Q439 20 424.5 41.5Q410 63 405 88.5Q400 114 400 136V713H544V153Q544 136 552.5 124Q561 112 586 112Q600 112 611.5 113Q623 114 638 116V7Q617 1 589.5 -3.5Q562 -8 536 -8ZM89 409H18V518H89V569Q89 647 131.5 684Q174 721 246 721Q264 721 284 719.5Q304 718 321 714V604Q309 606 297 607Q285 608 272 608Q255 608 244 599.5Q233 591 233 570V518H322V409H233V0H89Z" glyph-name="f_l" horiz-adv-x="658" /><glyph d="M394 713H538V575H394ZM394 410H233V0H89V410H18V519H89V569Q89 647 131.5 684Q174 721 246 721Q264 721 284 719.5Q304 718 321 714V604Q309 606 297 607Q285 608 272 608Q255 608 244 599.5Q233 591 233 570V519H538V0H394Z" glyph-name="fi" horiz-adv-x="599" unicode="&#64257;" /><glyph d="M289 -12Q234 -12 190 1Q146 14 115.5 36.5Q85 59 68.5 90.5Q52 122 52 160V200H195V183Q195 148 222.5 128Q250 108 293 108Q335 108 361 133Q387 158 387 218V268Q387 289 379 305.5Q371 322 357.5 332.5Q344 343 326.5 348.5Q309 354 290 354Q259 354 236 341.5Q213 329 197 312L66 330L87 713H500V583H206L199 427Q234 450 270 459.5Q306 469 348 469Q379 469 413 459Q447 449 475 428Q503 407 521 373.5Q539 340 539 293V213Q539 157 519 114.5Q499 72 464.5 44Q430 16 385 2Q340 -12 289 -12Z" glyph-name="five" horiz-adv-x="582" unicode="5" /><glyph d="M187 -12Q124 -12 84 14.5Q44 41 44 88V114H144V105Q144 89 155.5 79Q167 69 190 69Q234 69 234 119V144Q234 164 221 174.5Q208 185 188 185Q174 185 164 179Q154 173 147 165L54 176L64 394H314V307H146L144 232Q163 245 184.5 250.5Q206 256 229 256Q248 256 267 250.5Q286 245 302 233.5Q318 222 328 203.5Q338 185 338 158V110Q338 80 325.5 57Q313 34 292 18.5Q271 3 243.5 -4.5Q216 -12 187 -12Z" glyph-name="five.dnom" horiz-adv-x="383" /><glyph d="M187 304Q124 304 84 330.5Q44 357 44 404V430H144V421Q144 405 155.5 395Q167 385 190 385Q234 385 234 435V460Q234 480 221 490.5Q208 501 188 501Q174 501 164 495Q154 489 147 481L54 492L64 710H314V623H146L144 548Q163 561 184.5 566.5Q206 572 229 572Q248 572 267 566.5Q286 561 302 549.5Q318 538 328 519.5Q338 501 338 474V426Q338 396 325.5 373Q313 350 292 334.5Q271 319 243.5 311.5Q216 304 187 304Z" glyph-name="five.numr" horiz-adv-x="383" /><glyph d="M289 -189Q234 -189 190 -176Q146 -163 115.5 -140.5Q85 -118 68.5 -86.5Q52 -55 52 -17V23H195V6Q195 -29 222.5 -49Q250 -69 293 -69Q335 -69 361 -44Q387 -19 387 41V91Q387 112 379 128.5Q371 145 357.5 155.5Q344 166 326.5 171.5Q309 177 290 177Q259 177 236 164.5Q213 152 197 135L66 153L87 536H500V406H206L199 250Q234 273 270 282.5Q306 292 348 292Q379 292 413 282Q447 272 475 251Q503 230 521 196.5Q539 163 539 116V36Q539 -20 519 -62.5Q499 -105 464.5 -133Q430 -161 385 -175Q340 -189 289 -189Z" glyph-name="five.osf" horiz-adv-x="582" /><glyph d="M288 -12Q233 -12 189 1Q145 14 114.5 36.5Q84 59 67.5 90.5Q51 122 51 160V200H194V183Q194 148 221.5 128Q249 108 292 108Q334 108 360 133Q386 158 386 218V268Q386 289 378 305.5Q370 322 356.5 332.5Q343 343 325.5 348.5Q308 354 289 354Q258 354 235 341.5Q212 329 196 312L65 330L86 713H499V583H205L198 427Q233 450 269 459.5Q305 469 347 469Q378 469 412 459Q446 449 474 428Q502 407 520 373.5Q538 340 538 293V213Q538 157 518 114.5Q498 72 463.5 44Q429 16 384 2Q339 -12 288 -12Z" glyph-name="five.tf" horiz-adv-x="590" /><glyph d="M288 -189Q233 -189 189 -176Q145 -163 114.5 -140.5Q84 -118 67.5 -86.5Q51 -55 51 -17V23H194V6Q194 -29 221.5 -49Q249 -69 292 -69Q334 -69 360 -44Q386 -19 386 41V91Q386 112 378 128.5Q370 145 356.5 155.5Q343 166 325.5 171.5Q308 177 289 177Q258 177 235 164.5Q212 152 196 135L65 153L86 536H499V406H205L198 250Q233 273 269 282.5Q305 292 347 292Q378 292 412 282Q446 272 474 251Q502 230 520 196.5Q538 163 538 116V36Q538 -20 518 -62.5Q498 -105 463.5 -133Q429 -161 384 -175Q339 -189 288 -189Z" glyph-name="five.tosf" horiz-adv-x="590" /><glyph d="M570 713H659L267 0H178ZM182 304Q119 304 79 330.5Q39 357 39 404V430H139V421Q139 405 150.5 395Q162 385 185 385Q229 385 229 435V460Q229 480 216 490.5Q203 501 183 501Q169 501 159 495Q149 489 142 481L49 492L59 710H309V623H141L139 548Q158 561 179.5 566.5Q201 572 224 572Q243 572 262 566.5Q281 561 297 549.5Q313 538 323 519.5Q333 501 333 474V426Q333 396 320.5 373Q308 350 287 334.5Q266 319 238.5 311.5Q211 304 182 304ZM661 230Q680 230 692.5 239.5Q705 249 705 268V287Q705 308 691 316.5Q677 325 660 325Q643 325 629.5 316.5Q616 308 616 291V267Q616 248 629 239Q642 230 661 230ZM660 63Q680 63 692.5 72.5Q705 82 705 102V121Q705 143 691 151Q677 159 660 159Q643 159 629 151Q615 143 615 125V101Q615 83 628 73Q641 63 660 63ZM660 -12Q628 -12 600 -6Q572 0 552 13.5Q532 27 520.5 47.5Q509 68 509 98V118Q509 145 523 165.5Q537 186 558 197Q538 205 526.5 225.5Q515 246 515 267V288Q515 316 526.5 337Q538 358 558 372Q578 386 604.5 393.5Q631 401 660 401Q689 401 715.5 394.5Q742 388 762 374.5Q782 361 794 340.5Q806 320 806 292V265Q806 242 793.5 224Q781 206 764 197Q784 189 798 167.5Q812 146 812 122V96Q812 70 800 50Q788 30 767.5 16Q747 2 719 -5Q691 -12 660 -12Z" glyph-name="fiveeighths" horiz-adv-x="866" unicode="&#8541;" /><glyph d="M536 -8Q492 -8 465.5 6Q439 20 424.5 41.5Q410 63 405 88.5Q400 114 400 136V713H544V153Q544 136 552.5 124Q561 112 586 112Q600 112 611.5 113Q623 114 638 116V7Q617 1 589.5 -3.5Q562 -8 536 -8ZM89 409H18V518H89V569Q89 647 131.5 684Q174 721 246 721Q264 721 284 719.5Q304 718 321 714V604Q309 606 297 607Q285 608 272 608Q255 608 244 599.5Q233 591 233 570V518H322V409H233V0H89Z" glyph-name="fl" horiz-adv-x="658" unicode="&#64258;" /><glyph d="M53 -193Q37 -193 21.5 -191Q6 -189 -5 -187L4 -74Q11 -76 20 -77.5Q29 -79 36 -79Q58 -79 68.5 -68Q79 -57 81 -31L124 397H39L49 500H135L143 577Q151 654 198 690.5Q245 727 316 727Q334 727 353.5 725.5Q373 724 390 719L378 608Q354 611 330 611Q313 611 300 602.5Q287 594 285 573L277 500H373L363 397H267L222 -38Q214 -114 174 -153.5Q134 -193 53 -193Z" glyph-name="florin" horiz-adv-x="392" unicode="&#402;" /><glyph d="M155 -193Q139 -193 123.5 -191Q108 -189 97 -187L106 -74Q113 -76 122 -77.5Q131 -79 138 -79Q160 -79 170.5 -68Q181 -57 183 -31L226 397H141L151 500H237L245 577Q253 654 300 690.5Q347 727 418 727Q436 727 455.5 725.5Q475 724 492 719L480 608Q456 611 432 611Q415 611 402 602.5Q389 594 387 573L379 500H475L465 397H369L324 -38Q316 -114 276 -153.5Q236 -193 155 -193Z" glyph-name="florin.tf" horiz-adv-x="590" /><glyph d="M342 168H39V280L304 714H471L196 286H342V386L487 472V286H566V168H487V0H342Z" glyph-name="four" horiz-adv-x="602" unicode="4" /><glyph d="M208 84H34V159L183 400H298L142 163H208V209L308 273V163H348V84H308V0H208Z" glyph-name="four.dnom" horiz-adv-x="383" /><glyph d="M208 400H34V475L183 716H298L142 479H208V525L308 589V479H348V400H308V316H208Z" glyph-name="four.numr" horiz-adv-x="383" /><glyph d="M342 0H39V112L304 537H471L196 118H342V209L487 295V118H566V0H487V-177H342Z" glyph-name="four.osf" horiz-adv-x="602" /><glyph d="M334 168H31V280L296 714H463L188 286H334V386L479 472V286H558V168H479V0H334Z" glyph-name="four.tf" horiz-adv-x="590" /><glyph d="M334 0H31V112L296 537H463L188 118H334V209L479 295V118H558V0H479V-177H334Z" glyph-name="four.tosf" horiz-adv-x="590" /><glyph d="M213 713H302L-90 0H-179Z" glyph-name="fraction" horiz-adv-x="117" unicode="&#8260;" /><glyph d="M285 124Q302 124 319.5 129Q337 134 350.5 145Q364 156 372.5 174.5Q381 193 381 219V323Q381 369 351 391.5Q321 414 281 414Q263 414 246 409Q229 404 215.5 392.5Q202 381 194 363Q186 345 186 319V216Q186 172 214.5 148Q243 124 285 124ZM265 -197Q233 -197 201 -190.5Q169 -184 140.5 -171.5Q112 -159 88 -139.5Q64 -120 49 -93L150 -27Q174 -57 204.5 -71Q235 -85 270 -85Q325 -85 353 -54Q381 -23 381 28V80H379Q353 45 318 29.5Q283 14 241 14Q147 14 94 65Q41 116 41 211V321Q41 370 56.5 408.5Q72 447 99.5 474Q127 501 164 515.5Q201 530 244 530Q286 530 324 511Q362 492 383 463H385V519H522V48Q522 -3 506.5 -47.5Q491 -92 459 -125Q427 -158 378.5 -177.5Q330 -197 265 -197Z" glyph-name="g" horiz-adv-x="581" unicode="g" /><glyph d="M290 567Q254 567 223 579Q192 591 169 612.5Q146 634 132.5 665.5Q119 697 118 736H226Q228 720 232 705Q236 690 243.5 679Q251 668 262.5 661Q274 654 291 654Q320 654 334.5 674Q349 694 355 736H463Q463 693 448 661.5Q433 630 408.5 609Q384 588 353 577.5Q322 567 290 567ZM285 124Q302 124 319.5 129Q337 134 350.5 145Q364 156 372.5 174.5Q381 193 381 219V323Q381 369 351 391.5Q321 414 281 414Q263 414 246 409Q229 404 215.5 392.5Q202 381 194 363Q186 345 186 319V216Q186 172 214.5 148Q243 124 285 124ZM265 -197Q233 -197 201 -190.5Q169 -184 140.5 -171.5Q112 -159 88 -139.5Q64 -120 49 -93L150 -27Q174 -57 204.5 -71Q235 -85 270 -85Q325 -85 353 -54Q381 -23 381 28V80H379Q353 45 318 29.5Q283 14 241 14Q147 14 94 65Q41 116 41 211V321Q41 370 56.5 408.5Q72 447 99.5 474Q127 501 164 515.5Q201 530 244 530Q286 530 324 511Q362 492 383 463H385V519H522V48Q522 -3 506.5 -47.5Q491 -92 459 -125Q427 -158 378.5 -177.5Q330 -197 265 -197Z" glyph-name="gbreve" horiz-adv-x="581" unicode="&#287;" /><glyph d="M232 738H354L465 570H342L292 656L237 570H116ZM285 124Q302 124 319.5 129Q337 134 350.5 145Q364 156 372.5 174.5Q381 193 381 219V323Q381 369 351 391.5Q321 414 281 414Q263 414 246 409Q229 404 215.5 392.5Q202 381 194 363Q186 345 186 319V216Q186 172 214.5 148Q243 124 285 124ZM265 -197Q233 -197 201 -190.5Q169 -184 140.5 -171.5Q112 -159 88 -139.5Q64 -120 49 -93L150 -27Q174 -57 204.5 -71Q235 -85 270 -85Q325 -85 353 -54Q381 -23 381 28V80H379Q353 45 318 29.5Q283 14 241 14Q147 14 94 65Q41 116 41 211V321Q41 370 56.5 408.5Q72 447 99.5 474Q127 501 164 515.5Q201 530 244 530Q286 530 324 511Q362 492 383 463H385V519H522V48Q522 -3 506.5 -47.5Q491 -92 459 -125Q427 -158 378.5 -177.5Q330 -197 265 -197Z" glyph-name="gcircumflex" horiz-adv-x="581" unicode="&#285;" /><glyph d="M267 767H362L349 586H219ZM285 124Q302 124 319.5 129Q337 134 350.5 145Q364 156 372.5 174.5Q381 193 381 219V323Q381 369 351 391.5Q321 414 281 414Q263 414 246 409Q229 404 215.5 392.5Q202 381 194 363Q186 345 186 319V216Q186 172 214.5 148Q243 124 285 124ZM265 -197Q233 -197 201 -190.5Q169 -184 140.5 -171.5Q112 -159 88 -139.5Q64 -120 49 -93L150 -27Q174 -57 204.5 -71Q235 -85 270 -85Q325 -85 353 -54Q381 -23 381 28V80H379Q353 45 318 29.5Q283 14 241 14Q147 14 94 65Q41 116 41 211V321Q41 370 56.5 408.5Q72 447 99.5 474Q127 501 164 515.5Q201 530 244 530Q286 530 324 511Q362 492 383 463H385V519H522V48Q522 -3 506.5 -47.5Q491 -92 459 -125Q427 -158 378.5 -177.5Q330 -197 265 -197Z" glyph-name="gcommaaccent" horiz-adv-x="581" unicode="&#291;" /><glyph d="M218 713H362V575H218ZM285 124Q302 124 319.5 129Q337 134 350.5 145Q364 156 372.5 174.5Q381 193 381 219V323Q381 369 351 391.5Q321 414 281 414Q263 414 246 409Q229 404 215.5 392.5Q202 381 194 363Q186 345 186 319V216Q186 172 214.5 148Q243 124 285 124ZM265 -197Q233 -197 201 -190.5Q169 -184 140.5 -171.5Q112 -159 88 -139.5Q64 -120 49 -93L150 -27Q174 -57 204.5 -71Q235 -85 270 -85Q325 -85 353 -54Q381 -23 381 28V80H379Q353 45 318 29.5Q283 14 241 14Q147 14 94 65Q41 116 41 211V321Q41 370 56.5 408.5Q72 447 99.5 474Q127 501 164 515.5Q201 530 244 530Q286 530 324 511Q362 492 383 463H385V519H522V48Q522 -3 506.5 -47.5Q491 -92 459 -125Q427 -158 378.5 -177.5Q330 -197 265 -197Z" glyph-name="gdotaccent" horiz-adv-x="581" unicode="&#289;" /><glyph d="M414 -12Q382 -12 345.5 -7.5Q309 -3 284 6L301 124Q321 118 343.5 115Q366 112 381 112Q427 112 452 133Q477 154 477 199Q477 228 464 247.5Q451 267 430 279Q409 291 382 296Q355 301 326 301V405H353Q371 412 386 425Q401 438 412 454.5Q423 471 429 490Q435 509 435 528Q435 572 409.5 593Q384 614 336 614Q284 614 258 584Q232 554 232 513V0H83V409H18V516H83V520Q83 559 98.5 596.5Q114 634 146 664Q178 694 226.5 712Q275 730 342 730Q455 730 519 679Q583 628 583 538Q583 487 555.5 444Q528 401 479 383V379Q559 353 595 302.5Q631 252 631 190Q631 144 613 106.5Q595 69 564.5 43Q534 17 495 2.5Q456 -12 414 -12Z" glyph-name="germandbls" horiz-adv-x="661" unicode="&#223;" /><glyph d="M163 736H314L400 569H296Z" glyph-name="grave" horiz-adv-x="563" unicode="`" /><glyph d="M-345 736H-194L-108 569H-212Z" glyph-name="gravecomb" horiz-adv-x="1" unicode="&#768;" /><glyph d="M-299 939H-148L-62 761H-166Z" glyph-name="gravecomb.case" horiz-adv-x="1" /><glyph d="M55 152 399 319 57 485 98 568 534 355V283L97 69Z" glyph-name="greater" horiz-adv-x="590" unicode="&gt;" /><glyph d="M53 246 399 409 54 570 96 653 534 444V372L94 163ZM37 91H552V0H37Z" glyph-name="greaterequal" horiz-adv-x="590" unicode="&#8805;" /><glyph d="M286 264 501 472 569 411 447 264 570 117 502 58ZM32 264 247 472 314 411 192 264 316 117 247 58Z" glyph-name="guillemotleft" horiz-adv-x="602" unicode="&#171;" /><glyph d="M286 326 501 534 569 473 447 326 570 179 502 120ZM32 326 247 534 314 473 192 326 316 179 247 120Z" glyph-name="guillemotleft.case" horiz-adv-x="602" /><glyph d="M287 119 410 266 287 412 355 472 570 266 355 58ZM32 119 155 266 32 412 100 472 315 266 101 58Z" glyph-name="guillemotright" horiz-adv-x="602" unicode="&#187;" /><glyph d="M287 181 410 328 287 474 355 534 570 328 355 120ZM32 181 155 328 32 474 100 534 315 328 101 120Z" glyph-name="guillemotright.case" horiz-adv-x="602" /><glyph d="M32 264 247 472 314 411 192 264 316 117 247 58Z" glyph-name="guilsinglleft" horiz-adv-x="348" unicode="&#8249;" /><glyph d="M32 326 247 534 314 473 192 326 316 179 247 120Z" glyph-name="guilsinglleft.case" horiz-adv-x="348" /><glyph d="M32 119 155 266 32 412 100 472 316 266 101 58Z" glyph-name="guilsinglright" horiz-adv-x="348" unicode="&#8250;" /><glyph d="M32 181 155 328 32 474 100 534 316 328 101 120Z" glyph-name="guilsinglright.case" horiz-adv-x="348" /><glyph d="M61 713H205V453H207Q235 492 273.5 511Q312 530 356 530Q434 530 482.5 483.5Q531 437 531 346V0H387V302Q387 351 366.5 380.5Q346 410 300 410Q256 410 230.5 381Q205 352 205 292V0H61Z" glyph-name="h" horiz-adv-x="586" unicode="h" /><glyph d="M22 650H76V713H220V650H328V562H220V453H222Q250 492 288.5 511Q327 530 371 530Q449 530 497.5 483.5Q546 437 546 346V0H402V302Q402 351 381.5 380.5Q361 410 315 410Q271 410 245.5 381Q220 352 220 292V0H76V562H22Z" glyph-name="hbar" horiz-adv-x="601" unicode="&#295;" /><glyph d="M74 938H196L307 760H184L134 857L79 760H-42ZM61 713H205V453H207Q235 492 273.5 511Q312 530 356 530Q434 530 482.5 483.5Q531 437 531 346V0H387V302Q387 351 366.5 380.5Q346 410 300 410Q256 410 230.5 381Q205 352 205 292V0H61Z" glyph-name="hcircumflex" horiz-adv-x="586" unicode="&#293;" /><glyph d="M412 736H546L438 569H341ZM212 736H346L238 569H141Z" glyph-name="hungarumlaut" horiz-adv-x="563" unicode="&#733;" /><glyph d="M35 358H328V239H35Z" glyph-name="hyphen" horiz-adv-x="363" unicode="-" /><glyph d="M35 420H328V301H35Z" glyph-name="hyphen.case" horiz-adv-x="363" /><glyph d="M61 713H205V575H61ZM61 519H205V0H61Z" glyph-name="i" horiz-adv-x="266" unicode="i" /><glyph d="M61 713H205V575H61ZM61 519H205V0H61Z" glyph-name="i.latn_TRK" horiz-adv-x="266" /><glyph d="M162 736H313L180 569H76ZM61 519H205V0H61Z" glyph-name="iacute" horiz-adv-x="266" unicode="&#237;" /><glyph d="M133 567Q97 567 66 579Q35 591 12 612.5Q-11 634 -24.5 665.5Q-38 697 -39 736H69Q71 720 75 705Q79 690 86.5 679Q94 668 105.5 661Q117 654 134 654Q163 654 177.5 674Q192 694 198 736H306Q306 693 291 661.5Q276 630 251.5 609Q227 588 196 577.5Q165 567 133 567ZM61 519H205V0H61Z" glyph-name="ibreve" horiz-adv-x="266" unicode="&#301;" /><glyph d="M75 738H197L308 570H185L135 656L80 570H-41ZM61 519H205V0H61Z" glyph-name="icircumflex" horiz-adv-x="266" unicode="&#238;" /><glyph d="M171 717H303V570H171ZM-37 717H95V570H-37ZM61 519H205V0H61Z" glyph-name="idieresis" horiz-adv-x="266" unicode="&#239;" /><glyph d="M-51 736H100L186 569H82ZM61 519H205V0H61Z" glyph-name="igrave" horiz-adv-x="266" unicode="&#236;" /><glyph d="M313 713H457V575H313ZM287 -197Q271 -197 257.5 -196Q244 -195 233 -193V-79Q240 -80 249.5 -80.5Q259 -81 266 -81Q288 -81 300.5 -70Q313 -59 313 -33V519H457V-42Q457 -119 412.5 -158Q368 -197 287 -197ZM61 713H205V575H61ZM61 519H205V0H61Z" glyph-name="ij" horiz-adv-x="518" unicode="&#307;" /><glyph d="M-22 693H288V582H-22ZM61 519H205V0H61Z" glyph-name="imacron" horiz-adv-x="266" unicode="&#299;" /><glyph d="M601 239Q642 239 668.5 264.5Q695 290 695 326Q695 362 676 386Q657 410 612 410Q578 410 543.5 383.5Q509 357 476 323Q501 290 529.5 264.5Q558 239 601 239ZM226 241Q263 241 298.5 268Q334 295 366 330Q355 345 341 360Q327 375 310 386.5Q293 398 274.5 405.5Q256 413 236 413Q198 413 172 390.5Q146 368 146 335Q146 316 152 299Q158 282 168.5 269Q179 256 193.5 248.5Q208 241 226 241ZM231 156Q190 156 156.5 169.5Q123 183 99.5 206Q76 229 63.5 259.5Q51 290 51 325Q51 362 65 394Q79 426 104 449.5Q129 473 162 486Q195 499 234 499Q291 499 339 471Q387 443 425 401Q441 417 461 433.5Q481 450 504.5 463Q528 476 554 484Q580 492 610 492Q692 492 741.5 450.5Q791 409 791 334Q791 295 777 261.5Q763 228 738 204Q713 180 678.5 166.5Q644 153 603 153Q571 153 544 161Q517 169 494 182.5Q471 196 451.5 213.5Q432 231 416 250Q378 212 332 184Q286 156 231 156Z" glyph-name="infinity" horiz-adv-x="841" unicode="&#8734;" /><glyph d="M79 -188Q61 -188 36.5 -185.5Q12 -183 -10 -176L6 -74Q22 -78 48 -78Q72 -78 82.5 -65Q93 -52 95 -29L152 578Q159 650 201.5 690Q244 730 306 730Q326 730 353 728Q380 726 402 718L387 616Q376 618 362.5 620Q349 622 335 622Q315 622 301.5 609.5Q288 597 286 573L231 -36Q224 -108 183 -148Q142 -188 79 -188Z" glyph-name="integral" horiz-adv-x="418" unicode="&#8747;" /><glyph d="M61 713H205V575H61ZM139 -219Q88 -219 55 -195.5Q22 -172 22 -122Q22 -94 32.5 -70Q43 -46 61 -26V519H205V0Q167 -11 142.5 -35.5Q118 -60 118 -86Q118 -107 129.5 -116Q141 -125 163 -125Q171 -125 185 -121Q199 -117 213 -108L245 -191Q223 -203 196 -211Q169 -219 139 -219Z" glyph-name="iogonek" horiz-adv-x="266" unicode="&#303;" /><glyph d="M-77 584Q-72 612 -61.5 637Q-51 662 -35 680.5Q-19 699 3 709.5Q25 720 52 720Q74 720 95 715Q116 710 136.5 704Q157 698 177.5 693Q198 688 220 688Q241 688 248.5 702.5Q256 717 261 735L344 716Q339 688 329.5 663Q320 638 305 619.5Q290 601 269 590.5Q248 580 221 580Q199 580 177.5 585Q156 590 135.5 596Q115 602 94.5 607Q74 612 53 612Q37 612 28.5 603Q20 594 9 565ZM61 519H205V0H61Z" glyph-name="itilde" horiz-adv-x="266" unicode="&#297;" /><glyph d="M65 713H209V575H65ZM39 -197Q23 -197 9.5 -196Q-4 -195 -15 -193V-79Q-8 -80 1.5 -80.5Q11 -81 18 -81Q40 -81 52.5 -70Q65 -59 65 -33V519H209V-42Q209 -119 164.5 -158Q120 -197 39 -197Z" glyph-name="j" horiz-adv-x="270" unicode="j" /><glyph d="M77 738H199L310 570H187L137 656L82 570H-39ZM39 -197Q23 -197 9.5 -196Q-4 -195 -15 -193V-79Q-8 -80 1.5 -80.5Q11 -81 18 -81Q40 -81 52.5 -70Q65 -59 65 -33V519H209V-42Q209 -119 164.5 -158Q120 -197 39 -197Z" glyph-name="jcircumflex" horiz-adv-x="270" unicode="&#309;" /><glyph d="M62 713H205L206 310L381 519H540L370 327L545 0H387L267 229L205 161V0H62Z" glyph-name="k" horiz-adv-x="560" unicode="k" /><glyph d="M215 -33H357L317 -195H203ZM62 713H205L206 310L381 519H540L370 327L545 0H387L267 229L205 161V0H62Z" glyph-name="kcommaaccent" horiz-adv-x="560" unicode="&#311;" /><glyph d="M62 519H206L207 310L381 519H540L370 327L545 0H387L268 229L206 161V0H62Z" glyph-name="kgreenlandic" horiz-adv-x="560" unicode="&#312;" /><glyph d="M196 -8Q152 -8 125.5 6Q99 20 84.5 41.5Q70 63 65 88.5Q60 114 60 136V713H204V153Q204 136 212.5 124Q221 112 246 112Q260 112 271.5 113Q283 114 298 116V7Q277 1 249.5 -3.5Q222 -8 196 -8Z" glyph-name="l" horiz-adv-x="318" unicode="l" /><glyph d="M171 939H322L189 761H85ZM196 -8Q152 -8 125.5 6Q99 20 84.5 41.5Q70 63 65 88.5Q60 114 60 136V713H204V153Q204 136 212.5 124Q221 112 246 112Q260 112 271.5 113Q283 114 298 116V7Q277 1 249.5 -3.5Q222 -8 196 -8Z" glyph-name="lacute" horiz-adv-x="318" unicode="&#314;" /><glyph d="M256 713H386L336 548H241ZM196 -8Q152 -8 125.5 6Q99 20 84.5 41.5Q70 63 65 88.5Q60 114 60 136V713H204V153Q204 136 212.5 124Q221 112 246 112Q260 112 271.5 113Q283 114 298 116V7Q277 1 249.5 -3.5Q222 -8 196 -8Z" glyph-name="lcaron" horiz-adv-x="348" unicode="&#318;" /><glyph d="M103 -33H245L205 -195H91ZM196 -8Q152 -8 125.5 6Q99 20 84.5 41.5Q70 63 65 88.5Q60 114 60 136V713H204V153Q204 136 212.5 124Q221 112 246 112Q260 112 271.5 113Q283 114 298 116V7Q277 1 249.5 -3.5Q222 -8 196 -8Z" glyph-name="lcommaaccent" horiz-adv-x="318" unicode="&#316;" /><glyph d="M252 443H396V305H252ZM196 -8Q152 -8 125.5 6Q99 20 84.5 41.5Q70 63 65 88.5Q60 114 60 136V713H204V153Q204 136 212.5 124Q221 112 246 112Q260 112 271.5 113Q283 114 298 116V7Q277 1 249.5 -3.5Q222 -8 196 -8Z" glyph-name="ldot" horiz-adv-x="385" unicode="&#320;" /><glyph d="M55 283V355L491 568L533 485L190 319L534 152L492 69Z" glyph-name="less" horiz-adv-x="590" unicode="&lt;" /><glyph d="M55 372V444L494 653L535 570L190 409L537 246L495 163ZM37 91H552V0H37Z" glyph-name="lessequal" horiz-adv-x="590" unicode="&#8804;" /><glyph d="M449 271H37V362H552V114H449Z" glyph-name="logicalnot" horiz-adv-x="590" unicode="&#172;" /><glyph d="M89 409H18V516H89V569Q89 647 131.5 684Q174 721 246 721Q264 721 284 719.5Q304 718 321 714V604Q309 606 297 607Q285 608 272 608Q255 608 244 599.5Q233 591 233 570V0H89Z" glyph-name="longs" horiz-adv-x="320" unicode="&#383;" /><glyph d="M442 341 288 604 139 351 296 104ZM25 339V353L245 715H337L556 353V339L337 0H245Z" glyph-name="lozenge" horiz-adv-x="581" unicode="&#9674;" /><glyph d="M10 323 60 363V713H204V479L264 528V419L204 370V153Q204 136 212.5 124Q221 112 246 112Q260 112 271.5 113Q283 114 298 116V7Q277 1 249.5 -3.5Q222 -8 196 -8Q152 -8 125.5 6Q99 20 84.5 41.5Q70 63 65 88.5Q60 114 60 136V254L10 214Z" glyph-name="lslash" horiz-adv-x="318" unicode="&#322;" /><glyph d="M61 519H201V454H203Q259 530 355 530Q405 530 443 510.5Q481 491 504 451H505Q534 489 574.5 509.5Q615 530 668 530Q702 530 733.5 520Q765 510 789.5 489Q814 468 829 435Q844 402 844 356V0H700V303Q700 325 696 344.5Q692 364 682 378.5Q672 393 655.5 401.5Q639 410 614 410Q569 410 547 378.5Q525 347 525 298V0H381V301Q381 322 377.5 342Q374 362 364.5 377Q355 392 338 401Q321 410 295 410Q280 410 264 404Q248 398 235 385.5Q222 373 213.5 352.5Q205 332 205 302V0H61Z" glyph-name="m" horiz-adv-x="903" unicode="m" /><glyph d="M126 693H436V582H126Z" glyph-name="macron" horiz-adv-x="563" unicode="&#175;" /><glyph d="M47 362H543V272H47Z" glyph-name="minus" horiz-adv-x="590" unicode="&#8722;" /><glyph d="M16 212H303V147H16Z" glyph-name="minus.dnom" horiz-adv-x="320" /><glyph d="M16 528H303V463H16Z" glyph-name="minus.numr" horiz-adv-x="320" /><glyph d="M58 519H200V196Q200 180 205.5 164.5Q211 149 222.5 136.5Q234 124 250.5 116.5Q267 109 290 109Q305 109 321.5 115.5Q338 122 352 134Q366 146 375 163.5Q384 181 384 203V519H528V188Q528 171 533 156.5Q538 142 564 141L563 -4Q529 -5 503.5 2.5Q478 10 460.5 22.5Q443 35 432 51.5Q421 68 416 85Q409 67 398.5 49.5Q388 32 373 18.5Q358 5 337 -3.5Q316 -12 288 -12Q250 -12 222 4.5Q194 21 180 50L172 48L205 -168L58 -178Z" glyph-name="mu" horiz-adv-x="592" unicode="&#181;" /><glyph d="M51 139 228 319 50 500 115 566 293 384 469 565 533 500 357 321 539 144 473 77 292 254 115 74Z" glyph-name="multiply" horiz-adv-x="590" unicode="&#215;" /><glyph d="M61 519H201V454H203Q231 492 270.5 511Q310 530 356 530Q434 530 482.5 483.5Q531 437 531 346V0H387V302Q387 351 366.5 380.5Q346 410 300 410Q256 410 230.5 381Q205 352 205 292V0H61Z" glyph-name="n" horiz-adv-x="586" unicode="n" /><glyph d="M325 736H476L343 569H239ZM61 519H201V454H203Q231 492 270.5 511Q310 530 356 530Q434 530 482.5 483.5Q531 437 531 346V0H387V302Q387 351 366.5 380.5Q346 410 300 410Q256 410 230.5 381Q205 352 205 292V0H61Z" glyph-name="nacute" horiz-adv-x="586" unicode="&#324;" /><glyph d="M61 519H201V454H203Q231 492 270.5 511Q310 530 356 530Q434 530 482.5 483.5Q531 437 531 346V0H387V302Q387 351 366.5 380.5Q346 410 300 410Q256 410 230.5 381Q205 352 205 292V0H61ZM-5 713H123L74 572H-20Z" glyph-name="napostrophe" horiz-adv-x="586" unicode="&#329;" /><glyph d="M121 736H246L294 652L349 736H471L354 570H233ZM61 519H201V454H203Q231 492 270.5 511Q310 530 356 530Q434 530 482.5 483.5Q531 437 531 346V0H387V302Q387 351 366.5 380.5Q346 410 300 410Q256 410 230.5 381Q205 352 205 292V0H61Z" glyph-name="ncaron" horiz-adv-x="586" unicode="&#328;" /><glyph d="M228 -33H370L330 -195H216ZM61 519H201V454H203Q231 492 270.5 511Q310 530 356 530Q434 530 482.5 483.5Q531 437 531 346V0H387V302Q387 351 366.5 380.5Q346 410 300 410Q256 410 230.5 381Q205 352 205 292V0H61Z" glyph-name="ncommaaccent" horiz-adv-x="586" unicode="&#326;" /><glyph d="M287 363Q304 363 322 369.5Q340 376 355 389Q370 402 380 422Q390 442 390 468V514Q390 552 365.5 580.5Q341 609 292 609Q242 609 217.5 584Q193 559 193 524V445Q193 422 201.5 406.5Q210 391 223.5 381.5Q237 372 254 367.5Q271 363 287 363ZM287 -12Q179 -12 116.5 36Q54 84 54 171V200H198V184Q198 146 224 126Q250 106 292 106Q340 106 365 133Q390 160 390 202V318Q364 283 320 267Q276 251 227 251Q186 251 152 263Q118 275 94 297Q70 319 57 349Q44 379 44 415V525Q44 574 64.5 611.5Q85 649 119.5 674.5Q154 700 200 712.5Q246 725 298 725Q349 725 394 710.5Q439 696 473 668.5Q507 641 526.5 601.5Q546 562 546 513V203Q546 152 525 112Q504 72 468.5 44.5Q433 17 386 2.5Q339 -12 287 -12Z" glyph-name="nine" horiz-adv-x="592" unicode="9" /><glyph d="M187 207Q201 207 217.5 218.5Q234 230 234 256V281Q234 298 222.5 310Q211 322 189 322Q167 322 155 311Q143 300 143 284V245Q143 224 158 215.5Q173 207 187 207ZM187 -13Q122 -13 83.5 15.5Q45 44 45 95V114H147V104Q147 86 158.5 77Q170 68 188 68Q211 68 222.5 80Q234 92 234 110V170Q219 153 194.5 145.5Q170 138 144 138Q94 138 66.5 164Q39 190 39 230V286Q39 314 51.5 336Q64 358 85 372Q106 386 134 393.5Q162 401 192 401Q222 401 249.5 393Q277 385 297.5 369.5Q318 354 330.5 331Q343 308 343 279V110Q343 80 330 57.5Q317 35 295.5 19Q274 3 246 -5Q218 -13 187 -13Z" glyph-name="nine.dnom" horiz-adv-x="383" /><glyph d="M187 523Q201 523 217.5 534.5Q234 546 234 572V597Q234 614 222.5 626Q211 638 189 638Q167 638 155 627Q143 616 143 600V561Q143 540 158 531.5Q173 523 187 523ZM187 303Q122 303 83.5 331.5Q45 360 45 411V430H147V420Q147 402 158.5 393Q170 384 188 384Q211 384 222.5 396Q234 408 234 426V486Q219 469 194.5 461.5Q170 454 144 454Q94 454 66.5 480Q39 506 39 546V602Q39 630 51.5 652Q64 674 85 688Q106 702 134 709.5Q162 717 192 717Q222 717 249.5 709Q277 701 297.5 685.5Q318 670 330.5 647Q343 624 343 595V426Q343 396 330 373.5Q317 351 295.5 335Q274 319 246 311Q218 303 187 303Z" glyph-name="nine.numr" horiz-adv-x="383" /><glyph d="M289 186Q306 186 324 192.5Q342 199 357 212Q372 225 382 245Q392 265 392 291V337Q392 375 367.5 403.5Q343 432 294 432Q244 432 219.5 407Q195 382 195 347V268Q195 245 203.5 229.5Q212 214 225.5 204.5Q239 195 256 190.5Q273 186 289 186ZM289 -189Q181 -189 118.5 -141Q56 -93 56 -6V23H200V7Q200 -31 226 -51Q252 -71 294 -71Q342 -71 367 -44Q392 -17 392 25V141Q366 106 322 90Q278 74 229 74Q188 74 154 86Q120 98 96 120Q72 142 59 172Q46 202 46 238V348Q46 397 66.5 434.5Q87 472 121.5 497.5Q156 523 202 535.5Q248 548 300 548Q351 548 396 533.5Q441 519 475 491.5Q509 464 528.5 424.5Q548 385 548 336V26Q548 -25 527 -65Q506 -105 470.5 -132.5Q435 -160 388 -174.5Q341 -189 289 -189Z" glyph-name="nine.osf" horiz-adv-x="594" /><glyph d="M287 363Q304 363 322 369.5Q340 376 355 389Q370 402 380 422Q390 442 390 468V514Q390 552 365.5 580.5Q341 609 292 609Q242 609 217.5 584Q193 559 193 524V445Q193 422 201.5 406.5Q210 391 223.5 381.5Q237 372 254 367.5Q271 363 287 363ZM287 -12Q179 -12 116.5 36Q54 84 54 171V200H198V184Q198 146 224 126Q250 106 292 106Q340 106 365 133Q390 160 390 202V318Q364 283 320 267Q276 251 227 251Q186 251 152 263Q118 275 94 297Q70 319 57 349Q44 379 44 415V525Q44 574 64.5 611.5Q85 649 119.5 674.5Q154 700 200 712.5Q246 725 298 725Q349 725 394 710.5Q439 696 473 668.5Q507 641 526.5 601.5Q546 562 546 513V203Q546 152 525 112Q504 72 468.5 44.5Q433 17 386 2.5Q339 -12 287 -12Z" glyph-name="nine.tf" horiz-adv-x="590" /><glyph d="M287 186Q304 186 322 192.5Q340 199 355 212Q370 225 380 245Q390 265 390 291V337Q390 375 365.5 403.5Q341 432 292 432Q242 432 217.5 407Q193 382 193 347V268Q193 245 201.5 229.5Q210 214 223.5 204.5Q237 195 254 190.5Q271 186 287 186ZM287 -189Q179 -189 116.5 -141Q54 -93 54 -6V23H198V7Q198 -31 224 -51Q250 -71 292 -71Q340 -71 365 -44Q390 -17 390 25V141Q364 106 320 90Q276 74 227 74Q186 74 152 86Q118 98 94 120Q70 142 57 172Q44 202 44 238V348Q44 397 64.5 434.5Q85 472 119.5 497.5Q154 523 200 535.5Q246 548 298 548Q349 548 394 533.5Q439 519 473 491.5Q507 464 526.5 424.5Q546 385 546 336V26Q546 -25 525 -65Q504 -105 468.5 -132.5Q433 -160 386 -174.5Q339 -189 287 -189Z" glyph-name="nine.tosf" horiz-adv-x="590" /><glyph glyph-name="nonmarkingreturn" horiz-adv-x="230" unicode="" /><glyph d="M149 64 192 162H31V252H233L287 375H31V465H329L379 579L457 550L419 465H558V375H378L324 252H558V162H283L226 36Z" glyph-name="notequal" horiz-adv-x="590" unicode="&#8800;" /><glyph d="M86 584Q91 612 101.5 637Q112 662 128 680.5Q144 699 166 709.5Q188 720 215 720Q237 720 258 715Q279 710 299.5 704Q320 698 340.5 693Q361 688 383 688Q404 688 411.5 702.5Q419 717 424 735L507 716Q502 688 492.5 663Q483 638 468 619.5Q453 601 432 590.5Q411 580 384 580Q362 580 340.5 585Q319 590 298.5 596Q278 602 257.5 607Q237 612 216 612Q200 612 191.5 603Q183 594 172 565ZM61 519H201V454H203Q231 492 270.5 511Q310 530 356 530Q434 530 482.5 483.5Q531 437 531 346V0H387V302Q387 351 366.5 380.5Q346 410 300 410Q256 410 230.5 381Q205 352 205 292V0H61Z" glyph-name="ntilde" horiz-adv-x="586" unicode="&#241;" /><glyph d="M356 265 389 463H256L225 265ZM129 178H15L30 265H141L175 463H57L72 548H185L213 713H295L270 548H403L429 713H511L484 548H595L583 463H472L439 265H553L541 178H426L397 -1H315L343 178H210L182 -1H100Z" glyph-name="numbersign" horiz-adv-x="601" unicode="#" /><glyph d="M283 102Q301 102 318.5 107.5Q336 113 349 124Q362 135 370 152.5Q378 170 378 194V323Q378 365 350 389.5Q322 414 280 414Q243 414 214 391.5Q185 369 185 320V192Q185 150 212 126Q239 102 283 102ZM283 -12Q236 -12 192 0Q148 12 114 37.5Q80 63 59.5 102Q39 141 39 194V309Q39 364 60 405Q81 446 115 473.5Q149 501 192 515Q235 529 279 529Q326 529 370 515Q414 501 448.5 473.5Q483 446 503.5 405.5Q524 365 524 312V205Q524 150 502.5 109.5Q481 69 447 42Q413 15 369.5 1.5Q326 -12 283 -12Z" glyph-name="o" horiz-adv-x="563" unicode="o" /><glyph d="M310 736H461L328 569H224ZM283 102Q301 102 318.5 107.5Q336 113 349 124Q362 135 370 152.5Q378 170 378 194V323Q378 365 350 389.5Q322 414 280 414Q243 414 214 391.5Q185 369 185 320V192Q185 150 212 126Q239 102 283 102ZM283 -12Q236 -12 192 0Q148 12 114 37.5Q80 63 59.5 102Q39 141 39 194V309Q39 364 60 405Q81 446 115 473.5Q149 501 192 515Q235 529 279 529Q326 529 370 515Q414 501 448.5 473.5Q483 446 503.5 405.5Q524 365 524 312V205Q524 150 502.5 109.5Q481 69 447 42Q413 15 369.5 1.5Q326 -12 283 -12Z" glyph-name="oacute" horiz-adv-x="563" unicode="&#243;" /><glyph d="M281 567Q245 567 214 579Q183 591 160 612.5Q137 634 123.5 665.5Q110 697 109 736H217Q219 720 223 705Q227 690 234.5 679Q242 668 253.5 661Q265 654 282 654Q311 654 325.5 674Q340 694 346 736H454Q454 693 439 661.5Q424 630 399.5 609Q375 588 344 577.5Q313 567 281 567ZM283 102Q301 102 318.5 107.5Q336 113 349 124Q362 135 370 152.5Q378 170 378 194V323Q378 365 350 389.5Q322 414 280 414Q243 414 214 391.5Q185 369 185 320V192Q185 150 212 126Q239 102 283 102ZM283 -12Q236 -12 192 0Q148 12 114 37.5Q80 63 59.5 102Q39 141 39 194V309Q39 364 60 405Q81 446 115 473.5Q149 501 192 515Q235 529 279 529Q326 529 370 515Q414 501 448.5 473.5Q483 446 503.5 405.5Q524 365 524 312V205Q524 150 502.5 109.5Q481 69 447 42Q413 15 369.5 1.5Q326 -12 283 -12Z" glyph-name="obreve" horiz-adv-x="563" unicode="&#335;" /><glyph d="M223 738H345L456 570H333L283 656L228 570H107ZM283 102Q301 102 318.5 107.5Q336 113 349 124Q362 135 370 152.5Q378 170 378 194V323Q378 365 350 389.5Q322 414 280 414Q243 414 214 391.5Q185 369 185 320V192Q185 150 212 126Q239 102 283 102ZM283 -12Q236 -12 192 0Q148 12 114 37.5Q80 63 59.5 102Q39 141 39 194V309Q39 364 60 405Q81 446 115 473.5Q149 501 192 515Q235 529 279 529Q326 529 370 515Q414 501 448.5 473.5Q483 446 503.5 405.5Q524 365 524 312V205Q524 150 502.5 109.5Q481 69 447 42Q413 15 369.5 1.5Q326 -12 283 -12Z" glyph-name="ocircumflex" horiz-adv-x="563" unicode="&#244;" /><glyph d="M319 717H451V570H319ZM111 717H243V570H111ZM283 102Q301 102 318.5 107.5Q336 113 349 124Q362 135 370 152.5Q378 170 378 194V323Q378 365 350 389.5Q322 414 280 414Q243 414 214 391.5Q185 369 185 320V192Q185 150 212 126Q239 102 283 102ZM283 -12Q236 -12 192 0Q148 12 114 37.5Q80 63 59.5 102Q39 141 39 194V309Q39 364 60 405Q81 446 115 473.5Q149 501 192 515Q235 529 279 529Q326 529 370 515Q414 501 448.5 473.5Q483 446 503.5 405.5Q524 365 524 312V205Q524 150 502.5 109.5Q481 69 447 42Q413 15 369.5 1.5Q326 -12 283 -12Z" glyph-name="odieresis" horiz-adv-x="563" unicode="&#246;" /><glyph d="M712 312V328Q712 375 684.5 396Q657 417 622 417Q604 417 586.5 411.5Q569 406 555.5 394.5Q542 383 534 365Q526 347 526 322V312ZM283 102Q301 102 318.5 107.5Q336 113 349 124Q362 135 370 152.5Q378 170 378 194V323Q378 365 350 389.5Q322 414 280 414Q243 414 214 391.5Q185 369 185 320V192Q185 150 212 126Q239 102 283 102ZM283 -12Q236 -12 192 0Q148 12 114 37.5Q80 63 59.5 102Q39 141 39 194V309Q39 364 60 405Q81 446 115 473.5Q149 501 192 515Q235 529 279 529Q328 529 373 514Q418 499 452 469Q486 498 530 513.5Q574 529 624 529Q667 529 708 516Q749 503 780.5 477.5Q812 452 831.5 413Q851 374 851 322V221H526V197Q526 173 535.5 155.5Q545 138 561 126Q577 114 597.5 108Q618 102 640 102Q656 102 674 106.5Q692 111 708.5 119Q725 127 739.5 137Q754 147 764 159L844 87Q804 34 748.5 11Q693 -12 627 -12Q576 -12 530 2Q484 16 449 45Q414 16 371 2Q328 -12 283 -12Z" glyph-name="oe" horiz-adv-x="893" unicode="&#339;" /><glyph d="M288 -218Q232 -218 196.5 -194.5Q161 -171 161 -122Q161 -89 177 -61.5Q193 -34 218.5 -12Q244 10 275 25Q306 40 337 48L377 0Q323 -9 294 -34.5Q265 -60 265 -86Q265 -107 277.5 -116Q290 -125 313 -125Q322 -125 337.5 -121Q353 -117 368 -108L402 -190Q379 -202 349.5 -210Q320 -218 288 -218Z" glyph-name="ogonek" horiz-adv-x="563" unicode="&#731;" /><glyph d="M97 736H248L334 569H230ZM283 102Q301 102 318.5 107.5Q336 113 349 124Q362 135 370 152.5Q378 170 378 194V323Q378 365 350 389.5Q322 414 280 414Q243 414 214 391.5Q185 369 185 320V192Q185 150 212 126Q239 102 283 102ZM283 -12Q236 -12 192 0Q148 12 114 37.5Q80 63 59.5 102Q39 141 39 194V309Q39 364 60 405Q81 446 115 473.5Q149 501 192 515Q235 529 279 529Q326 529 370 515Q414 501 448.5 473.5Q483 446 503.5 405.5Q524 365 524 312V205Q524 150 502.5 109.5Q481 69 447 42Q413 15 369.5 1.5Q326 -12 283 -12Z" glyph-name="ograve" horiz-adv-x="563" unicode="&#242;" /><glyph d="M396 736H530L422 569H325ZM196 736H330L222 569H125ZM283 102Q301 102 318.5 107.5Q336 113 349 124Q362 135 370 152.5Q378 170 378 194V323Q378 365 350 389.5Q322 414 280 414Q243 414 214 391.5Q185 369 185 320V192Q185 150 212 126Q239 102 283 102ZM283 -12Q236 -12 192 0Q148 12 114 37.5Q80 63 59.5 102Q39 141 39 194V309Q39 364 60 405Q81 446 115 473.5Q149 501 192 515Q235 529 279 529Q326 529 370 515Q414 501 448.5 473.5Q483 446 503.5 405.5Q524 365 524 312V205Q524 150 502.5 109.5Q481 69 447 42Q413 15 369.5 1.5Q326 -12 283 -12Z" glyph-name="ohungarumlaut" horiz-adv-x="563" unicode="&#337;" /><glyph d="M126 693H436V582H126ZM283 102Q301 102 318.5 107.5Q336 113 349 124Q362 135 370 152.5Q378 170 378 194V323Q378 365 350 389.5Q322 414 280 414Q243 414 214 391.5Q185 369 185 320V192Q185 150 212 126Q239 102 283 102ZM283 -12Q236 -12 192 0Q148 12 114 37.5Q80 63 59.5 102Q39 141 39 194V309Q39 364 60 405Q81 446 115 473.5Q149 501 192 515Q235 529 279 529Q326 529 370 515Q414 501 448.5 473.5Q483 446 503.5 405.5Q524 365 524 312V205Q524 150 502.5 109.5Q481 69 447 42Q413 15 369.5 1.5Q326 -12 283 -12Z" glyph-name="omacron" horiz-adv-x="563" unicode="&#333;" /><glyph d="M52 107H198V582L60 570L49 673L283 718H345V107H481V0H52Z" glyph-name="one" horiz-adv-x="522" unicode="1" /><glyph d="M52 74H126V304L54 299L48 371L179 399H232V74H299V0H52Z" glyph-name="one.dnom" horiz-adv-x="340" /><glyph d="M52 390H126V620L54 615L48 687L179 715H232V390H299V316H52Z" glyph-name="one.numr" horiz-adv-x="340" /><glyph d="M52 109H199V405L62 392L51 496L284 541H345V109H481V0H52Z" glyph-name="one.osf" horiz-adv-x="522" /><glyph d="M82 107H228V582L90 570L79 673L313 718H375V107H511V0H82Z" glyph-name="one.tf" horiz-adv-x="590" /><glyph d="M81 109H228V405L91 392L80 496L313 541H374V109H510V0H81Z" glyph-name="one.tosf" horiz-adv-x="590" /><glyph d="M569 713H658L266 0H177ZM663 230Q682 230 694.5 239.5Q707 249 707 268V287Q707 308 693 316.5Q679 325 662 325Q645 325 631.5 316.5Q618 308 618 291V267Q618 248 631 239Q644 230 663 230ZM662 63Q682 63 694.5 72.5Q707 82 707 102V121Q707 143 693 151Q679 159 662 159Q645 159 631 151Q617 143 617 125V101Q617 83 630 73Q643 63 662 63ZM662 -12Q630 -12 602 -6Q574 0 554 13.5Q534 27 522.5 47.5Q511 68 511 98V118Q511 145 525 165.5Q539 186 560 197Q540 205 528.5 225.5Q517 246 517 267V288Q517 316 528.5 337Q540 358 560 372Q580 386 606.5 393.5Q633 401 662 401Q691 401 717.5 394.5Q744 388 764 374.5Q784 361 796 340.5Q808 320 808 292V265Q808 242 795.5 224Q783 206 766 197Q786 189 800 167.5Q814 146 814 122V96Q814 70 802 50Q790 30 769.5 16Q749 2 721 -5Q693 -12 662 -12ZM45 390H119V620L47 615L41 687L172 715H225V390H292V316H45Z" glyph-name="oneeighth" horiz-adv-x="866" unicode="&#8539;" /><glyph d="M566 713H655L263 0H174ZM529 66 666 218Q680 233 690 250Q700 267 700 285V289Q700 304 690.5 315Q681 326 659 326Q639 326 629.5 313.5Q620 301 620 281V269H521V290Q521 348 563 377.5Q605 407 668 407Q736 407 770.5 373.5Q805 340 805 287Q805 243 779 208Q753 173 716 135L669 86V84H809V0H529ZM49 390H123V620L51 615L45 687L176 715H229V390H296V316H49Z" glyph-name="onehalf" horiz-adv-x="866" unicode="&#189;" /><glyph d="M570 713H659L267 0H178ZM667 84H493V159L642 400H757L601 163H667V209L767 273V163H807V84H767V0H667ZM53 390H127V620L55 615L49 687L180 715H233V390H300V316H53Z" glyph-name="onequarter" horiz-adv-x="866" unicode="&#188;" /><glyph d="M52 454H126V684L54 679L48 751L179 779H232V454H299V380H52Z" glyph-name="onesuperior" horiz-adv-x="340" unicode="&#185;" /><glyph d="M659 -12Q590 -12 553 17.5Q516 47 516 101V115H619V105Q619 68 666 68Q685 68 696 80.5Q707 93 707 115Q707 129 701.5 137.5Q696 146 688 151Q680 156 670.5 157.5Q661 159 653 159H622V231H653Q677 231 690 240.5Q703 250 703 276Q703 298 690.5 308.5Q678 319 661 319Q637 319 628.5 307.5Q620 296 620 280V273H519V287Q519 338 557.5 369.5Q596 401 663 401Q732 401 768.5 370Q805 339 805 290Q805 257 788.5 233.5Q772 210 745 201V199Q776 191 796.5 166.5Q817 142 817 107Q817 74 802.5 51.5Q788 29 765 14.5Q742 0 714 -6Q686 -12 659 -12ZM567 713H656L264 0H175ZM49 390H123V620L51 615L45 687L176 715H229V390H296V316H49Z" glyph-name="onethird" horiz-adv-x="866" unicode="&#8531;" /><glyph d="M68 309H363V227H68ZM200 436Q209 436 219.5 439Q230 442 238.5 448Q247 454 253 463.5Q259 473 259 486V521H225Q211 521 198.5 519.5Q186 518 175.5 513.5Q165 509 159 500Q153 491 153 476Q153 436 200 436ZM165 363Q142 363 121 369Q100 375 84 387Q68 399 58.5 417.5Q49 436 49 461Q49 500 67.5 523Q86 546 112.5 558Q139 570 169 573.5Q199 577 223 577H261V605Q261 628 248 641.5Q235 655 209 655Q183 655 169 642.5Q155 630 155 611V598H64V615Q64 643 76.5 663.5Q89 684 110 698Q131 712 159 719Q187 726 218 726Q245 726 271.5 719.5Q298 713 318 698.5Q338 684 350.5 661.5Q363 639 363 607V448Q363 426 365 406Q367 386 369 371H272L269 410Q248 383 217.5 373Q187 363 165 363Z" glyph-name="ordfeminine" horiz-adv-x="420" unicode="&#170;" /><glyph d="M214 439Q244 439 257 457.5Q270 476 270 505V589Q270 617 257 635.5Q244 654 215 654Q183 654 170.5 635Q158 616 158 586V503Q158 474 170 456.5Q182 439 214 439ZM214 362Q181 362 151.5 370Q122 378 100 395Q78 412 65 439.5Q52 467 52 506V583Q52 621 65 649Q78 677 100 695.5Q122 714 151 723Q180 732 213 732Q246 732 275.5 723.5Q305 715 327.5 697Q350 679 363 651Q376 623 376 584V507Q376 469 362.5 441.5Q349 414 326.5 396.5Q304 379 274.5 370.5Q245 362 214 362ZM69 309H364V227H69Z" glyph-name="ordmasculine" horiz-adv-x="428" unicode="&#186;" /><glyph d="M955 1106Q1081 1077 1189.5 1018.5Q1298 960 1378 874.5Q1458 789 1504 679.5Q1550 570 1550 440Q1550 253 1499 115Q1448 -23 1349.5 -114Q1251 -205 1106 -250Q961 -295 773 -295Q670 -295 573 -278.5Q476 -262 390.5 -228.5Q305 -195 233.5 -144.5Q162 -94 110.5 -26Q59 42 30.5 128Q2 214 2 317Q2 490 47 622.5Q92 755 178.5 845Q265 935 391 981.5Q517 1028 679 1028Q711 1028 750.5 1026Q790 1024 830.5 1018.5Q871 1013 909 1001.5Q947 990 977 971Q1007 952 1025 924Q1043 896 1043 857Q1043 833 1035 810Q1027 787 1006 769Q985 751 949 740Q913 729 857 729H728L715 546H1101Q1136 546 1159 547Q1182 548 1195.5 552.5Q1209 557 1214 566Q1219 575 1219 591Q1219 603 1211 622Q1203 641 1195 652L1243 675Q1258 655 1266.5 635.5Q1275 616 1275 591Q1275 559 1262 539.5Q1249 520 1227 509.5Q1205 499 1176.5 496Q1148 493 1117 494L1089 495Q1043 496 1011.5 482Q980 468 960.5 445Q941 422 931.5 392.5Q922 363 919 333L914 276H1079L1065 227H909L885 -45H1006L1003 -91H754L757 -45L828 -41L851 227H767L774 276H855L857 299Q860 346 870.5 379.5Q881 413 895.5 436Q910 459 927 473Q944 487 962 495V497H711L696 282Q691 215 672.5 167Q654 119 625.5 88Q597 57 559.5 42.5Q522 28 479 28Q472 28 451.5 29Q431 30 405 35Q379 40 351.5 50.5Q324 61 303 80L334 128Q365 103 404 91Q443 79 477 79Q514 79 542.5 94Q571 109 591 135.5Q611 162 622.5 196.5Q634 231 637 270L653 497Q584 497 534 493.5Q484 490 450.5 472Q417 454 398 415.5Q379 377 372 307L321 310Q330 388 351 434Q372 480 410.5 505Q449 530 509 538Q569 546 657 546L670 729H548Q477 729 431 714Q385 699 356 672Q327 645 312 607Q297 569 288 524L239 533Q248 596 272.5 641.5Q297 687 334.5 717Q372 747 420.5 762Q469 777 526 777L871 779Q908 779 930.5 786Q953 793 965 804Q977 815 981 828.5Q985 842 985 855Q985 885 968 906Q951 927 924.5 941Q898 955 864 963Q830 971 796.5 974.5Q763 978 733 979Q703 980 683 980Q525 980 408 932.5Q291 885 213.5 799.5Q136 714 98 594.5Q60 475 60 330Q60 182 119.5 74.5Q179 -33 279 -103Q379 -173 509.5 -206.5Q640 -240 782 -240Q953 -240 1085 -198.5Q1217 -157 1307 -72.5Q1397 12 1443.5 139.5Q1490 267 1490 438Q1490 558 1451 657.5Q1412 757 1339.5 835Q1267 913 1163.5 969Q1060 1025 932 1057Z" glyph-name="orn001" horiz-adv-x="1552" /><glyph d="M44 348Q44 427 73 497Q102 567 152.5 619Q203 671 271 701Q339 731 416 731Q493 731 560.5 701Q628 671 678.5 619Q729 567 758.5 497Q788 427 788 348Q788 269 758.5 199.5Q729 130 678.5 78.5Q628 27 560.5 -3Q493 -33 416 -33Q339 -33 271 -3Q203 27 152.5 78.5Q102 130 73 199.5Q44 269 44 348ZM105 348Q105 414 129.5 472Q154 530 196 573.5Q238 617 294.5 642Q351 667 416 667Q480 667 536.5 642Q593 617 635.5 573.5Q678 530 702.5 472Q727 414 727 348Q727 282 702.5 224.5Q678 167 635.5 123.5Q593 80 536.5 55Q480 30 416 30Q351 30 294.5 55Q238 80 196 123.5Q154 167 129.5 224.5Q105 282 105 348ZM70 348Q70 275 97 211Q124 147 171 99Q218 51 281 23Q344 -5 416 -5Q487 -5 550 23Q613 51 660 99Q707 147 734 211Q761 275 761 348Q761 421 734 486Q707 551 660 599Q613 647 550 675Q487 703 416 703Q344 703 281 675Q218 647 171 599Q124 551 97 486Q70 421 70 348ZM618 248 444 350 618 450 604 474 429 375V575H401V375L225 474L213 450L385 349L213 248L225 223L401 323V123H429V323L604 223Z" glyph-name="orn002" horiz-adv-x="832" /><glyph d="M420 209 569 359 420 508 270 359ZM420 152 626 359 420 565 213 359ZM44 348Q44 427 73 497Q102 567 152.5 619Q203 671 271 701Q339 731 416 731Q493 731 560.5 701Q628 671 678.5 619Q729 567 758.5 497Q788 427 788 348Q788 269 758.5 199.5Q729 130 678.5 78.5Q628 27 560.5 -3Q493 -33 416 -33Q339 -33 271 -3Q203 27 152.5 78.5Q102 130 73 199.5Q44 269 44 348ZM105 348Q105 414 129.5 472Q154 530 196 573.5Q238 617 294.5 642Q351 667 416 667Q480 667 536.5 642Q593 617 635.5 573.5Q678 530 702.5 472Q727 414 727 348Q727 282 702.5 224.5Q678 167 635.5 123.5Q593 80 536.5 55Q480 30 416 30Q351 30 294.5 55Q238 80 196 123.5Q154 167 129.5 224.5Q105 282 105 348ZM70 348Q70 275 97 211Q124 147 171 99Q218 51 281 23Q344 -5 416 -5Q487 -5 550 23Q613 51 660 99Q707 147 734 211Q761 275 761 348Q761 421 734 486Q707 551 660 599Q613 647 550 675Q487 703 416 703Q344 703 281 675Q218 647 171 599Q124 551 97 486Q70 421 70 348Z" glyph-name="orn003" horiz-adv-x="832" /><glyph d="M283 102Q301 102 318.5 107.5Q336 113 349 124Q362 135 370 152.5Q378 170 378 194V323Q378 330 377 334L254 105Q267 102 283 102ZM185 192Q185 173 189 160L322 406Q301 414 280 414Q243 414 214 391.5Q185 369 185 320ZM283 -12Q239 -12 197 -1L157 -74L82 -38L121 33Q84 58 61.5 97.5Q39 137 39 194V309Q39 364 60 405Q81 446 115 473.5Q149 501 192 515Q235 529 279 529Q330 529 379 512L415 579L490 543L451 471Q484 444 504 404Q524 364 524 312V205Q524 150 502.5 109.5Q481 69 447 42Q413 15 369.5 1.5Q326 -12 283 -12Z" glyph-name="oslash" horiz-adv-x="563" unicode="&#248;" /><glyph d="M307 736H458L325 569H221ZM283 102Q301 102 318.5 107.5Q336 113 349 124Q362 135 370 152.5Q378 170 378 194V323Q378 330 377 334L254 105Q267 102 283 102ZM185 192Q185 173 189 160L322 406Q301 414 280 414Q243 414 214 391.5Q185 369 185 320ZM283 -12Q239 -12 197 -1L157 -74L82 -38L121 33Q84 58 61.5 97.5Q39 137 39 194V309Q39 364 60 405Q81 446 115 473.5Q149 501 192 515Q235 529 279 529Q330 529 379 512L415 579L490 543L451 471Q484 444 504 404Q524 364 524 312V205Q524 150 502.5 109.5Q481 69 447 42Q413 15 369.5 1.5Q326 -12 283 -12Z" glyph-name="oslashacute" horiz-adv-x="563" unicode="&#511;" /><glyph d="M71 584Q76 612 86.5 637Q97 662 113 680.5Q129 699 151 709.5Q173 720 200 720Q222 720 243 715Q264 710 284.5 704Q305 698 325.5 693Q346 688 368 688Q389 688 396.5 702.5Q404 717 409 735L492 716Q487 688 477.5 663Q468 638 453 619.5Q438 601 417 590.5Q396 580 369 580Q347 580 325.5 585Q304 590 283.5 596Q263 602 242.5 607Q222 612 201 612Q185 612 176.5 603Q168 594 157 565ZM283 102Q301 102 318.5 107.5Q336 113 349 124Q362 135 370 152.5Q378 170 378 194V323Q378 365 350 389.5Q322 414 280 414Q243 414 214 391.5Q185 369 185 320V192Q185 150 212 126Q239 102 283 102ZM283 -12Q236 -12 192 0Q148 12 114 37.5Q80 63 59.5 102Q39 141 39 194V309Q39 364 60 405Q81 446 115 473.5Q149 501 192 515Q235 529 279 529Q326 529 370 515Q414 501 448.5 473.5Q483 446 503.5 405.5Q524 365 524 312V205Q524 150 502.5 109.5Q481 69 447 42Q413 15 369.5 1.5Q326 -12 283 -12Z" glyph-name="otilde" horiz-adv-x="563" unicode="&#245;" /><glyph d="M306 100Q323 100 340.5 105Q358 110 371.5 121.5Q385 133 393.5 150.5Q402 168 402 193V322Q402 366 374 389.5Q346 413 304 413Q286 413 268.5 407.5Q251 402 237 390Q223 378 214 358.5Q205 339 205 312V192Q205 146 235 123Q265 100 306 100ZM61 519H201V458H203Q232 495 272 512.5Q312 530 349 530Q392 530 428.5 516.5Q465 503 491 477.5Q517 452 532 415Q547 378 547 331V189Q547 140 530 102.5Q513 65 484.5 39.5Q456 14 418 1Q380 -12 337 -12Q296 -12 261.5 5.5Q227 23 207 49H205V-191H61Z" glyph-name="p" horiz-adv-x="586" unicode="p" /><glyph d="M254 219Q203 223 167 245Q131 267 108.5 300.5Q86 334 75.5 376Q65 418 65 463Q65 510 79.5 555Q94 600 121 635Q148 670 185.5 691.5Q223 713 270 713H573V633H522V-116H432V633H343V-116H254Z" glyph-name="paragraph" horiz-adv-x="621" unicode="&#182;" /><glyph d="M216 -185Q181 -146 154.5 -89Q128 -32 110 30.5Q92 93 83 156Q74 219 74 272Q74 324 82 382Q90 440 107 498.5Q124 557 150.5 612.5Q177 668 215 713H294Q267 653 248 601Q229 549 217.5 497.5Q206 446 201 391Q196 336 196 272Q196 156 220 39.5Q244 -77 294 -185Z" glyph-name="parenleft" horiz-adv-x="319" unicode="(" /><glyph d="M145 -76Q125 -54 108.5 -24.5Q92 5 80 38Q68 71 61 107.5Q54 144 54 181Q54 251 78.5 316.5Q103 382 145 430H197Q183 396 173 366.5Q163 337 157 307.5Q151 278 148 247.5Q145 217 145 181Q145 116 158 51Q171 -14 197 -76Z" glyph-name="parenleft.dnom" horiz-adv-x="212" /><glyph d="M145 240Q125 262 108.5 291.5Q92 321 80 354Q68 387 61 423.5Q54 460 54 497Q54 567 78.5 632.5Q103 698 145 746H197Q183 712 173 682.5Q163 653 157 623.5Q151 594 148 563.5Q145 533 145 497Q145 432 158 367Q171 302 197 240Z" glyph-name="parenleft.numr" horiz-adv-x="212" /><glyph d="M25 -185Q75 -76 99 40Q123 156 123 272Q123 336 118 391Q113 446 101.5 497.5Q90 549 71.5 601Q53 653 25 713H104Q141 668 168 612.5Q195 557 212 498.5Q229 440 237 382Q245 324 245 272Q245 219 236 156Q227 93 209 30.5Q191 -32 164.5 -88.5Q138 -145 103 -185Z" glyph-name="parenright" horiz-adv-x="319" unicode=")" /><glyph d="M15 -76Q42 -14 54.5 51Q67 116 67 181Q67 217 64 247.5Q61 278 55 307.5Q49 337 39 366.5Q29 396 15 430H68Q110 382 134 316.5Q158 251 158 181Q158 144 151 107.5Q144 71 132 38Q120 5 103.5 -24.5Q87 -54 68 -76Z" glyph-name="parenright.dnom" horiz-adv-x="212" /><glyph d="M15 240Q42 302 54.5 367Q67 432 67 497Q67 533 64 563.5Q61 594 55 623.5Q49 653 39 682.5Q29 712 15 746H68Q110 698 134 632.5Q158 567 158 497Q158 460 151 423.5Q144 387 132 354Q120 321 103.5 291.5Q87 262 68 240Z" glyph-name="parenright.numr" horiz-adv-x="212" /><glyph d="M279 101Q322 101 348 126.5Q374 152 374 199V315Q374 358 349 385Q324 412 279 412Q235 412 210.5 386Q186 360 186 312V198Q186 154 209 127.5Q232 101 279 101ZM279 -12Q232 -12 188.5 0Q145 12 112 37Q79 62 59 101.5Q39 141 39 197V303Q39 346 52.5 381.5Q66 417 90.5 444Q115 471 149 489Q183 507 223 515Q241 519 261 521L133 713H297L488 423Q503 400 512 369Q521 338 521 303V203Q521 147 500 106.5Q479 66 444.5 40Q410 14 367 1Q324 -12 279 -12Z" glyph-name="partialdiff" horiz-adv-x="560" unicode="&#8706;" /><glyph d="M606 713H693L217 0H129ZM621 67Q649 67 661 81.5Q673 96 673 116V261Q673 280 660.5 294Q648 308 622 308Q595 308 582.5 294.5Q570 281 570 261V114Q570 94 581.5 80.5Q593 67 621 67ZM621 -11Q593 -11 566.5 -4Q540 3 519 18Q498 33 485 57Q472 81 472 115V256Q472 290 484.5 314.5Q497 339 518 354.5Q539 370 566 377Q593 384 621 384Q649 384 676 377Q703 370 724.5 354.5Q746 339 759 314.5Q772 290 772 255V115Q772 82 758.5 58Q745 34 723.5 19Q702 4 675 -3.5Q648 -11 621 -11ZM192 408Q220 408 232 422.5Q244 437 244 456V602Q244 622 231.5 635.5Q219 649 192 649Q165 649 153 635.5Q141 622 141 602V456Q141 435 152.5 421.5Q164 408 192 408ZM192 331Q164 331 137.5 337.5Q111 344 90 359Q69 374 56 398Q43 422 43 456V597Q43 631 55.5 655.5Q68 680 89 695.5Q110 711 136.5 718Q163 725 191 725Q219 725 246 718Q273 711 294.5 695.5Q316 680 329 655Q342 630 342 595V456Q342 423 328.5 399.5Q315 376 294 360.5Q273 345 246 338Q219 331 192 331Z" glyph-name="percent" horiz-adv-x="815" unicode="%" /><glyph d="M61 160H211V0H61Z" glyph-name="period" horiz-adv-x="272" unicode="." /><glyph d="M44 104H146V0H44Z" glyph-name="period.dnom" horiz-adv-x="190" /><glyph d="M44 420H146V316H44Z" glyph-name="period.numr" horiz-adv-x="190" /><glyph d="M44 -29H146V-133H44Z" glyph-name="period.subs" horiz-adv-x="190" /><glyph d="M44 484H146V380H44Z" glyph-name="period.sups" horiz-adv-x="190" /><glyph d="M61 442H211V282H61Z" glyph-name="periodcentered" horiz-adv-x="272" unicode="&#183;" /><glyph d="M606 717H693L217 0H129ZM621 67Q649 67 661 81.5Q673 96 673 116V261Q673 280 660.5 294Q648 308 622 308Q595 308 582.5 294.5Q570 281 570 261V114Q570 94 581.5 80.5Q593 67 621 67ZM621 -11Q593 -11 566.5 -4Q540 3 519 18Q498 33 485 57Q472 81 472 115V256Q472 290 484.5 314.5Q497 339 518 354.5Q539 370 566 377Q593 384 621 384Q649 384 676 377Q703 370 724.5 354.5Q746 339 759 314.5Q772 290 772 255V115Q772 82 758.5 58Q745 34 723.5 19Q702 4 675 -3.5Q648 -11 621 -11ZM192 408Q220 408 232 422.5Q244 437 244 456V602Q244 622 231.5 635.5Q219 649 192 649Q165 649 153 635.5Q141 622 141 602V456Q141 435 152.5 421.5Q164 408 192 408ZM192 331Q164 331 137.5 337.5Q111 344 90 359Q69 374 56 398Q43 422 43 456V597Q43 631 55.5 655.5Q68 680 89 695.5Q110 711 136.5 718Q163 725 191 725Q219 725 246 718Q273 711 294.5 695.5Q316 680 329 655Q342 630 342 595V456Q342 423 328.5 399.5Q315 376 294 360.5Q273 345 246 338Q219 331 192 331ZM974 67Q1002 67 1014.5 81.5Q1027 96 1027 116V261Q1027 280 1014.5 294Q1002 308 975 308Q948 308 935.5 294.5Q923 281 923 261V114Q923 94 934.5 80.5Q946 67 974 67ZM975 -11Q947 -11 920 -4Q893 3 872 18Q851 33 838 57Q825 81 825 115V256Q825 290 838 314.5Q851 339 872 354.5Q893 370 920 377Q947 384 975 384Q1003 384 1030 377Q1057 370 1078 354.5Q1099 339 1112 314.5Q1125 290 1125 255V115Q1125 82 1111.5 58Q1098 34 1077 19Q1056 4 1029 -3.5Q1002 -11 975 -11Z" glyph-name="perthousand" horiz-adv-x="1168" unicode="&#8240;" /><glyph d="M518 -7Q458 -7 424 27Q390 61 390 122V388H263Q261 332 258.5 285.5Q256 239 252.5 194Q249 149 245 102Q241 55 235 0H89Q95 55 100 102Q105 149 108.5 194Q112 239 115 285.5Q118 332 120 388H26L44 519H615V388H533V173Q533 150 541 134.5Q549 119 577 119Q587 119 598.5 120Q610 121 619 123L620 8Q601 2 577 -2.5Q553 -7 518 -7Z" glyph-name="pi" horiz-adv-x="646" unicode="&#960;" /><glyph d="M249 272H31V362H249V581H341V362H558V272H341V54H249Z" glyph-name="plus" horiz-adv-x="590" unicode="+" /><glyph d="M127 147H16V212H127V324H193V212H303V147H193V35H127Z" glyph-name="plus.dnom" horiz-adv-x="320" /><glyph d="M127 463H16V528H127V640H193V528H303V463H193V351H127Z" glyph-name="plus.numr" horiz-adv-x="320" /><glyph d="M249 361H31V451H249V659H341V451H558V361H341V154H249ZM37 91H552V0H37Z" glyph-name="plusminus" horiz-adv-x="590" unicode="&#177;" /><glyph d="M144 577H41V713H738V577H636V-133H485V577H294V-133H144Z" glyph-name="product" horiz-adv-x="779" unicode="&#8719;" /><glyph d="M283 105Q300 105 317.5 110Q335 115 349.5 126Q364 137 373 155.5Q382 174 382 200V326Q382 348 373.5 365.5Q365 383 351 394Q337 405 318.5 411Q300 417 280 417Q263 417 245.5 412Q228 407 214.5 395.5Q201 384 192.5 366Q184 348 184 322V197Q184 152 212.5 128.5Q241 105 283 105ZM384 59H383Q371 43 353.5 30Q336 17 316.5 7.5Q297 -2 276.5 -7Q256 -12 238 -12Q195 -12 158.5 1Q122 14 95.5 39.5Q69 65 54 102Q39 139 39 186V327Q39 376 55.5 414Q72 452 100.5 478Q129 504 167 517Q205 530 248 530Q289 530 324 512Q359 494 381 467H384V519H525V-191H384Z" glyph-name="q" horiz-adv-x="586" unicode="q" /><glyph d="M184 160H333V0H184ZM195 252Q195 293 209 320Q223 347 251 374Q267 390 287 405.5Q307 421 324.5 438Q342 455 353.5 475Q365 495 365 519Q365 556 341 581.5Q317 607 278 607Q261 607 243.5 603Q226 599 211.5 589.5Q197 580 188 565.5Q179 551 179 530V494L48 493V534Q48 583 68.5 618.5Q89 654 122 677Q155 700 197.5 711.5Q240 723 285 723Q391 723 449 671Q507 619 507 528Q507 497 499.5 472.5Q492 448 480 428Q468 408 452 391.5Q436 375 418 362Q404 350 388 339Q372 328 358 315Q344 302 334.5 287Q325 272 325 252V211H195Z" glyph-name="question" horiz-adv-x="546" unicode="?" /><glyph d="M220 522H370V362H220ZM267 -202Q161 -202 103.5 -149.5Q46 -97 46 -5Q46 29 57 56.5Q68 84 86 107.5Q104 131 126.5 151Q149 171 173 191Q193 208 210.5 226Q228 244 228 270V311H358V270Q358 229 344 202Q330 175 302 148Q286 133 266.5 117.5Q247 102 229.5 85Q212 68 200.5 48Q189 28 189 3Q189 -35 213 -59.5Q237 -84 276 -84Q292 -84 309.5 -80Q327 -76 341.5 -67Q356 -58 365 -43.5Q374 -29 374 -8V29H505V-12Q505 -61 485 -96.5Q465 -132 431.5 -155.5Q398 -179 355 -190.5Q312 -202 267 -202Z" glyph-name="questiondown" horiz-adv-x="546" unicode="&#191;" /><glyph d="M220 713H370V553H220ZM267 -11Q161 -11 103.5 41.5Q46 94 46 186Q46 220 57 247.5Q68 275 86 298.5Q104 322 126.5 342Q149 362 173 382Q193 399 210.5 417Q228 435 228 461V502H358V461Q358 420 344 393Q330 366 302 339Q286 324 266.5 308.5Q247 293 229.5 276Q212 259 200.5 239Q189 219 189 194Q189 156 213 131.5Q237 107 276 107Q292 107 309.5 111Q327 115 341.5 124Q356 133 365 147.5Q374 162 374 183V220H505V179Q505 130 485 94.5Q465 59 431.5 35.5Q398 12 355 0.5Q312 -11 267 -11Z" glyph-name="questiondown.case" horiz-adv-x="546" /><glyph d="M260 587V713H385V587L365 430H281ZM69 587V713H194V587L174 430H90Z" glyph-name="quotedbl" horiz-adv-x="454" unicode="&quot;" /><glyph d="M323 2H272V159H422V8L363 -140H291ZM114 2H64V159H213V8L155 -140H83Z" glyph-name="quotedblbase" horiz-adv-x="486" unicode="&#8222;" /><glyph d="M272 569 331 717H404L372 576H422V418H272ZM64 569 123 717H195L164 576H214V418H64Z" glyph-name="quotedblleft" horiz-adv-x="486" unicode="&#8220;" /><glyph d="M323 559H272V717H422V566L363 418H291ZM114 559H64V717H213V566L155 418H83Z" glyph-name="quotedblright" horiz-adv-x="486" unicode="&#8221;" /><glyph d="M64 569 123 717H195L164 576H214V418H64Z" glyph-name="quoteleft" horiz-adv-x="278" unicode="&#8216;" /><glyph d="M114 559H64V717H213V566L155 418H83Z" glyph-name="quoteright" horiz-adv-x="277" unicode="&#8217;" /><glyph d="M114 2H64V159H213V8L155 -140H83Z" glyph-name="quotesinglbase" horiz-adv-x="277" unicode="&#8218;" /><glyph d="M69 587V713H194V587L174 430H90Z" glyph-name="quotesingle" horiz-adv-x="263" unicode="&apos;" /><glyph d="M57 519H197V433H199Q210 452 228 469.5Q246 487 268 500Q290 513 314 520.5Q338 528 362 528Q373 528 385 527.5Q397 527 408 525V398Q393 400 377.5 401Q362 402 350 402Q320 402 293 394Q266 386 245 369.5Q224 353 212 328Q200 303 200 268V0H57Z" glyph-name="r" horiz-adv-x="423" unicode="r" /><glyph d="M261 736H412L279 569H175ZM57 519H197V433H199Q210 452 228 469.5Q246 487 268 500Q290 513 314 520.5Q338 528 362 528Q373 528 385 527.5Q397 527 408 525V398Q393 400 377.5 401Q362 402 350 402Q320 402 293 394Q266 386 245 369.5Q224 353 212 328Q200 303 200 268V0H57Z" glyph-name="racute" horiz-adv-x="423" unicode="&#341;" /><glyph d="M25 388H176L256 68H258L450 713H588L309 -136H183Z" glyph-name="radical" horiz-adv-x="591" unicode="&#8730;" /><glyph d="M57 736H182L230 652L285 736H407L290 570H169ZM57 519H197V433H199Q210 452 228 469.5Q246 487 268 500Q290 513 314 520.5Q338 528 362 528Q373 528 385 527.5Q397 527 408 525V398Q393 400 377.5 401Q362 402 350 402Q320 402 293 394Q266 386 245 369.5Q224 353 212 328Q200 303 200 268V0H57Z" glyph-name="rcaron" horiz-adv-x="423" unicode="&#345;" /><glyph d="M59 -33H201L161 -195H47ZM57 519H197V433H199Q210 452 228 469.5Q246 487 268 500Q290 513 314 520.5Q338 528 362 528Q373 528 385 527.5Q397 527 408 525V398Q393 400 377.5 401Q362 402 350 402Q320 402 293 394Q266 386 245 369.5Q224 353 212 328Q200 303 200 268V0H57Z" glyph-name="rcommaaccent" horiz-adv-x="423" unicode="&#343;" /><glyph d="M259 538Q274 538 282.5 546Q291 554 291 567Q291 582 282 589.5Q273 597 259 597H224V538ZM162 646H267Q305 646 329 626.5Q353 607 353 572Q353 549 342 530.5Q331 512 309 502L361 410H293L249 493H224V410H162ZM250 351Q281 351 310.5 363Q340 375 363 397Q386 419 399.5 450.5Q413 482 413 522Q413 562 400 594.5Q387 627 364.5 649.5Q342 672 312.5 684Q283 696 250 696Q217 696 187.5 684Q158 672 136 649.5Q114 627 101.5 594.5Q89 562 89 522Q89 482 102 450.5Q115 419 137.5 397Q160 375 189 363Q218 351 250 351ZM250 305Q199 305 159 322.5Q119 340 91.5 369.5Q64 399 49 438.5Q34 478 34 522Q34 567 50 606.5Q66 646 94.5 675.5Q123 705 163 722Q203 739 250 739Q299 739 339.5 722Q380 705 408.5 675.5Q437 646 452.5 606.5Q468 567 468 522Q468 478 452 438.5Q436 399 407.5 369.5Q379 340 339 322.5Q299 305 250 305Z" glyph-name="registered" horiz-adv-x="501" unicode="&#174;" /><glyph d="M281 612Q301 612 315 625.5Q329 639 329 659Q329 679 316.5 693.5Q304 708 281 708Q259 708 246.5 693.5Q234 679 234 659Q234 639 247.5 625.5Q261 612 281 612ZM281 559Q231 559 201 586.5Q171 614 171 657Q171 679 179.5 697.5Q188 716 203 730Q218 744 238 752Q258 760 281 760Q329 760 360 734Q391 708 391 663Q391 641 382 622Q373 603 358 589Q343 575 323 567Q303 559 281 559Z" glyph-name="ring" horiz-adv-x="563" unicode="&#730;" /><glyph d="M266 -11Q195 -11 134.5 7.5Q74 26 29 79L115 160Q141 131 179 113.5Q217 96 260 96Q276 96 292.5 98.5Q309 101 322.5 107.5Q336 114 344 124Q352 134 352 149Q352 175 332.5 185Q313 195 270 203Q247 207 229 211Q211 215 184 221Q121 235 86.5 267Q52 299 52 356Q52 396 68.5 428Q85 460 113.5 482.5Q142 505 181 517.5Q220 530 265 530Q337 530 386.5 512.5Q436 495 474 453L383 378Q336 426 265 426Q230 426 209.5 414Q189 402 189 377Q189 365 196 357.5Q203 350 215 345Q227 340 242.5 337Q258 334 275 331L359 314Q427 300 463.5 262Q500 224 500 167Q500 121 478.5 87.5Q457 54 423 32Q389 10 347.5 -0.5Q306 -11 266 -11Z" glyph-name="s" horiz-adv-x="532" unicode="s" /><glyph d="M293 736H444L311 569H207ZM266 -11Q195 -11 134.5 7.5Q74 26 29 79L115 160Q141 131 179 113.5Q217 96 260 96Q276 96 292.5 98.5Q309 101 322.5 107.5Q336 114 344 124Q352 134 352 149Q352 175 332.5 185Q313 195 270 203Q247 207 229 211Q211 215 184 221Q121 235 86.5 267Q52 299 52 356Q52 396 68.5 428Q85 460 113.5 482.5Q142 505 181 517.5Q220 530 265 530Q337 530 386.5 512.5Q436 495 474 453L383 378Q336 426 265 426Q230 426 209.5 414Q189 402 189 377Q189 365 196 357.5Q203 350 215 345Q227 340 242.5 337Q258 334 275 331L359 314Q427 300 463.5 262Q500 224 500 167Q500 121 478.5 87.5Q457 54 423 32Q389 10 347.5 -0.5Q306 -11 266 -11Z" glyph-name="sacute" horiz-adv-x="532" unicode="&#347;" /><glyph d="M89 736H214L262 652L317 736H439L322 570H201ZM266 -11Q195 -11 134.5 7.5Q74 26 29 79L115 160Q141 131 179 113.5Q217 96 260 96Q276 96 292.5 98.5Q309 101 322.5 107.5Q336 114 344 124Q352 134 352 149Q352 175 332.5 185Q313 195 270 203Q247 207 229 211Q211 215 184 221Q121 235 86.5 267Q52 299 52 356Q52 396 68.5 428Q85 460 113.5 482.5Q142 505 181 517.5Q220 530 265 530Q337 530 386.5 512.5Q436 495 474 453L383 378Q336 426 265 426Q230 426 209.5 414Q189 402 189 377Q189 365 196 357.5Q203 350 215 345Q227 340 242.5 337Q258 334 275 331L359 314Q427 300 463.5 262Q500 224 500 167Q500 121 478.5 87.5Q457 54 423 32Q389 10 347.5 -0.5Q306 -11 266 -11Z" glyph-name="scaron" horiz-adv-x="532" unicode="&#353;" /><glyph d="M279 -213Q228 -213 175 -196V-132Q201 -140 225 -145Q249 -150 268 -150Q296 -150 308 -142.5Q320 -135 320 -118Q320 -105 307.5 -101Q295 -97 273 -95L223 -92L239 -10Q176 -8 123 11.5Q70 31 29 79L115 160Q141 131 179 113.5Q217 96 260 96Q276 96 292.5 98.5Q309 101 322.5 107.5Q336 114 344 124Q352 134 352 149Q352 175 332 185Q312 195 270 203Q270 203 261 205Q252 207 239.5 209.5Q227 212 213.5 215Q200 218 190 220Q121 236 86.5 267Q52 298 52 356Q52 396 68.5 428Q85 460 113.5 482.5Q142 505 181 517.5Q220 530 265 530Q337 530 386.5 512.5Q436 495 474 453L383 378Q336 426 265 426Q230 426 209.5 414Q189 402 189 377Q189 365 196 357.5Q203 350 215 345Q227 340 242.5 337Q258 334 275 331L359 314Q427 300 463.5 262Q500 224 500 167Q500 126 482.5 95Q465 64 437 42Q409 20 373.5 7.5Q338 -5 302 -9L296 -38Q319 -38 342.5 -41.5Q366 -45 384.5 -54Q403 -63 414.5 -78.5Q426 -94 426 -118Q426 -160 385.5 -186.5Q345 -213 279 -213Z" glyph-name="scedilla" horiz-adv-x="532" unicode="&#351;" /><glyph d="M206 738H328L439 570H316L266 656L211 570H90ZM266 -11Q195 -11 134.5 7.5Q74 26 29 79L115 160Q141 131 179 113.5Q217 96 260 96Q276 96 292.5 98.5Q309 101 322.5 107.5Q336 114 344 124Q352 134 352 149Q352 175 332.5 185Q313 195 270 203Q247 207 229 211Q211 215 184 221Q121 235 86.5 267Q52 299 52 356Q52 396 68.5 428Q85 460 113.5 482.5Q142 505 181 517.5Q220 530 265 530Q337 530 386.5 512.5Q436 495 474 453L383 378Q336 426 265 426Q230 426 209.5 414Q189 402 189 377Q189 365 196 357.5Q203 350 215 345Q227 340 242.5 337Q258 334 275 331L359 314Q427 300 463.5 262Q500 224 500 167Q500 121 478.5 87.5Q457 54 423 32Q389 10 347.5 -0.5Q306 -11 266 -11Z" glyph-name="scircumflex" horiz-adv-x="532" unicode="&#349;" /><glyph d="M201 -33H343L303 -195H189ZM266 -11Q195 -11 134.5 7.5Q74 26 29 79L115 160Q141 131 179 113.5Q217 96 260 96Q276 96 292.5 98.5Q309 101 322.5 107.5Q336 114 344 124Q352 134 352 149Q352 175 332.5 185Q313 195 270 203Q247 207 229 211Q211 215 184 221Q121 235 86.5 267Q52 299 52 356Q52 396 68.5 428Q85 460 113.5 482.5Q142 505 181 517.5Q220 530 265 530Q337 530 386.5 512.5Q436 495 474 453L383 378Q336 426 265 426Q230 426 209.5 414Q189 402 189 377Q189 365 196 357.5Q203 350 215 345Q227 340 242.5 337Q258 334 275 331L359 314Q427 300 463.5 262Q500 224 500 167Q500 121 478.5 87.5Q457 54 423 32Q389 10 347.5 -0.5Q306 -11 266 -11Z" glyph-name="scommaaccent" horiz-adv-x="532" unicode="&#537;" /><glyph d="M334 225Q359 234 370.5 252.5Q382 271 382 288Q382 310 366.5 322Q351 334 324 343L226 373Q201 364 190 347Q179 330 179 310Q179 287 201.5 271Q224 255 253 246ZM266 -140Q230 -140 191 -132Q152 -124 120.5 -105Q89 -86 68.5 -53.5Q48 -21 48 27V69H165V45Q165 10 191 -13.5Q217 -37 273 -37Q330 -37 355.5 -13.5Q381 10 381 37Q381 68 360 82Q339 96 310 104L204 135Q174 144 147.5 158Q121 172 101 191Q81 210 69.5 235.5Q58 261 58 294Q58 334 75 367Q92 400 126 423Q93 444 75.5 473.5Q58 503 58 547Q58 625 115 674Q172 723 277 723Q325 723 364.5 712Q404 701 432.5 680Q461 659 476.5 627Q492 595 492 553V516H378V547Q378 577 352 598.5Q326 620 272 620Q228 620 203 603.5Q178 587 178 557Q178 545 185 535.5Q192 526 203 519Q214 512 227.5 507Q241 502 254 498L360 460Q386 451 411 439.5Q436 428 456 410.5Q476 393 488.5 368Q501 343 501 308Q501 267 485 233.5Q469 200 436 176Q471 155 487 125Q503 95 503 50Q503 10 487 -24.5Q471 -59 440.5 -84.5Q410 -110 366 -125Q322 -140 266 -140Z" glyph-name="section" horiz-adv-x="549" unicode="&#167;" /><glyph d="M61 519H211V359H61ZM111 2H61V159H211V8L152 -140H80Z" glyph-name="semicolon" horiz-adv-x="272" unicode=";" /><glyph d="M118 0Q120 85 143 170Q166 255 201.5 331.5Q237 408 280.5 473Q324 538 366 583H48V713H536V603Q503 569 459.5 513.5Q416 458 376 382Q336 306 308 210Q280 114 279 0Z" glyph-name="seven" horiz-adv-x="576" unicode="7" /><glyph d="M86 0Q87 43 99.5 87Q112 131 131 171.5Q150 212 174 248Q198 284 222 310H45V398H337V322Q317 302 293 270.5Q269 239 248.5 198.5Q228 158 214 108Q200 58 200 0Z" glyph-name="seven.dnom" horiz-adv-x="383" /><glyph d="M86 316Q87 359 99.5 403Q112 447 131 487.5Q150 528 174 564Q198 600 222 626H45V714H337V638Q317 618 293 586.5Q269 555 248.5 514.5Q228 474 214 424Q200 374 200 316Z" glyph-name="seven.numr" horiz-adv-x="383" /><glyph d="M118 -177Q120 -92 143 -7Q166 78 201.5 154.5Q237 231 280.5 296Q324 361 366 406H48V536H536V426Q503 392 459.5 336.5Q416 281 376 205Q336 129 308 33Q280 -63 279 -177Z" glyph-name="seven.osf" horiz-adv-x="576" /><glyph d="M121 0Q123 85 146 170Q169 255 204.5 331.5Q240 408 283.5 473Q327 538 369 583H51V713H539V603Q506 569 462.5 513.5Q419 458 379 382Q339 306 311 210Q283 114 282 0Z" glyph-name="seven.tf" horiz-adv-x="590" /><glyph d="M121 -177Q123 -92 146 -7Q169 78 204.5 154.5Q240 231 283.5 296Q327 361 369 406H51V536H539V426Q506 392 462.5 336.5Q419 281 379 205Q339 129 311 33Q283 -63 282 -177Z" glyph-name="seven.tosf" horiz-adv-x="590" /><glyph d="M563 713H652L260 0H171ZM102 316Q103 359 115.5 403Q128 447 147 487.5Q166 528 190 564Q214 600 238 626H61V714H353V638Q333 618 309 586.5Q285 555 264.5 514.5Q244 474 230 424Q216 374 216 316ZM661 230Q680 230 692.5 239.5Q705 249 705 268V287Q705 308 691 316.5Q677 325 660 325Q643 325 629.5 316.5Q616 308 616 291V267Q616 248 629 239Q642 230 661 230ZM660 63Q680 63 692.5 72.5Q705 82 705 102V121Q705 143 691 151Q677 159 660 159Q643 159 629 151Q615 143 615 125V101Q615 83 628 73Q641 63 660 63ZM660 -12Q628 -12 600 -6Q572 0 552 13.5Q532 27 520.5 47.5Q509 68 509 98V118Q509 145 523 165.5Q537 186 558 197Q538 205 526.5 225.5Q515 246 515 267V288Q515 316 526.5 337Q538 358 558 372Q578 386 604.5 393.5Q631 401 660 401Q689 401 715.5 394.5Q742 388 762 374.5Q782 361 794 340.5Q806 320 806 292V265Q806 242 793.5 224Q781 206 764 197Q784 189 798 167.5Q812 146 812 122V96Q812 70 800 50Q788 30 767.5 16Q747 2 719 -5Q691 -12 660 -12Z" glyph-name="seveneighths" horiz-adv-x="866" unicode="&#8542;" /><glyph d="M300 107Q350 107 374.5 132Q399 157 399 192V270Q399 293 390 308Q381 323 367 332Q353 341 336 344.5Q319 348 303 348Q286 348 268 341.5Q250 335 235.5 322.5Q221 310 211.5 290.5Q202 271 202 245V200Q202 162 226.5 134.5Q251 107 300 107ZM294 -12Q243 -12 198 2.5Q153 17 119 44.5Q85 72 65.5 111.5Q46 151 46 201V508Q46 559 66.5 599.5Q87 640 122 668Q157 696 203.5 710.5Q250 725 302 725Q411 725 474.5 676.5Q538 628 538 541V513H394V528Q394 567 368 586.5Q342 606 300 606Q252 606 227 579.5Q202 553 202 511V396Q232 424 274 441Q316 458 365 458Q406 458 440 446.5Q474 435 498 414Q522 393 535 363.5Q548 334 548 298V188Q548 138 527.5 101Q507 64 472.5 38.5Q438 13 392 0.5Q346 -12 294 -12Z" glyph-name="six" horiz-adv-x="594" unicode="6" /><glyph d="M192 69Q215 69 227 80Q239 91 239 106V145Q239 167 223.5 174.5Q208 182 194 182Q179 182 163.5 171Q148 160 148 134V110Q148 93 159.5 81Q171 69 192 69ZM190 -12Q160 -12 133 -4Q106 4 85 19.5Q64 35 51.5 57.5Q39 80 39 109V279Q39 309 52 331.5Q65 354 86.5 369.5Q108 385 136 393Q164 401 194 401Q260 401 298.5 373Q337 345 337 294V275H235V285Q235 303 223.5 312Q212 321 193 321Q171 321 159.5 309Q148 297 148 279V220Q184 250 238 250Q288 250 315.5 224.5Q343 199 343 159V103Q343 75 330.5 53.5Q318 32 297 17.5Q276 3 248 -4.5Q220 -12 190 -12Z" glyph-name="six.dnom" horiz-adv-x="383" /><glyph d="M192 385Q215 385 227 396Q239 407 239 422V461Q239 483 223.5 490.5Q208 498 194 498Q179 498 163.5 487Q148 476 148 450V426Q148 409 159.5 397Q171 385 192 385ZM190 304Q160 304 133 312Q106 320 85 335.5Q64 351 51.5 373.5Q39 396 39 425V595Q39 625 52 647.5Q65 670 86.5 685.5Q108 701 136 709Q164 717 194 717Q260 717 298.5 689Q337 661 337 610V591H235V601Q235 619 223.5 628Q212 637 193 637Q171 637 159.5 625Q148 613 148 595V536Q184 566 238 566Q288 566 315.5 540.5Q343 515 343 475V419Q343 391 330.5 369.5Q318 348 297 333.5Q276 319 248 311.5Q220 304 190 304Z" glyph-name="six.numr" horiz-adv-x="383" /><glyph d="M300 107Q350 107 374.5 132Q399 157 399 192V270Q399 293 390 308Q381 323 367 332Q353 341 336 344.5Q319 348 303 348Q286 348 268 341.5Q250 335 235.5 322.5Q221 310 211.5 290.5Q202 271 202 245V200Q202 162 226.5 134.5Q251 107 300 107ZM294 -12Q243 -12 198 2.5Q153 17 119 44.5Q85 72 65.5 111.5Q46 151 46 201V508Q46 559 66.5 599.5Q87 640 122 668Q157 696 203.5 710.5Q250 725 302 725Q411 725 474.5 676.5Q538 628 538 541V513H394V528Q394 567 368 586.5Q342 606 300 606Q252 606 227 579.5Q202 553 202 511V396Q232 424 274 441Q316 458 365 458Q406 458 440 446.5Q474 435 498 414Q522 393 535 363.5Q548 334 548 298V188Q548 138 527.5 101Q507 64 472.5 38.5Q438 13 392 0.5Q346 -12 294 -12Z" glyph-name="six.osf" horiz-adv-x="594" /><glyph d="M298 107Q348 107 372.5 132Q397 157 397 192V270Q397 293 388 308Q379 323 365 332Q351 341 334 344.5Q317 348 301 348Q284 348 266 341.5Q248 335 233.5 322.5Q219 310 209.5 290.5Q200 271 200 245V200Q200 162 224.5 134.5Q249 107 298 107ZM292 -12Q241 -12 196 2.5Q151 17 117 44.5Q83 72 63.5 111.5Q44 151 44 201V508Q44 559 64.5 599.5Q85 640 120 668Q155 696 201.5 710.5Q248 725 300 725Q409 725 472.5 676.5Q536 628 536 541V513H392V528Q392 567 366 586.5Q340 606 298 606Q250 606 225 579.5Q200 553 200 511V396Q230 424 272 441Q314 458 363 458Q404 458 438 446.5Q472 435 496 414Q520 393 533 363.5Q546 334 546 298V188Q546 138 525.5 101Q505 64 470.5 38.5Q436 13 390 0.5Q344 -12 292 -12Z" glyph-name="six.tf" horiz-adv-x="590" /><glyph d="M298 107Q348 107 372.5 132Q397 157 397 192V270Q397 293 388 308Q379 323 365 332Q351 341 334 344.5Q317 348 301 348Q284 348 266 341.5Q248 335 233.5 322.5Q219 310 209.5 290.5Q200 271 200 245V200Q200 162 224.5 134.5Q249 107 298 107ZM292 -12Q241 -12 196 2.5Q151 17 117 44.5Q83 72 63.5 111.5Q44 151 44 201V508Q44 559 64.5 599.5Q85 640 120 668Q155 696 201.5 710.5Q248 725 300 725Q409 725 472.5 676.5Q536 628 536 541V513H392V528Q392 567 366 586.5Q340 606 298 606Q250 606 225 579.5Q200 553 200 511V396Q230 424 272 441Q314 458 363 458Q404 458 438 446.5Q472 435 496 414Q520 393 533 363.5Q546 334 546 298V188Q546 138 525.5 101Q505 64 470.5 38.5Q436 13 390 0.5Q344 -12 292 -12Z" glyph-name="six.tosf" horiz-adv-x="590" /><glyph d="M238 718H342L75 -178H-31Z" glyph-name="slash" horiz-adv-x="354" unicode="/" /><glyph glyph-name="space" horiz-adv-x="230" unicode=" " /><glyph d="M48 119H129V293H64V399H129V520Q129 578 149.5 617Q170 656 202.5 680Q235 704 275.5 714.5Q316 725 357 725Q399 725 437 713Q475 701 503.5 677Q532 653 549 617.5Q566 582 566 535V497H428V530Q428 563 406.5 585Q385 607 348 607Q315 607 294 585Q273 563 273 530V399H459V293H273V119H581L554 0H48Z" glyph-name="sterling" horiz-adv-x="612" unicode="&#163;" /><glyph d="M43 119H121V293H58V399H121V520Q121 578 140 617Q159 656 189.5 680Q220 704 259 714.5Q298 725 337 725Q378 725 413.5 713Q449 701 475 677Q501 653 516 617.5Q531 582 531 535V497H398V530Q398 563 380.5 585Q363 607 328 607Q295 607 279 585Q263 563 263 530V399H428V293H263V119H546L520 0H43Z" glyph-name="sterling.tf" horiz-adv-x="590" /><glyph d="M46 -22 312 302 42 602V713H562V584H246L484 323V290L241 -4H563V-133H46Z" glyph-name="summation" horiz-adv-x="609" unicode="&#8721;" /><glyph d="M235 -9Q205 -9 177.5 -2Q150 5 129.5 21.5Q109 38 96.5 64Q84 90 84 128V407H16V516H84V668H227V516H338V407H227V163Q227 116 274 116Q292 116 306 117Q320 118 337 121V4Q313 -3 283.5 -6Q254 -9 235 -9Z" glyph-name="t" horiz-adv-x="357" unicode="t" /><glyph d="M33 318H84V407H16V516H84V668H227V516H338V407H227V318H296V217H227V163Q227 116 274 116Q292 116 306 117Q320 118 337 121V4Q313 -3 283.5 -6Q254 -9 235 -9Q205 -9 177.5 -2Q150 5 129.5 21.5Q109 38 96.5 64Q84 90 84 128V217H33Z" glyph-name="tbar" horiz-adv-x="357" unicode="&#359;" /><glyph d="M276 713H402L353 561H261ZM235 -9Q205 -9 177.5 -2Q150 5 129.5 21.5Q109 38 96.5 64Q84 90 84 128V407H16V516H84V668H227V516H338V407H227V163Q227 116 274 116Q292 116 306 117Q320 118 337 121V4Q313 -3 283.5 -6Q254 -9 235 -9Z" glyph-name="tcaron" horiz-adv-x="369" unicode="&#357;" /><glyph d="M205 -213Q154 -213 101 -196V-132Q127 -140 151 -145Q175 -150 194 -150Q222 -150 234 -142.5Q246 -135 246 -118Q246 -103 228 -99Q210 -95 194 -94L149 -92L167 1Q131 14 107.5 44Q84 74 84 128V407H16V516H84V668H227V516H338V407H227V163Q227 116 274 116Q292 116 306 117Q320 118 337 121V4Q313 -3 282.5 -6Q252 -9 228 -9L222 -38Q245 -38 268.5 -41.5Q292 -45 310.5 -54Q329 -63 340.5 -78.5Q352 -94 352 -118Q352 -160 311.5 -186.5Q271 -213 205 -213Z" glyph-name="tcommaaccent" horiz-adv-x="357" unicode="&#355;" /><glyph d="M306 100Q323 100 340.5 105Q358 110 371.5 121.5Q385 133 393.5 150.5Q402 168 402 193V322Q402 366 374 389.5Q346 413 304 413Q286 413 268.5 407.5Q251 402 237 390Q223 378 214 358.5Q205 339 205 312V192Q205 146 235 123Q265 100 306 100ZM61 713H204V458H205Q235 495 274.5 512.5Q314 530 350 530Q393 530 429 516.5Q465 503 491.5 477.5Q518 452 532.5 415Q547 378 547 331V189Q547 140 530 102.5Q513 65 484.5 39.5Q456 14 418 1Q380 -12 337 -12Q296 -12 261.5 5.5Q227 23 207 49H205V-191H61Z" glyph-name="thorn" horiz-adv-x="586" unicode="&#254;" /><glyph d="M289 -12Q171 -12 112 39.5Q53 91 53 175V201H197V182Q197 141 225 123.5Q253 106 298 106Q340 106 366 133.5Q392 161 392 209Q392 240 380 258.5Q368 277 351.5 287Q335 297 317 300Q299 303 287 303H213V419H282Q327 419 354 439Q381 459 381 512Q381 536 373 553.5Q365 571 352 582Q339 593 323 598Q307 603 291 603Q243 603 222 580.5Q201 558 201 520V510H59V534Q59 575 75 610Q91 645 121 670.5Q151 696 194.5 710.5Q238 725 294 725Q353 725 397 709.5Q441 694 470 667.5Q499 641 513 606Q527 571 527 533Q527 474 498.5 430.5Q470 387 422 371V367Q447 360 470.5 345.5Q494 331 511 310Q528 289 538.5 261.5Q549 234 549 201Q549 145 527 104.5Q505 64 468.5 38Q432 12 385 0Q338 -12 289 -12Z" glyph-name="three" horiz-adv-x="590" unicode="3" /><glyph d="M184 -12Q115 -12 78 17.5Q41 47 41 101V115H144V105Q144 68 191 68Q210 68 221 80.5Q232 93 232 115Q232 129 226.5 137.5Q221 146 213 151Q205 156 195.5 157.5Q186 159 178 159H147V231H178Q202 231 215 240.5Q228 250 228 276Q228 298 215.5 308.5Q203 319 186 319Q162 319 153.5 307.5Q145 296 145 280V273H44V287Q44 338 82.5 369.5Q121 401 188 401Q257 401 293.5 370Q330 339 330 290Q330 257 313.5 233.5Q297 210 270 201V199Q301 191 321.5 166.5Q342 142 342 107Q342 74 327.5 51.5Q313 29 290 14.5Q267 0 239 -6Q211 -12 184 -12Z" glyph-name="three.dnom" horiz-adv-x="383" /><glyph d="M184 304Q115 304 78 333.5Q41 363 41 417V431H144V421Q144 384 191 384Q210 384 221 396.5Q232 409 232 431Q232 445 226.5 453.5Q221 462 213 467Q205 472 195.5 473.5Q186 475 178 475H147V547H178Q202 547 215 556.5Q228 566 228 592Q228 614 215.5 624.5Q203 635 186 635Q162 635 153.5 623.5Q145 612 145 596V589H44V603Q44 654 82.5 685.5Q121 717 188 717Q257 717 293.5 686Q330 655 330 606Q330 573 313.5 549.5Q297 526 270 517V515Q301 507 321.5 482.5Q342 458 342 423Q342 390 327.5 367.5Q313 345 290 330.5Q267 316 239 310Q211 304 184 304Z" glyph-name="three.numr" horiz-adv-x="383" /><glyph d="M289 -190Q171 -190 112 -138.5Q53 -87 53 -3V23H197V4Q197 -37 225 -54.5Q253 -72 298 -72Q340 -72 366 -44.5Q392 -17 392 31Q392 62 380 80.5Q368 99 351.5 109Q335 119 317 122Q299 125 287 125H213V241H282Q327 241 354 261Q381 281 381 334Q381 358 373 375.5Q365 393 352 404Q339 415 323 420Q307 425 291 425Q243 425 222 402.5Q201 380 201 342V332H59V356Q59 397 75 432Q91 467 121 492.5Q151 518 194.5 532.5Q238 547 294 547Q353 547 397 531.5Q441 516 470 489.5Q499 463 513 428Q527 393 527 355Q527 296 498.5 252.5Q470 209 422 193V189Q447 182 470.5 167.5Q494 153 511 132Q528 111 538.5 83.5Q549 56 549 23Q549 -33 527 -73.5Q505 -114 468.5 -140Q432 -166 385 -178Q338 -190 289 -190Z" glyph-name="three.osf" horiz-adv-x="590" /><glyph d="M283 -12Q165 -12 106 39.5Q47 91 47 175V201H191V182Q191 141 219 123.5Q247 106 292 106Q334 106 360 133.5Q386 161 386 209Q386 240 374 258.5Q362 277 345.5 287Q329 297 311 300Q293 303 281 303H207V419H276Q321 419 348 439Q375 459 375 512Q375 536 367 553.5Q359 571 346 582Q333 593 317 598Q301 603 285 603Q237 603 216 580.5Q195 558 195 520V510H53V534Q53 575 69 610Q85 645 115 670.5Q145 696 188.5 710.5Q232 725 288 725Q347 725 391 709.5Q435 694 464 667.5Q493 641 507 606Q521 571 521 533Q521 474 492.5 430.5Q464 387 416 371V367Q441 360 464.5 345.5Q488 331 505 310Q522 289 532.5 261.5Q543 234 543 201Q543 145 521 104.5Q499 64 462.5 38Q426 12 379 0Q332 -12 283 -12Z" glyph-name="three.tf" horiz-adv-x="590" /><glyph d="M283 -189Q165 -189 106 -137.5Q47 -86 47 -2V24H191V5Q191 -36 219 -53.5Q247 -71 292 -71Q334 -71 360 -43.5Q386 -16 386 32Q386 63 374 81.5Q362 100 345.5 110Q329 120 311 123Q293 126 281 126H207V242H276Q321 242 348 262Q375 282 375 335Q375 359 367 376.5Q359 394 346 405Q333 416 317 421Q301 426 285 426Q237 426 216 403.5Q195 381 195 343V333H53V357Q53 398 69 433Q85 468 115 493.5Q145 519 188.5 533.5Q232 548 288 548Q347 548 391 532.5Q435 517 464 490.5Q493 464 507 429Q521 394 521 356Q521 297 492.5 253.5Q464 210 416 194V190Q441 183 464.5 168.5Q488 154 505 133Q522 112 532.5 84.5Q543 57 543 24Q543 -32 521 -72.5Q499 -113 462.5 -139Q426 -165 379 -177Q332 -189 283 -189Z" glyph-name="three.tosf" horiz-adv-x="590" /><glyph d="M175 304Q106 304 69 333.5Q32 363 32 417V431H135V421Q135 384 182 384Q201 384 212 396.5Q223 409 223 431Q223 445 217.5 453.5Q212 462 204 467Q196 472 186.5 473.5Q177 475 169 475H138V547H169Q193 547 206 556.5Q219 566 219 592Q219 614 206.5 624.5Q194 635 177 635Q153 635 144.5 623.5Q136 612 136 596V589H35V603Q35 654 73.5 685.5Q112 717 179 717Q248 717 284.5 686Q321 655 321 606Q321 573 304.5 549.5Q288 526 261 517V515Q292 507 312.5 482.5Q333 458 333 423Q333 390 318.5 367.5Q304 345 281 330.5Q258 316 230 310Q202 304 175 304ZM572 713H661L269 0H180ZM664 230Q683 230 695.5 239.5Q708 249 708 268V287Q708 308 694 316.5Q680 325 663 325Q646 325 632.5 316.5Q619 308 619 291V267Q619 248 632 239Q645 230 664 230ZM663 63Q683 63 695.5 72.5Q708 82 708 102V121Q708 143 694 151Q680 159 663 159Q646 159 632 151Q618 143 618 125V101Q618 83 631 73Q644 63 663 63ZM663 -12Q631 -12 603 -6Q575 0 555 13.5Q535 27 523.5 47.5Q512 68 512 98V118Q512 145 526 165.5Q540 186 561 197Q541 205 529.5 225.5Q518 246 518 267V288Q518 316 529.5 337Q541 358 561 372Q581 386 607.5 393.5Q634 401 663 401Q692 401 718.5 394.5Q745 388 765 374.5Q785 361 797 340.5Q809 320 809 292V265Q809 242 796.5 224Q784 206 767 197Q787 189 801 167.5Q815 146 815 122V96Q815 70 803 50Q791 30 770.5 16Q750 2 722 -5Q694 -12 663 -12Z" glyph-name="threeeighths" horiz-adv-x="866" unicode="&#8540;" /><glyph d="M583 713H672L280 0H191ZM177 304Q108 304 71 333.5Q34 363 34 417V431H137V421Q137 384 184 384Q203 384 214 396.5Q225 409 225 431Q225 445 219.5 453.5Q214 462 206 467Q198 472 188.5 473.5Q179 475 171 475H140V547H171Q195 547 208 556.5Q221 566 221 592Q221 614 208.5 624.5Q196 635 179 635Q155 635 146.5 623.5Q138 612 138 596V589H37V603Q37 654 75.5 685.5Q114 717 181 717Q250 717 286.5 686Q323 655 323 606Q323 573 306.5 549.5Q290 526 263 517V515Q294 507 314.5 482.5Q335 458 335 423Q335 390 320.5 367.5Q306 345 283 330.5Q260 316 232 310Q204 304 177 304ZM664 84H490V159L639 400H754L598 163H664V209L764 273V163H804V84H764V0H664Z" glyph-name="threequarters" horiz-adv-x="866" unicode="&#190;" /><glyph d="M184 368Q115 368 78 397.5Q41 427 41 481V495H144V485Q144 448 191 448Q210 448 221 460.5Q232 473 232 495Q232 509 226.5 517.5Q221 526 213 531Q205 536 195.5 537.5Q186 539 178 539H147V611H178Q202 611 215 620.5Q228 630 228 656Q228 678 215.5 688.5Q203 699 186 699Q162 699 153.5 687.5Q145 676 145 660V653H44V667Q44 718 82.5 749.5Q121 781 188 781Q257 781 293.5 750Q330 719 330 670Q330 637 313.5 613.5Q297 590 270 581V579Q301 571 321.5 546.5Q342 522 342 487Q342 454 327.5 431.5Q313 409 290 394.5Q267 380 239 374Q211 368 184 368Z" glyph-name="threesuperior" horiz-adv-x="383" unicode="&#179;" /><glyph d="M71 584Q76 612 86.5 637Q97 662 113 680.5Q129 699 151 709.5Q173 720 200 720Q222 720 243 715Q264 710 284.5 704Q305 698 325.5 693Q346 688 368 688Q389 688 396.5 702.5Q404 717 409 735L492 716Q487 688 477.5 663Q468 638 453 619.5Q438 601 417 590.5Q396 580 369 580Q347 580 325.5 585Q304 590 283.5 596Q263 602 242.5 607Q222 612 201 612Q185 612 176.5 603Q168 594 157 565Z" glyph-name="tilde" horiz-adv-x="563" unicode="&#732;" /><glyph d="M-492 584Q-487 612 -476.5 637Q-466 662 -450 680.5Q-434 699 -412 709.5Q-390 720 -363 720Q-341 720 -320 715Q-299 710 -278.5 704Q-258 698 -237.5 693Q-217 688 -195 688Q-174 688 -166.5 702.5Q-159 717 -154 735L-71 716Q-76 688 -85.5 663Q-95 638 -110 619.5Q-125 601 -146 590.5Q-167 580 -194 580Q-216 580 -237.5 585Q-259 590 -279.5 596Q-300 602 -320.5 607Q-341 612 -362 612Q-378 612 -386.5 603Q-395 594 -406 565Z" glyph-name="tildecomb" horiz-adv-x="1" unicode="&#771;" /><glyph d="M-486 777Q-481 805 -470 830Q-459 855 -443 873.5Q-427 892 -405 902.5Q-383 913 -356 913Q-334 913 -313.5 908Q-293 903 -272 897Q-251 891 -230.5 886Q-210 881 -188 881Q-167 881 -159.5 895.5Q-152 910 -147 929L-65 909Q-69 881 -78.5 856.5Q-88 832 -103 813.5Q-118 795 -139.5 784.5Q-161 774 -188 774Q-210 774 -231 779Q-252 784 -273 789.5Q-294 795 -314.5 800Q-335 805 -356 805Q-372 805 -380 796.5Q-388 788 -400 759Z" glyph-name="tildecomb.case" horiz-adv-x="1" /><glyph d="M122 644H40V713H284V644H202V400H122ZM332 713H429L479 575L529 713H626V400H552V585L505 454H452L405 584V400H332Z" glyph-name="trademark" horiz-adv-x="678" unicode="&#8482;" /><glyph d="M70 93 294 354Q328 394 349.5 430.5Q371 467 371 510V528Q371 561 350.5 584.5Q330 608 283 608Q238 608 215.5 583Q193 558 193 518V498H52V528Q52 577 70 614Q88 651 120.5 676Q153 701 197 713.5Q241 726 294 726Q351 726 394 710.5Q437 695 466 668Q495 641 510 603.5Q525 566 525 522Q525 474 508 432Q491 390 464.5 352.5Q438 315 406 281Q374 247 344 214L264 126V124H530V0H70Z" glyph-name="two" horiz-adv-x="582" unicode="2" /><glyph d="M55 66 192 218Q206 233 216 250Q226 267 226 285V289Q226 304 216.5 315Q207 326 185 326Q165 326 155.5 313.5Q146 301 146 281V269H47V290Q47 348 89 377.5Q131 407 194 407Q262 407 296.5 373.5Q331 340 331 287Q331 243 305 208Q279 173 242 135L195 86V84H335V0H55Z" glyph-name="two.dnom" horiz-adv-x="383" /><glyph d="M55 382 192 534Q206 549 216 566Q226 583 226 601V605Q226 620 216.5 631Q207 642 185 642Q165 642 155.5 629.5Q146 617 146 597V585H47V606Q47 664 89 693.5Q131 723 194 723Q262 723 296.5 689.5Q331 656 331 603Q331 559 305 524Q279 489 242 451L195 402V400H335V316H55Z" glyph-name="two.numr" horiz-adv-x="383" /><glyph d="M58 98Q118 138 174 175Q230 212 273.5 244.5Q317 277 343.5 305Q370 333 370 356V363Q370 395 349.5 413Q329 431 282 431Q237 431 214.5 406.5Q192 382 192 342V322H51V352Q51 401 69.5 438Q88 475 120.5 500Q153 525 197.5 537.5Q242 550 295 550Q408 550 464 503.5Q520 457 520 372Q520 324 497 288.5Q474 253 437.5 224.5Q401 196 355 171.5Q309 147 264 120V118H540V0H58Z" glyph-name="two.osf" horiz-adv-x="582" /><glyph d="M74 93 298 354Q332 394 353.5 430.5Q375 467 375 510V528Q375 561 354.5 584.5Q334 608 287 608Q242 608 219.5 583Q197 558 197 518V498H56V528Q56 577 74 614Q92 651 124.5 676Q157 701 201 713.5Q245 726 298 726Q355 726 398 710.5Q441 695 470 668Q499 641 514 603.5Q529 566 529 522Q529 474 512 432Q495 390 468.5 352.5Q442 315 410 281Q378 247 348 214L268 126V124H534V0H74Z" glyph-name="two.tf" horiz-adv-x="590" /><glyph d="M57 98Q117 138 173 175Q229 212 272.5 244.5Q316 277 342.5 305Q369 333 369 356V363Q369 395 348.5 413Q328 431 281 431Q236 431 213.5 406.5Q191 382 191 342V322H50V352Q50 401 68.5 438Q87 475 119.5 500Q152 525 196.5 537.5Q241 550 294 550Q407 550 463 503.5Q519 457 519 372Q519 324 496 288.5Q473 253 436.5 224.5Q400 196 354 171.5Q308 147 263 120V118H539V0H57Z" glyph-name="two.tosf" horiz-adv-x="590" /><glyph d="M55 446 192 598Q206 613 216 630Q226 647 226 665V669Q226 684 216.5 695Q207 706 185 706Q165 706 155.5 693.5Q146 681 146 661V649H47V670Q47 728 89 757.5Q131 787 194 787Q262 787 296.5 753.5Q331 720 331 667Q331 623 305 588Q279 553 242 515L195 466V464H335V380H55Z" glyph-name="twosuperior" horiz-adv-x="383" unicode="&#178;" /><glyph d="M659 -12Q590 -12 553 17.5Q516 47 516 101V115H619V105Q619 68 666 68Q685 68 696 80.5Q707 93 707 115Q707 129 701.5 137.5Q696 146 688 151Q680 156 670.5 157.5Q661 159 653 159H622V231H653Q677 231 690 240.5Q703 250 703 276Q703 298 690.5 308.5Q678 319 661 319Q637 319 628.5 307.5Q620 296 620 280V273H519V287Q519 338 557.5 369.5Q596 401 663 401Q732 401 768.5 370Q805 339 805 290Q805 257 788.5 233.5Q772 210 745 201V199Q776 191 796.5 166.5Q817 142 817 107Q817 74 802.5 51.5Q788 29 765 14.5Q742 0 714 -6Q686 -12 659 -12ZM581 713H670L278 0H189ZM42 382 179 534Q193 549 203 566Q213 583 213 601V605Q213 620 203.5 631Q194 642 172 642Q152 642 142.5 629.5Q133 617 133 597V585H34V606Q34 664 76 693.5Q118 723 181 723Q249 723 283.5 689.5Q318 656 318 603Q318 559 292 524Q266 489 229 451L182 402V400H322V316H42Z" glyph-name="twothirds" horiz-adv-x="866" unicode="&#8532;" /><glyph d="M234 -11Q156 -11 107 36.5Q58 84 58 174V519H202V217Q202 168 222.5 138.5Q243 109 290 109Q334 109 359 138.5Q384 168 384 228V519H528V0H388V68H386Q358 28 319 8.5Q280 -11 234 -11Z" glyph-name="u" horiz-adv-x="589" unicode="u" /><glyph d="M322 736H473L340 569H236ZM234 -11Q156 -11 107 36.5Q58 84 58 174V519H202V217Q202 168 222.5 138.5Q243 109 290 109Q334 109 359 138.5Q384 168 384 228V519H528V0H388V68H386Q358 28 319 8.5Q280 -11 234 -11Z" glyph-name="uacute" horiz-adv-x="589" unicode="&#250;" /><glyph d="M293 567Q257 567 226 579Q195 591 172 612.5Q149 634 135.5 665.5Q122 697 121 736H229Q231 720 235 705Q239 690 246.5 679Q254 668 265.5 661Q277 654 294 654Q323 654 337.5 674Q352 694 358 736H466Q466 693 451 661.5Q436 630 411.5 609Q387 588 356 577.5Q325 567 293 567ZM234 -11Q156 -11 107 36.5Q58 84 58 174V519H202V217Q202 168 222.5 138.5Q243 109 290 109Q334 109 359 138.5Q384 168 384 228V519H528V0H388V68H386Q358 28 319 8.5Q280 -11 234 -11Z" glyph-name="ubreve" horiz-adv-x="589" unicode="&#365;" /><glyph d="M235 738H357L468 570H345L295 656L240 570H119ZM234 -11Q156 -11 107 36.5Q58 84 58 174V519H202V217Q202 168 222.5 138.5Q243 109 290 109Q334 109 359 138.5Q384 168 384 228V519H528V0H388V68H386Q358 28 319 8.5Q280 -11 234 -11Z" glyph-name="ucircumflex" horiz-adv-x="589" unicode="&#251;" /><glyph d="M331 717H463V570H331ZM123 717H255V570H123ZM234 -11Q156 -11 107 36.5Q58 84 58 174V519H202V217Q202 168 222.5 138.5Q243 109 290 109Q334 109 359 138.5Q384 168 384 228V519H528V0H388V68H386Q358 28 319 8.5Q280 -11 234 -11Z" glyph-name="udieresis" horiz-adv-x="589" unicode="&#252;" /><glyph d="M109 736H260L346 569H242ZM234 -11Q156 -11 107 36.5Q58 84 58 174V519H202V217Q202 168 222.5 138.5Q243 109 290 109Q334 109 359 138.5Q384 168 384 228V519H528V0H388V68H386Q358 28 319 8.5Q280 -11 234 -11Z" glyph-name="ugrave" horiz-adv-x="589" unicode="&#249;" /><glyph d="M412 736H546L438 569H341ZM212 736H346L238 569H141ZM234 -11Q156 -11 107 36.5Q58 84 58 174V519H202V217Q202 168 222.5 138.5Q243 109 290 109Q334 109 359 138.5Q384 168 384 228V519H528V0H388V68H386Q358 28 319 8.5Q280 -11 234 -11Z" glyph-name="uhungarumlaut" horiz-adv-x="595" unicode="&#369;" /><glyph d="M138 693H448V582H138ZM234 -11Q156 -11 107 36.5Q58 84 58 174V519H202V217Q202 168 222.5 138.5Q243 109 290 109Q334 109 359 138.5Q384 168 384 228V519H528V0H388V68H386Q358 28 319 8.5Q280 -11 234 -11Z" glyph-name="umacron" horiz-adv-x="589" unicode="&#363;" /><glyph d="M0 -51H500V-145H0Z" glyph-name="underscore" horiz-adv-x="500" unicode="_" /><glyph glyph-name="uni00A0" horiz-adv-x="230" unicode="&#160;" /><glyph d="M35 358H328V239H35Z" glyph-name="uni00AD" horiz-adv-x="363" unicode="&#173;" /><glyph d="M332 120Q393 120 433.5 149.5Q474 179 474 242V292H199V235Q199 203 211.5 181.5Q224 160 243 146Q262 132 285.5 126Q309 120 332 120ZM336 -12Q277 -12 224.5 3Q172 18 133 48.5Q94 79 71.5 124.5Q49 170 49 231V408H474V468Q474 500 462.5 523.5Q451 547 431.5 562.5Q412 578 386.5 585.5Q361 593 332 593Q305 593 281 586.5Q257 580 238.5 567.5Q220 555 209.5 535.5Q199 516 199 489V481H49V494Q49 554 75.5 598Q102 642 144 670Q186 698 239 711.5Q292 725 345 725Q403 725 455 707.5Q507 690 545.5 656Q584 622 606.5 573Q629 524 629 461V255Q629 192 608 142Q587 92 549 58Q511 24 456.5 6Q402 -12 336 -12Z" glyph-name="uni018F" horiz-adv-x="678" unicode="&#399;" /><glyph d="M80 426H261L374 583H51V713H570V598L447 426H522V316H368L235 130H576V0H35V112L182 316H80Z" glyph-name="uni01B5" horiz-adv-x="612" unicode="&#437;" /><glyph d="M72 318H212L286 406H45V519H465V414L384 318H440V217H299L211 113H472V0H31V100L128 217H72Z" glyph-name="uni01B6" horiz-adv-x="503" unicode="&#438;" /><glyph d="M242 -33H384L344 -195H230ZM229 584H26V713H588V584H385V0H229Z" glyph-name="uni021A" horiz-adv-x="614" unicode="&#538;" /><glyph d="M148 -33H290L250 -195H136ZM235 -9Q205 -9 177.5 -2Q150 5 129.5 21.5Q109 38 96.5 64Q84 90 84 128V407H16V516H84V668H227V516H338V407H227V163Q227 116 274 116Q292 116 306 117Q320 118 337 121V4Q313 -3 283.5 -6Q254 -9 235 -9Z" glyph-name="uni021B" horiz-adv-x="357" unicode="&#539;" /><glyph d="M268 100Q286 100 303 105.5Q320 111 333.5 122.5Q347 134 355.5 152Q364 170 364 195V205H179V189Q179 166 186.5 149Q194 132 206.5 121Q219 110 235 105Q251 100 268 100ZM266 -12Q223 -12 182 1Q141 14 109.5 39.5Q78 65 58.5 104Q39 143 39 195V296H364V320Q364 344 354.5 361.5Q345 379 329 391Q313 403 292.5 409Q272 415 250 415Q234 415 216 410.5Q198 406 181.5 398Q165 390 150.5 380Q136 370 126 358L47 432Q83 483 140 506Q197 529 263 529Q311 529 356 516.5Q401 504 435.5 478Q470 452 491 412Q512 372 512 317V218Q512 161 491.5 118Q471 75 437 46Q403 17 358.5 2.5Q314 -12 266 -12Z" glyph-name="uni0259" horiz-adv-x="552" unicode="&#601;" /><glyph d="M-311 738H-189L-78 570H-201L-251 656L-306 570H-427Z" glyph-name="uni0302" horiz-adv-x="1" unicode="&#770;" /><glyph d="M-287 938H-165L-54 760H-177L-227 857L-282 760H-403Z" glyph-name="uni0302.case" horiz-adv-x="1" /><glyph d="M-395 693H-85V582H-395Z" glyph-name="uni0304" horiz-adv-x="1" unicode="&#772;" /><glyph d="M-400 882H-91V771H-400Z" glyph-name="uni0304.case" horiz-adv-x="1" /><glyph d="M-227 567Q-263 567 -294 579Q-325 591 -348 612.5Q-371 634 -384.5 665.5Q-398 697 -399 736H-291Q-289 720 -285 705Q-281 690 -273.5 679Q-266 668 -254.5 661Q-243 654 -226 654Q-197 654 -182.5 674Q-168 694 -162 736H-54Q-54 693 -69 661.5Q-84 630 -108.5 609Q-133 588 -164 577.5Q-195 567 -227 567Z" glyph-name="uni0306" horiz-adv-x="1" unicode="&#774;" /><glyph d="M-231 756Q-267 756 -298 768Q-329 780 -352 801.5Q-375 823 -388.5 854.5Q-402 886 -403 925H-295Q-293 909 -289 894Q-285 879 -277.5 868Q-270 857 -258.5 850Q-247 843 -230 843Q-201 843 -186.5 863Q-172 883 -166 925H-58Q-58 882 -73 850.5Q-88 819 -112.5 798Q-137 777 -168 766.5Q-199 756 -231 756Z" glyph-name="uni0306.case" horiz-adv-x="1" /><glyph d="M-279 713H-135V575H-279Z" glyph-name="uni0307" horiz-adv-x="1" unicode="&#775;" /><glyph d="M-229 910H-95V764H-229Z" glyph-name="uni0307.case" horiz-adv-x="1" /><glyph d="M-191 717H-59V570H-191ZM-399 717H-267V570H-399Z" glyph-name="uni0308" horiz-adv-x="1" unicode="&#776;" /><glyph d="M-216 910H-84V764H-216ZM-424 910H-292V764H-424Z" glyph-name="uni0308.case" horiz-adv-x="1" /><glyph d="M-237 612Q-217 612 -203 625.5Q-189 639 -189 659Q-189 679 -201.5 693.5Q-214 708 -237 708Q-259 708 -271.5 693.5Q-284 679 -284 659Q-284 639 -270.5 625.5Q-257 612 -237 612ZM-237 559Q-287 559 -317 586.5Q-347 614 -347 657Q-347 679 -338.5 697.5Q-330 716 -315 730Q-300 744 -280 752Q-260 760 -237 760Q-189 760 -158 734Q-127 708 -127 663Q-127 641 -136 622Q-145 603 -160 589Q-175 575 -195 567Q-215 559 -237 559Z" glyph-name="uni030A" horiz-adv-x="1" unicode="&#778;" /><glyph d="M-183 807Q-162 807 -148 820.5Q-134 834 -134 854Q-134 874 -147 888.5Q-160 903 -183 903Q-205 903 -217.5 888.5Q-230 874 -230 854Q-230 834 -216.5 820.5Q-203 807 -183 807ZM-183 754Q-232 754 -262 781.5Q-292 809 -292 852Q-292 874 -283.5 892.5Q-275 911 -260 925Q-245 939 -225.5 947Q-206 955 -183 955Q-134 955 -103 929Q-72 903 -72 858Q-72 836 -81 817Q-90 798 -105 784Q-120 770 -140.5 762Q-161 754 -183 754Z" glyph-name="uni030A.case" horiz-adv-x="1" /><glyph d="M-190 736H-56L-164 569H-261ZM-390 736H-256L-364 569H-461Z" glyph-name="uni030B" horiz-adv-x="1" unicode="&#779;" /><glyph d="M-160 939H-26L-140 761H-237ZM-360 939H-226L-340 761H-437Z" glyph-name="uni030B.case" horiz-adv-x="1" /><glyph d="M-415 736H-290L-242 652L-187 736H-65L-182 570H-303Z" glyph-name="uni030C" horiz-adv-x="1" unicode="&#780;" /><glyph d="M-395 939H-272L-222 842L-167 939H-46L-162 761H-284Z" glyph-name="uni030C.case" horiz-adv-x="1" /><glyph d="M-182 767H-87L-100 586H-230Z" glyph-name="uni0312" horiz-adv-x="1" unicode="&#786;" /><glyph d="M-205 713H-75L-125 548H-220Z" glyph-name="uni0313" horiz-adv-x="1" unicode="&#787;" /><glyph d="M-256 -33H-114L-154 -195H-268Z" glyph-name="uni0326" horiz-adv-x="1" unicode="&#806;" /><glyph d="M-198 -213Q-249 -213 -302 -196V-132Q-276 -140 -252 -145Q-228 -150 -209 -150Q-181 -150 -169 -142.5Q-157 -135 -157 -118Q-157 -104 -173.5 -100Q-190 -96 -214 -94L-254 -92L-230 30H-167L-181 -38Q-158 -38 -134.5 -41.5Q-111 -45 -92.5 -54Q-74 -63 -62.5 -78.5Q-51 -94 -51 -118Q-51 -160 -91.5 -186.5Q-132 -213 -198 -213Z" glyph-name="uni0327" horiz-adv-x="1" unicode="&#807;" /><glyph d="M-167 -218Q-223 -218 -258.5 -194.5Q-294 -171 -294 -122Q-294 -89 -278 -61.5Q-262 -34 -236.5 -12Q-211 10 -180 25Q-149 40 -118 48L-78 0Q-132 -9 -161 -34.5Q-190 -60 -190 -86Q-190 -107 -177.5 -116Q-165 -125 -142 -125Q-133 -125 -117.5 -121Q-102 -117 -87 -108L-53 -190Q-76 -202 -105.5 -210Q-135 -218 -167 -218Z" glyph-name="uni0328" horiz-adv-x="1" unicode="&#808;" /><glyph d="M483 116 341 542H337L199 116ZM29 56 270 715H425L662 57V0H29Z" glyph-name="uni0394" horiz-adv-x="691" unicode="&#916;" /><glyph d="M54 133 199 127V136Q172 154 144.5 180Q117 206 95 240.5Q73 275 59.5 319.5Q46 364 46 419V431Q46 498 67 552.5Q88 607 127.5 645Q167 683 223 704Q279 725 348 725Q421 725 477.5 704Q534 683 573 644.5Q612 606 632 552.5Q652 499 652 434V420Q652 359 637 312Q622 265 599 230.5Q576 196 549.5 172.5Q523 149 499 136V127L645 133V0H380V126Q398 145 417 163Q436 181 452 207Q468 233 478 272Q488 311 488 371V466Q488 500 476 524.5Q464 549 444 564.5Q424 580 399 587.5Q374 595 347 595Q321 595 296.5 588Q272 581 252.5 565Q233 549 221 523Q209 497 209 458V379Q209 324 217.5 286Q226 248 241 220Q256 192 276 170Q296 148 319 126V0H54Z" glyph-name="uni03A9" horiz-adv-x="699" unicode="&#937;" /><glyph d="M58 519H200V196Q200 180 205.5 164.5Q211 149 222.5 136.5Q234 124 250.5 116.5Q267 109 290 109Q305 109 321.5 115.5Q338 122 352 134Q366 146 375 163.5Q384 181 384 203V519H528V188Q528 171 533 156.5Q538 142 564 141L563 -4Q529 -5 503.5 2.5Q478 10 460.5 22.5Q443 35 432 51.5Q421 68 416 85Q409 67 398.5 49.5Q388 32 373 18.5Q358 5 337 -3.5Q316 -12 288 -12Q250 -12 222 4.5Q194 21 180 50L172 48L205 -168L58 -178Z" glyph-name="uni03BC" horiz-adv-x="592" unicode="&#956;" /><glyph d="M257 910H391V764H257ZM222 370 11 713H185L317 484L451 713H616L404 368L632 0H456L309 248L163 0H-6Z" glyph-name="uni1E8A" horiz-adv-x="626" unicode="&#7818;" /><glyph d="M197 713H341V575H197ZM187 269 21 519H182L274 372L365 519H516L350 270L529 0H367L264 163L162 0H10Z" glyph-name="uni1E8B" horiz-adv-x="539" unicode="&#7819;" /><glyph d="M191 451Q214 451 225.5 465Q237 479 237 496V657Q237 674 225 686Q213 698 191 698Q169 698 157 686Q145 674 145 656V494Q145 477 156.5 464Q168 451 191 451ZM191 368Q164 368 136.5 374.5Q109 381 86.5 395.5Q64 410 50 434Q36 458 36 493V654Q36 688 49.5 712Q63 736 85 751.5Q107 767 134.5 774Q162 781 191 781Q219 781 246.5 774Q274 767 296 751.5Q318 736 332 711.5Q346 687 346 652V494Q346 461 332 437Q318 413 295.5 397.5Q273 382 245.5 375Q218 368 191 368Z" glyph-name="uni2070" horiz-adv-x="383" unicode="&#8304;" /><glyph d="M213 464H39V539L188 780H303L147 543H213V589L313 653V543H353V464H313V380H213Z" glyph-name="uni2074" horiz-adv-x="383" unicode="&#8308;" /><glyph d="M192 368Q129 368 89 394.5Q49 421 49 468V494H149V485Q149 469 160.5 459Q172 449 195 449Q239 449 239 499V524Q239 544 226 554.5Q213 565 193 565Q179 565 169 559Q159 553 152 545L59 556L69 774H319V687H151L149 612Q168 625 189.5 630.5Q211 636 234 636Q253 636 272 630.5Q291 625 307 613.5Q323 602 333 583.5Q343 565 343 538V490Q343 460 330.5 437Q318 414 297 398.5Q276 383 248.5 375.5Q221 368 192 368Z" glyph-name="uni2075" horiz-adv-x="383" unicode="&#8309;" /><glyph d="M192 449Q215 449 227 460Q239 471 239 486V525Q239 547 223.5 554.5Q208 562 194 562Q179 562 163.5 551Q148 540 148 514V490Q148 473 159.5 461Q171 449 192 449ZM190 368Q160 368 133 376Q106 384 85 399.5Q64 415 51.5 437.5Q39 460 39 489V659Q39 689 52 711.5Q65 734 86.5 749.5Q108 765 136 773Q164 781 194 781Q260 781 298.5 753Q337 725 337 674V655H235V665Q235 683 223.5 692Q212 701 193 701Q171 701 159.5 689Q148 677 148 659V600Q184 630 238 630Q288 630 315.5 604.5Q343 579 343 539V483Q343 455 330.5 433.5Q318 412 297 397.5Q276 383 248 375.5Q220 368 190 368Z" glyph-name="uni2076" horiz-adv-x="383" unicode="&#8310;" /><glyph d="M94 380Q95 423 107.5 467Q120 511 139 551.5Q158 592 182 628Q206 664 230 690H53V778H345V702Q325 682 301 650.5Q277 619 256.5 578.5Q236 538 222 488Q208 438 208 380Z" glyph-name="uni2077" horiz-adv-x="383" unicode="&#8311;" /><glyph d="M192 610Q211 610 223.5 619.5Q236 629 236 648V667Q236 688 222 696.5Q208 705 191 705Q174 705 160.5 696.5Q147 688 147 671V647Q147 628 160 619Q173 610 192 610ZM191 443Q211 443 223.5 452.5Q236 462 236 482V501Q236 523 222 531Q208 539 191 539Q174 539 160 531Q146 523 146 505V481Q146 463 159 453Q172 443 191 443ZM191 368Q159 368 131 374Q103 380 83 393.5Q63 407 51.5 427.5Q40 448 40 478V498Q40 525 54 545.5Q68 566 89 577Q69 585 57.5 605.5Q46 626 46 647V668Q46 696 57.5 717Q69 738 89 752Q109 766 135.5 773.5Q162 781 191 781Q220 781 246.5 774.5Q273 768 293 754.5Q313 741 325 720.5Q337 700 337 672V645Q337 622 324.5 604Q312 586 295 577Q315 569 329 547.5Q343 526 343 502V476Q343 450 331 430Q319 410 298.5 396Q278 382 250 375Q222 368 191 368Z" glyph-name="uni2078" horiz-adv-x="383" unicode="&#8312;" /><glyph d="M187 587Q201 587 217.5 598.5Q234 610 234 636V661Q234 678 222.5 690Q211 702 189 702Q167 702 155 691Q143 680 143 664V625Q143 604 158 595.5Q173 587 187 587ZM187 367Q122 367 83.5 395.5Q45 424 45 475V494H147V484Q147 466 158.5 457Q170 448 188 448Q211 448 222.5 460Q234 472 234 490V550Q219 533 194.5 525.5Q170 518 144 518Q94 518 66.5 544Q39 570 39 610V666Q39 694 51.5 716Q64 738 85 752Q106 766 134 773.5Q162 781 192 781Q222 781 249.5 773Q277 765 297.5 749.5Q318 734 330.5 711Q343 688 343 659V490Q343 460 330 437.5Q317 415 295.5 399Q274 383 246 375Q218 367 187 367Z" glyph-name="uni2079" horiz-adv-x="383" unicode="&#8313;" /><glyph d="M127 527H16V592H127V704H193V592H303V527H193V415H127Z" glyph-name="uni207A" horiz-adv-x="320" unicode="&#8314;" /><glyph d="M16 592H303V527H16Z" glyph-name="uni207B" horiz-adv-x="320" unicode="&#8315;" /><glyph d="M16 650H303V586H16ZM16 535H303V470H16Z" glyph-name="uni207C" horiz-adv-x="320" unicode="&#8316;" /><glyph d="M145 304Q125 326 108.5 355.5Q92 385 80 418Q68 451 61 487.5Q54 524 54 561Q54 631 78.5 696.5Q103 762 145 810H197Q183 776 173 746.5Q163 717 157 687.5Q151 658 148 627.5Q145 597 145 561Q145 496 158 431Q171 366 197 304Z" glyph-name="uni207D" horiz-adv-x="212" unicode="&#8317;" /><glyph d="M15 304Q42 366 54.5 431Q67 496 67 561Q67 597 64 627.5Q61 658 55 687.5Q49 717 39 746.5Q29 776 15 810H68Q110 762 134 696.5Q158 631 158 561Q158 524 151 487.5Q144 451 132 418Q120 385 103.5 355.5Q87 326 68 304Z" glyph-name="uni207E" horiz-adv-x="212" unicode="&#8318;" /><glyph d="M191 -62Q214 -62 225.5 -48Q237 -34 237 -17V144Q237 161 225 173Q213 185 191 185Q169 185 157 173Q145 161 145 143V-19Q145 -36 156.5 -49Q168 -62 191 -62ZM191 -145Q164 -145 136.5 -138.5Q109 -132 86.5 -117.5Q64 -103 50 -79Q36 -55 36 -20V141Q36 175 49.5 199Q63 223 85 238.5Q107 254 134.5 261Q162 268 191 268Q219 268 246.5 261Q274 254 296 238.5Q318 223 332 198.5Q346 174 346 139V-19Q346 -52 332 -76Q318 -100 295.5 -115.5Q273 -131 245.5 -138Q218 -145 191 -145Z" glyph-name="uni2080" horiz-adv-x="383" unicode="&#8320;" /><glyph d="M52 -59H126V171L54 166L48 238L179 266H232V-59H299V-133H52Z" glyph-name="uni2081" horiz-adv-x="340" unicode="&#8321;" /><glyph d="M55 -67 192 85Q206 100 216 117Q226 134 226 152V156Q226 171 216.5 182Q207 193 185 193Q165 193 155.5 180.5Q146 168 146 148V136H47V157Q47 215 89 244.5Q131 274 194 274Q262 274 296.5 240.5Q331 207 331 154Q331 110 305 75Q279 40 242 2L195 -47V-49H335V-133H55Z" glyph-name="uni2082" horiz-adv-x="383" unicode="&#8322;" /><glyph d="M184 -145Q115 -145 78 -115.5Q41 -86 41 -32V-18H144V-28Q144 -65 191 -65Q210 -65 221 -52.5Q232 -40 232 -18Q232 -4 226.5 4.5Q221 13 213 18Q205 23 195.5 24.5Q186 26 178 26H147V98H178Q202 98 215 107.5Q228 117 228 143Q228 165 215.5 175.5Q203 186 186 186Q162 186 153.5 174.5Q145 163 145 147V140H44V154Q44 205 82.5 236.5Q121 268 188 268Q257 268 293.5 237Q330 206 330 157Q330 124 313.5 100.5Q297 77 270 68V66Q301 58 321.5 33.5Q342 9 342 -26Q342 -59 327.5 -81.5Q313 -104 290 -118.5Q267 -133 239 -139Q211 -145 184 -145Z" glyph-name="uni2083" horiz-adv-x="383" unicode="&#8323;" /><glyph d="M213 -49H39V26L188 267H303L147 30H213V76L313 140V30H353V-49H313V-133H213Z" glyph-name="uni2084" horiz-adv-x="383" unicode="&#8324;" /><glyph d="M192 -145Q129 -145 89 -118.5Q49 -92 49 -45V-19H149V-28Q149 -44 160.5 -54Q172 -64 195 -64Q239 -64 239 -14V11Q239 31 226 41.5Q213 52 193 52Q179 52 169 46Q159 40 152 32L59 43L69 261H319V174H151L149 99Q168 112 189.5 117.5Q211 123 234 123Q253 123 272 117.5Q291 112 307 100.5Q323 89 333 70.5Q343 52 343 25V-23Q343 -53 330.5 -76Q318 -99 297 -114.5Q276 -130 248.5 -137.5Q221 -145 192 -145Z" glyph-name="uni2085" horiz-adv-x="383" unicode="&#8325;" /><glyph d="M192 -64Q215 -64 227 -53Q239 -42 239 -27V12Q239 34 223.5 41.5Q208 49 194 49Q179 49 163.5 38Q148 27 148 1V-23Q148 -40 159.5 -52Q171 -64 192 -64ZM190 -145Q160 -145 133 -137Q106 -129 85 -113.5Q64 -98 51.5 -75.5Q39 -53 39 -24V146Q39 176 52 198.5Q65 221 86.5 236.5Q108 252 136 260Q164 268 194 268Q260 268 298.5 240Q337 212 337 161V142H235V152Q235 170 223.5 179Q212 188 193 188Q171 188 159.5 176Q148 164 148 146V87Q184 117 238 117Q288 117 315.5 91.5Q343 66 343 26V-30Q343 -58 330.5 -79.5Q318 -101 297 -115.5Q276 -130 248 -137.5Q220 -145 190 -145Z" glyph-name="uni2086" horiz-adv-x="383" unicode="&#8326;" /><glyph d="M92 -133Q93 -90 105.5 -46Q118 -2 137 38.5Q156 79 180 115Q204 151 228 177H51V265H343V189Q323 169 299 137.5Q275 106 254.5 65.5Q234 25 220 -25Q206 -75 206 -133Z" glyph-name="uni2087" horiz-adv-x="383" unicode="&#8327;" /></font>
</defs>
</svg>
