<?xml version="1.0" standalone="no"?><!DOCTYPE svg PUBLIC "-//W3C//DTD SVG 1.1//EN" "http://www.w3.org/Graphics/SVG/1.1/DTD/svg11.dtd" ><svg version="1.1" xmlns="http://www.w3.org/2000/svg"><defs><font horiz-adv-x="0" id="font"><font-face ascent="800" bbox="-520 -295 1550 1106" cap-height="713" descent="-200" font-family="Flama Extrabold Italic" font-stretch="normal" font-style="normal" font-weight="600" units-per-em="1000" x-height="532" /><missing-glyph d="M554 93V571H221V93ZM116 664H659V0H116Z" horiz-adv-x="775" /><glyph glyph-name=".null" horiz-adv-x="0" /><glyph d="M455 274 422 531H418L298 274ZM350 714H571L686 0H490L474 125H227L167 0H-23Z" glyph-name="A" horiz-adv-x="731" unicode="A" /><glyph d="M487 277 541 580 348 277ZM443 713H1095L1068 559H735L713 434H977L949 282H686L663 155H997L970 0H438L461 131H258L174 0H-26Z" glyph-name="AE" horiz-adv-x="1054" unicode="&#198;" /><glyph d="M751 942H926L751 756H629ZM487 277 541 580 348 277ZM443 713H1095L1068 559H735L713 434H977L949 282H686L663 155H997L970 0H438L461 131H258L174 0H-26Z" glyph-name="AEacute" horiz-adv-x="1054" unicode="&#508;" /><glyph d="M508 942H683L508 756H386ZM455 274 422 531H418L298 274ZM350 714H571L686 0H490L474 125H227L167 0H-23Z" glyph-name="Aacute" horiz-adv-x="731" unicode="&#193;" /><glyph d="M461 757Q386 757 345 796.5Q304 836 304 903Q304 910 304 916.5Q304 923 306 931H413Q415 900 428 880Q441 860 474 860Q542 860 566 931H681Q664 844 605 800.5Q546 757 461 757ZM455 274 422 531H418L298 274ZM350 714H571L686 0H490L474 125H227L167 0H-23Z" glyph-name="Abreve" horiz-adv-x="731" unicode="&#258;" /><glyph d="M439 942H575L667 756H524L487 845L415 756H274ZM455 274 422 531H418L298 274ZM350 714H571L686 0H490L474 125H227L167 0H-23Z" glyph-name="Acircumflex" horiz-adv-x="731" unicode="&#194;" /><glyph d="M512 920H670L641 757H483ZM288 920H446L417 757H259ZM455 274 422 531H418L298 274ZM350 714H571L686 0H490L474 125H227L167 0H-23Z" glyph-name="Adieresis" horiz-adv-x="731" unicode="&#196;" /><glyph d="M276 942H451L507 756H385ZM455 274 422 531H418L298 274ZM350 714H571L686 0H490L474 125H227L167 0H-23Z" glyph-name="Agrave" horiz-adv-x="731" unicode="&#192;" /><glyph d="M300 896H653L630 767H277ZM455 274 422 531H418L298 274ZM350 714H571L686 0H490L474 125H227L167 0H-23Z" glyph-name="Amacron" horiz-adv-x="731" unicode="&#256;" /><glyph d="M455 274 422 531H418L298 274ZM543 -225Q486 -225 458.5 -203Q431 -181 431 -146Q431 -112 448 -82Q465 -52 494 -27L474 125H227L167 0H-23L350 714H571L686 0Q627 -12 594 -36.5Q561 -61 561 -88Q561 -102 570 -109.5Q579 -117 600 -117Q611 -117 629.5 -112Q648 -107 666 -97L689 -190Q659 -204 622.5 -214.5Q586 -225 543 -225Z" glyph-name="Aogonek" horiz-adv-x="731" unicode="&#260;" /><glyph d="M481 806Q507 806 525 822.5Q543 839 543 865Q543 882 531 893Q519 904 498 904Q475 904 456 887.5Q437 871 437 847Q437 829 449 817.5Q461 806 481 806ZM471 749Q426 749 396.5 771.5Q367 794 367 833Q367 860 379.5 883Q392 906 412 923Q432 940 457 949.5Q482 959 508 959Q554 959 583.5 938.5Q613 918 613 878Q613 851 601 827.5Q589 804 569 786.5Q549 769 523.5 759Q498 749 471 749ZM455 274 422 531H418L298 274ZM350 714H571L686 0H490L474 125H227L167 0H-23Z" glyph-name="Aring" horiz-adv-x="731" unicode="&#197;" /><glyph d="M477 715Q503 715 521 731.5Q539 748 539 774Q539 791 527 802Q515 813 494 813Q471 813 452 796.5Q433 780 433 756Q433 738 445 726.5Q457 715 477 715ZM467 658Q422 658 392.5 680.5Q363 703 363 742Q363 769 375.5 792Q388 815 408 832Q428 849 453 858.5Q478 868 504 868Q550 868 579.5 847.5Q609 827 609 787Q609 760 597 736.5Q585 713 565 695.5Q545 678 519.5 668Q494 658 467 658ZM455 247 422 478H418L298 247ZM350 643H571L686 0H490L474 112H227L167 0H-23ZM518 1019H693L569 887H447Z" glyph-name="Aringacute" horiz-adv-x="731" unicode="&#506;" /><glyph d="M222 773Q232 803 248 830Q264 857 286 877Q308 897 334.5 909Q361 921 392 921Q415 921 436.5 915.5Q458 910 479 904Q500 898 521.5 892.5Q543 887 566 887Q589 887 598 903Q607 919 618 940L707 915Q698 887 683.5 860.5Q669 834 649 813.5Q629 793 603 780.5Q577 768 545 768Q522 768 500 773Q478 778 457 784.5Q436 791 416 796Q396 801 377 801Q355 801 343.5 790.5Q332 780 317 751ZM455 274 422 531H418L298 274ZM350 714H571L686 0H490L474 125H227L167 0H-23Z" glyph-name="Atilde" horiz-adv-x="731" unicode="&#195;" /><glyph d="M429 432Q465 432 490 453Q515 474 515 512Q515 541 494.5 553.5Q474 566 450 566H321L297 432ZM379 151Q416 151 444 173.5Q472 196 472 234Q472 265 449.5 278Q427 291 400 291H272L247 151ZM150 713H534Q569 713 601.5 703.5Q634 694 659 675Q684 656 699 626.5Q714 597 714 558Q714 490 679 439.5Q644 389 576 370L575 366Q621 353 646 316Q671 279 671 231Q671 180 650 137.5Q629 95 594.5 64.5Q560 34 514.5 17Q469 0 420 0H24Z" glyph-name="B" horiz-adv-x="700" unicode="B" /><glyph d="M311 -12Q261 -12 213 -1Q165 10 127.5 34.5Q90 59 67 99Q44 139 44 197Q44 211 45.5 223.5Q47 236 49 250Q50 255 52.5 271.5Q55 288 59 310Q63 332 67.5 357Q72 382 76 404Q80 426 82.5 442.5Q85 459 86 464Q98 528 131 577Q164 626 211.5 659Q259 692 317 708.5Q375 725 437 725Q482 725 528.5 715Q575 705 612 682Q649 659 672.5 622.5Q696 586 696 533Q696 513 693 493Q690 473 686 453H501Q503 462 504 471Q505 480 505 490Q505 529 477.5 548.5Q450 568 414 568Q364 568 329 541Q294 514 285 463Q284 458 281 442Q278 426 274 404Q270 382 266 357.5Q262 333 258 311Q254 289 251.5 273Q249 257 248 252Q247 246 246.5 239.5Q246 233 246 227Q246 184 273.5 164.5Q301 145 341 145Q387 145 420.5 171Q454 197 463 242Q464 243 464 245Q464 249 465 251Q466 255 467 260H652L645 221Q634 161 601.5 117Q569 73 523 44.5Q477 16 422 2Q367 -12 311 -12Z" glyph-name="C" horiz-adv-x="677" unicode="C" /><glyph d="M482 942H657L482 756H360ZM311 -12Q261 -12 213 -1Q165 10 127.5 34.5Q90 59 67 99Q44 139 44 197Q44 211 45.5 223.5Q47 236 49 250Q50 255 52.5 271.5Q55 288 59 310Q63 332 67.5 357Q72 382 76 404Q80 426 82.5 442.5Q85 459 86 464Q98 528 131 577Q164 626 211.5 659Q259 692 317 708.5Q375 725 437 725Q482 725 528.5 715Q575 705 612 682Q649 659 672.5 622.5Q696 586 696 533Q696 513 693 493Q690 473 686 453H501Q503 462 504 471Q505 480 505 490Q505 529 477.5 548.5Q450 568 414 568Q364 568 329 541Q294 514 285 463Q284 458 281 442Q278 426 274 404Q270 382 266 357.5Q262 333 258 311Q254 289 251.5 273Q249 257 248 252Q247 246 246.5 239.5Q246 233 246 227Q246 184 273.5 164.5Q301 145 341 145Q387 145 420.5 171Q454 197 463 242Q464 243 464 245Q464 249 465 251Q466 255 467 260H652L645 221Q634 161 601.5 117Q569 73 523 44.5Q477 16 422 2Q367 -12 311 -12Z" glyph-name="Cacute" horiz-adv-x="677" unicode="&#262;" /><glyph d="M259 946H401L438 856L511 946H652L487 760H350ZM311 -12Q261 -12 213 -1Q165 10 127.5 34.5Q90 59 67 99Q44 139 44 197Q44 211 45.5 223.5Q47 236 49 250Q50 255 52.5 271.5Q55 288 59 310Q63 332 67.5 357Q72 382 76 404Q80 426 82.5 442.5Q85 459 86 464Q98 528 131 577Q164 626 211.5 659Q259 692 317 708.5Q375 725 437 725Q482 725 528.5 715Q575 705 612 682Q649 659 672.5 622.5Q696 586 696 533Q696 513 693 493Q690 473 686 453H501Q503 462 504 471Q505 480 505 490Q505 529 477.5 548.5Q450 568 414 568Q364 568 329 541Q294 514 285 463Q284 458 281 442Q278 426 274 404Q270 382 266 357.5Q262 333 258 311Q254 289 251.5 273Q249 257 248 252Q247 246 246.5 239.5Q246 233 246 227Q246 184 273.5 164.5Q301 145 341 145Q387 145 420.5 171Q454 197 463 242Q464 243 464 245Q464 249 465 251Q466 255 467 260H652L645 221Q634 161 601.5 117Q569 73 523 44.5Q477 16 422 2Q367 -12 311 -12Z" glyph-name="Ccaron" horiz-adv-x="677" unicode="&#268;" /><glyph d="M287 -219Q263 -219 233 -215Q203 -211 174 -203L187 -128Q214 -135 242.5 -139.5Q271 -144 290 -144Q339 -144 339 -115Q339 -102 323.5 -100Q308 -98 294 -96L246 -94L280 -11Q234 -8 191 5Q148 18 115 42.5Q82 67 62.5 105Q43 143 43 197Q43 211 44.5 223.5Q46 236 48 250L85 464Q97 528 130 577Q163 626 210.5 659Q258 692 316 708.5Q374 725 436 725Q481 725 527.5 715Q574 705 611 682Q648 659 671.5 622.5Q695 586 695 533Q695 513 692 493Q689 473 685 453H500Q502 462 503 471Q504 480 504 490Q504 529 476.5 548.5Q449 568 413 568Q363 568 328 541Q293 514 284 463Q283 458 280 442Q277 426 273 404Q269 382 265 357.5Q261 333 257 311Q253 289 250.5 273Q248 257 247 252Q246 246 245.5 239.5Q245 233 245 227Q245 184 272.5 164.5Q300 145 340 145Q386 145 419.5 171Q453 197 462 242Q463 243 463 245Q463 249 464 251Q465 255 466 260H651L644 221Q634 167 606 125.5Q578 84 539 55.5Q500 27 452 11Q404 -5 353 -10L343 -36Q362 -36 383.5 -38.5Q405 -41 423 -48.5Q441 -56 453 -69Q465 -82 465 -103Q465 -131 450 -152.5Q435 -174 410 -189Q385 -204 353 -211.5Q321 -219 287 -219Z" glyph-name="Ccedilla" horiz-adv-x="676" unicode="&#199;" /><glyph d="M391 942H527L619 756H476L439 845L367 756H226ZM311 -12Q261 -12 213 -1Q165 10 127.5 34.5Q90 59 67 99Q44 139 44 197Q44 211 45.5 223.5Q47 236 49 250Q50 255 52.5 271.5Q55 288 59 310Q63 332 67.5 357Q72 382 76 404Q80 426 82.5 442.5Q85 459 86 464Q98 528 131 577Q164 626 211.5 659Q259 692 317 708.5Q375 725 437 725Q482 725 528.5 715Q575 705 612 682Q649 659 672.5 622.5Q696 586 696 533Q696 513 693 493Q690 473 686 453H501Q503 462 504 471Q505 480 505 490Q505 529 477.5 548.5Q450 568 414 568Q364 568 329 541Q294 514 285 463Q284 458 281 442Q278 426 274 404Q270 382 266 357.5Q262 333 258 311Q254 289 251.5 273Q249 257 248 252Q247 246 246.5 239.5Q246 233 246 227Q246 184 273.5 164.5Q301 145 341 145Q387 145 420.5 171Q454 197 463 242Q464 243 464 245Q464 249 465 251Q466 255 467 260H652L645 221Q634 161 601.5 117Q569 73 523 44.5Q477 16 422 2Q367 -12 311 -12Z" glyph-name="Ccircumflex" horiz-adv-x="677" unicode="&#264;" /><glyph d="M384 920H546L517 757H355ZM311 -12Q261 -12 213 -1Q165 10 127.5 34.5Q90 59 67 99Q44 139 44 197Q44 211 45.5 223.5Q47 236 49 250Q50 255 52.5 271.5Q55 288 59 310Q63 332 67.5 357Q72 382 76 404Q80 426 82.5 442.5Q85 459 86 464Q98 528 131 577Q164 626 211.5 659Q259 692 317 708.5Q375 725 437 725Q482 725 528.5 715Q575 705 612 682Q649 659 672.5 622.5Q696 586 696 533Q696 513 693 493Q690 473 686 453H501Q503 462 504 471Q505 480 505 490Q505 529 477.5 548.5Q450 568 414 568Q364 568 329 541Q294 514 285 463Q284 458 281 442Q278 426 274 404Q270 382 266 357.5Q262 333 258 311Q254 289 251.5 273Q249 257 248 252Q247 246 246.5 239.5Q246 233 246 227Q246 184 273.5 164.5Q301 145 341 145Q387 145 420.5 171Q454 197 463 242Q464 243 464 245Q464 249 465 251Q466 255 467 260H652L645 221Q634 161 601.5 117Q569 73 523 44.5Q477 16 422 2Q367 -12 311 -12Z" glyph-name="Cdotaccent" horiz-adv-x="677" unicode="&#266;" /><glyph d="M345 157Q393 157 427.5 184Q462 211 470 259Q471 263 473.5 278Q476 293 479.5 313Q483 333 487 356Q491 379 494.5 399Q498 419 500.5 434Q503 449 504 454Q505 459 505.5 463.5Q506 468 506 473Q506 515 477 535.5Q448 556 410 556H319L249 157ZM150 713H455Q503 713 548.5 701Q594 689 630 664Q666 639 688 600Q710 561 710 506Q710 493 708.5 480Q707 467 705 455Q696 403 685.5 347Q675 291 666 238Q654 174 624 128.5Q594 83 549.5 54.5Q505 26 449.5 13Q394 0 331 0H24Z" glyph-name="D" horiz-adv-x="700" unicode="D" /><glyph d="M261 946H403L440 856L513 946H654L489 760H352ZM345 157Q393 157 427.5 184Q462 211 470 259Q471 263 473.5 278Q476 293 479.5 313Q483 333 487 356Q491 379 494.5 399Q498 419 500.5 434Q503 449 504 454Q505 459 505.5 463.5Q506 468 506 473Q506 515 477 535.5Q448 556 410 556H319L249 157ZM150 713H455Q503 713 548.5 701Q594 689 630 664Q666 639 688 600Q710 561 710 506Q710 493 708.5 480Q707 467 705 455Q696 403 685.5 347Q675 291 666 238Q654 174 624 128.5Q594 83 549.5 54.5Q505 26 449.5 13Q394 0 331 0H24Z" glyph-name="Dcaron" horiz-adv-x="700" unicode="&#270;" /><glyph d="M357 157Q405 157 440 184Q475 211 483 259L517 454Q518 459 518.5 464Q519 469 519 474Q519 516 490 536Q461 556 422 556H332L308 423H415L392 292H285L262 157ZM88 292H30L53 423H111L163 713H468Q516 713 561.5 701Q607 689 642.5 664Q678 639 700 600Q722 561 722 506Q722 493 721 480Q720 467 718 455Q715 435 709.5 406.5Q704 378 698.5 347Q693 316 687.5 287Q682 258 679 238Q667 174 636.5 128.5Q606 83 562 54.5Q518 26 462 13Q406 0 344 0H37Z" glyph-name="Dcroat" horiz-adv-x="712" unicode="&#272;" /><glyph d="M464 151 414 521H410L235 151ZM6 75 340 714H562L668 76L654 0H-7Z" glyph-name="Delta" horiz-adv-x="728" unicode="&#8710;" /><glyph d="M150 713H686L659 557H320L298 435H575L548 281H271L249 157H589L561 0H24Z" glyph-name="E" horiz-adv-x="645" unicode="E" /><glyph d="M466 942H641L466 756H344ZM150 713H686L659 557H320L298 435H575L548 281H271L249 157H589L561 0H24Z" glyph-name="Eacute" horiz-adv-x="645" unicode="&#201;" /><glyph d="M418 757Q343 757 302 796.5Q261 836 261 903Q261 910 261 916.5Q261 923 263 931H370Q372 900 385 880Q398 860 431 860Q499 860 523 931H638Q621 844 562 800.5Q503 757 418 757ZM150 713H686L659 557H320L298 435H575L548 281H271L249 157H589L561 0H24Z" glyph-name="Ebreve" horiz-adv-x="645" unicode="&#276;" /><glyph d="M255 946H397L434 856L507 946H648L483 760H346ZM150 713H686L659 557H320L298 435H575L548 281H271L249 157H589L561 0H24Z" glyph-name="Ecaron" horiz-adv-x="645" unicode="&#282;" /><glyph d="M387 942H523L615 756H472L435 845L363 756H222ZM150 713H686L659 557H320L298 435H575L548 281H271L249 157H589L561 0H24Z" glyph-name="Ecircumflex" horiz-adv-x="645" unicode="&#202;" /><glyph d="M482 920H640L611 757H453ZM258 920H416L387 757H229ZM150 713H686L659 557H320L298 435H575L548 281H271L249 157H589L561 0H24Z" glyph-name="Edieresis" horiz-adv-x="645" unicode="&#203;" /><glyph d="M368 920H530L501 757H339ZM150 713H686L659 557H320L298 435H575L548 281H271L249 157H589L561 0H24Z" glyph-name="Edotaccent" horiz-adv-x="645" unicode="&#278;" /><glyph d="M246 942H421L477 756H355ZM150 713H686L659 557H320L298 435H575L548 281H271L249 157H589L561 0H24Z" glyph-name="Egrave" horiz-adv-x="645" unicode="&#200;" /><glyph d="M270 896H623L600 767H247ZM150 713H686L659 557H320L298 435H575L548 281H271L249 157H589L561 0H24Z" glyph-name="Emacron" horiz-adv-x="645" unicode="&#274;" /><glyph d="M436 -192Q413 -192 397 -190.5Q381 -189 363 -186L386 -56Q391 -56 399.5 -56.5Q408 -57 413 -57Q436 -57 447.5 -45Q459 -33 463 -13L469 23L277 404H274L204 0H24L150 713H326L527 334H529L594 713H774L643 -28Q635 -70 615.5 -101Q596 -132 568 -152.5Q540 -173 506 -182.5Q472 -192 436 -192Z" glyph-name="Eng" horiz-adv-x="739" unicode="&#330;" /><glyph d="M150 713H686L659 557H320L298 435H575L548 281H271L249 157H589L561 0Q529 -4 502.5 -12.5Q476 -21 457 -33Q438 -45 428 -59Q418 -73 418 -88Q418 -102 427 -109.5Q436 -117 457 -117Q468 -117 486.5 -112Q505 -107 523 -97L546 -190Q516 -204 479.5 -214.5Q443 -225 400 -225Q343 -225 315.5 -203Q288 -181 288 -146Q288 -101 316.5 -64Q345 -27 388 0H24Z" glyph-name="Eogonek" horiz-adv-x="645" unicode="&#280;" /><glyph d="M357 157Q405 157 440 184Q475 211 483 259L517 454Q518 459 518.5 464Q519 469 519 474Q519 516 490 536Q461 556 422 556H332L308 423H415L392 292H285L262 157ZM88 292H30L53 423H111L163 713H468Q516 713 561.5 701Q607 689 642.5 664Q678 639 700 600Q722 561 722 506Q722 493 721 480Q720 467 718 455Q715 435 709.5 406.5Q704 378 698.5 347Q693 316 687.5 287Q682 258 679 238Q667 174 636.5 128.5Q606 83 562 54.5Q518 26 462 13Q406 0 344 0H37Z" glyph-name="Eth" horiz-adv-x="712" unicode="&#208;" /><glyph d="M380 -12Q330 -12 284.5 -1Q239 10 204.5 34Q170 58 149.5 97Q129 136 129 192Q129 203 129.5 214Q130 225 132 236H44L60 326H147L158 393H71L88 482H175Q189 542 220 587Q251 632 295 663Q339 694 393 709.5Q447 725 506 725Q551 725 597 715Q643 705 680.5 682Q718 659 741.5 622.5Q765 586 765 533Q765 513 761.5 493Q758 473 754 453H569Q571 462 572.5 471.5Q574 481 574 490Q574 529 546 548.5Q518 568 482 568Q439 568 412 546Q385 524 374 482H521L504 393H357L346 326H493L477 236H330Q330 232 329.5 228Q329 224 329 220Q329 181 350 163Q371 145 409 145Q460 145 495.5 177Q531 209 534 260H720Q718 249 716 238Q714 227 712 216Q699 157 666 114Q633 71 588 43Q543 15 489 1.5Q435 -12 380 -12Z" glyph-name="Euro" horiz-adv-x="749" unicode="&#8364;" /><glyph d="M285 -12Q240 -12 200.5 -0.5Q161 11 131.5 35Q102 59 85 96.5Q68 134 68 187Q68 207 71 230L72 235H26L42 330H89L99 389H52L69 483H116L117 487Q130 546 160.5 590.5Q191 635 231 665Q271 695 318.5 710Q366 725 414 725Q454 725 493 714.5Q532 704 562 681.5Q592 659 610.5 623.5Q629 588 629 539Q629 528 627.5 515.5Q626 503 624 489L617 451H456L461 480Q462 486 462.5 492Q463 498 463 503Q463 538 441 553Q419 568 389 568Q356 568 332.5 546.5Q309 525 301 486V483H420L403 389H283L273 330H393L376 235H256L255 229Q254 224 253.5 218.5Q253 213 253 208Q253 179 270 162.5Q287 146 321 146Q359 146 383.5 166.5Q408 187 418 237L423 262H584L577 222Q566 159 536 115Q506 71 465 42.5Q424 14 377 1Q330 -12 285 -12Z" glyph-name="Euro.tf" horiz-adv-x="590" /><glyph d="M150 713H682L655 557H320L297 426H567L540 270H269L222 0H24Z" glyph-name="F" horiz-adv-x="618" unicode="F" /><glyph d="M311 -12Q261 -12 213 -1Q165 10 127.5 35Q90 60 67 100Q44 140 44 197Q44 222 49 250Q58 304 67.5 357Q77 410 86 464Q98 528 131 577Q164 626 211.5 659Q259 692 317 708.5Q375 725 437 725Q482 725 528.5 715Q575 705 613 682.5Q651 660 675 623.5Q699 587 699 534Q699 517 696.5 500Q694 483 691 466H507Q508 474 509.5 482Q511 490 511 498Q511 518 503 532.5Q495 547 482.5 556Q470 565 453.5 569.5Q437 574 419 574Q369 574 332.5 547Q296 520 286 469Q276 415 267 361Q258 307 248 252Q247 246 246.5 239.5Q246 233 246 227Q246 184 272 162.5Q298 141 340 141Q397 141 426.5 166Q456 191 465 245L466 255H342L365 391H679Q672 349 664.5 306.5Q657 264 649 221Q638 161 605 117Q572 73 525 44.5Q478 16 422 2Q366 -12 311 -12Z" glyph-name="G" horiz-adv-x="685" unicode="G" /><glyph d="M460 757Q385 757 344 796.5Q303 836 303 903Q303 910 303 916.5Q303 923 305 931H412Q414 900 427 880Q440 860 473 860Q541 860 565 931H680Q663 844 604 800.5Q545 757 460 757ZM311 -12Q261 -12 213 -1Q165 10 127.5 35Q90 60 67 100Q44 140 44 197Q44 222 49 250Q58 304 67.5 357Q77 410 86 464Q98 528 131 577Q164 626 211.5 659Q259 692 317 708.5Q375 725 437 725Q482 725 528.5 715Q575 705 613 682.5Q651 660 675 623.5Q699 587 699 534Q699 517 696.5 500Q694 483 691 466H507Q508 474 509.5 482Q511 490 511 498Q511 518 503 532.5Q495 547 482.5 556Q470 565 453.5 569.5Q437 574 419 574Q369 574 332.5 547Q296 520 286 469Q276 415 267 361Q258 307 248 252Q247 246 246.5 239.5Q246 233 246 227Q246 184 272 162.5Q298 141 340 141Q397 141 426.5 166Q456 191 465 245L466 255H342L365 391H679Q672 349 664.5 306.5Q657 264 649 221Q638 161 605 117Q572 73 525 44.5Q478 16 422 2Q366 -12 311 -12Z" glyph-name="Gbreve" horiz-adv-x="685" unicode="&#286;" /><glyph d="M424 942H560L652 756H509L472 845L400 756H259ZM311 -12Q261 -12 213 -1Q165 10 127.5 35Q90 60 67 100Q44 140 44 197Q44 222 49 250Q58 304 67.5 357Q77 410 86 464Q98 528 131 577Q164 626 211.5 659Q259 692 317 708.5Q375 725 437 725Q482 725 528.5 715Q575 705 613 682.5Q651 660 675 623.5Q699 587 699 534Q699 517 696.5 500Q694 483 691 466H507Q508 474 509.5 482Q511 490 511 498Q511 518 503 532.5Q495 547 482.5 556Q470 565 453.5 569.5Q437 574 419 574Q369 574 332.5 547Q296 520 286 469Q276 415 267 361Q258 307 248 252Q247 246 246.5 239.5Q246 233 246 227Q246 184 272 162.5Q298 141 340 141Q397 141 426.5 166Q456 191 465 245L466 255H342L365 391H679Q672 349 664.5 306.5Q657 264 649 221Q638 161 605 117Q572 73 525 44.5Q478 16 422 2Q366 -12 311 -12Z" glyph-name="Gcircumflex" horiz-adv-x="685" unicode="&#284;" /><glyph d="M232 -33H394L325 -197H191ZM311 -12Q261 -12 213 -1Q165 10 127.5 35Q90 60 67 100Q44 140 44 197Q44 222 49 250Q58 304 67.5 357Q77 410 86 464Q98 528 131 577Q164 626 211.5 659Q259 692 317 708.5Q375 725 437 725Q482 725 528.5 715Q575 705 613 682.5Q651 660 675 623.5Q699 587 699 534Q699 517 696.5 500Q694 483 691 466H507Q508 474 509.5 482Q511 490 511 498Q511 518 503 532.5Q495 547 482.5 556Q470 565 453.5 569.5Q437 574 419 574Q369 574 332.5 547Q296 520 286 469Q276 415 267 361Q258 307 248 252Q247 246 246.5 239.5Q246 233 246 227Q246 184 272 162.5Q298 141 340 141Q397 141 426.5 166Q456 191 465 245L466 255H342L365 391H679Q672 349 664.5 306.5Q657 264 649 221Q638 161 605 117Q572 73 525 44.5Q478 16 422 2Q366 -12 311 -12Z" glyph-name="Gcommaaccent" horiz-adv-x="685" unicode="&#290;" /><glyph d="M402 920H564L535 757H373ZM311 -12Q261 -12 213 -1Q165 10 127.5 35Q90 60 67 100Q44 140 44 197Q44 222 49 250Q58 304 67.5 357Q77 410 86 464Q98 528 131 577Q164 626 211.5 659Q259 692 317 708.5Q375 725 437 725Q482 725 528.5 715Q575 705 613 682.5Q651 660 675 623.5Q699 587 699 534Q699 517 696.5 500Q694 483 691 466H507Q508 474 509.5 482Q511 490 511 498Q511 518 503 532.5Q495 547 482.5 556Q470 565 453.5 569.5Q437 574 419 574Q369 574 332.5 547Q296 520 286 469Q276 415 267 361Q258 307 248 252Q247 246 246.5 239.5Q246 233 246 227Q246 184 272 162.5Q298 141 340 141Q397 141 426.5 166Q456 191 465 245L466 255H342L365 391H679Q672 349 664.5 306.5Q657 264 649 221Q638 161 605 117Q572 73 525 44.5Q478 16 422 2Q366 -12 311 -12Z" glyph-name="Gdotaccent" horiz-adv-x="685" unicode="&#288;" /><glyph d="M150 713H347L300 447H510L557 713H755L629 0H431L480 275H270L221 0H24Z" glyph-name="H" horiz-adv-x="720" unicode="H" /><glyph d="M544 447 557 522H347L334 447ZM114 627H168L184 713H381L366 627H576L591 713H789L773 627H826L807 522H755L663 0H465L514 275H304L255 0H58L150 522H95Z" glyph-name="Hbar" horiz-adv-x="776" unicode="&#294;" /><glyph d="M418 942H554L646 756H503L466 845L394 756H253ZM150 713H347L300 447H510L557 713H755L629 0H431L480 275H270L221 0H24Z" glyph-name="Hcircumflex" horiz-adv-x="720" unicode="&#292;" /><glyph d="M150 713H347L221 0H24Z" glyph-name="I" horiz-adv-x="312" unicode="I" /><glyph d="M29 120H136L226 593H118L141 713H558L535 593H426L337 120H446L423 0H6Z" glyph-name="I.alt" horiz-adv-x="508" /><glyph d="M542 -12Q495 -12 451 -2.5Q407 7 373 28.5Q339 50 319 86Q299 122 299 175Q299 195 302 217.5Q305 240 310 264H492Q489 251 487 237.5Q485 224 485 210Q485 173 506 158.5Q527 144 562 144Q607 144 631.5 169Q656 194 664 236L748 713H946L862 241Q851 179 822.5 132Q794 85 752 53Q710 21 656.5 4.5Q603 -12 542 -12ZM150 713H347L221 0H24Z" glyph-name="IJ" horiz-adv-x="909" unicode="&#306;" /><glyph d="M29 120H136L226 593H118L141 713H558L535 593H426L337 120H446L423 0H6ZM721 -12Q674 -12 630 -2.5Q586 7 552 28.5Q518 50 498 86Q478 122 478 175Q478 195 481 217.5Q484 240 489 264H671Q668 251 666 237.5Q664 224 664 210Q664 173 685 158.5Q706 144 741 144Q786 144 810.5 169Q835 194 843 236L927 713H1125L1041 241Q1030 179 1001.5 132Q973 85 931 53Q889 21 835.5 4.5Q782 -12 721 -12Z" glyph-name="IJ.alt" horiz-adv-x="1088" /><glyph d="M305 942H480L305 756H183ZM150 713H347L221 0H24Z" glyph-name="Iacute" horiz-adv-x="312" unicode="&#205;" /><glyph d="M387 942H562L387 756H265ZM29 120H136L226 593H118L141 713H558L535 593H426L337 120H446L423 0H6Z" glyph-name="Iacute.alt" horiz-adv-x="508" /><glyph d="M264 757Q189 757 148 796.5Q107 836 107 903Q107 910 107 916.5Q107 923 109 931H216Q218 900 231 880Q244 860 277 860Q345 860 369 931H484Q467 844 408 800.5Q349 757 264 757ZM150 713H347L221 0H24Z" glyph-name="Ibreve" horiz-adv-x="312" unicode="&#300;" /><glyph d="M340 757Q265 757 224 796.5Q183 836 183 903Q183 910 183 916.5Q183 923 185 931H292Q294 900 307 880Q320 860 353 860Q421 860 445 931H560Q543 844 484 800.5Q425 757 340 757ZM29 120H136L226 593H118L141 713H558L535 593H426L337 120H446L423 0H6Z" glyph-name="Ibreve.alt" horiz-adv-x="508" /><glyph d="M214 942H350L442 756H299L262 845L190 756H49ZM150 713H347L221 0H24Z" glyph-name="Icircumflex" horiz-adv-x="312" unicode="&#206;" /><glyph d="M327 942H463L555 756H412L375 845L303 756H162ZM29 120H136L226 593H118L141 713H558L535 593H426L337 120H446L423 0H6Z" glyph-name="Icircumflex.alt" horiz-adv-x="508" /><glyph d="M309 920H467L438 757H280ZM85 920H243L214 757H56ZM150 713H347L221 0H24Z" glyph-name="Idieresis" horiz-adv-x="312" unicode="&#207;" /><glyph d="M419 920H577L548 757H390ZM195 920H353L324 757H166ZM29 120H136L226 593H118L141 713H558L535 593H426L337 120H446L423 0H6Z" glyph-name="Idieresis.alt" horiz-adv-x="508" /><glyph d="M207 920H369L340 757H178ZM150 713H347L221 0H24Z" glyph-name="Idotaccent" horiz-adv-x="312" unicode="&#304;" /><glyph d="M277 920H439L410 757H248ZM29 120H136L226 593H118L141 713H558L535 593H426L337 120H446L423 0H6Z" glyph-name="Idotaccent.alt" horiz-adv-x="508" /><glyph d="M73 942H248L304 756H182ZM150 713H347L221 0H24Z" glyph-name="Igrave" horiz-adv-x="312" unicode="&#204;" /><glyph d="M155 942H330L386 756H264ZM29 120H136L226 593H118L141 713H558L535 593H426L337 120H446L423 0H6Z" glyph-name="Igrave.alt" horiz-adv-x="508" /><glyph d="M106 896H459L436 767H83ZM150 713H347L221 0H24Z" glyph-name="Imacron" horiz-adv-x="312" unicode="&#298;" /><glyph d="M190 896H543L520 767H167ZM29 120H136L226 593H118L141 713H558L535 593H426L337 120H446L423 0H6Z" glyph-name="Imacron.alt" horiz-adv-x="508" /><glyph d="M-13 -146Q-13 -126 -7 -107.5Q-1 -89 10 -72L150 713H347L221 0Q198 -5 179 -14.5Q160 -24 146 -36Q132 -48 124.5 -61.5Q117 -75 117 -88Q117 -102 126 -109.5Q135 -117 156 -117Q167 -117 185.5 -112Q204 -107 222 -97L245 -190Q215 -204 178.5 -214.5Q142 -225 99 -225Q42 -225 14.5 -203Q-13 -181 -13 -146Z" glyph-name="Iogonek" horiz-adv-x="312" unicode="&#302;" /><glyph d="M29 120H136L226 593H118L141 713H558L535 593H426L337 120H446L423 0H341Q315 0 292 -8.5Q269 -17 251.5 -29.5Q234 -42 223.5 -57.5Q213 -73 213 -88Q213 -102 222 -109.5Q231 -117 252 -117Q263 -117 281.5 -112Q300 -107 318 -97L341 -190Q311 -204 274.5 -214.5Q238 -225 195 -225Q138 -225 110.5 -203Q83 -181 83 -146Q83 -101 111.5 -64Q140 -27 183 0H6Z" glyph-name="Iogonek.alt" horiz-adv-x="508" /><glyph d="M19 773Q29 803 45 830Q61 857 83 877Q105 897 131.5 909Q158 921 189 921Q212 921 233.5 915.5Q255 910 276 904Q297 898 318.5 892.5Q340 887 363 887Q386 887 395 903Q404 919 415 940L504 915Q495 887 480.5 860.5Q466 834 446 813.5Q426 793 400 780.5Q374 768 342 768Q319 768 297 773Q275 778 254 784.5Q233 791 213 796Q193 801 174 801Q152 801 140.5 790.5Q129 780 114 751ZM150 713H347L221 0H24Z" glyph-name="Itilde" horiz-adv-x="312" unicode="&#296;" /><glyph d="M127 773Q137 803 153 830Q169 857 191 877Q213 897 239.5 909Q266 921 297 921Q320 921 341.5 915.5Q363 910 384 904Q405 898 426.5 892.5Q448 887 471 887Q494 887 503 903Q512 919 523 940L612 915Q603 887 588.5 860.5Q574 834 554 813.5Q534 793 508 780.5Q482 768 450 768Q427 768 405 773Q383 778 362 784.5Q341 791 321 796Q301 801 282 801Q260 801 248.5 790.5Q237 780 222 751ZM29 120H136L226 593H118L141 713H558L535 593H426L337 120H446L423 0H6Z" glyph-name="Itilde.alt" horiz-adv-x="508" /><glyph d="M265 -12Q218 -12 174 -2.5Q130 7 96 28.5Q62 50 42 86Q22 122 22 175Q22 195 25 217.5Q28 240 33 264H215Q212 251 210 237.5Q208 224 208 210Q208 173 229 158.5Q250 144 285 144Q330 144 354.5 169Q379 194 387 236L471 713H669L585 241Q574 179 545.5 132Q517 85 475 53Q433 21 379.5 4.5Q326 -12 265 -12Z" glyph-name="J" horiz-adv-x="632" unicode="J" /><glyph d="M532 942H668L760 756H617L580 845L508 756H367ZM265 -12Q218 -12 174 -2.5Q130 7 96 28.5Q62 50 42 86Q22 122 22 175Q22 195 25 217.5Q28 240 33 264H215Q212 251 210 237.5Q208 224 208 210Q208 173 229 158.5Q250 144 285 144Q330 144 354.5 169Q379 194 387 236L471 713H669L585 241Q574 179 545.5 132Q517 85 475 53Q433 21 379.5 4.5Q326 -12 265 -12Z" glyph-name="Jcircumflex" horiz-adv-x="632" unicode="&#308;" /><glyph d="M150 713H347L289 389H291L578 713H776L506 417L668 0H460L349 291L257 199L221 0H24Z" glyph-name="K" horiz-adv-x="702" unicode="K" /><glyph d="M255 -33H417L348 -197H214ZM150 713H347L289 389H291L578 713H776L506 417L668 0H460L349 291L257 199L221 0H24Z" glyph-name="Kcommaaccent" horiz-adv-x="702" unicode="&#310;" /><glyph d="M150 713H347L249 157H584L556 0H24Z" glyph-name="L" horiz-adv-x="613" unicode="L" /><glyph d="M316 942H491L316 756H194ZM150 713H347L249 157H584L556 0H24Z" glyph-name="Lacute" horiz-adv-x="613" unicode="&#313;" /><glyph d="M422 713H574L509 555H394ZM150 713H347L249 157H584L556 0H24Z" glyph-name="Lcaron" horiz-adv-x="613" unicode="&#317;" /><glyph d="M246 -33H408L339 -197H205ZM150 713H347L249 157H584L556 0H24Z" glyph-name="Lcommaaccent" horiz-adv-x="613" unicode="&#315;" /><glyph d="M150 713H347L249 157H584L556 0H24ZM426 493H609L582 339H399Z" glyph-name="Ldot" horiz-adv-x="613" unicode="&#319;" /><glyph d="M42 331 103 364 165 713H362L321 482L419 535L397 411L299 358L264 157H599L571 0H39L81 239L21 206Z" glyph-name="Lslash" horiz-adv-x="628" unicode="&#321;" /><glyph d="M150 713H396L460 376H463L649 713H896L770 0H590L669 446H663L481 104H351L285 445H282L203 0H24Z" glyph-name="M" horiz-adv-x="861" unicode="M" /><glyph d="M150 713H326L527 334H529L594 713H774L648 0H481L277 404H274L204 0H24Z" glyph-name="N" horiz-adv-x="739" unicode="N" /><glyph d="M509 942H684L509 756H387ZM150 713H326L527 334H529L594 713H774L648 0H481L277 404H274L204 0H24Z" glyph-name="Nacute" horiz-adv-x="739" unicode="&#323;" /><glyph d="M295 946H437L474 856L547 946H688L523 760H386ZM150 713H326L527 334H529L594 713H774L648 0H481L277 404H274L204 0H24Z" glyph-name="Ncaron" horiz-adv-x="739" unicode="&#327;" /><glyph d="M283 -33H445L376 -197H242ZM150 713H326L527 334H529L594 713H774L648 0H481L277 404H274L204 0H24Z" glyph-name="Ncommaaccent" horiz-adv-x="739" unicode="&#325;" /><glyph d="M250 773Q260 803 276 830Q292 857 314 877Q336 897 362.5 909Q389 921 420 921Q443 921 464.5 915.5Q486 910 507 904Q528 898 549.5 892.5Q571 887 594 887Q617 887 626 903Q635 919 646 940L735 915Q726 887 711.5 860.5Q697 834 677 813.5Q657 793 631 780.5Q605 768 573 768Q550 768 528 773Q506 778 485 784.5Q464 791 444 796Q424 801 405 801Q383 801 371.5 790.5Q360 780 345 751ZM150 713H326L527 334H529L594 713H774L648 0H481L277 404H274L204 0H24Z" glyph-name="Ntilde" horiz-adv-x="739" unicode="&#209;" /><glyph d="M341 146Q392 146 426 176Q460 206 469 255Q470 262 475.5 292Q481 322 487 357Q493 392 498.5 422Q504 452 505 459Q506 465 506.5 471.5Q507 478 507 483Q507 525 479 546Q451 567 412 567Q358 567 325.5 538.5Q293 510 284 459Q283 454 280 438.5Q277 423 273.5 402.5Q270 382 266 358.5Q262 335 258.5 314.5Q255 294 252 278.5Q249 263 248 258Q245 244 245 230Q245 186 272 166Q299 146 341 146ZM311 -12Q260 -12 212 -1.5Q164 9 126.5 33.5Q89 58 66.5 98Q44 138 44 197Q44 212 45 226.5Q46 241 49 256Q50 261 52.5 276Q55 291 58.5 311Q62 331 66 353.5Q70 376 73.5 396Q77 416 79.5 431Q82 446 83 451Q95 517 128 568Q161 619 208 654Q255 689 314 707Q373 725 438 725Q490 725 538.5 713.5Q587 702 624.5 676.5Q662 651 684.5 610Q707 569 707 510Q707 495 706 480.5Q705 466 702 452Q701 447 698.5 432.5Q696 418 692.5 398.5Q689 379 685 356.5Q681 334 677.5 314.5Q674 295 671.5 280.5Q669 266 668 262Q656 194 623 143Q590 92 542.5 57.5Q495 23 435.5 5.5Q376 -12 311 -12Z" glyph-name="O" horiz-adv-x="697" unicode="O" /><glyph d="M433 160 503 554H409Q361 554 328.5 529Q296 504 286 447L254 270Q251 255 251 242Q251 160 342 160ZM295 0Q242 0 196.5 11Q151 22 117.5 46.5Q84 71 65 109.5Q46 148 46 203Q46 233 52 269L82 439Q94 509 125.5 560.5Q157 612 202 646Q247 680 302 696.5Q357 713 417 713H1070L1043 555H704L683 437H960L932 279H655L634 159H973L946 0Z" glyph-name="OE" horiz-adv-x="1030" unicode="&#338;" /><glyph d="M488 942H663L488 756H366ZM341 146Q392 146 426 176Q460 206 469 255Q470 262 475.5 292Q481 322 487 357Q493 392 498.5 422Q504 452 505 459Q506 465 506.5 471.5Q507 478 507 483Q507 525 479 546Q451 567 412 567Q358 567 325.5 538.5Q293 510 284 459Q283 454 280 438.5Q277 423 273.5 402.5Q270 382 266 358.5Q262 335 258.5 314.5Q255 294 252 278.5Q249 263 248 258Q245 244 245 230Q245 186 272 166Q299 146 341 146ZM311 -12Q260 -12 212 -1.5Q164 9 126.5 33.5Q89 58 66.5 98Q44 138 44 197Q44 212 45 226.5Q46 241 49 256Q50 261 52.5 276Q55 291 58.5 311Q62 331 66 353.5Q70 376 73.5 396Q77 416 79.5 431Q82 446 83 451Q95 517 128 568Q161 619 208 654Q255 689 314 707Q373 725 438 725Q490 725 538.5 713.5Q587 702 624.5 676.5Q662 651 684.5 610Q707 569 707 510Q707 495 706 480.5Q705 466 702 452Q701 447 698.5 432.5Q696 418 692.5 398.5Q689 379 685 356.5Q681 334 677.5 314.5Q674 295 671.5 280.5Q669 266 668 262Q656 194 623 143Q590 92 542.5 57.5Q495 23 435.5 5.5Q376 -12 311 -12Z" glyph-name="Oacute" horiz-adv-x="697" unicode="&#211;" /><glyph d="M428 757Q353 757 312 796.5Q271 836 271 903Q271 910 271 916.5Q271 923 273 931H380Q382 900 395 880Q408 860 441 860Q509 860 533 931H648Q631 844 572 800.5Q513 757 428 757ZM341 146Q392 146 426 176Q460 206 469 255Q470 262 475.5 292Q481 322 487 357Q493 392 498.5 422Q504 452 505 459Q506 465 506.5 471.5Q507 478 507 483Q507 525 479 546Q451 567 412 567Q358 567 325.5 538.5Q293 510 284 459Q283 454 280 438.5Q277 423 273.5 402.5Q270 382 266 358.5Q262 335 258.5 314.5Q255 294 252 278.5Q249 263 248 258Q245 244 245 230Q245 186 272 166Q299 146 341 146ZM311 -12Q260 -12 212 -1.5Q164 9 126.5 33.5Q89 58 66.5 98Q44 138 44 197Q44 212 45 226.5Q46 241 49 256Q50 261 52.5 276Q55 291 58.5 311Q62 331 66 353.5Q70 376 73.5 396Q77 416 79.5 431Q82 446 83 451Q95 517 128 568Q161 619 208 654Q255 689 314 707Q373 725 438 725Q490 725 538.5 713.5Q587 702 624.5 676.5Q662 651 684.5 610Q707 569 707 510Q707 495 706 480.5Q705 466 702 452Q701 447 698.5 432.5Q696 418 692.5 398.5Q689 379 685 356.5Q681 334 677.5 314.5Q674 295 671.5 280.5Q669 266 668 262Q656 194 623 143Q590 92 542.5 57.5Q495 23 435.5 5.5Q376 -12 311 -12Z" glyph-name="Obreve" horiz-adv-x="697" unicode="&#334;" /><glyph d="M397 942H533L625 756H482L445 845L373 756H232ZM341 146Q392 146 426 176Q460 206 469 255Q470 262 475.5 292Q481 322 487 357Q493 392 498.5 422Q504 452 505 459Q506 465 506.5 471.5Q507 478 507 483Q507 525 479 546Q451 567 412 567Q358 567 325.5 538.5Q293 510 284 459Q283 454 280 438.5Q277 423 273.5 402.5Q270 382 266 358.5Q262 335 258.5 314.5Q255 294 252 278.5Q249 263 248 258Q245 244 245 230Q245 186 272 166Q299 146 341 146ZM311 -12Q260 -12 212 -1.5Q164 9 126.5 33.5Q89 58 66.5 98Q44 138 44 197Q44 212 45 226.5Q46 241 49 256Q50 261 52.5 276Q55 291 58.5 311Q62 331 66 353.5Q70 376 73.5 396Q77 416 79.5 431Q82 446 83 451Q95 517 128 568Q161 619 208 654Q255 689 314 707Q373 725 438 725Q490 725 538.5 713.5Q587 702 624.5 676.5Q662 651 684.5 610Q707 569 707 510Q707 495 706 480.5Q705 466 702 452Q701 447 698.5 432.5Q696 418 692.5 398.5Q689 379 685 356.5Q681 334 677.5 314.5Q674 295 671.5 280.5Q669 266 668 262Q656 194 623 143Q590 92 542.5 57.5Q495 23 435.5 5.5Q376 -12 311 -12Z" glyph-name="Ocircumflex" horiz-adv-x="697" unicode="&#212;" /><glyph d="M492 920H650L621 757H463ZM268 920H426L397 757H239ZM341 146Q392 146 426 176Q460 206 469 255Q470 262 475.5 292Q481 322 487 357Q493 392 498.5 422Q504 452 505 459Q506 465 506.5 471.5Q507 478 507 483Q507 525 479 546Q451 567 412 567Q358 567 325.5 538.5Q293 510 284 459Q283 454 280 438.5Q277 423 273.5 402.5Q270 382 266 358.5Q262 335 258.5 314.5Q255 294 252 278.5Q249 263 248 258Q245 244 245 230Q245 186 272 166Q299 146 341 146ZM311 -12Q260 -12 212 -1.5Q164 9 126.5 33.5Q89 58 66.5 98Q44 138 44 197Q44 212 45 226.5Q46 241 49 256Q50 261 52.5 276Q55 291 58.5 311Q62 331 66 353.5Q70 376 73.5 396Q77 416 79.5 431Q82 446 83 451Q95 517 128 568Q161 619 208 654Q255 689 314 707Q373 725 438 725Q490 725 538.5 713.5Q587 702 624.5 676.5Q662 651 684.5 610Q707 569 707 510Q707 495 706 480.5Q705 466 702 452Q701 447 698.5 432.5Q696 418 692.5 398.5Q689 379 685 356.5Q681 334 677.5 314.5Q674 295 671.5 280.5Q669 266 668 262Q656 194 623 143Q590 92 542.5 57.5Q495 23 435.5 5.5Q376 -12 311 -12Z" glyph-name="Odieresis" horiz-adv-x="697" unicode="&#214;" /><glyph d="M256 942H431L487 756H365ZM341 146Q392 146 426 176Q460 206 469 255Q470 262 475.5 292Q481 322 487 357Q493 392 498.5 422Q504 452 505 459Q506 465 506.5 471.5Q507 478 507 483Q507 525 479 546Q451 567 412 567Q358 567 325.5 538.5Q293 510 284 459Q283 454 280 438.5Q277 423 273.5 402.5Q270 382 266 358.5Q262 335 258.5 314.5Q255 294 252 278.5Q249 263 248 258Q245 244 245 230Q245 186 272 166Q299 146 341 146ZM311 -12Q260 -12 212 -1.5Q164 9 126.5 33.5Q89 58 66.5 98Q44 138 44 197Q44 212 45 226.5Q46 241 49 256Q50 261 52.5 276Q55 291 58.5 311Q62 331 66 353.5Q70 376 73.5 396Q77 416 79.5 431Q82 446 83 451Q95 517 128 568Q161 619 208 654Q255 689 314 707Q373 725 438 725Q490 725 538.5 713.5Q587 702 624.5 676.5Q662 651 684.5 610Q707 569 707 510Q707 495 706 480.5Q705 466 702 452Q701 447 698.5 432.5Q696 418 692.5 398.5Q689 379 685 356.5Q681 334 677.5 314.5Q674 295 671.5 280.5Q669 266 668 262Q656 194 623 143Q590 92 542.5 57.5Q495 23 435.5 5.5Q376 -12 311 -12Z" glyph-name="Ograve" horiz-adv-x="697" unicode="&#210;" /><glyph d="M592 942H751L600 756H488ZM392 942H551L400 756H288ZM341 146Q392 146 426 176Q460 206 469 255Q470 262 475.5 292Q481 322 487 357Q493 392 498.5 422Q504 452 505 459Q506 465 506.5 471.5Q507 478 507 483Q507 525 479 546Q451 567 412 567Q358 567 325.5 538.5Q293 510 284 459Q283 454 280 438.5Q277 423 273.5 402.5Q270 382 266 358.5Q262 335 258.5 314.5Q255 294 252 278.5Q249 263 248 258Q245 244 245 230Q245 186 272 166Q299 146 341 146ZM311 -12Q260 -12 212 -1.5Q164 9 126.5 33.5Q89 58 66.5 98Q44 138 44 197Q44 212 45 226.5Q46 241 49 256Q50 261 52.5 276Q55 291 58.5 311Q62 331 66 353.5Q70 376 73.5 396Q77 416 79.5 431Q82 446 83 451Q95 517 128 568Q161 619 208 654Q255 689 314 707Q373 725 438 725Q490 725 538.5 713.5Q587 702 624.5 676.5Q662 651 684.5 610Q707 569 707 510Q707 495 706 480.5Q705 466 702 452Q701 447 698.5 432.5Q696 418 692.5 398.5Q689 379 685 356.5Q681 334 677.5 314.5Q674 295 671.5 280.5Q669 266 668 262Q656 194 623 143Q590 92 542.5 57.5Q495 23 435.5 5.5Q376 -12 311 -12Z" glyph-name="Ohungarumlaut" horiz-adv-x="697" unicode="&#336;" /><glyph d="M280 896H633L610 767H257ZM341 146Q392 146 426 176Q460 206 469 255Q470 262 475.5 292Q481 322 487 357Q493 392 498.5 422Q504 452 505 459Q506 465 506.5 471.5Q507 478 507 483Q507 525 479 546Q451 567 412 567Q358 567 325.5 538.5Q293 510 284 459Q283 454 280 438.5Q277 423 273.5 402.5Q270 382 266 358.5Q262 335 258.5 314.5Q255 294 252 278.5Q249 263 248 258Q245 244 245 230Q245 186 272 166Q299 146 341 146ZM311 -12Q260 -12 212 -1.5Q164 9 126.5 33.5Q89 58 66.5 98Q44 138 44 197Q44 212 45 226.5Q46 241 49 256Q50 261 52.5 276Q55 291 58.5 311Q62 331 66 353.5Q70 376 73.5 396Q77 416 79.5 431Q82 446 83 451Q95 517 128 568Q161 619 208 654Q255 689 314 707Q373 725 438 725Q490 725 538.5 713.5Q587 702 624.5 676.5Q662 651 684.5 610Q707 569 707 510Q707 495 706 480.5Q705 466 702 452Q701 447 698.5 432.5Q696 418 692.5 398.5Q689 379 685 356.5Q681 334 677.5 314.5Q674 295 671.5 280.5Q669 266 668 262Q656 194 623 143Q590 92 542.5 57.5Q495 23 435.5 5.5Q376 -12 311 -12Z" glyph-name="Omacron" horiz-adv-x="697" unicode="&#332;" /><glyph d="M38 159 194 158 196 169Q175 179 152.5 194.5Q130 210 111.5 234Q93 258 81 291Q69 324 69 368Q69 382 70 397.5Q71 413 75 436Q86 500 115.5 553Q145 606 190.5 644Q236 682 298 703.5Q360 725 437 725Q506 725 557 709Q608 693 641.5 664Q675 635 691.5 594.5Q708 554 708 505Q708 493 705.5 468.5Q703 444 700 427Q690 368 665.5 324Q641 280 610 249Q579 218 546 198.5Q513 179 486 169L484 163L643 164L615 0H340L367 158Q392 177 410 192.5Q428 208 441 229Q454 250 463.5 280.5Q473 311 482 360L498 446Q499 451 500.5 460Q502 469 502 483Q502 521 475.5 543.5Q449 566 409 566Q364 566 329 541Q294 516 283 455L267 369Q262 338 258.5 315Q255 292 255 275Q255 235 269.5 210Q284 185 312 158L285 0H11Z" glyph-name="Omega" horiz-adv-x="703" unicode="&#8486;" /><glyph d="M341 146Q392 146 426 176Q460 206 469 255Q470 260 473.5 280Q477 300 481.5 325.5Q486 351 491 378.5Q496 406 499 427L282 159Q305 146 341 146ZM284 459Q282 453 278.5 431Q275 409 270 381Q265 353 260 324.5Q255 296 252 278L473 550Q448 567 412 567Q358 567 325.5 538.5Q293 510 284 459ZM311 -12Q271 -12 233.5 -6Q196 0 163 14L106 -57L29 4L84 71Q65 94 54.5 125.5Q44 157 44 197Q44 212 45 226.5Q46 241 49 256Q50 261 52.5 276Q55 291 58.5 311Q62 331 66 353.5Q70 376 73.5 396Q77 416 79.5 431Q82 446 83 451Q95 517 128 568Q161 619 208 654Q255 689 314 707Q373 725 438 725Q480 725 518.5 718Q557 711 591 695L650 767L727 707L668 634Q686 610 696.5 579.5Q707 549 707 510Q707 495 706 480.5Q705 466 702 452Q701 447 698.5 432.5Q696 418 692.5 398.5Q689 379 685 356.5Q681 334 677.5 314.5Q674 295 671.5 280.5Q669 266 668 262Q656 194 623 143Q590 92 542.5 57.5Q495 23 435.5 5.5Q376 -12 311 -12Z" glyph-name="Oslash" horiz-adv-x="697" unicode="&#216;" /><glyph d="M488 942H663L488 756H366ZM341 146Q392 146 426 176Q460 206 469 255Q470 260 473.5 280Q477 300 481.5 325.5Q486 351 491 378.5Q496 406 499 427L282 159Q305 146 341 146ZM284 459Q282 453 278.5 431Q275 409 270 381Q265 353 260 324.5Q255 296 252 278L473 550Q448 567 412 567Q358 567 325.5 538.5Q293 510 284 459ZM311 -12Q271 -12 233.5 -6Q196 0 163 14L106 -57L29 4L84 71Q65 94 54.5 125.5Q44 157 44 197Q44 212 45 226.5Q46 241 49 256Q50 261 52.5 276Q55 291 58.5 311Q62 331 66 353.5Q70 376 73.5 396Q77 416 79.5 431Q82 446 83 451Q95 517 128 568Q161 619 208 654Q255 689 314 707Q373 725 438 725Q480 725 518.5 718Q557 711 591 695L650 767L727 707L668 634Q686 610 696.5 579.5Q707 549 707 510Q707 495 706 480.5Q705 466 702 452Q701 447 698.5 432.5Q696 418 692.5 398.5Q689 379 685 356.5Q681 334 677.5 314.5Q674 295 671.5 280.5Q669 266 668 262Q656 194 623 143Q590 92 542.5 57.5Q495 23 435.5 5.5Q376 -12 311 -12Z" glyph-name="Oslashacute" horiz-adv-x="697" unicode="&#510;" /><glyph d="M202 773Q212 803 228 830Q244 857 266 877Q288 897 314.5 909Q341 921 372 921Q395 921 416.5 915.5Q438 910 459 904Q480 898 501.5 892.5Q523 887 546 887Q569 887 578 903Q587 919 598 940L687 915Q678 887 663.5 860.5Q649 834 629 813.5Q609 793 583 780.5Q557 768 525 768Q502 768 480 773Q458 778 437 784.5Q416 791 396 796Q376 801 357 801Q335 801 323.5 790.5Q312 780 297 751ZM341 146Q392 146 426 176Q460 206 469 255Q470 262 475.5 292Q481 322 487 357Q493 392 498.5 422Q504 452 505 459Q506 465 506.5 471.5Q507 478 507 483Q507 525 479 546Q451 567 412 567Q358 567 325.5 538.5Q293 510 284 459Q283 454 280 438.5Q277 423 273.5 402.5Q270 382 266 358.5Q262 335 258.5 314.5Q255 294 252 278.5Q249 263 248 258Q245 244 245 230Q245 186 272 166Q299 146 341 146ZM311 -12Q260 -12 212 -1.5Q164 9 126.5 33.5Q89 58 66.5 98Q44 138 44 197Q44 212 45 226.5Q46 241 49 256Q50 261 52.5 276Q55 291 58.5 311Q62 331 66 353.5Q70 376 73.5 396Q77 416 79.5 431Q82 446 83 451Q95 517 128 568Q161 619 208 654Q255 689 314 707Q373 725 438 725Q490 725 538.5 713.5Q587 702 624.5 676.5Q662 651 684.5 610Q707 569 707 510Q707 495 706 480.5Q705 466 702 452Q701 447 698.5 432.5Q696 418 692.5 398.5Q689 379 685 356.5Q681 334 677.5 314.5Q674 295 671.5 280.5Q669 266 668 262Q656 194 623 143Q590 92 542.5 57.5Q495 23 435.5 5.5Q376 -12 311 -12Z" glyph-name="Otilde" horiz-adv-x="697" unicode="&#213;" /><glyph d="M393 385Q439 385 471.5 413.5Q504 442 504 490Q504 527 481 544.5Q458 562 425 562H321L289 385ZM150 713H487Q531 713 570 699.5Q609 686 638 660Q667 634 684 595.5Q701 557 701 507Q701 444 678 394Q655 344 615 309Q575 274 520.5 255.5Q466 237 404 237H263L221 0H24Z" glyph-name="P" horiz-adv-x="680" unicode="P" /><glyph d="M341 146Q392 146 426 176Q460 206 469 255Q470 262 475.5 292Q481 322 487 357Q493 392 498.5 422Q504 452 505 459Q506 465 506.5 471.5Q507 478 507 483Q507 525 479 546Q451 567 412 567Q358 567 325.5 538.5Q293 510 284 459Q283 454 280 438.5Q277 423 273.5 402.5Q270 382 266 358.5Q262 335 258.5 314.5Q255 294 252 278.5Q249 263 248 258Q245 244 245 230Q245 186 272 166Q299 146 341 146ZM344 -10Q336 -11 327.5 -11.5Q319 -12 311 -12Q260 -12 212 -1.5Q164 9 126.5 33.5Q89 58 66.5 98Q44 138 44 197Q44 212 45 226.5Q46 241 49 256Q50 261 52.5 276Q55 291 58.5 311Q62 331 66 353.5Q70 376 73.5 396Q77 416 79.5 431Q82 446 83 451Q95 517 128 568Q161 619 208 654Q255 689 314 707Q373 725 438 725Q490 725 538.5 713.5Q587 702 624.5 676.5Q662 651 684.5 610Q707 569 707 510Q707 495 706 480.5Q705 466 702 452Q701 447 698.5 432.5Q696 418 692.5 398.5Q689 379 685 356.5Q681 334 677.5 314.5Q674 295 671.5 280.5Q669 266 668 262Q656 197 625.5 147Q595 97 550 63L638 20L511 -126Z" glyph-name="Q" horiz-adv-x="697" unicode="Q" /><glyph d="M390 385Q437 385 469.5 413Q502 441 502 489Q502 528 479 545Q456 562 422 562H321L289 385ZM150 713H470Q516 713 557.5 700.5Q599 688 630.5 663Q662 638 680.5 599.5Q699 561 699 509Q699 467 686.5 429.5Q674 392 651.5 361.5Q629 331 596.5 309Q564 287 524 276L630 0H422L340 245H265L221 0H24Z" glyph-name="R" horiz-adv-x="690" unicode="R" /><glyph d="M457 942H632L457 756H335ZM390 385Q437 385 469.5 413Q502 441 502 489Q502 528 479 545Q456 562 422 562H321L289 385ZM150 713H470Q516 713 557.5 700.5Q599 688 630.5 663Q662 638 680.5 599.5Q699 561 699 509Q699 467 686.5 429.5Q674 392 651.5 361.5Q629 331 596.5 309Q564 287 524 276L630 0H422L340 245H265L221 0H24Z" glyph-name="Racute" horiz-adv-x="690" unicode="&#340;" /><glyph d="M245 946H387L424 856L497 946H638L473 760H336ZM390 385Q437 385 469.5 413Q502 441 502 489Q502 528 479 545Q456 562 422 562H321L289 385ZM150 713H470Q516 713 557.5 700.5Q599 688 630.5 663Q662 638 680.5 599.5Q699 561 699 509Q699 467 686.5 429.5Q674 392 651.5 361.5Q629 331 596.5 309Q564 287 524 276L630 0H422L340 245H265L221 0H24Z" glyph-name="Rcaron" horiz-adv-x="690" unicode="&#344;" /><glyph d="M258 -33H420L351 -197H217ZM390 385Q437 385 469.5 413Q502 441 502 489Q502 528 479 545Q456 562 422 562H321L289 385ZM150 713H470Q516 713 557.5 700.5Q599 688 630.5 663Q662 638 680.5 599.5Q699 561 699 509Q699 467 686.5 429.5Q674 392 651.5 361.5Q629 331 596.5 309Q564 287 524 276L630 0H422L340 245H265L221 0H24Z" glyph-name="Rcommaaccent" horiz-adv-x="690" unicode="&#342;" /><glyph d="M296 -12Q254 -12 213.5 -7Q173 -2 134.5 11Q96 24 61 45Q26 66 -4 98L115 217Q147 180 195 158Q243 136 292 136Q307 136 325.5 138.5Q344 141 359.5 147.5Q375 154 386 166Q397 178 397 198Q397 221 377.5 234Q358 247 329 258Q283 274 240.5 291.5Q198 309 166 333Q134 357 114.5 391.5Q95 426 95 477Q95 535 116 580.5Q137 626 174.5 658Q212 690 262 707Q312 724 371 724Q449 724 517.5 702.5Q586 681 642 622L526 510Q502 538 461.5 555.5Q421 573 384 573Q368 573 351 570.5Q334 568 319.5 562Q305 556 296 545Q287 534 287 516Q287 500 299 488.5Q311 477 328.5 468.5Q346 460 365.5 454Q385 448 400 442Q434 429 470 413Q506 397 535.5 373.5Q565 350 583.5 316.5Q602 283 602 236Q602 169 576 122Q550 75 507 45Q464 15 409 1.5Q354 -12 296 -12Z" glyph-name="S" horiz-adv-x="635" unicode="S" /><glyph d="M440 942H615L440 756H318ZM296 -12Q254 -12 213.5 -7Q173 -2 134.5 11Q96 24 61 45Q26 66 -4 98L115 217Q147 180 195 158Q243 136 292 136Q307 136 325.5 138.5Q344 141 359.5 147.5Q375 154 386 166Q397 178 397 198Q397 221 377.5 234Q358 247 329 258Q283 274 240.5 291.5Q198 309 166 333Q134 357 114.5 391.5Q95 426 95 477Q95 535 116 580.5Q137 626 174.5 658Q212 690 262 707Q312 724 371 724Q449 724 517.5 702.5Q586 681 642 622L526 510Q502 538 461.5 555.5Q421 573 384 573Q368 573 351 570.5Q334 568 319.5 562Q305 556 296 545Q287 534 287 516Q287 500 299 488.5Q311 477 328.5 468.5Q346 460 365.5 454Q385 448 400 442Q434 429 470 413Q506 397 535.5 373.5Q565 350 583.5 316.5Q602 283 602 236Q602 169 576 122Q550 75 507 45Q464 15 409 1.5Q354 -12 296 -12Z" glyph-name="Sacute" horiz-adv-x="635" unicode="&#346;" /><glyph d="M208 946H350L387 856L460 946H601L436 760H299ZM296 -12Q254 -12 213.5 -7Q173 -2 134.5 11Q96 24 61 45Q26 66 -4 98L115 217Q147 180 195 158Q243 136 292 136Q307 136 325.5 138.5Q344 141 359.5 147.5Q375 154 386 166Q397 178 397 198Q397 221 377.5 234Q358 247 329 258Q283 274 240.5 291.5Q198 309 166 333Q134 357 114.5 391.5Q95 426 95 477Q95 535 116 580.5Q137 626 174.5 658Q212 690 262 707Q312 724 371 724Q449 724 517.5 702.5Q586 681 642 622L526 510Q502 538 461.5 555.5Q421 573 384 573Q368 573 351 570.5Q334 568 319.5 562Q305 556 296 545Q287 534 287 516Q287 500 299 488.5Q311 477 328.5 468.5Q346 460 365.5 454Q385 448 400 442Q434 429 470 413Q506 397 535.5 373.5Q565 350 583.5 316.5Q602 283 602 236Q602 169 576 122Q550 75 507 45Q464 15 409 1.5Q354 -12 296 -12Z" glyph-name="Scaron" horiz-adv-x="635" unicode="&#352;" /><glyph d="M245 -219Q221 -219 191 -215Q161 -211 132 -203L145 -128Q172 -135 200.5 -139.5Q229 -144 248 -144Q297 -144 297 -115Q297 -102 281.5 -100Q266 -98 252 -96L204 -94L238 -9Q170 -3 108.5 20.5Q47 44 -4 98L115 217Q147 180 195 158Q243 136 292 136Q307 136 325.5 138.5Q344 141 359.5 147.5Q375 154 386 166Q397 178 397 198Q397 223 377 236Q357 249 331 258Q286 274 243.5 290.5Q201 307 168 331Q135 355 115 389.5Q95 424 95 477Q95 535 116 580.5Q137 626 174.5 658Q212 690 262 707Q312 724 371 724Q449 724 517.5 702.5Q586 681 642 622L526 510Q502 538 461.5 555.5Q421 573 384 573Q368 573 351 570.5Q334 568 319.5 562Q305 556 296 545Q287 534 287 516Q287 500 299 488.5Q311 477 328.5 468.5Q346 460 365.5 453.5Q385 447 400 442Q436 429 472 413Q508 397 537 373.5Q566 350 584 316.5Q602 283 602 236Q602 171 577.5 125Q553 79 512.5 49Q472 19 419 4.5Q366 -10 310 -12L301 -36Q320 -36 341.5 -38.5Q363 -41 381 -48.5Q399 -56 411 -69Q423 -82 423 -103Q423 -131 408 -152.5Q393 -174 368 -189Q343 -204 311 -211.5Q279 -219 245 -219Z" glyph-name="Scedilla" horiz-adv-x="635" unicode="&#350;" /><glyph d="M366 942H502L594 756H451L414 845L342 756H201ZM296 -12Q254 -12 213.5 -7Q173 -2 134.5 11Q96 24 61 45Q26 66 -4 98L115 217Q147 180 195 158Q243 136 292 136Q307 136 325.5 138.5Q344 141 359.5 147.5Q375 154 386 166Q397 178 397 198Q397 221 377.5 234Q358 247 329 258Q283 274 240.5 291.5Q198 309 166 333Q134 357 114.5 391.5Q95 426 95 477Q95 535 116 580.5Q137 626 174.5 658Q212 690 262 707Q312 724 371 724Q449 724 517.5 702.5Q586 681 642 622L526 510Q502 538 461.5 555.5Q421 573 384 573Q368 573 351 570.5Q334 568 319.5 562Q305 556 296 545Q287 534 287 516Q287 500 299 488.5Q311 477 328.5 468.5Q346 460 365.5 454Q385 448 400 442Q434 429 470 413Q506 397 535.5 373.5Q565 350 583.5 316.5Q602 283 602 236Q602 169 576 122Q550 75 507 45Q464 15 409 1.5Q354 -12 296 -12Z" glyph-name="Scircumflex" horiz-adv-x="635" unicode="&#348;" /><glyph d="M217 -33H379L310 -197H176ZM296 -12Q254 -12 213.5 -7Q173 -2 134.5 11Q96 24 61 45Q26 66 -4 98L115 217Q147 180 195 158Q243 136 292 136Q307 136 325.5 138.5Q344 141 359.5 147.5Q375 154 386 166Q397 178 397 198Q397 221 377.5 234Q358 247 329 258Q283 274 240.5 291.5Q198 309 166 333Q134 357 114.5 391.5Q95 426 95 477Q95 535 116 580.5Q137 626 174.5 658Q212 690 262 707Q312 724 371 724Q449 724 517.5 702.5Q586 681 642 622L526 510Q502 538 461.5 555.5Q421 573 384 573Q368 573 351 570.5Q334 568 319.5 562Q305 556 296 545Q287 534 287 516Q287 500 299 488.5Q311 477 328.5 468.5Q346 460 365.5 454Q385 448 400 442Q434 429 470 413Q506 397 535.5 373.5Q565 350 583.5 316.5Q602 283 602 236Q602 169 576 122Q550 75 507 45Q464 15 409 1.5Q354 -12 296 -12Z" glyph-name="Scommaaccent" horiz-adv-x="635" unicode="&#536;" /><glyph d="M287 558H87L114 713H714L686 558H486L387 0H189Z" glyph-name="T" horiz-adv-x="650" unicode="T" /><glyph d="M151 390H257L287 558H87L114 713H714L686 558H486L456 390H564L541 262H433L387 0H189L235 262H128Z" glyph-name="Tbar" horiz-adv-x="650" unicode="&#358;" /><glyph d="M247 946H389L426 856L499 946H640L475 760H338ZM287 558H87L114 713H714L686 558H486L387 0H189Z" glyph-name="Tcaron" horiz-adv-x="650" unicode="&#356;" /><glyph d="M287 558H87L114 713H714L686 558H486L387 0H323L309 -36Q328 -36 349.5 -38.5Q371 -41 389 -48.5Q407 -56 419 -69Q431 -82 431 -103Q431 -131 416 -152.5Q401 -174 376 -189Q351 -204 319 -211.5Q287 -219 253 -219Q229 -219 199 -215Q169 -211 140 -203L153 -128Q180 -135 208.5 -139.5Q237 -144 256 -144Q305 -144 305 -115Q305 -102 289.5 -100Q274 -98 260 -96L212 -94L250 0H189Z" glyph-name="Tcommaaccent" horiz-adv-x="650" unicode="&#354;" /><glyph d="M374 284Q423 284 453.5 311Q484 338 484 384Q484 414 462.5 431.5Q441 449 403 449H301L271 284ZM149 713H347L325 590H462Q517 590 558 575.5Q599 561 626 535.5Q653 510 666.5 475.5Q680 441 680 400Q680 348 660 301.5Q640 255 602 220.5Q564 186 509 165.5Q454 145 384 145H247L222 0H24Z" glyph-name="Thorn" horiz-adv-x="680" unicode="&#222;" /><glyph d="M317 -13Q266 -13 219 -0.5Q172 12 136 37.5Q100 63 79 103Q58 143 58 198Q58 215 59.5 227Q61 239 64 255L145 713H342L264 266Q262 258 261.5 248Q261 238 261 230Q261 185 285.5 165Q310 145 354 145Q461 145 482 266L560 713H751Q749 703 743 669Q737 635 729 588Q721 541 712 487.5Q703 434 695 387Q687 340 681 306Q675 272 673 262Q661 190 628 138.5Q595 87 547.5 53Q500 19 441 3Q382 -13 317 -13Z" glyph-name="U" horiz-adv-x="717" unicode="U" /><glyph d="M495 942H670L495 756H373ZM317 -13Q266 -13 219 -0.5Q172 12 136 37.5Q100 63 79 103Q58 143 58 198Q58 215 59.5 227Q61 239 64 255L145 713H342L264 266Q262 258 261.5 248Q261 238 261 230Q261 185 285.5 165Q310 145 354 145Q461 145 482 266L560 713H751Q749 703 743 669Q737 635 729 588Q721 541 712 487.5Q703 434 695 387Q687 340 681 306Q675 272 673 262Q661 190 628 138.5Q595 87 547.5 53Q500 19 441 3Q382 -13 317 -13Z" glyph-name="Uacute" horiz-adv-x="717" unicode="&#218;" /><glyph d="M435 757Q360 757 319 796.5Q278 836 278 903Q278 910 278 916.5Q278 923 280 931H387Q389 900 402 880Q415 860 448 860Q516 860 540 931H655Q638 844 579 800.5Q520 757 435 757ZM317 -13Q266 -13 219 -0.5Q172 12 136 37.5Q100 63 79 103Q58 143 58 198Q58 215 59.5 227Q61 239 64 255L145 713H342L264 266Q262 258 261.5 248Q261 238 261 230Q261 185 285.5 165Q310 145 354 145Q461 145 482 266L560 713H751Q749 703 743 669Q737 635 729 588Q721 541 712 487.5Q703 434 695 387Q687 340 681 306Q675 272 673 262Q661 190 628 138.5Q595 87 547.5 53Q500 19 441 3Q382 -13 317 -13Z" glyph-name="Ubreve" horiz-adv-x="717" unicode="&#364;" /><glyph d="M417 942H553L645 756H502L465 845L393 756H252ZM317 -13Q266 -13 219 -0.5Q172 12 136 37.5Q100 63 79 103Q58 143 58 198Q58 215 59.5 227Q61 239 64 255L145 713H342L264 266Q262 258 261.5 248Q261 238 261 230Q261 185 285.5 165Q310 145 354 145Q461 145 482 266L560 713H751Q749 703 743 669Q737 635 729 588Q721 541 712 487.5Q703 434 695 387Q687 340 681 306Q675 272 673 262Q661 190 628 138.5Q595 87 547.5 53Q500 19 441 3Q382 -13 317 -13Z" glyph-name="Ucircumflex" horiz-adv-x="717" unicode="&#219;" /><glyph d="M510 920H668L639 757H481ZM286 920H444L415 757H257ZM317 -13Q266 -13 219 -0.5Q172 12 136 37.5Q100 63 79 103Q58 143 58 198Q58 215 59.5 227Q61 239 64 255L145 713H342L264 266Q262 258 261.5 248Q261 238 261 230Q261 185 285.5 165Q310 145 354 145Q461 145 482 266L560 713H751Q749 703 743 669Q737 635 729 588Q721 541 712 487.5Q703 434 695 387Q687 340 681 306Q675 272 673 262Q661 190 628 138.5Q595 87 547.5 53Q500 19 441 3Q382 -13 317 -13Z" glyph-name="Udieresis" horiz-adv-x="717" unicode="&#220;" /><glyph d="M283 942H458L514 756H392ZM317 -13Q266 -13 219 -0.5Q172 12 136 37.5Q100 63 79 103Q58 143 58 198Q58 215 59.5 227Q61 239 64 255L145 713H342L264 266Q262 258 261.5 248Q261 238 261 230Q261 185 285.5 165Q310 145 354 145Q461 145 482 266L560 713H751Q749 703 743 669Q737 635 729 588Q721 541 712 487.5Q703 434 695 387Q687 340 681 306Q675 272 673 262Q661 190 628 138.5Q595 87 547.5 53Q500 19 441 3Q382 -13 317 -13Z" glyph-name="Ugrave" horiz-adv-x="717" unicode="&#217;" /><glyph d="M594 942H753L602 756H490ZM394 942H553L402 756H290ZM317 -13Q266 -13 219 -0.5Q172 12 136 37.5Q100 63 79 103Q58 143 58 198Q58 215 59.5 227Q61 239 64 255L145 713H342L264 266Q262 258 261.5 248Q261 238 261 230Q261 185 285.5 165Q310 145 354 145Q461 145 482 266L560 713H751Q749 703 743 669Q737 635 729 588Q721 541 712 487.5Q703 434 695 387Q687 340 681 306Q675 272 673 262Q661 190 628 138.5Q595 87 547.5 53Q500 19 441 3Q382 -13 317 -13Z" glyph-name="Uhungarumlaut" horiz-adv-x="717" unicode="&#368;" /><glyph d="M287 896H640L617 767H264ZM317 -13Q266 -13 219 -0.5Q172 12 136 37.5Q100 63 79 103Q58 143 58 198Q58 215 59.5 227Q61 239 64 255L145 713H342L264 266Q262 258 261.5 248Q261 238 261 230Q261 185 285.5 165Q310 145 354 145Q461 145 482 266L560 713H751Q749 703 743 669Q737 635 729 588Q721 541 712 487.5Q703 434 695 387Q687 340 681 306Q675 272 673 262Q661 190 628 138.5Q595 87 547.5 53Q500 19 441 3Q382 -13 317 -13Z" glyph-name="Umacron" horiz-adv-x="717" unicode="&#362;" /><glyph d="M309 -225Q252 -225 224.5 -203Q197 -181 197 -146Q197 -106 220.5 -71.5Q244 -37 280 -11Q235 -7 194.5 7Q154 21 123.5 47Q93 73 75.5 110.5Q58 148 58 198Q58 215 59.5 227Q61 239 64 255L145 713H342L264 266Q262 258 261.5 248Q261 238 261 230Q261 185 285.5 165Q310 145 354 145Q461 145 482 266L560 713H751L673 262Q663 203 639 157.5Q615 112 580 79.5Q545 47 501 26Q457 5 407 -4Q372 -18 349.5 -41.5Q327 -65 327 -88Q327 -102 336 -109.5Q345 -117 366 -117Q377 -117 395.5 -112Q414 -107 432 -97L455 -190Q425 -204 388.5 -214.5Q352 -225 309 -225Z" glyph-name="Uogonek" horiz-adv-x="717" unicode="&#370;" /><glyph d="M469 806Q495 806 513 822.5Q531 839 531 865Q531 882 519 893Q507 904 486 904Q463 904 444 887.5Q425 871 425 847Q425 829 437 817.5Q449 806 469 806ZM459 749Q414 749 384.5 771.5Q355 794 355 833Q355 860 367.5 883Q380 906 400 923Q420 940 445 949.5Q470 959 496 959Q542 959 571.5 938.5Q601 918 601 878Q601 851 589 827.5Q577 804 557 786.5Q537 769 511.5 759Q486 749 459 749ZM317 -13Q266 -13 219 -0.5Q172 12 136 37.5Q100 63 79 103Q58 143 58 198Q58 215 59.5 227Q61 239 64 255L145 713H342L264 266Q262 258 261.5 248Q261 238 261 230Q261 185 285.5 165Q310 145 354 145Q461 145 482 266L560 713H751Q749 703 743 669Q737 635 729 588Q721 541 712 487.5Q703 434 695 387Q687 340 681 306Q675 272 673 262Q661 190 628 138.5Q595 87 547.5 53Q500 19 441 3Q382 -13 317 -13Z" glyph-name="Uring" horiz-adv-x="717" unicode="&#366;" /><glyph d="M209 773Q219 803 235 830Q251 857 273 877Q295 897 321.5 909Q348 921 379 921Q402 921 423.5 915.5Q445 910 466 904Q487 898 508.5 892.5Q530 887 553 887Q576 887 585 903Q594 919 605 940L694 915Q685 887 670.5 860.5Q656 834 636 813.5Q616 793 590 780.5Q564 768 532 768Q509 768 487 773Q465 778 444 784.5Q423 791 403 796Q383 801 364 801Q342 801 330.5 790.5Q319 780 304 751ZM317 -13Q266 -13 219 -0.5Q172 12 136 37.5Q100 63 79 103Q58 143 58 198Q58 215 59.5 227Q61 239 64 255L145 713H342L264 266Q262 258 261.5 248Q261 238 261 230Q261 185 285.5 165Q310 145 354 145Q461 145 482 266L560 713H751Q749 703 743 669Q737 635 729 588Q721 541 712 487.5Q703 434 695 387Q687 340 681 306Q675 272 673 262Q661 190 628 138.5Q595 87 547.5 53Q500 19 441 3Q382 -13 317 -13Z" glyph-name="Utilde" horiz-adv-x="717" unicode="&#360;" /><glyph d="M95 713H291L333 219H338L560 713H750L395 -1H191Z" glyph-name="V" horiz-adv-x="669" unicode="V" /><glyph d="M95 713H286L307 309H311L481 713H654L677 308H679L842 713H1028L727 -1H542L510 425H506L322 -1H146Z" glyph-name="W" horiz-adv-x="963" unicode="W" /><glyph d="M613 942H788L613 756H491ZM95 713H286L307 309H311L481 713H654L677 308H679L842 713H1028L727 -1H542L510 425H506L322 -1H146Z" glyph-name="Wacute" horiz-adv-x="963" unicode="&#7810;" /><glyph d="M522 942H658L750 756H607L570 845L498 756H357ZM95 713H286L307 309H311L481 713H654L677 308H679L842 713H1028L727 -1H542L510 425H506L322 -1H146Z" glyph-name="Wcircumflex" horiz-adv-x="963" unicode="&#372;" /><glyph d="M617 920H775L746 757H588ZM393 920H551L522 757H364ZM95 713H286L307 309H311L481 713H654L677 308H679L842 713H1028L727 -1H542L510 425H506L322 -1H146Z" glyph-name="Wdieresis" horiz-adv-x="963" unicode="&#7812;" /><glyph d="M399 942H574L630 756H508ZM95 713H286L307 309H311L481 713H654L677 308H679L842 713H1028L727 -1H542L510 425H506L322 -1H146Z" glyph-name="Wgrave" horiz-adv-x="963" unicode="&#7808;" /><glyph d="M248 369 110 713H310L389 497L542 713H740L476 365L626 0H426L336 235L169 0H-32Z" glyph-name="X" horiz-adv-x="667" unicode="X" /><glyph d="M241 280 86 713H285L374 438L550 713H746L438 279L389 0H192Z" glyph-name="Y" horiz-adv-x="654" unicode="Y" /><glyph d="M469 942H644L469 756H347ZM241 280 86 713H285L374 438L550 713H746L438 279L389 0H192Z" glyph-name="Yacute" horiz-adv-x="654" unicode="&#221;" /><glyph d="M378 942H514L606 756H463L426 845L354 756H213ZM241 280 86 713H285L374 438L550 713H746L438 279L389 0H192Z" glyph-name="Ycircumflex" horiz-adv-x="654" unicode="&#374;" /><glyph d="M473 920H631L602 757H444ZM249 920H407L378 757H220ZM241 280 86 713H285L374 438L550 713H746L438 279L389 0H192Z" glyph-name="Ydieresis" horiz-adv-x="654" unicode="&#376;" /><glyph d="M237 942H412L468 756H346ZM241 280 86 713H285L374 438L550 713H746L438 279L389 0H192Z" glyph-name="Ygrave" horiz-adv-x="654" unicode="&#7922;" /><glyph d="M24 122 416 558H114L142 713H693L669 578L293 157H593L565 0H3Z" glyph-name="Z" horiz-adv-x="642" unicode="Z" /><glyph d="M485 942H660L485 756H363ZM24 122 416 558H114L142 713H693L669 578L293 157H593L565 0H3Z" glyph-name="Zacute" horiz-adv-x="642" unicode="&#377;" /><glyph d="M232 946H374L411 856L484 946H625L460 760H323ZM24 122 416 558H114L142 713H693L669 578L293 157H593L565 0H3Z" glyph-name="Zcaron" horiz-adv-x="642" unicode="&#381;" /><glyph d="M374 920H536L507 757H345ZM24 122 416 558H114L142 713H693L669 578L293 157H593L565 0H3Z" glyph-name="Zdotaccent" horiz-adv-x="642" unicode="&#379;" /><glyph d="M278 125Q316 125 341 149.5Q366 174 373 210L396 337Q397 342 397 345.5Q397 349 397 354Q397 385 376.5 400.5Q356 416 327 416Q289 416 266.5 389.5Q244 363 238 329L217 207Q216 202 215.5 197.5Q215 193 215 188Q215 159 232 142Q249 125 278 125ZM184 -12Q113 -12 68.5 24Q24 60 24 134Q24 159 28 179Q36 224 44 267.5Q52 311 60 356Q67 398 87.5 433Q108 468 138 492.5Q168 517 206 530.5Q244 544 286 544Q303 544 322.5 541Q342 538 360.5 531Q379 524 394.5 513Q410 502 420 487H423L432 533H613L518 0H340L351 64H348Q317 31 273.5 9.5Q230 -12 184 -12Z" glyph-name="a" horiz-adv-x="607" unicode="a" /><glyph d="M371 757H546L374 579H252ZM278 125Q316 125 341 149.5Q366 174 373 210L396 337Q397 342 397 345.5Q397 349 397 354Q397 385 376.5 400.5Q356 416 327 416Q289 416 266.5 389.5Q244 363 238 329L217 207Q216 202 215.5 197.5Q215 193 215 188Q215 159 232 142Q249 125 278 125ZM184 -12Q113 -12 68.5 24Q24 60 24 134Q24 159 28 179Q36 224 44 267.5Q52 311 60 356Q67 398 87.5 433Q108 468 138 492.5Q168 517 206 530.5Q244 544 286 544Q303 544 322.5 541Q342 538 360.5 531Q379 524 394.5 513Q410 502 420 487H423L432 533H613L518 0H340L351 64H348Q317 31 273.5 9.5Q230 -12 184 -12Z" glyph-name="aacute" horiz-adv-x="607" unicode="&#225;" /><glyph d="M354 574Q279 574 238 613.5Q197 653 197 720Q197 727 197 733.5Q197 740 199 748H306Q308 717 321 697Q334 677 367 677Q435 677 459 748H574Q557 661 498 617.5Q439 574 354 574ZM278 125Q316 125 341 149.5Q366 174 373 210L396 337Q397 342 397 345.5Q397 349 397 354Q397 385 376.5 400.5Q356 416 327 416Q289 416 266.5 389.5Q244 363 238 329L217 207Q216 202 215.5 197.5Q215 193 215 188Q215 159 232 142Q249 125 278 125ZM184 -12Q113 -12 68.5 24Q24 60 24 134Q24 159 28 179Q36 224 44 267.5Q52 311 60 356Q67 398 87.5 433Q108 468 138 492.5Q168 517 206 530.5Q244 544 286 544Q303 544 322.5 541Q342 538 360.5 531Q379 524 394.5 513Q410 502 420 487H423L432 533H613L518 0H340L351 64H348Q317 31 273.5 9.5Q230 -12 184 -12Z" glyph-name="abreve" horiz-adv-x="607" unicode="&#259;" /><glyph d="M326 762H462L554 580H411L374 666L302 580H161ZM278 125Q316 125 341 149.5Q366 174 373 210L396 337Q397 342 397 345.5Q397 349 397 354Q397 385 376.5 400.5Q356 416 327 416Q289 416 266.5 389.5Q244 363 238 329L217 207Q216 202 215.5 197.5Q215 193 215 188Q215 159 232 142Q249 125 278 125ZM184 -12Q113 -12 68.5 24Q24 60 24 134Q24 159 28 179Q36 224 44 267.5Q52 311 60 356Q67 398 87.5 433Q108 468 138 492.5Q168 517 206 530.5Q244 544 286 544Q303 544 322.5 541Q342 538 360.5 531Q379 524 394.5 513Q410 502 420 487H423L432 533H613L518 0H340L351 64H348Q317 31 273.5 9.5Q230 -12 184 -12Z" glyph-name="acircumflex" horiz-adv-x="607" unicode="&#226;" /><glyph d="M403 757H578L406 579H284Z" glyph-name="acute" horiz-adv-x="588" unicode="&#180;" /><glyph d="M-219 757H-44L-216 579H-338Z" glyph-name="acutecomb" horiz-adv-x="1" unicode="&#769;" /><glyph d="M-208 942H-33L-208 756H-330Z" glyph-name="acutecomb.case" horiz-adv-x="1" /><glyph d="M415 747H573L544 584H386ZM191 747H349L320 584H162ZM278 125Q316 125 341 149.5Q366 174 373 210L396 337Q397 342 397 345.5Q397 349 397 354Q397 385 376.5 400.5Q356 416 327 416Q289 416 266.5 389.5Q244 363 238 329L217 207Q216 202 215.5 197.5Q215 193 215 188Q215 159 232 142Q249 125 278 125ZM184 -12Q113 -12 68.5 24Q24 60 24 134Q24 159 28 179Q36 224 44 267.5Q52 311 60 356Q67 398 87.5 433Q108 468 138 492.5Q168 517 206 530.5Q244 544 286 544Q303 544 322.5 541Q342 538 360.5 531Q379 524 394.5 513Q410 502 420 487H423L432 533H613L518 0H340L351 64H348Q317 31 273.5 9.5Q230 -12 184 -12Z" glyph-name="adieresis" horiz-adv-x="607" unicode="&#228;" /><glyph d="M680 322Q682 332 683.5 341Q685 350 685 360Q685 389 667.5 402.5Q650 416 623 416Q589 416 567 397Q545 378 537 346Q537 344 535 334Q533 324 533 322ZM278 125Q305 125 326 137Q323 149 323 163Q323 195 331 233Q339 271 344 303Q349 329 357.5 353Q366 377 379 398Q359 416 327 416Q289 416 266.5 389.5Q244 363 238 329L217 207Q216 202 215.5 197.5Q215 193 215 188Q215 159 232 142Q249 125 278 125ZM554 -12Q498 -12 445.5 3.5Q393 19 360 57Q318 16 271 2Q224 -12 184 -12Q113 -12 68.5 24Q24 60 24 134Q24 159 28 179Q31 197 35 220Q39 243 43.5 267Q48 291 52.5 314.5Q57 338 60 356Q67 398 87.5 433Q108 468 138 492.5Q168 517 206 530.5Q244 544 286 544Q301 544 319.5 542.5Q338 541 358 534.5Q378 528 399.5 513.5Q421 499 442 473Q484 508 538 526Q592 544 652 544Q693 544 729.5 533.5Q766 523 794 501.5Q822 480 838 447Q854 414 854 370Q854 337 846 296.5Q838 256 832 224H515Q513 215 512 206Q511 197 511 190Q511 171 520 158Q529 145 543 137.5Q557 130 574 126.5Q591 123 607 123Q651 123 690 132Q729 141 764 152L793 38Q742 13 685.5 0.5Q629 -12 554 -12Z" glyph-name="ae" horiz-adv-x="868" unicode="&#230;" /><glyph d="M524 757H699L527 579H405ZM682 322Q684 332 685.5 341Q687 350 687 360Q687 389 669.5 402.5Q652 416 625 416Q591 416 569 397Q547 378 539 346Q539 344 537 334Q535 324 535 322ZM280 125Q307 125 328 137Q325 149 325 163Q325 195 333 233Q341 271 346 303Q351 329 359.5 353Q368 377 381 398Q361 416 329 416Q291 416 268.5 389.5Q246 363 240 329L219 207Q218 202 217.5 197.5Q217 193 217 188Q217 159 234 142Q251 125 280 125ZM556 -12Q500 -12 447.5 3.5Q395 19 362 57Q320 16 273 2Q226 -12 186 -12Q115 -12 70.5 24Q26 60 26 134Q26 159 30 179Q33 197 37 220Q41 243 45.5 267Q50 291 54.5 314.5Q59 338 62 356Q69 398 89.5 433Q110 468 140 492.5Q170 517 208 530.5Q246 544 288 544Q303 544 321.5 542.5Q340 541 360 534.5Q380 528 401.5 513.5Q423 499 444 473Q486 508 540 526Q594 544 654 544Q695 544 731.5 533.5Q768 523 796 501.5Q824 480 840 447Q856 414 856 370Q856 337 848 296.5Q840 256 834 224H517Q515 215 514 206Q513 197 513 190Q513 171 522 158Q531 145 545 137.5Q559 130 576 126.5Q593 123 609 123Q653 123 692 132Q731 141 766 152L795 38Q744 13 687.5 0.5Q631 -12 556 -12Z" glyph-name="aeacute" horiz-adv-x="870" unicode="&#509;" /><glyph d="M144 757H319L376 579H254ZM278 125Q316 125 341 149.5Q366 174 373 210L396 337Q397 342 397 345.5Q397 349 397 354Q397 385 376.5 400.5Q356 416 327 416Q289 416 266.5 389.5Q244 363 238 329L217 207Q216 202 215.5 197.5Q215 193 215 188Q215 159 232 142Q249 125 278 125ZM184 -12Q113 -12 68.5 24Q24 60 24 134Q24 159 28 179Q36 224 44 267.5Q52 311 60 356Q67 398 87.5 433Q108 468 138 492.5Q168 517 206 530.5Q244 544 286 544Q303 544 322.5 541Q342 538 360.5 531Q379 524 394.5 513Q410 502 420 487H423L432 533H613L518 0H340L351 64H348Q317 31 273.5 9.5Q230 -12 184 -12Z" glyph-name="agrave" horiz-adv-x="607" unicode="&#224;" /><glyph d="M215 713H568L545 584H192ZM278 125Q316 125 341 149.5Q366 174 373 210L396 337Q397 342 397 345.5Q397 349 397 354Q397 385 376.5 400.5Q356 416 327 416Q289 416 266.5 389.5Q244 363 238 329L217 207Q216 202 215.5 197.5Q215 193 215 188Q215 159 232 142Q249 125 278 125ZM184 -12Q113 -12 68.5 24Q24 60 24 134Q24 159 28 179Q36 224 44 267.5Q52 311 60 356Q67 398 87.5 433Q108 468 138 492.5Q168 517 206 530.5Q244 544 286 544Q303 544 322.5 541Q342 538 360.5 531Q379 524 394.5 513Q410 502 420 487H423L432 533H613L518 0H340L351 64H348Q317 31 273.5 9.5Q230 -12 184 -12Z" glyph-name="amacron" horiz-adv-x="607" unicode="&#257;" /><glyph d="M445 453Q460 459 474.5 469Q489 479 500.5 493Q512 507 519.5 523.5Q527 540 527 558Q527 578 511.5 591Q496 604 474 604Q439 604 419 585.5Q399 567 399 541Q399 527 408.5 509.5Q418 492 429 477ZM312 120Q370 120 415 156L303 310Q280 299 265.5 283Q251 267 242 250.5Q233 234 229.5 218Q226 202 226 191Q226 161 246.5 140.5Q267 120 312 120ZM244 -17Q198 -17 160 -5Q122 7 95 30Q68 53 53 86Q38 119 38 161Q38 208 54 245.5Q70 283 97.5 312Q125 341 161.5 361.5Q198 382 238 395Q220 417 205 448.5Q190 480 190 512Q190 559 211 598.5Q232 638 270.5 666Q309 694 363 709.5Q417 725 482 725Q528 725 564.5 713.5Q601 702 626.5 682Q652 662 665 634.5Q678 607 678 574Q678 532 663.5 499.5Q649 467 624.5 443Q600 419 568 402Q536 385 502 373L573 274Q578 284 582 292Q586 300 589.5 309Q593 318 597.5 329.5Q602 341 609 358L762 343Q742 282 716 241Q690 200 658 165L778 -1H529L488 55Q436 20 373 1.5Q310 -17 244 -17Z" glyph-name="ampersand" horiz-adv-x="820" unicode="&amp;" /><glyph d="M331 116Q387 116 415.5 138.5Q444 161 453 214L467 294H338Q319 294 302 285.5Q285 277 272.5 263.5Q260 250 253 232Q246 214 246 195Q246 158 272 137Q298 116 331 116ZM302 -17Q260 -17 215.5 -7Q171 3 134 25Q97 47 73.5 82.5Q50 118 50 170Q50 206 61.5 237Q73 268 94 293Q115 318 143.5 335.5Q172 353 207 362L208 367Q173 383 155 419.5Q137 456 137 493Q137 558 164.5 602.5Q192 647 236 674Q280 701 335 712.5Q390 724 446 724Q483 724 523.5 715Q564 706 597.5 686.5Q631 667 653 637Q675 607 675 565Q675 552 673 539.5Q671 527 669 514H502Q505 526 505 539Q505 572 481 585Q457 598 425 598Q404 598 385 591Q366 584 351.5 571Q337 558 328 540Q319 522 319 501Q319 481 327 468.5Q335 456 348 448.5Q361 441 377.5 438.5Q394 436 410 436H766L740 294H658L641 200Q630 139 597 97.5Q564 56 517.5 30.5Q471 5 415 -6Q359 -17 302 -17Z" glyph-name="ampersand.salt" horiz-adv-x="745" /><glyph d="M278 125Q316 125 341 149.5Q366 174 373 210L396 337Q397 342 397 345.5Q397 349 397 354Q397 385 376.5 400.5Q356 416 327 416Q289 416 266.5 389.5Q244 363 238 329L217 207Q216 202 215.5 197.5Q215 193 215 188Q215 159 232 142Q249 125 278 125ZM370 -225Q313 -225 285.5 -203Q258 -181 258 -146Q258 -107 280.5 -73Q303 -39 338 -13L351 64H348Q317 31 273.5 9.5Q230 -12 184 -12Q113 -12 68.5 24Q24 60 24 134Q24 159 28 179Q36 224 44 267.5Q52 311 60 356Q67 398 87.5 433Q108 468 138 492.5Q168 517 206 530.5Q244 544 286 544Q303 544 322.5 541Q342 538 360.5 531Q379 524 394.5 513Q410 502 420 487H423L432 533H613L518 0Q460 -9 424 -34Q388 -59 388 -88Q388 -102 397 -109.5Q406 -117 427 -117Q438 -117 456.5 -112Q475 -107 493 -97L516 -190Q486 -204 449.5 -214.5Q413 -225 370 -225Z" glyph-name="aogonek" horiz-adv-x="607" unicode="&#261;" /><glyph d="M72 356Q82 390 98.5 418.5Q115 447 136 467Q157 487 181.5 498Q206 509 231 509Q261 509 290 500.5Q319 492 345.5 482Q372 472 393.5 463.5Q415 455 430 455Q445 455 460.5 469.5Q476 484 485 521L586 498Q563 428 521 388Q479 348 428 348Q398 348 369 356.5Q340 365 313 375.5Q286 386 262.5 394.5Q239 403 219 403Q202 403 188.5 384.5Q175 366 166 337ZM42 147Q52 181 68.5 209.5Q85 238 106 258Q127 278 151.5 289Q176 300 201 300Q231 300 260 291.5Q289 283 315.5 273Q342 263 363.5 254.5Q385 246 400 246Q415 246 430.5 260.5Q446 275 455 312L556 289Q533 219 491 179Q449 139 398 139Q368 139 339 147.5Q310 156 283 166.5Q256 177 232.5 185.5Q209 194 189 194Q172 194 158.5 175.5Q145 157 136 128Z" glyph-name="approxequal" horiz-adv-x="590" unicode="&#8776;" /><glyph d="M366 625Q392 625 409.5 642Q427 659 427 684Q427 701 415.5 712Q404 723 383 723Q360 723 341 706.5Q322 690 322 666Q322 648 334 636.5Q346 625 366 625ZM356 568Q310 568 281 590Q252 612 252 651Q252 678 264 701.5Q276 725 296 742Q316 759 341 768.5Q366 778 393 778Q439 778 468.5 757.5Q498 737 498 697Q498 670 486 646.5Q474 623 454 605.5Q434 588 408.5 578Q383 568 356 568ZM278 125Q316 125 341 149.5Q366 174 373 210L396 337Q397 342 397 345.5Q397 349 397 354Q397 385 376.5 400.5Q356 416 327 416Q289 416 266.5 389.5Q244 363 238 329L217 207Q216 202 215.5 197.5Q215 193 215 188Q215 159 232 142Q249 125 278 125ZM184 -12Q113 -12 68.5 24Q24 60 24 134Q24 159 28 179Q36 224 44 267.5Q52 311 60 356Q67 398 87.5 433Q108 468 138 492.5Q168 517 206 530.5Q244 544 286 544Q303 544 322.5 541Q342 538 360.5 531Q379 524 394.5 513Q410 502 420 487H423L432 533H613L518 0H340L351 64H348Q317 31 273.5 9.5Q230 -12 184 -12Z" glyph-name="aring" horiz-adv-x="607" unicode="&#229;" /><glyph d="M363 624Q389 624 406.5 641Q424 658 424 683Q424 700 412.5 711Q401 722 380 722Q357 722 338 705.5Q319 689 319 665Q319 647 331 635.5Q343 624 363 624ZM353 567Q307 567 278 589Q249 611 249 650Q249 677 261 700.5Q273 724 293 741Q313 758 338 767.5Q363 777 390 777Q436 777 465.5 756.5Q495 736 495 696Q495 669 483 645.5Q471 622 451 604.5Q431 587 405.5 577Q380 567 353 567ZM278 125Q316 125 341 149.5Q366 174 373 210L396 337Q397 342 397 345.5Q397 349 397 354Q397 385 376.5 400.5Q356 416 327 416Q289 416 266.5 389.5Q244 363 238 329L217 207Q216 202 215.5 197.5Q215 193 215 188Q215 159 232 142Q249 125 278 125ZM184 -12Q113 -12 68.5 24Q24 60 24 134Q24 159 28 179Q36 224 44 267.5Q52 311 60 356Q67 398 87.5 433Q108 468 138 492.5Q168 517 206 530.5Q244 544 286 544Q303 544 322.5 541Q342 538 360.5 531Q379 524 394.5 513Q410 502 420 487H423L432 533H613L518 0H340L351 64H348Q317 31 273.5 9.5Q230 -12 184 -12ZM411 936 560 935 438 800H331Z" glyph-name="aringacute" horiz-adv-x="607" unicode="&#507;" /><glyph d="M290 616H430L462 121H342L332 479L194 121H75Z" glyph-name="asciicircum" horiz-adv-x="569" unicode="^" /><glyph d="M68 241Q78 275 94.5 303.5Q111 332 132 352Q153 372 177.5 383Q202 394 227 394Q257 394 286 385.5Q315 377 341.5 367Q368 357 389.5 348.5Q411 340 426 340Q441 340 456.5 354.5Q472 369 481 406L582 383Q559 313 517 273Q475 233 424 233Q394 233 365 241.5Q336 250 309 260.5Q282 271 258.5 279.5Q235 288 215 288Q198 288 184.5 269.5Q171 251 162 222Z" glyph-name="asciitilde" horiz-adv-x="613" unicode="~" /><glyph d="M98 369 204 491 87 562 151 643 256 580 279 713H379L356 580L481 643L519 562L374 490L439 369L348 316L281 440L171 316Z" glyph-name="asterisk" horiz-adv-x="484" unicode="*" /><glyph d="M468 166Q500 166 521.5 186Q543 206 548 237L567 343Q568 347 568 357Q568 383 550.5 396Q533 409 509 409Q477 409 458 387Q439 365 434 336L417 234Q415 226 415 219Q415 196 429 181Q443 166 468 166ZM509 -148Q491 -148 468.5 -146.5Q446 -145 423.5 -142.5Q401 -140 380 -136Q359 -132 342 -127Q282 -108 230.5 -73Q179 -38 141.5 11.5Q104 61 82.5 124Q61 187 61 263Q61 366 99 450Q137 534 202 593.5Q267 653 353.5 685Q440 717 538 717Q611 717 681 695Q751 673 805 630Q859 587 892 525Q925 463 925 383Q925 318 903 263Q881 208 845 166.5Q809 125 762 98Q715 71 664 63H519L530 116H526Q501 89 464.5 70.5Q428 52 389 52Q329 52 292 82Q255 112 255 174Q255 193 258 211L285 358Q291 393 308.5 422Q326 451 351 471.5Q376 492 407.5 503.5Q439 515 475 515Q490 515 506 512.5Q522 510 537.5 504.5Q553 499 566.5 490Q580 481 588 468H590L597 506H748L684 143Q714 153 741.5 173Q769 193 789.5 222.5Q810 252 822 291Q834 330 834 378Q834 446 807.5 496Q781 546 737.5 578.5Q694 611 638.5 626.5Q583 642 525 642Q438 642 369 612.5Q300 583 253 532Q206 481 181 411.5Q156 342 156 262Q156 209 170 163Q184 117 209.5 79Q235 41 270.5 12Q306 -17 348 -36Q380 -50 424 -58.5Q468 -67 510 -67Q550 -67 583.5 -64.5Q617 -62 649.5 -56.5Q682 -51 716 -42.5Q750 -34 790 -22L811 -92Q752 -118 679 -133Q606 -148 509 -148Z" glyph-name="at" horiz-adv-x="958" unicode="@" /><glyph d="M134 592Q144 622 160.5 649.5Q177 677 198.5 697Q220 717 246.5 729Q273 741 304 741Q327 741 348.5 735.5Q370 730 391 723.5Q412 717 433.5 711.5Q455 706 478 706Q498 706 508.5 719.5Q519 733 530 759L620 735Q611 706 596.5 679.5Q582 653 561.5 633Q541 613 515 600.5Q489 588 457 588Q434 588 412 593Q390 598 369.5 604.5Q349 611 329 616Q309 621 289 621Q267 621 255.5 610Q244 599 230 571ZM278 125Q316 125 341 149.5Q366 174 373 210L396 337Q397 342 397 345.5Q397 349 397 354Q397 385 376.5 400.5Q356 416 327 416Q289 416 266.5 389.5Q244 363 238 329L217 207Q216 202 215.5 197.5Q215 193 215 188Q215 159 232 142Q249 125 278 125ZM184 -12Q113 -12 68.5 24Q24 60 24 134Q24 159 28 179Q36 224 44 267.5Q52 311 60 356Q67 398 87.5 433Q108 468 138 492.5Q168 517 206 530.5Q244 544 286 544Q303 544 322.5 541Q342 538 360.5 531Q379 524 394.5 513Q410 502 420 487H423L432 533H613L518 0H340L351 64H348Q317 31 273.5 9.5Q230 -12 184 -12Z" glyph-name="atilde" horiz-adv-x="607" unicode="&#227;" /><glyph d="M298 115Q335 115 358 138.5Q381 162 387 197L410 327Q411 332 411.5 336.5Q412 341 412 346Q412 375 394.5 391Q377 407 349 407Q306 407 282.5 382Q259 357 252 316L230 194Q229 189 229 185Q229 181 229 177Q229 147 249 131Q269 115 298 115ZM325 -13Q289 -13 256.5 2.5Q224 18 204 48H201L192 -1H13L139 713H322L279 470H281Q312 502 354 523Q396 544 442 544Q477 544 506.5 535Q536 526 557 508Q578 490 590 462.5Q602 435 602 398Q602 372 598 352Q590 307 582.5 263.5Q575 220 567 175Q559 132 536 97Q513 62 480 37.5Q447 13 407 0Q367 -13 325 -13Z" glyph-name="b" horiz-adv-x="610" unicode="b" /><glyph d="M43 718H166L431 -178H305Z" glyph-name="backslash" horiz-adv-x="365" unicode="\" /><glyph d="M181 725H309L172 -53H44Z" glyph-name="bar" horiz-adv-x="318" unicode="|" /><glyph d="M134 -184Q92 -184 68 -163.5Q44 -143 44 -97Q44 -81 47 -61L90 181Q92 191 93 199Q94 207 94 214Q94 232 85.5 240Q77 248 57 250L73 342Q90 345 100 348.5Q110 352 115.5 358Q121 364 123.5 373Q126 382 128 395L162 590Q173 655 208.5 684Q244 713 293 713H420L405 627H335Q327 627 319 622.5Q311 618 309 604L276 421Q267 373 249.5 345.5Q232 318 194 304L193 298Q219 287 229.5 273Q240 259 240 233Q240 223 238 210.5Q236 198 234 183L189 -76Q188 -78 188 -82Q188 -93 193.5 -96Q199 -99 207 -99H277L261 -184Z" glyph-name="braceleft" horiz-adv-x="337" unicode="{" /><glyph d="M-39 -99H31Q39 -99 47 -94.5Q55 -90 57 -76L102 183Q106 209 112 227.5Q118 246 127 259Q136 272 150 281Q164 290 185 298L186 304Q161 314 150.5 331.5Q140 349 140 378Q140 387 141 398Q142 409 144 421L177 604V610Q177 620 172 623.5Q167 627 159 627H89L104 713H231Q273 713 297 692Q321 671 321 625Q321 609 318 590L284 395Q281 380 281 371Q281 358 288.5 352.5Q296 347 319 342L304 250Q275 247 263.5 232.5Q252 218 246 181L203 -61Q192 -126 156.5 -155Q121 -184 72 -184H-54Z" glyph-name="braceright" horiz-adv-x="337" unicode="}" /><glyph d="M178 713H413L397 627H306L178 -99H269L253 -184H20Z" glyph-name="bracketleft" horiz-adv-x="337" unicode="[" /><glyph d="M-34 -99H55L183 627H92L108 713H343L184 -184H-50Z" glyph-name="bracketright" horiz-adv-x="337" unicode="]" /><glyph d="M373 574Q298 574 257 613.5Q216 653 216 720Q216 727 216 733.5Q216 740 218 748H325Q327 717 340 697Q353 677 386 677Q454 677 478 748H593Q576 661 517 617.5Q458 574 373 574Z" glyph-name="breve" horiz-adv-x="588" unicode="&#728;" /><glyph d="M234 713H346L287 383H175ZM162 309H274L211 -47H99Z" glyph-name="brokenbar" horiz-adv-x="389" unicode="&#166;" /><glyph d="M229 153Q197 153 170.5 164Q144 175 124.5 194.5Q105 214 94.5 240Q84 266 84 296Q84 336 101.5 372.5Q119 409 148 436.5Q177 464 214 480Q251 496 289 496Q320 496 346 485Q372 474 391 455.5Q410 437 420.5 411.5Q431 386 431 356Q431 316 414 279Q397 242 369 214Q341 186 304.5 169.5Q268 153 229 153Z" glyph-name="bullet" horiz-adv-x="464" unicode="&#8226;" /><glyph d="M231 200Q199 200 172.5 211Q146 222 126.5 241.5Q107 261 96.5 287Q86 313 86 343Q86 383 103.5 419.5Q121 456 150 483.5Q179 511 216 527Q253 543 291 543Q322 543 348 532Q374 521 393 502.5Q412 484 422.5 458.5Q433 433 433 403Q433 363 416 326Q399 289 371 261Q343 233 306.5 216.5Q270 200 231 200Z" glyph-name="bullet.case" horiz-adv-x="464" /><glyph d="M255 -13Q212 -13 171.5 -3.5Q131 6 99 27Q67 48 47.5 81.5Q28 115 28 163Q28 185 32 205L51 313Q61 373 92 416.5Q123 460 165 488.5Q207 517 256.5 530.5Q306 544 353 544Q397 544 435 534Q473 524 501 504Q529 484 545 454Q561 424 561 385Q561 369 558 351L553 323H385L388 341Q389 346 389 349.5Q389 353 389 357Q389 384 372.5 396.5Q356 409 332 409Q300 409 275 390.5Q250 372 243 333L220 199Q219 194 218.5 189.5Q218 185 218 180Q218 122 282 122Q310 122 332.5 138.5Q355 155 361 190L364 207H532L527 175Q518 127 492.5 92Q467 57 430.5 33.5Q394 10 348.5 -1.5Q303 -13 255 -13Z" glyph-name="c" horiz-adv-x="560" unicode="c" /><glyph d="M394 757H569L397 579H275ZM255 -13Q212 -13 171.5 -3.5Q131 6 99 27Q67 48 47.5 81.5Q28 115 28 163Q28 185 32 205L51 313Q61 373 92 416.5Q123 460 165 488.5Q207 517 256.5 530.5Q306 544 353 544Q397 544 435 534Q473 524 501 504Q529 484 545 454Q561 424 561 385Q561 369 558 351L553 323H385L388 341Q389 346 389 349.5Q389 353 389 357Q389 384 372.5 396.5Q356 409 332 409Q300 409 275 390.5Q250 372 243 333L220 199Q219 194 218.5 189.5Q218 185 218 180Q218 122 282 122Q310 122 332.5 138.5Q355 155 361 190L364 207H532L527 175Q518 127 492.5 92Q467 57 430.5 33.5Q394 10 348.5 -1.5Q303 -13 255 -13Z" glyph-name="cacute" horiz-adv-x="560" unicode="&#263;" /><glyph d="M202 760H348L384 681L454 760H595L432 584H296Z" glyph-name="caron" horiz-adv-x="588" unicode="&#711;" /><glyph d="M174 760H320L356 681L426 760H567L404 584H268ZM255 -13Q212 -13 171.5 -3.5Q131 6 99 27Q67 48 47.5 81.5Q28 115 28 163Q28 185 32 205L51 313Q61 373 92 416.5Q123 460 165 488.5Q207 517 256.5 530.5Q306 544 353 544Q397 544 435 534Q473 524 501 504Q529 484 545 454Q561 424 561 385Q561 369 558 351L553 323H385L388 341Q389 346 389 349.5Q389 353 389 357Q389 384 372.5 396.5Q356 409 332 409Q300 409 275 390.5Q250 372 243 333L220 199Q219 194 218.5 189.5Q218 185 218 180Q218 122 282 122Q310 122 332.5 138.5Q355 155 361 190L364 207H532L527 175Q518 127 492.5 92Q467 57 430.5 33.5Q394 10 348.5 -1.5Q303 -13 255 -13Z" glyph-name="ccaron" horiz-adv-x="560" unicode="&#269;" /><glyph d="M216 -219Q192 -219 162 -215Q132 -211 103 -203L116 -128Q143 -135 171.5 -139.5Q200 -144 219 -144Q268 -144 268 -115Q268 -102 252.5 -100Q237 -98 223 -96L175 -94L209 -10Q173 -6 140 6.5Q107 19 82 40Q57 61 42.5 91.5Q28 122 28 163Q28 185 32 205L51 313Q61 373 92 416.5Q123 460 165 488.5Q207 517 256.5 530.5Q306 544 353 544Q397 544 435 534Q473 524 501 504Q529 484 545 454Q561 424 561 385Q561 369 558 351L553 323H385L388 341Q389 346 389 349.5Q389 353 389 357Q389 384 372.5 396.5Q356 409 332 409Q300 409 275 390.5Q250 372 243 333L220 199Q219 194 218.5 189.5Q218 185 218 180Q218 122 282 122Q310 122 332.5 138.5Q355 155 361 190L364 207H532L527 175Q519 130 496 96.5Q473 63 440 40Q407 17 366.5 4Q326 -9 281 -12L272 -36Q291 -36 312.5 -38.5Q334 -41 352 -48.5Q370 -56 382 -69Q394 -82 394 -103Q394 -131 379 -152.5Q364 -174 339 -189Q314 -204 282 -211.5Q250 -219 216 -219Z" glyph-name="ccedilla" horiz-adv-x="560" unicode="&#231;" /><glyph d="M329 762H465L557 580H414L377 666L305 580H164ZM255 -13Q212 -13 171.5 -3.5Q131 6 99 27Q67 48 47.5 81.5Q28 115 28 163Q28 185 32 205L51 313Q61 373 92 416.5Q123 460 165 488.5Q207 517 256.5 530.5Q306 544 353 544Q397 544 435 534Q473 524 501 504Q529 484 545 454Q561 424 561 385Q561 369 558 351L553 323H385L388 341Q389 346 389 349.5Q389 353 389 357Q389 384 372.5 396.5Q356 409 332 409Q300 409 275 390.5Q250 372 243 333L220 199Q219 194 218.5 189.5Q218 185 218 180Q218 122 282 122Q310 122 332.5 138.5Q355 155 361 190L364 207H532L527 175Q518 127 492.5 92Q467 57 430.5 33.5Q394 10 348.5 -1.5Q303 -13 255 -13Z" glyph-name="ccircumflex" horiz-adv-x="560" unicode="&#265;" /><glyph d="M293 743H476L449 589H266ZM255 -13Q212 -13 171.5 -3.5Q131 6 99 27Q67 48 47.5 81.5Q28 115 28 163Q28 185 32 205L51 313Q61 373 92 416.5Q123 460 165 488.5Q207 517 256.5 530.5Q306 544 353 544Q397 544 435 534Q473 524 501 504Q529 484 545 454Q561 424 561 385Q561 369 558 351L553 323H385L388 341Q389 346 389 349.5Q389 353 389 357Q389 384 372.5 396.5Q356 409 332 409Q300 409 275 390.5Q250 372 243 333L220 199Q219 194 218.5 189.5Q218 185 218 180Q218 122 282 122Q310 122 332.5 138.5Q355 155 361 190L364 207H532L527 175Q518 127 492.5 92Q467 57 430.5 33.5Q394 10 348.5 -1.5Q303 -13 255 -13Z" glyph-name="cdotaccent" horiz-adv-x="560" unicode="&#267;" /><glyph d="M249 -219Q225 -219 195 -215Q165 -211 136 -203L149 -128Q176 -135 204.5 -139.5Q233 -144 252 -144Q301 -144 301 -115Q301 -102 285.5 -100Q270 -98 256 -96L208 -94L261 36H334L305 -36Q324 -36 345.5 -38.5Q367 -41 385 -48.5Q403 -56 415 -69Q427 -82 427 -103Q427 -131 412 -152.5Q397 -174 372 -189Q347 -204 315 -211.5Q283 -219 249 -219Z" glyph-name="cedilla" horiz-adv-x="588" unicode="&#184;" /><glyph d="M184 -7Q153 0 126 12.5Q99 25 79 45Q59 65 47.5 92Q36 119 36 155Q36 177 40 197L64 331Q72 377 92.5 413Q113 449 142.5 475.5Q172 502 207.5 519.5Q243 537 281 546L295 628H459L444 545Q502 531 540 494Q578 457 578 399Q578 391 577 380.5Q576 370 571 341H397Q400 357 400.5 362.5Q401 368 401 372Q401 401 383.5 414Q366 427 340 427Q306 427 281 407.5Q256 388 249 349L222 193Q220 187 220 182.5Q220 178 220 173Q220 145 237 129.5Q254 114 286 114Q316 114 338.5 131Q361 148 369 184L372 200H546L540 165Q533 129 515.5 101Q498 73 472.5 51.5Q447 30 415 15.5Q383 1 347 -6L332 -93H168Z" glyph-name="cent" horiz-adv-x="580" unicode="&#162;" /><glyph d="M190 -7Q129 7 89 45Q49 83 49 152Q49 163 50 175.5Q51 188 56 215L77 331Q85 377 104.5 413Q124 449 152 475.5Q180 502 214.5 519.5Q249 537 287 546L302 628H465L450 545Q507 531 541.5 495Q576 459 576 402Q576 394 574.5 382.5Q573 371 568 341H403Q406 357 406.5 362.5Q407 368 407 372Q407 401 390 414Q373 427 347 427Q312 427 287 407.5Q262 388 256 349L228 193Q227 187 227 182.5Q227 178 227 173Q227 145 244 129.5Q261 114 293 114Q322 114 345 131Q368 148 376 184L379 200H544L537 165Q523 93 474.5 51Q426 9 354 -6L338 -93H175Z" glyph-name="cent.tf" horiz-adv-x="590" /><glyph d="M412 67Q469 67 519 84.5Q569 102 606 137Q643 172 664.5 225Q686 278 686 349Q686 408 669 459.5Q652 511 617.5 549.5Q583 588 532 610.5Q481 633 412 633Q354 633 303 615Q252 597 214.5 561.5Q177 526 155.5 472.5Q134 419 134 349Q134 284 155.5 231.5Q177 179 214.5 142.5Q252 106 303 86.5Q354 67 412 67ZM412 -19Q335 -19 267 3Q199 25 148.5 70.5Q98 116 68.5 185Q39 254 39 349Q39 434 68.5 502Q98 570 148.5 618Q199 666 267 691.5Q335 717 412 717Q503 717 572.5 688Q642 659 688 610Q734 561 757.5 495.5Q781 430 781 357Q781 264 752.5 194Q724 124 674 76.5Q624 29 556.5 5Q489 -19 412 -19Z" glyph-name="circle" horiz-adv-x="820" unicode="&#9675;" /><glyph d="M329 762H465L557 580H414L377 666L305 580H164Z" glyph-name="circumflex" horiz-adv-x="588" unicode="&#710;" /><glyph d="M109 532H293L261 352H77ZM49 180H233L201 0H17Z" glyph-name="colon" horiz-adv-x="295" unicode=":" /><glyph d="M89 2H24L56 182H239L209 11L112 -140H29Z" glyph-name="comma" horiz-adv-x="295" unicode="," /><glyph d="M53 2H13L34 120H152L132 9L71 -87H17Z" glyph-name="comma.dnom" horiz-adv-x="205" /><glyph d="M108 318H68L89 436H207L187 325L126 229H72Z" glyph-name="comma.numr" horiz-adv-x="205" /><glyph d="M34 -131H-6L15 -13H133L113 -124L52 -220H-2Z" glyph-name="comma.subs" horiz-adv-x="205" /><glyph d="M120 382H80L101 500H219L199 389L138 293H84Z" glyph-name="comma.sups" horiz-adv-x="205" /><glyph d="M432 79Q396 79 362 87Q328 95 302 112Q276 129 260.5 157Q245 185 245 224Q245 228 245.5 235.5Q246 243 249.5 264Q253 285 260 325Q267 365 279 436Q287 482 311.5 516Q336 550 369.5 572Q403 594 443.5 605Q484 616 525 616Q558 616 590.5 608.5Q623 601 649.5 585.5Q676 570 692 544.5Q708 519 708 483Q708 480 708 475.5Q708 471 707 462.5Q706 454 703.5 439.5Q701 425 697 402H552Q555 419 557.5 432Q560 445 560 452Q560 475 545.5 485Q531 495 508 495Q444 495 433 434Q421 367 414.5 330Q408 293 405 275Q402 257 401.5 252Q401 247 401 246Q401 199 455 199Q481 199 501 213.5Q521 228 526 254L534 298H679Q679 296 677 287Q675 278 673 267.5Q671 257 669 247.5Q667 238 667 237Q659 193 634.5 163Q610 133 577 114Q544 95 506 87Q468 79 432 79ZM414 15Q489 15 557.5 44Q626 73 678.5 126.5Q731 180 762.5 255.5Q794 331 794 423Q794 483 776 530.5Q758 578 724 611Q690 644 641.5 662Q593 680 532 680Q455 680 386.5 649.5Q318 619 266.5 564.5Q215 510 185 434.5Q155 359 155 268Q155 208 173 161Q191 114 225 81.5Q259 49 306.5 32Q354 15 414 15ZM400 -63Q316 -63 252 -38Q188 -13 145 31Q102 75 80 135Q58 195 58 265Q58 361 96 449.5Q134 538 200 605.5Q266 673 355 713.5Q444 754 545 754Q627 754 691.5 728.5Q756 703 800.5 659Q845 615 868 554.5Q891 494 891 424Q891 360 873.5 299.5Q856 239 824.5 184.5Q793 130 748 84.5Q703 39 648.5 6.5Q594 -26 531 -44.5Q468 -63 400 -63Z" glyph-name="copyright" horiz-adv-x="890" unicode="&#169;" /><glyph d="M305 239Q329 239 350 249Q371 259 386.5 276.5Q402 294 411 317.5Q420 341 420 368Q420 406 398.5 430.5Q377 455 337 455Q311 455 290 444Q269 433 254 414.5Q239 396 231 372Q223 348 223 322Q223 285 244.5 262Q266 239 305 239ZM61 186 121 238Q107 272 107 311Q107 351 120 388Q133 425 156 456L107 515L189 585L237 527Q263 541 292 548.5Q321 556 353 556Q385 556 411.5 548.5Q438 541 459 527L527 585L588 512L521 454Q536 419 536 380Q536 341 522.5 304.5Q509 268 485 237L535 179L453 109L404 167Q378 153 349 145.5Q320 138 289 138Q231 138 187 163L124 109Z" glyph-name="currency" horiz-adv-x="590" unicode="&#164;" /><glyph d="M278 125Q316 125 341 149.5Q366 174 373 210L396 337Q397 342 397.5 346Q398 350 398 355Q398 385 377.5 400.5Q357 416 329 416Q291 416 267.5 390Q244 364 238 329L217 207Q216 202 215.5 197.5Q215 193 215 188Q215 159 232 142Q249 125 278 125ZM184 -12Q114 -12 69 23.5Q24 59 24 133Q24 144 25 156Q26 168 28 179Q36 224 44 267.5Q52 311 60 356Q67 399 88.5 433.5Q110 468 141.5 492.5Q173 517 212 530.5Q251 544 293 544Q327 544 364 530.5Q401 517 421 487H422L462 713H644L518 0H340L351 64H347Q317 29 273.5 8.5Q230 -12 184 -12Z" glyph-name="d" horiz-adv-x="607" unicode="d" /><glyph d="M272 440H86L104 543H290L321 718H438L408 543H594L576 440H389L291 -116H174Z" glyph-name="dagger" horiz-adv-x="580" unicode="&#8224;" /><glyph d="M208 70H21L39 173H226L273 440H86L104 543H291L322 718H439L408 543H595L577 440H390L343 173H530L511 70H325L291 -116H174Z" glyph-name="daggerdbl" horiz-adv-x="580" unicode="&#8225;" /><glyph d="M687 713H839L774 555H659ZM278 125Q316 125 341 149.5Q366 174 373 210L396 337Q397 342 397.5 346Q398 350 398 355Q398 385 377.5 400.5Q357 416 329 416Q291 416 267.5 390Q244 364 238 329L217 207Q216 202 215.5 197.5Q215 193 215 188Q215 159 232 142Q249 125 278 125ZM184 -12Q114 -12 69 23.5Q24 59 24 133Q24 144 25 156Q26 168 28 179Q36 224 44 267.5Q52 311 60 356Q67 399 88.5 433.5Q110 468 141.5 492.5Q173 517 212 530.5Q251 544 293 544Q327 544 364 530.5Q401 517 421 487H422L462 713H644L518 0H340L351 64H347Q317 29 273.5 8.5Q230 -12 184 -12Z" glyph-name="dcaron" horiz-adv-x="723" unicode="&#271;" /><glyph d="M278 125Q316 125 341 149.5Q366 174 373 210L396 337Q397 342 397.5 346Q398 350 398 355Q398 385 377.5 400.5Q357 416 329 416Q291 416 267.5 390Q244 364 238 329L217 207Q216 202 215.5 197.5Q215 193 215 188Q215 159 232 142Q249 125 278 125ZM359 659H452L462 713H644L634 659H697L680 563H617L518 0H340L351 64H347Q317 29 273.5 8.5Q230 -12 184 -12Q114 -12 69 23.5Q24 59 24 133Q24 144 25 156Q26 168 28 179L60 356Q67 399 88.5 433.5Q110 468 141.5 492.5Q173 517 212 530.5Q251 544 293 544Q327 544 364 530.5Q401 517 421 487H422L435 563H342Z" glyph-name="dcroat" horiz-adv-x="634" unicode="&#273;" /><glyph d="M226 564Q251 564 269.5 583.5Q288 603 288 629Q288 646 277.5 659Q267 672 246 672Q223 672 204.5 653Q186 634 186 607Q186 588 197 576Q208 564 226 564ZM214 496Q160 496 133 525.5Q106 555 106 595Q106 628 118.5 654.5Q131 681 152 700.5Q173 720 200.5 730.5Q228 741 258 741Q312 741 340 709.5Q368 678 368 636Q368 604 354.5 578Q341 552 319.5 534Q298 516 270 506Q242 496 214 496Z" glyph-name="degree" horiz-adv-x="337" unicode="&#176;" /><glyph d="M426 747H584L555 584H397ZM202 747H360L331 584H173Z" glyph-name="dieresis" horiz-adv-x="588" unicode="&#168;" /><glyph d="M286 593H446L419 441H259ZM58 370H595L576 263H39ZM219 185H379L352 33H192Z" glyph-name="divide" horiz-adv-x="590" unicode="&#247;" /><glyph d="M190 -1Q131 5 80.5 27Q30 49 -8 96L117 219Q143 187 184.5 163Q226 139 279 139Q295 139 313 141.5Q331 144 346 151Q361 158 370.5 170Q380 182 380 200Q380 224 359.5 235Q339 246 316 254L217 290Q154 313 119 355.5Q84 398 84 461Q84 507 101.5 546Q119 585 150 615.5Q181 646 223 667.5Q265 689 314 699L329 787H490L475 703Q529 696 566 675Q603 654 635 619L504 503Q484 531 446 545.5Q408 560 372 560Q354 560 337.5 558Q321 556 307.5 550Q294 544 286 533Q278 522 278 505Q278 482 301 470Q324 458 356 447L432 419Q503 393 542 346.5Q581 300 581 242Q581 193 563.5 154Q546 115 515 86Q484 57 442 37Q400 17 351 5L335 -93H174Z" glyph-name="dollar" horiz-adv-x="605" unicode="$" /><glyph d="M187 -1Q128 5 80.5 27Q33 49 0 96L121 216Q144 184 185.5 162Q227 140 278 140Q294 140 311.5 143Q329 146 343 153Q357 160 366.5 172.5Q376 185 376 203Q376 225 359 235.5Q342 246 319 253L216 284Q160 301 125.5 340.5Q91 380 90 443Q90 489 106.5 530Q123 571 152 604.5Q181 638 222 662Q263 686 311 698L326 787H487L472 703Q523 696 558.5 676.5Q594 657 624 622L497 505Q487 519 472.5 529.5Q458 540 441 546.5Q424 553 405.5 556.5Q387 560 369 560Q352 560 335.5 557Q319 554 306 546.5Q293 539 285 527Q277 515 277 498Q277 478 297.5 468Q318 458 353 447L426 423Q503 397 536.5 350Q570 303 570 246Q570 192 553.5 152Q537 112 508 83.5Q479 55 438 36Q397 17 349 5L332 -93H171Z" glyph-name="dollar.tf" horiz-adv-x="590" /><glyph d="M300 743H483L456 589H273Z" glyph-name="dotaccent" horiz-adv-x="588" unicode="&#729;" /><glyph d="M107 532H290L196 0H14Z" glyph-name="dotlessi" horiz-adv-x="289" unicode="&#305;" /><glyph d="M4 -192Q-19 -192 -35 -190.5Q-51 -189 -69 -186L-46 -56Q-41 -56 -32.5 -56.5Q-24 -57 -19 -57Q4 -57 15.5 -45Q27 -33 31 -13L127 532H310L211 -28Q203 -70 183.5 -101Q164 -132 136 -152.5Q108 -173 74 -182.5Q40 -192 4 -192Z" glyph-name="dotlessj" horiz-adv-x="304" unicode="&#567;" /><glyph d="M384 322Q386 332 387.5 341Q389 350 389 360Q389 389 372 402.5Q355 416 328 416Q293 416 271 397Q249 378 242 346Q241 344 239.5 334Q238 324 237 322ZM259 -12Q217 -12 175.5 -3Q134 6 101.5 26Q69 46 48.5 79.5Q28 113 28 163Q28 195 35.5 233Q43 271 49 303Q59 360 87.5 405Q116 450 157 481Q198 512 249 528Q300 544 357 544Q398 544 434.5 533.5Q471 523 498.5 501.5Q526 480 542 447Q558 414 558 370Q558 337 550.5 296.5Q543 256 537 224H220Q218 215 216.5 206.5Q215 198 215 190Q215 171 224 158Q233 145 247.5 137.5Q262 130 279 126.5Q296 123 312 123Q356 123 395 132Q434 141 469 152L497 38Q446 13 390 0.5Q334 -12 259 -12Z" glyph-name="e" horiz-adv-x="573" unicode="e" /><glyph d="M398 757H573L401 579H279ZM385 322Q387 332 388.5 341Q390 350 390 360Q390 389 373 402.5Q356 416 329 416Q294 416 272 397Q250 378 243 346Q242 344 240.5 334Q239 324 238 322ZM260 -12Q218 -12 176.5 -3Q135 6 102.5 26Q70 46 49.5 79.5Q29 113 29 163Q29 195 36.5 233Q44 271 50 303Q60 360 88.5 405Q117 450 158 481Q199 512 250 528Q301 544 358 544Q399 544 435.5 533.5Q472 523 499.5 501.5Q527 480 543 447Q559 414 559 370Q559 337 551.5 296.5Q544 256 538 224H221Q219 215 217.5 206.5Q216 198 216 190Q216 171 225 158Q234 145 248.5 137.5Q263 130 280 126.5Q297 123 313 123Q357 123 396 132Q435 141 470 152L498 38Q447 13 391 0.5Q335 -12 260 -12Z" glyph-name="eacute" horiz-adv-x="573" unicode="&#233;" /><glyph d="M343 574Q268 574 227 613.5Q186 653 186 720Q186 727 186 733.5Q186 740 188 748H295Q297 717 310 697Q323 677 356 677Q424 677 448 748H563Q546 661 487 617.5Q428 574 343 574ZM385 322Q387 332 388.5 341Q390 350 390 360Q390 389 373 402.5Q356 416 329 416Q294 416 272 397Q250 378 243 346Q242 344 240.5 334Q239 324 238 322ZM260 -12Q218 -12 176.5 -3Q135 6 102.5 26Q70 46 49.5 79.5Q29 113 29 163Q29 195 36.5 233Q44 271 50 303Q60 360 88.5 405Q117 450 158 481Q199 512 250 528Q301 544 358 544Q399 544 435.5 533.5Q472 523 499.5 501.5Q527 480 543 447Q559 414 559 370Q559 337 551.5 296.5Q544 256 538 224H221Q219 215 217.5 206.5Q216 198 216 190Q216 171 225 158Q234 145 248.5 137.5Q263 130 280 126.5Q297 123 313 123Q357 123 396 132Q435 141 470 152L498 38Q447 13 391 0.5Q335 -12 260 -12Z" glyph-name="ebreve" horiz-adv-x="573" unicode="&#277;" /><glyph d="M207 760H353L389 681L459 760H600L437 584H301ZM385 322Q387 332 388.5 341Q390 350 390 360Q390 389 373 402.5Q356 416 329 416Q294 416 272 397Q250 378 243 346Q242 344 240.5 334Q239 324 238 322ZM260 -12Q218 -12 176.5 -3Q135 6 102.5 26Q70 46 49.5 79.5Q29 113 29 163Q29 195 36.5 233Q44 271 50 303Q60 360 88.5 405Q117 450 158 481Q199 512 250 528Q301 544 358 544Q399 544 435.5 533.5Q472 523 499.5 501.5Q527 480 543 447Q559 414 559 370Q559 337 551.5 296.5Q544 256 538 224H221Q219 215 217.5 206.5Q216 198 216 190Q216 171 225 158Q234 145 248.5 137.5Q263 130 280 126.5Q297 123 313 123Q357 123 396 132Q435 141 470 152L498 38Q447 13 391 0.5Q335 -12 260 -12Z" glyph-name="ecaron" horiz-adv-x="573" unicode="&#283;" /><glyph d="M311 762H447L539 580H396L359 666L287 580H146ZM385 322Q387 332 388.5 341Q390 350 390 360Q390 389 373 402.5Q356 416 329 416Q294 416 272 397Q250 378 243 346Q242 344 240.5 334Q239 324 238 322ZM260 -12Q218 -12 176.5 -3Q135 6 102.5 26Q70 46 49.5 79.5Q29 113 29 163Q29 195 36.5 233Q44 271 50 303Q60 360 88.5 405Q117 450 158 481Q199 512 250 528Q301 544 358 544Q399 544 435.5 533.5Q472 523 499.5 501.5Q527 480 543 447Q559 414 559 370Q559 337 551.5 296.5Q544 256 538 224H221Q219 215 217.5 206.5Q216 198 216 190Q216 171 225 158Q234 145 248.5 137.5Q263 130 280 126.5Q297 123 313 123Q357 123 396 132Q435 141 470 152L498 38Q447 13 391 0.5Q335 -12 260 -12Z" glyph-name="ecircumflex" horiz-adv-x="573" unicode="&#234;" /><glyph d="M407 747H565L536 584H378ZM183 747H341L312 584H154ZM385 322Q387 332 388.5 341Q390 350 390 360Q390 389 373 402.5Q356 416 329 416Q294 416 272 397Q250 378 243 346Q242 344 240.5 334Q239 324 238 322ZM260 -12Q218 -12 176.5 -3Q135 6 102.5 26Q70 46 49.5 79.5Q29 113 29 163Q29 195 36.5 233Q44 271 50 303Q60 360 88.5 405Q117 450 158 481Q199 512 250 528Q301 544 358 544Q399 544 435.5 533.5Q472 523 499.5 501.5Q527 480 543 447Q559 414 559 370Q559 337 551.5 296.5Q544 256 538 224H221Q219 215 217.5 206.5Q216 198 216 190Q216 171 225 158Q234 145 248.5 137.5Q263 130 280 126.5Q297 123 313 123Q357 123 396 132Q435 141 470 152L498 38Q447 13 391 0.5Q335 -12 260 -12Z" glyph-name="edieresis" horiz-adv-x="573" unicode="&#235;" /><glyph d="M281 743H464L437 589H254ZM385 322Q387 332 388.5 341Q390 350 390 360Q390 389 373 402.5Q356 416 329 416Q294 416 272 397Q250 378 243 346Q242 344 240.5 334Q239 324 238 322ZM260 -12Q218 -12 176.5 -3Q135 6 102.5 26Q70 46 49.5 79.5Q29 113 29 163Q29 195 36.5 233Q44 271 50 303Q60 360 88.5 405Q117 450 158 481Q199 512 250 528Q301 544 358 544Q399 544 435.5 533.5Q472 523 499.5 501.5Q527 480 543 447Q559 414 559 370Q559 337 551.5 296.5Q544 256 538 224H221Q219 215 217.5 206.5Q216 198 216 190Q216 171 225 158Q234 145 248.5 137.5Q263 130 280 126.5Q297 123 313 123Q357 123 396 132Q435 141 470 152L498 38Q447 13 391 0.5Q335 -12 260 -12Z" glyph-name="edotaccent" horiz-adv-x="573" unicode="&#279;" /><glyph d="M171 757H346L403 579H281ZM385 322Q387 332 388.5 341Q390 350 390 360Q390 389 373 402.5Q356 416 329 416Q294 416 272 397Q250 378 243 346Q242 344 240.5 334Q239 324 238 322ZM260 -12Q218 -12 176.5 -3Q135 6 102.5 26Q70 46 49.5 79.5Q29 113 29 163Q29 195 36.5 233Q44 271 50 303Q60 360 88.5 405Q117 450 158 481Q199 512 250 528Q301 544 358 544Q399 544 435.5 533.5Q472 523 499.5 501.5Q527 480 543 447Q559 414 559 370Q559 337 551.5 296.5Q544 256 538 224H221Q219 215 217.5 206.5Q216 198 216 190Q216 171 225 158Q234 145 248.5 137.5Q263 130 280 126.5Q297 123 313 123Q357 123 396 132Q435 141 470 152L498 38Q447 13 391 0.5Q335 -12 260 -12Z" glyph-name="egrave" horiz-adv-x="573" unicode="&#232;" /><glyph d="M350 420Q381 420 407 435.5Q433 451 439 484Q442 501 444.5 511.5Q447 522 447 532Q447 561 425 573.5Q403 586 377 586Q363 586 348.5 582.5Q334 579 322 572Q310 565 301.5 553.5Q293 542 290 527Q288 513 284.5 498.5Q281 484 281 470Q281 456 287 446.5Q293 437 303 431Q313 425 325.5 422.5Q338 420 350 420ZM297 126Q329 126 355 141.5Q381 157 388 191Q391 204 393.5 218.5Q396 233 396 241Q396 271 374 282.5Q352 294 326 294Q297 294 270.5 280Q244 266 238 235Q235 221 232 205Q229 189 229 178Q229 149 250.5 137.5Q272 126 297 126ZM274 -12Q235 -12 192.5 -6Q150 0 114.5 17Q79 34 56.5 64.5Q34 95 34 145Q34 161 36.5 178.5Q39 196 44 220Q52 268 82.5 303.5Q113 339 155 359Q127 373 113.5 402Q100 431 100 462Q100 477 103 493Q106 509 109 524Q118 576 147 613.5Q176 651 216.5 676Q257 701 305.5 713Q354 725 402 725Q440 725 480.5 717Q521 709 554 690.5Q587 672 608.5 640.5Q630 609 630 563Q630 546 626.5 522Q623 498 619 482Q609 441 584 409.5Q559 378 522 360Q553 344 570.5 313.5Q588 283 588 249Q588 232 584.5 214.5Q581 197 577 180Q566 127 535 90.5Q504 54 461.5 31.5Q419 9 369.5 -1.5Q320 -12 274 -12Z" glyph-name="eight" horiz-adv-x="615" unicode="8" /><glyph d="M202 233Q218 233 230 241Q242 249 245 265Q247 280 247.5 284.5Q248 289 248 291Q248 305 238 311Q228 317 215 317Q201 317 189 309.5Q177 302 175 288Q171 268 170.5 263.5Q170 259 170 257Q170 233 202 233ZM173 71Q190 71 202 79Q214 87 216 103Q218 119 219 124Q220 129 220 131Q220 145 210 150.5Q200 156 187 156Q173 156 160.5 148.5Q148 141 146 127Q142 109 141 102.5Q140 96 140 95Q140 83 149 77Q158 71 173 71ZM158 -12Q126 -12 100 -7Q74 -2 54.5 8.5Q35 19 24.5 36Q14 53 14 78Q14 83 15 90.5Q16 98 19 119Q24 146 42 165.5Q60 185 82 196Q67 203 59 219Q51 235 51 253Q51 256 51.5 261.5Q52 267 56 287Q61 315 77 336Q93 357 116.5 371.5Q140 386 169.5 393.5Q199 401 231 401Q259 401 284.5 395Q310 389 328.5 377.5Q347 366 358 348.5Q369 331 369 307Q369 274 355 243.5Q341 213 310 196Q325 188 335 171Q345 154 345 134Q345 132 344.5 125.5Q344 119 339 96Q334 70 318 49.5Q302 29 278 15.5Q254 2 223 -5Q192 -12 158 -12Z" glyph-name="eight.dnom" horiz-adv-x="388" /><glyph d="M257 549Q273 549 285 557Q297 565 300 581Q302 596 302.5 600.5Q303 605 303 607Q303 621 293 627Q283 633 270 633Q256 633 244 625.5Q232 618 230 604Q226 584 225.5 579.5Q225 575 225 573Q225 549 257 549ZM228 387Q245 387 257 395Q269 403 271 419Q273 435 274 440Q275 445 275 447Q275 461 265 466.5Q255 472 242 472Q228 472 215.5 464.5Q203 457 201 443Q197 425 196 418.5Q195 412 195 411Q195 399 204 393Q213 387 228 387ZM213 304Q181 304 155 309Q129 314 109.5 324.5Q90 335 79.5 352Q69 369 69 394Q69 399 70 406.5Q71 414 74 435Q79 462 97 481.5Q115 501 137 512Q122 519 114 535Q106 551 106 569Q106 572 106.5 577.5Q107 583 111 603Q116 631 132 652Q148 673 171.5 687.5Q195 702 224.5 709.5Q254 717 286 717Q314 717 339.5 711Q365 705 383.5 693.5Q402 682 413 664.5Q424 647 424 623Q424 590 410 559.5Q396 529 365 512Q380 504 390 487Q400 470 400 450Q400 448 399.5 441.5Q399 435 394 412Q389 386 373 365.5Q357 345 333 331.5Q309 318 278 311Q247 304 213 304Z" glyph-name="eight.numr" horiz-adv-x="388" /><glyph d="M350 420Q381 420 407 435.5Q433 451 439 484Q442 501 444.5 511.5Q447 522 447 532Q447 561 425 573.5Q403 586 377 586Q363 586 348.5 582.5Q334 579 322 572Q310 565 301.5 553.5Q293 542 290 527Q288 513 284.5 498.5Q281 484 281 470Q281 456 287 446.5Q293 437 303 431Q313 425 325.5 422.5Q338 420 350 420ZM297 126Q329 126 355 141.5Q381 157 388 191Q391 204 393.5 218.5Q396 233 396 241Q396 271 374 282.5Q352 294 326 294Q297 294 270.5 280Q244 266 238 235Q235 221 232 205Q229 189 229 178Q229 149 250.5 137.5Q272 126 297 126ZM274 -12Q235 -12 192.5 -6Q150 0 114.5 17Q79 34 56.5 64.5Q34 95 34 145Q34 161 36.5 178.5Q39 196 44 220Q52 268 82.5 303.5Q113 339 155 359Q127 373 113.5 402Q100 431 100 462Q100 477 103 493Q106 509 109 524Q118 576 147 613.5Q176 651 216.5 676Q257 701 305.5 713Q354 725 402 725Q440 725 480.5 717Q521 709 554 690.5Q587 672 608.5 640.5Q630 609 630 563Q630 546 626.5 522Q623 498 619 482Q609 441 584 409.5Q559 378 522 360Q553 344 570.5 313.5Q588 283 588 249Q588 232 584.5 214.5Q581 197 577 180Q566 127 535 90.5Q504 54 461.5 31.5Q419 9 369.5 -1.5Q320 -12 274 -12Z" glyph-name="eight.osf" horiz-adv-x="615" /><glyph d="M334 420Q364 420 389.5 435.5Q415 451 421 484Q424 501 426.5 511.5Q429 522 429 532Q429 561 407.5 573.5Q386 586 361 586Q347 586 333.5 582.5Q320 579 308 572Q296 565 287.5 553.5Q279 542 276 527Q274 513 271 498.5Q268 484 268 470Q268 441 289 430.5Q310 420 334 420ZM283 126Q315 126 340 141.5Q365 157 371 191Q374 204 376.5 218.5Q379 233 379 241Q379 271 357.5 282.5Q336 294 311 294Q283 294 257.5 280.5Q232 267 226 235Q223 221 220 205Q217 189 217 178Q217 149 238 137.5Q259 126 283 126ZM261 -12Q223 -12 181.5 -6Q140 0 106 17Q72 34 50 64.5Q28 95 28 145Q28 161 30.5 178.5Q33 196 38 220Q46 268 75 303.5Q104 339 145 359Q118 373 105 402Q92 431 92 462Q92 477 95 493Q98 509 101 524Q110 576 138 613.5Q166 651 205 676Q244 701 291 713Q338 725 385 725Q422 725 461 717Q500 709 532 690.5Q564 672 585 640.5Q606 609 606 563Q606 546 602.5 522Q599 498 595 482Q586 441 561.5 409.5Q537 378 501 360Q531 344 548 313.5Q565 283 565 249Q565 232 562 214.5Q559 197 555 180Q545 127 514.5 90.5Q484 54 443 31.5Q402 9 354 -1.5Q306 -12 261 -12Z" glyph-name="eight.tf" horiz-adv-x="590" /><glyph d="M334 420Q364 420 389.5 435.5Q415 451 421 484Q424 501 426.5 511.5Q429 522 429 532Q429 561 407.5 573.5Q386 586 361 586Q347 586 333.5 582.5Q320 579 308 572Q296 565 287.5 553.5Q279 542 276 527Q274 513 271 498.5Q268 484 268 470Q268 441 289 430.5Q310 420 334 420ZM283 126Q315 126 340 141.5Q365 157 371 191Q374 204 376.5 218.5Q379 233 379 241Q379 271 357.5 282.5Q336 294 311 294Q283 294 257.5 280.5Q232 267 226 235Q223 221 220 205Q217 189 217 178Q217 149 238 137.5Q259 126 283 126ZM261 -12Q223 -12 181.5 -6Q140 0 106 17Q72 34 50 64.5Q28 95 28 145Q28 161 30.5 178.5Q33 196 38 220Q46 268 75 303.5Q104 339 145 359Q118 373 105 402Q92 431 92 462Q92 477 95 493Q98 509 101 524Q110 576 138 613.5Q166 651 205 676Q244 701 291 713Q338 725 385 725Q422 725 461 717Q500 709 532 690.5Q564 672 585 640.5Q606 609 606 563Q606 546 602.5 522Q599 498 595 482Q586 441 561.5 409.5Q537 378 501 360Q531 344 548 313.5Q565 283 565 249Q565 232 562 214.5Q559 197 555 180Q545 127 514.5 90.5Q484 54 443 31.5Q402 9 354 -1.5Q306 -12 261 -12Z" glyph-name="eight.tosf" horiz-adv-x="590" /><glyph d="M568 183H751L719 0H535ZM315 183H498L466 0H282ZM62 183H245L213 0H29Z" glyph-name="ellipsis" horiz-adv-x="808" unicode="&#8230;" /><glyph d="M194 713H547L524 584H171ZM385 322Q387 332 388.5 341Q390 350 390 360Q390 389 373 402.5Q356 416 329 416Q294 416 272 397Q250 378 243 346Q242 344 240.5 334Q239 324 238 322ZM260 -12Q218 -12 176.5 -3Q135 6 102.5 26Q70 46 49.5 79.5Q29 113 29 163Q29 195 36.5 233Q44 271 50 303Q60 360 88.5 405Q117 450 158 481Q199 512 250 528Q301 544 358 544Q399 544 435.5 533.5Q472 523 499.5 501.5Q527 480 543 447Q559 414 559 370Q559 337 551.5 296.5Q544 256 538 224H221Q219 215 217.5 206.5Q216 198 216 190Q216 171 225 158Q234 145 248.5 137.5Q263 130 280 126.5Q297 123 313 123Q357 123 396 132Q435 141 470 152L498 38Q447 13 391 0.5Q335 -12 260 -12Z" glyph-name="emacron" horiz-adv-x="573" unicode="&#275;" /><glyph d="M27 376H1027L1008 264H9Z" glyph-name="emdash" horiz-adv-x="1000" unicode="&#8212;" /><glyph d="M38 438H1038L1019 326H20Z" glyph-name="emdash.case" horiz-adv-x="1000" /><glyph d="M27 376H527L508 264H9Z" glyph-name="endash" horiz-adv-x="500" unicode="&#8211;" /><glyph d="M38 438H538L519 326H20Z" glyph-name="endash.case" horiz-adv-x="500" /><glyph d="M319 -192Q296 -192 280 -190.5Q264 -189 246 -186L269 -56Q274 -56 282.5 -56.5Q291 -57 296 -57Q319 -57 330.5 -45Q342 -33 346 -13L403 312Q404 319 405.5 328.5Q407 338 407 346Q407 371 391 387.5Q375 404 344 404Q323 404 307 395.5Q291 387 279.5 372.5Q268 358 260.5 339.5Q253 321 250 301L196 0H14L107 533H286L275 464H277Q314 504 357 524.5Q400 545 454 545Q483 545 509.5 536.5Q536 528 556 511.5Q576 495 588 471.5Q600 448 600 418Q600 409 598.5 394.5Q597 380 595 372L526 -28Q518 -70 498.5 -101Q479 -132 451 -152.5Q423 -173 389 -182.5Q355 -192 319 -192Z" glyph-name="eng" horiz-adv-x="616" unicode="&#331;" /><glyph d="M385 322Q387 332 388.5 341Q390 350 390 360Q390 389 373 402.5Q356 416 329 416Q294 416 272 397Q250 378 243 346Q242 344 240.5 334Q239 324 238 322ZM422 8Q399 1 377 -9Q355 -19 338 -31Q321 -43 310.5 -57.5Q300 -72 300 -88Q300 -102 309 -109.5Q318 -117 339 -117Q350 -117 368.5 -112Q387 -107 405 -97L428 -190Q398 -204 361.5 -214.5Q325 -225 282 -225Q225 -225 197.5 -203Q170 -181 170 -146Q170 -106 193 -72Q216 -38 252 -12Q211 -11 171 -2Q131 7 99.5 27.5Q68 48 48.5 81.5Q29 115 29 163Q29 195 36.5 233Q44 271 50 303Q60 360 88.5 405Q117 450 158 481Q199 512 250 528Q301 544 358 544Q399 544 435.5 533.5Q472 523 499.5 501.5Q527 480 543 447Q559 414 559 370Q559 337 551.5 296.5Q544 256 538 224H221Q219 215 217.5 206.5Q216 198 216 190Q216 171 225 158Q234 145 248.5 137.5Q263 130 280 126.5Q297 123 313 123Q357 123 396 132Q435 141 470 152L498 38Q479 29 460.5 21Q442 13 422 8Z" glyph-name="eogonek" horiz-adv-x="573" unicode="&#281;" /><glyph d="M67 474H624L605 366H48ZM28 255H585L567 147H11Z" glyph-name="equal" horiz-adv-x="590" unicode="=" /><glyph d="M30 272H321L309 204H18ZM10 157H301L289 88H-2Z" glyph-name="equal.dnom" horiz-adv-x="320" /><glyph d="M85 588H376L364 520H73ZM65 473H356L344 404H53Z" glyph-name="equal.numr" horiz-adv-x="320" /><glyph d="M279 123Q316 123 337 145Q358 167 364 199L382 304Q383 309 383.5 313.5Q384 318 384 323Q384 350 367.5 366Q351 382 324 382Q287 382 265.5 359Q244 336 238 301L220 198Q218 193 218 187.5Q218 182 218 177Q218 123 279 123ZM254 -12Q212 -12 171.5 -3.5Q131 5 99.5 25Q68 45 48.5 77.5Q29 110 29 159Q29 170 30 181.5Q31 193 33 205Q33 206 35 219Q37 232 40 247.5Q43 263 45 275.5Q47 288 47 290Q55 336 75 373Q95 410 123.5 437Q152 464 187 481.5Q222 499 261 507Q268 509 276.5 509.5Q285 510 292 512L268 559L176 536L144 619L223 638L180 713H394L409 686L487 704L519 621L453 606L547 429Q558 410 565 386Q572 362 572 334Q572 323 570 304.5Q568 286 566 275Q566 273 564 263Q562 253 559.5 241.5Q557 230 555.5 219.5Q554 209 554 208Q543 149 512.5 107.5Q482 66 440.5 39.5Q399 13 350 0.5Q301 -12 254 -12Z" glyph-name="eth" horiz-adv-x="588" unicode="&#240;" /><glyph d="M109 466 153 713H344L301 466L217 234H111ZM63 181H246L214 0H31Z" glyph-name="exclam" horiz-adv-x="315" unicode="!" /><glyph d="M125 537H309L277 356H93ZM38 71 122 303H228L230 71L186 -177H-5Z" glyph-name="exclamdown" horiz-adv-x="315" unicode="&#161;" /><glyph d="M160 713H344L312 532H128ZM73 247 157 479H263L265 247L221 -1H30Z" glyph-name="exclamdown.case" horiz-adv-x="315" /><glyph d="M226 -28Q218 -70 198.5 -101Q179 -132 151 -152.5Q123 -173 89 -182.5Q55 -192 19 -192Q-4 -192 -20 -190.5Q-36 -189 -54 -186L-31 -56Q-26 -56 -17.5 -56.5Q-9 -57 -4 -57Q19 -57 30.5 -45Q42 -33 46 -13L119 394H46L69 522H142L152 575Q159 618 179 647.5Q199 677 227 695Q255 713 287.5 721Q320 729 353 729Q376 729 402 727.5Q428 726 452 717L432 605Q421 606 406.5 607Q392 608 380 608Q363 608 349.5 598.5Q336 589 332 570L324 522H413L390 394H301Z" glyph-name="f" horiz-adv-x="387" unicode="f" /><glyph d="M494 729H676L650 586H467ZM19 -192Q-4 -192 -20 -190.5Q-36 -189 -54 -186L-31 -56Q-26 -56 -17.5 -56.5Q-9 -57 -4 -57Q19 -57 30.5 -45Q42 -33 46 -13L121 401H47L70 532H144L151 573Q158 616 178.5 646Q199 676 227 695Q255 714 287.5 722.5Q320 731 353 731Q377 731 400.5 729.5Q424 728 444 724L421 600Q409 602 399.5 603Q390 604 379 604Q361 604 348.5 596.5Q336 589 331 568L325 532H639L545 0H363L433 401H302L226 -28Q218 -70 198.5 -101Q179 -132 151 -152.5Q123 -173 89 -182.5Q55 -192 19 -192Z" glyph-name="f_i" horiz-adv-x="638" /><glyph d="M547 -11Q519 -11 494 -5Q469 1 450 14.5Q431 28 420 49Q409 70 409 99Q409 115 412 132L514 713H698L604 181Q603 178 603 174Q603 170 603 167Q603 150 614 145.5Q625 141 637 141Q648 141 659.5 142Q671 143 681 145L657 7Q630 -1 603 -6Q576 -11 547 -11ZM226 -28Q218 -70 198.5 -101Q179 -132 151 -152.5Q123 -173 89 -182.5Q55 -192 19 -192Q-4 -192 -20 -190.5Q-36 -189 -54 -186L-31 -56Q-26 -56 -17.5 -56.5Q-9 -57 -4 -57Q19 -57 30.5 -45Q42 -33 46 -13L119 394H46L69 522H142L152 575Q159 618 179 647.5Q199 677 227 695Q255 713 287.5 721Q320 729 353 729Q376 729 402 727.5Q428 726 452 717L432 605Q421 606 406.5 607Q392 608 380 608Q363 608 349.5 598.5Q336 589 332 570L324 522H413L390 394H301Z" glyph-name="f_l" horiz-adv-x="717" /><glyph d="M494 729H676L650 586H467ZM19 -192Q-4 -192 -20 -190.5Q-36 -189 -54 -186L-31 -56Q-26 -56 -17.5 -56.5Q-9 -57 -4 -57Q19 -57 30.5 -45Q42 -33 46 -13L121 401H47L70 532H144L151 573Q158 616 178.5 646Q199 676 227 695Q255 714 287.5 722.5Q320 731 353 731Q377 731 400.5 729.5Q424 728 444 724L421 600Q409 602 399.5 603Q390 604 379 604Q361 604 348.5 596.5Q336 589 331 568L325 532H639L545 0H363L433 401H302L226 -28Q218 -70 198.5 -101Q179 -132 151 -152.5Q123 -173 89 -182.5Q55 -192 19 -192Z" glyph-name="fi" horiz-adv-x="638" unicode="&#64257;" /><glyph d="M262 -12Q226 -12 186 -5Q146 2 113 19Q80 36 58 65.5Q36 95 36 139Q36 158 40 178Q44 198 49 214H226Q225 208 223.5 201.5Q222 195 222 188Q222 173 228.5 163Q235 153 245 147.5Q255 142 267.5 139.5Q280 137 292 137Q333 137 354.5 158.5Q376 180 383 218Q385 232 388.5 249Q392 266 392 280Q392 310 371.5 323.5Q351 337 325 337Q302 337 283 327Q264 317 248 302L84 323L172 713H613L586 560H292L261 415Q333 459 419 459Q451 459 481 451Q511 443 534.5 426.5Q558 410 572 384Q586 358 586 322Q586 294 579.5 260Q573 226 568 198Q556 139 526 99Q496 59 454 34.5Q412 10 362.5 -1Q313 -12 262 -12Z" glyph-name="five" horiz-adv-x="603" unicode="5" /><glyph d="M160 -12Q100 -12 61 10.5Q22 33 22 76Q22 80 23 93.5Q24 107 28 119H147Q145 110 145 106.5Q145 103 145 101Q145 91 152 84.5Q159 78 177 78Q197 78 208.5 90Q220 102 222 118L225 141Q226 143 226 150Q226 163 218 171.5Q210 180 194 180Q180 180 171.5 174Q163 168 157 162L49 173L98 393H365L348 294H175L161 231Q183 244 206 249.5Q229 255 255 255Q273 255 290.5 251Q308 247 322 237.5Q336 228 344.5 213Q353 198 353 176Q353 171 352.5 166.5Q352 162 351 157L342 107Q337 77 319.5 55Q302 33 276.5 18Q251 3 220.5 -4.5Q190 -12 160 -12Z" glyph-name="five.dnom" horiz-adv-x="388" /><glyph d="M207 304Q147 304 108 326.5Q69 349 69 392Q69 396 70 409.5Q71 423 75 435H194Q192 426 192 422.5Q192 419 192 417Q192 407 199 400.5Q206 394 224 394Q244 394 255.5 406Q267 418 269 434L272 457Q273 459 273 466Q273 479 265 487.5Q257 496 241 496Q227 496 218.5 490Q210 484 204 478L96 489L145 709H412L395 610H222L208 547Q230 560 253 565.5Q276 571 302 571Q320 571 337.5 567Q355 563 369 553.5Q383 544 391.5 529Q400 514 400 492Q400 487 399.5 482.5Q399 478 398 473L389 423Q384 393 366.5 371Q349 349 323.5 334Q298 319 267.5 311.5Q237 304 207 304Z" glyph-name="five.numr" horiz-adv-x="388" /><glyph d="M236 -187Q200 -187 160 -180Q120 -173 87 -156Q54 -139 32 -109.5Q10 -80 10 -36Q10 -17 14 3Q18 23 23 39H200Q199 33 197.5 26.5Q196 20 196 13Q196 -2 202.5 -12Q209 -22 219 -27.5Q229 -33 241.5 -35.5Q254 -38 266 -38Q307 -38 328.5 -16.5Q350 5 357 43Q359 57 362.5 74Q366 91 366 105Q366 135 345.5 148.5Q325 162 299 162Q276 162 257 152Q238 142 222 127L58 148L146 538H587L560 385H266L235 240Q307 284 393 284Q425 284 455 276Q485 268 508.5 251.5Q532 235 546 209Q560 183 560 147Q560 119 553.5 85Q547 51 542 23Q530 -36 500 -76Q470 -116 428 -140.5Q386 -165 336.5 -176Q287 -187 236 -187Z" glyph-name="five.osf" horiz-adv-x="603" /><glyph d="M246 -12Q211 -12 172.5 -5Q134 2 101.5 19Q69 36 48 65.5Q27 95 27 139Q27 158 31 178Q35 198 40 214H211Q210 208 208.5 201.5Q207 195 207 188Q207 173 213.5 163Q220 153 229.5 147.5Q239 142 251 139.5Q263 137 275 137Q315 137 336 158.5Q357 180 364 218Q366 232 369 249Q372 266 372 280Q372 310 352.5 323.5Q333 337 307 337Q285 337 266.5 327Q248 317 233 302L73 323L159 713H587L560 560H275L245 415Q315 459 398 459Q429 459 458.5 451Q488 443 510.5 426.5Q533 410 546.5 384Q560 358 560 322Q560 294 554 260Q548 226 543 198Q532 139 502.5 99Q473 59 432.5 34.5Q392 10 343.5 -1Q295 -12 246 -12Z" glyph-name="five.tf" horiz-adv-x="590" /><glyph d="M225 -187Q190 -187 151.5 -180Q113 -173 80.5 -156Q48 -139 27 -109.5Q6 -80 6 -36Q6 -17 10 3Q14 23 19 39H190Q189 33 187.5 26.5Q186 20 186 13Q186 -2 192.5 -12Q199 -22 208.5 -27.5Q218 -33 230 -35.5Q242 -38 254 -38Q294 -38 315 -16.5Q336 5 343 43Q345 57 348 74Q351 91 351 105Q351 135 331.5 148.5Q312 162 286 162Q264 162 245.5 152Q227 142 212 127L52 148L138 538H566L539 385H254L224 240Q294 284 377 284Q408 284 437.5 276Q467 268 489.5 251.5Q512 235 525.5 209Q539 183 539 147Q539 119 533 85Q527 51 522 23Q511 -36 481.5 -76Q452 -116 411.5 -140.5Q371 -165 322.5 -176Q274 -187 225 -187Z" glyph-name="five.tosf" horiz-adv-x="590" /><glyph d="M651 717H749L282 -2H184ZM197 306Q137 306 98 328.5Q59 351 59 394Q59 398 60 411.5Q61 425 65 437H184Q182 428 182 424.5Q182 421 182 419Q182 409 189 402.5Q196 396 214 396Q234 396 245.5 408Q257 420 259 436L262 459Q263 461 263 468Q263 481 255 489.5Q247 498 231 498Q217 498 208.5 492Q200 486 194 480L86 491L135 711H402L385 612H212L198 549Q220 562 243 567.5Q266 573 292 573Q310 573 327.5 569Q345 565 359 555.5Q373 546 381.5 531Q390 516 390 494Q390 489 389.5 484.5Q389 480 388 475L379 425Q374 395 356.5 373Q339 351 313.5 336Q288 321 257.5 313.5Q227 306 197 306ZM695 233Q711 233 723 241Q735 249 738 265Q740 280 740.5 284.5Q741 289 741 291Q741 305 731 311Q721 317 708 317Q694 317 682 309.5Q670 302 668 288Q664 268 663.5 263.5Q663 259 663 257Q663 233 695 233ZM666 71Q683 71 695 79Q707 87 709 103Q711 119 712 124Q713 129 713 131Q713 145 703 150.5Q693 156 680 156Q666 156 653.5 148.5Q641 141 639 127Q635 109 634 102.5Q633 96 633 95Q633 83 642 77Q651 71 666 71ZM651 -12Q619 -12 593 -7Q567 -2 547.5 8.5Q528 19 517.5 36Q507 53 507 78Q507 83 508 90.5Q509 98 512 119Q517 146 535 165.5Q553 185 575 196Q560 203 552 219Q544 235 544 253Q544 256 544.5 261.5Q545 267 549 287Q554 315 570 336Q586 357 609.5 371.5Q633 386 662.5 393.5Q692 401 724 401Q752 401 777.5 395Q803 389 821.5 377.5Q840 366 851 348.5Q862 331 862 307Q862 274 848 243.5Q834 213 803 196Q818 188 828 171Q838 154 838 134Q838 132 837.5 125.5Q837 119 832 96Q827 70 811 49.5Q795 29 771 15.5Q747 2 716 -5Q685 -12 651 -12Z" glyph-name="fiveeighths" horiz-adv-x="876" unicode="&#8541;" /><glyph d="M547 -11Q519 -11 494 -5Q469 1 450 14.5Q431 28 420 49Q409 70 409 99Q409 115 412 132L514 713H698L604 181Q603 178 603 174Q603 170 603 167Q603 150 614 145.5Q625 141 637 141Q648 141 659.5 142Q671 143 681 145L657 7Q630 -1 603 -6Q576 -11 547 -11ZM226 -28Q218 -70 198.5 -101Q179 -132 151 -152.5Q123 -173 89 -182.5Q55 -192 19 -192Q-4 -192 -20 -190.5Q-36 -189 -54 -186L-31 -56Q-26 -56 -17.5 -56.5Q-9 -57 -4 -57Q19 -57 30.5 -45Q42 -33 46 -13L119 394H46L69 522H142L152 575Q159 618 179 647.5Q199 677 227 695Q255 713 287.5 721Q320 729 353 729Q376 729 402 727.5Q428 726 452 717L432 605Q421 606 406.5 607Q392 608 380 608Q363 608 349.5 598.5Q336 589 332 570L324 522H413L390 394H301Z" glyph-name="fl" horiz-adv-x="717" unicode="&#64258;" /><glyph d="M60 -192Q35 -192 13.5 -189Q-8 -186 -24 -182L2 -51Q6 -52 14 -53Q22 -54 27 -54Q48 -54 57 -43Q66 -32 70 -13L151 380H64L90 500H176L191 574Q200 617 222 647Q244 677 272.5 695.5Q301 714 334.5 722Q368 730 401 730Q424 730 449.5 727.5Q475 725 500 716L474 587Q463 589 447.5 590Q432 591 420 591Q403 591 390.5 582Q378 573 374 555L362 500H457L432 380H336L254 -27Q236 -112 184.5 -152Q133 -192 60 -192Z" glyph-name="florin" horiz-adv-x="434" unicode="&#402;" /><glyph d="M143 -192Q118 -192 96.5 -189Q75 -186 59 -182L85 -51Q89 -52 97 -53Q105 -54 110 -54Q131 -54 140 -43Q149 -32 153 -13L234 380H147L173 500H259L274 574Q283 617 305 647Q327 677 355.5 695.5Q384 714 417.5 722Q451 730 484 730Q507 730 532.5 727.5Q558 725 583 716L557 587Q546 589 530.5 590Q515 591 503 591Q486 591 473.5 582Q461 573 457 555L445 500H540L515 380H419L337 -27Q319 -112 267.5 -152Q216 -192 143 -192Z" glyph-name="florin.tf" horiz-adv-x="590" /><glyph d="M330 143H23L47 285L383 713H598L247 293H356L370 368L572 495L537 293H606L580 143H510L485 0H305Z" glyph-name="four" horiz-adv-x="623" unicode="4" /><glyph d="M186 77H6L21 160L214 399H347L144 165H202L208 204L335 280L315 165H354L338 77H299L286 0H172Z" glyph-name="four.dnom" horiz-adv-x="388" /><glyph d="M241 393H61L76 476L269 715H402L199 481H257L263 520L390 596L370 481H409L393 393H354L341 316H227Z" glyph-name="four.numr" horiz-adv-x="388" /><glyph d="M301 -23H-6L18 119L352 538H569L220 127H328L339 193L547 320L513 127H582L556 -23H487L460 -175H275Z" glyph-name="four.osf" horiz-adv-x="621" /><glyph d="M307 143H9L33 285L359 713H567L227 293H332L346 368L542 495L508 293H575L550 143H482L457 0H283Z" glyph-name="four.tf" horiz-adv-x="590" /><glyph d="M288 -23H-10L13 119L337 538H548L209 127H314L325 193L527 320L494 127H561L535 -23H468L442 -175H263Z" glyph-name="four.tosf" horiz-adv-x="590" /><glyph d="M274 717H372L-95 -2H-193Z" glyph-name="fraction" horiz-adv-x="126" unicode="&#8260;" /><glyph d="M284 163Q323 163 347 186Q371 209 378 246Q384 283 389 309Q394 335 394 350Q394 381 374 396Q354 411 323 411Q285 411 264 385.5Q243 360 237 325Q230 287 225 263.5Q220 240 220 224Q220 194 237.5 178.5Q255 163 284 163ZM204 -195Q141 -195 87.5 -182.5Q34 -170 -17 -143L65 -18Q100 -35 139.5 -43.5Q179 -52 218 -52Q268 -52 300.5 -29Q333 -6 342 45Q344 56 346 69Q348 82 350 93H345Q312 60 275.5 44.5Q239 29 193 29Q158 29 128 37.5Q98 46 76 63.5Q54 81 42 108Q30 135 30 173Q30 184 31 195.5Q32 207 34 219Q41 254 47 289Q53 324 59 357Q74 442 131 493.5Q188 545 283 545Q300 545 320.5 541.5Q341 538 360.5 530.5Q380 523 396.5 512Q413 501 423 486H426L434 532H610Q602 487 590.5 423.5Q579 360 567 293Q555 226 544 162.5Q533 99 525 54Q514 -9 485 -55.5Q456 -102 414 -133Q372 -164 318.5 -179.5Q265 -195 204 -195Z" glyph-name="g" horiz-adv-x="604" unicode="g" /><glyph d="M333 574Q258 574 217 613.5Q176 653 176 720Q176 727 176 733.5Q176 740 178 748H285Q287 717 300 697Q313 677 346 677Q414 677 438 748H553Q536 661 477 617.5Q418 574 333 574ZM284 163Q323 163 347 186Q371 209 378 246Q384 283 389 309Q394 335 394 350Q394 381 374 396Q354 411 323 411Q285 411 264 385.5Q243 360 237 325Q230 287 225 263.5Q220 240 220 224Q220 194 237.5 178.5Q255 163 284 163ZM204 -195Q141 -195 87.5 -182.5Q34 -170 -17 -143L65 -18Q100 -35 139.5 -43.5Q179 -52 218 -52Q268 -52 300.5 -29Q333 -6 342 45Q344 56 346 69Q348 82 350 93H345Q312 60 275.5 44.5Q239 29 193 29Q158 29 128 37.5Q98 46 76 63.5Q54 81 42 108Q30 135 30 173Q30 184 31 195.5Q32 207 34 219Q41 254 47 289Q53 324 59 357Q74 442 131 493.5Q188 545 283 545Q300 545 320.5 541.5Q341 538 360.5 530.5Q380 523 396.5 512Q413 501 423 486H426L434 532H610Q602 487 590.5 423.5Q579 360 567 293Q555 226 544 162.5Q533 99 525 54Q514 -9 485 -55.5Q456 -102 414 -133Q372 -164 318.5 -179.5Q265 -195 204 -195Z" glyph-name="gbreve" horiz-adv-x="604" unicode="&#287;" /><glyph d="M300 762H436L528 580H385L348 666L276 580H135ZM284 163Q323 163 347 186Q371 209 378 246Q384 283 389 309Q394 335 394 350Q394 381 374 396Q354 411 323 411Q285 411 264 385.5Q243 360 237 325Q230 287 225 263.5Q220 240 220 224Q220 194 237.5 178.5Q255 163 284 163ZM204 -195Q141 -195 87.5 -182.5Q34 -170 -17 -143L65 -18Q100 -35 139.5 -43.5Q179 -52 218 -52Q268 -52 300.5 -29Q333 -6 342 45Q344 56 346 69Q348 82 350 93H345Q312 60 275.5 44.5Q239 29 193 29Q158 29 128 37.5Q98 46 76 63.5Q54 81 42 108Q30 135 30 173Q30 184 31 195.5Q32 207 34 219Q41 254 47 289Q53 324 59 357Q74 442 131 493.5Q188 545 283 545Q300 545 320.5 541.5Q341 538 360.5 530.5Q380 523 396.5 512Q413 501 423 486H426L434 532H610Q602 487 590.5 423.5Q579 360 567 293Q555 226 544 162.5Q533 99 525 54Q514 -9 485 -55.5Q456 -102 414 -133Q372 -164 318.5 -179.5Q265 -195 204 -195Z" glyph-name="gcircumflex" horiz-adv-x="604" unicode="&#285;" /><glyph d="M352 783H467L417 588H265ZM284 163Q323 163 347 186Q371 209 378 246Q384 283 389 309Q394 335 394 350Q394 381 374 396Q354 411 323 411Q285 411 264 385.5Q243 360 237 325Q230 287 225 263.5Q220 240 220 224Q220 194 237.5 178.5Q255 163 284 163ZM204 -195Q141 -195 87.5 -182.5Q34 -170 -17 -143L65 -18Q100 -35 139.5 -43.5Q179 -52 218 -52Q268 -52 300.5 -29Q333 -6 342 45Q344 56 346 69Q348 82 350 93H345Q312 60 275.5 44.5Q239 29 193 29Q158 29 128 37.5Q98 46 76 63.5Q54 81 42 108Q30 135 30 173Q30 184 31 195.5Q32 207 34 219Q41 254 47 289Q53 324 59 357Q74 442 131 493.5Q188 545 283 545Q300 545 320.5 541.5Q341 538 360.5 530.5Q380 523 396.5 512Q413 501 423 486H426L434 532H610Q602 487 590.5 423.5Q579 360 567 293Q555 226 544 162.5Q533 99 525 54Q514 -9 485 -55.5Q456 -102 414 -133Q372 -164 318.5 -179.5Q265 -195 204 -195Z" glyph-name="gcommaaccent" horiz-adv-x="604" unicode="&#291;" /><glyph d="M255 743H438L411 589H228ZM284 163Q323 163 347 186Q371 209 378 246Q384 283 389 309Q394 335 394 350Q394 381 374 396Q354 411 323 411Q285 411 264 385.5Q243 360 237 325Q230 287 225 263.5Q220 240 220 224Q220 194 237.5 178.5Q255 163 284 163ZM204 -195Q141 -195 87.5 -182.5Q34 -170 -17 -143L65 -18Q100 -35 139.5 -43.5Q179 -52 218 -52Q268 -52 300.5 -29Q333 -6 342 45Q344 56 346 69Q348 82 350 93H345Q312 60 275.5 44.5Q239 29 193 29Q158 29 128 37.5Q98 46 76 63.5Q54 81 42 108Q30 135 30 173Q30 184 31 195.5Q32 207 34 219Q41 254 47 289Q53 324 59 357Q74 442 131 493.5Q188 545 283 545Q300 545 320.5 541.5Q341 538 360.5 530.5Q380 523 396.5 512Q413 501 423 486H426L434 532H610Q602 487 590.5 423.5Q579 360 567 293Q555 226 544 162.5Q533 99 525 54Q514 -9 485 -55.5Q456 -102 414 -133Q372 -164 318.5 -179.5Q265 -195 204 -195Z" glyph-name="gdotaccent" horiz-adv-x="604" unicode="&#289;" /><glyph d="M226 -28Q218 -70 198.5 -101Q179 -132 151 -152.5Q123 -173 89 -182.5Q55 -192 19 -192Q-4 -192 -20 -190.5Q-36 -189 -54 -186L-31 -56Q-26 -56 -17.5 -56.5Q-9 -57 -4 -57Q19 -57 30.5 -45Q42 -33 46 -13L118 392H43L66 522H145Q175 625 252 677Q329 729 437 729Q479 729 521.5 719.5Q564 710 598.5 689.5Q633 669 654.5 636.5Q676 604 676 557Q676 496 643 451.5Q610 407 551 390L549 382Q601 363 629.5 318Q658 273 658 216Q658 168 638.5 126.5Q619 85 585 54.5Q551 24 506.5 6Q462 -12 412 -12Q383 -12 349 -9Q315 -6 288 5L313 145Q328 141 343.5 138.5Q359 136 375 136Q414 136 443.5 157Q473 178 473 220Q473 241 461.5 255Q450 269 433 276.5Q416 284 396 287Q376 290 360 290L382 418H406Q446 432 468.5 460Q491 488 491 529Q491 548 484.5 561Q478 574 467 581.5Q456 589 442 592.5Q428 596 413 596Q371 596 349 570Q327 544 320 502Z" glyph-name="germandbls" horiz-adv-x="694" unicode="&#223;" /><glyph d="M195 757H370L427 579H305Z" glyph-name="grave" horiz-adv-x="588" unicode="`" /><glyph d="M-319 757H-144L-87 579H-209Z" glyph-name="gravecomb" horiz-adv-x="1" unicode="&#768;" /><glyph d="M-300 942H-125L-69 756H-191Z" glyph-name="gravecomb.case" horiz-adv-x="1" /><glyph d="M42 161 412 323 100 485 166 579 582 360 568 276 82 57Z" glyph-name="greater" horiz-adv-x="590" unicode="&gt;" /><glyph d="M49 273 425 422 103 569 169 668 594 463 580 379 81 175ZM4 108H556L537 0H-15Z" glyph-name="greaterequal" horiz-adv-x="590" unicode="&#8805;" /><glyph d="M305 260 568 474 635 403 490 260 586 116 493 48ZM25 260 289 474 355 403 210 260 306 116 213 48Z" glyph-name="guillemotleft" horiz-adv-x="630" unicode="&#171;" /><glyph d="M318 322 581 536 648 465 503 322 599 178 506 110ZM38 322 302 536 368 465 223 322 319 178 226 110Z" glyph-name="guillemotleft.case" horiz-adv-x="630" /><glyph d="M293 121 440 262 343 405 437 474 624 262 361 48ZM13 121 160 262 63 405 157 474 344 262 81 48Z" glyph-name="guillemotright" horiz-adv-x="630" unicode="&#187;" /><glyph d="M305 183 452 324 355 467 449 536 636 324 373 110ZM25 183 172 324 75 467 169 536 356 324 93 110Z" glyph-name="guillemotright.case" horiz-adv-x="630" /><glyph d="M25 260 289 474 355 403 210 260 306 116 213 48Z" glyph-name="guilsinglleft" horiz-adv-x="350" unicode="&#8249;" /><glyph d="M38 322 302 536 368 465 223 322 319 178 226 110Z" glyph-name="guilsinglleft.case" horiz-adv-x="350" /><glyph d="M13 121 160 262 63 405 157 474 344 262 81 48Z" glyph-name="guilsinglright" horiz-adv-x="350" unicode="&#8250;" /><glyph d="M25 183 172 324 75 467 169 536 356 324 93 110Z" glyph-name="guilsinglright.case" horiz-adv-x="350" /><glyph d="M139 713H322L278 460H281Q317 498 358.5 521.5Q400 545 454 545Q483 545 509.5 536.5Q536 528 556 511.5Q576 495 588 471.5Q600 448 600 418Q600 409 598.5 394.5Q597 380 595 372L531 0H348L403 312Q404 319 405.5 328.5Q407 338 407 346Q407 371 391 387.5Q375 404 344 404Q323 404 307 395Q291 386 279 371Q267 356 260 337.5Q253 319 250 301L196 0H14Z" glyph-name="h" horiz-adv-x="617" unicode="h" /><glyph d="M92 658H152L162 713H345L336 658H430L414 562H319L301 460H304Q378 545 481 545Q508 545 533.5 537Q559 529 579 513Q599 497 611 473Q623 449 623 418Q623 410 623 400.5Q623 391 621 381L554 0H371L425 308Q427 315 428.5 326.5Q430 338 430 345Q430 368 416 386Q402 404 367 404Q333 404 307 376.5Q281 349 273 301L219 0H37L135 562H76Z" glyph-name="hbar" horiz-adv-x="640" unicode="&#295;" /><glyph d="M197 942H333L425 756H282L245 845L173 756H32ZM139 713H322L278 460H281Q317 498 358.5 521.5Q400 545 454 545Q483 545 509.5 536.5Q536 528 556 511.5Q576 495 588 471.5Q600 448 600 418Q600 409 598.5 394.5Q597 380 595 372L531 0H348L403 312Q404 319 405.5 328.5Q407 338 407 346Q407 371 391 387.5Q375 404 344 404Q323 404 307 395Q291 386 279 371Q267 356 260 337.5Q253 319 250 301L196 0H14Z" glyph-name="hcircumflex" horiz-adv-x="617" unicode="&#293;" /><glyph d="M499 757H658L513 579H401ZM299 757H458L313 579H201Z" glyph-name="hungarumlaut" horiz-adv-x="588" unicode="&#733;" /><glyph d="M64 375H364L334 226H35Z" glyph-name="hyphen" horiz-adv-x="362" unicode="-" /><glyph d="M72 437H372L342 288H43Z" glyph-name="hyphen.case" horiz-adv-x="362" /><glyph d="M144 743H327L300 589H117ZM107 532H290L196 0H14Z" glyph-name="i" horiz-adv-x="289" unicode="i" /><glyph d="M144 743H327L300 589H117ZM107 532H290L196 0H14Z" glyph-name="i.latn_TRK" horiz-adv-x="289" /><glyph d="M265 757H440L268 579H146ZM107 532H290L196 0H14Z" glyph-name="iacute" horiz-adv-x="289" unicode="&#237;" /><glyph d="M201 574Q126 574 85 613.5Q44 653 44 720Q44 727 44 733.5Q44 740 46 748H153Q155 717 168 697Q181 677 214 677Q282 677 306 748H421Q404 661 345 617.5Q286 574 201 574ZM107 532H290L196 0H14Z" glyph-name="ibreve" horiz-adv-x="289" unicode="&#301;" /><glyph d="M176 762H312L404 580H261L224 666L152 580H11ZM107 532H290L196 0H14Z" glyph-name="icircumflex" horiz-adv-x="289" unicode="&#238;" /><glyph d="M271 747H429L400 584H242ZM47 747H205L176 584H18ZM107 532H290L196 0H14Z" glyph-name="idieresis" horiz-adv-x="289" unicode="&#239;" /><glyph d="M37 757H212L269 579H147ZM107 532H290L196 0H14Z" glyph-name="igrave" horiz-adv-x="289" unicode="&#236;" /><glyph d="M404 743H586L560 589H377ZM244 -192Q221 -192 205 -190.5Q189 -189 171 -186L194 -56Q199 -56 207.5 -56.5Q216 -57 221 -57Q244 -57 255.5 -45Q267 -33 271 -13L367 532H550L451 -28Q443 -70 423.5 -101Q404 -132 376 -152.5Q348 -173 314 -182.5Q280 -192 244 -192ZM144 743H327L300 589H117ZM107 532H290L196 0H14Z" glyph-name="ij" horiz-adv-x="544" unicode="&#307;" /><glyph d="M47 713H400L377 584H24ZM107 532H290L196 0H14Z" glyph-name="imacron" horiz-adv-x="289" unicode="&#299;" /><glyph d="M601 242Q623 242 642 250Q661 258 674.5 271.5Q688 285 696 303Q704 321 704 341Q704 367 689.5 383Q675 399 641 399Q609 399 572 374Q535 349 499 318Q508 303 517.5 289Q527 275 539 264.5Q551 254 566 248Q581 242 601 242ZM230 246Q267 246 303 270.5Q339 295 374 327Q366 340 356 354Q346 368 332.5 379.5Q319 391 303 398Q287 405 268 405Q247 405 229 397Q211 389 198 376.5Q185 364 177.5 347.5Q170 331 170 313Q170 284 185.5 265Q201 246 230 246ZM217 148Q141 148 100 188Q59 228 59 289Q59 334 78 372.5Q97 411 128 439.5Q159 468 199.5 484.5Q240 501 283 501Q342 501 384.5 474.5Q427 448 456 406Q475 422 497 437.5Q519 453 543.5 465.5Q568 478 596 486Q624 494 655 494Q730 494 772.5 460.5Q815 427 815 364Q815 317 796.5 276.5Q778 236 746.5 206.5Q715 177 673.5 160Q632 143 586 143Q521 143 481 171.5Q441 200 417 237Q373 201 323.5 174.5Q274 148 217 148Z" glyph-name="infinity" horiz-adv-x="844" unicode="&#8734;" /><glyph d="M31 -187Q9 -187 -20.5 -184Q-50 -181 -76 -172L-40 -51Q-28 -53 -14 -54Q0 -55 13 -55Q48 -55 58 -18L217 569Q227 606 247 636Q267 666 293.5 687Q320 708 351 719Q382 730 415 730Q438 730 468 727Q498 724 523 715L488 591Q476 593 461 596Q446 599 431 599Q396 599 386 562L229 -25Q218 -64 198.5 -94Q179 -124 153 -144.5Q127 -165 96 -176Q65 -187 31 -187Z" glyph-name="integral" horiz-adv-x="436" unicode="&#8747;" /><glyph d="M144 743H327L300 589H117ZM-43 -146Q-43 -116 -29.5 -89.5Q-16 -63 7 -40L107 532H290L196 0Q140 -17 113.5 -41Q87 -65 87 -88Q87 -102 96 -109.5Q105 -117 126 -117Q137 -117 155.5 -112Q174 -107 192 -97L215 -190Q185 -204 148.5 -214.5Q112 -225 69 -225Q12 -225 -15.5 -203Q-43 -181 -43 -146Z" glyph-name="iogonek" horiz-adv-x="289" unicode="&#303;" /><glyph d="M-46 592Q-36 622 -19.5 649.5Q-3 677 18.5 697Q40 717 66.5 729Q93 741 124 741Q147 741 168.5 735.5Q190 730 211 723.5Q232 717 253.5 711.5Q275 706 298 706Q318 706 328.5 719.5Q339 733 350 759L440 735Q431 706 416.5 679.5Q402 653 381.5 633Q361 613 335 600.5Q309 588 277 588Q254 588 232 593Q210 598 189.5 604.5Q169 611 149 616Q129 621 109 621Q87 621 75.5 610Q64 599 50 571ZM107 532H290L196 0H14Z" glyph-name="itilde" horiz-adv-x="289" unicode="&#297;" /><glyph d="M164 743H346L320 589H137ZM4 -192Q-19 -192 -35 -190.5Q-51 -189 -69 -186L-46 -56Q-41 -56 -32.5 -56.5Q-24 -57 -19 -57Q4 -57 15.5 -45Q27 -33 31 -13L127 532H310L211 -28Q203 -70 183.5 -101Q164 -132 136 -152.5Q108 -173 74 -182.5Q40 -192 4 -192Z" glyph-name="j" horiz-adv-x="304" unicode="j" /><glyph d="M195 762H331L423 580H280L243 666L171 580H30ZM4 -192Q-19 -192 -35 -190.5Q-51 -189 -69 -186L-46 -56Q-41 -56 -32.5 -56.5Q-24 -57 -19 -57Q4 -57 15.5 -45Q27 -33 31 -13L127 532H310L211 -28Q203 -70 183.5 -101Q164 -132 136 -152.5Q108 -173 74 -182.5Q40 -192 4 -192Z" glyph-name="jcircumflex" horiz-adv-x="304" unicode="&#309;" /><glyph d="M140 713H322L253 323L443 532H627L443 336L536 0H348L288 223L225 159L196 0H14Z" glyph-name="k" horiz-adv-x="579" unicode="k" /><glyph d="M196 -33H358L289 -197H155ZM140 713H322L253 323L443 532H627L443 336L536 0H348L288 223L225 159L196 0H14Z" glyph-name="kcommaaccent" horiz-adv-x="579" unicode="&#311;" /><glyph d="M290 532 253 323 443 532H627L443 336L536 0H348L288 223L225 159L196 0H14L108 532Z" glyph-name="kgreenlandic" horiz-adv-x="579" unicode="&#312;" /><glyph d="M170 -11Q142 -11 117 -5Q92 1 73 14.5Q54 28 43 49Q32 70 32 99Q32 115 35 132L137 713H321L227 181Q226 178 226 174Q226 170 226 167Q226 150 237 145.5Q248 141 260 141Q271 141 282.5 142Q294 143 304 145L280 7Q253 -1 226 -6Q199 -11 170 -11Z" glyph-name="l" horiz-adv-x="340" unicode="l" /><glyph d="M300 942H475L300 756H178ZM170 -11Q142 -11 117 -5Q92 1 73 14.5Q54 28 43 49Q32 70 32 99Q32 115 35 132L137 713H321L227 181Q226 178 226 174Q226 170 226 167Q226 150 237 145.5Q248 141 260 141Q271 141 282.5 142Q294 143 304 145L280 7Q253 -1 226 -6Q199 -11 170 -11Z" glyph-name="lacute" horiz-adv-x="340" unicode="&#314;" /><glyph d="M364 713H516L451 555H336ZM170 -11Q142 -11 117 -5Q92 1 73 14.5Q54 28 43 49Q32 70 32 99Q32 115 35 132L137 713H321L227 181Q226 178 226 174Q226 170 226 167Q226 150 237 145.5Q248 141 260 141Q271 141 282.5 142Q294 143 304 145L280 7Q253 -1 226 -6Q199 -11 170 -11Z" glyph-name="lcaron" horiz-adv-x="400" unicode="&#318;" /><glyph d="M76 -33H238L169 -197H35ZM170 -11Q142 -11 117 -5Q92 1 73 14.5Q54 28 43 49Q32 70 32 99Q32 115 35 132L137 713H321L227 181Q226 178 226 174Q226 170 226 167Q226 150 237 145.5Q248 141 260 141Q271 141 282.5 142Q294 143 304 145L280 7Q253 -1 226 -6Q199 -11 170 -11Z" glyph-name="lcommaaccent" horiz-adv-x="340" unicode="&#316;" /><glyph d="M170 -11Q142 -11 117 -5Q92 1 73 14.5Q54 28 43 49Q32 70 32 99Q32 115 35 132L137 713H321L227 181Q226 178 226 174Q226 170 226 167Q226 150 237 145.5Q248 141 260 141Q271 141 282.5 142Q294 143 304 145L280 7Q253 -1 226 -6Q199 -11 170 -11ZM318 482H501L474 328H291Z" glyph-name="ldot" horiz-adv-x="446" unicode="&#320;" /><glyph d="M57 276 71 359 556 578 597 475 227 313 540 150 473 56Z" glyph-name="less" horiz-adv-x="590" unicode="&lt;" /><glyph d="M81 379 95 463 593 668 624 569 250 422 575 273 508 175ZM9 108H561L543 0H-10Z" glyph-name="lessequal" horiz-adv-x="590" unicode="&#8804;" /><glyph d="M467 265 37 268 57 378 610 376 563 112H440Z" glyph-name="logicalnot" horiz-adv-x="590" unicode="&#172;" /><glyph d="M226 -28Q218 -70 198.5 -101Q179 -132 151 -152.5Q123 -173 89 -182.5Q55 -192 19 -192Q-4 -192 -20 -190.5Q-36 -189 -54 -186L-31 -56Q-26 -56 -17.5 -56.5Q-9 -57 -4 -57Q19 -57 30.5 -45Q42 -33 46 -13L119 394H46L69 522H142L152 575Q159 618 179 647.5Q199 677 227 695Q255 713 287.5 721Q320 729 353 729Q376 729 402.5 727Q429 725 452 717L432 605Q420 607 406 607.5Q392 608 380 608Q363 608 349.5 598.5Q336 589 332 570Z" glyph-name="longs" horiz-adv-x="364" unicode="&#383;" /><glyph d="M456 340 363 561 195 352 291 137ZM49 339 52 352 338 714H442L600 352L597 339L317 0H212Z" glyph-name="lozenge" horiz-adv-x="598" unicode="&#9674;" /><glyph d="M39 352 87 379 146 713H330L291 492L367 534L345 412L269 370L236 181Q235 178 235 174Q235 170 235 167Q235 150 246 145.5Q257 141 269 141Q280 141 291.5 142Q303 143 313 145L289 7Q262 -1 235 -6Q208 -11 179 -11Q151 -11 126 -5Q101 1 82 14.5Q63 28 52 49Q41 70 41 99Q41 115 44 132L66 256L18 230Z" glyph-name="lslash" horiz-adv-x="349" unicode="&#322;" /><glyph d="M107 533H286L275 464H277Q314 504 357 524.5Q400 545 454 545Q505 545 545.5 520Q586 495 597 448Q636 496 680.5 520.5Q725 545 788 545Q818 545 844.5 536.5Q871 528 891 511.5Q911 495 923 471.5Q935 448 935 418Q935 409 933.5 394.5Q932 380 930 372L865 0H682L737 312Q738 319 739.5 328.5Q741 338 741 346Q741 371 725 387.5Q709 404 678 404Q657 404 641 395Q625 386 613.5 371Q602 356 594.5 337.5Q587 319 584 301L531 0H348L405 328Q406 333 406.5 339.5Q407 346 407 349Q407 375 391 389.5Q375 404 344 404Q323 404 307 395Q291 386 279 371Q267 356 260 337.5Q253 319 250 301L196 0H14Z" glyph-name="m" horiz-adv-x="951" unicode="m" /><glyph d="M206 713H559L536 584H183Z" glyph-name="macron" horiz-adv-x="588" unicode="&#175;" /><glyph d="M79 370H575L556 263H60Z" glyph-name="minus" horiz-adv-x="590" unicode="&#8722;" /><glyph d="M19 214H310L298 145H7Z" glyph-name="minus.dnom" horiz-adv-x="320" /><glyph d="M74 530H365L353 461H62Z" glyph-name="minus.numr" horiz-adv-x="320" /><glyph d="M111 532H297L240 206Q238 196 238 190Q238 168 251.5 150Q265 132 300 132Q313 132 327.5 138Q342 144 354.5 155.5Q367 167 376.5 182.5Q386 198 390 218L445 532H632L574 208Q573 203 573 199.5Q573 196 573 193Q573 179 580.5 170.5Q588 162 608 160L577 -5Q511 -4 468.5 16.5Q426 37 416 82Q407 65 395 48.5Q383 32 366 18.5Q349 5 326.5 -3.5Q304 -12 275 -12Q232 -12 208 4.5Q184 21 178 47L169 45L182 -163L-14 -178Z" glyph-name="mu" horiz-adv-x="637" unicode="&#181;" /><glyph d="M37 142 238 318 94 501 177 575 321 392 523 569 593 489 392 311 537 131 454 56 308 236 105 60Z" glyph-name="multiply" horiz-adv-x="590" unicode="&#215;" /><glyph d="M107 533H286L275 464H277Q314 504 357 524.5Q400 545 454 545Q483 545 509.5 536.5Q536 528 556 511.5Q576 495 588 471.5Q600 448 600 418Q600 409 598.5 394.5Q597 380 595 372L531 0H348L403 312Q404 319 405.5 328.5Q407 338 407 346Q407 371 391 387.5Q375 404 344 404Q323 404 307 395.5Q291 387 279.5 372.5Q268 358 260.5 339.5Q253 321 250 301L196 0H14Z" glyph-name="n" horiz-adv-x="617" unicode="n" /><glyph d="M424 757H599L427 579H305ZM107 533H286L275 464H277Q314 504 357 524.5Q400 545 454 545Q483 545 509.5 536.5Q536 528 556 511.5Q576 495 588 471.5Q600 448 600 418Q600 409 598.5 394.5Q597 380 595 372L531 0H348L403 312Q404 319 405.5 328.5Q407 338 407 346Q407 371 391 387.5Q375 404 344 404Q323 404 307 395.5Q291 387 279.5 372.5Q268 358 260.5 339.5Q253 321 250 301L196 0H14Z" glyph-name="nacute" horiz-adv-x="617" unicode="&#324;" /><glyph d="M107 533H286L275 464H277Q314 504 357 524.5Q400 545 454 545Q483 545 509.5 536.5Q536 528 556 511.5Q576 495 588 471.5Q600 448 600 418Q600 409 598.5 394.5Q597 380 595 372L531 0H348L403 312Q404 319 405.5 328.5Q407 338 407 346Q407 371 391 387.5Q375 404 344 404Q323 404 307 395.5Q291 387 279.5 372.5Q268 358 260.5 339.5Q253 321 250 301L196 0H14ZM65 712H211L149 568H38Z" glyph-name="napostrophe" horiz-adv-x="617" unicode="&#329;" /><glyph d="M207 760H353L389 681L459 760H600L437 584H301ZM107 533H286L275 464H277Q314 504 357 524.5Q400 545 454 545Q483 545 509.5 536.5Q536 528 556 511.5Q576 495 588 471.5Q600 448 600 418Q600 409 598.5 394.5Q597 380 595 372L531 0H348L403 312Q404 319 405.5 328.5Q407 338 407 346Q407 371 391 387.5Q375 404 344 404Q323 404 307 395.5Q291 387 279.5 372.5Q268 358 260.5 339.5Q253 321 250 301L196 0H14Z" glyph-name="ncaron" horiz-adv-x="617" unicode="&#328;" /><glyph d="M188 -33H350L281 -197H147ZM107 533H286L275 464H277Q314 504 357 524.5Q400 545 454 545Q483 545 509.5 536.5Q536 528 556 511.5Q576 495 588 471.5Q600 448 600 418Q600 409 598.5 394.5Q597 380 595 372L531 0H348L403 312Q404 319 405.5 328.5Q407 338 407 346Q407 371 391 387.5Q375 404 344 404Q323 404 307 395.5Q291 387 279.5 372.5Q268 358 260.5 339.5Q253 321 250 301L196 0H14Z" glyph-name="ncommaaccent" horiz-adv-x="617" unicode="&#326;" /><glyph d="M334 382Q372 382 397.5 406.5Q423 431 430 467Q434 487 436.5 500.5Q439 514 439 525Q439 554 419.5 567.5Q400 581 373 581Q342 581 314.5 564.5Q287 548 281 516Q276 486 272 467.5Q268 449 268 435Q268 407 288.5 394.5Q309 382 334 382ZM264 -13Q226 -13 187 -5.5Q148 2 116 20Q84 38 64 68.5Q44 99 44 145Q44 162 46.5 179.5Q49 197 53 214H234Q232 206 230.5 199Q229 192 229 184Q229 156 249.5 145Q270 134 293 134Q327 134 352 152.5Q377 171 384 206Q389 236 394 264.5Q399 293 404 324Q369 289 325 275.5Q281 262 231 262Q199 262 171 270Q143 278 122 294.5Q101 311 88.5 336Q76 361 76 395Q76 417 81.5 448Q87 479 95 520Q104 574 135 613Q166 652 209.5 676.5Q253 701 304 713Q355 725 405 725Q446 725 487.5 714.5Q529 704 562.5 682.5Q596 661 617 627Q638 593 638 545Q638 527 635 509Q621 433 608 357.5Q595 282 581 206Q571 151 540 110Q509 69 464.5 41.5Q420 14 368 0.5Q316 -13 264 -13Z" glyph-name="nine" horiz-adv-x="616" unicode="9" /><glyph d="M193 214Q204 214 219.5 223Q235 232 240 255Q243 274 243.5 279Q244 284 244 286Q244 298 236 305.5Q228 313 213 313Q195 313 183 304Q171 295 169 281Q165 261 163.5 252Q162 243 162 239Q162 225 172.5 219.5Q183 214 193 214ZM154 -12Q91 -12 55 11.5Q19 35 19 78Q19 83 19.5 94Q20 105 25 120H145Q142 109 142 102Q142 78 171 78Q189 78 200.5 88Q212 98 215 113L224 166Q205 151 181 145Q157 139 131 139Q83 139 59 160.5Q35 182 35 214Q35 219 35.5 222.5Q36 226 37 231L47 284Q52 313 69.5 335Q87 357 112 372Q137 387 167.5 394.5Q198 402 230 402Q259 402 285 395Q311 388 331 375Q351 362 362.5 342Q374 322 374 297Q374 292 373.5 287.5Q373 283 372 278L342 111Q337 81 319 58Q301 35 275.5 19.5Q250 4 218.5 -4Q187 -12 154 -12Z" glyph-name="nine.dnom" horiz-adv-x="388" /><glyph d="M248 530Q259 530 274.5 539Q290 548 295 571Q298 590 298.5 595Q299 600 299 602Q299 614 291 621.5Q283 629 268 629Q250 629 238 620Q226 611 224 597Q220 577 218.5 568Q217 559 217 555Q217 541 227.5 535.5Q238 530 248 530ZM209 304Q146 304 110 327.5Q74 351 74 394Q74 399 74.5 410Q75 421 80 436H200Q197 425 197 418Q197 394 226 394Q244 394 255.5 404Q267 414 270 429L279 482Q260 467 236 461Q212 455 186 455Q138 455 114 476.5Q90 498 90 530Q90 535 90.5 538.5Q91 542 92 547L102 600Q107 629 124.5 651Q142 673 167 688Q192 703 222.5 710.5Q253 718 285 718Q314 718 340 711Q366 704 386 691Q406 678 417.5 658Q429 638 429 613Q429 608 428.5 603.5Q428 599 427 594L397 427Q392 397 374 374Q356 351 330.5 335.5Q305 320 273.5 312Q242 304 209 304Z" glyph-name="nine.numr" horiz-adv-x="388" /><glyph d="M301 207Q339 207 364.5 231.5Q390 256 397 292Q401 312 403.5 325.5Q406 339 406 350Q406 379 386.5 392.5Q367 406 340 406Q309 406 281.5 389.5Q254 373 248 341Q243 311 239 292.5Q235 274 235 260Q235 232 255.5 219.5Q276 207 301 207ZM231 -188Q193 -188 154 -180.5Q115 -173 83 -155Q51 -137 31 -106.5Q11 -76 11 -30Q11 -13 13.5 4.5Q16 22 20 39H201Q199 31 197.5 24Q196 17 196 9Q196 -19 216.5 -30Q237 -41 260 -41Q294 -41 319 -22.5Q344 -4 351 31Q356 61 361 89.5Q366 118 371 149Q336 114 292 100.5Q248 87 198 87Q166 87 138 95Q110 103 89 119.5Q68 136 55.5 161Q43 186 43 220Q43 242 48.5 273Q54 304 62 345Q71 399 102 438Q133 477 176.5 501.5Q220 526 271 538Q322 550 372 550Q413 550 454.5 539.5Q496 529 529.5 507.5Q563 486 584 452Q605 418 605 370Q605 352 602 334Q588 258 575 182.5Q562 107 548 31Q538 -24 507 -65Q476 -106 431.5 -133.5Q387 -161 335 -174.5Q283 -188 231 -188Z" glyph-name="nine.osf" horiz-adv-x="616" /><glyph d="M322 382Q358 382 383 406.5Q408 431 415 467Q419 487 421.5 500.5Q424 514 424 525Q424 554 405 567.5Q386 581 360 581Q330 581 303 564.5Q276 548 271 516Q266 486 262 467.5Q258 449 258 435Q258 407 278 394.5Q298 382 322 382ZM254 -13Q217 -13 179 -5.5Q141 2 110.5 20Q80 38 60.5 68.5Q41 99 41 145Q41 162 43.5 179.5Q46 197 49 214H225Q223 206 221.5 199Q220 192 220 184Q220 156 239.5 145Q259 134 282 134Q315 134 339.5 152.5Q364 171 370 206Q375 236 380 264.5Q385 293 390 324Q355 289 312.5 275.5Q270 262 222 262Q192 262 164.5 270Q137 278 116.5 294.5Q96 311 84 336Q72 361 72 395Q72 417 77 448Q82 479 90 520Q99 574 129 613Q159 652 201.5 676.5Q244 701 293.5 713Q343 725 391 725Q431 725 471.5 714.5Q512 704 544 682.5Q576 661 596.5 627Q617 593 617 545Q617 527 614 509Q600 433 588 357.5Q576 282 562 206Q552 151 521.5 110Q491 69 448.5 41.5Q406 14 355 0.5Q304 -13 254 -13Z" glyph-name="nine.tf" horiz-adv-x="590" /><glyph d="M288 207Q324 207 349 231.5Q374 256 381 292Q385 312 387.5 325.5Q390 339 390 350Q390 379 371 392.5Q352 406 326 406Q296 406 269 389.5Q242 373 237 341Q232 311 228 292.5Q224 274 224 260Q224 232 244 219.5Q264 207 288 207ZM220 -188Q183 -188 145 -180.5Q107 -173 76.5 -155Q46 -137 26.5 -106.5Q7 -76 7 -30Q7 -13 9.5 4.5Q12 22 15 39H191Q189 31 187.5 24Q186 17 186 9Q186 -19 205.5 -30Q225 -41 248 -41Q281 -41 305.5 -22.5Q330 -4 336 31Q341 61 346 89.5Q351 118 356 149Q321 114 278.5 100.5Q236 87 188 87Q158 87 130.5 95Q103 103 82.5 119.5Q62 136 50 161Q38 186 38 220Q38 242 43 273Q48 304 56 345Q65 399 95 438Q125 477 167.5 501.5Q210 526 259.5 538Q309 550 357 550Q397 550 437.5 539.5Q478 529 510 507.5Q542 486 562.5 452Q583 418 583 370Q583 352 580 334Q566 258 554 182.5Q542 107 528 31Q518 -24 487.5 -65Q457 -106 414.5 -133.5Q372 -161 321 -174.5Q270 -188 220 -188Z" glyph-name="nine.tosf" horiz-adv-x="590" /><glyph glyph-name="nonmarkingreturn" horiz-adv-x="230" unicode="" /><glyph d="M89 51 157 147H8L26 255H237L316 366H46L65 474H395L477 586L555 553L498 474H622L603 366H418L339 255H583L564 147H260L166 18Z" glyph-name="notequal" horiz-adv-x="590" unicode="&#8800;" /><glyph d="M134 592Q144 622 160.5 649.5Q177 677 198.5 697Q220 717 246.5 729Q273 741 304 741Q327 741 348.5 735.5Q370 730 391 723.5Q412 717 433.5 711.5Q455 706 478 706Q498 706 508.5 719.5Q519 733 530 759L620 735Q611 706 596.5 679.5Q582 653 561.5 633Q541 613 515 600.5Q489 588 457 588Q434 588 412 593Q390 598 369.5 604.5Q349 611 329 616Q309 621 289 621Q267 621 255.5 610Q244 599 230 571ZM107 533H286L275 464H277Q314 504 357 524.5Q400 545 454 545Q483 545 509.5 536.5Q536 528 556 511.5Q576 495 588 471.5Q600 448 600 418Q600 409 598.5 394.5Q597 380 595 372L531 0H348L403 312Q404 319 405.5 328.5Q407 338 407 346Q407 371 391 387.5Q375 404 344 404Q323 404 307 395.5Q291 387 279.5 372.5Q268 358 260.5 339.5Q253 321 250 301L196 0H14Z" glyph-name="ntilde" horiz-adv-x="617" unicode="&#241;" /><glyph d="M375 272 433 456H312L256 272ZM130 168H15L47 272H160L218 456H98L128 559H244L292 714H386L341 559H462L508 714H602L555 559H668L641 456H528L472 272H588L558 168H439L392 -1H297L344 168H224L174 -1H80Z" glyph-name="numbersign" horiz-adv-x="625" unicode="#" /><glyph d="M278 121Q314 121 336 142.5Q358 164 364 199L388 331Q389 336 389 340Q389 344 389 349Q389 377 372 393.5Q355 410 327 410Q290 410 267.5 386.5Q245 363 239 328L216 196Q215 191 214.5 186.5Q214 182 214 177Q214 147 232 134Q250 121 278 121ZM254 -12Q212 -12 171.5 -3.5Q131 5 99 25Q67 45 47.5 77.5Q28 110 28 159Q28 184 32 204L52 316Q62 371 89.5 413.5Q117 456 157 485Q197 514 246 529Q295 544 348 544Q391 544 432 534.5Q473 525 504.5 503.5Q536 482 555.5 448Q575 414 575 366Q575 355 574 343Q573 331 571 319L551 208Q541 154 513 112.5Q485 71 445 43.5Q405 16 355.5 2Q306 -12 254 -12Z" glyph-name="o" horiz-adv-x="588" unicode="o" /><glyph d="M392 757H567L395 579H273ZM278 121Q314 121 336 142.5Q358 164 364 199L388 331Q389 336 389 340Q389 344 389 349Q389 377 372 393.5Q355 410 327 410Q290 410 267.5 386.5Q245 363 239 328L216 196Q215 191 214.5 186.5Q214 182 214 177Q214 147 232 134Q250 121 278 121ZM254 -12Q212 -12 171.5 -3.5Q131 5 99 25Q67 45 47.5 77.5Q28 110 28 159Q28 184 32 204L52 316Q62 371 89.5 413.5Q117 456 157 485Q197 514 246 529Q295 544 348 544Q391 544 432 534.5Q473 525 504.5 503.5Q536 482 555.5 448Q575 414 575 366Q575 355 574 343Q573 331 571 319L551 208Q541 154 513 112.5Q485 71 445 43.5Q405 16 355.5 2Q306 -12 254 -12Z" glyph-name="oacute" horiz-adv-x="588" unicode="&#243;" /><glyph d="M337 574Q262 574 221 613.5Q180 653 180 720Q180 727 180 733.5Q180 740 182 748H289Q291 717 304 697Q317 677 350 677Q418 677 442 748H557Q540 661 481 617.5Q422 574 337 574ZM278 121Q314 121 336 142.5Q358 164 364 199L388 331Q389 336 389 340Q389 344 389 349Q389 377 372 393.5Q355 410 327 410Q290 410 267.5 386.5Q245 363 239 328L216 196Q215 191 214.5 186.5Q214 182 214 177Q214 147 232 134Q250 121 278 121ZM254 -12Q212 -12 171.5 -3.5Q131 5 99 25Q67 45 47.5 77.5Q28 110 28 159Q28 184 32 204L52 316Q62 371 89.5 413.5Q117 456 157 485Q197 514 246 529Q295 544 348 544Q391 544 432 534.5Q473 525 504.5 503.5Q536 482 555.5 448Q575 414 575 366Q575 355 574 343Q573 331 571 319L551 208Q541 154 513 112.5Q485 71 445 43.5Q405 16 355.5 2Q306 -12 254 -12Z" glyph-name="obreve" horiz-adv-x="588" unicode="&#335;" /><glyph d="M332 762H468L560 580H417L380 666L308 580H167ZM278 121Q314 121 336 142.5Q358 164 364 199L388 331Q389 336 389 340Q389 344 389 349Q389 377 372 393.5Q355 410 327 410Q290 410 267.5 386.5Q245 363 239 328L216 196Q215 191 214.5 186.5Q214 182 214 177Q214 147 232 134Q250 121 278 121ZM254 -12Q212 -12 171.5 -3.5Q131 5 99 25Q67 45 47.5 77.5Q28 110 28 159Q28 184 32 204L52 316Q62 371 89.5 413.5Q117 456 157 485Q197 514 246 529Q295 544 348 544Q391 544 432 534.5Q473 525 504.5 503.5Q536 482 555.5 448Q575 414 575 366Q575 355 574 343Q573 331 571 319L551 208Q541 154 513 112.5Q485 71 445 43.5Q405 16 355.5 2Q306 -12 254 -12Z" glyph-name="ocircumflex" horiz-adv-x="588" unicode="&#244;" /><glyph d="M413 747H571L542 584H384ZM189 747H347L318 584H160ZM278 121Q314 121 336 142.5Q358 164 364 199L388 331Q389 336 389 340Q389 344 389 349Q389 377 372 393.5Q355 410 327 410Q290 410 267.5 386.5Q245 363 239 328L216 196Q215 191 214.5 186.5Q214 182 214 177Q214 147 232 134Q250 121 278 121ZM254 -12Q212 -12 171.5 -3.5Q131 5 99 25Q67 45 47.5 77.5Q28 110 28 159Q28 184 32 204L52 316Q62 371 89.5 413.5Q117 456 157 485Q197 514 246 529Q295 544 348 544Q391 544 432 534.5Q473 525 504.5 503.5Q536 482 555.5 448Q575 414 575 366Q575 355 574 343Q573 331 571 319L551 208Q541 154 513 112.5Q485 71 445 43.5Q405 16 355.5 2Q306 -12 254 -12Z" glyph-name="odieresis" horiz-adv-x="588" unicode="&#246;" /><glyph d="M722 322Q724 332 725.5 341Q727 350 727 360Q727 389 710 402.5Q693 416 666 416Q630 416 606.5 393Q583 370 575 322ZM279 121Q316 121 337.5 143Q359 165 366 200L389 331Q390 336 390 340Q390 344 390 349Q390 377 373 393.5Q356 410 328 410Q291 410 268.5 386.5Q246 363 240 328L217 196Q216 191 215.5 186.5Q215 182 215 177Q215 147 233 134Q251 121 279 121ZM255 -12Q213 -12 172.5 -3.5Q132 5 100 25Q68 45 48.5 77.5Q29 110 29 159Q29 168 30 178.5Q31 189 33.5 206.5Q36 224 40.5 250Q45 276 53 316Q63 371 91 413.5Q119 456 158.5 485Q198 514 247 529Q296 544 349 544Q395 544 439 532.5Q483 521 516 494Q554 519 599.5 531.5Q645 544 695 544Q736 544 772.5 533Q809 522 837 500.5Q865 479 881 446Q897 413 897 369Q897 336 889 296Q881 256 875 224H558Q556 215 554.5 206.5Q553 198 553 190Q553 171 562 158Q571 145 585.5 137.5Q600 130 617 126.5Q634 123 650 123Q694 123 733 132Q772 141 807 152L835 38Q784 13 728 0.5Q672 -12 597 -12Q552 -12 507.5 -1.5Q463 9 429 34Q352 -12 255 -12Z" glyph-name="oe" horiz-adv-x="910" unicode="&#339;" /><glyph d="M238 -225Q181 -225 153.5 -203Q126 -181 126 -146Q126 -109 147 -76.5Q168 -44 200.5 -18.5Q233 7 272.5 25Q312 43 350 51L381 0Q355 -4 332.5 -12.5Q310 -21 293 -33Q276 -45 266 -59Q256 -73 256 -88Q256 -102 265 -109.5Q274 -117 295 -117Q306 -117 324.5 -112Q343 -107 361 -97L384 -190Q354 -204 317.5 -214.5Q281 -225 238 -225Z" glyph-name="ogonek" horiz-adv-x="588" unicode="&#731;" /><glyph d="M165 757H340L397 579H275ZM278 121Q314 121 336 142.5Q358 164 364 199L388 331Q389 336 389 340Q389 344 389 349Q389 377 372 393.5Q355 410 327 410Q290 410 267.5 386.5Q245 363 239 328L216 196Q215 191 214.5 186.5Q214 182 214 177Q214 147 232 134Q250 121 278 121ZM254 -12Q212 -12 171.5 -3.5Q131 5 99 25Q67 45 47.5 77.5Q28 110 28 159Q28 184 32 204L52 316Q62 371 89.5 413.5Q117 456 157 485Q197 514 246 529Q295 544 348 544Q391 544 432 534.5Q473 525 504.5 503.5Q536 482 555.5 448Q575 414 575 366Q575 355 574 343Q573 331 571 319L551 208Q541 154 513 112.5Q485 71 445 43.5Q405 16 355.5 2Q306 -12 254 -12Z" glyph-name="ograve" horiz-adv-x="588" unicode="&#242;" /><glyph d="M509 757H668L523 579H411ZM309 757H468L323 579H211ZM278 121Q314 121 336 142.5Q358 164 364 199L388 331Q389 336 389 340Q389 344 389 349Q389 377 372 393.5Q355 410 327 410Q290 410 267.5 386.5Q245 363 239 328L216 196Q215 191 214.5 186.5Q214 182 214 177Q214 147 232 134Q250 121 278 121ZM254 -12Q212 -12 171.5 -3.5Q131 5 99 25Q67 45 47.5 77.5Q28 110 28 159Q28 184 32 204L52 316Q62 371 89.5 413.5Q117 456 157 485Q197 514 246 529Q295 544 348 544Q391 544 432 534.5Q473 525 504.5 503.5Q536 482 555.5 448Q575 414 575 366Q575 355 574 343Q573 331 571 319L551 208Q541 154 513 112.5Q485 71 445 43.5Q405 16 355.5 2Q306 -12 254 -12Z" glyph-name="ohungarumlaut" horiz-adv-x="588" unicode="&#337;" /><glyph d="M188 713H541L518 584H165ZM278 121Q314 121 336 142.5Q358 164 364 199L388 331Q389 336 389 340Q389 344 389 349Q389 377 372 393.5Q355 410 327 410Q290 410 267.5 386.5Q245 363 239 328L216 196Q215 191 214.5 186.5Q214 182 214 177Q214 147 232 134Q250 121 278 121ZM254 -12Q212 -12 171.5 -3.5Q131 5 99 25Q67 45 47.5 77.5Q28 110 28 159Q28 184 32 204L52 316Q62 371 89.5 413.5Q117 456 157 485Q197 514 246 529Q295 544 348 544Q391 544 432 534.5Q473 525 504.5 503.5Q536 482 555.5 448Q575 414 575 366Q575 355 574 343Q573 331 571 319L551 208Q541 154 513 112.5Q485 71 445 43.5Q405 16 355.5 2Q306 -12 254 -12Z" glyph-name="omacron" horiz-adv-x="588" unicode="&#333;" /><glyph d="M51 130H181L256 553L129 547L151 678L383 721H469L365 130H484L461 0H28Z" glyph-name="one" horiz-adv-x="541" unicode="1" /><glyph d="M52 88H122L158 290L89 287L97 373L232 400H301L245 88H309L293 0H36Z" glyph-name="one.dnom" horiz-adv-x="373" /><glyph d="M107 404H177L213 606L144 603L152 689L287 716H356L300 404H364L348 316H91Z" glyph-name="one.numr" horiz-adv-x="373" /><glyph d="M50 137H181L222 372L100 364L112 495L347 543H439L368 137H487L463 0H27Z" glyph-name="one.osf" horiz-adv-x="533" /><glyph d="M78 130H205L277 553L154 547L175 678L401 721H484L383 130H498L476 0H56Z" glyph-name="one.tf" horiz-adv-x="590" /><glyph d="M71 137H199L238 372L120 364L132 495L360 543H449L380 137H495L472 0H49Z" glyph-name="one.tosf" horiz-adv-x="590" /><glyph d="M649 717H747L280 -2H182ZM697 233Q713 233 725 241Q737 249 740 265Q742 280 742.5 284.5Q743 289 743 291Q743 305 733 311Q723 317 710 317Q696 317 684 309.5Q672 302 670 288Q666 268 665.5 263.5Q665 259 665 257Q665 233 697 233ZM668 71Q685 71 697 79Q709 87 711 103Q713 119 714 124Q715 129 715 131Q715 145 705 150.5Q695 156 682 156Q668 156 655.5 148.5Q643 141 641 127Q637 109 636 102.5Q635 96 635 95Q635 83 644 77Q653 71 668 71ZM653 -12Q621 -12 595 -7Q569 -2 549.5 8.5Q530 19 519.5 36Q509 53 509 78Q509 83 510 90.5Q511 98 514 119Q519 146 537 165.5Q555 185 577 196Q562 203 554 219Q546 235 546 253Q546 256 546.5 261.5Q547 267 551 287Q556 315 572 336Q588 357 611.5 371.5Q635 386 664.5 393.5Q694 401 726 401Q754 401 779.5 395Q805 389 823.5 377.5Q842 366 853 348.5Q864 331 864 307Q864 274 850 243.5Q836 213 805 196Q820 188 830 171Q840 154 840 134Q840 132 839.5 125.5Q839 119 834 96Q829 70 813 49.5Q797 29 773 15.5Q749 2 718 -5Q687 -12 653 -12ZM88 406H158L194 608L125 605L133 691L268 718H337L281 406H345L329 318H72Z" glyph-name="oneeighth" horiz-adv-x="876" unicode="&#8539;" /><glyph d="M648 717H746L279 -2H181ZM516 71 658 199Q667 207 678 217Q689 227 699 238.5Q709 250 715.5 263.5Q722 277 722 292Q722 314 696 314Q680 314 671 303Q662 292 659 274L657 262H540L544 285Q549 315 565 338Q581 361 604.5 376.5Q628 392 658 399.5Q688 407 720 407Q783 407 815 380.5Q847 354 847 309Q847 282 837 258.5Q827 235 810.5 213.5Q794 192 771 171.5Q748 151 723 129L685 97H817L800 0H505ZM87 406H157L193 608L124 605L132 691L267 718H336L280 406H344L328 318H71Z" glyph-name="onehalf" horiz-adv-x="876" unicode="&#189;" /><glyph d="M652 717H750L283 -2H185ZM667 77H487L502 160L695 399H828L625 165H683L689 204L816 280L796 165H835L819 77H780L767 0H653ZM91 406H161L197 608L128 605L136 691L271 718H340L284 406H348L332 318H75Z" glyph-name="onequarter" horiz-adv-x="876" unicode="&#188;" /><glyph d="M119 468H189L225 670L156 667L164 753L299 780H368L312 468H376L360 380H103Z" glyph-name="onesuperior" horiz-adv-x="373" unicode="&#185;" /><glyph d="M646 -12Q580 -12 545 11.5Q510 35 510 83Q510 88 510.5 95.5Q511 103 513 109L516 120H638L637 112Q637 111 636.5 108Q636 105 636 102Q636 91 643 84Q650 77 669 77Q686 77 697.5 90.5Q709 104 709 127Q709 144 696.5 150Q684 156 667 156H641L654 233H681Q704 233 719 242.5Q734 252 734 283Q734 310 706 310Q683 310 676 298.5Q669 287 667 276L666 268H545L547 282Q555 336 603 369Q651 402 723 402Q789 402 824 377Q859 352 859 307Q859 266 835.5 238Q812 210 778 200V198Q806 190 822.5 171Q839 152 839 124Q839 85 819 59Q799 33 770 17Q741 1 707.5 -5.5Q674 -12 646 -12ZM649 717H747L280 -2H182ZM88 406H158L194 608L125 605L133 691L268 718H337L281 406H345L329 318H72Z" glyph-name="onethird" horiz-adv-x="876" unicode="&#8531;" /><glyph d="M77 311H379L361 214H59ZM240 449Q260 449 276 462.5Q292 476 295 496L300 520H271Q247 520 226.5 511.5Q206 503 206 474Q206 459 216 454Q226 449 240 449ZM173 365Q155 365 137.5 369.5Q120 374 106.5 383Q93 392 85 407Q77 422 77 443Q77 483 97 509.5Q117 536 147 551.5Q177 567 213 573Q249 579 281 579H310Q311 584 313 593.5Q315 603 315 611Q315 629 303.5 636Q292 643 276 643Q231 643 224 604Q224 602 223 599.5Q222 597 222 596H114L117 610Q123 641 141.5 663Q160 685 186 699Q212 713 242 719Q272 725 300 725Q324 725 348.5 720Q373 715 393 703Q413 691 425.5 672Q438 653 438 625Q438 619 437.5 613Q437 607 436 601Q426 544 415 488Q404 432 401 373H288L291 420Q269 394 238 379.5Q207 365 173 365Z" glyph-name="ordfeminine" horiz-adv-x="421" unicode="&#170;" /><glyph d="M84 311H387L369 214H67ZM257 454Q281 454 294 468.5Q307 483 312 505Q313 514 316 527.5Q319 541 321.5 555.5Q324 570 326 583Q328 596 328 605Q328 622 318.5 632Q309 642 292 642Q266 642 253 627Q240 612 237 589Q232 561 228.5 543.5Q225 526 223 515Q221 504 220 498Q219 492 219 489Q219 471 229.5 462.5Q240 454 257 454ZM242 366Q214 366 187.5 371.5Q161 377 140 390Q119 403 106.5 424.5Q94 446 94 478Q94 504 99.5 530.5Q105 557 110 582Q116 619 134 647Q152 675 178 694Q204 713 236.5 722.5Q269 732 305 732Q333 732 359.5 726Q386 720 407 706.5Q428 693 440.5 670.5Q453 648 453 616Q453 590 448 563Q443 536 438 510Q431 474 412.5 447Q394 420 368 402Q342 384 309.5 375Q277 366 242 366Z" glyph-name="ordmasculine" horiz-adv-x="433" unicode="&#186;" /><glyph d="M955 1106Q1081 1077 1189.5 1018.5Q1298 960 1378 874.5Q1458 789 1504 679.5Q1550 570 1550 440Q1550 253 1499 115Q1448 -23 1349.5 -114Q1251 -205 1106 -250Q961 -295 773 -295Q670 -295 573 -278.5Q476 -262 390.5 -228.5Q305 -195 233.5 -144.5Q162 -94 110.5 -26Q59 42 30.5 128Q2 214 2 317Q2 490 47 622.5Q92 755 178.5 845Q265 935 391 981.5Q517 1028 679 1028Q711 1028 750.5 1026Q790 1024 830.5 1018.5Q871 1013 909 1001.5Q947 990 977 971Q1007 952 1025 924Q1043 896 1043 857Q1043 833 1035 810Q1027 787 1006 769Q985 751 949 740Q913 729 857 729H728L715 546H1101Q1136 546 1159 547Q1182 548 1195.5 552.5Q1209 557 1214 566Q1219 575 1219 591Q1219 603 1211 622Q1203 641 1195 652L1243 675Q1258 655 1266.5 635.5Q1275 616 1275 591Q1275 559 1262 539.5Q1249 520 1227 509.5Q1205 499 1176.5 496Q1148 493 1117 494L1089 495Q1043 496 1011.5 482Q980 468 960.5 445Q941 422 931.5 392.5Q922 363 919 333L914 276H1079L1065 227H909L885 -45H1006L1003 -91H754L757 -45L828 -41L851 227H767L774 276H855L857 299Q860 346 870.5 379.5Q881 413 895.5 436Q910 459 927 473Q944 487 962 495V497H711L696 282Q691 215 672.5 167Q654 119 625.5 88Q597 57 559.5 42.5Q522 28 479 28Q472 28 451.5 29Q431 30 405 35Q379 40 351.5 50.5Q324 61 303 80L334 128Q365 103 404 91Q443 79 477 79Q514 79 542.5 94Q571 109 591 135.5Q611 162 622.5 196.5Q634 231 637 270L653 497Q584 497 534 493.5Q484 490 450.5 472Q417 454 398 415.5Q379 377 372 307L321 310Q330 388 351 434Q372 480 410.5 505Q449 530 509 538Q569 546 657 546L670 729H548Q477 729 431 714Q385 699 356 672Q327 645 312 607Q297 569 288 524L239 533Q248 596 272.5 641.5Q297 687 334.5 717Q372 747 420.5 762Q469 777 526 777L871 779Q908 779 930.5 786Q953 793 965 804Q977 815 981 828.5Q985 842 985 855Q985 885 968 906Q951 927 924.5 941Q898 955 864 963Q830 971 796.5 974.5Q763 978 733 979Q703 980 683 980Q525 980 408 932.5Q291 885 213.5 799.5Q136 714 98 594.5Q60 475 60 330Q60 182 119.5 74.5Q179 -33 279 -103Q379 -173 509.5 -206.5Q640 -240 782 -240Q953 -240 1085 -198.5Q1217 -157 1307 -72.5Q1397 12 1443.5 139.5Q1490 267 1490 438Q1490 558 1451 657.5Q1412 757 1339.5 835Q1267 913 1163.5 969Q1060 1025 932 1057Z" glyph-name="orn001" horiz-adv-x="1552" /><glyph d="M44 348Q44 427 73 497Q102 567 152.5 619Q203 671 271 701Q339 731 416 731Q493 731 560.5 701Q628 671 678.5 619Q729 567 758.5 497Q788 427 788 348Q788 269 758.5 199.5Q729 130 678.5 78.5Q628 27 560.5 -3Q493 -33 416 -33Q339 -33 271 -3Q203 27 152.5 78.5Q102 130 73 199.5Q44 269 44 348ZM105 348Q105 414 129.5 472Q154 530 196 573.5Q238 617 294.5 642Q351 667 416 667Q480 667 536.5 642Q593 617 635.5 573.5Q678 530 702.5 472Q727 414 727 348Q727 282 702.5 224.5Q678 167 635.5 123.5Q593 80 536.5 55Q480 30 416 30Q351 30 294.5 55Q238 80 196 123.5Q154 167 129.5 224.5Q105 282 105 348ZM70 348Q70 275 97 211Q124 147 171 99Q218 51 281 23Q344 -5 416 -5Q487 -5 550 23Q613 51 660 99Q707 147 734 211Q761 275 761 348Q761 421 734 486Q707 551 660 599Q613 647 550 675Q487 703 416 703Q344 703 281 675Q218 647 171 599Q124 551 97 486Q70 421 70 348ZM618 248 444 350 618 450 604 474 429 375V575H401V375L225 474L213 450L385 349L213 248L225 223L401 323V123H429V323L604 223Z" glyph-name="orn002" horiz-adv-x="832" /><glyph d="M420 209 569 359 420 508 270 359ZM420 152 626 359 420 565 213 359ZM44 348Q44 427 73 497Q102 567 152.5 619Q203 671 271 701Q339 731 416 731Q493 731 560.5 701Q628 671 678.5 619Q729 567 758.5 497Q788 427 788 348Q788 269 758.5 199.5Q729 130 678.5 78.5Q628 27 560.5 -3Q493 -33 416 -33Q339 -33 271 -3Q203 27 152.5 78.5Q102 130 73 199.5Q44 269 44 348ZM105 348Q105 414 129.5 472Q154 530 196 573.5Q238 617 294.5 642Q351 667 416 667Q480 667 536.5 642Q593 617 635.5 573.5Q678 530 702.5 472Q727 414 727 348Q727 282 702.5 224.5Q678 167 635.5 123.5Q593 80 536.5 55Q480 30 416 30Q351 30 294.5 55Q238 80 196 123.5Q154 167 129.5 224.5Q105 282 105 348ZM70 348Q70 275 97 211Q124 147 171 99Q218 51 281 23Q344 -5 416 -5Q487 -5 550 23Q613 51 660 99Q707 147 734 211Q761 275 761 348Q761 421 734 486Q707 551 660 599Q613 647 550 675Q487 703 416 703Q344 703 281 675Q218 647 171 599Q124 551 97 486Q70 421 70 348Z" glyph-name="orn003" horiz-adv-x="832" /><glyph d="M221 228 358 403Q345 410 327 410Q290 410 267.5 386.5Q245 363 239 328ZM278 121Q314 121 336 142.5Q358 164 364 199L383 304L245 126Q256 121 278 121ZM254 -12Q227 -12 200 -9Q173 -6 148 2L96 -65L29 -19L76 42Q54 62 41 90.5Q28 119 28 159Q28 184 32 204L52 316Q62 371 89.5 413.5Q117 456 157 485Q197 514 246 529Q295 544 348 544Q376 544 403 540Q430 536 455 527L507 594L574 549L525 487Q548 466 561.5 436Q575 406 575 366Q575 355 574 343Q573 331 571 319L551 208Q541 154 513 112.5Q485 71 445 43.5Q405 16 355.5 2Q306 -12 254 -12Z" glyph-name="oslash" horiz-adv-x="588" unicode="&#248;" /><glyph d="M392 757H567L395 579H273ZM221 228 358 403Q345 410 327 410Q290 410 267.5 386.5Q245 363 239 328ZM278 121Q314 121 336 142.5Q358 164 364 199L383 304L245 126Q256 121 278 121ZM254 -12Q227 -12 200 -9Q173 -6 148 2L96 -65L29 -19L76 42Q54 62 41 90.5Q28 119 28 159Q28 184 32 204L52 316Q62 371 89.5 413.5Q117 456 157 485Q197 514 246 529Q295 544 348 544Q376 544 403 540Q430 536 455 527L507 594L574 549L525 487Q548 466 561.5 436Q575 406 575 366Q575 355 574 343Q573 331 571 319L551 208Q541 154 513 112.5Q485 71 445 43.5Q405 16 355.5 2Q306 -12 254 -12Z" glyph-name="oslashacute" horiz-adv-x="588" unicode="&#511;" /><glyph d="M124 592Q134 622 150.5 649.5Q167 677 188.5 697Q210 717 236.5 729Q263 741 294 741Q317 741 338.5 735.5Q360 730 381 723.5Q402 717 423.5 711.5Q445 706 468 706Q488 706 498.5 719.5Q509 733 520 759L610 735Q601 706 586.5 679.5Q572 653 551.5 633Q531 613 505 600.5Q479 588 447 588Q424 588 402 593Q380 598 359.5 604.5Q339 611 319 616Q299 621 279 621Q257 621 245.5 610Q234 599 220 571ZM278 121Q314 121 336 142.5Q358 164 364 199L388 331Q389 336 389 340Q389 344 389 349Q389 377 372 393.5Q355 410 327 410Q290 410 267.5 386.5Q245 363 239 328L216 196Q215 191 214.5 186.5Q214 182 214 177Q214 147 232 134Q250 121 278 121ZM254 -12Q212 -12 171.5 -3.5Q131 5 99 25Q67 45 47.5 77.5Q28 110 28 159Q28 184 32 204L52 316Q62 371 89.5 413.5Q117 456 157 485Q197 514 246 529Q295 544 348 544Q391 544 432 534.5Q473 525 504.5 503.5Q536 482 555.5 448Q575 414 575 366Q575 355 574 343Q573 331 571 319L551 208Q541 154 513 112.5Q485 71 445 43.5Q405 16 355.5 2Q306 -12 254 -12Z" glyph-name="otilde" horiz-adv-x="588" unicode="&#245;" /><glyph d="M297 116Q333 116 357 138Q381 160 387 195L411 328Q412 333 412 337Q412 341 412 346Q412 375 395 391.5Q378 408 350 408Q307 408 283.5 383Q260 358 253 318L231 195Q230 190 230 186Q230 182 230 177Q230 148 249 132Q268 116 297 116ZM108 533H287L276 467H279Q312 502 354.5 523.5Q397 545 443 545Q514 545 558.5 509Q603 473 603 399Q603 387 602 375.5Q601 364 599 353Q591 308 583.5 264Q576 220 567 176Q558 130 535 95Q512 60 479.5 36Q447 12 407.5 0Q368 -12 326 -12Q294 -12 260.5 3Q227 18 208 46H205L164 -186H-19Z" glyph-name="p" horiz-adv-x="610" unicode="p" /><glyph d="M241 208Q200 212 171 228.5Q142 245 124 270Q106 295 98 326.5Q90 358 90 393Q90 447 109 503.5Q128 560 162.5 606.5Q197 653 245 683Q293 713 352 713H660L642 612H596L467 -116H361L490 612H417L288 -116H183Z" glyph-name="paragraph" horiz-adv-x="621" unicode="&#182;" /><glyph d="M161 -184Q123 -126 101.5 -41Q80 44 80 138Q80 217 96.5 296Q113 375 144.5 449.5Q176 524 220 590.5Q264 657 320 713H403Q313 564 264 404Q215 244 215 64Q215 -63 244 -184Z" glyph-name="parenleft" horiz-adv-x="337" unicode="(" /><glyph d="M107 -77Q81 -42 65 7.5Q49 57 49 114Q49 157 59.5 200.5Q70 244 89.5 285.5Q109 327 136 364Q163 401 196 431H257Q230 387 209 345.5Q188 304 174.5 261.5Q161 219 154 172.5Q147 126 147 72Q147 -7 168 -77Z" glyph-name="parenleft.dnom" horiz-adv-x="227" /><glyph d="M162 239Q136 274 120 323.5Q104 373 104 430Q104 473 114.5 516.5Q125 560 144.5 601.5Q164 643 191 680Q218 717 251 747H312Q285 703 264 661.5Q243 620 229.5 577.5Q216 535 209 488.5Q202 442 202 388Q202 309 223 239Z" glyph-name="parenleft.numr" horiz-adv-x="227" /><glyph d="M-49 -184Q-3 -107 33 -22Q69 63 93.5 148Q118 233 130.5 314.5Q143 396 143 468Q143 528 134.5 586Q126 644 109 713H192Q234 650 255 569.5Q276 489 276 401Q276 322 257 240Q238 158 205.5 80.5Q173 3 128.5 -65Q84 -133 33 -184Z" glyph-name="parenright" horiz-adv-x="337" unicode=")" /><glyph d="M-24 -77Q30 10 58 105.5Q86 201 86 286Q86 321 80.5 355Q75 389 64 431H125Q153 394 168 346Q183 298 183 244Q183 198 171 152.5Q159 107 139 65Q119 23 92.5 -13.5Q66 -50 36 -77Z" glyph-name="parenright.dnom" horiz-adv-x="227" /><glyph d="M31 239Q85 326 113 421.5Q141 517 141 602Q141 637 135.5 671Q130 705 119 747H180Q208 710 223 662Q238 614 238 560Q238 514 226 468.5Q214 423 194 381Q174 339 147.5 302.5Q121 266 91 239Z" glyph-name="parenright.numr" horiz-adv-x="227" /><glyph d="M278 121Q314 121 335.5 142.5Q357 164 364 199L382 304Q383 309 383.5 313.5Q384 318 384 323Q384 350 367.5 366.5Q351 383 323 383Q285 383 263 359.5Q241 336 235 301L216 197Q215 192 214.5 187Q214 182 214 177Q214 148 232 134.5Q250 121 278 121ZM253 -12Q211 -12 171 -3.5Q131 5 99 24.5Q67 44 47.5 76.5Q28 109 28 158Q28 189 35.5 224Q43 259 48 290Q64 378 123 434Q182 490 265 507Q272 508 280 509Q288 510 293 511L180 713H392L544 429Q569 384 569 333Q569 303 562.5 270Q556 237 550 207Q540 152 512.5 111Q485 70 445 42.5Q405 15 355.5 1.5Q306 -12 253 -12Z" glyph-name="partialdiff" horiz-adv-x="588" unicode="&#8706;" /><glyph d="M643 80Q663 80 676 91Q689 102 692 120L720 275Q720 277 720.5 278.5Q721 280 721 282Q721 296 710.5 303.5Q700 311 684 311Q665 311 651.5 301.5Q638 292 634 275L606 118V110Q606 95 616 87.5Q626 80 643 80ZM232 404Q252 404 265 415Q278 426 281 443L309 599Q309 601 309.5 602Q310 603 310 605Q310 620 299 627.5Q288 635 272 635Q253 635 240 625.5Q227 616 223 599L195 442V434Q195 419 205 411.5Q215 404 232 404ZM676 719H774L236 -9H137ZM216 314Q191 314 166 319Q141 324 121.5 336Q102 348 89.5 368Q77 388 77 417Q77 423 77.5 429.5Q78 436 79 442Q81 457 84.5 477Q88 497 92 518.5Q96 540 99.5 560Q103 580 106 595Q112 629 129.5 653.5Q147 678 171.5 694Q196 710 225.5 717.5Q255 725 286 725Q311 725 336.5 719Q362 713 381.5 700.5Q401 688 413.5 667.5Q426 647 426 618Q426 605 423 592Q420 578 416.5 558Q413 538 409.5 517Q406 496 402.5 476Q399 456 397 442Q391 409 373 385Q355 361 330 345.5Q305 330 275.5 322Q246 314 216 314ZM628 -10Q603 -10 578 -4.5Q553 1 533 13Q513 25 500.5 44.5Q488 64 488 93Q488 99 488.5 105.5Q489 112 490 118Q493 133 496.5 153Q500 173 503.5 194.5Q507 216 510.5 236Q514 256 517 271Q523 305 540.5 329.5Q558 354 582.5 369.5Q607 385 637 392.5Q667 400 698 400Q723 400 748.5 394.5Q774 389 793.5 376.5Q813 364 825.5 344Q838 324 838 295Q838 282 835 269Q833 254 829.5 234Q826 214 822 193Q818 172 814.5 152Q811 132 808 118Q802 85 784.5 61Q767 37 742 21.5Q717 6 687.5 -2Q658 -10 628 -10Z" glyph-name="percent" horiz-adv-x="861" unicode="%" /><glyph d="M55 183H238L206 0H23Z" glyph-name="period" horiz-adv-x="295" unicode="." /><glyph d="M34 121H152L130 0H13Z" glyph-name="period.dnom" horiz-adv-x="205" /><glyph d="M89 437H207L185 316H68Z" glyph-name="period.numr" horiz-adv-x="205" /><glyph d="M15 -12H133L111 -133H-6Z" glyph-name="period.subs" horiz-adv-x="205" /><glyph d="M101 501H219L197 380H80Z" glyph-name="period.sups" horiz-adv-x="205" /><glyph d="M100 451H283L251 268H68Z" glyph-name="periodcentered" horiz-adv-x="295" unicode="&#183;" /><glyph d="M1015 80Q1034 80 1047.5 90.5Q1061 101 1065 120L1092 275Q1093 278 1093 282Q1093 298 1081.5 304.5Q1070 311 1056 311Q1039 311 1024.5 302Q1010 293 1007 275L979 118Q978 115 978 110Q978 94 989.5 87Q1001 80 1015 80ZM643 80Q663 80 676 91Q689 102 692 120L720 275Q720 277 720.5 278.5Q721 280 721 282Q721 296 710.5 303.5Q700 311 684 311Q665 311 651.5 301.5Q638 292 634 275L606 118V110Q606 95 616 87.5Q626 80 643 80ZM232 404Q252 404 265 415Q278 426 281 443L309 599Q309 601 309.5 602Q310 603 310 605Q310 620 299 627.5Q288 635 272 635Q253 635 240 625.5Q227 616 223 599L195 442V434Q195 419 205 411.5Q215 404 232 404ZM676 719H774L236 -9H137ZM216 314Q191 314 166 319Q141 324 121.5 336Q102 348 89.5 368Q77 388 77 417Q77 423 77.5 429.5Q78 436 79 442Q81 457 84.5 477Q88 497 92 518.5Q96 540 99.5 560Q103 580 106 595Q112 629 129.5 653.5Q147 678 171.5 694Q196 710 225.5 717.5Q255 725 286 725Q311 725 336.5 719Q362 713 381.5 700.5Q401 688 413.5 667.5Q426 647 426 618Q426 605 423 592Q420 578 416.5 558Q413 538 409.5 517Q406 496 402.5 476Q399 456 397 442Q391 409 373 385Q355 361 330 345.5Q305 330 275.5 322Q246 314 216 314ZM628 -10Q603 -10 578 -4.5Q553 1 533 13Q513 25 500.5 44.5Q488 64 488 93Q488 99 488.5 105.5Q489 112 490 118Q493 133 496.5 153Q500 173 503.5 194.5Q507 216 510.5 236Q514 256 517 271Q523 305 540.5 329.5Q558 354 582.5 369.5Q607 385 637 392.5Q667 400 698 400Q723 400 748.5 394.5Q774 389 793.5 376.5Q813 364 825.5 344Q838 324 838 295Q838 282 835 269Q833 254 829.5 234Q826 214 822 193Q818 172 814.5 152Q811 132 808 118Q802 85 784.5 61Q767 37 742 21.5Q717 6 687.5 -2Q658 -10 628 -10ZM1001 -10Q976 -10 951 -5Q926 0 905.5 12Q885 24 872.5 44Q860 64 860 93Q860 99 860.5 105.5Q861 112 862 118Q865 133 868.5 153Q872 173 876 194.5Q880 216 883.5 236Q887 256 890 271Q896 305 913 329Q930 353 954.5 369Q979 385 1009 392.5Q1039 400 1071 400Q1096 400 1121 394.5Q1146 389 1166 376.5Q1186 364 1198.5 344Q1211 324 1211 295Q1211 282 1208 269Q1205 254 1201.5 234Q1198 214 1194 193Q1190 172 1186.5 152Q1183 132 1181 118Q1175 86 1157.5 62Q1140 38 1115.5 22Q1091 6 1061 -2Q1031 -10 1001 -10Z" glyph-name="perthousand" horiz-adv-x="1234" unicode="&#8240;" /><glyph d="M508 -9Q447 -9 413.5 16Q380 41 380 97Q380 111 383 131L424 367H314Q302 311 291.5 268Q281 225 270 183.5Q259 142 246.5 98.5Q234 55 218 0H36Q50 44 62.5 86Q75 128 87 172Q99 216 111 263.5Q123 311 135 367H45L95 533H707L678 367H601L570 197Q569 192 568.5 188Q568 184 568 179Q568 148 606 148Q626 148 647 154L621 8Q599 2 571.5 -3.5Q544 -9 508 -9Z" glyph-name="pi" horiz-adv-x="693" unicode="&#960;" /><glyph d="M259 263H31L51 370H278L318 597H427L387 370H614L594 263H367L327 36H219Z" glyph-name="plus" horiz-adv-x="590" unicode="+" /><glyph d="M118 145H7L19 214H130L150 326H220L200 214H310L298 145H188L168 33H98Z" glyph-name="plus.dnom" horiz-adv-x="320" /><glyph d="M173 461H62L74 530H185L205 642H275L255 530H365L353 461H243L223 349H153Z" glyph-name="plus.numr" horiz-adv-x="320" /><glyph d="M269 366H45L63 474H288L321 665H430L397 474H620L602 366H378L344 175H235ZM2 108H554L535 0H-17Z" glyph-name="plusminus" horiz-adv-x="590" unicode="&#177;" /><glyph d="M201 548H97L129 713H875L843 548H739L610 -133H418L548 548H393L263 -133H72Z" glyph-name="product" horiz-adv-x="820" unicode="&#8719;" /><glyph d="M280 126Q318 126 343.5 150.5Q369 175 376 211L398 338Q399 343 399 347Q399 351 399 356Q399 386 378.5 401.5Q358 417 330 417Q292 417 269 391Q246 365 240 330L219 208Q218 203 217.5 198.5Q217 194 217 189Q217 160 234 143Q251 126 280 126ZM350 64H346Q314 32 273 10.5Q232 -11 187 -11Q116 -11 71 24.5Q26 60 26 134Q26 159 30 179Q38 223 45.5 266Q53 309 61 353Q69 397 90 432.5Q111 468 141.5 493Q172 518 211 531.5Q250 545 294 545Q331 545 368.5 529.5Q406 514 427 482H429L439 533H615L488 -188H306Z" glyph-name="q" horiz-adv-x="610" unicode="q" /><glyph d="M196 260Q204 304 224 332.5Q244 361 279 388Q294 400 317 414Q340 428 361.5 444.5Q383 461 398 481Q413 501 413 525Q413 551 394 565.5Q375 580 345 580Q317 580 292 566.5Q267 553 257 511Q256 506 255.5 501.5Q255 497 254 492H92Q93 497 94.5 508.5Q96 520 97 525Q106 576 134.5 613.5Q163 651 203 675.5Q243 700 290.5 711.5Q338 723 386 723Q426 723 464 714.5Q502 706 530.5 686.5Q559 667 576.5 636Q594 605 594 561Q594 525 584.5 495Q575 465 558.5 440.5Q542 416 519.5 395.5Q497 375 470 358Q454 348 436 338.5Q418 329 402.5 318Q387 307 375 293Q363 279 359 261Q358 256 356.5 246.5Q355 237 354 232H191ZM171 181H354L323 0H139Z" glyph-name="question" horiz-adv-x="564" unicode="?" /><glyph d="M275 537H459L427 356H243ZM212 -187Q171 -187 133.5 -179Q96 -171 67 -152Q38 -133 20.5 -102.5Q3 -72 3 -28Q3 45 38.5 94.5Q74 144 128 178Q144 188 162 199Q180 210 196 222Q212 234 223.5 247.5Q235 261 238 276Q239 280 241 290Q243 300 243 305H406L401 277Q393 233 373.5 204.5Q354 176 319 149Q304 137 281 123Q258 109 236.5 92Q215 75 200 55Q185 35 185 11Q185 -15 202 -28.5Q219 -42 245 -42Q259 -42 274 -38.5Q289 -35 302.5 -27Q316 -19 326 -6Q336 7 340 26Q342 33 344 45H506L500 12Q491 -39 462.5 -76.5Q434 -114 394 -138.5Q354 -163 307 -175Q260 -187 212 -187Z" glyph-name="questiondown" horiz-adv-x="564" unicode="&#191;" /><glyph d="M298 713H482L450 532H266ZM235 -11Q194 -11 156.5 -3Q119 5 90 24Q61 43 43.5 73.5Q26 104 26 148Q26 221 61.5 270.5Q97 320 151 354Q167 364 185 375Q203 386 219 398Q235 410 246.5 423.5Q258 437 261 452Q262 456 264 466Q266 476 266 481H429L424 453Q416 409 396.5 380.5Q377 352 342 325Q327 313 304 299Q281 285 259.5 268Q238 251 223 231Q208 211 208 187Q208 161 225 147.5Q242 134 268 134Q282 134 297 137.5Q312 141 325.5 149Q339 157 349 170Q359 183 363 202Q365 209 367 221H529L523 188Q514 137 485.5 99.5Q457 62 417 37.5Q377 13 330 1Q283 -11 235 -11Z" glyph-name="questiondown.case" horiz-adv-x="564" /><glyph d="M353 571 377 714H524L499 571L445 396H344ZM138 571 162 714H309L284 571L230 396H129Z" glyph-name="quotedbl" horiz-adv-x="497" unicode="&quot;" /><glyph d="M329 2H265L296 182H480L450 11L353 -140H269ZM88 2H24L55 182H239L209 11L112 -140H28Z" glyph-name="quotedblbase" horiz-adv-x="536" unicode="&#8222;" /><glyph d="M364 564 461 714H544L485 572H549L518 393H334ZM124 564 221 714H304L245 572H309L278 393H94Z" glyph-name="quotedblleft" horiz-adv-x="534" unicode="&#8220;" /><glyph d="M420 535H356L387 714H571L541 543L444 393H360ZM180 535H116L147 714H331L301 543L204 393H120Z" glyph-name="quotedblright" horiz-adv-x="535" unicode="&#8221;" /><glyph d="M125 564 222 714H305L245 572H310L278 393H94Z" glyph-name="quoteleft" horiz-adv-x="295" unicode="&#8216;" /><glyph d="M181 535H116L148 714H331L301 543L204 393H120Z" glyph-name="quoteright" horiz-adv-x="295" unicode="&#8217;" /><glyph d="M89 2H24L56 182H240L209 11L112 -140H29Z" glyph-name="quotesinglbase" horiz-adv-x="296" unicode="&#8218;" /><glyph d="M139 571 164 714H310L286 571L232 396H131Z" glyph-name="quotesingle" horiz-adv-x="282" unicode="&apos;" /><glyph d="M107 532H286L271 444H276Q289 463 308.5 480.5Q328 498 350.5 511.5Q373 525 397.5 533Q422 541 447 541Q459 541 474.5 540Q490 539 501 536L475 382Q453 385 428 386.5Q403 388 393 388Q371 388 347.5 384Q324 380 303 368Q282 356 266.5 335Q251 314 245 280L196 0H14Z" glyph-name="r" horiz-adv-x="457" unicode="r" /><glyph d="M354 757H529L357 579H235ZM107 532H286L271 444H276Q289 463 308.5 480.5Q328 498 350.5 511.5Q373 525 397.5 533Q422 541 447 541Q459 541 474.5 540Q490 539 501 536L475 382Q453 385 428 386.5Q403 388 393 388Q371 388 347.5 384Q324 380 303 368Q282 356 266.5 335Q251 314 245 280L196 0H14Z" glyph-name="racute" horiz-adv-x="457" unicode="&#341;" /><glyph d="M71 404H271L281 105H283L553 713H733L315 -134H137Z" glyph-name="radical" horiz-adv-x="640" unicode="&#8730;" /><glyph d="M134 760H280L316 681L386 760H527L364 584H228ZM107 532H286L271 444H276Q289 463 308.5 480.5Q328 498 350.5 511.5Q373 525 397.5 533Q422 541 447 541Q459 541 474.5 540Q490 539 501 536L475 382Q453 385 428 386.5Q403 388 393 388Q371 388 347.5 384Q324 380 303 368Q282 356 266.5 335Q251 314 245 280L196 0H14Z" glyph-name="rcaron" horiz-adv-x="457" unicode="&#345;" /><glyph d="M26 -33H188L119 -197H-15ZM107 532H286L271 444H276Q289 463 308.5 480.5Q328 498 350.5 511.5Q373 525 397.5 533Q422 541 447 541Q459 541 474.5 540Q490 539 501 536L475 382Q453 385 428 386.5Q403 388 393 388Q371 388 347.5 384Q324 380 303 368Q282 356 266.5 335Q251 314 245 280L196 0H14Z" glyph-name="rcommaaccent" horiz-adv-x="457" unicode="&#343;" /><glyph d="M332 539Q348 539 357.5 549.5Q367 560 367 574Q367 596 343 596H312L302 539ZM251 651H362Q401 651 419.5 633.5Q438 616 438 589Q438 562 423.5 537.5Q409 513 380 500L416 406H338L311 489H293L279 406H208ZM290 348Q327 348 363 364Q399 380 427.5 408Q456 436 473.5 474.5Q491 513 491 559Q491 591 480.5 617Q470 643 451.5 661Q433 679 407.5 689Q382 699 352 699Q316 699 280 684Q244 669 216 641Q188 613 170.5 574Q153 535 153 486Q153 454 163.5 428.5Q174 403 193 385Q212 367 236.5 357.5Q261 348 290 348ZM281 298Q235 298 199.5 312Q164 326 140 350Q116 374 103.5 407Q91 440 91 478Q91 531 112 579.5Q133 628 170 665.5Q207 703 256 725Q305 747 361 747Q407 747 443 733Q479 719 503.5 694.5Q528 670 540.5 636.5Q553 603 553 564Q553 511 531.5 463Q510 415 473 378.5Q436 342 386.5 320Q337 298 281 298Z" glyph-name="registered" horiz-adv-x="537" unicode="&#174;" /><glyph d="M374 625Q400 625 417.5 642Q435 659 435 684Q435 701 423.5 712Q412 723 391 723Q368 723 349 706.5Q330 690 330 666Q330 648 342 636.5Q354 625 374 625ZM364 568Q318 568 289 590Q260 612 260 651Q260 678 272 701.5Q284 725 304 742Q324 759 349 768.5Q374 778 401 778Q447 778 476.5 757.5Q506 737 506 697Q506 670 494 646.5Q482 623 462 605.5Q442 588 416.5 578Q391 568 364 568Z" glyph-name="ring" horiz-adv-x="588" unicode="&#730;" /><glyph d="M234 -12Q165 -12 108.5 3.5Q52 19 1 53L86 171Q115 146 154.5 129Q194 112 233 112Q243 112 256.5 113Q270 114 282.5 117.5Q295 121 303.5 129Q312 137 312 152Q312 162 304 169Q296 176 282.5 181.5Q269 187 251 192Q233 197 214 203Q188 211 162.5 222Q137 233 117 250Q97 267 84 292Q71 317 71 354Q71 401 90.5 437Q110 473 142.5 497Q175 521 217.5 533Q260 545 306 545Q338 545 365 542.5Q392 540 417 533.5Q442 527 465 516.5Q488 506 513 491L436 377Q425 386 409 394Q393 402 376 408Q359 414 341.5 417.5Q324 421 309 421Q299 421 286 419.5Q273 418 261.5 413.5Q250 409 242 401Q234 393 234 379Q234 369 239.5 364.5Q245 360 255 356Q276 347 302 340.5Q328 334 355 325.5Q382 317 407 305.5Q432 294 452 277Q472 260 484 235.5Q496 211 496 177Q496 123 472 86.5Q448 50 410 28.5Q372 7 325.5 -2.5Q279 -12 234 -12Z" glyph-name="s" horiz-adv-x="537" unicode="s" /><glyph d="M357 757H532L360 579H238ZM234 -12Q165 -12 108.5 3.5Q52 19 1 53L86 171Q115 146 154.5 129Q194 112 233 112Q243 112 256.5 113Q270 114 282.5 117.5Q295 121 303.5 129Q312 137 312 152Q312 162 304 169Q296 176 282.5 181.5Q269 187 251 192Q233 197 214 203Q188 211 162.5 222Q137 233 117 250Q97 267 84 292Q71 317 71 354Q71 401 90.5 437Q110 473 142.5 497Q175 521 217.5 533Q260 545 306 545Q338 545 365 542.5Q392 540 417 533.5Q442 527 465 516.5Q488 506 513 491L436 377Q425 386 409 394Q393 402 376 408Q359 414 341.5 417.5Q324 421 309 421Q299 421 286 419.5Q273 418 261.5 413.5Q250 409 242 401Q234 393 234 379Q234 369 239.5 364.5Q245 360 255 356Q276 347 302 340.5Q328 334 355 325.5Q382 317 407 305.5Q432 294 452 277Q472 260 484 235.5Q496 211 496 177Q496 123 472 86.5Q448 50 410 28.5Q372 7 325.5 -2.5Q279 -12 234 -12Z" glyph-name="sacute" horiz-adv-x="537" unicode="&#347;" /><glyph d="M137 760H283L319 681L389 760H530L367 584H231ZM234 -12Q165 -12 108.5 3.5Q52 19 1 53L86 171Q115 146 154.5 129Q194 112 233 112Q243 112 256.5 113Q270 114 282.5 117.5Q295 121 303.5 129Q312 137 312 152Q312 162 304 169Q296 176 282.5 181.5Q269 187 251 192Q233 197 214 203Q188 211 162.5 222Q137 233 117 250Q97 267 84 292Q71 317 71 354Q71 401 90.5 437Q110 473 142.5 497Q175 521 217.5 533Q260 545 306 545Q338 545 365 542.5Q392 540 417 533.5Q442 527 465 516.5Q488 506 513 491L436 377Q425 386 409 394Q393 402 376 408Q359 414 341.5 417.5Q324 421 309 421Q299 421 286 419.5Q273 418 261.5 413.5Q250 409 242 401Q234 393 234 379Q234 369 239.5 364.5Q245 360 255 356Q276 347 302 340.5Q328 334 355 325.5Q382 317 407 305.5Q432 294 452 277Q472 260 484 235.5Q496 211 496 177Q496 123 472 86.5Q448 50 410 28.5Q372 7 325.5 -2.5Q279 -12 234 -12Z" glyph-name="scaron" horiz-adv-x="537" unicode="&#353;" /><glyph d="M196 -219Q172 -219 142 -215Q112 -211 83 -203L96 -128Q123 -135 151.5 -139.5Q180 -144 199 -144Q248 -144 248 -115Q248 -102 232.5 -100Q217 -98 203 -96L155 -94L208 36H281L252 -36Q271 -36 292.5 -38.5Q314 -41 332 -48.5Q350 -56 362 -69Q374 -82 374 -103Q374 -131 359 -152.5Q344 -174 319 -189Q294 -204 262 -211.5Q230 -219 196 -219ZM234 -12Q165 -12 108.5 3.5Q52 19 1 53L86 171Q115 146 154.5 129Q194 112 233 112Q243 112 256.5 113Q270 114 282.5 117.5Q295 121 303.5 129Q312 137 312 152Q312 162 304 169Q296 176 282.5 181.5Q269 187 251 192Q233 197 214 203Q188 211 162.5 222Q137 233 117 250Q97 267 84 292Q71 317 71 354Q71 401 90.5 437Q110 473 142.5 497Q175 521 217.5 533Q260 545 306 545Q338 545 365 542.5Q392 540 417 533.5Q442 527 465 516.5Q488 506 513 491L436 377Q425 386 409 394Q393 402 376 408Q359 414 341.5 417.5Q324 421 309 421Q299 421 286 419.5Q273 418 261.5 413.5Q250 409 242 401Q234 393 234 379Q234 369 239.5 364.5Q245 360 255 356Q276 347 302 340.5Q328 334 355 325.5Q382 317 407 305.5Q432 294 452 277Q472 260 484 235.5Q496 211 496 177Q496 123 472 86.5Q448 50 410 28.5Q372 7 325.5 -2.5Q279 -12 234 -12Z" glyph-name="scedilla" horiz-adv-x="537" unicode="&#351;" /><glyph d="M292 762H428L520 580H377L340 666L268 580H127ZM234 -12Q165 -12 108.5 3.5Q52 19 1 53L86 171Q115 146 154.5 129Q194 112 233 112Q243 112 256.5 113Q270 114 282.5 117.5Q295 121 303.5 129Q312 137 312 152Q312 162 304 169Q296 176 282.5 181.5Q269 187 251 192Q233 197 214 203Q188 211 162.5 222Q137 233 117 250Q97 267 84 292Q71 317 71 354Q71 401 90.5 437Q110 473 142.5 497Q175 521 217.5 533Q260 545 306 545Q338 545 365 542.5Q392 540 417 533.5Q442 527 465 516.5Q488 506 513 491L436 377Q425 386 409 394Q393 402 376 408Q359 414 341.5 417.5Q324 421 309 421Q299 421 286 419.5Q273 418 261.5 413.5Q250 409 242 401Q234 393 234 379Q234 369 239.5 364.5Q245 360 255 356Q276 347 302 340.5Q328 334 355 325.5Q382 317 407 305.5Q432 294 452 277Q472 260 484 235.5Q496 211 496 177Q496 123 472 86.5Q448 50 410 28.5Q372 7 325.5 -2.5Q279 -12 234 -12Z" glyph-name="scircumflex" horiz-adv-x="537" unicode="&#349;" /><glyph d="M167 -33H329L260 -197H126ZM234 -12Q165 -12 108.5 3.5Q52 19 1 53L86 171Q115 146 154.5 129Q194 112 233 112Q243 112 256.5 113Q270 114 282.5 117.5Q295 121 303.5 129Q312 137 312 152Q312 162 304 169Q296 176 282.5 181.5Q269 187 251 192Q233 197 214 203Q188 211 162.5 222Q137 233 117 250Q97 267 84 292Q71 317 71 354Q71 401 90.5 437Q110 473 142.5 497Q175 521 217.5 533Q260 545 306 545Q338 545 365 542.5Q392 540 417 533.5Q442 527 465 516.5Q488 506 513 491L436 377Q425 386 409 394Q393 402 376 408Q359 414 341.5 417.5Q324 421 309 421Q299 421 286 419.5Q273 418 261.5 413.5Q250 409 242 401Q234 393 234 379Q234 369 239.5 364.5Q245 360 255 356Q276 347 302 340.5Q328 334 355 325.5Q382 317 407 305.5Q432 294 452 277Q472 260 484 235.5Q496 211 496 177Q496 123 472 86.5Q448 50 410 28.5Q372 7 325.5 -2.5Q279 -12 234 -12Z" glyph-name="scommaaccent" horiz-adv-x="537" unicode="&#537;" /><glyph d="M338 233Q369 244 381 264Q393 284 393 296Q393 310 382 319Q371 328 347 336L254 368Q234 359 220.5 343Q207 327 207 307Q207 288 226.5 274Q246 260 264 255ZM209 -140Q176 -140 140.5 -133Q105 -126 76.5 -110Q48 -94 29.5 -67Q11 -40 11 0Q11 14 14 32L21 69H151L148 50Q147 46 146.5 43Q146 40 146 36Q146 10 166 -9Q186 -28 236 -28Q270 -28 291.5 -19Q313 -10 325 3Q337 16 341.5 29.5Q346 43 346 51Q346 72 331 82.5Q316 93 297 99L192 134Q167 142 144.5 153.5Q122 165 105 181.5Q88 198 77.5 219.5Q67 241 67 268Q67 313 90.5 353Q114 393 156 420Q111 450 111 511Q111 558 130.5 597.5Q150 637 184.5 665Q219 693 267 708.5Q315 724 372 724Q415 724 451 715Q487 706 512.5 688.5Q538 671 552 644.5Q566 618 566 583Q566 566 563 550L557 516H429L434 544Q435 547 435 555Q435 566 430.5 577Q426 588 415.5 596.5Q405 605 388.5 610Q372 615 347 615Q300 615 275 597.5Q250 580 250 554Q250 531 270.5 520.5Q291 510 320 499L411 465Q432 457 453 447Q474 437 491.5 422Q509 407 520.5 386Q532 365 532 337Q532 289 508 249.5Q484 210 444 180Q490 150 490 88Q490 41 469.5 0Q449 -41 411.5 -72.5Q374 -104 322.5 -122Q271 -140 209 -140Z" glyph-name="section" horiz-adv-x="544" unicode="&#167;" /><glyph d="M112 532H296L264 352H80ZM85 2H20L52 181H235L205 11L107 -141H24Z" glyph-name="semicolon" horiz-adv-x="295" unicode=";" /><glyph d="M100 0Q114 73 146.5 151.5Q179 230 223.5 304Q268 378 319.5 443Q371 508 424 556H108L136 713H660L636 580Q591 544 539.5 486Q488 428 440.5 353Q393 278 355 188.5Q317 99 299 0Z" glyph-name="seven" horiz-adv-x="593" unicode="7" /><glyph d="M42 0Q50 39 68.5 79.5Q87 120 112 158Q137 196 166.5 230Q196 264 226 291H51L69 395H382L365 303Q339 282 310.5 252Q282 222 256 184Q230 146 209.5 100Q189 54 180 0Z" glyph-name="seven.dnom" horiz-adv-x="388" /><glyph d="M97 316Q105 355 123.5 395.5Q142 436 167 474Q192 512 221.5 546Q251 580 281 607H106L124 711H437L420 619Q394 598 365.5 568Q337 538 311 500Q285 462 264.5 416Q244 370 235 316Z" glyph-name="seven.numr" horiz-adv-x="388" /><glyph d="M67 -175Q81 -102 113.5 -23.5Q146 55 190.5 129Q235 203 286.5 268Q338 333 391 381H75L103 538H627L603 405Q558 369 506.5 311Q455 253 407.5 178Q360 103 322 13.5Q284 -76 266 -175Z" glyph-name="seven.osf" horiz-adv-x="603" /><glyph d="M103 0Q116 73 148 151.5Q180 230 222.5 304Q265 378 315.5 443Q366 508 417 556H111L138 713H646L623 580Q579 544 529 486Q479 428 433 353Q387 278 350 188.5Q313 99 296 0Z" glyph-name="seven.tf" horiz-adv-x="590" /><glyph d="M66 -175Q79 -102 111 -23.5Q143 55 185.5 129Q228 203 278.5 268Q329 333 380 381H74L101 538H609L586 405Q542 369 492 311Q442 253 396 178Q350 103 313 13.5Q276 -76 259 -175Z" glyph-name="seven.tosf" horiz-adv-x="590" /><glyph d="M637 717H735L268 -2H170ZM116 318Q124 357 142.5 397.5Q161 438 186 476Q211 514 240.5 548Q270 582 300 609H125L143 713H456L439 621Q413 600 384.5 570Q356 540 330 502Q304 464 283.5 418Q263 372 254 318ZM692 233Q708 233 720 241Q732 249 735 265Q737 280 737.5 284.5Q738 289 738 291Q738 305 728 311Q718 317 705 317Q691 317 679 309.5Q667 302 665 288Q661 268 660.5 263.5Q660 259 660 257Q660 233 692 233ZM663 71Q680 71 692 79Q704 87 706 103Q708 119 709 124Q710 129 710 131Q710 145 700 150.5Q690 156 677 156Q663 156 650.5 148.5Q638 141 636 127Q632 109 631 102.5Q630 96 630 95Q630 83 639 77Q648 71 663 71ZM648 -12Q616 -12 590 -7Q564 -2 544.5 8.5Q525 19 514.5 36Q504 53 504 78Q504 83 505 90.5Q506 98 509 119Q514 146 532 165.5Q550 185 572 196Q557 203 549 219Q541 235 541 253Q541 256 541.5 261.5Q542 267 546 287Q551 315 567 336Q583 357 606.5 371.5Q630 386 659.5 393.5Q689 401 721 401Q749 401 774.5 395Q800 389 818.5 377.5Q837 366 848 348.5Q859 331 859 307Q859 274 845 243.5Q831 213 800 196Q815 188 825 171Q835 154 835 134Q835 132 834.5 125.5Q834 119 829 96Q824 70 808 49.5Q792 29 768 15.5Q744 2 713 -5Q682 -12 648 -12Z" glyph-name="seveneighths" horiz-adv-x="875" unicode="&#8542;" /><glyph d="M308 136Q323 136 338.5 140Q354 144 366.5 152.5Q379 161 387.5 173Q396 185 399 202Q402 219 407 241Q412 263 412 279Q412 294 405.5 304Q399 314 389 320Q379 326 366.5 329Q354 332 342 332Q304 332 281 309.5Q258 287 251 254Q247 231 244.5 217Q242 203 242 192Q242 163 261.5 149.5Q281 136 308 136ZM276 -12Q234 -12 192.5 -2Q151 8 117.5 30Q84 52 63 85.5Q42 119 42 167Q42 186 45 204Q59 279 71.5 355Q84 431 98 506Q108 561 139 602Q170 643 213.5 670.5Q257 698 308.5 711.5Q360 725 412 725Q450 725 490 717.5Q530 710 562.5 692Q595 674 615.5 643.5Q636 613 636 567Q636 550 633 532.5Q630 515 627 498H446Q448 506 449.5 513.5Q451 521 451 529Q451 543 445 552.5Q439 562 429.5 567.5Q420 573 408.5 575.5Q397 578 385 578Q351 578 326.5 559.5Q302 541 296 507Q294 497 291.5 482Q289 467 286 451Q283 435 280.5 420Q278 405 277 396Q356 450 448 450Q481 450 509.5 442Q538 434 559 418Q580 402 592 376.5Q604 351 604 317Q604 293 598 262.5Q592 232 583 188Q573 134 542.5 96Q512 58 469 34Q426 10 375.5 -1Q325 -12 276 -12Z" glyph-name="six" horiz-adv-x="617" unicode="6" /><glyph d="M180 78Q199 78 211 87Q223 96 225 109Q230 134 230.5 140.5Q231 147 231 150Q231 165 220.5 170.5Q210 176 200 176Q188 176 173 167Q158 158 154 135Q152 124 150 114.5Q148 105 148 103Q148 78 180 78ZM164 -12Q135 -12 108.5 -5Q82 2 62.5 15Q43 28 31.5 47.5Q20 67 20 93Q20 98 20.5 102.5Q21 107 22 112L51 278Q56 308 74 331.5Q92 355 117.5 370.5Q143 386 174.5 394Q206 402 239 402Q302 402 338 378.5Q374 355 374 311Q374 306 373.5 296.5Q373 287 370 270H249Q251 278 251 281Q251 284 251 286Q251 298 243 305Q235 312 221 312Q202 312 191.5 302Q181 292 179 277L169 224Q189 238 212.5 244.5Q236 251 262 251Q310 251 333.5 229.5Q357 208 357 176Q357 171 357 167Q357 163 356 158L347 106Q342 77 324.5 55Q307 33 282 18Q257 3 226.5 -4.5Q196 -12 164 -12Z" glyph-name="six.dnom" horiz-adv-x="388" /><glyph d="M231 394Q250 394 262 403Q274 412 276 425Q281 450 281.5 456.5Q282 463 282 466Q282 481 271.5 486.5Q261 492 251 492Q239 492 224 483Q209 474 205 451Q203 440 201 430.5Q199 421 199 419Q199 394 231 394ZM215 304Q186 304 159.5 311Q133 318 113.5 331Q94 344 82.5 363.5Q71 383 71 409Q71 414 71.5 418.5Q72 423 73 428L102 594Q107 624 125 647.5Q143 671 168.5 686.5Q194 702 225.5 710Q257 718 290 718Q353 718 389 694.5Q425 671 425 627Q425 622 424.5 612.5Q424 603 421 586H300Q302 594 302 597Q302 600 302 602Q302 614 294 621Q286 628 272 628Q253 628 242.5 618Q232 608 230 593L220 540Q240 554 263.5 560.5Q287 567 313 567Q361 567 384.5 545.5Q408 524 408 492Q408 487 408 483Q408 479 407 474L398 422Q393 393 375.5 371Q358 349 333 334Q308 319 277.5 311.5Q247 304 215 304Z" glyph-name="six.numr" horiz-adv-x="388" /><glyph d="M308 136Q323 136 338.5 140Q354 144 366.5 152.5Q379 161 387.5 173Q396 185 399 202Q402 219 407 241Q412 263 412 279Q412 294 405.5 304Q399 314 389 320Q379 326 366.5 329Q354 332 342 332Q304 332 281 309.5Q258 287 251 254Q247 231 244.5 217Q242 203 242 192Q242 163 261.5 149.5Q281 136 308 136ZM276 -12Q234 -12 192.5 -2Q151 8 117.5 30Q84 52 63 85.5Q42 119 42 167Q42 186 45 204Q59 279 71.5 355Q84 431 98 506Q108 561 139 602Q170 643 213.5 670.5Q257 698 308.5 711.5Q360 725 412 725Q450 725 490 717.5Q530 710 562.5 692Q595 674 615.5 643.5Q636 613 636 567Q636 550 633 532.5Q630 515 627 498H446Q448 506 449.5 513.5Q451 521 451 529Q451 543 445 552.5Q439 562 429.5 567.5Q420 573 408.5 575.5Q397 578 385 578Q351 578 326.5 559.5Q302 541 296 507Q294 497 291.5 482Q289 467 286 451Q283 435 280.5 420Q278 405 277 396Q356 450 448 450Q481 450 509.5 442Q538 434 559 418Q580 402 592 376.5Q604 351 604 317Q604 293 598 262.5Q592 232 583 188Q573 134 542.5 96Q512 58 469 34Q426 10 375.5 -1Q325 -12 276 -12Z" glyph-name="six.osf" horiz-adv-x="617" /><glyph d="M297 136Q327 136 353.5 152.5Q380 169 385 202Q388 219 393 241Q398 263 398 279Q398 294 391.5 304Q385 314 375.5 320Q366 326 354 329Q342 332 330 332Q293 332 270.5 309.5Q248 287 241 254Q238 231 235.5 217Q233 203 233 192Q233 163 252 149.5Q271 136 297 136ZM266 -12Q225 -12 184.5 -2Q144 8 112 30Q80 52 59.5 85.5Q39 119 39 167Q39 186 42 204Q55 279 67.5 355Q80 431 93 506Q103 561 133 602Q163 643 205 670.5Q247 698 297.5 711.5Q348 725 398 725Q435 725 473.5 717.5Q512 710 543.5 692Q575 674 595 643.5Q615 613 615 567Q615 550 612 532.5Q609 515 606 498H431Q433 506 434 513.5Q435 521 435 529Q435 557 414.5 567.5Q394 578 371 578Q339 578 315 559.5Q291 541 285 507Q283 497 280.5 482Q278 467 275.5 451Q273 435 270.5 420Q268 405 267 396Q343 450 433 450Q464 450 492 442Q520 434 540 418Q560 402 572 376.5Q584 351 584 317Q584 293 578 262.5Q572 232 564 188Q554 134 524 96Q494 58 452.5 34Q411 10 362.5 -1Q314 -12 266 -12Z" glyph-name="six.tf" horiz-adv-x="590" /><glyph d="M297 136Q327 136 353.5 152.5Q380 169 385 202Q388 219 393 241Q398 263 398 279Q398 294 391.5 304Q385 314 375.5 320Q366 326 354 329Q342 332 330 332Q293 332 270.5 309.5Q248 287 241 254Q238 231 235.5 217Q233 203 233 192Q233 163 252 149.5Q271 136 297 136ZM266 -12Q225 -12 184.5 -2Q144 8 112 30Q80 52 59.5 85.5Q39 119 39 167Q39 186 42 204Q55 279 67.5 355Q80 431 93 506Q103 561 133 602Q163 643 205 670.5Q247 698 297.5 711.5Q348 725 398 725Q435 725 473.5 717.5Q512 710 543.5 692Q575 674 595 643.5Q615 613 615 567Q615 550 612 532.5Q609 515 606 498H431Q433 506 434 513.5Q435 521 435 529Q435 557 414.5 567.5Q394 578 371 578Q339 578 315 559.5Q291 541 285 507Q283 497 280.5 482Q278 467 275.5 451Q273 435 270.5 420Q268 405 267 396Q343 450 433 450Q464 450 492 442Q520 434 540 418Q560 402 572 376.5Q584 351 584 317Q584 293 578 262.5Q572 232 564 188Q554 134 524 96Q494 58 452.5 34Q411 10 362.5 -1Q314 -12 266 -12Z" glyph-name="six.tosf" horiz-adv-x="590" /><glyph d="M286 718H417L93 -178H-40Z" glyph-name="slash" horiz-adv-x="365" unicode="/" /><glyph glyph-name="space" horiz-adv-x="230" unicode=" " /><glyph d="M38 147H117L142 290H84L105 410H163Q167 431 172 461Q177 491 182 512Q193 568 219.5 608Q246 648 284 674Q322 700 368.5 712.5Q415 725 465 725Q502 725 537 716Q572 707 599.5 688.5Q627 670 643.5 640.5Q660 611 660 570Q660 554 657 532.5Q654 511 649 486H489Q492 501 493.5 511Q495 521 495 530Q495 556 479.5 567.5Q464 579 439 579Q375 579 363 515Q361 505 358.5 491Q356 477 353.5 462.5Q351 448 348.5 434Q346 420 345 410H514L493 290H324L299 147H600L543 0H12Z" glyph-name="sterling" horiz-adv-x="638" unicode="&#163;" /><glyph d="M37 150H110L134 284H79L102 410H156L174 511Q184 572 212 613Q240 654 276.5 679Q313 704 355 714.5Q397 725 436 725Q471 725 503 716Q535 707 560 688Q585 669 599.5 640.5Q614 612 614 573Q614 568 613.5 562.5Q613 557 611.5 547Q610 537 608 522Q606 507 602 484H453Q458 511 458.5 519Q459 527 459 531Q459 552 447 564.5Q435 577 411 577Q382 577 368.5 557Q355 537 351 514L333 410H477L455 284H310L287 150H554L499 0H12Z" glyph-name="sterling.tf" horiz-adv-x="590" /><glyph d="M-1 2 315 305 101 579 127 713H681L651 554H350L533 323L527 288L248 25H551L521 -133H-28Z" glyph-name="summation" horiz-adv-x="630" unicode="&#8721;" /><glyph d="M189 -10Q162 -10 136.5 -4.5Q111 1 91.5 14.5Q72 28 60 49.5Q48 71 48 104Q48 120 51 140L96 393H34L57 522H119L145 669H327L302 522H407L385 393H279L242 187Q242 184 241.5 181Q241 178 241 175Q241 157 252.5 150Q264 143 281 143Q297 143 312.5 144Q328 145 344 147L318 7Q253 -10 189 -10Z" glyph-name="t" horiz-adv-x="391" unicode="t" /><glyph d="M36 331H85L97 396H35L57 525H120L145 669H327L302 525H408L385 396H280L267 331H334L317 231H250L242 187Q242 184 241.5 181Q241 178 241 175Q241 157 252.5 150Q264 143 281 143Q297 143 312.5 144Q328 145 344 147L318 7Q253 -10 189 -10Q162 -10 136.5 -4.5Q111 1 91.5 14.5Q72 28 60 49.5Q48 71 48 104Q48 120 51 140L68 231H19Z" glyph-name="tbar" horiz-adv-x="391" unicode="&#359;" /><glyph d="M189 -10Q162 -10 136.5 -4.5Q111 1 91.5 14.5Q72 28 60 49.5Q48 71 48 104Q48 120 51 140L96 393H34L57 522H119L145 669H327L302 522H407L385 393H279L242 187Q242 184 241.5 181Q241 178 241 175Q241 157 252.5 150Q264 143 281 143Q297 143 312.5 144Q328 145 344 147L318 7Q253 -10 189 -10ZM376 713H517L455 562H348Z" glyph-name="tcaron" horiz-adv-x="409" unicode="&#357;" /><glyph d="M136 -219Q112 -219 82 -215Q52 -211 23 -203L36 -128Q63 -135 91.5 -139.5Q120 -144 139 -144Q188 -144 188 -115Q188 -102 172.5 -100Q157 -98 143 -96L95 -94L132 -3Q96 6 72 31Q48 56 48 104Q48 120 51 140L96 393H34L57 522H119L145 669H327L302 522H407L385 393H279L242 187Q242 184 241.5 181Q241 178 241 175Q241 157 252.5 150Q264 143 281 143Q297 143 312.5 144Q328 145 344 147L318 7Q289 -1 260.5 -5Q232 -9 202 -10L192 -36Q211 -36 232.5 -38.5Q254 -41 272 -48.5Q290 -56 302 -69Q314 -82 314 -103Q314 -131 299 -152.5Q284 -174 259 -189Q234 -204 202 -211.5Q170 -219 136 -219Z" glyph-name="tcommaaccent" horiz-adv-x="391" unicode="&#355;" /><glyph d="M299 116Q337 116 359 138.5Q381 161 387 196Q394 232 399 261Q404 286 407 306.5Q410 327 411 329Q412 334 412 338.5Q412 343 412 348Q412 376 395 392Q378 408 350 408Q307 408 284 383.5Q261 359 253 318L231 194Q230 189 230 185Q230 181 230 176Q230 147 250 131.5Q270 116 299 116ZM139 713H323L280 466H283Q316 503 356.5 523.5Q397 544 444 544Q513 544 558 508.5Q603 473 603 401Q603 390 602 379.5Q601 369 599 358Q591 311 583.5 264.5Q576 218 566 172Q557 127 534 92.5Q511 58 478.5 34.5Q446 11 407 -0.5Q368 -12 327 -12Q295 -12 261 2.5Q227 17 208 46H205L164 -187H-20Z" glyph-name="thorn" horiz-adv-x="610" unicode="&#254;" /><glyph d="M274 -12Q232 -12 190 -5Q148 2 115 20.5Q82 39 61.5 70Q41 101 41 149Q41 181 49 215H225Q224 207 222.5 200Q221 193 221 185Q221 170 228.5 160Q236 150 247.5 144Q259 138 273 136Q287 134 299 134Q318 134 334 141.5Q350 149 361.5 162Q373 175 379.5 191.5Q386 208 386 226Q386 244 378 256.5Q370 269 357 277.5Q344 286 328.5 289.5Q313 293 297 293H263L285 420H333Q350 420 367 425.5Q384 431 398 442Q412 453 420.5 471Q429 489 429 514Q429 543 412 557.5Q395 572 368 572Q325 572 304.5 553Q284 534 277 495H105L109 518Q118 571 144.5 610Q171 649 209.5 674.5Q248 700 295.5 712.5Q343 725 394 725Q433 725 472 715.5Q511 706 542 686Q573 666 592.5 633.5Q612 601 612 555Q612 489 578.5 437.5Q545 386 480 366L479 361Q526 348 553.5 314.5Q581 281 581 231Q581 169 552 123Q523 77 478 47Q433 17 379 2.5Q325 -12 274 -12Z" glyph-name="three" horiz-adv-x="609" unicode="3" /><glyph d="M147 -12Q81 -12 46 11.5Q11 35 11 83Q11 88 11.5 95.5Q12 103 14 109L17 120H139L138 112Q138 111 137.5 108Q137 105 137 102Q137 91 144 84Q151 77 170 77Q187 77 198.5 90.5Q210 104 210 127Q210 144 197.5 150Q185 156 168 156H142L155 233H182Q205 233 220 242.5Q235 252 235 283Q235 310 207 310Q184 310 177 298.5Q170 287 168 276L167 268H46L48 282Q56 336 104 369Q152 402 224 402Q290 402 325 377Q360 352 360 307Q360 266 336.5 238Q313 210 279 200V198Q307 190 323.5 171Q340 152 340 124Q340 85 320 59Q300 33 271 17Q242 1 208.5 -5.5Q175 -12 147 -12Z" glyph-name="three.dnom" horiz-adv-x="388" /><glyph d="M207 304Q141 304 106 327.5Q71 351 71 399Q71 404 71.5 411.5Q72 419 74 425L77 436H199L198 428Q198 427 197.5 424Q197 421 197 418Q197 407 204 400Q211 393 230 393Q247 393 258.5 406.5Q270 420 270 443Q270 460 257.5 466Q245 472 228 472H202L215 549H242Q265 549 280 558.5Q295 568 295 599Q295 626 267 626Q244 626 237 614.5Q230 603 228 592L227 584H106L108 598Q116 652 164 685Q212 718 284 718Q350 718 385 693Q420 668 420 623Q420 582 396.5 554Q373 526 339 516V514Q367 506 383.5 487Q400 468 400 440Q400 401 380 375Q360 349 331 333Q302 317 268.5 310.5Q235 304 207 304Z" glyph-name="three.numr" horiz-adv-x="388" /><glyph d="M243 -187Q201 -187 159 -180Q117 -173 84 -154.5Q51 -136 30.5 -105Q10 -74 10 -26Q10 6 18 40H194Q193 32 191.5 25Q190 18 190 10Q190 -5 197.5 -15Q205 -25 216.5 -31Q228 -37 242 -39Q256 -41 268 -41Q287 -41 303 -33.5Q319 -26 330.5 -13Q342 0 348.5 16.5Q355 33 355 51Q355 69 347 81.5Q339 94 326 102.5Q313 111 297.5 114.5Q282 118 266 118H232L254 245H302Q319 245 336 250.5Q353 256 367 267Q381 278 389.5 296Q398 314 398 339Q398 368 381 382.5Q364 397 337 397Q294 397 273.5 378Q253 359 246 320H74L78 343Q87 396 113.5 435Q140 474 178.5 499.5Q217 525 264.5 537.5Q312 550 363 550Q402 550 441 540.5Q480 531 511 511Q542 491 561.5 458.5Q581 426 581 380Q581 314 547.5 262.5Q514 211 449 191L448 186Q495 173 522.5 139.5Q550 106 550 56Q550 -6 521 -52Q492 -98 447 -128Q402 -158 348 -172.5Q294 -187 243 -187Z" glyph-name="three.osf" horiz-adv-x="607" /><glyph d="M259 -12Q218 -12 177.5 -5Q137 2 105 20.5Q73 39 53 70Q33 101 33 149Q33 181 41 215H211Q210 207 208.5 200Q207 193 207 185Q207 170 214.5 160Q222 150 233 144Q244 138 257.5 136Q271 134 283 134Q301 134 316.5 141.5Q332 149 343.5 162Q355 175 361 191.5Q367 208 367 226Q367 244 359.5 256.5Q352 269 339.5 277.5Q327 286 311.5 289.5Q296 293 281 293H248L269 420H316Q332 420 349 425.5Q366 431 379 442Q392 453 400.5 471Q409 489 409 514Q409 543 392.5 557.5Q376 572 350 572Q308 572 288 553Q268 534 262 495H95L99 518Q108 571 133.5 610Q159 649 196 674.5Q233 700 279 712.5Q325 725 375 725Q413 725 451 715.5Q489 706 519 686Q549 666 568 633.5Q587 601 587 555Q587 489 554.5 437.5Q522 386 459 366L458 361Q503 348 530 314.5Q557 281 557 231Q557 169 529 123Q501 77 457.5 47Q414 17 361 2.5Q308 -12 259 -12Z" glyph-name="three.tf" horiz-adv-x="590" /><glyph d="M232 -187Q191 -187 150.5 -180Q110 -173 78 -154.5Q46 -136 26 -105Q6 -74 6 -26Q6 6 14 40H184Q183 32 181.5 25Q180 18 180 10Q180 -5 187.5 -15Q195 -25 206 -31Q217 -37 230.5 -39Q244 -41 256 -41Q274 -41 289.5 -33.5Q305 -26 316.5 -13Q328 0 334 16.5Q340 33 340 51Q340 69 332.5 81.5Q325 94 312.5 102.5Q300 111 284.5 114.5Q269 118 254 118H221L242 245H289Q305 245 322 250.5Q339 256 352 267Q365 278 373.5 296Q382 314 382 339Q382 368 365.5 382.5Q349 397 323 397Q281 397 261 378Q241 359 235 320H68L72 343Q81 396 106.5 435Q132 474 169 499.5Q206 525 252 537.5Q298 550 348 550Q386 550 424 540.5Q462 531 492 511Q522 491 541 458.5Q560 426 560 380Q560 314 527.5 262.5Q495 211 432 191L431 186Q476 173 503 139.5Q530 106 530 56Q530 -6 502 -52Q474 -98 430.5 -128Q387 -158 334 -172.5Q281 -187 232 -187Z" glyph-name="three.tosf" horiz-adv-x="590" /></font>
</defs>
</svg>
